<?xml version="1.0" encoding="utf-8"?>
<!-- Generator: Adobe Illustrator 16.0.0, SVG Export Plug-In . SVG Version: 6.00 Build 0)  -->
<!DOCTYPE svg PUBLIC "-//W3C//DTD SVG 1.1//EN" "http://www.w3.org/Graphics/SVG/1.1/DTD/svg11.dtd">
<svg version="1.1" xmlns="http://www.w3.org/2000/svg" xmlns:xlink="http://www.w3.org/1999/xlink" x="0px" y="0px" width="732px"
	 height="692px" viewBox="0 0 732 692" enable-background="new 0 0 732 692" xml:space="preserve">
<g id="Calque_1" display="none">
	<rect x="184.41" y="646.085" display="inline" fill="none" width="415.59" height="37.878"/>
	<text transform="matrix(1 0 0 1 184.4102 670.9346)" display="inline" font-family="'MyriadPro-Regular'" font-size="35">Colibri à tête bleue</text>
</g>
<g id="colombe_à_croissant">
</g>
<g id="colombe_rouviolette">
</g>
<g id="colibri_madere">
</g>
<g id="colibri_à_tête_bleue">
	<g>
		<g opacity="0.3">
			<g>
				<g enable-background="new    ">
					<defs>
						<polygon id="SVGID_13_" enable-background="new    " points="33.693,608.71 25.39,266.865 613.435,268.759 706.61,606.225 
													"/>
					</defs>
					<clipPath id="SVGID_2_">
						<use xlink:href="#SVGID_13_"  overflow="visible"/>
					</clipPath>
					<g clip-path="url(#SVGID_2_)">
						<path fill="#959595" d="M250.407,495.229c0.706-0.001,1.331-0.077,1.87-0.189c0.54-0.113,0.995-0.264,1.361-0.414
							c0.365-0.151,0.644-0.301,0.829-0.414c0.187-0.112,0.281-0.188,0.281-0.188s0.005-0.001,0.016-0.005
							c0.009-0.004,0.024-0.009,0.046-0.016c0.02-0.007,0.045-0.017,0.074-0.028c0.029-0.012,0.064-0.025,0.104-0.04
							c-0.83,0.831-1.707,1.428-2.588,1.867s-1.765,0.718-2.608,0.913c-0.846,0.194-1.65,0.305-2.372,0.405
							c-0.723,0.1-1.363,0.19-1.877,0.347c-0.131,0.04-0.297,0.074-0.494,0.105c-0.195,0.032-0.424,0.059-0.676,0.083
							c-0.252,0.024-0.531,0.044-0.828,0.061c-0.299,0.017-0.618,0.03-0.953,0.041l0.878-0.208c0,0,0.135-0.069,0.375-0.193
							c0.239-0.126,0.587-0.309,1.009-0.539c0.42-0.23,0.916-0.505,1.457-0.816c0.543-0.312,1.131-0.659,1.734-1.03
							c0.217,0.046,0.428,0.086,0.635,0.119s0.41,0.06,0.605,0.081c0.197,0.021,0.39,0.036,0.577,0.045
							C250.049,495.225,250.23,495.229,250.407,495.229 M259.932,487.397c-0.054-0.141-0.107-0.284-0.158-0.426
							c-0.052-0.144-0.102-0.288-0.148-0.434s-0.092-0.293-0.132-0.442c-0.04-0.148-0.075-0.299-0.106-0.452
							c-0.088-0.444,0-1.001,0.22-1.661c0.221-0.661,0.575-1.425,1.021-2.289c0.447-0.862,0.985-1.822,1.572-2.875
							c0.59-1.051,1.227-2.194,1.873-3.421c0.327-0.353,0.628-0.691,0.904-1.016c0.277-0.325,0.529-0.637,0.763-0.936
							c0.231-0.299,0.441-0.586,0.634-0.861c0.19-0.274,0.363-0.537,0.519-0.789c0.433,0.627,0.612,1.23,0.64,1.793
							c0.026,0.563-0.098,1.087-0.276,1.554c-0.177,0.468-0.404,0.88-0.585,1.221c-0.178,0.341-0.309,0.611-0.285,0.793
							c0.014,0.132-0.182,0.55-0.531,1.174c-0.352,0.625-0.859,1.456-1.469,2.415c-0.609,0.959-1.321,2.046-2.082,3.181
							C261.543,485.063,260.733,486.247,259.932,487.397 M28.355,266.875c-0.266-0.001-0.527,0-0.783,0.003
							s-0.508,0.008-0.754,0.015c-0.247,0.007-0.489,0.016-0.727,0.027c-0.238,0.011-0.471,0.024-0.7,0.039
							c5.55,1.593,11.227,3.143,16.996,4.677c5.775,1.536,11.642,3.056,17.56,4.587c5.924,1.533,11.901,3.078,17.892,4.661
							c5.997,1.586,12.009,3.209,17.995,4.901c2.086,0.622,3.564,1.109,4.983,1.596c1.42,0.487,2.78,0.974,4.629,1.596
							c1.851,0.623,4.189,1.38,7.568,2.409c3.383,1.03,7.808,2.333,13.83,4.043c0.836,1.36,1.977,2.343,3.273,3.099
							c1.297,0.757,2.747,1.288,4.202,1.748c1.453,0.46,2.91,0.849,4.219,1.321s2.471,1.029,3.332,1.824
							c3.092,1.375,5.768,2.887,8.08,4.509c2.313,1.625,4.264,3.36,5.906,5.181c1.645,1.822,2.98,3.73,4.063,5.696
							c1.084,1.969,1.912,3.995,2.541,6.053c1.335,2.119,2.516,5.302,3.5,9.075c0.986,3.784,1.771,8.166,2.303,12.662
							c0.535,4.512,0.814,9.141,0.789,13.393c-0.027,4.268-0.364,8.153-1.063,11.154c-1.121,4.569-1.211,8.854-0.602,12.85
							c0.611,4.01,1.93,7.728,3.618,11.154c1.696,3.434,3.764,6.573,5.872,9.416c2.113,2.849,4.266,5.398,6.117,7.648
							c1.046,1.464,2.137,2.958,3.254,4.451c1.119,1.493,2.264,2.984,3.418,4.439c1.153,1.457,2.318,2.878,3.474,4.229
							c1.155,1.353,2.302,2.636,3.421,3.816c2.409,2.546,5.9,5.6,10.091,8.843c4.201,3.25,9.108,6.693,14.333,10.005
							c5.237,3.321,10.793,6.512,16.274,9.245c5.491,2.739,10.903,5.017,15.838,6.506c0.382,0.114,0.774,0.234,1.179,0.359
							s0.823,0.257,1.254,0.393c0.429,0.136,0.871,0.277,1.326,0.422c0.455,0.145,0.924,0.295,1.408,0.449
							c-0.123,0.152-0.222,0.309-0.297,0.466c-0.075,0.158-0.125,0.316-0.148,0.472c-0.023,0.155-0.019,0.307,0.017,0.453
							c0.034,0.145,0.099,0.284,0.196,0.412c0.266,0.349,0.383,0.817,0.398,1.334c0.016,0.517-0.076,1.083-0.229,1.627
							s-0.37,1.067-0.61,1.497c-0.239,0.43-0.502,0.767-0.744,0.94c-0.244,0.173-0.727,1.044-1.33,2.274
							c-0.607,1.231-1.334,2.823-2.064,4.434c-0.731,1.613-1.467,3.244-2.087,4.551c-0.621,1.308-1.126,2.29-1.395,2.601
							c-0.265,0.309-0.415,0.56-0.498,0.783c-0.085,0.224-0.101,0.419-0.099,0.618c0.004,0.199,0.023,0.399,0.016,0.634
							s-0.047,0.5-0.161,0.832c-0.114,0.329-0.603,0.61-1.27,0.847c-0.667,0.236-1.514,0.429-2.347,0.581
							c-0.832,0.151-1.65,0.261-2.26,0.334s-1.012,0.107-1.012,0.107s-0.474,0.031-1.24,0.079c-0.768,0.047-1.826,0.11-2.994,0.173
							c-1.169,0.063-2.447,0.126-3.654,0.173c-1.205,0.048-2.338,0.081-3.215,0.081c-0.109,0.001-0.215,0-0.316,0
							s-0.198-0.002-0.291-0.004c-0.092-0.002-0.179-0.004-0.262-0.007s-0.16-0.007-0.232-0.011
							c-0.527-0.031-1.059-0.091-1.606-0.165c-0.548-0.073-1.112-0.159-1.708-0.24s-1.223-0.159-1.893-0.216
							c-0.671-0.057-1.387-0.093-2.16-0.092c-0.173,0-0.348,0.002-0.526,0.006c-0.178,0.004-0.359,0.011-0.543,0.019
							c-0.186,0.008-0.374,0.019-0.564,0.031c-0.19,0.014-0.384,0.029-0.582,0.046c-1.111,0.235-1.767,0.494-2.124,0.75
							c-0.358,0.256-0.42,0.51-0.342,0.734c0.078,0.224,0.295,0.418,0.493,0.557c0.196,0.139,0.374,0.221,0.374,0.221
							s0.042,0.001,0.118,0.002c0.075,0.002,0.185,0.003,0.323,0.006c0.138,0.002,0.303,0.004,0.488,0.005
							c0.187,0.001,0.392,0.002,0.613,0.002c0.23,0,0.475-0.002,0.727-0.005c0.252-0.004,0.514-0.009,0.773-0.016
							c0.259-0.007,0.52-0.017,0.772-0.03c0.251-0.013,0.497-0.028,0.727-0.049c0.29-0.025,0.545-0.054,0.771-0.084
							c0.225-0.031,0.418-0.062,0.59-0.088c0.171-0.027,0.319-0.052,0.449-0.069c0.13-0.017,0.242-0.028,0.344-0.028
							c0.055,0,0.105,0.003,0.154,0.01c0.049,0.006,0.096,0.017,0.14,0.032c0.046,0.014,0.09,0.033,0.134,0.056
							c0.043,0.023,0.085,0.052,0.129,0.086c0.114,0.091,0.4,0.22,0.793,0.362c0.393,0.141,0.895,0.297,1.445,0.441
							c0.549,0.144,1.148,0.276,1.734,0.373s1.158,0.156,1.658,0.156c0.035,0,0.07,0,0.105,0c0.034-0.001,0.068-0.002,0.103-0.003
							c0.032-0.001,0.067-0.003,0.1-0.005c0.033-0.002,0.066-0.004,0.099-0.007c0.488-0.04,1.213-0.075,2.027-0.105
							c0.813-0.03,1.713-0.056,2.553-0.076c0.841-0.021,1.619-0.036,2.187-0.047c0.569-0.011,0.929-0.016,0.929-0.016
							s-0.209,0.079-0.55,0.206c-0.341,0.127-0.813,0.304-1.341,0.5c-0.527,0.196-1.11,0.411-1.672,0.617
							c-0.561,0.206-1.098,0.401-1.538,0.558c-0.321,0.114-0.599,0.248-0.839,0.392s-0.442,0.297-0.61,0.45
							c-0.169,0.151-0.305,0.301-0.412,0.438c-0.107,0.137-0.188,0.261-0.245,0.36c-0.154-0.002-0.307-0.004-0.452-0.006
							c-0.146-0.001-0.287-0.003-0.423-0.004c-0.136-0.001-0.266-0.002-0.391-0.003c-0.126,0-0.245,0-0.357,0
							c-0.153,0-0.294,0.001-0.424,0.003c-0.129,0.002-0.244,0.004-0.346,0.008c-0.104,0.003-0.191,0.008-0.264,0.014
							c-0.072,0.005-0.131,0.012-0.172,0.021c-0.271,0.052-0.841,0.16-1.576,0.293c-0.734,0.133-1.633,0.29-2.566,0.442
							c-0.932,0.151-1.896,0.296-2.761,0.403c-0.863,0.107-1.628,0.177-2.157,0.178c-0.531,0.001-1.188,0.092-1.893,0.235
							c-0.702,0.142-1.451,0.336-2.165,0.542c-0.715,0.206-1.396,0.424-1.961,0.616c-0.566,0.191-1.018,0.356-1.274,0.454
							c-0.189,0.072-0.264,0.209-0.238,0.374c0.027,0.165,0.154,0.356,0.369,0.54c0.214,0.183,0.517,0.356,0.896,0.484
							c0.377,0.128,0.83,0.21,1.345,0.21c0.187-0.001,0.381-0.012,0.582-0.036c0.202-0.023,0.412-0.06,0.627-0.11
							c0.216-0.051,0.438-0.115,0.667-0.197c0.23-0.08,0.464-0.177,0.706-0.292c0.908-0.432,1.882-0.725,2.923-0.925
							c1.039-0.199,2.146-0.307,3.321-0.368c1.174-0.061,2.418-0.076,3.73-0.09c1.314-0.014,2.696-0.029,4.15-0.09
							c0.375,0.137,0.79,0.249,1.236,0.342c0.447,0.093,0.925,0.166,1.422,0.221c0.498,0.056,1.016,0.094,1.545,0.118
							c0.528,0.024,1.066,0.034,1.605,0.033c0.965-0.001,1.931-0.038,2.834-0.093c0.904-0.054,1.748-0.126,2.471-0.198
							s1.322-0.144,1.744-0.197c0.42-0.054,0.66-0.089,0.66-0.089s-0.189,0.179-0.497,0.453c-0.31,0.274-0.738,0.645-1.218,1.026
							c-0.482,0.383-1.012,0.778-1.525,1.102c-0.514,0.324-1.01,0.578-1.418,0.677c-0.407,0.099-1.479,0.434-2.875,0.888
							s-3.119,1.027-4.826,1.6c-1.711,0.573-3.406,1.146-4.75,1.602c-1.342,0.456-2.332,0.791-2.629,0.891
							c-0.294,0.1-0.832,0.248-1.455,0.433c-0.625,0.186-1.336,0.409-1.979,0.655c-0.641,0.248-1.214,0.52-1.562,0.804
							c-0.349,0.284-0.471,0.58-0.214,0.876c0.063,0.072,0.162,0.134,0.292,0.186c0.128,0.052,0.29,0.095,0.479,0.128
							c0.188,0.034,0.403,0.058,0.642,0.074c0.239,0.015,0.5,0.022,0.782,0.022c0.87-0.001,1.925-0.078,3.044-0.21
							c1.119-0.132,2.301-0.321,3.43-0.546c1.129-0.226,2.2-0.488,3.099-0.77c0.897-0.281,1.622-0.579,2.054-0.877
							c1.029-0.159,1.995-0.38,2.895-0.635c0.9-0.255,1.733-0.544,2.496-0.838s1.455-0.595,2.076-0.874
							c0.619-0.278,1.165-0.535,1.635-0.743c0.064,0.011,0.129,0.019,0.192,0.027c0.063,0.007,0.127,0.014,0.189,0.018
							c0.063,0.005,0.128,0.008,0.189,0.011s0.125,0.003,0.187,0.003c0.537-0.001,1.049-0.089,1.515-0.22
							c0.466-0.131,0.885-0.307,1.238-0.481c0.353-0.174,0.638-0.349,0.834-0.479c0.198-0.131,0.306-0.218,0.306-0.218
							s0.204-0.143,0.531-0.375c0.328-0.232,0.781-0.554,1.281-0.913c0.502-0.358,1.052-0.754,1.572-1.133
							c0.52-0.379,1.012-0.742,1.396-1.037c0.269-0.205,0.509-0.372,0.733-0.509c0.223-0.136,0.428-0.242,0.623-0.322
							c0.195-0.081,0.381-0.135,0.563-0.17c0.182-0.035,0.361-0.049,0.546-0.05c0.083,0,0.165,0.003,0.251,0.008
							c0.085,0.004,0.17,0.012,0.26,0.021c0.088,0.009,0.18,0.02,0.273,0.033s0.19,0.027,0.291,0.042
							c0.393,0.137,0.875,0.728,1.439,1.59c0.566,0.862,1.213,1.997,1.936,3.217c0.723,1.222,1.52,2.53,2.386,3.74
							c0.866,1.211,1.798,2.324,2.789,3.151c0.366,0.229,0.706,0.422,1.026,0.583c0.32,0.161,0.618,0.289,0.895,0.388
							c0.277,0.1,0.533,0.17,0.77,0.215c0.237,0.045,0.453,0.066,0.652,0.066c0.48-0.001,0.853-0.126,1.132-0.319
							c0.28-0.193,0.468-0.455,0.579-0.729c0.113-0.274,0.15-0.562,0.13-0.806c-0.022-0.245-0.101-0.448-0.222-0.552
							c-0.17-0.148-0.391-0.334-0.643-0.562c-0.252-0.227-0.533-0.495-0.82-0.805c-0.289-0.31-0.585-0.661-0.865-1.055
							c-0.28-0.395-0.545-0.832-0.773-1.314c-0.061-0.53-0.321-1.217-0.698-1.965c-0.378-0.748-0.872-1.558-1.403-2.333
							c-0.53-0.775-1.096-1.517-1.617-2.13s-0.998-1.098-1.348-1.36c-0.334-0.25-0.487-0.521-0.508-0.785
							c-0.02-0.264,0.095-0.523,0.297-0.751c0.202-0.227,0.491-0.424,0.822-0.563c0.332-0.14,0.705-0.223,1.072-0.223
							c0.021,0,0.041,0,0.062,0c0.02,0.001,0.039,0.001,0.06,0.002c0.021,0.001,0.04,0.002,0.061,0.004
							c0.02,0.002,0.039,0.003,0.059,0.005c0.384,0.039,0.989,0.197,1.711,0.445c0.725,0.248,1.566,0.586,2.421,0.985
							c0.856,0.399,1.729,0.86,2.508,1.353c0.782,0.493,1.474,1.017,1.974,1.544c0.201,0.213,0.41,0.391,0.62,0.537
							c0.211,0.147,0.425,0.262,0.638,0.351c0.215,0.089,0.427,0.151,0.637,0.19c0.211,0.04,0.418,0.057,0.618,0.057
							c0.296,0,0.577-0.039,0.836-0.103c0.258-0.063,0.494-0.151,0.697-0.25c0.202-0.098,0.372-0.205,0.5-0.31
							c0.129-0.104,0.214-0.204,0.248-0.286c0.466-0.54,0.319-1.095-0.179-1.628c-0.498-0.534-1.348-1.045-2.287-1.499
							c-0.938-0.452-1.967-0.845-2.824-1.143s-1.543-0.499-1.799-0.567c-0.253-0.068-0.672-0.202-1.168-0.375
							c-0.497-0.172-1.07-0.384-1.632-0.607c-0.563-0.222-1.114-0.455-1.567-0.67c-0.455-0.216-0.809-0.416-0.978-0.57
							c-0.433-0.675-0.363-1.486-0.009-2.35c0.355-0.864,0.998-1.781,1.713-2.667c0.715-0.886,1.501-1.743,2.146-2.488
							c0.645-0.744,1.15-1.376,1.299-1.815c0.148-0.437,0.502-1.042,1.008-1.74s1.163-1.489,1.92-2.299
							c0.754-0.81,1.606-1.638,2.502-2.411c0.896-0.773,1.836-1.49,2.766-2.079c0.63-0.454,1.154-0.899,1.588-1.334
							c0.435-0.436,0.776-0.861,1.041-1.276c0.262-0.414,0.447-0.817,0.564-1.208c0.119-0.391,0.171-0.77,0.168-1.135
							c3.078,0.729,6.397,1.461,9.982,2.184c3.586,0.723,7.436,1.435,11.572,2.121c4.136,0.686,8.559,1.347,13.286,1.968
							c4.729,0.621,9.763,1.202,15.124,1.729c1.232,0.877,2.521,1.763,3.882,2.621c1.362,0.858,2.796,1.69,4.322,2.458
							c1.526,0.769,3.142,1.475,4.867,2.083c1.727,0.607,3.56,1.115,5.519,1.49c1.437,0.949,9.567,7.036,23.098,16.01
							c13.619,9.034,32.765,21.03,56.117,33.688c23.561,12.772,51.415,26.225,82.091,37.932
							c30.915,11.799,64.604,21.788,99.36,27.439c1.572,0.303,3.623,0.623,5.986,0.931c2.363,0.308,5.039,0.605,7.861,0.863
							c2.825,0.258,5.794,0.476,8.745,0.628c2.949,0.151,5.879,0.236,8.623,0.226c4.596-0.017,8.67-0.299,11.437-0.978
							c2.766-0.678,4.226-1.751,3.602-3.349c-0.623-1.595-3.326-3.713-8.879-6.48c-5.543-2.762-13.922-6.169-25.896-10.346
							c-1.326-0.568-3.107-1.362-5.294-2.36c-2.186-0.998-4.774-2.2-7.717-3.583c-2.939-1.381-6.23-2.945-9.823-4.667
							c-3.586-1.721-7.473-3.6-11.607-5.615c6.641,2.075,14.572,4.192,22.965,6.202c8.402,2.012,17.268,3.916,25.762,5.56
							c8.501,1.645,16.629,3.028,23.541,3.997c6.917,0.97,12.616,1.525,16.261,1.513c0.413,0.01,0.818,0.019,1.218,0.025
							s0.792,0.012,1.178,0.016c0.389,0.004,0.77,0.007,1.142,0.008c0.374,0.002,0.741,0.002,1.103,0.001
							c9.644-0.032,14.798-0.999,17.007-2.459c2.205-1.459,1.47-3.411-0.662-5.417c-2.132-2.002-5.657-4.058-9.042-5.733
							c-3.381-1.672-6.626-2.965-8.204-3.445c-3.868-1.094-7.7-2.413-11.433-3.856c-3.73-1.441-7.36-3.007-10.83-4.597
							c-3.464-1.587-6.768-3.199-9.848-4.734c-3.079-1.534-5.936-2.993-8.51-4.278c1.555-0.5,1.465-1.565,0.308-2.93
							c-1.157-1.364-3.382-3.025-6.101-4.721c-2.719-1.693-5.93-3.421-9.069-4.919c-3.136-1.497-6.2-2.765-8.628-3.544
							c-2.428-0.778-5.738-2.313-9.338-4.174c-3.593-1.859-7.471-4.044-11.04-6.129c-3.565-2.083-6.824-4.064-9.188-5.525
							c-2.363-1.459-3.837-2.399-3.837-2.399s0.824-0.41,2.03-1.099c1.206-0.688,2.793-1.653,4.322-2.762
							c1.526-1.107,2.994-2.359,3.966-3.62c0.969-1.26,1.438-2.532,0.978-3.683c-1.338-0.956-5.766-3.267-11.777-6.256
							c-5.999-2.983-13.568-6.638-21.213-10.296c-7.623-3.649-15.322-7.3-21.62-10.292c-6.284-2.986-11.182-5.32-13.227-6.347
							c-2.591-1.024-6.729-3.065-11.479-5.547c-4.739-2.478-10.083-5.394-15.095-8.177c-5.004-2.779-9.68-5.426-13.105-7.38
							c-3.422-1.951-5.6-3.211-5.618-3.221c-1.69-1.491-4.141-3.384-6.862-5.384c-2.719-1.997-5.709-4.097-8.483-6.01
							c-2.771-1.91-5.329-3.633-7.192-4.877s-3.035-2.011-3.035-2.011s-3.733-3.17-10.363-8.359
							c-6.605-5.168-16.063-12.324-27.536-20.323c-11.406-7.951-24.79-16.725-39.353-25.218
							c-14.471-8.438-30.112-16.601-46.179-23.425c0,0-0.604-0.339-1.59-0.884c-0.983-0.544-2.347-1.294-3.864-2.115
							c-1.518-0.82-3.188-1.712-4.789-2.542c-1.602-0.829-3.133-1.596-4.371-2.169c0.033-0.02,0.067-0.039,0.102-0.058
							c0.035-0.019,0.069-0.038,0.105-0.057c0.035-0.019,0.07-0.038,0.105-0.057c0.034-0.02,0.068-0.039,0.1-0.059
							c0,0-0.289-0.395-0.735-1.073c-0.446-0.677-1.05-1.635-1.675-2.762c-0.627-1.125-1.276-2.418-1.816-3.765
							c-0.541-1.346-0.973-2.746-1.164-4.087c-0.193-1.34-0.967-4.127-2.951-7.665c-1.978-3.526-5.154-7.793-10.152-12.112
							c-4.979-4.303-11.768-8.658-20.984-12.389c-9.195-3.721-20.816-6.826-35.513-8.65c-2.634-0.416-5.646-0.813-9.039-1.177
							c-3.389-0.363-7.157-0.693-11.3-0.972c-4.143-0.279-8.664-0.508-13.557-0.672c-4.896-0.164-10.166-0.261-15.812-0.277
							c-1.077-0.002-2.167-0.002-3.271,0c-1.104,0.004-2.22,0.009-3.352,0.02c-1.131,0.009-2.276,0.021-3.435,0.038
							c-1.158,0.016-2.332,0.035-3.518,0.058c-0.107-0.003-0.217-0.004-0.328-0.007c-0.111-0.002-0.225-0.003-0.34-0.005
							s-0.234-0.003-0.353-0.003c-0.119-0.001-0.24-0.002-0.363-0.002c-2.042-0.005-4.599,0.063-7.413,0.177
							c-2.813,0.115-5.881,0.276-8.945,0.458c-3.064,0.182-6.125,0.384-8.922,0.578c-2.799,0.194-5.332,0.381-7.343,0.534
							c-5.245-1.446-13.604-3.715-23.592-6.304c-9.97-2.584-21.558-5.487-33.291-8.207c-11.712-2.715-23.575-5.25-34.138-7.109
							C44.156,268.083,34.893,266.897,28.355,266.875"/>
					</g>
				</g>
			</g>
		</g>
		<g>
			<path id="patted_1_" fill="#232326" d="M273.41,426.623c0,0,1.62,3.927-4.709,15.848c-3.092,9.421-5.892,16.191-5.742,19.578
				c0.145,3.385,1.03,6.329,0.736,9.125c-0.295,2.797-6.182,6.771-6.182,6.771s-2.504,3.534-6.623,1.766
				c-2.502,2.796-4.712,4.856-4.712,4.856l-3.974,1.767l-5.297-0.735l-1.324-0.294c0,0,0.584-2.356,2.353-3.533
				c1.766-1.177,5.152-3.533,5.152-3.533s-5.592,0.146-7.505,0.441c-1.916,0.293-5.299-1.766-5.742-2.503
				c-0.441-0.735-0.885-0.147-2.648,0.148c-1.77,0.294-4.418,0.147-4.418,0.147s-2.649-2.502,1.765-4.269
				c4.269-0.737,6.771,0.883,9.274,1.178c2.504,0.294,11.925-0.883,11.925-0.883s6.327-1.031,6.917-3.533
				c0.588-2.503-0.146-3.091,1.029-5.445c1.18-2.355,7.215-25.171,8.244-26.495c1.029-1.326,2.649-7.703,1.766-10.403
				c-0.886-2.697,2.207-7.851,5.151-5.937C271.791,422.599,273.303,423.864,273.41,426.623z"/>
			<path id="patteg_1_" fill="#343338" d="M282.831,425.447c0,0,8.831,8.831,0,20.212c-3.925,4.515-8.242,12.954-9.027,16.289
				c-0.784,3.339-7.46,12.562-6.085,17.666c0.588,1.177,3.999,3.705,4.957,4.219c0.955,0.516,8.386,5.078,6.326,9.126
				c-0.29,1.03-2.939,3.606-4.636-0.368c-1.69-3.975-6.402-7.875-7.872-8.169c-1.475-0.294-3.391,2.355-2.137,4.342
				c1.252,1.988,4.051,10.671,4.051,14.646c0.66,3.607,1.986,5.888,2.574,6.992c0.59,1.104-0.441,8.021-4.93,2.135
				c-3.461-6.183-5.522-20.901-6.993-21.934c-1.252-0.367-1.915-0.44-3.533,1.768c-1.619,2.209-5.003,6.478-5.003,6.478
				s-2.281,3.238-4.641,2.5c-1.908,1.546-5.075,4.564-9.124,5.743c-2.354,2.942-12.659,5.887-13.543,3.68
				c-0.881-2.209,4.122-4.417,5.302-5.152c1.174-0.737,13.467-8.538,15.086-9.275c1.617-0.735,4.855-6.108,4.855-6.108
				s-9.197,2.576-13.096-0.294c-5.672,0.441-10.156-0.515-13.841,2.723c-3.677,3.239-5.737-1.104-4.707-1.84
				c1.03-0.735,5.175-3.458,7.237-3.458c2.06,0,7.848-2.063,8.927-2.455s12.954,0.786,15.214-0.49
				c2.253-1.275,6.672-0.196,10.498-8.439c3.828-8.242,12.069-28.653,12.069-30.125c0-1.473,2.799-5.888,0.884-11.041
				c-0.59-1.62-4.268-6.623-3.977-8.537c0.296-1.914,4.858-5.005,9.57-4.711C281.945,421.864,282.137,424.634,282.831,425.447z"/>
			<path id="corps_1_" fill="#4A772C" d="M185.975,219.022c0,0-5.783,44.336,0,68.431c1.928,8.675,12.048,44.338,20.722,64.579
				c8.675,20.241,33.736,56.384,52.529,67.95c12.529,7.711,38.072,28.431,98.793,35.177c63.13,3.616,131.44-40.479,131.741-58.974
				c-0.661-6.806-23.792-41.265-23.792-41.265S415.727,253.48,353.682,195.893c0,0-9.826-12.331-14.458-16.868
				C332.959,176.134,231.755,141.914,185.975,219.022z"/>
			<path id="queue_1_" fill="#374870" d="M487.967,391.187c0,0,30.589,39.577,39.986,47.529
				c7.229,7.952,55.028,56.293,59.364,63.522c0.724,8.674-13.688,20.918-13.688,20.918s19.54,28.169,28.214,33.952
				c8.675,5.783,25.312,26.012,18.806,29.626c8.676,9.397,20.971,23.849,34.704,31.801c5.784,3.615,35.424,32.526-7.948,30.357
				c-17.35,0-79.876-25.302-93.611-41.928c-16.625-15.18-137.463-148.912-143.859-194.997c0-6.506,37.961-7.408,47.359-11.022
				C466.689,397.332,487.967,391.187,487.967,391.187z"/>
			<path id="tete_1_" fill="#374870" d="M340.187,179.024c0,0-3.855-13.494-3.855-25.059c0-11.566-6.263-73.251-67.468-89.154
				c-13.011-4.337-35.179-7.711-66.504-6.265c-10.604-0.482-40.904,4.903-40.904,4.903l0.906,23.048
				c0,0,24.575,21.205,25.059,84.334c5.782,13.494,25.167,38.66,63.237,29.985C284.979,205.11,321.392,200.229,340.187,179.024z"/>
			<path id="cou_1_" fill="#374870" d="M163.807,83.605c0,0,72.768,11.083,117.587,57.349c6.5,8.502,38.063,28.591,36.618,45.458
				c-19.576,17.527-61.702,56.143-61.702,56.143c-17.169,27.076-34.192,76.702-58.77,83.934c-5.3-17.349-21.687-48.07-14.578-92.528
				c3.854-25.06,3.013-79.997-1.808-98.31c-1.927-17.831-7.228-34.699-19.758-46.746C163.807,83.605,163.807,83.605,163.807,83.605z
				"/>
			<path id="aile_1_" fill="#3A4559" d="M310.549,253.48c0,0-18.071-10.843-41.926,7.952c-9.398,7.229-28.193,38.312-6.506,84.576
				c6.506,13.734,20.962,40.481,29.637,47.71c4.339,9.397,10.844,33.975,18.795,43.373c4.338,5.06,14.458,10.842,20.964,9.397
				c5.06,7.952,10.844,18.072,20.239,21.687c5.061,7.228,102.648,170.597,229.15,211.078c15.181,5.783,81.686,15.18,15.181-32.529
				c-21.687-19.517-183.609-187.223-186.501-237.824c1.447-6.506,7.229-15.18,1.447-24.578c-5.784-9.398-5.063-10.12-10.122-18.794
				c7.229-3.615,10.844-7.591,5.423-19.879C398.377,332.273,369.825,288.901,310.549,253.48z"/>
			<path id="aile_2_" fill="#6DA02A" d="M310.549,253.48c0,0-18.071-10.843-41.926,7.952c-9.398,7.229-28.193,38.312-6.506,84.576
				c4.846,10.43,2.385,6.933,9.079,17.644c55.323-0.569,78.727-12.271,102.052-60.546
				C361.162,289.782,340.563,270.639,310.549,253.48z"/>
			<path id="bec_1_" fill="#3A4559" d="M198.266,83.849c-12.736-8.553-25.789-17.595-25.789-17.595S69.668,3.842,40.608,8.131
				c33.496,20.528,71.394,37.647,105.608,63.188c3.134,12.048,11.809,10.602,15.18,17.586
				C181.88,85.295,208.714,90.863,198.266,83.849z"/>
			<path id="bec_2_" fill="#D29FAE" d="M177.13,83.849c-12.737-8.553-35.083-25.643-75.282-41.076
				c24.574,13.75,11.702,8.753,44.369,28.546c3.134,12.048,11.809,10.602,15.18,17.586C181.88,85.295,187.578,90.863,177.13,83.849z
				"/>
			<path id="contour_oeil_1_" fill="#343338" d="M240.426,103.36c0,0,21.205-22.65,38.553-1.928
				c1.752,6.75-12.705,38.376-34.215,16.868C241.914,114.278,241.545,112.801,240.426,103.36z"/>
			<radialGradient id="yeux_4_" cx="253.082" cy="102.0386" r="21.9759" gradientUnits="userSpaceOnUse">
				<stop  offset="0" style="stop-color:#FFFFFF"/>
				<stop  offset="0.1386" style="stop-color:#D5D4D3"/>
				<stop  offset="0.2079" style="stop-color:#494340"/>
				<stop  offset="0.3663" style="stop-color:#28201D"/>
				<stop  offset="1" style="stop-color:#231B18"/>
			</radialGradient>
			<path id="yeux_1_" fill="url(#yeux_4_)" d="M270.453,114.438c-2.85,6.014-10.618,8.301-17.354,5.11
				c-6.733-3.189-9.886-10.649-7.036-16.664c2.849-6.014,10.617-8.301,17.352-5.111C270.15,100.964,273.301,108.425,270.453,114.438
				z"/>
		</g>
	</g>
</g>
<g id="elenie_siffleuse">
</g>
<g id="grive_à_pieds_jaunes">
</g>
<g id="merle_à_lunette">
</g>
<g id="moucherolle_gobemouche">
</g>
<g id="moqueur_corossol">
</g>
<g id="moqueur_grivotte">
</g>
<g id="trembleur_brun">
</g>
<g id="trembleur_gris">
</g>
<g id="paruline_cafeite">
</g>
<g id="saltator_gros_bec">
</g>
<g id="soporophile_rouge-gorge">
</g>
<g id="sucrier_à_ventre_jaune">
</g>
<g id="vachet_luisant">
</g>
<g id="vireo_a_moustaches">
</g>
<g id="merle_quiscale">
</g>
<g id="paruline_jaune">
</g>
<g id="tyran_gris">
</g>
<g id="sporophile_cici">
</g>
<g id="tourterelle_à_queue_carree">
</g>
<g id="colobri_huppé">
</g>
<g id="cécerelle_d_x27_amerique">
</g>
<g id="heron_vert">
</g>
<g id="pic_de_la_guadeloupe">
</g>
<g id="héron_garde-boeufs">
</g>
<g id="photos">
</g>
<g id="solitaire_siffleur">
</g>
<g id="tyran_janeau">
</g>
<g id="colibri_fallevert">
</g>
<g id="colombe_a_queue_noire">
</g>
</svg>
