<?xml version="1.0" encoding="utf-8"?>
<!-- Generator: Adobe Illustrator 16.0.0, SVG Export Plug-In . SVG Version: 6.00 Build 0)  -->
<!DOCTYPE svg PUBLIC "-//W3C//DTD SVG 1.1//EN" "http://www.w3.org/Graphics/SVG/1.1/DTD/svg11.dtd">
<svg version="1.1" xmlns="http://www.w3.org/2000/svg" xmlns:xlink="http://www.w3.org/1999/xlink" x="0px" y="0px" width="732px"
	 height="692px" viewBox="0 0 732 692" enable-background="new 0 0 732 692" xml:space="preserve">
<g id="Calque_1" display="none">
	<rect x="220.41" y="646.085" display="inline" fill="none" width="415.59" height="37.878"/>
	<text transform="matrix(1 0 0 1 220.4102 670.9346)" display="inline" font-family="'MyriadPro-Regular'" font-size="35">Elenie siffleuse</text>
</g>
<g id="colombe_à_croissant">
</g>
<g id="colombe_rouviolette">
</g>
<g id="colibri_madere">
</g>
<g id="colibri_à_tête_bleue">
</g>
<g id="elenie_siffleuse">
	<g>
		<g opacity="0.3">
			<g>
				<g enable-background="new    ">
					<defs>
						<polygon id="SVGID_15_" enable-background="new    " points="8.529,578.305 6.358,277.163 638.771,279.071 725.642,575.848 
													"/>
					</defs>
					<clipPath id="SVGID_2_">
						<use xlink:href="#SVGID_15_"  overflow="visible"/>
					</clipPath>
					<g clip-path="url(#SVGID_2_)">
						<path fill="#959595" d="M381.665,494.498c-0.831-0.113-1.753-0.219-2.748-0.387c-0.997-0.169-2.063-0.401-3.182-0.766
							s-2.286-0.862-3.483-1.561c-1.199-0.699-2.425-1.6-3.657-2.771c-1.509-1.427-3.465-3.378-5.555-5.517
							c-2.083-2.135-4.298-4.456-6.327-6.627c-2.024-2.167-3.863-4.186-5.206-5.725c-1.341-1.538-2.185-2.597-2.224-2.849
							c-0.025-0.184-0.189-0.436-0.426-0.747c-0.234-0.311-0.541-0.679-0.856-1.097c-0.315-0.418-0.642-0.885-0.911-1.39
							c-0.27-0.506-0.485-1.051-0.583-1.626c0.758-0.009,1.522-0.02,2.293-0.035s1.55-0.033,2.335-0.055
							c0.786-0.021,1.581-0.046,2.379-0.074c0.802-0.028,1.606-0.06,2.42-0.094c-0.025,0.123-0.043,0.404,0.108,0.868
							c0.153,0.464,0.475,1.111,1.134,1.966c0.66,0.856,1.655,1.92,3.151,3.218c1.5,1.299,3.503,2.833,6.176,4.626
							c1.675,1.6,3.283,3.087,4.767,4.454c1.482,1.369,2.838,2.619,4.006,3.744c1.17,1.126,2.154,2.127,2.889,2.999
							c0.734,0.872,1.222,1.614,1.4,2.221c0.18,0.606,0.287,1.196,0.367,1.772c0.08,0.576,0.13,1.137,0.197,1.685
							c0.064,0.548,0.142,1.082,0.277,1.604c0.135,0.521,0.326,1.029,0.615,1.525c0.031,0.053,0.069,0.106,0.113,0.159
							c0.043,0.053,0.092,0.106,0.146,0.159c0.056,0.054,0.114,0.106,0.179,0.161C381.525,494.39,381.592,494.443,381.665,494.498
							 M511.856,278.688c-10.405-0.032-18.903,0.862-25.842,2.271c-6.95,1.411-12.341,3.339-16.509,5.373
							c-4.175,2.038-7.126,4.183-9.182,6.017c-2.059,1.836-3.221,3.36-3.82,4.151c-0.313,0.813-0.721,1.668-1.207,2.55
							c-0.487,0.882-1.053,1.792-1.675,2.716c-0.624,0.925-1.304,1.864-2.022,2.802c-0.719,0.939-1.477,1.879-2.252,2.804
							c-1.443,1.398-3.262,3.14-5.232,4.981c-1.973,1.845-4.1,3.79-6.152,5.589c-2.057,1.802-4.041,3.457-5.725,4.716
							c-1.686,1.261-3.067,2.123-3.92,2.337c-0.924,0.65-4.568,1.783-9.897,3.241c-5.339,1.46-12.376,3.247-20.073,5.2
							c-7.713,1.957-16.093,4.082-24.096,6.212c-8.019,2.136-15.658,4.277-21.862,6.259c-6.215,1.985-14.409,4.565-23.655,7.653
							c-9.273,3.097-19.615,6.708-30.094,10.745c-10.521,4.053-21.187,8.54-31.048,13.369c-9.908,4.852-19.011,10.054-26.342,15.513
							c-7.37,5.486-15.264,11.644-22.983,17.811c-7.76,6.203-15.346,12.415-22.022,17.957c-6.714,5.568-12.501,10.451-16.62,13.949
							c-4.129,3.508-6.57,5.614-6.57,5.614s-0.223,0.213-0.633,0.602c-0.408,0.389-1.006,0.953-1.757,1.651
							c-0.749,0.699-1.651,1.534-2.673,2.466c-1.023,0.933-2.16,1.961-3.385,3.047c-1.379,1.137-2.907,2.371-4.537,3.647
							c-1.632,1.277-3.363,2.597-5.146,3.901c-1.785,1.306-3.62,2.597-5.455,3.815c-1.837,1.22-3.672,2.368-5.457,3.385
							c-2.217,1.365-8.375,5.345-16.529,10.627c-8.193,5.307-18.422,11.94-28.697,18.557c-10.335,6.656-20.721,13.297-29.094,18.533
							c-8.414,5.261-14.78,9.092-16.998,10.079c-5.085,2.749-9.932,5.568-14.435,8.333c-4.512,2.771-8.676,5.486-12.38,8.017
							c-3.715,2.536-6.968,4.886-9.646,6.92c-2.686,2.037-4.795,3.756-6.215,5.025c0,0-0.378,0.234-0.769,0.631
							c-0.392,0.397-0.797,0.957-0.855,1.607c-0.058,0.651,0.231,1.394,1.235,2.155c1.002,0.762,2.718,1.543,5.511,2.272
							c0.469,0.125,0.87,0.24,1.241,0.343c0.369,0.103,0.706,0.193,1.049,0.267c0.342,0.074,0.687,0.132,1.073,0.172
							c0.384,0.039,0.81,0.06,1.313,0.058c0.326-0.001,0.687-0.011,1.088-0.032c0.401-0.021,0.847-0.052,1.343-0.093
							c0.496-0.042,1.045-0.096,1.658-0.161c0.61-0.064,1.284-0.142,2.029-0.232c-0.287,0.47-0.722,1.058-1.146,1.718
							c-0.426,0.662-0.842,1.396-1.097,2.158c-0.253,0.763-0.344,1.554-0.114,2.328c0.229,0.774,0.779,1.532,1.802,2.226
							c0.729,0.493,1.528,1.095,2.407,1.719c0.877,0.625,1.83,1.273,2.864,1.859c1.036,0.586,2.15,1.11,3.351,1.487
							c1.202,0.376,2.486,0.605,3.861,0.6c0.558-0.001,1.127-0.042,1.715-0.126c0.587-0.084,1.187-0.212,1.802-0.391
							c0.615-0.178,1.248-0.405,1.894-0.688c0.646-0.283,1.306-0.621,1.981-1.021c2.338-1.38,6.564-4.148,11.646-7.583
							c5.069-3.424,10.981-7.507,16.722-11.54c5.723-4.019,11.272-7.987,15.659-11.21c4.373-3.214,7.592-5.691,8.671-6.743
							c1.077-1.051,6.288-5.102,13.593-10.628c7.269-5.501,16.592-12.453,25.967-19.362c9.316-6.867,18.688-13.694,26.174-19.039
							c7.452-5.32,13.058-9.187,14.925-10.187c0.087-0.047,0.175-0.097,0.266-0.148c0.091-0.051,0.184-0.104,0.276-0.158
							c0.095-0.054,0.192-0.109,0.289-0.166c0.098-0.056,0.197-0.113,0.296-0.171c0.902-0.183,1.854-0.384,2.854-0.604
							c1.001-0.221,2.05-0.461,3.155-0.722c1.104-0.261,2.258-0.542,3.467-0.845c1.211-0.303,2.474-0.626,3.795-0.973
							c4.324-0.275,9.116-0.612,13.999-0.994c4.879-0.382,9.846-0.81,14.525-1.267c4.678-0.457,9.066-0.944,12.795-1.446
							c3.726-0.501,6.789-1.017,8.818-1.531c2.918-0.93,8.304-1.862,14.864-2.746c6.556-0.884,14.281-1.719,21.891-2.458
							c7.603-0.738,15.089-1.38,21.177-1.878c6.085-0.497,10.775-0.849,12.792-1.008c0.937,0.028,1.933,0.065,2.979,0.107
							c1.049,0.043,2.151,0.09,3.305,0.141c1.154,0.05,2.359,0.103,3.613,0.156c1.252,0.054,2.554,0.106,3.9,0.157
							c0.214,0.387,0.479,0.785,0.806,1.19c0.323,0.406,0.708,0.82,1.159,1.241c0.449,0.422,0.967,0.851,1.557,1.287
							c0.591,0.436,1.256,0.878,2.001,1.326c1.418,0.769,2.895,1.707,4.332,2.717c1.44,1.01,2.841,2.094,4.11,3.153
							c1.27,1.06,2.402,2.095,3.307,3.009c0.904,0.915,1.58,1.708,1.926,2.283c0.348,0.574,1.227,1.402,2.327,2.377
							c1.103,0.975,2.431,2.097,3.674,3.258c1.243,1.162,2.405,2.364,3.173,3.497c0.77,1.134,1.145,2.199,0.816,3.087
							c-0.168,0.205-0.563,0.469-1.084,0.756c-0.52,0.287-1.161,0.597-1.821,0.893c-0.661,0.295-1.339,0.577-1.928,0.806
							c-0.592,0.23-1.093,0.409-1.403,0.5c-0.307,0.089-1.131,0.356-2.147,0.751c-1.02,0.395-2.228,0.917-3.299,1.518
							c-1.07,0.6-2.005,1.279-2.472,1.983c-0.469,0.706-0.469,1.438,0.33,2.147c0.074,0.107,0.221,0.238,0.426,0.374
							s0.466,0.278,0.766,0.406c0.301,0.128,0.64,0.243,1.002,0.325c0.36,0.083,0.742,0.133,1.131,0.132
							c0.264,0,0.529-0.025,0.791-0.078c0.261-0.053,0.518-0.137,0.768-0.255c0.248-0.118,0.488-0.271,0.713-0.465
							c0.225-0.194,0.434-0.43,0.624-0.712c0.466-0.697,1.189-1.392,2.04-2.044c0.85-0.652,1.83-1.262,2.813-1.791
							s1.964-0.978,2.825-1.307c0.859-0.329,1.596-0.539,2.079-0.592c0.025-0.002,0.052-0.005,0.078-0.007
							c0.025-0.001,0.051-0.003,0.077-0.005s0.052-0.002,0.078-0.003c0.025,0,0.052-0.001,0.077-0.001c0.484,0,1,0.107,1.483,0.289
							s0.933,0.439,1.28,0.737c0.345,0.298,0.587,0.638,0.654,0.985c0.066,0.347-0.039,0.703-0.389,1.032
							c-0.369,0.349-0.825,0.991-1.293,1.802c-0.469,0.812-0.95,1.792-1.373,2.817c-0.422,1.025-0.786,2.095-1.018,3.084
							c-0.232,0.99-0.332,1.898-0.227,2.599c-0.127,0.637-0.321,1.216-0.548,1.739c-0.229,0.522-0.492,0.988-0.76,1.399
							c-0.271,0.411-0.544,0.766-0.794,1.067c-0.251,0.302-0.476,0.549-0.648,0.745c-0.118,0.139-0.15,0.407-0.093,0.73
							c0.059,0.324,0.208,0.703,0.451,1.066c0.244,0.362,0.583,0.707,1.017,0.961c0.435,0.254,0.968,0.417,1.598,0.416
							c0.262-0.001,0.537-0.029,0.833-0.09c0.294-0.062,0.604-0.156,0.935-0.289c0.328-0.133,0.674-0.303,1.037-0.518
							c0.364-0.213,0.744-0.471,1.142-0.777c1.006-1.099,1.835-2.574,2.543-4.178c0.706-1.602,1.291-3.333,1.807-4.949
							c0.516-1.613,0.965-3.111,1.403-4.25c0.436-1.138,0.859-1.919,1.325-2.101c0.125-0.02,0.248-0.039,0.367-0.055
							c0.118-0.017,0.233-0.032,0.345-0.044c0.112-0.012,0.223-0.022,0.33-0.03c0.11-0.006,0.217-0.011,0.324-0.011
							c0.242,0,0.483,0.019,0.734,0.063c0.25,0.045,0.512,0.116,0.794,0.221c0.283,0.104,0.587,0.243,0.929,0.421
							c0.339,0.179,0.714,0.398,1.133,0.667c0.609,0.386,1.377,0.863,2.193,1.36c0.814,0.498,1.673,1.016,2.457,1.486
							c0.783,0.47,1.491,0.892,2.003,1.196s0.829,0.491,0.829,0.491s0.172,0.114,0.477,0.287c0.305,0.172,0.74,0.401,1.263,0.631
							c0.524,0.229,1.136,0.458,1.792,0.63c0.656,0.171,1.357,0.285,2.06,0.284c0.079,0,0.159-0.001,0.239-0.005
							s0.16-0.008,0.24-0.015c0.079-0.006,0.157-0.015,0.237-0.024c0.079-0.01,0.159-0.021,0.237-0.035
							c0.693,0.271,1.498,0.605,2.409,0.969c0.908,0.363,1.921,0.755,3.024,1.139c1.101,0.384,2.292,0.76,3.56,1.091
							c1.267,0.332,2.609,0.618,4.015,0.823c0.667,0.392,1.721,0.783,2.994,1.148c1.273,0.366,2.77,0.708,4.326,1
							c1.554,0.292,3.166,0.535,4.678,0.704c1.509,0.169,2.914,0.266,4.052,0.263c0.367,0,0.706-0.012,1.011-0.034
							c0.306-0.021,0.578-0.055,0.813-0.1c0.233-0.044,0.427-0.102,0.578-0.171c0.151-0.07,0.257-0.152,0.313-0.247
							c0.229-0.391-0.039-0.78-0.596-1.153c-0.558-0.373-1.403-0.729-2.33-1.052c-0.926-0.323-1.934-0.614-2.814-0.856
							c-0.881-0.242-1.637-0.436-2.057-0.565c-0.419-0.129-1.833-0.568-3.75-1.161c-1.917-0.592-4.339-1.34-6.776-2.086
							c-2.437-0.746-4.892-1.492-6.877-2.083c-1.986-0.591-3.504-1.027-4.071-1.156c-0.568-0.128-1.304-0.46-2.09-0.885
							c-0.785-0.425-1.621-0.943-2.385-1.445c-0.763-0.501-1.455-0.987-1.956-1.347s-0.812-0.595-0.812-0.595
							s0.326,0.046,0.896,0.115s1.382,0.161,2.353,0.251c0.97,0.091,2.099,0.183,3.301,0.25c1.2,0.068,2.477,0.112,3.739,0.11
							c0.354-0.001,0.706-0.005,1.056-0.014c0.35-0.008,0.695-0.021,1.038-0.038c0.341-0.018,0.678-0.04,1.011-0.066
							c0.33-0.027,0.653-0.059,0.971-0.097c0.209-0.019,0.421-0.043,0.635-0.073c0.216-0.03,0.434-0.065,0.654-0.107
							c0.22-0.042,0.442-0.091,0.667-0.146s0.451-0.118,0.68-0.189c1.05,0.451,2.063,0.87,2.994,1.245
							c0.929,0.375,1.774,0.707,2.489,0.981c0.714,0.275,1.297,0.494,1.701,0.644c0.405,0.15,0.63,0.231,0.63,0.231l5.949,0.943
							l7.059-0.973l1.733-0.328c0,0-0.008-0.008-0.023-0.025c-0.016-0.016-0.039-0.04-0.071-0.07
							c-0.03-0.03-0.069-0.067-0.114-0.109c-0.045-0.042-0.1-0.089-0.16-0.141c0.084,0.011,0.169,0.021,0.251,0.03
							s0.164,0.016,0.243,0.021c0.08,0.005,0.158,0.009,0.236,0.012c0.077,0.002,0.152,0.003,0.227,0.003
							c0.671-0.001,1.232-0.111,1.679-0.281c0.447-0.169,0.782-0.399,0.995-0.641c0.216-0.241,0.311-0.494,0.287-0.71
							s-0.168-0.395-0.44-0.49c-0.321-0.111-0.848-0.287-1.507-0.493c-0.658-0.207-1.448-0.445-2.29-0.681
							c-0.844-0.236-1.739-0.471-2.614-0.67c-0.874-0.199-1.725-0.363-2.478-0.46c0.309-0.009,0.615-0.018,0.913-0.025
							c0.298-0.008,0.589-0.015,0.867-0.02c0.281-0.005,0.551-0.01,0.803-0.014c0.256-0.003,0.495-0.005,0.715-0.005
							c0.057,0,0.11,0,0.162,0c0.054,0,0.104,0,0.155,0c0.05,0,0.1,0.001,0.147,0.002c0.047,0,0.095,0.001,0.14,0.001
							c0.011,0,0.021,0,0.032,0c0.012,0,0.021,0,0.033,0c0.01,0,0.021,0,0.034,0c0.011,0,0.021,0,0.032,0
							c0.676-0.001,1.429-0.109,2.183-0.279c0.753-0.171,1.509-0.402,2.19-0.651c0.683-0.249,1.293-0.516,1.758-0.754
							c0.462-0.238,0.779-0.449,0.874-0.587c0.041-0.057,0.084-0.104,0.134-0.143c0.05-0.039,0.105-0.069,0.166-0.093
							c0.063-0.023,0.13-0.039,0.205-0.049c0.078-0.01,0.162-0.015,0.255-0.015c0.138,0,0.296,0.009,0.478,0.023
							c0.184,0.015,0.389,0.035,0.625,0.056c0.236,0.021,0.502,0.044,0.799,0.063c0.299,0.02,0.631,0.037,1,0.046
							c0.057,0.002,0.114,0.003,0.173,0.004c0.058,0,0.116,0.001,0.175,0.002c0.059,0,0.119,0.001,0.177,0.001
							c0.061,0,0.121,0,0.182,0c0.603-0.001,1.241-0.019,1.858-0.044c0.617-0.026,1.213-0.059,1.733-0.093
							c0.522-0.033,0.967-0.067,1.282-0.092s0.501-0.042,0.501-0.042s0.179-0.126,0.35-0.329c0.168-0.203,0.323-0.481,0.278-0.789
							c-0.047-0.307-0.3-0.643-0.947-0.957c-0.648-0.314-1.69-0.608-3.324-0.833c-0.096-0.002-0.188-0.005-0.281-0.007
							c-0.095-0.002-0.186-0.004-0.278-0.005c-0.093-0.001-0.184-0.002-0.274-0.003c-0.09,0-0.179,0-0.268,0
							c-1.325,0.002-2.493,0.081-3.549,0.202c-1.058,0.123-2.001,0.289-2.875,0.467c-0.877,0.178-1.684,0.368-2.47,0.539
							c-0.786,0.17-1.546,0.32-2.329,0.418c-0.592,0.074-1.492,0.133-2.575,0.18c-1.081,0.047-2.347,0.082-3.665,0.107
							c-1.317,0.026-2.688,0.042-3.985,0.053c-1.295,0.011-2.515,0.015-3.531,0.017c-0.419,0-0.802,0.001-1.14,0
							c-0.34,0-0.637,0-0.881,0s-0.435-0.001-0.566-0.002c-0.131,0-0.2-0.001-0.2-0.001s-0.56-0.013-1.421-0.061
							c-0.861-0.047-2.024-0.128-3.235-0.264c-1.209-0.135-2.468-0.326-3.515-0.591c-1.049-0.265-1.887-0.605-2.26-1.041
							c-0.376-0.436-0.603-0.792-0.769-1.106s-0.272-0.587-0.401-0.855c-0.13-0.268-0.283-0.53-0.544-0.824
							c-0.261-0.294-0.63-0.62-1.194-1.015c-0.561-0.396-1.889-1.677-3.587-3.388c-1.697-1.709-3.763-3.846-5.813-5.956
							c-2.045-2.107-4.071-4.188-5.694-5.794c-1.622-1.604-2.841-2.736-3.279-2.948c-0.434-0.21-1.002-0.635-1.6-1.185
							c-0.598-0.55-1.226-1.225-1.787-1.936c-0.563-0.71-1.056-1.456-1.384-2.147c-0.328-0.691-0.488-1.329-0.385-1.823
							c19.379-1.094,35.126-2.32,48.246-3.665c13.097-1.342,23.579-2.802,32.447-4.366c8.851-1.56,16.093-3.223,22.718-4.974
							c6.616-1.748,12.617-3.583,18.996-5.49c6.435-1.925,13.483-5.044,20.624-8.839c7.117-3.782,14.316-8.231,21.097-12.838
							c6.75-4.588,13.081-9.333,18.506-13.736c5.403-4.386,9.91-8.437,13.043-11.667c4.533-4.942,7.082-11.071,8.354-17.463
							c1.268-6.356,1.271-12.969,0.719-18.945c-0.548-5.945-1.646-11.266-2.607-15.092c-0.956-3.813-1.776-6.153-1.776-6.153
							c-0.777-1.833-0.182-3.867,1.271-5.945c1.45-2.074,3.756-4.192,6.402-6.198c2.643-2.002,5.623-3.893,8.44-5.519
							c2.813-1.623,5.462-2.981,7.443-3.924c0.143-0.055,0.289-0.112,0.436-0.17c0.147-0.059,0.296-0.119,0.447-0.181
							c0.148-0.062,0.3-0.125,0.453-0.19c0.151-0.065,0.305-0.132,0.46-0.202c0.51,0.136,1.012,0.286,1.518,0.444
							c0.507,0.158,1.015,0.324,1.537,0.492c0.52,0.168,1.053,0.336,1.607,0.5s1.132,0.323,1.738,0.471
							c1.434,0.278,2.946,0.511,4.516,0.703c1.569,0.193,3.193,0.346,4.849,0.464s3.344,0.202,5.04,0.257
							c1.697,0.055,3.402,0.082,5.093,0.085c2.357,0.005,4.688-0.034,6.927-0.104c2.238-0.068,4.389-0.167,6.386-0.278
							c1.999-0.112,3.843-0.237,5.474-0.362c1.633-0.124,3.051-0.247,4.192-0.352c0.574,0.066,1.148,0.132,1.729,0.2
							c0.578,0.067,1.161,0.136,1.748,0.206c0.588,0.07,1.177,0.141,1.772,0.213s1.194,0.146,1.798,0.221
							c-0.09-0.234-0.202-0.465-0.334-0.693s-0.281-0.451-0.449-0.67c-0.168-0.22-0.356-0.437-0.559-0.649
							c-0.205-0.212-0.426-0.421-0.663-0.626c-0.13-0.133-0.268-0.267-0.41-0.399c-0.143-0.132-0.292-0.262-0.449-0.391
							c-0.155-0.128-0.317-0.253-0.485-0.375c-0.171-0.122-0.346-0.24-0.529-0.353c-0.235-0.127-0.477-0.252-0.723-0.375
							c-0.246-0.124-0.499-0.245-0.756-0.365c-0.255-0.12-0.516-0.238-0.779-0.355c-0.266-0.116-0.533-0.232-0.805-0.347
							c-2.002-0.889-4.309-1.686-6.783-2.397c-2.472-0.71-5.111-1.335-7.777-1.881s-5.357-1.013-7.939-1.407
							s-5.054-0.717-7.272-0.974c-1.191-0.141-2.31-0.262-3.337-0.365c-1.025-0.103-1.961-0.187-2.781-0.253
							c-0.822-0.066-1.53-0.116-2.104-0.148c-0.576-0.033-1.019-0.049-1.308-0.05c-0.028,0.064-0.059,0.127-0.096,0.19
							c-0.036,0.063-0.075,0.126-0.121,0.188c-0.045,0.063-0.092,0.124-0.146,0.186c-0.052,0.062-0.107,0.123-0.168,0.184
							c0.013-0.118,0.025-0.236,0.037-0.356c0.008-0.12,0.017-0.24,0.021-0.361c0.004-0.122,0.006-0.243,0.004-0.367
							c-0.002-0.124-0.007-0.248-0.016-0.374c-0.418-1.931-2.987-4.361-7.114-6.965c-4.119-2.598-9.788-5.368-16.421-7.984
							c-6.621-2.612-14.202-5.073-22.172-7.063c-7.959-1.988-16.309-3.508-24.485-4.242c-2.036-0.213-4.018-0.396-5.947-0.553
							c-1.931-0.156-3.811-0.284-5.639-0.387s-3.607-0.179-5.336-0.231C515.172,278.721,513.49,278.693,511.856,278.688"/>
					</g>
				</g>
			</g>
		</g>
		<g>
			<path fill="#232326" d="M355.74,434.244c0,0-1.589,5.534,8.744,20.633c5.598,12.221,10.395,20.917,10.705,25.5
				c0.317,4.582-0.426,8.682,0.395,12.403c0.82,3.723,9.354,8.184,9.354,8.184s3.91,4.379,9.189,1.374
				c3.797,3.387,7.085,5.828,7.085,5.828l5.619,1.776l7.024-1.795l1.742-0.598c0,0-1.146-3.083-3.709-4.401
				c-2.556-1.317-7.476-3.977-7.476-3.977s7.556-0.651,10.179-0.544c2.622,0.105,6.868-3.184,7.354-4.244
				c0.481-1.056,1.17-0.332,3.59-0.202c2.429,0.127,5.973-0.471,5.973-0.471s3.188-3.773-3.026-5.482
				c-5.858-0.346-8.986,2.217-12.315,2.992c-3.326,0.776-16.194,0.62-16.194,0.62s-8.68-0.43-9.854-3.709
				c-1.173-3.282-0.272-4.186-2.211-7.179c-1.947-2.995-13.539-32.811-15.128-34.44s-4.738-9.975-3.954-13.744
				c0.781-3.768-4.167-10.241-7.841-7.216C357.309,428.579,355.463,430.51,355.74,434.244z"/>
			<path fill="#343338" d="M332.621,417.486c0,0-11.563,11.56,0,26.459c5.135,5.91,10.784,16.956,11.812,21.323
				c1.027,4.369,9.769,16.443,7.968,23.124c-0.771,1.541-5.234,4.85-6.489,5.523c-1.252,0.675-10.977,6.646-8.28,11.946
				c0.378,1.348,3.847,4.722,6.068-0.482c2.212-5.203,8.379-10.309,10.305-10.693c1.93-0.387,4.437,3.083,2.796,5.683
				c-1.639,2.602-5.302,13.97-5.302,19.171c-0.865,4.723-2.6,7.708-3.372,9.154c-0.771,1.444,0.581,10.5,6.454,2.795
				c4.529-8.094,7.23-27.361,9.155-28.712c1.639-0.48,2.504-0.577,4.626,2.315c2.12,2.891,6.55,8.478,6.55,8.478
				s2.985,4.24,6.069,3.274c2.502,2.023,6.646,5.974,11.946,7.516c3.081,3.852,16.572,7.707,17.729,4.817
				c1.152-2.891-5.396-5.781-6.94-6.745c-1.539-0.964-17.628-11.175-19.747-12.139c-2.12-0.963-6.359-7.996-6.359-7.996
				s12.043,3.373,17.148-0.384c7.419,0.578,13.291-0.674,18.113,3.564c4.816,4.238,7.51-1.445,6.163-2.409s-6.774-4.527-9.475-4.527
				c-2.696,0-10.273-2.7-11.685-3.213c-1.414-0.512-16.959,1.028-19.914-0.641c-2.953-1.67-8.734-0.258-13.744-11.048
				c-5.01-10.789-15.799-37.508-15.799-39.434c0-1.928-3.664-7.707-1.157-14.452c0.772-2.121,5.587-8.67,5.206-11.175
				c-0.389-2.506-6.361-6.552-12.528-6.167C333.777,412.796,333.527,416.423,332.621,417.486z"/>
			<path id="queue_2_" fill="#746B62" d="M175.883,409.071c0,0-15.748,26.241-28.486,39.923
				c-8.965,10.379-81.621,99.975-90.113,107.098c-19.501,19.816-35.227,41.518-40.574,50.482c0,0-5.662,6.605,4.719,11.795
				c2.889,1.474,3.007,2.182,10.064,0.629c-1.102,3.303-4.404,9.908-0.629,14.784c3.773,4.875,9.594,15.727,18.4,6.133
				c8.806-9.593,46.236-57.874,50.482-65.423c4.244-7.549,73.127-101.436,80.676-108.984c7.549-7.549,26.422-35.857,26.422-35.857
				L175.883,409.071z"/>
			<path id="corps_2_" fill="#DBCF95" d="M598.421,181.672c0,0,3.775,80.478-19.814,121.052
				c-16.043,26.421-57.561,79.262-84.924,94.36c-27.365,15.097-48.123,27.764-127.385,36.056c-22.646,3.574-41.047,0.671-51.898,0
				c-8.021,1.216-58.502,8.292-70.297,15.369c-11.795,5.662-57.561,11.323-65.58,11.323c12.738-7.077,63.693-28.78,71.242-42.461
				c18.398-3.303,247.929-129.508,252.175-148.38c4.246-18.872,21.938-94.124,25.712-102.144
				c3.775-8.021,26.42-11.323,33.969-16.985s31.611-18.872,31.611-18.872s34.279-5.351,39.469,0.782
				C627.981,135.075,596.91,163.25,598.421,181.672z"/>
			<path id="dos" fill="#93877D" d="M483.605,105.815c0,0-24.979,43.273-30.012,45.79c-4.405,5.662-55.986,28.308-83.037,45.293
				c-27.05,16.984-88.068,54.098-120.15,98.762s-73.05,110.086-73.05,110.086s-14.325,25.315-25.006,39.395
				c-5.427,11.558-3.225,16.277,4.011,21.938c7.234,5.662,30.511-6.604,30.511-6.604S458.626,298.178,472.465,276.16
				c10.694-5.032,59.21-38.294,58.504-50.954c-0.63-11.323,7.547-55.751,20.05-66.603
				C542.84,144.764,483.605,105.815,483.605,105.815z"/>
			<path id="aile_3_" fill="#746B62" d="M491.336,196.583c0,0-9.436-31.138-119.836,48.124
				c-24.533,15.097-144.369,125.498-153.805,151.918c0,8.492-1.416,8.02,0,15.098c-5.662,5.425-40.339,31.61-42.934,37.507
				c-2.597,3.303-26.657,33.025,22.645,7.785c10.381-3.774,49.776-22.41,54.729-26.657c5.897-0.472,116.533-30.902,138.236-48.831
				c17.928-1.651,113.703-51.897,118.422-99.077C514.453,258.86,520.115,225.362,491.336,196.583z"/>
			<path id="tête" fill="#93877D" d="M464.238,140.234c0,0,19.549-31.405,25.211-51.535c3.775-8.178,23.903-51.583,86.811-37.744
				c34.441,6.447,68.41,41.361,67.938,58.503c-1.887,18.872-17.612,27.05-20.129,28.308c-2.518,1.258-33.969,23.274-55.985,23.904
				c-16.986-1.887-43.406,32.711-43.406,32.711L464.238,140.234z"/>
			<path id="bec_bas" fill="#C18B8A" d="M595.441,131.947c0,0,29.095-12.109,35.388-12.424c4.086,0,11.007-3.774,12.578-8.492
				c3.775,0,31.454,5.032,42.463,19.5c2.202,3.461,2.83,9.122,2.83,9.122l-3.773-2.516c0,0-28.521,3.457-47.861-0.78
				c-5.47-1.658-7.811-5.825-13.785-4.566C617.303,133.048,598.114,133.677,595.441,131.947z"/>
			<path id="bec_haut" fill="#535659" d="M595.441,131.947c0,0,29.095-12.109,35.388-12.424c4.086,0,11.007-3.774,12.578-8.492
				c3.775,0,44.272,6.999,45.293,28.622C621.176,122.085,598.114,133.677,595.441,131.947z"/>
		</g>
		
			<radialGradient id="SVGID_3_" cx="591.0049" cy="96.3779" r="19.3504" gradientTransform="matrix(0.9292 -0.0084 -0.0084 0.999 41.343 5.1992)" gradientUnits="userSpaceOnUse">
			<stop  offset="0" style="stop-color:#FFFFFF"/>
			<stop  offset="0.1386" style="stop-color:#D5D4D3"/>
			<stop  offset="0.2079" style="stop-color:#494340"/>
			<stop  offset="0.3663" style="stop-color:#28201D"/>
			<stop  offset="1" style="stop-color:#231B18"/>
		</radialGradient>
		<path fill="url(#SVGID_3_)" d="M597.18,101.002c-0.611,5.139-6.04,8.718-12.125,7.993c-6.086-0.724-10.521-5.477-9.91-10.616
			c0.612-5.14,6.039-8.719,12.125-7.994C593.354,91.108,597.791,95.862,597.18,101.002z"/>
	</g>
</g>
<g id="grive_à_pieds_jaunes">
</g>
<g id="merle_à_lunette">
</g>
<g id="moucherolle_gobemouche">
</g>
<g id="moqueur_corossol">
</g>
<g id="moqueur_grivotte">
</g>
<g id="trembleur_brun">
</g>
<g id="trembleur_gris">
</g>
<g id="paruline_cafeite">
</g>
<g id="saltator_gros_bec">
</g>
<g id="soporophile_rouge-gorge">
</g>
<g id="sucrier_à_ventre_jaune">
</g>
<g id="vachet_luisant">
</g>
<g id="vireo_a_moustaches">
</g>
<g id="merle_quiscale">
</g>
<g id="paruline_jaune">
</g>
<g id="tyran_gris">
</g>
<g id="sporophile_cici">
</g>
<g id="tourterelle_à_queue_carree">
</g>
<g id="colobri_huppé">
</g>
<g id="cécerelle_d_x27_amerique">
</g>
<g id="heron_vert">
</g>
<g id="pic_de_la_guadeloupe">
</g>
<g id="héron_garde-boeufs">
</g>
<g id="photos">
</g>
<g id="solitaire_siffleur">
</g>
<g id="tyran_janeau">
</g>
<g id="colibri_fallevert">
</g>
<g id="colombe_a_queue_noire">
</g>
</svg>
