<?xml version="1.0" encoding="utf-8"?>
<!-- Generator: Adobe Illustrator 16.0.0, SVG Export Plug-In . SVG Version: 6.00 Build 0)  -->
<!DOCTYPE svg PUBLIC "-//W3C//DTD SVG 1.1//EN" "http://www.w3.org/Graphics/SVG/1.1/DTD/svg11.dtd">
<svg version="1.1" xmlns="http://www.w3.org/2000/svg" xmlns:xlink="http://www.w3.org/1999/xlink" x="0px" y="0px" width="732px"
	 height="692px" viewBox="0 0 732 692" enable-background="new 0 0 732 692" xml:space="preserve">
<g id="Calque_1" display="none">
	<rect x="120.41" y="655.121" display="inline" fill="none" width="415.59" height="37.879"/>
	<text transform="matrix(1 0 0 1 120.4102 679.9707)" display="inline" font-family="'MyriadPro-Regular'" font-size="35">Sucrier à ventre jaune</text>
</g>
<g id="colombe_à_croissant">
</g>
<g id="colombe_rouviolette">
</g>
<g id="colibri_madere">
</g>
<g id="colibri_à_tête_bleue">
</g>
<g id="elenie_siffleuse">
</g>
<g id="grive_à_pieds_jaunes">
</g>
<g id="merle_à_lunette">
</g>
<g id="moucherolle_gobemouche">
</g>
<g id="moqueur_corossol">
</g>
<g id="moqueur_grivotte">
</g>
<g id="trembleur_brun">
</g>
<g id="trembleur_gris">
</g>
<g id="paruline_cafeite">
</g>
<g id="saltator_gros_bec">
</g>
<g id="soporophile_rouge-gorge">
</g>
<g id="sucrier_à_ventre_jaune">
	<g>
		<g opacity="0.3">
			<g>
				<g enable-background="new    ">
					<defs>
						<polygon id="SVGID_41_" enable-background="new    " points="11.277,574.033 15.41,325.499 643.57,327.336 720.723,571.687 
													"/>
					</defs>
					<clipPath id="SVGID_2_">
						<use xlink:href="#SVGID_41_"  overflow="visible"/>
					</clipPath>
					<g clip-path="url(#SVGID_2_)">
						<path fill="#959595" d="M137.618,325.856c-2.833-0.008-5.858,0.03-9.081,0.143c-3.222,0.111-6.641,0.296-10.255,0.579
							c-3.616,0.284-7.431,0.667-11.446,1.176c-4.017,0.508-8.236,1.144-12.659,1.93c-0.596-0.016-1.231-0.031-1.91-0.047
							c-0.677-0.016-1.392-0.029-2.146-0.041s-1.542-0.021-2.366-0.03c-0.825-0.007-1.682-0.013-2.571-0.016
							c-4.468-0.013-9.728,0.051-15.438,0.27c-5.714,0.219-11.88,0.594-18.158,1.206c-6.283,0.611-12.683,1.461-18.854,2.627
							c-6.183,1.169-12.141,2.657-17.534,4.547c0.088,0.009,0.182,0.016,0.281,0.021c0.097,0.007,0.202,0.011,0.313,0.015
							s0.226,0.007,0.349,0.009c0.122,0.001,0.249,0.003,0.381,0.003c0.342,0.001,0.721-0.003,1.136-0.012
							c0.418-0.008,0.87-0.02,1.362-0.034c0.493-0.015,1.022-0.032,1.591-0.05c0.569-0.019,1.176-0.038,1.821-0.059
							c0.649-0.02,1.339-0.038,2.066-0.056c0.729-0.018,1.497-0.034,2.306-0.047c0.809-0.014,1.66-0.024,2.55-0.031
							c0.892-0.007,1.823-0.009,2.796-0.008c2.396,0.007,5.041,0.046,7.947,0.136c2.909,0.09,6.076,0.232,9.515,0.444
							c3.438,0.214,7.146,0.497,11.135,0.872c3.987,0.377,8.257,0.843,12.815,1.419c0.57,0.501,1.276,1.025,2.139,1.571
							c0.861,0.547,1.881,1.117,3.075,1.708c1.197,0.592,2.568,1.205,4.137,1.842c1.568,0.635,3.335,1.293,5.316,1.973
							c1.112,0.375,3.304,1.479,6.076,3.215c2.777,1.739,6.14,4.112,9.589,7.024c3.46,2.921,7.008,6.385,10.143,10.297
							c3.147,3.928,5.881,8.309,7.685,13.049c0.261,1.184,0.292,2.822,0.179,4.625c-0.116,1.805-0.377,3.773-0.699,5.611
							c-0.321,1.84-0.706,3.548-1.064,4.823c-0.358,1.279-0.691,2.123-0.913,2.232c0.053,0.835,0.777,3.239,2.224,6.572
							c1.453,3.343,3.637,7.628,6.607,12.204c2.986,4.596,6.768,9.49,11.396,14.016c4.651,4.545,10.153,8.715,16.551,11.827
							c1.622,1.127,4.926,2.829,9.294,4.819c4.373,1.993,9.817,4.277,15.705,6.559c5.899,2.287,12.245,4.572,18.406,6.562
							c6.173,1.994,12.155,3.69,17.311,4.792c4.448,1.23,10.001,2.636,16.178,4.098c6.185,1.464,12.994,2.984,19.952,4.441
							c6.966,1.459,14.077,2.854,20.85,4.065c6.78,1.211,13.22,2.238,18.833,2.958c-3.19,3.282-6.826,6.986-10.601,10.763
							c-3.789,3.792-7.721,7.657-11.482,11.24c-3.776,3.597-7.378,6.905-10.484,9.565c-3.118,2.668-5.734,4.679-7.528,5.665
							c-2.66,1.463-5.23,2.835-7.866,4.069c-2.641,1.236-5.345,2.337-8.27,3.255c-2.929,0.919-6.078,2.04-9.604,2.549
							c-3.53,0.511-7.434,1.188-11.869,1.188c-0.14,0-0.281,0-0.421,0c-0.142,0-0.283-0.387-0.425-0.389
							c-0.142,0-0.283-0.194-0.427-0.195c-0.144,0-0.286-0.1-0.431-0.102c-1.875-0.023-3.64-0.093-5.3-0.107
							c-1.658-0.017-3.21-0.051-4.656-0.061c-1.448-0.008-2.793-0.024-4.037-0.026c-1.245-0.002-2.39-0.009-3.438-0.006
							c-1.588,0.003-2.954,0.008-4.11,0.019c-1.156,0.01-2.101,0.02-2.848,0.03c-0.746,0.014-1.294,0.022-1.656,0.03
							c-0.362,0.01-0.537,0.014-0.537,0.014s-0.61,0.179-1.371,0.456c-0.761,0.278-1.671,0.653-2.267,1.048
							c-0.598,0.394-0.881,0.805-0.387,1.153c0.495,0.347,1.768,0.631,4.28,0.771c0.816,0.045,1.642,0.083,2.471,0.113
							c0.829,0.031,1.662,0.055,2.491,0.072s1.654,0.03,2.469,0.037s1.619,0.01,2.404,0.008c1.637-0.004,3.193-0.025,4.611-0.054
							c1.417-0.029,2.693-0.067,3.765-0.104c1.072-0.037,1.939-0.073,2.539-0.101c0.6-0.026,0.931-0.045,0.931-0.045l-25.659,7.044
							l-12.174,1.782c0,0-0.448,0.229-1.004,0.57c-0.557,0.342-1.221,0.798-1.651,1.254c-0.432,0.455-0.628,0.911-0.248,1.252
							c0.379,0.341,1.335,0.566,3.209,0.562c0.188-0.001,0.384-0.004,0.588-0.009c0.206-0.006,0.421-0.013,0.646-0.022
							c0.225-0.011,0.458-0.023,0.705-0.039c0.244-0.015,0.498-0.033,0.764-0.054c2.924-0.229,7.978-1.014,13.908-2.061
							c5.924-1.046,12.717-2.354,19.138-3.631c6.411-1.274,12.448-2.52,16.88-3.445c4.43-0.924,7.257-1.53,7.257-1.53
							l-17.215,14.056c0,0-0.229,0.206-0.56,0.574s-0.761,0.898-1.167,1.55c-0.404,0.651-0.783,1.423-1.007,2.272
							c-0.225,0.851-0.295,1.777-0.08,2.741c0.133,0.596,0.174,1.193,0.176,1.753c0.003,0.56-0.029,1.084-0.045,1.532
							c-0.013,0.448-0.006,0.821,0.079,1.084c0.087,0.262,0.25,0.411,0.548,0.409c0.184,0,0.42-0.058,0.721-0.182
							c0.302-0.123,0.666-0.313,1.11-0.577c0.443-0.265,0.966-0.604,1.579-1.025c0.614-0.423,1.318-0.929,2.129-1.525
							c2.122-1.565,4.78-3.37,7.646-5.231c2.86-1.858,5.929-3.773,8.879-5.564c2.943-1.788,5.773-3.453,8.161-4.817
							c2.386-1.363,4.337-2.426,5.53-3.013c1.192-0.585,2.395-1.081,3.896-1.517s3.305-0.813,5.697-1.165
							c2.395-0.351,5.378-0.676,9.242-1.007s8.607-0.668,14.52-1.044c5.91-0.375,10.342-0.656,13.661-0.868
							c3.32-0.211,5.532-0.351,7.007-0.444c1.476-0.094,2.211-0.141,2.58-0.165c0.368-0.022,0.368-0.022,0.368-0.022
							s1.104-0.293,2.372-0.754c1.267-0.462,2.696-1.094,3.353-1.771c0.657-0.679,0.539-1.404-1.288-2.056
							c-1.826-0.651-5.359-1.229-11.536-1.612c-0.191-0.002-0.383-0.004-0.575-0.006c-0.191-0.002-0.385,0.078-0.578,0.078
							c-0.192-0.001-0.384,0.082-0.577,0.082c-0.192,0-0.388,0-0.581,0c-4.419,0-8.96,0.125-13.291,0.419
							c-4.332,0.296-8.449,0.643-12.018,1.031c-3.57,0.388-6.59,0.755-8.715,1.046c-2.127,0.29-3.36,0.475-3.36,0.475
							s2.291-1.913,5.993-5.02c3.691-3.099,8.777-7.385,14.379-12.156c5.573-4.748,11.655-9.977,17.389-14.998
							c5.707-4.996,11.071-9.793,15.267-13.728c2.561,0.145,5.313,0.288,8.224,0.423s5.977,0.265,9.164,0.38
							c3.189,0.116,6.498,0.22,9.896,0.306c3.395,0.085,6.877,0.153,10.408,0.197c-1.217,3.978-2.598,8.402-4.033,12.842
							c-1.443,4.461-2.943,8.936-4.387,12.981c-1.448,4.063-2.842,7.69-4.064,10.431c-1.225,2.746-2.275,4.596-3.039,5.092
							c-0.064,0.863-0.311,1.859-0.934,2.875s-1.623,2.049-3.193,2.987s-3.71,1.724-6.614,2.351
							c-2.907,0.627-6.574,1.066-11.198,1.066c-0.115,0-0.229,0-0.348,0c-0.115,0-0.234,0-0.353,0c-0.12,0-0.241,0-0.362,0
							s-0.244,0-0.367,0c-3.098,0-6.898,0.074-10.891,0.104c-3.995,0.029-8.184,0.105-12.055,0.188
							c-3.874,0.082-7.432,0.212-10.163,0.378s-4.638,0.388-5.208,0.669c-0.596,0.293-1.421,0.698-2.184,1.146
							c-0.766,0.449-1.468,0.948-1.814,1.431c-0.35,0.482-0.343,0.95,0.313,1.343c0.652,0.393,1.955,0.709,4.198,0.888
							c1.306-0.05,2.872-0.118,4.6-0.191c1.729-0.075,3.62-0.158,5.578-0.234c1.958-0.075,3.983-0.146,5.98-0.198
							c1.994-0.053,3.962-0.087,5.806-0.092c1.084-0.002,2.127,0.005,3.104,0.025c0.98,0.021,1.896,0.055,2.73,0.104
							s1.587,0.113,2.235,0.195c0.65,0.082,1.199,0.183,1.627,0.303c0.1,0.256-2.367,0.947-6.258,1.853
							c-3.896,0.906-9.216,2.028-14.815,3.143c-5.607,1.116-11.494,2.226-16.5,3.104c-5.012,0.879-9.139,1.525-11.218,1.715
							c-2.08,0.191-4.214,0.521-6.27,0.969c-2.055,0.45-4.031,1.018-5.789,1.688s-3.298,1.443-4.48,2.299
							c-1.186,0.856-2.011,1.796-2.342,2.801c0.059,0.002,0.117,0.184,0.177,0.186c0.059,0.002,0.119,0.188,0.181,0.188
							c0.061,0,0.123,0,0.184,0c0.063,0,0.125,0,0.189,0c1.234,0,2.695-0.275,4.188-0.406c1.494-0.129,3.021-0.394,4.392-0.566
							c1.374-0.172,2.589-0.39,3.464-0.519c0.873-0.129,1.404-0.237,1.404-0.237s1.964-0.37,5.012-0.914
							c3.047-0.544,7.176-1.279,11.509-2.023c4.327-0.743,8.86-1.503,12.726-2.102c3.862-0.6,7.057-1.044,8.719-1.159
							c1.662-0.114,4.968-0.64,8.988-1.36c4.017-0.723,8.747-1.641,13.264-2.543c4.512-0.902,8.813-1.788,11.985-2.449
							c3.167-0.66,5.21-1.096,5.21-1.096s0.211,0.018,0.494,0.09c0.281,0.072,0.639,0.199,0.927,0.418
							c0.288,0.218,0.511,0.528,0.531,0.968c0.019,0.439-0.167,1.007-0.696,1.742c-0.524,0.735-1.516,1.904-2.695,3.31
							c-1.181,1.407-2.55,3.053-3.832,4.738c-1.283,1.688-2.476,3.413-3.298,4.979c-0.821,1.569-1.273,2.977-1.067,4.019
							c0.202,1.045,0.424,1.978,0.646,2.79s0.441,1.505,0.637,2.065c0.194,0.562,0.363,0.993,0.484,1.283
							c0.122,0.29,0.193,0.439,0.193,0.439s0.076,0.159,0.232,0.397c0.154,0.237,0.389,0.555,0.709,0.873
							c0.318,0.317,0.721,0.634,1.212,0.871c0.49,0.237,1.069,0.396,1.739,0.393c0.396-0.001,0.825-0.059,1.288-0.188
							c0.462-0.131,0.956-0.332,1.483-0.625c0.529-0.292,1.091-0.674,1.687-1.16c0.595-0.486,1.224-1.079,1.888-1.793
							c1.012-1.912,1.715-3.465,2.206-4.719c0.489-1.252,0.763-2.207,0.91-2.925c0.149-0.717,0.171-1.195,0.156-1.495
							s-0.066-0.42-0.066-0.42s0.394-0.707,1.041-1.801c0.646-1.092,1.544-2.57,2.556-4.116c1.007-1.544,2.125-3.153,3.217-4.516
							c1.088-1.359,2.148-2.473,3.046-3.024c0.894-0.552,1.366-1.248,2.039-2.072c0.671-0.824,1.54-1.775,3.227-2.839
							c1.682-1.062,4.177-2.233,8.097-3.498c3.915-1.263,9.25-2.618,16.617-4.048c2.531-0.549,4.883-1.143,6.983-1.723
							c2.102-0.58,3.953-1.148,5.488-1.648c1.534-0.499,2.752-0.93,3.588-1.235c0.833-0.307,1.285-0.487,1.285-0.487
							s0.12-0.277,0.191-0.691c0.073-0.414,0.1-0.966-0.088-1.518s-0.587-1.102-1.364-1.514c-0.779-0.411-1.936-0.686-3.637-0.682
							c-0.426,0.001-0.886,0.02-1.383,0.058c-0.496,0.037-1.027,0.095-1.601,0.173c-0.571,0.078-1.185,0.179-1.839,0.303
							c-0.652,0.124-1.35,0.272-2.09,0.446c-2.368,0.651-4.958,1.331-7.514,1.984c-2.557,0.652-5.08,1.279-7.306,1.825
							c-2.229,0.545-4.159,1.01-5.534,1.337c-1.375,0.328-2.193,0.52-2.193,0.52s-0.161,0.063-0.436,0.157
							c-0.271,0.095-0.658,0.221-1.103,0.348c-0.445,0.127-0.95,0.252-1.468,0.348c-0.514,0.095-1.04,0.159-1.525,0.16
							c-0.41,0.001-0.792-0.043-1.112-0.15c-0.321-0.107-0.583-0.281-0.754-0.535c-0.171-0.255-0.25-0.592-0.209-1.031
							c0.042-0.439,0.204-0.98,0.519-1.642c0.442-0.933,1.236-3.161,2.256-6.234c1.013-3.064,2.248-6.965,3.575-11.253
							c1.323-4.27,2.737-8.922,4.122-13.519c1.379-4.576,2.727-9.099,3.925-13.142c2.438-0.025,6.483-0.099,11.403-0.305
							c4.918-0.206,10.707-0.546,16.633-1.104c5.921-0.557,11.975-1.33,17.428-2.407c5.445-1.075,10.287-2.451,13.797-4.21
							c2.229-0.477,4.804-0.938,7.536-1.523c2.729-0.587,5.616-1.298,8.462-2.274c2.842-0.976,5.646-2.216,8.212-3.856
							c2.564-1.639,4.892-3.677,6.793-6.249c0.948-0.409,4.181-0.892,8.62-1.492c4.435-0.6,10.074-1.314,15.848-2.189
							c5.764-0.874,11.659-1.907,16.615-3.141c4.949-1.231,8.961-2.664,10.972-4.339c2.204-0.644,4.618-1.286,7.157-1.926
							c2.539-0.638,5.2-1.272,7.903-1.899c2.7-0.626,5.439-1.244,8.133-1.851c2.689-0.606,5.335-1.201,7.851-1.779
							c0.032,0.009,0.065,0.018,0.097,0.025c0.033,0.01,0.064,0.018,0.096,0.027c0.031,0.008,0.064,0.017,0.098,0.025
							c0.033,0.008,0.065,0.016,0.101,0.023c2.508,0.514,9.165,1.086,17.991,1.653c8.826,0.569,19.819,1.134,30.993,1.635
							c11.172,0.5,22.524,0.936,32.071,1.246s17.288,0.495,21.245,0.495c4.39-0.06,7.295-0.361,9.181-0.781
							c1.886-0.419,2.754-0.957,3.073-1.486c0.32-0.528,0.093-1.05-0.215-1.439c-0.307-0.389-0.694-0.645-0.694-0.645
							s0.819,0.099,2.161,0.25c1.341,0.149,3.207,0.349,5.295,0.549c2.091,0.201,4.407,0.401,6.651,0.551
							c2.243,0.15,4.416,0.25,6.22,0.25c0.542,0.031,1.059,0.059,1.55,0.081s0.956,0.042,1.397,0.056
							c0.44,0.016,0.858,0.026,1.25,0.033c0.393,0.008,0.763,0.012,1.11,0.012c2.811,0,4.142-0.23,4.471-0.587
							c0.329-0.354-0.34-0.833-1.529-1.332c-1.189-0.498-2.897-1.015-4.644-1.444c-1.747-0.431-3.534-0.774-4.883-0.927
							c-4.47-1.024-12.777-2.093-22.966-3.137c-10.183-1.041-22.247-2.057-34.237-2.974c-11.984-0.915-23.9-1.732-33.791-2.378
							c-9.889-0.646-17.756-1.118-21.647-1.349c-2.085-0.776-4.852-1.728-8.413-2.802c-3.559-1.072-7.914-2.267-13.176-3.53
							c-5.258-1.262-11.422-2.595-18.609-3.945c-7.18-1.349-15.379-2.717-24.716-4.05c-3.383-1.591-7.335-3.127-11.751-4.63
							c-4.41-1.5-9.282-2.968-14.509-4.421c-5.222-1.451-10.796-2.889-16.616-4.334c-5.813-1.443-11.87-2.893-18.067-4.368
							c-2.727-0.276-4.98-0.594-7.058-0.973s-3.979-0.818-6-1.342c-2.021-0.521-4.163-1.127-6.724-1.834
							c-2.558-0.707-5.534-1.516-9.222-2.447c-3.686-0.93-9.107-2.528-15.694-4.47c-6.574-1.938-14.305-4.216-22.623-6.511
							c-8.303-2.291-17.193-4.598-26.113-6.602c-8.905-2.001-17.847-3.701-26.28-4.784c0,0-0.838-0.153-2.338-0.386
							c-1.5-0.23-3.658-0.54-6.299-0.854c-2.638-0.313-5.758-0.629-9.179-0.875c-3.42-0.244-7.141-0.419-10.986-0.449
							c-2.885-0.631-6.107-1.416-9.534-2.382c-3.423-0.966-7.052-2.111-10.749-3.464c-3.693-1.352-7.453-2.91-11.146-4.701
							c-3.688-1.788-7.308-3.808-10.726-6.086c-1.761-1.157-4.855-3.336-9.304-5.953c-4.44-2.61-10.226-5.656-17.386-8.561
							c-7.143-2.896-15.656-5.654-25.582-7.708c-9.91-2.05-21.248-3.399-34.076-3.488c-1.135-0.05-2.333-0.104-3.6-0.159
							s-2.6-0.11-3.998-0.158c-1.401-0.049-2.867-0.093-4.4-0.125C140.885,325.883,139.284,325.861,137.618,325.856"/>
					</g>
				</g>
			</g>
		</g>
		<g>
			<path id="patted_17_" fill="#1E1917" d="M306.015,400.58c0,0-44.53,82.008-55.646,93.13
				c-11.12,11.121-20.554,19.293-38.556,18.765c-18.005-0.529-25.369-0.125-25.369-0.125s-9.511,5.197,0.023,6.256
				c9.53,1.058,20.662-0.037,20.662-0.037l-24.879,12.688l-11.648,3.169c0,0-8.47,7.938,2.65,6.352
				c11.121-1.591,55.068-19.067,55.068-19.067l-17.473,25.352c0,0-3.708,5.887-3.179,12.771c0.531,6.882-2.647,13.767,5.826,2.648
				c8.477-11.122,25.418-29.124,30.179-33.361c4.768-4.232,9.534-5.825,32.301-8.469c22.771-2.648,22.771-2.648,22.771-2.648
				s17.47-8.47-6.09-11.384c-17.474-0.529-38.387,5.557-38.387,5.557s63.537-93.062,66.184-103.647
				c2.649-10.592,2.649-9.404,2.649-9.404h-17.474L306.015,400.58z"/>
			<path id="patteg_18_" fill="#2E2623" d="M354.343,399.393c0,0-22.589,101.488-27.532,107.137
				c-0.707,6.355-4.502,16.59-22.242,17.121c-11.384,0-35.741-0.045-38.123,2.071c-2.383,2.119-8.472,7.392,0,8.716
				c7.943-0.529,25.945-2.393,30.183-0.013c0.265,1.854-39.448,16.146-47.391,17.47c-7.945,1.323-16.946,6.616-18.533,13.765
				c4.501,0.265,13.501-2.386,13.501-2.386s30.184-10.061,36.539-10.855c6.352-0.791,38.386-13.237,38.386-13.237
				s3.179,0.529,0.794,5.824c-2.379,5.295-12.711,23.035-12.443,30.448c0.263,7.413,1.061,11.646,1.061,11.646
				s2.119,11.386,9.795-2.116c4.767-13.501,4.235-16.942,4.235-16.942s7.414-20.121,11.12-24.093
				c3.707-3.971,1.322-12.176,30.444-22.502c10.063-3.973,17.476-9.271,17.476-9.271s3.974-12.706-10.854-6.354
				c-9.532,4.768-22.544,10.327-22.544,10.327s-8.963,6.265-5.521-4.326c3.441-10.587,26.741-112.43,26.741-112.43H354.343z"/>
			<path id="queue_19_" fill="#47392C" d="M564.691,325.992c0,0,95.912,11.015,114.727,20.191c5.963,1.377,19.731,10.556,0,8.262
				c-7.345,0-20.193-3.213-20.193-3.213s5.048,8.261-12.849,8.719c-16.063,0-92.696-5.965-102.333-10.095
				C534.406,345.725,546.795,321.405,564.691,325.992z"/>
			<path id="posterieur" fill="#DCD1BD" d="M360.143,429.014c0,0,44.624,0.458,62.295-15.375c9.178-3.671,23.86-6.884,33.498-27.075
				c4.129-3.211,44.971-8.718,54.607-22.026c16.979-9.178,44.973-18.355,51.856-24.78c-1.377-0.917-10.555-16.977-71.588-25.696
				c-61.033-8.721-99.581-19.273-120.229-14.686C349.933,303.963,360.143,429.014,360.143,429.014z"/>
			<path id="corps_15_" fill="#DCAF14" d="M126.911,258.077c0.1,6.939,10.097,65.851,34.875,90.631
				c6.195,8.948,38.548,36.138,58.509,44.742c17.21,9.636,51.627,24.78,73.309,30.287c7.572,1.72,36.596,5.506,66.539,5.276
				c6.195-1.031,43.251-102.678,18.471-135.372c-24.781-32.696-118.394-78.471-119.083-79.847c-0.688-1.377-9.98-5.852-16.52,0
				C236.472,219.645,151.09,257.094,126.911,258.077z"/>
			<path id="tete_8_" fill="#47392C" d="M310.927,198.881c0,0-33.038-7.344-55.525-40.843
				c-6.883-10.095-33.796-54.449-88.567-57.509c-15.588,0.235-43.133-3.523-83.517,18.046c-4.589,3.67-9.637,14.585,13.307,31.155
				c4.59,3.262,26.846,31.939,33.501,72.096c0.885,10.01-2.296,35.334-3.214,36.251c-0.917,0.917,68.376,8.26,141.339-47.265
				C290.735,206.683,310.927,198.881,310.927,198.881z"/>
			<path id="aile_22_" fill="#382C24" d="M326.987,199.338c0,0-49.101-18.814-70.209,13.767
				c-11.014,19.273,1.374,47.725,25.695,61.491c24.322,13.767,43.595,29.372,201.913,47.267c15.602,2.294,86.73,17.896,86.73,17.896
				s23.86,5.967,0-10.095c-4.131-4.13-21.109-19.157-66.54-32.581c-12.389-13.078-34.415-24.436-58.739-36.712
				c-11.014-2.295-14.093-5.965-28.614-13.768C402.704,238.804,361.406,208.515,326.987,199.338z"/>
			<path id="tache_oeil_2_" fill="#F9F9F9" d="M140.516,105.861c0,0,54.379-16.75,98.66,46.807
				c1.836,4.131,9.178,17.896,9.637,31.205c0.46,5.048-18.354,1.376-17.438-2.296C233.67,176.071,235.736,128.348,140.516,105.861z"
				/>
			<path id="bec_21_" fill="#2E2623" d="M109.129,109.854c0,0-55.066-6.194-88.451,18.93c5.852,1.033,34.416-7.572,94.646,16.864
				C125.992,149.091,161.786,150.811,109.129,109.854z"/>
			<radialGradient id="oeil_32_" cx="163.8516" cy="129.3574" r="17.8114" gradientUnits="userSpaceOnUse">
				<stop  offset="0" style="stop-color:#FFFFFF"/>
				<stop  offset="0.1386" style="stop-color:#D5D4D3"/>
				<stop  offset="0.2079" style="stop-color:#494340"/>
				<stop  offset="0.3663" style="stop-color:#28201D"/>
				<stop  offset="1" style="stop-color:#231B18"/>
			</radialGradient>
			<circle id="oeil_17_" fill="url(#oeil_32_)" cx="166.95" cy="133.259" r="12.046"/>
		</g>
	</g>
</g>
<g id="vachet_luisant">
</g>
<g id="vireo_a_moustaches">
</g>
<g id="merle_quiscale">
</g>
<g id="paruline_jaune">
</g>
<g id="tyran_gris">
</g>
<g id="sporophile_cici">
</g>
<g id="tourterelle_à_queue_carree">
</g>
<g id="colobri_huppé">
</g>
<g id="cécerelle_d_x27_amerique">
</g>
<g id="heron_vert">
</g>
<g id="pic_de_la_guadeloupe">
</g>
<g id="héron_garde-boeufs">
</g>
<g id="photos">
</g>
<g id="solitaire_siffleur">
</g>
<g id="tyran_janeau">
</g>
<g id="colibri_fallevert">
</g>
<g id="colombe_a_queue_noire">
</g>
</svg>
