<?xml version="1.0" encoding="utf-8"?>
<!-- Generator: Adobe Illustrator 16.0.0, SVG Export Plug-In . SVG Version: 6.00 Build 0)  -->
<!DOCTYPE svg PUBLIC "-//W3C//DTD SVG 1.1//EN" "http://www.w3.org/Graphics/SVG/1.1/DTD/svg11.dtd">
<svg version="1.1" xmlns="http://www.w3.org/2000/svg" xmlns:xlink="http://www.w3.org/1999/xlink" x="0px" y="0px" width="732px"
	 height="692px" viewBox="0 0 732 692" enable-background="new 0 0 732 692" xml:space="preserve">
<g id="Calque_1" display="none">
</g>
<g id="colombe_à_croissant">
</g>
<g id="colombe_rouviolette">
</g>
<g id="colibri_madere">
</g>
<g id="colibri_à_tête_bleue">
</g>
<g id="elenie_siffleuse">
</g>
<g id="grive_à_pieds_jaunes">
</g>
<g id="merle_à_lunette">
</g>
<g id="moucherolle_gobemouche">
</g>
<g id="moqueur_corossol">
</g>
<g id="moqueur_grivotte">
</g>
<g id="trembleur_brun">
</g>
<g id="trembleur_gris">
</g>
<g id="paruline_cafeite">
</g>
<g id="saltator_gros_bec">
</g>
<g id="soporophile_rouge-gorge">
</g>
<g id="sucrier_à_ventre_jaune">
</g>
<g id="vachet_luisant">
</g>
<g id="vireo_a_moustaches">
</g>
<g id="merle_quiscale">
</g>
<g id="paruline_jaune">
</g>
<g id="tyran_gris">
</g>
<g id="sporophile_cici">
</g>
<g id="tourterelle_à_queue_carree">
</g>
<g id="colobri_huppé">
</g>
<g id="cécerelle_d_x27_amerique">
</g>
<g id="heron_vert">
</g>
<g id="pic_de_la_guadeloupe">
</g>
<g id="héron_garde-boeufs">
</g>
<g id="photos">
</g>
<g id="solitaire_siffleur">
</g>
<g id="tyran_janeau">
</g>
<g id="colibri_fallevert">
</g>
<g id="colombe_a_queue_noire">
	<g>
		<g opacity="0.3">
			<g>
				<g enable-background="new    ">
					<defs>
						<polygon id="SVGID_75_" enable-background="new    " points="11.975,592.576 13.66,328.168 640.443,330.004 720.025,590.229 
													"/>
					</defs>
					<clipPath id="SVGID_2_">
						<use xlink:href="#SVGID_75_"  overflow="visible"/>
					</clipPath>
					<g clip-path="url(#SVGID_2_)">
						<path fill="#959595" d="M321.113,559.058c1.205-0.003,2.268-0.137,3.182-0.335c0.915-0.198,1.683-0.461,2.299-0.724
							c0.617-0.263,1.083-0.524,1.395-0.722c0.313-0.196,0.47-0.327,0.47-0.327s0.01-0.003,0.029-0.01s0.049-0.018,0.086-0.031
							s0.084-0.031,0.138-0.052c0.055-0.021,0.116-0.044,0.186-0.071c-1.377,1.456-2.846,2.503-4.329,3.271
							c-1.485,0.769-2.983,1.259-4.419,1.601c-1.437,0.342-2.809,0.534-4.042,0.711c-1.232,0.176-2.326,0.335-3.203,0.609
							c-0.223,0.07-0.505,0.133-0.839,0.188c-0.334,0.056-0.72,0.104-1.15,0.146c-0.43,0.041-0.904,0.077-1.416,0.107
							c-0.511,0.03-1.059,0.055-1.635,0.075l1.522-0.373c0,0,0.228-0.12,0.632-0.34s0.985-0.541,1.694-0.942
							c0.708-0.402,1.543-0.885,2.455-1.43c0.911-0.543,1.899-1.149,2.915-1.798c0.37,0.08,0.732,0.148,1.086,0.206
							c0.354,0.057,0.698,0.103,1.035,0.139c0.336,0.035,0.663,0.061,0.981,0.077S320.813,559.059,321.113,559.058 M336.973,545.417
							c-0.098-0.244-0.194-0.489-0.288-0.737c-0.095-0.248-0.187-0.498-0.273-0.75c-0.087-0.253-0.169-0.508-0.243-0.766
							s-0.142-0.52-0.2-0.783c-0.173-0.769-0.052-1.73,0.292-2.873c0.343-1.141,0.908-2.463,1.624-3.954
							c0.715-1.489,1.58-3.146,2.524-4.961c0.943-1.811,1.966-3.778,2.997-5.89c0.53-0.604,1.019-1.184,1.47-1.741
							c0.45-0.558,0.863-1.092,1.24-1.604c0.378-0.513,0.721-1.004,1.031-1.474s0.589-0.919,0.838-1.348
							c0.761,1.073,1.094,2.104,1.168,3.069c0.075,0.965-0.11,1.862-0.385,2.665c-0.274,0.804-0.64,1.511-0.924,2.098
							c-0.285,0.587-0.49,1.051-0.444,1.365c0.033,0.225-0.274,0.942-0.836,2.017c-0.563,1.075-1.378,2.508-2.361,4.162
							c-0.985,1.656-2.138,3.533-3.37,5.495C339.597,541.373,338.28,543.423,336.973,545.417 M113.477,328.461
							c-1.575-0.005-3.043,0.012-4.385,0.039c-1.341,0.029-2.554,0.068-3.619,0.112c-1.065,0.043-1.981,0.089-2.728,0.128
							c-0.747,0.039-1.323,0.072-1.709,0.09l-0.085,0.004h-0.025l-0.034,0.004c-4.701,0.219-9.373,0.846-13.823,1.771
							c-4.456,0.926-8.692,2.153-12.517,3.569c-3.83,1.419-7.247,3.028-10.054,4.719c-2.812,1.692-5.012,3.466-6.4,5.206
							c-0.02,0.025-0.046,0.064-0.078,0.117s-0.071,0.119-0.115,0.197s-0.094,0.169-0.147,0.27c-0.053,0.1-0.11,0.211-0.171,0.33
							c-0.018,0.01-0.035,0.02-0.053,0.031c-0.019,0.012-0.036,0.024-0.054,0.039c-0.018,0.014-0.034,0.03-0.052,0.049
							c-0.017,0.018-0.032,0.037-0.047,0.061c-0.334,0.475-1.489,1.421-3.076,2.599c-1.589,1.18-3.61,2.593-5.671,3.998
							c-2.064,1.408-4.168,2.81-5.915,3.962c-1.75,1.154-3.141,2.059-3.775,2.469c-0.801,0.188-1.524,0.43-2.159,0.688
							c-0.634,0.258-1.18,0.53-1.625,0.78c-0.446,0.249-0.791,0.476-1.025,0.64s-0.357,0.266-0.357,0.266s-0.386,0.197-1.032,0.507
							c-0.647,0.31-1.555,0.73-2.598,1.176c-1.042,0.446-2.22,0.917-3.406,1.325s-2.382,0.754-3.458,0.951
							c-1.074,0.198-2.434,0.873-3.799,1.809c-1.366,0.936-2.74,2.133-3.838,3.373c-1.1,1.242-1.924,2.527-2.188,3.637
							c-0.266,1.109,0.029,2.043,1.168,2.578c0.07,0.032,0.146,0.061,0.225,0.083c0.079,0.023,0.163,0.042,0.25,0.057
							c0.088,0.015,0.18,0.026,0.274,0.033c0.096,0.007,0.195,0.011,0.299,0.011c0.241,0,0.504-0.018,0.783-0.049
							c0.28-0.031,0.577-0.076,0.891-0.131c0.313-0.054,0.641-0.117,0.981-0.185c0.34-0.067,0.693-0.14,1.058-0.211
							c0.362-0.071,0.736-0.144,1.119-0.211c0.382-0.067,0.771-0.13,1.168-0.185c0.396-0.054,0.798-0.099,1.203-0.13
							s0.813-0.049,1.223-0.048c0.032,0,0.063,0,0.095,0c0.032,0,0.063,0,0.095,0.001s0.063,0.001,0.095,0.002
							s0.063,0.001,0.095,0.003c1.498-0.143,3.071-0.528,4.588-1.027s2.976-1.111,4.246-1.705s2.354-1.169,3.118-1.596
							s1.212-0.705,1.212-0.705s0.809-0.325,2.259-0.812c1.449-0.486,3.539-1.134,6.104-1.78c2.563-0.646,5.602-1.29,8.949-1.771
							c3.347-0.48,7.004-0.798,10.812-0.79c0.099,0.001,0.197,0.001,0.296,0.002c0.099,0,0.197,0.002,0.297,0.003
							c0.099,0.001,0.198,0.002,0.297,0.004c0.1,0.001,0.198,0.003,0.298,0.005c0.014,0.002,0.027,0.004,0.041,0.006
							c0.013,0.001,0.027,0.002,0.041,0.004c0.014,0,0.027,0.001,0.042,0.002c0.014,0,0.028,0,0.043,0
							c0.164,0.001,0.347-0.03,0.545-0.09s0.413-0.146,0.64-0.259c0.228-0.112,0.468-0.248,0.718-0.404
							c0.251-0.156,0.512-0.333,0.779-0.526c1.034,0.422,2.114,0.823,3.238,1.205c1.124,0.381,2.29,0.741,3.497,1.079
							c1.207,0.339,2.454,0.653,3.737,0.945s2.604,0.56,3.957,0.801c0.003,0.028,0.006,0.054,0.009,0.075
							c0.003,0.022,0.005,0.041,0.007,0.057s0.004,0.027,0.005,0.035c0.002,0.008,0.002,0.013,0.002,0.013
							c6.161,1.899,10.835,5.04,14.387,8.694c3.564,3.666,6.002,7.851,7.671,11.811c1.675,3.975,2.574,7.723,3.055,10.48
							c0.482,2.766,0.542,4.531,0.542,4.531s-0.21,0.789-0.329,2.254c-0.119,1.467-0.146,3.615,0.223,6.331
							c0.369,2.724,1.136,6.021,2.607,9.783c1.478,3.774,3.666,8.021,6.877,12.622c0.144,0.209,0.305,0.41,0.482,0.602
							c0.177,0.19,0.37,0.373,0.579,0.548c0.209,0.174,0.434,0.34,0.673,0.498s0.492,0.309,0.76,0.451
							c11.431,9.469,24.344,18.301,38.351,26.362c14.104,8.116,29.297,15.438,45.172,21.827
							c15.959,6.423,32.578,11.892,49.44,16.271c16.918,4.394,34.045,7.682,50.952,9.734c2.401,0.58,4.774,1.125,7.12,1.638
							s4.663,0.991,6.952,1.438c2.289,0.447,4.55,0.862,6.78,1.247c2.231,0.386,4.434,0.74,6.605,1.066
							c-0.121,0.439-0.265,0.869-0.424,1.273c-0.159,0.405-0.335,0.786-0.519,1.13c-0.185,0.343-0.378,0.649-0.573,0.905
							c-0.195,0.255-0.394,0.459-0.587,0.6c-0.401,0.296-1.177,1.791-2.143,3.902c-0.967,2.117-2.127,4.855-3.295,7.63
							c-1.17,2.782-2.348,5.601-3.344,7.86c-0.998,2.265-1.813,3.966-2.256,4.504c-0.439,0.536-0.686,0.973-0.818,1.36
							s-0.152,0.728-0.139,1.072c0.013,0.345,0.059,0.693,0.056,1.1c-0.003,0.405-0.054,0.868-0.234,1.441
							c-0.183,0.571-1.003,1.062-2.131,1.475s-2.563,0.749-3.976,1.014c-1.414,0.265-2.804,0.458-3.842,0.586
							c-1.037,0.127-1.721,0.188-1.721,0.188s-0.806,0.056-2.108,0.139c-1.302,0.083-3.102,0.194-5.087,0.306
							c-1.986,0.111-4.16,0.224-6.211,0.309s-3.978,0.143-5.472,0.146c-0.188,0-0.369,0-0.542-0.001
							c-0.174-0.001-0.339-0.004-0.497-0.007c-0.158-0.004-0.308-0.008-0.448-0.013c-0.142-0.005-0.273-0.012-0.396-0.019
							c-0.901-0.053-1.809-0.156-2.744-0.281c-0.936-0.126-1.9-0.273-2.917-0.414s-2.085-0.275-3.229-0.373
							s-2.362-0.159-3.679-0.156c-0.296,0.001-0.596,0.005-0.9,0.012c-0.306,0.008-0.616,0.02-0.932,0.034
							c-0.316,0.015-0.638,0.034-0.964,0.058c-0.327,0.023-0.66,0.051-0.999,0.082c-1.888,0.41-2.999,0.86-3.604,1.306
							c-0.604,0.446-0.702,0.886-0.564,1.275c0.139,0.39,0.514,0.728,0.854,0.968c0.34,0.241,0.646,0.385,0.646,0.385
							s0.072,0.002,0.203,0.004c0.132,0.003,0.322,0.007,0.562,0.01c0.238,0.004,0.525,0.008,0.848,0.01s0.681,0.004,1.063,0.002
							c0.389,0,0.804-0.004,1.229-0.01c0.427-0.007,0.865-0.017,1.304-0.03s0.876-0.032,1.301-0.056
							c0.426-0.023,0.838-0.053,1.224-0.088c0.495-0.045,0.929-0.096,1.312-0.148c0.384-0.053,0.716-0.105,1.008-0.153
							s0.544-0.089,0.766-0.12c0.223-0.029,0.414-0.049,0.587-0.049c0.095,0,0.184,0.005,0.269,0.017
							c0.084,0.012,0.165,0.03,0.243,0.056s0.153,0.059,0.229,0.102c0.075,0.041,0.149,0.092,0.226,0.151
							c0.198,0.158,0.686,0.382,1.358,0.629s1.532,0.517,2.473,0.767c0.941,0.25,1.965,0.479,2.968,0.646
							c1.003,0.166,1.983,0.271,2.84,0.269c0.061-0.001,0.121-0.001,0.181-0.003c0.059,0,0.118-0.002,0.176-0.005
							c0.058-0.002,0.115-0.005,0.172-0.009s0.112-0.008,0.167-0.012c0.83-0.07,2.064-0.134,3.45-0.188
							c1.385-0.055,2.92-0.102,4.352-0.139s2.76-0.066,3.729-0.086c0.97-0.019,1.582-0.028,1.582-0.028s-0.354,0.137-0.933,0.358
							c-0.578,0.223-1.38,0.531-2.275,0.873c-0.896,0.343-1.884,0.719-2.833,1.079c-0.95,0.36-1.862,0.703-2.604,0.978
							c-0.544,0.199-1.013,0.436-1.417,0.688s-0.744,0.521-1.028,0.785c-0.283,0.266-0.511,0.527-0.691,0.767
							c-0.181,0.238-0.314,0.454-0.41,0.626c-0.258-0.003-0.508-0.006-0.751-0.009c-0.242-0.003-0.478-0.005-0.704-0.007
							s-0.444-0.003-0.652-0.004c-0.209,0-0.408,0-0.598,0c-0.269,0.001-0.518,0.003-0.744,0.006
							c-0.227,0.004-0.431,0.009-0.609,0.016c-0.18,0.007-0.334,0.015-0.462,0.025c-0.128,0.01-0.229,0.021-0.3,0.036
							c-0.466,0.092-1.437,0.282-2.688,0.517c-1.253,0.234-2.786,0.512-4.375,0.778c-1.59,0.267-3.234,0.521-4.71,0.711
							c-1.475,0.189-2.779,0.313-3.688,0.315c-0.91,0.002-2.032,0.163-3.23,0.415c-1.198,0.251-2.474,0.593-3.689,0.956
							c-1.217,0.363-2.375,0.748-3.337,1.086c-0.963,0.337-1.73,0.627-2.167,0.8c-0.321,0.128-0.447,0.367-0.4,0.655
							c0.047,0.289,0.267,0.626,0.638,0.947c0.37,0.32,0.892,0.625,1.54,0.849c0.649,0.224,1.426,0.367,2.307,0.364
							c0.319,0,0.651-0.021,0.997-0.063c0.345-0.042,0.702-0.106,1.071-0.195c0.369-0.09,0.75-0.204,1.141-0.347
							c0.391-0.144,0.792-0.313,1.202-0.517c1.544-0.76,3.202-1.275,4.977-1.629c1.774-0.352,3.664-0.542,5.673-0.65
							c2.008-0.108,4.134-0.135,6.379-0.163c2.245-0.027,4.61-0.056,7.095-0.165c0.644,0.238,1.356,0.435,2.123,0.596
							c0.766,0.161,1.584,0.287,2.438,0.383s1.741,0.162,2.646,0.203c0.905,0.041,1.826,0.058,2.747,0.055
							c1.651-0.004,3.3-0.07,4.844-0.168c1.543-0.097,2.982-0.225,4.214-0.352c1.232-0.127,2.258-0.253,2.976-0.348
							c0.717-0.095,1.126-0.157,1.126-0.157s-0.316,0.313-0.834,0.795c-0.519,0.481-1.239,1.131-2.046,1.803
							c-0.808,0.673-1.703,1.367-2.569,1.937c-0.866,0.571-1.705,1.018-2.398,1.191c-0.693,0.175-2.514,0.767-4.888,1.566
							c-2.375,0.802-5.306,1.813-8.215,2.824c-2.912,1.013-5.803,2.026-8.093,2.83c-2.291,0.806-3.979,1.4-4.483,1.574
							c-0.503,0.176-1.421,0.439-2.487,0.77s-2.282,0.726-3.378,1.164c-1.097,0.439-2.075,0.922-2.666,1.425
							c-0.593,0.503-0.798,1.026-0.349,1.548c0.109,0.128,0.279,0.236,0.503,0.328s0.501,0.166,0.824,0.225
							c0.324,0.059,0.694,0.102,1.104,0.128c0.411,0.027,0.86,0.04,1.344,0.038c1.496-0.005,3.307-0.143,5.227-0.38
							s3.948-0.573,5.88-0.975s3.766-0.868,5.299-1.367c1.532-0.498,2.764-1.028,3.49-1.556c1.765-0.285,3.417-0.677,4.952-1.128
							s2.953-0.962,4.251-1.481c1.298-0.521,2.475-1.051,3.526-1.542s1.979-0.944,2.778-1.31c0.108,0.018,0.217,0.032,0.325,0.045
							c0.107,0.013,0.215,0.023,0.321,0.031c0.107,0.008,0.214,0.014,0.32,0.018c0.105,0.004,0.211,0.006,0.315,0.006
							c0.921-0.004,1.795-0.159,2.588-0.392c0.794-0.232,1.506-0.542,2.103-0.85c0.597-0.309,1.078-0.616,1.411-0.847
							c0.332-0.23,0.516-0.385,0.516-0.385s0.341-0.251,0.894-0.66c0.552-0.409,1.314-0.976,2.157-1.607
							c0.843-0.631,1.765-1.326,2.638-1.993c0.873-0.666,1.696-1.305,2.341-1.822c0.446-0.358,0.851-0.651,1.226-0.892
							c0.375-0.238,0.721-0.424,1.05-0.564s0.643-0.236,0.952-0.297s0.616-0.087,0.932-0.088c0.141,0,0.282,0.004,0.427,0.013
							c0.146,0.009,0.293,0.021,0.444,0.038c0.152,0.016,0.309,0.035,0.47,0.057s0.328,0.046,0.501,0.071
							c0.679,0.239,1.532,1.274,2.54,2.784c1.009,1.512,2.172,3.501,3.468,5.645c1.299,2.148,2.731,4.451,4.274,6.582
							c1.545,2.136,3.201,4.099,4.942,5.559c0.638,0.405,1.233,0.745,1.79,1.028c0.557,0.282,1.074,0.509,1.555,0.683
							c0.48,0.175,0.924,0.299,1.331,0.379c0.408,0.08,0.781,0.115,1.121,0.115c0.826-0.004,1.457-0.225,1.927-0.567
							c0.47-0.342,0.776-0.805,0.954-1.29c0.178-0.484,0.226-0.992,0.177-1.425s-0.195-0.789-0.406-0.974
							c-0.3-0.261-0.691-0.591-1.136-0.992c-0.443-0.402-0.94-0.875-1.451-1.42c-0.511-0.547-1.035-1.166-1.536-1.86
							s-0.978-1.464-1.393-2.311c-0.134-0.934-0.616-2.142-1.303-3.457c-0.686-1.314-1.575-2.735-2.523-4.096
							s-1.955-2.659-2.88-3.735c-0.923-1.074-1.764-1.924-2.38-2.385c-0.581-0.436-0.854-0.907-0.899-1.369
							c-0.044-0.462,0.141-0.914,0.477-1.312s0.823-0.741,1.383-0.985c0.56-0.245,1.192-0.391,1.819-0.392
							c0.035-0.001,0.069,0,0.104,0.001c0.034,0,0.069,0.002,0.103,0.004c0.034,0.001,0.068,0.004,0.103,0.006
							s0.068,0.006,0.103,0.009c0.653,0.067,1.692,0.342,2.938,0.773c1.246,0.432,2.698,1.021,4.18,1.717
							c1.482,0.696,2.993,1.499,4.354,2.359c1.362,0.86,2.573,1.777,3.456,2.7c0.356,0.374,0.722,0.686,1.09,0.942
							s0.74,0.459,1.109,0.614s0.737,0.264,1.098,0.333c0.361,0.069,0.716,0.1,1.058,0.099c0.505-0.001,0.983-0.07,1.422-0.182
							c0.438-0.112,0.836-0.267,1.178-0.439c0.342-0.172,0.627-0.361,0.841-0.544s0.356-0.357,0.412-0.5
							c0.76-0.946,0.473-1.919-0.412-2.852c-0.883-0.933-2.363-1.826-3.992-2.616c-1.628-0.789-3.404-1.475-4.883-1.992
							s-2.659-0.867-3.097-0.984c-0.435-0.119-1.155-0.353-2.011-0.654c-0.855-0.301-1.846-0.669-2.818-1.057
							c-0.972-0.387-1.927-0.793-2.713-1.17c-0.786-0.376-1.404-0.724-1.702-0.993c-0.768-1.175-0.69-2.588-0.128-4.093
							c0.561-1.504,1.605-3.098,2.773-4.641c1.166-1.54,2.456-3.027,3.51-4.32c1.054-1.291,1.873-2.387,2.102-3.147
							c0.229-0.758,0.798-1.806,1.619-3.015c0.82-1.207,1.893-2.574,3.127-3.973c1.233-1.396,2.63-2.826,4.102-4.159
							c1.47-1.331,3.015-2.567,4.549-3.583c1.022-0.766,1.874-1.518,2.575-2.254c0.7-0.735,1.25-1.455,1.671-2.156
							c0.42-0.701,0.711-1.383,0.893-2.046c0.181-0.662,0.253-1.304,0.236-1.924c0.126,0.001,0.251,0.001,0.377,0.001
							c0.125,0,0.251,0.001,0.376,0.001s0.25,0,0.375,0c0.124,0,0.249,0,0.373,0c8.884-0.015,16.799-0.495,23.669-1.206
							c6.863-0.711,12.683-1.653,17.388-2.593c4.701-0.938,8.291-1.874,10.705-2.574c2.413-0.7,3.652-1.166,3.652-1.166
							c11.736-1.653,22.346-3.217,31.883-4.709c9.519-1.489,17.97-2.908,25.406-4.272c7.425-1.362,13.84-2.671,19.296-3.942
							c5.448-1.27,9.94-2.502,13.529-3.715c1.277,0.342,2.541,0.658,3.778,0.948c1.238,0.291,2.449,0.555,3.622,0.789
							s2.309,0.44,3.394,0.615c1.085,0.176,2.119,0.319,3.092,0.431c3.31,0.378,9.03,1.366,16.331,2.758
							c7.308,1.393,16.202,3.189,25.851,5.183c9.661,1.996,20.081,4.189,30.418,6.369c10.353,2.183,20.622,4.353,29.958,6.297
							c-0.038-0.006-0.077-0.012-0.116-0.018c-0.038-0.005-0.077-0.01-0.116-0.016c-0.039-0.005-0.078-0.01-0.116-0.014
							c-0.039-0.006-0.078-0.01-0.115-0.015c4.918,1.454,9.46,2.679,13.652,3.696c4.194,1.02,8.037,1.831,11.554,2.461
							c3.519,0.63,6.709,1.076,9.6,1.365s5.479,0.419,7.796,0.414c6.004-0.01,10.161-0.922,12.959-2.303
							c2.795-1.378,4.232-3.225,4.804-5.109c0.57-1.882,0.278-3.802-0.386-5.336c-0.662-1.532-1.697-2.682-2.617-3.024
							c-0.113-0.119-0.232-0.231-0.357-0.338s-0.257-0.206-0.394-0.298s-0.279-0.178-0.428-0.255s-0.303-0.147-0.462-0.21
							c-0.1-0.037-0.201-0.076-0.304-0.114c-0.103-0.039-0.206-0.078-0.311-0.118c-0.104-0.039-0.211-0.079-0.318-0.119
							c-0.107-0.041-0.217-0.082-0.326-0.123c-0.626-0.27-1.331-0.549-2.104-0.837s-1.612-0.583-2.511-0.884
							c-0.897-0.3-1.853-0.605-2.855-0.914c-1.001-0.309-2.05-0.62-3.135-0.932c-1.367-0.419-2.78-0.835-4.223-1.241
							c-1.442-0.405-2.914-0.8-4.397-1.176s-2.979-0.731-4.472-1.06s-2.979-0.629-4.447-0.893c-0.986-0.213-1.959-0.416-2.912-0.609
							c-0.952-0.193-1.885-0.376-2.791-0.547c-0.906-0.17-1.786-0.329-2.633-0.475c-0.848-0.145-1.661-0.277-2.436-0.394
							c-1.776-0.476-3.519-1.034-5.441-1.71c-1.922-0.676-4.023-1.467-6.521-2.41c-2.494-0.941-5.383-2.034-8.878-3.31
							c-3.491-1.274-7.588-2.731-12.501-4.405c-2.916-1.881-6.521-3.697-10.593-5.435c-4.067-1.735-8.601-3.392-13.379-4.955
							c-4.772-1.563-9.791-3.033-14.836-4.399c-5.039-1.363-10.105-2.623-14.979-3.764c-0.112-0.133-0.23-0.266-0.353-0.396
							c-0.123-0.132-0.248-0.263-0.374-0.393s-0.252-0.258-0.374-0.386s-0.241-0.254-0.354-0.379
							c-0.506-0.558-1.643-1.317-3.194-2.153s-3.518-1.749-5.685-2.614c-2.165-0.864-4.531-1.683-6.885-2.331
							c-2.352-0.646-4.691-1.125-6.808-1.309c-3.844-3.324-8.896-6.147-14.37-8.516c-5.463-2.365-11.351-4.279-16.88-5.787
							c-5.522-1.506-10.691-2.607-14.725-3.349c-4.031-0.74-6.931-1.12-7.913-1.181c-0.982-0.062-2.617-0.199-4.585-0.412
							c-1.969-0.213-4.271-0.501-6.587-0.865c-2.317-0.364-4.649-0.804-6.68-1.318c-2.028-0.516-3.755-1.105-4.861-1.771
							c-9.659-5.849-24.34-11.206-40.932-15.958c-16.529-4.734-34.977-8.873-52.271-12.299c-17.251-3.417-33.375-6.129-45.318-8.015
							c-11.928-1.884-19.7-2.946-20.256-3.063c-0.553-0.117-1.634-0.374-3.122-0.725c-1.488-0.35-3.384-0.793-5.569-1.283
							c-2.185-0.491-4.658-1.029-7.303-1.57c-2.644-0.54-5.457-1.082-8.324-1.58c-2.871-0.498-7.174-1.468-12.011-2.642
							c-4.833-1.173-10.196-2.548-15.197-3.86c-4.995-1.311-9.628-2.559-13.012-3.478c-3.38-0.919-5.514-1.511-5.514-1.511
							c-0.165-0.044-0.333-0.087-0.502-0.127c-0.17-0.04-0.341-0.078-0.515-0.114c-0.173-0.036-0.349-0.07-0.525-0.103
							c-0.178-0.031-0.356-0.061-0.538-0.089c-0.164-0.055-0.31-0.103-0.435-0.145s-0.23-0.077-0.315-0.104
							c-0.085-0.028-0.149-0.049-0.192-0.063c-0.044-0.015-0.065-0.021-0.065-0.021l-0.313,0.181
							c-0.099-0.009-0.199-0.017-0.299-0.024c-0.101-0.008-0.202-0.015-0.304-0.021c-0.103-0.007-0.204-0.013-0.307-0.019
							c-0.103-0.005-0.205-0.011-0.308-0.015c-1.12-0.323-2.131-0.613-3.021-0.868c-0.89-0.255-1.66-0.474-2.299-0.654
							c-0.638-0.181-1.145-0.324-1.509-0.427c-0.364-0.104-0.585-0.166-0.652-0.186c-0.527-0.153-2.994-0.979-6.586-2.385
							c-3.589-1.404-8.296-3.385-13.31-5.848c-5.003-2.457-10.306-5.392-15.1-8.709c-4.78-3.307-9.052-6.991-12.016-10.959
							c-3.847-4.42-8.625-7.887-13.896-10.604c-5.26-2.71-11.019-4.678-16.84-6.099c-5.814-1.419-11.699-2.294-17.214-2.817
							C122.966,328.646,117.817,328.473,113.477,328.461"/>
					</g>
				</g>
			</g>
		</g>
		<g>
			<path fill="#E56E88" d="M355.82,459.684c0,0,2.709,6.566-7.875,26.508c-5.174,15.759-9.854,27.084-9.605,32.748
				c0.244,5.662,1.723,10.586,1.23,15.264c-0.493,4.678-10.341,11.326-10.341,11.326s-4.188,5.91-11.077,2.955
				c-4.188,4.678-7.883,8.123-7.883,8.123l-6.646,2.955l-8.86-1.23l-2.217-0.492c0,0,0.979-3.939,3.938-5.91
				c2.953-1.967,8.619-5.908,8.619-5.908s-9.354,0.245-12.557,0.738c-3.201,0.491-8.861-2.955-9.604-4.188
				c-0.736-1.229-1.479-0.244-4.432,0.248c-2.957,0.491-7.389,0.246-7.389,0.246s-4.431-4.186,2.952-7.139
				c7.14-1.234,11.327,1.477,15.515,1.969s19.944-1.477,19.944-1.477s10.583-1.727,11.569-5.91c0.985-4.186-0.243-5.17,1.723-9.107
				c1.973-3.941,12.07-42.104,13.792-44.319c1.722-2.218,4.431-12.886,2.952-17.399c-1.479-4.513,3.693-13.132,8.617-9.931
				C353.111,452.953,355.641,455.066,355.82,459.684z"/>
			<path fill="#FF788F" d="M371.577,457.715c0,0,14.771,14.771,0,33.81c-6.563,7.552-13.785,21.667-15.097,27.247
				c-1.313,5.583-12.48,21.011-10.182,29.549c0.986,1.969,6.691,6.196,8.292,7.058s14.028,8.493,10.585,15.265
				c-0.488,1.723-4.918,6.033-7.756-0.615c-2.829-6.648-10.711-13.173-13.169-13.664c-2.466-0.494-5.667,3.938-3.574,7.262
				c2.095,3.325,6.774,17.852,6.774,24.498c1.108,6.033,3.324,9.849,4.309,11.695c0.986,1.846-0.741,13.418-8.246,3.572
				c-5.787-10.343-9.239-34.963-11.697-36.688c-2.094-0.616-3.202-0.738-5.91,2.956c-2.709,3.694-8.369,10.834-8.369,10.834
				s-3.816,5.418-7.76,4.184c-3.195,2.585-8.49,7.634-15.265,9.604c-3.937,4.922-21.175,9.848-22.653,6.155
				c-1.473-3.695,6.896-7.388,8.868-8.619c1.966-1.231,22.524-14.279,25.234-15.512c2.708-1.229,8.124-10.219,8.124-10.219
				s-15.387,4.311-21.91-0.49c-9.482,0.738-16.986-0.861-23.146,4.555c-6.152,5.416-9.598-1.847-7.875-3.078
				c1.723-1.23,8.656-5.785,12.107-5.785c3.445,0,13.127-3.449,14.932-4.105c1.805-0.654,21.667,1.314,25.445-0.818
				c3.77-2.135,11.16-0.329,17.563-14.117c6.402-13.787,20.189-47.928,20.189-50.391s4.68-9.848,1.479-18.467
				c-0.988-2.709-7.141-11.078-6.653-14.28c0.493-3.201,8.125-8.371,16.007-7.88C370.098,451.723,370.418,456.355,371.577,457.715z"
				/>
			<path fill="#664F46" d="M434.939,461.779c0,0-48.926,33.162-121.796-2.29c-66.135-16.004-133.879-71.071-177.683-149.448
				c23.829-41.667,35.335-21.137,35.335-21.137l83.917-94.932c0,0,204.852,145.103,215.359,168.739
				C559.609,409.977,578.385,424.063,434.939,461.779z"/>
			<path fill="#715A4C" d="M179.885,132.73c0,22.843-32.291,41.478-58.741,41.478c-17.997,0-33.679-8.582-41.862-21.269
				c-3.834-5.95-6.018-12.801-6.018-20.094c0-2.59,1.05-7.613,1.78-10.629c0.307-1.262,0.557-2.171,0.64-2.407
				c6.326-16.456,28.192-34.417,49.367-34.417C151.501,85.393,179.885,109.885,179.885,132.73z"/>
			<path fill="#715A4C" d="M55.227,151.35c0,0,18.134-24.535,19.695-29.133c1.563-4.596,6.436,23.659,6.436,23.659
				s-17.264,9.657-26.131,9.657C52.754,155.366,55.227,151.35,55.227,151.35z"/>
			<path fill="#715A4C" d="M121,85.607c5.581-0.531,57.885-9.711,78.129,43.65c11.16,34.799,44.34,59.091,46.465,60.402
				c0.766,0.475,21.124,12.402,44.896,28.799c-2.771,30.236-142.953,128.895-155.029,91.582s-8.141-63.611-8.141-63.611
				s0.174-58.929-25.027-75.178C102.293,171.252,97.523,87.633,121,85.607z"/>
			<path fill="#333333" d="M86.959,140.473c-1.018,0.229-15.514,8.619-26.84,9.604c-5.904-0.984-9.848,5.909-9.848,5.909
				s-6.396,6.896-10.834,8.617c-4.431,1.724-13.535,19.938-8.862,24.495c1.724,1.603,5.911-2.337,10.099-2.09
				c6.152-1.23,13.541-10.834,13.541-10.834s14.029-11.805,30.279-11.195c2.708,0.855,11.819-20.072,11.819-20.072
				S95.82,138.505,86.959,140.473z"/>
			
				<radialGradient id="SVGID_3_" cx="-1129.0371" cy="-151.3037" r="13.6582" gradientTransform="matrix(0.9871 -0.3282 0.2893 0.9348 1273.4441 -108.4785)" gradientUnits="userSpaceOnUse">
				<stop  offset="0" style="stop-color:#FFFFFF"/>
				<stop  offset="0.2327" style="stop-color:#EEEEEE"/>
				<stop  offset="0.3168" style="stop-color:#191919"/>
				<stop  offset="1" style="stop-color:#191919"/>
			</radialGradient>
			<path fill="url(#SVGID_3_)" d="M123.229,122.279c2.016,3.916-0.011,8.969-4.51,11.284c-4.507,2.313-9.792,1.015-11.807-2.899
				c-2.016-3.918,0.009-8.973,4.518-11.285C115.926,117.063,121.212,118.362,123.229,122.279z"/>
			<path fill="#664F46" d="M544.012,364.401c0,0,63.84,21.566,82.891,50.674c23.524,17.249,25.764,22.641,36.965,25.871
				c11.202,3.239,23.887,12.219,29.873,17.253c5.971,5.033-2.622,38.096-28.375,28.749c-25.765-9.341-107.909-47.435-125.081-51.388
				c-17.186-3.953-52.271-29.111-37.723-52.109C517.127,360.453,531.867,359.832,544.012,364.401z"/>
			<path fill="#333333" d="M655.914,437.784c12.369,3.556,36.393,16.334,39.022,22.437c4.575,2.971,5.521,54.863-58.911,14.814
				C661.979,482.061,681.369,468.709,655.914,437.784z"/>
			<path fill="#56423B" d="M257.824,195.607c0,0,34.307,20.109,45.883,24.294c11.57,4.185,22.154,9.851,24.37,10.832
				c2.222,0.987,121.134,33.485,155.608,81.253c3.938,5.416,18.215,8.369,22.159,8.863c3.938,0.492,37.911,11.324,50.224,37.915
				c8.375,1.478,19.209,12.312,20.682,16.741c1.479,4.434,4.924,9.85-8.369,13.788c-13.293,3.94-21.668,0-21.668,0
				s24.619,14.28,6.896,20.683c-17.729,6.402-68.445,32.498-218.145-6.402c-4.924,5.91-22.652,16.25-65.001-9.848
				c-42.348-26.1-51.703-31.516-64.508-46.287c-12.8-14.772-48.745-93.562-13.292-119.166
				C228.116,202.666,247.279,189.545,257.824,195.607z"/>
			<path fill="#333333" d="M279.714,298.334c0,0-0.471,15.998,14.115,7.528C292.419,298.804,287.242,295.51,279.714,298.334z"/>
			<path fill="#333333" d="M310.298,319.469c0,0-6.117,11.331-13.174,10.391C300.887,334.564,320.179,342.485,310.298,319.469z"/>
			<path fill="#333333" d="M238.072,320.08c0,0-6.118,7.954-15.999,6.542C224.427,335.092,250.775,363.886,238.072,320.08z"/>
			<path fill="#333333" d="M310.65,389.851c0,0-1.015-11.292-7.565-16.938c-0.434-7.059,16.034-6.588,11.799,5.176
				C313.003,382.322,310.65,389.851,310.65,389.851z"/>
			<path fill="#333333" d="M362.291,371.322c0,0-8.47,7.999-11.293,7.528c2.823,8.94,23.057,36.231,22.586,15.527
				C369.819,380.732,369.349,374.146,362.291,371.322z"/>
			<path fill="#333333" d="M378.289,343.754c0,0-21.645,21.451,11.292,38.861C395.228,380.732,388.17,351.476,378.289,343.754z"/>
			<path fill="#333333" d="M358.292,319.469c0,0-7.999-2.785-15.057-6.078C345.117,326.564,365.821,341.545,358.292,319.469z"/>
			<path fill="#333333" d="M275.009,308.336c0,0-7.528,1.29-8.94,5.055c3.764,7.998,23.997,24.938,24.938,2.353
				C285.36,311.037,280.184,314.104,275.009,308.336z"/>
			<path fill="#333333" d="M444.107,332.686c0,0,20.703,6.117,10.352,31.996c2.353,4.705,6.587,11.293,7.999,9.881
				c1.411-1.41-3.765,15.528,0,21.645c3.764,3.765,18.351,15.721,26.82,13.978c-0.941-4.096-20.704-22.679-16.469-31.267
				c3.764,3.644,6.588,0,6.588,0s4.234-0.088-2.354-7.396C470.457,364.211,470.457,337.392,444.107,332.686z"/>
			<path fill="#333333" d="M405.349,298.83c0,0,12.703,12.758,0,27.893c-6.588,14.193,14.436,38.66,19.921,39.602
				c5.017-0.471-3.924-22.082-2.982-30.803c5.646,1.631,13.175,3.604,8.47-4.441s-7.529-10.475-15.998-13.023
				C415.7,312.684,418.994,305.209,405.349,298.83z"/>
		</g>
	</g>
</g>
</svg>
