<?xml version="1.0" encoding="utf-8"?>
<!-- Generator: Adobe Illustrator 16.0.0, SVG Export Plug-In . SVG Version: 6.00 Build 0)  -->
<!DOCTYPE svg PUBLIC "-//W3C//DTD SVG 1.1//EN" "http://www.w3.org/Graphics/SVG/1.1/DTD/svg11.dtd">
<svg version="1.1" xmlns="http://www.w3.org/2000/svg" xmlns:xlink="http://www.w3.org/1999/xlink" x="0px" y="0px" width="732px"
	 height="692px" viewBox="0 0 732 692" enable-background="new 0 0 732 692" xml:space="preserve">
<g id="Calque_1" display="none">
	<rect x="152.41" y="655.121" display="inline" fill="none" width="415.59" height="37.879"/>
	<text transform="matrix(1 0 0 1 152.4102 679.9707)" display="inline" font-family="'MyriadPro-Regular'" font-size="35">Viréo à moustaches</text>
</g>
<g id="colombe_à_croissant">
</g>
<g id="colombe_rouviolette">
</g>
<g id="colibri_madere">
</g>
<g id="colibri_à_tête_bleue">
</g>
<g id="elenie_siffleuse">
</g>
<g id="grive_à_pieds_jaunes">
</g>
<g id="merle_à_lunette">
</g>
<g id="moucherolle_gobemouche">
</g>
<g id="moqueur_corossol">
</g>
<g id="moqueur_grivotte">
</g>
<g id="trembleur_brun">
</g>
<g id="trembleur_gris">
</g>
<g id="paruline_cafeite">
</g>
<g id="saltator_gros_bec">
</g>
<g id="soporophile_rouge-gorge">
</g>
<g id="sucrier_à_ventre_jaune">
</g>
<g id="vachet_luisant">
</g>
<g id="vireo_a_moustaches">
	<g>
		<g opacity="0.3">
			<g>
				<g enable-background="new    ">
					<defs>
						<polygon id="SVGID_45_" enable-background="new    " points="11.279,571.17 15.412,322.56 643.544,324.396 720.721,568.822 
													"/>
					</defs>
					<clipPath id="SVGID_2_">
						<use xlink:href="#SVGID_45_"  overflow="visible"/>
					</clipPath>
					<g clip-path="url(#SVGID_2_)">
						<path fill="#959595" d="M141.889,322.93c-3.193-0.01-6.672,0.014-10.438,0.119c-3.767,0.106-7.824,0.297-12.172,0.623
							c-4.35,0.325-8.991,0.787-13.93,1.436c-4.941,0.649-10.183,1.487-15.726,2.564c-5.242,0.35-12.098,0.822-19.538,1.38
							c-7.445,0.559-15.479,1.202-23.062,1.893c-7.591,0.691-14.733,1.429-20.385,2.173c-5.656,0.745-9.818,1.497-11.438,2.215
							c0.43,0.627,2.186,1.131,5.178,1.577c2.993,0.446,7.226,0.836,12.613,1.23c5.387,0.395,11.928,0.796,19.54,1.267
							c7.611,0.472,16.296,1.014,25.966,1.689c0.609,0.306,1.265,0.617,1.971,0.935c0.703,0.317,1.457,0.641,2.265,0.97
							c0.807,0.329,1.665,0.664,2.581,1.006c0.915,0.341,1.886,0.688,2.916,1.04c1.111,0.376,2.478,0.806,4.075,1.466
							c1.596,0.662,3.425,1.557,5.464,2.861c2.04,1.309,4.294,3.029,6.739,5.345c2.45,2.321,5.098,5.242,7.921,8.95
							c0.03,0.134,0.076,0.254,0.141,0.364c0.064,0.109,0.146,0.209,0.248,0.299c0.103,0.089,0.225,0.169,0.369,0.241
							c0.144,0.071,0.309,0.135,0.498,0.191c-0.027,0.002-0.053,0.002-0.08,0.003c-0.026,0.001-0.054,0.116-0.08,0.116
							c-0.027,0.002-0.053,0.117-0.08,0.117c-0.026,0-0.054,0-0.081,0c0.054,1,1.121,4.947,3.087,11.086
							c1.976,6.178,4.869,14.23,8.557,22.676c3.72,8.518,8.251,17.352,13.452,24.888c5.241,7.591,11.147,13.796,17.543,16.908
							c1.622,1.127,4.923,2.823,9.29,4.813c4.373,1.994,9.814,4.273,15.703,6.555c5.899,2.287,12.247,4.569,18.409,6.561
							c6.173,1.993,12.157,3.688,17.315,4.79c4.449,1.23,10.001,2.637,16.176,4.099c6.183,1.463,12.994,2.983,19.95,4.44
							c6.966,1.46,14.076,2.854,20.851,4.065c6.78,1.211,13.22,2.238,18.834,2.958c-3.191,3.282-6.827,6.986-10.604,10.764
							c-3.791,3.791-7.723,7.656-11.486,11.239c-3.773,3.597-7.375,6.907-10.482,9.567c-3.115,2.667-5.73,4.678-7.522,5.664
							c-2.658,1.462-5.229,2.833-7.864,4.069c-2.639,1.236-5.343,2.335-8.268,3.254c-2.928,0.919-6.077,1.974-9.602,2.483
							c-3.525,0.509-7.429,1.12-11.861,1.12c-0.142,0-0.283,0-0.426,0s-0.285-0.318-0.431-0.32c-0.144,0-0.287-0.16-0.433-0.162
							c-0.145-0.002-0.29-0.084-0.438-0.085c-1.873-0.024-3.638-0.084-5.296-0.099c-1.658-0.017-3.208-0.048-4.656-0.056
							c-1.447-0.008-2.791-0.024-4.035-0.026c-1.245-0.002-2.389-0.006-3.437-0.004c-1.588,0.003-2.954,0.009-4.108,0.018
							c-1.156,0.011-2.102,0.021-2.848,0.033c-0.746,0.01-1.296,0.021-1.656,0.029c-0.362,0.008-0.537,0.014-0.537,0.014
							s-0.612,0.18-1.371,0.457c-0.761,0.277-1.671,0.653-2.269,1.047s-0.881,0.806-0.388,1.152
							c0.492,0.349,1.765,0.633,4.275,0.772c0.818,0.045,1.649,0.083,2.482,0.114c0.834,0.03,1.671,0.054,2.505,0.072
							c0.833,0.018,1.662,0.029,2.48,0.037c0.82,0.007,1.627,0.009,2.416,0.007c1.63-0.003,3.182-0.023,4.594-0.053
							c1.412-0.028,2.682-0.065,3.748-0.103c1.068-0.035,1.931-0.072,2.528-0.1c0.596-0.026,0.927-0.043,0.927-0.043l-25.653,7.039
							l-12.181,1.781c0,0-0.449,0.229-1.004,0.57s-1.219,0.799-1.648,1.254c-0.431,0.457-0.627,0.912-0.247,1.253
							c0.379,0.34,1.335,0.565,3.206,0.561c0.188,0,0.383-0.003,0.589-0.009c0.206-0.005,0.421-0.012,0.646-0.022
							c0.224-0.01,0.459-0.022,0.703-0.038c0.245-0.016,0.5-0.033,0.766-0.054c2.924-0.229,7.98-1.013,13.91-2.061
							c5.926-1.046,12.722-2.354,19.142-3.631c6.412-1.275,12.451-2.52,16.884-3.445c4.426-0.925,7.256-1.531,7.256-1.531
							l-17.226,14.057c0,0-0.228,0.206-0.558,0.574c-0.328,0.368-0.759,0.898-1.163,1.55c-0.404,0.652-0.781,1.424-1.004,2.274
							c-0.225,0.852-0.292,1.78-0.079,2.743c0.135,0.596,0.173,1.192,0.177,1.752c0.003,0.56-0.031,1.083-0.044,1.531
							c-0.014,0.448-0.006,0.822,0.078,1.084c0.085,0.262,0.249,0.411,0.547,0.41c0.186,0,0.421-0.059,0.721-0.183
							c0.301-0.123,0.667-0.313,1.109-0.577c0.445-0.265,0.968-0.604,1.58-1.026c0.613-0.423,1.319-0.929,2.129-1.527
							c2.119-1.564,4.775-3.369,7.64-5.231c2.86-1.857,5.927-3.772,8.878-5.564c2.943-1.787,5.771-3.453,8.16-4.817
							c2.387-1.362,4.335-2.426,5.53-3.012c1.194-0.587,2.398-1.081,3.902-1.517c1.502-0.437,3.306-0.813,5.699-1.165
							c2.392-0.351,5.375-0.677,9.239-1.007c3.862-0.331,8.604-0.669,14.516-1.045c5.909-0.375,10.34-0.657,13.661-0.867
							c3.318-0.212,5.532-0.353,7.006-0.446c1.475-0.094,2.212-0.141,2.581-0.163c0.368-0.023,0.368-0.023,0.368-0.023
							s1.104-0.292,2.373-0.754c1.267-0.462,2.699-1.093,3.355-1.771c0.656-0.678,0.538-1.404-1.289-2.056
							c-1.827-0.65-5.36-1.229-11.541-1.612c-0.191-0.002-0.383-0.004-0.573-0.006c-0.193-0.002-0.385,0.014-0.578,0.012
							c-0.192-0.002-0.386,0.014-0.577,0.014c-0.192,0-0.386,0-0.581,0c-4.415,0-8.956,0.193-13.285,0.488
							c-4.332,0.293-8.449,0.675-12.018,1.063c-3.568,0.391-6.587,0.772-8.712,1.063c-2.127,0.291-3.36,0.483-3.36,0.483
							s2.29-1.907,5.992-5.015c3.691-3.1,8.777-7.384,14.378-12.155c5.574-4.748,11.655-9.976,17.39-14.998
							c5.706-4.997,11.07-9.792,15.266-13.728c2.559,0.147,5.311,0.29,8.219,0.426c2.909,0.137,5.976,0.266,9.165,0.382
							c3.188,0.115,6.499,0.218,9.896,0.304c3.396,0.085,6.879,0.152,10.414,0.197c-1.217,3.978-2.598,8.402-4.035,12.842
							c-1.44,4.46-2.941,8.935-4.384,12.98c-1.45,4.063-2.843,7.691-4.065,10.432c-1.226,2.746-2.277,4.596-3.038,5.092
							c-0.064,0.864-0.311,1.861-0.935,2.876c-0.623,1.017-1.623,2.051-3.192,2.988c-1.57,0.938-3.712,1.655-6.616,2.282
							c-2.905,0.627-6.574,0.998-11.198,0.998c-0.114,0-0.229,0-0.347,0c-0.116,0-0.234,0-0.354,0s-0.24,0-0.362,0
							c-0.121,0-0.244,0-0.367,0c-3.098,0-6.897,0.143-10.891,0.172c-3.995,0.027-8.183,0.14-12.056,0.221
							c-3.874,0.082-7.434,0.229-10.165,0.395c-2.733,0.166-4.642,0.398-5.214,0.68c-0.592,0.293-1.415,0.699-2.18,1.148
							c-0.763,0.449-1.465,0.949-1.814,1.432c-0.35,0.483-0.344,0.953,0.309,1.346c0.654,0.392,1.956,0.709,4.199,0.887
							c1.307-0.049,2.873-0.117,4.604-0.191c1.729-0.075,3.621-0.156,5.581-0.233c1.958-0.075,3.983-0.146,5.979-0.198
							c1.997-0.053,3.964-0.086,5.806-0.091c1.085-0.003,2.126,0.005,3.105,0.024c0.978,0.021,1.894,0.056,2.728,0.104
							c0.833,0.049,1.585,0.113,2.234,0.195c0.65,0.083,1.196,0.184,1.623,0.304c0.102,0.255-2.368,0.946-6.258,1.853
							c-3.894,0.906-9.216,2.028-14.813,3.143c-5.607,1.116-11.491,2.225-16.497,3.103c-5.01,0.879-9.136,1.526-11.211,1.716
							c-2.079,0.191-4.215,0.521-6.271,0.971c-2.056,0.449-4.032,1.018-5.789,1.688c-1.76,0.672-3.3,1.444-4.483,2.301
							c-1.187,0.855-2.016,1.794-2.348,2.798c0.057,0.001,0.117,0.003,0.176,0.004s0.119,0.116,0.181,0.118
							c0.063,0,0.123,0.115,0.186,0.115s0.125,0,0.188,0c1.239,0,2.698-0.207,4.193-0.338c1.494-0.131,3.022-0.359,4.396-0.532
							c1.371-0.173,2.588-0.373,3.463-0.503c0.874-0.129,1.405-0.229,1.405-0.229s1.963-0.366,5.011-0.91
							c3.047-0.544,7.176-1.276,11.509-2.02c4.327-0.744,8.86-1.503,12.725-2.103c3.862-0.6,7.06-1.044,8.722-1.159
							c1.66-0.114,4.965-0.638,8.986-1.359c4.015-0.721,8.742-1.641,13.26-2.543c4.512-0.901,8.811-1.788,11.98-2.449
							c3.17-0.66,5.21-1.096,5.21-1.096s0.212,0.018,0.495,0.091c0.282,0.071,0.639,0.198,0.93,0.417
							c0.29,0.218,0.515,0.529,0.533,0.968c0.02,0.439-0.166,1.008-0.693,1.743s-1.519,1.903-2.698,3.309
							c-1.183,1.408-2.552,3.054-3.833,4.738c-1.283,1.688-2.477,3.414-3.299,4.98c-0.823,1.569-1.275,2.977-1.073,4.02
							c0.204,1.045,0.427,1.979,0.649,2.791c0.223,0.813,0.441,1.506,0.636,2.066s0.364,0.99,0.485,1.281
							c0.121,0.289,0.193,0.439,0.193,0.439s0.075,0.158,0.231,0.396c0.156,0.237,0.392,0.556,0.711,0.873
							c0.32,0.316,0.723,0.634,1.214,0.872c0.492,0.237,1.07,0.395,1.74,0.393c0.397-0.002,0.828-0.06,1.289-0.189
							c0.463-0.13,0.958-0.333,1.487-0.625c0.527-0.292,1.09-0.673,1.686-1.16c0.594-0.486,1.225-1.079,1.888-1.794
							c1.008-1.911,1.712-3.464,2.201-4.718c0.489-1.253,0.763-2.208,0.912-2.926c0.148-0.716,0.172-1.194,0.158-1.494
							s-0.064-0.421-0.064-0.421s0.393-0.706,1.04-1.8c0.647-1.093,1.544-2.571,2.554-4.116c1.008-1.543,2.125-3.154,3.213-4.516
							c1.089-1.359,2.149-2.473,3.043-3.025c0.896-0.552,1.369-1.248,2.043-2.072c0.672-0.824,1.542-1.775,3.226-2.838
							c1.681-1.063,4.175-2.234,8.095-3.499c3.914-1.263,9.249-2.617,16.615-4.048c2.533-0.549,4.887-1.142,6.989-1.723
							c2.102-0.581,3.954-1.148,5.489-1.648c1.535-0.498,2.754-0.93,3.589-1.236c0.835-0.305,1.286-0.485,1.286-0.485
							s0.12-0.277,0.191-0.692c0.074-0.414,0.1-0.966-0.088-1.518s-0.586-1.103-1.364-1.514c-0.779-0.411-1.936-0.684-3.636-0.681
							c-0.425,0-0.885,0.019-1.381,0.056c-0.496,0.038-1.029,0.096-1.604,0.174c-0.571,0.078-1.184,0.179-1.836,0.303
							c-0.654,0.124-1.352,0.272-2.093,0.446c-2.367,0.651-4.958,1.331-7.513,1.984c-2.558,0.653-5.08,1.279-7.306,1.825
							c-2.229,0.545-4.159,1.01-5.534,1.338c-1.377,0.327-2.194,0.518-2.194,0.518s-0.162,0.064-0.435,0.158
							c-0.273,0.095-0.658,0.221-1.103,0.348c-0.445,0.126-0.95,0.253-1.467,0.348c-0.515,0.096-1.041,0.159-1.526,0.16
							c-0.41,0.002-0.792-0.043-1.112-0.15c-0.321-0.108-0.583-0.28-0.753-0.535c-0.172-0.254-0.25-0.592-0.21-1.031
							s0.204-0.98,0.519-1.643c0.443-0.932,1.237-3.16,2.254-6.233c1.013-3.064,2.246-6.965,3.573-11.253
							c1.323-4.271,2.737-8.922,4.122-13.52c1.379-4.576,2.728-9.098,3.929-13.141c2.438-0.026,6.483-0.099,11.401-0.306
							s10.707-0.545,16.63-1.103c5.919-0.557,11.974-1.332,17.424-2.408c5.445-1.074,10.288-2.45,13.795-4.211
							c2.231-0.475,4.81-0.937,7.543-1.522c2.731-0.586,5.618-1.297,8.464-2.273c2.844-0.976,5.646-2.214,8.214-3.856
							c2.564-1.638,4.892-3.676,6.791-6.251c0.95-0.409,4.183-0.892,8.62-1.491c4.434-0.6,10.074-1.314,15.845-2.189
							c5.765-0.875,11.659-1.907,16.615-3.142c4.949-1.231,8.962-2.663,10.976-4.339c2.203-0.642,4.617-1.285,7.156-1.925
							c2.537-0.638,5.199-1.273,7.899-1.899c2.7-0.627,5.438-1.244,8.13-1.852c2.691-0.606,5.334-1.2,7.85-1.779
							c0.033,0.009,0.066,0.018,0.099,0.025c0.033,0.01,0.066,0.019,0.1,0.027c0.033,0.008,0.066,0.018,0.1,0.025
							c0.032,0.009,0.067,0.016,0.103,0.023c2.508,0.515,9.164,1.086,17.99,1.654s19.819,1.133,30.993,1.633
							c11.174,0.502,22.525,0.938,32.072,1.248c9.547,0.31,17.288,0.495,21.244,0.494c4.39-0.058,7.295-0.359,9.181-0.779
							c1.887-0.419,2.754-0.956,3.074-1.485c0.321-0.529,0.094-1.052-0.216-1.441c-0.307-0.39-0.694-0.646-0.694-0.646
							s0.819,0.1,2.16,0.25c1.34,0.149,3.204,0.35,5.293,0.55c2.09,0.2,4.404,0.4,6.646,0.55c2.243,0.15,4.416,0.25,6.22,0.25
							c0.542,0.031,1.059,0.059,1.55,0.081c0.49,0.022,0.956,0.042,1.396,0.057c0.441,0.015,0.859,0.026,1.252,0.033
							c0.394,0.008,0.764,0.011,1.113,0.011c2.811,0,4.142-0.231,4.471-0.586c0.328-0.354-0.34-0.835-1.531-1.333
							c-1.189-0.498-2.897-1.015-4.646-1.444c-1.746-0.431-3.535-0.775-4.883-0.927c-4.467-1.024-12.774-2.093-22.961-3.136
							c-10.181-1.041-22.244-2.057-34.232-2.973c-11.985-0.916-23.9-1.732-33.791-2.378c-9.89-0.646-17.756-1.119-21.648-1.351
							c-2.084-0.776-4.852-1.729-8.414-2.801c-3.561-1.073-7.914-2.268-13.178-3.531c-5.259-1.263-11.423-2.595-18.609-3.945
							c-7.179-1.349-15.378-2.717-24.713-4.051c-3.381-1.59-7.336-3.126-11.751-4.628c-4.41-1.5-9.282-2.967-14.509-4.42
							c-5.221-1.452-10.795-2.89-16.615-4.334c-5.813-1.442-11.87-2.892-18.067-4.366c-2.726-0.277-4.979-0.595-7.058-0.975
							c-2.077-0.379-3.979-0.818-6-1.341c-2.021-0.522-4.164-1.126-6.723-1.833c-2.56-0.707-5.534-1.516-9.224-2.447
							c-3.686-0.931-9.107-2.531-15.694-4.473c-6.574-1.938-14.304-4.217-22.625-6.512c-8.302-2.291-17.191-4.598-26.111-6.602
							c-8.905-2.002-17.848-3.703-26.277-4.785c0,0-0.841-0.154-2.341-0.385c-1.5-0.231-3.658-0.541-6.298-0.854
							c-2.639-0.313-5.758-0.63-9.178-0.875c-3.421-0.246-7.142-0.42-10.988-0.449c-2.884-0.632-6.104-1.417-9.533-2.383
							c-3.425-0.966-7.052-2.111-10.749-3.464c-3.693-1.351-7.452-2.91-11.147-4.7c-3.688-1.789-7.306-3.809-10.726-6.086
							c-1.763-1.158-4.814-3.293-9.216-5.864c-4.39-2.564-10.116-5.56-17.24-8.452c-7.104-2.883-15.6-5.664-25.563-7.817
							c-9.943-2.148-21.363-3.683-34.355-4.061c-0.13,0.002-0.263-0.005-0.395-0.005c-0.133,0-0.267,0-0.401,0
							c-0.134,0-0.271,0-0.406,0s-0.273,0-0.411,0c-0.394,0-0.795,0.003-1.205-0.001c-0.408-0.002-0.823-0.001-1.246-0.005
							s-0.853-0.006-1.29-0.01s-0.883-0.006-1.335-0.012c-0.456-0.004-0.918-0.009-1.387-0.014c-0.47-0.005-0.946-0.008-1.432-0.012
							c-0.483-0.004-0.977-0.008-1.475-0.011C142.908,322.933,142.401,322.932,141.889,322.93"/>
					</g>
				</g>
			</g>
		</g>
		<g>
			<path id="patted_21_" fill="#282728" d="M306.009,400.579c0,0-44.529,82.006-55.646,93.127
				c-11.121,11.122-20.553,19.293-38.555,18.766c-18.005-0.529-25.369-0.126-25.369-0.126s-9.51,5.197,0.023,6.256
				c9.53,1.059,20.662-0.037,20.662-0.037l-24.879,12.688l-11.648,3.169c0,0-8.469,7.937,2.651,6.352
				c11.12-1.591,55.066-19.067,55.066-19.067l-17.472,25.351c0,0-3.708,5.887-3.179,12.772c0.531,6.881-2.647,13.766,5.825,2.646
				c8.478-11.121,25.418-29.122,30.18-33.359c4.767-4.232,9.533-5.825,32.3-8.469c22.771-2.648,22.771-2.648,22.771-2.648
				s17.47-8.47-6.09-11.384c-17.473-0.529-38.387,5.557-38.387,5.557s63.536-93.06,66.184-103.645
				c2.648-10.593,2.648-9.405,2.648-9.405h-17.473L306.009,400.579z"/>
			<path id="patteg_22_" fill="#3B393A" d="M354.336,399.391c0,0-22.588,101.487-27.531,107.136
				c-0.708,6.354-4.503,16.589-22.243,17.12c-11.383,0-35.739-0.045-38.122,2.071c-2.383,2.119-8.471,7.392,0,8.716
				c7.943-0.529,25.945-2.393,30.183-0.013c0.265,1.854-39.448,16.146-47.39,17.469c-7.945,1.323-16.946,6.616-18.533,13.765
				c4.501,0.266,13.502-2.386,13.502-2.386s30.182-10.06,36.537-10.854c6.352-0.792,38.385-13.237,38.385-13.237
				s3.179,0.529,0.795,5.823c-2.379,5.295-12.711,23.035-12.444,30.447c0.263,7.414,1.061,11.646,1.061,11.646
				s2.12,11.385,9.795-2.117c4.767-13.5,4.235-16.941,4.235-16.941s7.414-20.121,11.121-24.093
				c3.706-3.97,1.321-12.175,30.443-22.501c10.063-3.973,17.475-9.271,17.475-9.271s3.973-12.706-10.854-6.354
				c-9.531,4.769-22.543,10.327-22.543,10.327s-8.963,6.265-5.521-4.326c3.441-10.587,26.741-112.428,26.741-112.428H354.336z"/>
			<path id="queue_23_" fill="#847D77" d="M564.68,325.993c0,0,95.91,11.014,114.724,20.19c5.964,1.377,19.731,10.555,0,8.261
				c-7.345,0-20.192-3.212-20.192-3.212s5.048,8.26-12.849,8.719c-16.062,0-92.694-5.965-102.331-10.096
				S546.783,321.405,564.68,325.993z"/>
			<path id="posterieur_1_" fill="#919173" d="M360.136,429.013c0,0,44.622,0.458,62.293-15.376
				c9.177-3.671,23.86-6.883,33.497-27.074c4.129-3.211,44.97-8.717,54.606-22.025c16.979-9.178,44.972-18.355,51.855-24.78
				c-1.377-0.917-10.555-16.977-71.587-25.696c-61.031-8.72-99.578-19.273-120.227-14.685
				C349.926,303.964,360.136,429.013,360.136,429.013z"/>
			<path id="corps_19_" fill="#919173" d="M122.063,192.344c0.097,6.938,14.942,131.585,39.72,156.364
				c6.195,8.948,38.547,36.137,58.508,44.741c17.209,9.636,51.625,24.779,73.307,30.286c7.572,1.72,36.595,5.506,66.538,5.277
				c6.195-1.032,43.249-102.676,18.47-135.37c-24.781-32.695-104.625-78.469-105.313-79.845
				c-0.689-1.377-14.791-14.272-25.102-19.923C213.68,175.677,146.241,191.36,122.063,192.344z"/>
			<path id="tete_9_" fill="#847D77" d="M310.921,198.884c0,0-33.038-7.344-55.524-40.841
				c-6.883-10.095-33.795-54.449-88.565-57.508c-15.587,0.234-43.132-3.523-83.515,18.045c-4.589,3.67-9.637,14.585,13.306,31.154
				c4.591,3.262,13.366,8.381,24.519,40.242c0.884,10.01,22.573-11.789,152.779,47.823
				C296.404,233.67,310.921,198.884,310.921,198.884z"/>
			<path id="tache_tete" fill="#5B5653" d="M255.396,158.043c-6.883-10.095-33.795-54.449-88.565-57.508
				c-15.587,0.234-43.132-3.523-83.515,18.045c29.678-7.519,47.074-0.379,67.68,3.355
				C182.207,102.573,237.978,159.673,255.396,158.043z"/>
			<path id="aile_26_" fill="#605C5A" d="M326.98,199.342c0,0-49.099-18.815-70.207,13.766
				c-11.014,19.273,1.373,47.724,25.695,61.489c24.321,13.767,43.593,29.372,201.907,47.267
				c15.603,2.293,86.729,17.895,86.729,17.895s23.859,5.967,0-10.095c-4.131-4.13-21.108-19.156-66.539-32.58
				c-12.389-13.077-34.414-24.435-58.737-36.712c-11.014-2.294-14.093-5.964-28.614-13.767
				C402.695,238.806,361.398,208.518,326.98,199.342z"/>
			<path id="tache_oeil_4_" fill="#5B5653" d="M114.535,126.864c0,0,94.938-5.151,138.299,44.734
				c-2.289,16.001-14.604,5.647-14.604,5.647s-48.782-37.648-103.18-32.001C109.829,133.949,114.535,126.864,114.535,126.864z"/>
			<path id="tache_bec" fill="#5B5653" d="M114.188,141.479c0,0,5.995,20.708,29.526,36.709c16.001,7.529,35.278,9.412,35.278,9.412
				S191.964,175.363,114.188,141.479z"/>
			<path id="bec_25_" fill="#3B393A" d="M109.127,109.859c0,0-79.774,10.677-88.449,18.929c2.244,6.73,37.137,6.855,94.645,16.864
				C125.99,149.095,161.783,150.814,109.127,109.859z"/>
			<radialGradient id="oeil_5_" cx="163.8486" cy="129.3623" r="17.8103" gradientUnits="userSpaceOnUse">
				<stop  offset="0" style="stop-color:#FFFFFF"/>
				<stop  offset="0.1386" style="stop-color:#D5D4D3"/>
				<stop  offset="0.2079" style="stop-color:#494340"/>
				<stop  offset="0.3663" style="stop-color:#28201D"/>
				<stop  offset="0.703" style="stop-color:#2B201C"/>
				<stop  offset="0.802" style="stop-color:#562B16"/>
				<stop  offset="1" style="stop-color:#602E15"/>
			</radialGradient>
			<circle id="oeil_19_" fill="url(#oeil_5_)" cx="166.946" cy="133.263" r="12.046"/>
		</g>
	</g>
</g>
<g id="merle_quiscale">
</g>
<g id="paruline_jaune">
</g>
<g id="tyran_gris">
</g>
<g id="sporophile_cici">
</g>
<g id="tourterelle_à_queue_carree">
</g>
<g id="colobri_huppé">
</g>
<g id="cécerelle_d_x27_amerique">
</g>
<g id="heron_vert">
</g>
<g id="pic_de_la_guadeloupe">
</g>
<g id="héron_garde-boeufs">
</g>
</svg>
