<?xml version="1.0" encoding="utf-8"?>
<!-- Generator: Adobe Illustrator 16.0.0, SVG Export Plug-In . SVG Version: 6.00 Build 0)  -->
<!DOCTYPE svg PUBLIC "-//W3C//DTD SVG 1.1//EN" "http://www.w3.org/Graphics/SVG/1.1/DTD/svg11.dtd">
<svg version="1.1" xmlns="http://www.w3.org/2000/svg" xmlns:xlink="http://www.w3.org/1999/xlink" x="0px" y="0px" width="732px"
	 height="692px" viewBox="0 0 732 692" enable-background="new 0 0 732 692" xml:space="preserve">
<g id="Calque_1" display="none">
	<rect x="263.23" y="636.182" display="inline" fill="none" width="415.59" height="37.878"/>
	<text transform="matrix(1 0 0 1 263.2305 661.0313)" display="inline" font-family="'MyriadPro-Regular'" font-size="35">Paruline caféiette</text>
</g>
<g id="colombe_à_croissant">
</g>
<g id="colombe_rouviolette">
</g>
<g id="colibri_madere">
</g>
<g id="colibri_à_tête_bleue">
</g>
<g id="elenie_siffleuse">
</g>
<g id="grive_à_pieds_jaunes">
</g>
<g id="merle_à_lunette">
</g>
<g id="moucherolle_gobemouche">
</g>
<g id="moqueur_corossol">
</g>
<g id="moqueur_grivotte">
</g>
<g id="trembleur_brun">
</g>
<g id="trembleur_gris">
</g>
<g id="paruline_cafeite">
	<g>
		<g opacity="0.3">
			<g>
				<g enable-background="new    ">
					<defs>
						<polygon id="SVGID_35_" enable-background="new    " points="9.434,542.746 11.469,320.791 655.187,322.39 722.566,540.78 
													"/>
					</defs>
					<clipPath id="SVGID_2_">
						<use xlink:href="#SVGID_35_"  overflow="visible"/>
					</clipPath>
					<g clip-path="url(#SVGID_2_)">
						<path fill="#959595" d="M138.512,321.106c-5.96-0.015-12.036,0.161-18.084,0.591c-6.052,0.43-12.077,1.114-17.935,2.116
							c-5.864,1.003-11.563,2.324-16.951,4.028c-5.398,1.708-10.491,3.801-15.133,6.346c-1.401,0.843-2.996,1.744-4.641,2.728
							c-1.646,0.983-3.341,2.049-4.94,3.216c-1.602,1.169-3.107,2.44-4.372,3.837c-1.267,1.397-2.292,2.921-2.93,4.591
							c-3.212,0.016-6.453,0.096-9.694,0.25c-3.243,0.153-6.485,0.382-9.699,0.694s-6.399,0.709-9.524,1.199
							c-3.127,0.49-6.195,1.075-9.175,1.763c-1.125,0.371-2.061,0.794-2.768,1.218c-0.708,0.425-1.188,0.851-1.4,1.231
							c-0.213,0.38-0.159,0.715,0.201,0.954s1.026,0.385,2.037,0.386c0.251,0.001,0.523-0.008,0.817-0.025
							c0.293-0.019,0.609-0.046,0.947-0.084c0.338-0.037,0.698-0.086,1.081-0.145c0.384-0.06,0.789-0.13,1.219-0.211
							c0.265-0.049,0.595-0.092,0.983-0.127s0.837-0.064,1.336-0.088c0.5-0.023,1.052-0.04,1.65-0.051
							c0.598-0.011,1.241-0.016,1.924-0.014c2.048,0.003,4.45,0.059,7.034,0.162s5.35,0.255,8.125,0.448s5.561,0.429,8.183,0.702
							c2.623,0.273,5.082,0.584,7.206,0.928c0.199,0.451,0.424,0.91,0.677,1.378c0.252,0.468,0.532,0.944,0.841,1.428
							c0.31,0.484,0.647,0.978,1.016,1.478c0.368,0.502,0.767,1.012,1.197,1.529c0,0,1.378,0.699,3.433,1.958
							c2.056,1.26,4.792,3.082,7.504,5.328c2.718,2.251,5.414,4.929,7.38,7.896c1.972,2.975,3.211,6.242,3.002,9.66
							c0.957,3.573,4.082,8.957,9.446,15.246c5.396,6.326,13.063,13.576,23.071,20.819c10.072,7.289,22.513,14.567,37.361,20.867
							c14.926,6.332,32.252,11.66,51.965,14.99c5.015,0.986,10.707,1.875,16.921,2.658c6.216,0.783,12.953,1.459,20.052,2.02
							c7.1,0.56,14.562,1.003,22.225,1.32c7.664,0.317,15.528,0.509,23.436,0.564c-4.244,2.211-8.795,4.561-13.349,6.876
							c-4.563,2.319-9.129,4.604-13.387,6.677c-4.267,2.077-8.224,3.94-11.558,5.412c-3.338,1.474-6.05,2.553-7.818,3.06
							c-2.139,0.611-4.215,1.19-6.268,1.715c-2.055,0.525-4.087,0.996-6.139,1.391c-2.053,0.396-4.124,0.714-6.256,0.936
							c-2.133,0.221-4.325,0.344-6.619,0.348c-0.972,0.002-1.962-0.019-2.973-0.062s-2.043-0.108-3.1-0.199
							s-2.138-0.206-3.246-0.348s-2.244-0.311-3.411-0.507c-3.919-0.658-7.268-1.201-10.086-1.646
							c-2.817-0.444-5.104-0.79-6.902-1.053c-1.798-0.264-3.105-0.444-3.964-0.56c-0.859-0.115-1.269-0.164-1.269-0.164
							s-0.596,0.065-1.362,0.192c-0.767,0.126-1.704,0.313-2.39,0.555c-0.685,0.241-1.117,0.537-0.871,0.881
							c0.246,0.345,1.171,0.738,3.198,1.175c2.029,0.437,4.177,0.825,6.258,1.164s4.096,0.627,5.855,0.86
							c1.761,0.233,3.268,0.412,4.334,0.533c1.067,0.12,1.693,0.183,1.693,0.183l-24.79,2.378l-10.974-0.131
							c0,0-0.582,0.152-1.296,0.393c-0.715,0.24-1.563,0.57-2.094,0.923c-0.531,0.354-0.745,0.731-0.191,1.069
							c0.554,0.337,1.875,0.635,4.415,0.827c0.436,0.034,0.931,0.062,1.48,0.085s1.154,0.043,1.806,0.057
							c0.652,0.015,1.353,0.024,2.095,0.031c0.742,0.006,1.526,0.008,2.347,0.006c3.962-0.007,8.767-0.098,13.744-0.229
							c4.976-0.132,10.123-0.305,14.775-0.478c4.649-0.172,8.804-0.343,11.794-0.471c2.99-0.129,4.819-0.214,4.819-0.214
							l-21.176,9.114c0,0-0.289,0.136-0.74,0.39c-0.452,0.254-1.066,0.626-1.715,1.099c-0.649,0.473-1.335,1.047-1.928,1.702
							c-0.594,0.655-1.096,1.395-1.378,2.198c-0.182,0.52-0.449,1.026-0.728,1.494s-0.568,0.897-0.793,1.262
							c-0.226,0.363-0.386,0.663-0.407,0.871c-0.021,0.208,0.098,0.324,0.432,0.324c0.183-0.001,0.43-0.036,0.752-0.111
							c0.323-0.074,0.723-0.188,1.211-0.346s1.064-0.358,1.742-0.607c0.678-0.248,1.455-0.545,2.346-0.893
							c2.518-0.983,5.602-2.09,8.89-3.217c3.284-1.125,6.772-2.27,10.104-3.332c3.329-1.061,6.504-2.037,9.167-2.83
							c2.661-0.791,4.813-1.398,6.1-1.719c0.592-0.146,1.176-0.276,1.777-0.39s1.221-0.21,1.884-0.288
							c0.662-0.078,1.367-0.139,2.142-0.18c0.773-0.041,1.616-0.063,2.552-0.064c1.099-0.002,2.327,0.023,3.726,0.079
							s2.968,0.142,4.749,0.259c1.78,0.116,3.772,0.266,6.018,0.447c2.246,0.182,4.744,0.397,7.536,0.648
							c5.175,0.465,9.056,0.813,11.968,1.074c2.911,0.262,4.853,0.436,6.147,0.552c1.294,0.116,1.941,0.175,2.265,0.203
							c0.324,0.029,0.324,0.029,0.324,0.029s1.078-0.093,2.38-0.302c1.301-0.209,2.824-0.535,3.715-1s1.148-1.069-0.08-1.837
							c-1.228-0.768-3.938-1.697-8.985-2.813c-3.827-0.645-7.93-1.133-11.932-1.5c-4.001-0.369-7.902-0.617-11.325-0.786
							c-3.423-0.168-6.368-0.256-8.458-0.302s-3.324-0.049-3.324-0.049s2.934-1.283,7.678-3.377
							c4.733-2.088,11.262-4.979,18.466-8.201c7.181-3.212,15.026-6.75,22.439-10.152c7.388-3.391,14.347-6.646,19.799-9.313
							c3.425-0.088,6.83-0.203,10.202-0.347c3.37-0.144,6.708-0.314,9.999-0.516c3.289-0.2,6.532-0.43,9.716-0.689
							c3.183-0.26,6.305-0.549,9.355-0.869c-2.322,2.416-5.815,6.033-9.831,10.136c-4.032,4.119-8.594,8.73-13.021,13.102
							c-4.446,4.391-8.755,8.536-12.245,11.688c-3.501,3.161-6.171,5.316-7.321,5.707c-0.389,0.559-0.92,1.171-1.649,1.776
							c-0.73,0.606-1.659,1.205-2.843,1.734c-1.184,0.53-2.621,0.99-4.368,1.32c-1.749,0.33-3.806,0.527-6.228,0.533
							c-0.591,0.001-1.203-0.01-1.838-0.032c-0.634-0.022-1.291-0.058-1.972-0.106c-0.68-0.049-1.383-0.11-2.11-0.186
							c-0.728-0.076-1.479-0.166-2.255-0.271c-2.308-0.352-5.216-0.796-8.359-1.264c-3.143-0.468-6.521-0.959-9.768-1.406
							c-3.247-0.446-6.363-0.85-8.987-1.14c-2.623-0.29-4.753-0.468-6.025-0.466c-0.118,0.001-0.229,0.003-0.332,0.006
							c-0.104,0.004-0.198,0.008-0.286,0.015c-0.087,0.007-0.167,0.015-0.237,0.025c-0.071,0.01-0.135,0.021-0.188,0.035
							c-0.645,0.16-1.535,0.378-2.397,0.643c-0.861,0.265-1.695,0.575-2.224,0.92c-0.528,0.346-0.751,0.726-0.392,1.128
							c0.358,0.402,1.3,0.828,3.101,1.264c1.789,0.207,4.152,0.462,6.742,0.752c2.59,0.291,5.407,0.618,8.102,0.972
							c2.695,0.354,5.269,0.732,7.371,1.127s3.733,0.805,4.545,1.22c-0.032,0.182-1.691,0.375-4.367,0.563
							c-2.678,0.188-6.374,0.37-10.481,0.531c-4.108,0.161-8.629,0.3-12.951,0.401c-4.323,0.1-8.448,0.162-11.766,0.17
							c-0.7,0.001-1.364,0-1.986-0.004s-1.202-0.01-1.735-0.019c-0.532-0.009-1.018-0.021-1.45-0.035
							c-0.432-0.015-0.811-0.032-1.131-0.054c-0.266-0.017-0.532-0.031-0.802-0.044s-0.541-0.022-0.814-0.031
							c-0.273-0.008-0.548-0.015-0.824-0.019c-0.275-0.004-0.553-0.005-0.831-0.004c-1.648,0.003-3.329,0.084-4.962,0.244
							c-1.634,0.161-3.221,0.4-4.683,0.723c-1.462,0.32-2.8,0.724-3.935,1.209c-1.135,0.486-2.066,1.057-2.717,1.711
							c0.985,0.184,2.262,0.322,3.622,0.426s2.805,0.173,4.125,0.22c1.321,0.047,2.519,0.07,3.387,0.082
							c0.867,0.013,1.404,0.013,1.404,0.013s0.736-0.013,1.999-0.033c1.262-0.02,3.05-0.046,5.151-0.073
							c2.103-0.027,4.519-0.056,7.038-0.078s5.142-0.04,7.658-0.046c1.437-0.003,2.839-0.002,4.168,0.003
							c1.328,0.006,2.582,0.017,3.722,0.033c1.141,0.017,2.168,0.039,3.042,0.068c0.874,0.03,1.596,0.067,2.126,0.112
							c0.241,0.021,0.527,0.038,0.853,0.053c0.326,0.015,0.691,0.026,1.093,0.035c0.4,0.009,0.837,0.015,1.306,0.019
							c0.468,0.003,0.968,0.005,1.495,0.003c2.646-0.006,5.986-0.068,9.508-0.16c3.521-0.092,7.222-0.211,10.592-0.33
							c3.368-0.119,6.406-0.237,8.602-0.325c2.194-0.089,3.548-0.147,3.548-0.147s0.169,0.043,0.374,0.139
							c0.204,0.096,0.442,0.246,0.581,0.462c0.138,0.216,0.175,0.498-0.024,0.856c-0.2,0.359-0.636,0.796-1.444,1.322
							s-2.226,1.343-3.916,2.325c-1.693,0.984-3.662,2.136-5.573,3.33c-1.914,1.196-3.77,2.435-5.233,3.592
							c-1.464,1.159-2.535,2.235-2.874,3.104c-0.343,0.87-0.611,1.653-0.822,2.339s-0.363,1.272-0.474,1.752
							c-0.11,0.479-0.178,0.849-0.217,1.099c-0.04,0.251-0.053,0.381-0.053,0.381s-0.016,0.163,0.006,0.408
							c0.021,0.244,0.082,0.57,0.233,0.896c0.152,0.326,0.396,0.652,0.788,0.896s0.93,0.406,1.668,0.404
							c0.345-0.001,0.732-0.038,1.169-0.118s0.922-0.204,1.462-0.381c0.539-0.176,1.134-0.404,1.787-0.692
							c0.654-0.288,1.367-0.637,2.146-1.054c1.791-1.41,3.149-2.572,4.18-3.521c1.028-0.947,1.729-1.683,2.208-2.242
							c0.478-0.56,0.731-0.943,0.867-1.188c0.135-0.243,0.151-0.348,0.151-0.348s0.681-0.52,1.767-1.318
							c1.085-0.799,2.573-1.877,4.19-2.995c1.614-1.116,3.357-2.273,4.953-3.233c1.595-0.959,3.044-1.722,4.076-2.052
							c1.034-0.33,1.782-0.833,2.763-1.414c0.979-0.581,2.19-1.239,4.149-1.881c1.957-0.641,4.66-1.265,8.625-1.776
							c3.963-0.512,9.186-0.911,16.185-1.105c2.439-0.113,4.747-0.286,6.837-0.481c2.089-0.196,3.959-0.414,5.523-0.619
							c1.565-0.204,2.825-0.395,3.693-0.533c0.869-0.14,1.346-0.228,1.346-0.228s0.321-0.28,0.638-0.7
							c0.315-0.42,0.626-0.979,0.605-1.537c-0.021-0.558-0.373-1.115-1.382-1.531c-1.008-0.416-2.673-0.69-5.321-0.686
							c-0.217,0.001-0.44,0.003-0.672,0.007c-0.23,0.005-0.468,0.011-0.713,0.02c-0.244,0.008-0.496,0.019-0.755,0.031
							s-0.525,0.026-0.799,0.044c-2.354,0.22-4.909,0.434-7.421,0.629c-2.512,0.196-4.979,0.376-7.151,0.527
							s-4.052,0.275-5.388,0.361s-2.128,0.135-2.128,0.135s-0.105,0.019-0.287,0.047c-0.183,0.028-0.44,0.065-0.747,0.104
							c-0.306,0.037-0.66,0.075-1.032,0.104c-0.373,0.029-0.765,0.049-1.146,0.049c-0.511,0.001-1.003-0.031-1.408-0.119
							c-0.404-0.087-0.722-0.23-0.881-0.451c-0.16-0.222-0.163-0.521,0.061-0.92c0.224-0.398,0.673-0.897,1.418-1.518
							c1.3-1.085,4.852-4.58,9.431-9.197c4.559-4.596,10.126-10.293,15.505-15.827c5.351-5.504,10.515-10.849,14.331-14.806
							c3.802-3.942,6.275-6.519,6.275-6.519l-3.032-0.454c0.537-0.079,1.071-0.16,1.603-0.241s1.059-0.164,1.583-0.247
							c0.523-0.083,1.044-0.168,1.561-0.253c0.517-0.086,1.029-0.172,1.537-0.26c0.035,0.319,0.122,0.622,0.262,0.903
							c0.141,0.282,0.334,0.543,0.584,0.781c0.25,0.237,0.556,0.451,0.921,0.639c0.365,0.188,0.789,0.35,1.275,0.482
							c5.122,0.375,12.722,1.34,21.594,2.66c8.88,1.321,19.039,3.002,29.269,4.808c10.242,1.809,20.558,3.744,29.729,5.572
							c9.182,1.831,17.214,3.555,22.871,4.936c1.56,0.276,3.022,0.513,4.392,0.712c1.37,0.198,2.647,0.359,3.836,0.486
							s2.288,0.219,3.303,0.278c1.015,0.061,1.944,0.088,2.793,0.087c3.622-0.005,5.77-0.541,6.76-1.393
							c0.99-0.85,0.824-2.015-0.176-3.279c-0.999-1.262-2.832-2.623-5.179-3.869c-2.345-1.244-5.203-2.375-8.261-3.177
							c-3.771-0.989-8.635-2.987-13.802-5.425c-5.156-2.433-10.611-5.301-15.585-8.039c-4.962-2.732-9.447-5.337-12.688-7.256
							c-3.235-1.916-5.234-3.151-5.234-3.151s-0.011-0.021-0.034-0.06c-0.024-0.04-0.061-0.098-0.113-0.172
							c-0.052-0.074-0.119-0.164-0.204-0.268c-0.086-0.104-0.188-0.221-0.312-0.349c0.326-0.007,0.654-0.014,0.984-0.02
							c0.331-0.005,0.664-0.011,1-0.015s0.675-0.008,1.016-0.01c0.342-0.002,0.686-0.004,1.033-0.004
							c0.169,0.006,0.347,0.01,0.532,0.015c0.186,0.004,0.379,0.007,0.581,0.01c0.201,0.003,0.411,0.005,0.628,0.006
							s0.441,0.002,0.674,0.002c2.816-0.002,6.715-0.101,11.231-0.253c4.516-0.152,9.648-0.357,14.935-0.571
							c5.284-0.214,10.722-0.437,15.852-0.623c5.128-0.187,9.948-0.337,14.002-0.407c-0.001-0.014,0-0.028,0.002-0.043
							c0.002-0.016,0.006-0.03,0.01-0.046c0.005-0.016,0.011-0.032,0.017-0.048c0.007-0.018,0.014-0.034,0.021-0.051
							c0.199,0.058,0.398,0.115,0.597,0.174c0.198,0.058,0.397,0.115,0.597,0.173c0.2,0.058,0.4,0.116,0.603,0.175
							s0.405,0.117,0.612,0.176c8.766,1.17,22.912,3.718,39.701,6.976c16.827,3.265,36.325,7.247,55.721,11.271
							c19.451,4.036,38.801,8.114,55.223,11.55c16.461,3.443,29.965,6.237,37.649,7.687c1.563,0.295,3.013,0.547,4.356,0.758
							c1.346,0.211,2.584,0.383,3.725,0.517c1.14,0.134,2.181,0.23,3.129,0.294c0.947,0.063,1.803,0.093,2.571,0.092
							c3.017-0.005,4.703-0.479,5.459-1.225c0.756-0.745,0.58-1.762-0.126-2.854c-0.707-1.09-1.944-2.255-3.315-3.299
							c-1.369-1.042-2.874-1.964-4.117-2.57c4.551-0.539,6.593-1.323,6.982-2.238c0.39-0.914-0.87-1.958-2.924-3.02
							c-2.053-1.061-4.899-2.139-7.687-3.121c-2.786-0.982-5.514-1.869-7.335-2.548c-5.71-2.41-20.671-6.181-40.021-10.514
							c-19.29-4.319-42.929-9.194-66.122-13.84c-23.117-4.63-45.8-9.034-63.332-12.44c-17.49-3.398-29.879-5.809-32.486-6.466
							c-0.872-0.445-1.879-0.925-2.986-1.429c-1.106-0.504-2.313-1.032-3.587-1.572c-1.272-0.541-2.612-1.094-3.985-1.649
							c-1.371-0.556-2.776-1.113-4.18-1.662c-1.567-0.742-3.219-1.499-4.958-2.268c-1.737-0.769-3.563-1.552-5.48-2.347
							c-1.917-0.796-3.925-1.604-6.028-2.428c-2.103-0.822-4.3-1.658-6.598-2.508c-4.153-2.381-8.473-4.526-12.961-6.509
							c-4.48-1.979-9.131-3.798-13.952-5.529c-4.814-1.729-9.8-3.369-14.958-4.996c-5.151-1.625-10.474-3.235-15.969-4.902
							c-6.575-2.562-12.384-4.845-17.57-6.883c-5.178-2.034-9.739-3.823-13.826-5.399c-4.082-1.574-7.694-2.936-10.978-4.115
							c-3.28-1.18-6.233-2.178-9.002-3.024c-3.563-1.044-9.978-2.92-18.139-5.249c-8.146-2.323-18.027-5.097-28.551-7.941
							c-10.5-2.838-21.639-5.747-32.339-8.356c-10.679-2.604-20.928-4.91-29.686-6.551c-2.448-0.545-4.594-1.117-6.577-1.712
							c-1.981-0.594-3.801-1.212-5.597-1.85c-1.795-0.637-3.566-1.293-5.453-1.966c-1.886-0.673-3.888-1.362-6.144-2.063
							c-0.596-0.349-2.866-0.967-6.44-1.7c-3.571-0.732-8.445-1.579-14.251-2.384c-5.803-0.805-12.538-1.568-19.839-2.135
							C154.457,321.497,146.588,321.126,138.512,321.106"/>
					</g>
				</g>
			</g>
		</g>
		<path id="patted_15_" fill="#9E705C" d="M301.501,403.786c0,0-58.021,57.567-70.146,64.083
			c-12.124,6.518-22.104,11.021-37.057,6.035c-14.96-4.982-21.238-6.485-21.238-6.485s-9.283,1.965-1.561,5.257
			c7.722,3.291,17.327,5.185,17.327,5.185l-24.055,4.362l-10.563-0.283c0,0-9.1,4.519,0.62,5.99
			c9.723,1.475,50.966-2.089,50.966-2.089l-21.038,16.843c0,0-4.592,3.999-5.885,9.901c-1.293,5.904-5.691,10.872,4.215,3.688
			c9.905-7.183,28.646-17.998,33.709-20.349c5.062-2.348,9.457-2.475,29.209,1.047c19.752,3.523,19.752,3.523,19.752,3.523
			s16.78-2.693-2.233-11.077c-14.513-4.852-33.577-5.023-33.577-5.023s76.765-62.101,81.653-70.31
			c4.893-8.207,4.631-7.34,4.631-7.34l-14.646-4.407L301.501,403.786z"/>
		<path id="patteg_16_" fill="#B58368" d="M342.272,415.108c0,0-44.531,79.364-50.098,82.85c-2.197,5.146-7.96,12.771-22.96,8.74
			c-9.544-2.872-29.946-9.052-32.477-7.878c-2.533,1.174-8.966,4.059-2.198,7.306c6.789,1.56,22.349,4.538,25.299,7.602
			c-0.247,1.622-37.134,3.584-44.126,2.688c-6.991-0.895-15.871,1.271-19.005,6.864c3.705,1.356,11.917,1.404,11.917,1.404
			s27.836-0.817,33.362,0.118c5.525,0.937,35.514-1.414,35.514-1.414s2.53,1.247-0.804,5.081
			c-3.331,3.839-16.462,16.103-18.107,22.382c-1.649,6.28-2.05,10.029-2.05,10.029s-1.097,10.077,8.744,0.695
			c7.4-10.113,7.824-13.131,7.824-13.131s11.289-14.998,15.396-17.39c4.107-2.393,4.18-9.874,31.192-11.183
			c9.438-0.792,16.985-3.359,16.985-3.359s6.533-9.649-7.494-8.063c-9.193,1.59-21.499,2.968-21.499,2.968s-9.093,2.992-3.538-5.016
			s50.771-87.489,50.771-87.489L342.272,415.108z"/>
		<path id="autre_aile_1_" fill="#31383F" d="M426.734,390.396c0,0,28.204,38.778,42.306,46.416
			c14.102,7.64,21.741,30.556-9.4,19.391c-21.153-10.577-78.734-31.729-98.713-34.667c-10.577-5.876,12.924-41.129,38.19-43.479
			C424.385,375.705,426.734,390.396,426.734,390.396z"/>
		<path id="queue_17_" fill="#384049" d="M453.172,309.896c0,0,22.327,17.039,30.553,26.44
			c9.99,5.288,172.159,66.986,192.139,85.788c6.464,5.288,26.442,17.039,7.64,21.153c5.287,5.873,14.69,27.028-14.103,15.864
			c-28.792-11.165-143.954-63.781-178.036-73.022c-36.43-22.165-45.83-29.218-48.769-53.309
			C439.657,308.722,453.172,309.896,453.172,309.896z"/>
		<path id="corps_13_" fill="#64676D" d="M59.497,218.24c0,0,22.329,23.504,21.153,51.708
			c3.525,29.377,41.132,117.514,117.516,143.368c44.655,17.627,146.307,19.39,185.087-9.401
			c10.576-5.288,22.327-15.277,47.005-15.277c8.813,0.587,41.132-2.938,58.759-3.526c0.588-4.112,23.505-29.969-40.543-81.088
			c-64.047-51.12-87.551-74.617-104.589-85.783c-14.103-8.817-73.448-45.835-109.29-59.938c-9.987-4.698-14.909-10.352-24.09-16.449
			c-4.114-5.289-91.661-38.78-137.492,13.514C63.609,167.12,45.982,184.162,59.497,218.24z"/>
		<path id="aile_21_" fill="#384049" d="M308.044,211.778c0,0-61.695-27.62-121.628-9.992c-21.741,6.466-62.283,43.481,8.813,75.798
			c20.564,8.229,100.476,31.14,100.476,31.14s137.492,38.191,165.108,56.994c13.515,6.465,85.198,36.432,45.83,7.64
			c-9.399-7.64-47.006-45.832-54.645-64.634c-16.451-23.503-37.619-36.247-62.282-52.296
			C370.914,245.267,356.813,229.408,308.044,211.778z"/>
		<path id="bec_19_" fill="#4A3838" d="M63.022,210.308c0,0,20.271-15.864,38.34-15.424c-18.949-8.373-56.259-13.954-85.052-0.009
			c-5.729,3.975-6.61,10.584,2.203,7.06C24.243,199.73,59.938,203.697,63.022,210.308z"/>
		<path id="tache_oeil_bas_1_" fill="#F4F4F4" d="M114.143,191.21c0,0,3.451-4.552,10.576-4.11
			c6.536-0.369,10.576-3.526,10.576-3.526s10.578-1.177,4.701,7.637s-15.864,17.042-25.854,9.402
			C108.707,197.161,114.143,191.21,114.143,191.21z"/>
		<path id="tache_oeil_haut_1_" fill="#F4F4F4" d="M95.339,163.596c0,0-2.35,4.187-8.52,5.949
			c-8.105,2.819-17.914,20.678-2.864,17.627c16.306-3.306,17.554-24.458,52.001-28.276c21.667-13.516,44.214-2.792,47.52-10.283
			c0.882-2.864-20.04-8.226-28.413-8.226S110.102,142.222,95.339,163.596z"/>
		<path id="tache_aile_haute_1_" fill="#F4F4F4" d="M192.291,230.286c0,0,15.57,0.585,23.503-2.059
			c14.102,0,17.038,3.639,21.152,2.114c4.114-1.525,10.282,1.706,0,7.581c-10.282,5.877-44.947,10.872-63.751,3.232
			C166.731,238.804,176.721,228.816,192.291,230.286z"/>
		<path id="tache_aile_bas_1_" fill="#F4F4F4" d="M243.703,256.58c0,0,6.831-0.221,9.695-3.086c2.864-2.863,7.932-1.762,9.474-1.102
			c1.543,0.661,5.509-2.203,6.61-3.524c1.103-1.323,21.594-5.51,31.949,3.854c1.764,1.212,5.729,1.212,9.255,0.771
			s5.288,5.949-7.932,6.831c-3.525,0.881-5.509,0-12.78,4.406c-4.407,3.526-13.882,4.628-22.034,1.102
			c-4.407-1.102-9.254-0.313-14.542,2.158c-3.085,2.249-9.695-3.7-9.695-3.7C234.448,264.512,229.16,258.563,243.703,256.58z"/>
		<radialGradient id="oeil_32_" cx="119.1362" cy="171.2363" r="17.5289" gradientUnits="userSpaceOnUse">
			<stop  offset="0" style="stop-color:#FFFFFF"/>
			<stop  offset="0.1386" style="stop-color:#D5D4D3"/>
			<stop  offset="0.2079" style="stop-color:#494340"/>
			<stop  offset="0.3663" style="stop-color:#28201D"/>
			<stop  offset="1" style="stop-color:#231B18"/>
		</radialGradient>
		<circle id="oeil_15_" fill="url(#oeil_32_)" cx="122.515" cy="174.612" r="11.017"/>
	</g>
</g>
<g id="saltator_gros_bec">
</g>
<g id="soporophile_rouge-gorge">
</g>
<g id="sucrier_à_ventre_jaune">
</g>
<g id="vachet_luisant">
</g>
<g id="vireo_a_moustaches">
</g>
<g id="merle_quiscale">
</g>
<g id="paruline_jaune">
</g>
<g id="tyran_gris">
</g>
<g id="sporophile_cici">
</g>
<g id="tourterelle_à_queue_carree">
</g>
<g id="colobri_huppé">
</g>
<g id="cécerelle_d_x27_amerique">
</g>
<g id="heron_vert">
</g>
<g id="pic_de_la_guadeloupe">
</g>
<g id="héron_garde-boeufs">
</g>
<g id="photos">
</g>
<g id="solitaire_siffleur">
</g>
<g id="tyran_janeau">
</g>
<g id="colibri_fallevert">
</g>
<g id="colombe_a_queue_noire">
</g>
</svg>
