<?xml version="1.0" encoding="utf-8"?>
<!-- Generator: Adobe Illustrator 16.0.0, SVG Export Plug-In . SVG Version: 6.00 Build 0)  -->
<!DOCTYPE svg PUBLIC "-//W3C//DTD SVG 1.1//EN" "http://www.w3.org/Graphics/SVG/1.1/DTD/svg11.dtd">
<svg version="1.1" xmlns="http://www.w3.org/2000/svg" xmlns:xlink="http://www.w3.org/1999/xlink" x="0px" y="0px" width="732px"
	 height="692px" viewBox="0 0 732 692" enable-background="new 0 0 732 692" xml:space="preserve">
<g id="Calque_1" display="none">
	<rect x="120.41" y="-36.879" display="inline" fill="none" width="415.59" height="37.879"/>
	<text transform="matrix(1 0 0 1 120.4102 -12.0293)" display="inline" font-family="'MyriadPro-Regular'" font-size="35">Sucrier à ventre jaune</text>
	<rect x="208.41" y="639.182" display="inline" fill="none" width="415.59" height="37.879"/>
	<text transform="matrix(1 0 0 1 208.4102 664.0313)" display="inline" font-family="'MyriadPro-Regular'" font-size="35">Sporophile cici</text>
</g>
<g id="colombe_à_croissant">
</g>
<g id="colombe_rouviolette">
</g>
<g id="colibri_madere">
</g>
<g id="colibri_à_tête_bleue">
</g>
<g id="elenie_siffleuse">
</g>
<g id="grive_à_pieds_jaunes">
</g>
<g id="merle_à_lunette">
</g>
<g id="moucherolle_gobemouche">
</g>
<g id="moqueur_corossol">
</g>
<g id="moqueur_grivotte">
</g>
<g id="trembleur_brun">
</g>
<g id="trembleur_gris">
</g>
<g id="paruline_cafeite">
</g>
<g id="saltator_gros_bec">
</g>
<g id="soporophile_rouge-gorge">
</g>
<g id="sucrier_à_ventre_jaune">
</g>
<g id="vachet_luisant">
</g>
<g id="vireo_a_moustaches">
</g>
<g id="merle_quiscale">
</g>
<g id="paruline_jaune">
</g>
<g id="tyran_gris">
</g>
<g id="sporophile_cici">
	<g>
		<g opacity="0.3">
			<g>
				<g enable-background="new    ">
					<defs>
						<polygon id="SVGID_53_" enable-background="new    " points="7.982,583.935 8.188,319.241 645.719,321.024 724.018,581.68 
													"/>
					</defs>
					<clipPath id="SVGID_2_">
						<use xlink:href="#SVGID_53_"  overflow="visible"/>
					</clipPath>
					<g clip-path="url(#SVGID_2_)">
						<path fill="#959595" d="M171.619,463.417c-0.006,0.004-0.012,0.007-0.017,0.011c-0.005,0.005-0.012,0.009-0.017,0.012
							c-0.006,0.004-0.011,0.008-0.016,0.012s-0.01,0.007-0.016,0.011c0.006-0.004,0.011-0.007,0.016-0.011
							c0.006-0.004,0.012-0.008,0.017-0.012c0.005-0.003,0.011-0.007,0.017-0.012C171.608,463.424,171.613,463.421,171.619,463.417
							 M524.391,320.686c-1.551-0.005-3.072,0.008-4.563,0.035c-1.489,0.027-2.946,0.072-4.365,0.133
							c-1.42,0.061-2.802,0.138-4.141,0.229c-1.34,0.095-2.638,0.204-3.887,0.331c-13.076,1.998-23.997,4.398-33.082,6.926
							c-9.111,2.534-16.377,5.197-22.112,7.713c-5.751,2.521-9.959,4.892-12.938,6.83c-2.988,1.941-4.74,3.448-5.573,4.234
							c-0.36,0.004-0.689,0.014-0.983,0.026c-0.293,0.015-0.555,0.033-0.78,0.056c-0.226,0.023-0.416,0.052-0.569,0.083
							c-0.154,0.032-0.271,0.068-0.351,0.109c-1.217,0.645-3.776,1.955-7.129,3.595c-3.357,1.643-7.514,3.617-11.912,5.585
							c-4.407,1.972-9.06,3.937-13.393,5.553c-4.341,1.619-8.359,2.886-11.485,3.457c-1.23,0.225-2.856,0.657-4.799,1.257
							c-1.942,0.601-4.203,1.37-6.702,2.269c-2.501,0.899-5.243,1.929-8.146,3.048c-2.907,1.12-5.978,2.331-9.131,3.592
							c-15.286,3.884-33.678,10.716-52.917,18.932c-19.404,8.286-39.725,18.001-58.56,27.515
							c-19.015,9.603-36.507,18.993-49.92,26.448c-13.511,7.51-22.831,13.026-25.333,14.776c0.223-0.149,0.582-0.313,1.061-0.492
							c0.479-0.177,1.08-0.367,1.787-0.569c0.708-0.203,1.522-0.416,2.43-0.639c0.907-0.225,1.907-0.456,2.986-0.696
							c-3.679,1.625-8.487,3.729-13.883,6.035c-5.409,2.312-11.412,4.828-17.459,7.274c-6.062,2.451-12.168,4.83-17.762,6.855
							c-5.604,2.03-10.688,3.704-14.691,4.738c-7.156,2.474-17.127,6.442-28.134,11.08c-11.057,4.66-23.173,10.001-34.528,15.179
							c-11.41,5.204-22.047,10.242-30.034,14.244c-8.017,4.017-13.348,6.981-14.093,8.012c-0.309,0.321-0.641,0.729-0.89,1.158
							c-0.25,0.432-0.415,0.884-0.391,1.298s0.24,0.787,0.755,1.057c0.514,0.269,1.326,0.434,2.544,0.432
							c0.747-0.002,1.647-0.066,2.724-0.209c1.078-0.143,2.332-0.363,3.788-0.676c1.454-0.313,3.11-0.719,4.992-1.229
							c1.881-0.513,3.985-1.131,6.341-1.87c2.119-0.812,7.02-2.949,13.93-6.031c6.891-3.072,15.767-7.077,25.863-11.635
							c10.053-4.537,21.303-9.614,33.003-14.861c11.64-5.22,23.72-10.604,35.515-15.79c-4.198,2.005-8.158,3.895-11.815,5.632
							c-3.663,1.741-7.021,3.327-10.013,4.722c-2.996,1.397-5.621,2.601-7.811,3.573c-2.193,0.973-3.949,1.714-5.208,2.185
							c3.104-0.189,8.854-0.548,15.835-1.001c6.975-0.451,15.176-0.997,23.185-1.562c8.003-0.565,15.815-1.15,22.028-1.682
							c6.208-0.53,10.82-1.008,12.433-1.36c4.718-0.169,11.29-0.452,18.649-0.802c7.354-0.351,15.492-0.77,23.349-1.213
							c7.851-0.443,15.422-0.912,21.652-1.362c6.225-0.452,11.113-0.885,13.606-1.258c2.808,0.838,6.096,1.539,9.762,2.118
							c3.668,0.579,7.712,1.037,12.03,1.39c4.317,0.352,8.91,0.598,13.671,0.754c4.761,0.157,9.689,0.226,14.685,0.219
							c2.913-0.003,5.85-0.031,8.785-0.081c2.937-0.05,5.875-0.122,8.794-0.212c2.918-0.091,5.818-0.198,8.679-0.323
							c2.861-0.124,5.683-0.263,8.445-0.413c2.456,4.124,5.081,8.515,7.682,12.842c2.609,4.343,5.194,8.62,7.56,12.497
							c2.372,3.889,4.522,7.37,6.25,10.102c1.731,2.737,3.037,4.718,3.719,5.597c0.533,0.688,0.871,1.254,1.051,1.713
							s0.201,0.812,0.102,1.079c-0.1,0.267-0.321,0.448-0.624,0.563c-0.304,0.114-0.69,0.162-1.12,0.163
							c-0.508,0.001-1.08-0.063-1.65-0.161s-1.141-0.227-1.647-0.357c-0.506-0.13-0.948-0.261-1.265-0.358
							c-0.315-0.098-0.506-0.162-0.506-0.162s-0.916-0.197-2.459-0.534c-1.543-0.338-3.712-0.815-6.218-1.377
							c-2.506-0.561-5.347-1.206-8.235-1.879c-2.887-0.673-5.821-1.373-8.514-2.045c-0.832-0.179-1.609-0.331-2.335-0.458
							s-1.398-0.229-2.025-0.309c-0.626-0.08-1.203-0.138-1.737-0.175c-0.533-0.037-1.021-0.055-1.47-0.054
							c-1.792,0.003-2.923,0.295-3.614,0.729c-0.691,0.436-0.939,1.015-0.965,1.594c-0.024,0.579,0.176,1.158,0.383,1.593
							c0.205,0.434,0.418,0.724,0.418,0.724s0.53,0.188,1.504,0.505s2.39,0.763,4.16,1.279c1.771,0.516,3.895,1.103,6.285,1.701
							s5.048,1.209,7.881,1.771c8.172,1.46,14.187,2.852,18.682,4.152c4.498,1.304,7.474,2.517,9.564,3.617
							c2.092,1.103,3.297,2.093,4.256,2.951s1.67,1.585,2.775,2.156c1.107,0.573,2.563,1.729,4.122,3.144
							c1.561,1.416,3.229,3.09,4.759,4.695c1.531,1.606,2.928,3.145,3.939,4.28c1.013,1.137,1.644,1.871,1.644,1.871
							s-0.017,0.126,0.061,0.438c0.078,0.313,0.249,0.812,0.626,1.56c0.375,0.746,0.957,1.74,1.854,3.045s2.111,2.92,3.755,4.908
							c0.914,0.739,1.753,1.353,2.524,1.855s1.476,0.896,2.117,1.196c0.641,0.301,1.22,0.509,1.742,0.643
							c0.523,0.131,0.988,0.188,1.403,0.188c0.699-0.003,1.254-0.17,1.692-0.421c0.438-0.25,0.761-0.583,0.995-0.916
							c0.235-0.332,0.382-0.665,0.472-0.913c0.088-0.25,0.117-0.415,0.117-0.415s0.03-0.157,0.067-0.46
							c0.036-0.304,0.081-0.754,0.111-1.341c0.031-0.585,0.048-1.309,0.029-2.157c-0.019-0.848-0.072-1.821-0.183-2.91
							c-0.111-1.088-1.016-2.553-2.357-4.182c-1.34-1.628-3.116-3.422-4.975-5.174c-1.856-1.75-3.794-3.459-5.463-4.921
							c-1.665-1.46-3.063-2.675-3.842-3.44c-0.777-0.764-1.145-1.356-1.26-1.815s0.022-0.784,0.257-1.016
							c0.234-0.229,0.565-0.364,0.838-0.441s0.485-0.097,0.485-0.097s2.27,0.443,5.782,1.115c3.514,0.674,8.274,1.575,13.259,2.492
							c4.987,0.917,10.197,1.85,14.602,2.58c4.406,0.73,8.007,1.26,9.77,1.371c1.765,0.111,5.225,0.554,9.423,1.154
							c4.198,0.602,9.137,1.363,13.857,2.11c4.722,0.749,9.225,1.483,12.549,2.03c3.324,0.549,5.469,0.909,5.469,0.909
							s0.578,0.086,1.525,0.214c0.949,0.13,2.267,0.302,3.744,0.473c1.479,0.172,3.117,0.246,4.706,0.375
							c1.589,0.127,3.129,0.109,4.41,0.109c0.063,0,0.126,0,0.188,0c0.063,0,0.123,0.094,0.184,0.094
							c0.061-0.002,0.121,0.044,0.18,0.043c0.059-0.002,0.117,0.02,0.175,0.018c-0.648-1.041-1.793-1.999-3.279-2.883
							c-1.486-0.882-3.316-1.67-5.341-2.357c-2.024-0.686-4.244-1.264-6.511-1.72c-2.266-0.454-4.579-0.782-6.791-0.969
							c-2.213-0.186-6.691-0.837-12.159-1.723c-5.467-0.887-11.921-2.01-18.092-3.142c-6.166-1.131-12.049-2.271-16.383-3.194
							c-4.332-0.923-7.116-1.63-7.091-1.896c0.407-0.129,0.95-0.236,1.603-0.326c0.653-0.089,1.419-0.161,2.274-0.217
							c0.856-0.055,1.802-0.094,2.817-0.121c1.016-0.026,2.102-0.04,3.234-0.043c1.919-0.004,3.976,0.021,6.067,0.066
							c2.093,0.045,4.22,0.107,6.277,0.176c2.06,0.069,4.049,0.145,5.868,0.214c1.818,0.069,3.466,0.132,4.838,0.177
							c2.275-0.195,3.531-0.531,4.09-0.943c0.559-0.411,0.42-0.898-0.09-1.4c-0.511-0.501-1.394-1.015-2.323-1.479
							c-0.931-0.464-1.909-0.878-2.614-1.18c-0.678-0.289-2.718-0.504-5.6-0.662c-2.882-0.16-6.605-0.264-10.648-0.33
							c-4.045-0.065-8.409-0.145-12.572-0.158c-4.165-0.01-8.128-0.045-11.367-0.045c-0.139,0-0.273,0-0.41,0
							c-0.135,0-0.269,0-0.4,0c-0.133,0-0.265,0-0.394,0c-0.13,0-0.257,0-0.384,0c-4.85,0-8.808-0.428-12.036-1.07
							c-3.227-0.641-5.724-1.483-7.656-2.457c-1.931-0.973-3.299-2.036-4.266-3.094c-0.968-1.058-1.537-2.091-1.874-2.993
							c-0.871-0.475-2.351-2.136-4.235-4.622c-1.881-2.482-4.164-5.778-6.649-9.527c-2.476-3.738-5.15-7.92-7.826-12.188
							c-2.666-4.253-5.332-8.59-7.809-12.66c2.768-0.211,5.407-0.428,7.891-0.648c2.482-0.22,4.81-0.443,6.951-0.663
							c2.141-0.22,4.097-0.438,5.838-0.65c1.74-0.211,3.266-0.416,4.548-0.609c1.215-0.092,2.421-0.186,3.621-0.279
							c1.198-0.095,2.391-0.19,3.576-0.287c1.186-0.098,2.363-0.196,3.534-0.296c1.174-0.1,2.339-0.201,3.498-0.303
							c5.822,4.226,12.843,9.172,20.115,14.224c7.303,5.074,14.86,10.257,21.705,14.921c6.871,4.681,13.019,8.837,17.455,11.826
							c4.446,2.996,7.164,4.814,7.164,4.814s-1.342-0.195-3.643-0.489c-2.302-0.294-5.562-0.685-9.396-1.074
							s-8.243-0.777-12.847-1.065c-4.603-0.289-9.4-0.479-14.012-0.469c-0.197,0-0.395,0.001-0.592,0.002s-0.395,0.003-0.591,0.005
							c-0.196,0.003-0.392,0.005-0.587,0.008c-0.196,0.002-0.392,0.005-0.586,0.008c-6.324,0.427-9.832,1.046-11.536,1.735
							c-1.705,0.689-1.604,1.448-0.71,2.152c0.895,0.707,2.581,1.359,4.046,1.835c1.464,0.477,2.706,0.776,2.706,0.776
							s0,0,0.391,0.023c0.393,0.021,1.175,0.068,2.741,0.158c1.565,0.092,3.914,0.229,7.438,0.434s8.222,0.479,14.485,0.842
							c6.269,0.365,11.303,0.694,15.419,1.021c4.116,0.326,7.313,0.649,9.903,1.003c2.592,0.354,4.575,0.737,6.266,1.183
							c1.691,0.446,3.089,0.954,4.506,1.559s3.763,1.701,6.651,3.107c2.891,1.406,6.327,3.123,9.92,4.966
							c3.599,1.845,7.354,3.817,10.876,5.732c3.526,1.916,6.818,3.772,9.482,5.385c1.017,0.614,1.896,1.135,2.657,1.569
							c0.761,0.434,1.403,0.782,1.94,1.055c0.539,0.271,0.973,0.465,1.321,0.592c0.347,0.127,0.608,0.186,0.799,0.185
							c0.308-0.001,0.432-0.156,0.439-0.429c0.009-0.271-0.097-0.659-0.246-1.124c-0.15-0.466-0.345-1.008-0.512-1.588
							c-0.169-0.58-0.308-1.198-0.354-1.817c-0.068-1.002-0.42-1.965-0.907-2.847c-0.487-0.881-1.109-1.681-1.724-2.354
							s-1.218-1.224-1.669-1.604c-0.451-0.38-0.749-0.591-0.749-0.591l-22.081-14.515c0,0,3.113,0.617,7.976,1.558
							c4.865,0.939,11.485,2.204,18.495,3.496c7.014,1.295,14.419,2.616,20.841,3.671c6.427,1.055,11.866,1.841,14.942,2.062
							c0.281,0.021,0.55,0.037,0.808,0.053c0.258,0.015,0.504,0.026,0.739,0.036c0.235,0.009,0.46,0.017,0.674,0.021
							c0.213,0.004,0.417,0.006,0.609,0.006c1.925-0.005,2.837-0.243,3.124-0.598c0.287-0.355-0.053-0.825-0.632-1.296
							c-0.58-0.47-1.398-0.938-2.072-1.29s-1.204-0.586-1.204-0.586l-13.076-1.787l-28.604-7.193c0,0,0.345,0.017,0.966,0.042
							c0.622,0.024,1.522,0.058,2.632,0.09c1.108,0.032,2.427,0.064,3.89,0.087c1.46,0.023,3.063,0.037,4.742,0.034
							c0.819-0.002,1.655-0.009,2.501-0.02c0.846-0.012,1.702-0.028,2.56-0.051c0.858-0.021,1.719-0.05,2.573-0.086
							s1.703-0.078,2.538-0.13c2.547-0.156,3.771-0.459,4.174-0.822c0.402-0.364-0.014-0.791-0.748-1.198
							c-0.733-0.407-1.785-0.793-2.653-1.078c-0.867-0.286-1.553-0.47-1.553-0.47s-0.201-0.006-0.616-0.016
							c-0.417-0.008-1.047-0.02-1.904-0.031c-0.858-0.012-1.944-0.021-3.273-0.029c-1.326-0.007-2.896-0.01-4.72-0.007
							c-1.055,0.003-2.196,0.007-3.424,0.015c-1.229,0.008-2.546,0.019-3.953,0.033c-1.408,0.014-2.906,0.031-4.498,0.054
							c-1.592,0.021-3.275,0.049-5.057,0.08c-0.148,0.003-0.297,0.005-0.443,0.008c-0.147,0.002-0.293,0.003-0.439,0.005
							c-0.146,0.001-0.293,0.002-0.438,0.003c-0.146,0.001-0.289,0.002-0.434,0.002c-4.592,0.009-8.719-0.271-12.527-0.79
							c-3.807-0.52-7.295-1.278-10.61-2.229c-3.313-0.95-6.453-2.09-9.568-3.373c-3.112-1.28-6.2-2.702-9.409-4.216
							c-2.066-0.976-5.201-2.925-9.012-5.515c-3.804-2.585-8.277-5.807-13.034-9.333c-4.745-3.517-9.77-7.337-14.694-11.134
							c-4.91-3.785-9.722-7.549-14.063-10.973c54.978-5.906,93.921-15.238,121.262-25.967
							c27.049-10.611,42.702-22.575,51.438-33.961c8.643-11.264,10.526-21.98,10.003-30.33c-0.521-8.286-3.414-14.277-4.457-16.199
							c0.352-0.037,0.667-0.078,0.942-0.125c0.277-0.046,0.514-0.097,0.71-0.152c0.195-0.055,0.351-0.114,0.464-0.178
							c0.112-0.063,0.183-0.132,0.208-0.204c0.441-2.16,1.707-4.231,3.441-6.189c1.731-1.954,3.932-3.796,6.249-5.499
							c2.313-1.701,4.742-3.267,6.939-4.67c2.193-1.403,4.156-2.646,5.539-3.704c0.031-0.04,0.063-0.081,0.094-0.122
							c0.032-0.042,0.063-0.084,0.093-0.127c0.03-0.042,0.061-0.086,0.091-0.13c0.031-0.045,0.06-0.09,0.089-0.135
							c3.868-0.182,7.822-0.472,11.741-0.804c3.917-0.334,7.796-0.711,11.518-1.07c3.721-0.358,7.282-0.699,10.563-0.959
							c3.28-0.262,6.282-0.439,8.883-0.478c-1.704-1.842-5.396-3.979-9.987-6.152c-4.582-2.169-10.06-4.374-15.354-6.357
							c-5.285-1.981-10.388-3.741-14.238-5.029c-3.846-1.285-6.442-2.099-6.722-2.185c-0.306-0.338-0.624-0.664-0.956-0.976
							c-0.332-0.313-0.677-0.61-1.036-0.894c-0.357-0.282-0.729-0.551-1.115-0.801c-0.385-0.251-0.784-0.485-1.196-0.701
							c-4.544-2.247-10.223-4.25-16.609-5.99c-6.378-1.738-13.467-3.215-20.843-4.414c-7.37-1.198-15.032-2.119-22.562-2.746
							C538.65,321.036,531.246,320.704,524.391,320.686"/>
					</g>
				</g>
			</g>
		</g>
		<path id="patted_29_" fill="#5E5E66" d="M407.908,406.616c0,0,46.793,86.389,58.478,98.074
			c11.688,11.686,21.601,20.382,40.52,19.825c18.921-0.556,26.66-0.079,26.66-0.079s9.993,5.485-0.022,6.599
			c-10.019,1.112-21.716-0.025-21.716-0.025l26.147,13.343l12.241,3.331c0,0,8.9,8.345-2.787,6.675
			c-11.687-1.671-57.871-20.036-57.871-20.036l18.361,26.644c0,0,3.896,6.187,3.341,13.421c-0.559,7.234,2.78,14.469-6.123,2.782
			c-8.904-11.685-26.711-30.604-31.718-35.058c-5.008-4.451-10.018-6.12-33.944-8.902c-23.93-2.781-23.93-2.781-23.93-2.781
			s-18.362-8.904,6.399-11.966c18.364-0.556,40.344,5.843,40.344,5.843s-66.774-98.215-69.556-109.342
			c-2.784-11.131-2.784-10.296-2.784-10.296h18.362L407.908,406.616z"/>
		<path id="patteg_30_" fill="#7E7C8A" d="M357.115,405.779c0,0,23.742,106.656,28.936,112.59
			c0.744,6.681,4.733,17.437,23.375,17.994c11.964,0,37.561-0.048,40.064,2.177c2.505,2.228,8.904,7.768,0,9.16
			c-8.346-0.557-27.266-2.515-31.718-0.012c-0.277,1.947,41.456,16.965,49.804,18.357c8.348,1.392,17.808,6.954,19.477,14.465
			c-4.731,0.279-14.189-2.507-14.189-2.507s-31.719-10.571-38.398-11.406c-6.676-0.834-40.342-13.913-40.342-13.913
			s-3.339,0.558-0.834,6.122c2.501,5.564,13.355,24.205,13.077,31.996s-1.116,12.242-1.116,12.242s-2.225,11.965-10.293-2.226
			c-5.009-14.189-4.452-17.808-4.452-17.808s-7.791-21.145-11.685-25.316c-3.896-4.176-1.391-12.802-31.996-23.651
			c-10.574-4.173-18.363-9.739-18.363-9.739s-4.175-13.354,11.406-6.677c10.018,5.009,23.688,10.852,23.688,10.852
			s9.421,6.583,5.804-4.545c-3.616-11.129-28.101-118.155-28.101-118.155H357.115z"/>
		<path id="corps_27_" fill="#8E8B82" d="M627.814,217.71c0,0,32.576,184.125-236.53,222.366c-19.829,5.666-96.312,16.288-123.222,0
			c-9.915,2.832-57.362,7.424-75.775,8.671c-6.373,2.66-59.559,9.034-71.598,10.45c17.705-12.748,137.458-130.304,174.991-144.469
			c37.532-14.163,26.91-59.486,39.658-67.275c12.747-7.79,72.233-58.778,85.688-63.735c13.455-4.958,42.311-32.533,51.667-38.949
			C478.359,139.103,628.862,171.394,627.814,217.71z"/>
		<path id="tete_13_" fill="#7A756D" d="M472.725,144.769c0,0,19.828-38.242,84.981-58.779
			c29.743-6.374,81.438,4.958,101.977,29.389c9.206,11.685,6.374,47.094,0,59.134c-7.081,9.206-26.974,30.01-31.223,48.423
			C625.627,232.141,467.06,203.546,472.725,144.769z"/>
		<path id="bec_33_" fill="#7E7C8A" d="M663.224,122.814c0,0,38.24,26.91,43.198,43.198c-21.245,0.708-70.109,19.828-79.315-4.249
			C644.256,140.518,659.683,146.184,663.224,122.814z"/>
		<radialGradient id="oeil_5_" cx="602.3193" cy="129.4238" r="24.0454" gradientUnits="userSpaceOnUse">
			<stop  offset="0" style="stop-color:#FFFFFF"/>
			<stop  offset="0.1386" style="stop-color:#D5D4D3"/>
			<stop  offset="0.2079" style="stop-color:#494340"/>
			<stop  offset="0.3663" style="stop-color:#28201D"/>
			<stop  offset="1" style="stop-color:#231B18"/>
		</radialGradient>
		<ellipse id="oeil_24_" fill="url(#oeil_5_)" cx="600.194" cy="132.729" rx="16.288" ry="14.202"/>
		<path id="queue_29_" fill="#605E58" d="M206.214,373.506c0,0-50.987,44.377-71.762,54.765
			c-28.327,18.885-101.033,83.093-103.865,90.646c-1.89,3.78-4.722,14.164,18.885,0c14.222-10.413,159.913-140.802,186.353-152.134
			C238.656,354.509,219.656,362.074,206.214,373.506z"/>
		<path id="aile_32_" fill="#565038" d="M402.615,200.005c0,0,114.724-18.412,102.686,45.323
			c-19.12,51.697-134.554,108.352-254.234,116.85c-12.747,3.541-57.363,17.704-60.904,22.66
			C200.785,370.676,341.712,219.125,402.615,200.005z"/>
	</g>
</g>
<g id="tourterelle_à_queue_carree">
</g>
<g id="colobri_huppé">
</g>
<g id="cécerelle_d_x27_amerique">
</g>
<g id="heron_vert">
</g>
<g id="pic_de_la_guadeloupe">
</g>
<g id="héron_garde-boeufs">
</g>
</svg>
