<?xml version="1.0" encoding="utf-8"?>
<!-- Generator: Adobe Illustrator 16.0.0, SVG Export Plug-In . SVG Version: 6.00 Build 0)  -->
<!DOCTYPE svg PUBLIC "-//W3C//DTD SVG 1.1//EN" "http://www.w3.org/Graphics/SVG/1.1/DTD/svg11.dtd">
<svg version="1.1" xmlns="http://www.w3.org/2000/svg" xmlns:xlink="http://www.w3.org/1999/xlink" x="0px" y="0px" width="732px"
	 height="692px" viewBox="0 0 732 692" enable-background="new 0 0 732 692" xml:space="preserve">
<g id="Calque_1" display="none">
	<rect x="215" y="655.121" display="inline" fill="none" width="415.59" height="37.879"/>
	<text transform="matrix(1 0 0 1 215 679.9707)" display="inline" font-family="'MyriadPro-Regular'" font-size="35">Saltator gros-bec</text>
</g>
<g id="colombe_à_croissant">
</g>
<g id="colombe_rouviolette">
</g>
<g id="colibri_madere">
</g>
<g id="colibri_à_tête_bleue">
</g>
<g id="elenie_siffleuse">
</g>
<g id="grive_à_pieds_jaunes">
</g>
<g id="merle_à_lunette">
</g>
<g id="moucherolle_gobemouche">
</g>
<g id="moqueur_corossol">
</g>
<g id="moqueur_grivotte">
</g>
<g id="trembleur_brun">
</g>
<g id="trembleur_gris">
</g>
<g id="paruline_cafeite">
</g>
<g id="saltator_gros_bec">
	<g>
		<g opacity="0.3">
			<g>
				<g enable-background="new    ">
					<defs>
						<polygon id="SVGID_37_" enable-background="new    " points="12.063,589.445 10.833,288.907 633.621,290.843 721.167,586.933 
													"/>
					</defs>
					<clipPath id="SVGID_2_">
						<use xlink:href="#SVGID_37_"  overflow="visible"/>
					</clipPath>
					<g clip-path="url(#SVGID_2_)">
						<path fill="#959595" d="M540.483,290.553c-1.645-0.005-3.283,0.008-4.911,0.041c-1.628,0.031-3.244,0.081-4.843,0.148
							c-1.599,0.068-3.181,0.153-4.738,0.257c-1.56,0.104-3.094,0.224-4.6,0.36c-6.842,0.687-14.144,2.455-21.358,4.873
							c-7.235,2.425-14.391,5.506-20.908,8.806c-6.54,3.312-12.439,6.846-17.124,10.157c-4.698,3.322-8.171,6.419-9.832,8.836
							c-1.665,2.424-5.151,5.497-9.456,8.749c-4.317,3.265-9.459,6.711-14.405,9.86c-4.962,3.16-9.723,6.021-13.25,8.093
							c-3.532,2.077-5.82,3.36-5.82,3.36c-3.909,1.828-8.152,3.889-12.573,6.104c-4.43,2.222-9.04,4.597-13.671,7.049
							c-4.644,2.457-9.308,4.992-13.836,7.522c-4.538,2.536-8.938,5.069-13.035,7.513c-7.38,2.947-16.422,7.537-25.991,12.866
							c-9.618,5.358-19.781,11.473-29.312,17.418c-9.585,5.979-18.527,11.785-25.604,16.462c-7.107,4.696-12.318,8.242-14.388,9.664
							c-3.182,1.797-7.895,5.194-13.188,9.29c-5.315,4.11-11.223,8.933-16.75,13.546c-5.553,4.635-10.721,9.056-14.509,12.326
							c-3.799,3.28-6.202,5.396-6.202,5.396c-0.351,0.239-0.69,0.476-1.023,0.708c-0.332,0.232-0.655,0.463-0.969,0.689
							c-0.314,0.226-0.621,0.448-0.918,0.668c-0.298,0.22-0.587,0.437-0.87,0.649c-8.064,2.627-22.183,8.803-39.183,16.834
							c-17.13,8.093-37.243,18.098-57.044,28.261c-19.989,10.261-39.661,20.687-55.529,29.424
							c-15.996,8.809-28.074,15.876-32.624,19.278c-3.032,2.594-5.277,4.747-6.863,6.518c-1.588,1.772-2.513,3.159-2.902,4.222
							c-0.391,1.063-0.244,1.799,0.309,2.267c0.554,0.469,1.515,0.672,2.754,0.667c1.58-0.006,3.611-0.347,5.824-0.896
							c2.212-0.55,4.604-1.308,6.909-2.146c2.301-0.838,4.515-1.758,6.374-2.632c1.856-0.874,3.357-1.702,4.237-2.36
							c-0.872,0.77-1.511,1.412-1.951,1.941c-0.44,0.529-0.68,0.948-0.753,1.271c-0.073,0.321,0.021,0.546,0.249,0.69
							c0.227,0.144,0.589,0.207,1.051,0.205c0.75-0.002,1.766-0.177,2.903-0.453s2.397-0.655,3.638-1.07
							c1.24-0.414,2.461-0.863,3.521-1.279s1.96-0.801,2.558-1.083c-0.216,0.43-0.309,0.794-0.298,1.097
							c0.011,0.304,0.124,0.548,0.322,0.738s0.482,0.327,0.83,0.414c0.349,0.089,0.764,0.129,1.227,0.128
							c0.668-0.002,1.436-0.093,2.245-0.253c0.809-0.158,1.659-0.387,2.493-0.665c0.833-0.279,1.652-0.609,2.396-0.97
							c0.744-0.361,1.415-0.754,1.956-1.16c-0.16,0.889-0.139,1.625,0.025,2.229c0.164,0.604,0.47,1.075,0.883,1.436
							c0.413,0.359,0.933,0.607,1.522,0.767c0.589,0.157,1.248,0.224,1.94,0.222c0.756-0.003,1.552-0.089,2.338-0.229
							c0.787-0.142,1.565-0.338,2.288-0.561c0.722-0.224,1.388-0.476,1.949-0.727c0.562-0.252,1.02-0.503,1.327-0.728
							c0.717-0.522,3.26-2.038,6.718-4.078c3.452-2.035,7.812-4.591,12.173-7.195c4.353-2.599,8.708-5.247,12.173-7.484
							c3.457-2.231,6.029-4.054,6.83-5.011c-0.211,0.261-0.314,0.487-0.318,0.682c-0.003,0.194,0.089,0.355,0.268,0.483
							c0.178,0.13,0.439,0.226,0.773,0.288c0.333,0.063,0.738,0.095,1.201,0.093c0.785-0.002,1.737-0.097,2.794-0.282
							c1.055-0.188,2.214-0.465,3.411-0.832c1.197-0.367,2.434-0.825,3.645-1.372c1.211-0.545,2.396-1.181,3.494-1.901
							c-0.23,0.191-0.602,0.574-1.084,1.114c-0.484,0.542-1.08,1.243-1.76,2.071c-0.68,0.829-1.445,1.786-2.266,2.84
							c-0.822,1.055-1.699,2.206-2.604,3.423c-0.976,1.552-1.672,2.845-2.128,3.913c-0.457,1.068-0.672,1.911-0.688,2.559
							s0.169,1.1,0.512,1.391c0.343,0.29,0.847,0.419,1.467,0.416c1.021-0.003,2.361-0.357,3.838-0.917
							c1.474-0.561,3.085-1.325,4.649-2.149c1.563-0.822,3.077-1.705,4.364-2.502c1.287-0.795,2.345-1.504,2.995-1.984
							c0.344,0.405,0.721,0.74,1.124,1.018c0.403,0.277,0.832,0.497,1.277,0.665s0.908,0.284,1.38,0.358
							c0.473,0.075,0.955,0.107,1.438,0.105c0.967-0.002,1.939-0.141,2.854-0.347c0.913-0.206,1.77-0.479,2.506-0.751
							c0.735-0.272,1.349-0.545,1.779-0.748c0.431-0.205,0.678-0.34,0.678-0.34s2.944-1.671,7.57-4.309
							c4.615-2.629,10.895-6.218,17.584-10.063c6.667-3.832,13.736-7.919,19.979-11.575c6.223-3.644,11.628-6.861,15.007-8.98
							c2.346-1.471,5.714-3.605,9.672-6.125c3.949-2.514,8.482-5.408,13.172-8.408c4.677-2.992,9.511-6.087,14.078-9.016
							c4.556-2.92,8.849-5.675,12.467-7.997c-1.539,2.343-2.981,4.581-4.263,6.63c-1.282,2.052-2.402,3.913-3.293,5.5
							c-0.891,1.588-1.55,2.899-1.909,3.849c-0.36,0.95-0.421,1.537-0.114,1.676c2.314-2.021,4.671-3.996,7.062-5.93
							c2.385-1.93,4.805-3.816,7.251-5.662c2.442-1.843,4.912-3.644,7.402-5.402c2.484-1.758,4.989-3.473,7.508-5.148
							c0.464-0.003,0.924-0.008,1.377-0.014c0.453-0.007,0.901-0.015,1.343-0.024s0.876-0.021,1.305-0.033
							c0.428-0.014,0.848-0.027,1.262-0.044c2.268-0.039,4.632-0.18,7.056-0.403c2.423-0.223,4.905-0.528,7.412-0.897
							c2.505-0.369,5.034-0.804,7.553-1.282c2.518-0.479,5.024-1.003,7.484-1.555c-0.093,0.205-0.175,0.391-0.244,0.554
							c-0.069,0.164-0.126,0.306-0.172,0.422c-0.046,0.115-0.081,0.206-0.104,0.268s-0.033,0.094-0.033,0.094
							s-0.612,0.87-1.689,2.287c-1.079,1.42-2.628,3.392-4.499,5.593c-1.875,2.206-4.074,4.644-6.451,6.988
							c-2.382,2.351-4.942,4.607-7.53,6.441c-2.023,1.763-3.422,3.229-4.299,4.44c-0.878,1.21-1.234,2.162-1.174,2.894
							c0.06,0.732,0.536,1.242,1.323,1.568c0.786,0.326,1.884,0.469,3.183,0.466c1.767-0.004,3.908-0.276,6.155-0.721
							c2.246-0.444,4.597-1.06,6.783-1.748c2.186-0.689,4.206-1.454,5.795-2.195c1.589-0.74,2.747-1.459,3.209-2.059
							c1.827-1.688,6.136-4.614,11.56-8.048c5.407-3.424,11.919-7.348,18.191-11.056c6.249-3.695,12.264-7.176,16.723-9.737
							c4.45-2.556,7.359-4.201,7.42-4.235c0.041-0.026,0.089-0.067,0.139-0.118c0.05-0.05,0.103-0.106,0.149-0.16
							c0.047-0.053,0.088-0.104,0.118-0.141c0.029-0.037,0.048-0.061,0.048-0.061c0.141-0.3,0.249-0.626,0.324-0.972
							c0.074-0.346,0.116-0.712,0.121-1.09c0.006-0.379-0.026-0.771-0.098-1.169c-0.07-0.398-0.183-0.803-0.336-1.209
							c5.205-0.558,10.606-1.021,15.779-1.402c5.171-0.381,10.113-0.68,14.404-0.908c4.291-0.229,7.932-0.388,10.5-0.49
							c2.567-0.102,4.063-0.146,4.063-0.146c1.178-0.132,2.38-0.271,3.604-0.417c1.223-0.145,2.467-0.297,3.731-0.454
							c1.266-0.158,2.549-0.321,3.852-0.491c1.302-0.17,2.622-0.346,3.959-0.525c2.022,3.162,4.095,6.392,6.099,9.499
							c2.01,3.115,3.951,6.108,5.706,8.787c1.759,2.686,3.329,5.053,4.593,6.912c1.265,1.863,2.22,3.213,2.745,3.857
							c0.454,0.557,0.749,1.014,0.916,1.386c0.168,0.372,0.206,0.659,0.145,0.876c-0.061,0.219-0.221,0.366-0.451,0.46
							c-0.229,0.094-0.53,0.134-0.871,0.134c-0.429,0.001-0.921-0.06-1.419-0.151s-1-0.215-1.449-0.338
							c-0.45-0.122-0.845-0.245-1.129-0.337c-0.283-0.092-0.454-0.153-0.454-0.153s-0.776-0.164-2.083-0.446
							c-1.307-0.281-3.144-0.682-5.267-1.151c-2.122-0.469-4.53-1.008-6.979-1.571c-2.446-0.562-4.935-1.148-7.218-1.709
							c-0.705-0.15-1.364-0.277-1.979-0.384s-1.185-0.191-1.715-0.259c-0.528-0.067-1.017-0.115-1.467-0.146
							c-0.449-0.031-0.861-0.046-1.238-0.045c-1.506,0.002-2.447,0.244-3.014,0.606c-0.566,0.363-0.756,0.847-0.757,1.33
							c-0.001,0.482,0.186,0.967,0.373,1.329c0.188,0.362,0.376,0.604,0.376,0.604s0.451,0.158,1.279,0.423
							c0.827,0.264,2.031,0.637,3.534,1.067c1.503,0.432,3.307,0.922,5.333,1.423c2.027,0.499,4.277,1.009,6.675,1.479
							c6.912,1.222,12.008,2.385,15.823,3.473c3.817,1.088,6.353,2.099,8.14,3.018c1.79,0.919,2.83,1.743,3.66,2.459
							s1.449,1.319,2.396,1.795c0.947,0.478,2.199,1.44,3.549,2.619s2.796,2.572,4.124,3.908c1.331,1.337,2.543,2.615,3.424,3.561
							c0.882,0.944,1.43,1.556,1.43,1.556s-0.01,0.105,0.064,0.365s0.233,0.675,0.57,1.295c0.338,0.62,0.853,1.447,1.644,2.529
							c0.79,1.085,1.854,2.425,3.288,4.074c0.785,0.614,1.504,1.123,2.164,1.542c0.66,0.417,1.26,0.744,1.806,0.993
							c0.545,0.25,1.035,0.424,1.477,0.533c0.439,0.11,0.831,0.158,1.178,0.157c0.586-0.002,1.046-0.141,1.407-0.349
							c0.36-0.207,0.621-0.483,0.81-0.76c0.188-0.275,0.302-0.551,0.37-0.757c0.066-0.207,0.087-0.345,0.087-0.345
							s0.021-0.13,0.043-0.381c0.021-0.252,0.047-0.625,0.058-1.111c0.009-0.486,0.004-1.085-0.033-1.79
							c-0.039-0.704-0.108-1.512-0.229-2.417c-0.123-0.904-0.921-2.12-2.091-3.475c-1.168-1.354-2.707-2.845-4.314-4.303
							c-1.604-1.456-3.277-2.877-4.718-4.094c-1.438-1.216-2.646-2.228-3.321-2.865c-0.676-0.637-1.002-1.131-1.111-1.513
							c-0.109-0.383-0.002-0.653,0.188-0.845c0.191-0.191,0.467-0.304,0.695-0.367c0.227-0.064,0.406-0.081,0.406-0.081
							s1.917,0.371,4.885,0.933c2.969,0.562,6.99,1.314,11.2,2.08c4.211,0.766,8.609,1.543,12.326,2.152
							c3.718,0.609,6.754,1.051,8.236,1.144c1.483,0.094,4.398,0.463,7.938,0.966s7.706,1.139,11.688,1.763
							c3.982,0.624,7.781,1.237,10.584,1.694c2.805,0.457,4.612,0.758,4.612,0.758s0.486,0.072,1.282,0.18s1.903,0.25,3.145,0.395
							c1.24,0.143,2.616,0.453,3.951,0.559c1.335,0.107,2.628,0.342,3.703,0.342c0.055,0,0.108,0,0.162,0s0.105-0.168,0.157-0.17
							c0.053,0,0.104-0.086,0.155-0.087s0.102-0.045,0.15-0.047c-0.565-0.865-1.543-1.694-2.811-2.428
							c-1.266-0.734-2.82-1.405-4.536-1.978c-1.715-0.571-3.592-1.061-5.507-1.439c-1.913-0.379-3.863-0.658-5.726-0.813
							s-5.638-0.698-10.252-1.438c-4.612-0.741-10.06-1.678-15.271-2.623c-5.208-0.943-10.179-1.896-13.842-2.668
							c-3.662-0.772-6.019-1.361-6.003-1.583c0.336-0.105,0.783-0.195,1.324-0.269c0.54-0.073,1.174-0.132,1.883-0.178
							c0.709-0.045,1.494-0.078,2.338-0.1c0.843-0.021,1.745-0.032,2.687-0.034c1.615-0.003,3.35,0.02,5.116,0.059
							c1.765,0.038,3.562,0.093,5.302,0.152c1.739,0.06,3.423,0.124,4.961,0.183c1.538,0.06,2.931,0.112,4.089,0.149
							c1.909-0.161,2.958-0.438,3.419-0.779c0.461-0.34,0.334-0.744-0.106-1.158c-0.439-0.415-1.193-0.84-1.987-1.226
							c-0.794-0.384-1.628-0.729-2.229-0.98c-0.528-0.224-2.027-0.392-4.155-0.518c-2.128-0.127-4.884-0.212-7.926-0.269
							s-6.371-0.086-9.646-0.099c-3.273-0.013-6.491-0.01-9.312-0.006c-0.373,0.001-0.737,0.002-1.096,0.002
							c-0.357,0.001-0.708,0.002-1.049,0.002c-0.341,0.001-0.675,0.002-0.998,0.002c-0.323,0.001-0.638,0.001-0.941,0.003
							c-4.079-0.056-7.417-0.396-10.146-0.924c-2.729-0.526-4.85-1.239-6.5-2.04c-1.648-0.799-2.824-1.687-3.667-2.563
							c-0.841-0.875-1.348-1.738-1.657-2.493c-0.668-0.354-1.776-1.508-3.196-3.24c-1.416-1.729-3.141-4.033-5.043-6.692
							c-1.897-2.653-3.972-5.657-6.092-8.795c-2.115-3.129-4.276-6.392-6.357-9.569c2.709-0.404,5.458-0.824,8.232-1.26
							c2.772-0.436,5.571-0.887,8.383-1.351c2.811-0.464,5.634-0.941,8.456-1.429c2.822-0.488,5.644-0.986,8.453-1.494
							c5.143,3.595,11.062,7.638,17.057,11.688c6.016,4.063,12.108,8.135,17.566,11.762c5.474,3.637,10.305,6.825,13.771,9.105
							c3.474,2.286,5.571,3.658,5.571,3.658s-1.132-0.165-3.073-0.41c-1.942-0.246-4.69-0.573-7.925-0.898
							c-3.233-0.327-6.951-0.868-10.829-1.11c-3.877-0.242-7.917-0.608-11.795-0.608c-0.168,0-0.336,0-0.503,0
							c-0.168,0-0.335,0.217-0.5,0.219c-0.167,0.002-0.333,0.111-0.499,0.113c-0.166,0.003-0.331,0.059-0.496,0.062
							c-5.308,0.354-8.241,0.896-9.655,1.469c-1.414,0.575-1.309,1.222-0.537,1.812c0.771,0.59,2.208,1.14,3.452,1.537
							c1.245,0.398,2.296,0.651,2.296,0.651s0,0.001,0.329,0.021c0.33,0.021,0.99,0.059,2.309,0.135
							c1.319,0.076,3.299,0.192,6.267,0.363c2.968,0.173,6.926,0.402,12.203,0.708c5.275,0.308,9.515,0.585,12.982,0.859
							c3.467,0.275,6.163,0.548,8.349,0.844c2.187,0.297,3.864,0.618,5.296,0.99c1.432,0.374,2.619,0.798,3.823,1.302
							c1.206,0.505,3.204,1.419,5.663,2.592c2.462,1.173,5.388,2.604,8.446,4.142c3.063,1.538,6.26,3.182,9.259,4.775
							c3.003,1.597,5.807,3.144,8.078,4.485c0.865,0.512,1.616,0.946,2.264,1.307c0.647,0.363,1.194,0.652,1.651,0.879
							s0.825,0.389,1.121,0.493c0.293,0.105,0.514,0.154,0.673,0.153c0.259,0,0.358-0.129,0.36-0.355s-0.096-0.549-0.229-0.936
							c-0.136-0.387-0.309-0.837-0.46-1.321c-0.151-0.481-0.281-0.996-0.328-1.511c-0.08-0.833-0.395-1.635-0.823-2.369
							c-0.428-0.733-0.969-1.398-1.499-1.96s-1.051-1.02-1.438-1.336c-0.387-0.317-0.643-0.493-0.643-0.493l-18.865-12.108
							c0,0,2.631,0.516,6.741,1.302c4.111,0.786,9.705,1.844,15.626,2.924c5.924,1.081,12.177,2.186,17.598,3.068
							c5.424,0.882,10.013,1.54,12.606,1.726c0.236,0.017,0.461,0.031,0.678,0.044c0.216,0.012,0.424,0.021,0.621,0.029
							c0.197,0.009,0.386,0.014,0.564,0.019c0.18,0.003,0.351,0.005,0.513,0.005c1.617-0.004,2.38-0.202,2.614-0.497
							c0.233-0.296-0.061-0.688-0.557-1.081c-0.497-0.392-1.194-0.783-1.768-1.077c-0.574-0.293-1.024-0.487-1.024-0.487
							l-11.025-1.497l-24.199-6.015c0,0,0.287,0.015,0.807,0.034c0.518,0.021,1.269,0.048,2.193,0.075
							c0.927,0.027,2.026,0.055,3.246,0.073c1.221,0.019,2.56,0.031,3.962,0.029c0.694-0.001,1.403-0.007,2.122-0.016
							c0.718-0.009,1.444-0.022,2.173-0.041c0.729-0.019,1.459-0.042,2.186-0.073c0.725-0.029,1.445-0.066,2.154-0.109
							c2.141-0.128,3.166-0.379,3.498-0.684c0.333-0.305-0.026-0.661-0.651-1.002c-0.626-0.341-1.519-0.666-2.255-0.905
							s-1.316-0.394-1.316-0.394s-0.179-0.006-0.551-0.015c-0.371-0.009-0.936-0.021-1.704-0.032
							c-0.769-0.01-1.741-0.021-2.931-0.029c-1.189-0.007-2.596-0.011-4.23-0.008c-0.871,0.001-1.807,0.004-2.809,0.01
							s-2.071,0.014-3.209,0.024c-1.138,0.012-2.346,0.025-3.622,0.042c-1.278,0.017-2.626,0.037-4.047,0.062
							c-0.124,0.002-0.249,0.004-0.373,0.005c-0.124,0.002-0.248-0.016-0.371-0.014c-0.125,0-0.248-0.016-0.369-0.016
							c-0.123,0-0.245,0-0.367,0c-3.863,0-7.341-0.212-10.557-0.649c-3.216-0.438-6.168-1.066-8.98-1.865
							c-2.811-0.799-5.479-1.753-8.133-2.827c-2.649-1.074-5.281-2.264-8.019-3.53c-1.701-0.787-4.261-2.335-7.379-4.395
							c-3.111-2.056-6.778-4.618-10.698-7.44c-3.91-2.816-8.073-5.889-12.191-8.973c-4.107-3.075-8.171-6.16-11.9-9.015
							c6.176-1.202,12.184-2.437,17.876-3.681c5.686-1.241,11.057-2.494,15.969-3.734c4.905-1.239,9.354-2.468,13.2-3.662
							c3.842-1.193,7.082-2.354,9.581-3.46c6.245-1.854,12.306-5.12,17.93-9.155c5.603-4.021,10.765-8.8,15.246-13.711
							c4.463-4.887,8.25-9.903,11.138-14.434c2.875-4.513,4.858-8.549,5.729-11.51c1.395-2.259,2.862-6.021,4.051-10.552
							c1.184-4.513,2.087-9.779,2.366-15.081c0.275-5.276-0.066-10.587-1.369-15.23c-1.299-4.625-3.55-8.595-7.1-11.223
							c-1.009-0.955-0.519-2.745,0.822-4.923c1.338-2.174,3.521-4.731,5.906-7.232c2.377-2.495,4.954-4.935,7.092-6.881
							c2.133-1.944,3.832-3.399,4.464-3.937c3.261-0.108,6.616-0.592,9.847-1.271c3.228-0.678,6.33-1.551,9.09-2.442
							c2.757-0.889,5.173-1.797,7.032-2.546c1.856-0.748,3.16-1.338,3.696-1.594c1.258-0.034,2.189-0.098,2.867-0.185
							c0.677-0.086,1.1-0.195,1.341-0.318s0.298-0.262,0.245-0.406c-0.054-0.145-0.219-0.298-0.423-0.45
							c-0.785-0.885-1.858-1.759-3.16-2.615c-1.301-0.857-2.828-1.699-4.524-2.518c-1.693-0.818-3.556-1.615-5.526-2.385
							c-1.969-0.769-4.045-1.51-6.17-2.218c-1.854-0.897-4.66-1.84-7.845-2.754c-3.182-0.915-6.742-1.799-10.108-2.58
							c-3.362-0.78-6.532-1.455-8.938-1.95c-2.406-0.494-4.047-0.81-4.354-0.866c-2.902-1.421-6.31-2.643-10.082-3.678
							c-3.77-1.034-7.905-1.882-12.269-2.555c-4.36-0.672-8.951-1.169-13.63-1.501C549.977,290.736,545.205,290.567,540.483,290.553
							"/>
					</g>
				</g>
			</g>
		</g>
		<g>
			<path id="patted_13_" fill="#825B22" d="M486.218,388.934c0,0,39.82,73.655,49.765,83.6c9.944,9.946,18.38,17.413,34.48,16.938
				c16.101-0.474,22.688-0.031,22.688-0.031s8.504,4.687-0.02,5.634c-8.524,0.947-18.48-0.013-18.48-0.013l22.251,11.356
				l10.417,2.839c0,0,7.573,7.101-2.371,5.68c-9.943-1.422-49.248-17.048-49.248-17.048l15.626,22.673c0,0,3.315,5.265,2.842,11.42
				c-0.475,6.156,2.368,12.313-5.211,2.369c-7.576-9.944-22.728-26.045-26.989-29.833c-4.262-3.787-8.524-5.21-28.885-7.576
				c-20.364-2.368-20.364-2.368-20.364-2.368s-15.624-7.577,5.447-10.182c15.627-0.472,34.33,4.974,34.33,4.974
				s-56.824-83.857-59.19-93.328c-2.369-9.471-2.369-9.037-2.369-9.037h15.627L486.218,388.934z"/>
			<path id="patteg_14_" fill="#A3752A" d="M442.995,389c0,0,20.204,90.512,24.625,95.562c0.632,5.686,4.027,14.712,19.889,15.187
				c10.183,0,31.966-0.101,34.095,1.792c2.132,1.895,7.578,6.579,0,7.763c-7.102-0.473-23.201-2.155-26.991-0.024
				c-0.235,1.658,35.278,14.43,42.383,15.613c7.102,1.182,15.152,5.913,16.572,12.306c-4.025,0.236-12.074-2.134-12.074-2.134
				s-26.991-8.997-32.675-9.708c-5.682-0.711-34.331-11.842-34.331-11.842s-2.84,0.475-0.71,5.21
				c2.132,4.735,11.365,20.598,11.129,27.227c-0.235,6.632-0.949,10.418-0.949,10.418s-1.892,10.182-8.758-1.893
				c-4.264-12.075-3.79-15.154-3.79-15.154s-6.629-17.993-9.942-21.545c-3.315-3.553-1.184-10.891-27.229-20.125
				c-8.997-3.55-15.626-8.286-15.626-8.286s-3.554-11.365,9.707-5.683c8.522,4.261,20.158,9.233,20.158,9.233
				s8.016,5.853,4.938-3.62C450.338,479.827,429.502,389,429.502,389H442.995z"/>
			<path id="aile_gauche" fill="#2B230E" d="M379.402,451.738c0,0-0.346,0.72-0.517,0.919c-0.261,0.263-49.118,49.521-57.022,61.999
				c-3.621,7.699-40.293,25.807-19.92-4.979c10.866-13.582,22.184-39.842,22.184-39.842s4.739-19.467,13.688-21.73
				c8.948-2.263,20.72-18.562,31.584-17.203C380.266,432.261,381.482,445.229,379.402,451.738z"/>
			<path id="corps_11_" fill="#9E9777" d="M662.201,127.462c0,0-29.766,41.989-26.37,50.817
				c11.972,22.656-4.046,91.352-12.224,110.014c-6.771,24.406-36.314,83.849-63.155,98.469
				c-22.411,17.656-94.395,42.104-135.819,50.932c0,0-48.895,2.717-67.909,12.903c-7.47,4.753-39.388,23.768-61.118,24.447
				c-18.335,1.357-50.933-4.075-50.933-4.075s-8.827-12.224,43.462-50.932c52.291-38.709,235.646-223.308,232.93-234.173
				c0-18.901,16.298-42.219,18.336-44.935c2.036-2.716,23.315-23.314,67.569-20.713
				C628.475,122.028,662.201,127.462,662.201,127.462z"/>
			<path id="queue_dessous" fill="#929B73" d="M281.906,470.852c0,0-47.873,55.569-61.455,70.963
				c-13.583,15.395-59.308,62.477-59.308,62.477s-8.602,8.603-12.224,0c-4.074,5.434-24.448,27.617-14.035-1.357
				c3.622-8.602,6.791-15.393,7.697-16.751c-6.791,8.149-16.752,9.961-14.489,4.981c-3.168,6.79-33.5,38.027-36.217,41.65
				c-2.717,3.62-17.658,11.315-8.603-15.395c15.394-17.202,160.051-150.521,160.051-150.521S248.403,475.381,281.906,470.852z"/>
			<path id="queue_15_" fill="#57613F" d="M299.226,425.92c0,0-95.547,76.482-113.659,95.497
				c-8.604,9.96-96.188,94.555-104.103,105.515c-2.264,5.433-13.581,10.865-11.317,2.717c-3.623,3.168-19.015,13.58-10.413-0.454
				c-5.886,8.148-41.199,31.237-15.393-9.96c17.203-23.995,149.854-153.022,180.639-171.132
				c8.149-5.887,24.285-24.447,27.908-40.745c15.393-22.186,79.84-46.632,69.428-14.488
				C311.903,425.014,299.226,425.92,299.226,425.92z"/>
			<path id="dos_1_" fill="#57613F" d="M228.035,443.467c0,0,40.514-64.562,53.989-78.775
				c10.187-12.903,91.451-114.541,115.898-121.672s-93.94,178.602-101.41,185.167c-7.471,6.565-47.084,33.501-49.122,38.708
				C243.995,471.194,191.93,488.851,228.035,443.467z"/>
			<path id="tete_6_" fill="#57613F" d="M446.015,190.199c0,0,42.113-44.176,51.282-65.567c9.167-21.393,51.61-67.231,81.83-73.682
				c26.146-5.093,59.081-0.691,73.342,17.305c4.074,6.791-51.271,44.493-54.667,57.056c-4.074,6.111-75.047,48.959-75.047,48.959
				S466.728,219.74,446.015,190.199z"/>
			<path id="aile_droite" fill="#757338" d="M534.97,178.733c4.926,5.712,21.979,33.235,6.016,57.949
				c-17.656,24.446-111.825,116.347-135.819,135.362c-23.993,19.014-93.489,64.97-145.326,144.419
				c-2.717-2.485,32.145-83.302,37.577-99.146c5.433-15.847,46.063-110.349,61.604-132.341
				c10.945-23.168,89.381-100.925,107.886-111.281C480.94,162.828,512.99,154.04,534.97,178.733z"/>
			<path id="tache_oeil" fill="#EFF4DC" d="M536.005,92.035c0,0,16.638-16.978,26.483-20.033c3.396-2.038,16.979-6.112,33.955-1.697
				c16.979,4.414,31.238,6.45,31.238,6.45s16.299,10.526-10.186,6.792c-10.866-2.038-19.354-4.075-24.447-5.434
				c-5.094-1.358-19.016-1.019-24.787,7.131C560.452,91.016,546.19,98.486,536.005,92.035z"/>
			<radialGradient id="oeil_5_" cx="585.9189" cy="85.583" r="14.9754" gradientUnits="userSpaceOnUse">
				<stop  offset="0" style="stop-color:#FFFFFF"/>
				<stop  offset="0.1386" style="stop-color:#D5D4D3"/>
				<stop  offset="0.2079" style="stop-color:#494340"/>
				<stop  offset="0.3663" style="stop-color:#28201D"/>
				<stop  offset="1" style="stop-color:#231B18"/>
			</radialGradient>
			<circle id="oeil_13_" fill="url(#oeil_5_)" cx="584.324" cy="88.979" r="10.526"/>
			<path id="bec_17_" fill="#A3752A" d="M651.676,67.362c0,0,42.896,18.561,49.009,39.952c0.68,1.358,0.68,2.717-4.753,3.056
				c-2.717,2.378-21.393,17.656-35.653,17.656c-6.45,1.359-35.313,2.378-45.159,9.848c-7.131-4.754-14.602-7.131-18.676-10.188
				c-2.716-2.036-4.414-3.055,3.396-9.167c7.809-6.111,25.125-24.447,30.559-28.183C635.831,86.602,651.676,67.362,651.676,67.362z"
				/>
			<path id="bec_noir" fill="#333333" d="M651.676,67.362c0,0,24.652,10.183,31.453,18.477c0,0-14.701,5.007-22.623,17.231
				c-5.873,9.156-1.444,25.248-1.444,25.248s-33.006,4.181-43.942,9.556c-7.131-4.754-14.602-7.131-18.676-10.188
				c-2.716-2.036-4.414-3.055,3.396-9.167c7.809-6.111,25.125-24.447,30.559-28.183C635.831,86.602,651.676,67.362,651.676,67.362z"
				/>
		</g>
	</g>
</g>
<g id="soporophile_rouge-gorge">
</g>
<g id="sucrier_à_ventre_jaune">
</g>
<g id="vachet_luisant">
</g>
<g id="vireo_a_moustaches">
</g>
<g id="merle_quiscale">
</g>
<g id="paruline_jaune">
</g>
<g id="tyran_gris">
</g>
<g id="sporophile_cici">
</g>
<g id="tourterelle_à_queue_carree">
</g>
<g id="colobri_huppé">
</g>
<g id="cécerelle_d_x27_amerique">
</g>
<g id="heron_vert">
</g>
<g id="pic_de_la_guadeloupe">
</g>
<g id="héron_garde-boeufs">
</g>
</svg>
