<?xml version="1.0" encoding="utf-8"?>
<!-- Generator: Adobe Illustrator 16.0.0, SVG Export Plug-In . SVG Version: 6.00 Build 0)  -->
<!DOCTYPE svg PUBLIC "-//W3C//DTD SVG 1.1//EN" "http://www.w3.org/Graphics/SVG/1.1/DTD/svg11.dtd">
<svg version="1.1" xmlns="http://www.w3.org/2000/svg" xmlns:xlink="http://www.w3.org/1999/xlink" x="0px" y="0px" width="732px"
	 height="692px" viewBox="0 0 732 692" enable-background="new 0 0 732 692" xml:space="preserve">
<g id="Calque_1" display="none">
</g>
<g id="colombe_à_croissant">
</g>
<g id="colombe_rouviolette">
</g>
<g id="colibri_madere">
</g>
<g id="colibri_à_tête_bleue">
</g>
<g id="elenie_siffleuse">
</g>
<g id="grive_à_pieds_jaunes">
</g>
<g id="merle_à_lunette">
</g>
<g id="moucherolle_gobemouche">
</g>
<g id="moqueur_corossol">
</g>
<g id="moqueur_grivotte">
</g>
<g id="trembleur_brun">
</g>
<g id="trembleur_gris">
</g>
<g id="paruline_cafeite">
</g>
<g id="saltator_gros_bec">
</g>
<g id="soporophile_rouge-gorge">
</g>
<g id="sucrier_à_ventre_jaune">
</g>
<g id="vachet_luisant">
</g>
<g id="vireo_a_moustaches">
</g>
<g id="merle_quiscale">
</g>
<g id="paruline_jaune">
</g>
<g id="tyran_gris">
</g>
<g id="sporophile_cici">
</g>
<g id="tourterelle_à_queue_carree">
</g>
<g id="colobri_huppé">
</g>
<g id="cécerelle_d_x27_amerique">
</g>
<g id="heron_vert">
</g>
<g id="pic_de_la_guadeloupe">
</g>
<g id="héron_garde-boeufs">
</g>
<g id="photos">
</g>
<g id="solitaire_siffleur">
</g>
<g id="tyran_janeau">
	<g>
		<g opacity="0.3">
			<g>
				<g enable-background="new    ">
					<defs>
						<polygon id="SVGID_71_" enable-background="new    " points="8.124,581.264 10.263,315.282 643.412,317.147 723.876,578.876 
													"/>
					</defs>
					<clipPath id="SVGID_2_">
						<use xlink:href="#SVGID_71_"  overflow="visible"/>
					</clipPath>
					<g clip-path="url(#SVGID_2_)">
						<path fill="#959595" d="M497.725,316.719c-0.366-0.002-0.733-0.002-1.102,0c-0.367,0-0.736,0.002-1.105,0.006
							c-0.37,0.003-0.74,0.008-1.112,0.013s-0.744,0.012-1.118,0.02c-10.799,0.221-19.664,1.571-26.971,3.569
							c-7.324,2.002-13.092,4.656-17.664,7.475c-4.588,2.827-7.973,5.82-10.517,8.482c-2.551,2.671-4.253,5.008-5.465,6.508
							c-0.748,0.926-1.58,2.104-2.466,3.436c-0.886,1.333-1.826,2.82-2.789,4.363c-0.965,1.545-1.757,3.145-2.734,4.7
							c-0.979,1.558-1.682,3.07-2.682,4.438v-0.005c0,0-0.738,0.699-1.66,1.803c-0.922,1.106-2.322,2.619-3.838,4.248
							c-1.518,1.631-3.298,3.378-5.076,4.943c-1.78,1.569-3.631,2.957-5.332,3.863c-1.705,0.908-11.939,6.674-26.349,15.02
							c-14.538,8.421-33.423,19.515-52.17,30.93c-18.971,11.552-37.818,23.439-51.764,33.141
							c-14.084,9.799-23.106,17.322-22.126,19.938c-2.537,1.261-4.938,2.444-7.185,3.539c-2.249,1.096-4.343,2.101-6.261,3.004
							c-1.92,0.904-3.663,1.705-5.211,2.391c-1.549,0.687-2.901,1.257-4.038,1.698c-6.445,1.905-11.807,3.652-16.212,5.254
							c-4.412,1.604-7.863,3.06-10.484,4.381c-2.624,1.322-4.414,2.51-5.504,3.573c-1.09,1.064-1.478,2.005-1.294,2.835
							c-0.007,0.119-0.003,0.236,0.013,0.352s0.041,0.229,0.078,0.34c0.036,0.111,0.083,0.22,0.14,0.326
							c0.057,0.107,0.123,0.213,0.198,0.314c-7.375,2.152-17.738,5.425-29.957,9.459c-12.271,4.051-26.431,8.876-41.326,14.111
							c-14.977,5.264-30.708,10.946-46.007,16.672c-15.389,5.76-30.339,11.563-43.623,17.02c-8.372,3.439-14.596,6.26-19.075,8.557
							c-4.49,2.302-7.225,4.074-8.619,5.413c-1.397,1.341-1.45,2.246-0.582,2.814c0.869,0.569,2.66,0.8,4.949,0.792
							c1.844-0.006,4.011-0.166,6.278-0.43c2.267-0.263,4.633-0.629,6.878-1.045c2.244-0.416,4.366-0.881,6.146-1.346
							c1.778-0.464,3.215-0.926,4.089-1.334c2.919-1.665,5.627-3.052,8.133-4.196c2.502-1.144,4.803-2.045,6.906-2.739
							c2.104-0.695,4.011-1.182,5.729-1.497c1.719-0.315,3.247-0.458,4.592-0.462c1.923-0.005,3.471,0.271,4.659,0.734
							c1.188,0.462,2.017,1.109,2.499,1.843c0.482,0.734,0.618,1.556,0.42,2.365c-0.197,0.81-0.729,1.608-1.581,2.296
							c-2.338,1.663-4.015,3.055-5.124,4.205c-1.109,1.152-1.649,2.063-1.714,2.766c-0.065,0.703,0.346,1.195,1.138,1.512
							c0.791,0.316,1.964,0.456,3.421,0.451c2.309-0.008,5.331-0.377,8.686-0.978c3.353-0.601,7.036-1.431,10.669-2.359
							c3.631-0.928,7.211-1.954,10.363-2.949c3.15-0.994,5.874-1.956,7.797-2.756c1.854-0.771,8.154-3.16,17.522-6.663
							c9.335-3.49,21.693-8.079,35.7-13.264c13.934-5.156,29.482-10.896,45.305-16.729c15.729-5.799,31.727-11.688,46.699-17.197
							c4.199-0.029,9.533-0.147,15.353-0.353c5.816-0.206,12.116-0.498,18.25-0.877c6.131-0.379,12.097-0.843,17.249-1.393
							c5.15-0.549,9.488-1.183,12.371-1.898c1.977-0.08,3.893-0.147,5.752-0.205s3.663-0.104,5.414-0.142
							c1.75-0.036,3.447-0.064,5.095-0.082c1.647-0.02,3.245-0.029,4.797-0.032c2.914-0.005,5.665,0.017,8.274,0.059
							c2.608,0.042,5.076,0.104,7.425,0.179c2.348,0.076,4.576,0.164,6.706,0.26c2.131,0.096,4.163,0.199,6.119,0.301
							c1.956,0.104,3.836,0.207,5.66,0.303c1.825,0.098,3.596,0.188,5.332,0.264c1.737,0.077,3.441,0.141,5.134,0.184
							c1.692,0.044,3.372,0.067,5.063,0.064c1.485-0.002,2.979-0.025,4.493-0.074c1.515-0.048,3.052-0.121,4.625-0.225
							c1.572-0.103,3.182-0.234,4.842-0.401c1.66-0.166,3.37-0.366,5.146-0.605c0.973-0.028,1.945-0.062,2.918-0.101
							s1.945-0.083,2.918-0.132c0.973-0.05,1.944-0.104,2.916-0.163c0.973-0.059,1.945-0.123,2.917-0.191
							c3.866,3.311,8.021,6.861,12.141,10.373c4.133,3.521,8.231,7.001,11.97,10.156c3.749,3.164,7.133,6,9.821,8.219
							c2.693,2.224,4.686,3.825,5.645,4.517c0.882,0.637,1.456,1.15,1.791,1.563s0.431,0.725,0.353,0.957
							c-0.077,0.232-0.327,0.386-0.682,0.48c-0.354,0.096-0.813,0.133-1.309,0.135c-0.408,0-0.841-0.023-1.261-0.059
							s-0.827-0.084-1.183-0.132s-0.66-0.097-0.876-0.133s-0.343-0.06-0.343-0.06s-0.831-0.066-2.234-0.184
							s-3.378-0.285-5.664-0.486c-2.285-0.202-4.882-0.439-7.529-0.694s-5.346-0.53-7.834-0.807
							c-0.381-0.03-0.746-0.057-1.099-0.079c-0.353-0.021-0.69-0.04-1.016-0.055c-0.325-0.014-0.637-0.023-0.936-0.03
							s-0.585-0.01-0.858-0.009c-2.453,0.006-3.914,0.294-4.726,0.722c-0.812,0.429-0.974,0.998-0.827,1.566
							c0.146,0.569,0.598,1.138,1.015,1.564s0.798,0.71,0.798,0.71s0.516,0.103,1.45,0.266c0.935,0.164,2.286,0.389,3.957,0.635
							c1.672,0.246,3.663,0.513,5.874,0.76c2.212,0.247,4.645,0.474,7.198,0.64c7.29,0.341,12.791,0.861,17.014,1.474
							c4.224,0.613,7.169,1.318,9.348,2.025c2.179,0.709,3.59,1.421,4.742,2.047c1.153,0.626,2.048,1.166,3.194,1.531
							s2.83,1.192,4.711,2.227c1.883,1.035,3.965,2.279,5.904,3.479c1.941,1.2,3.741,2.355,5.057,3.212s2.146,1.412,2.146,1.412
							s0.041,0.109,0.239,0.366c0.198,0.258,0.554,0.664,1.182,1.258c0.629,0.595,1.531,1.377,2.822,2.388
							c1.293,1.011,2.977,2.251,5.168,3.761c0.929,0.462,1.769,0.848,2.528,1.166c0.761,0.318,1.44,0.57,2.048,0.763
							c0.608,0.193,1.145,0.328,1.616,0.415c0.472,0.086,0.88,0.124,1.232,0.123c0.728-0.002,1.218-0.171,1.544-0.423
							c0.326-0.251,0.488-0.585,0.56-0.919s0.052-0.668,0.015-0.918s-0.092-0.416-0.092-0.416s-0.045-0.137-0.146-0.398
							s-0.261-0.648-0.49-1.15c-0.23-0.501-0.53-1.117-0.914-1.837c-0.383-0.72-0.85-1.542-1.413-2.458
							c-0.56-0.914-1.925-2.061-3.715-3.299c-1.789-1.238-4.003-2.568-6.267-3.855c-2.262-1.285-4.572-2.527-6.559-3.588
							c-1.985-1.061-3.646-1.942-4.611-2.508c-0.963-0.566-1.519-1.031-1.812-1.411c-0.292-0.379-0.322-0.673-0.232-0.896
							s0.3-0.374,0.487-0.471c0.188-0.096,0.354-0.137,0.354-0.137s1.699,0.105,4.393,0.265c2.693,0.158,6.378,0.369,10.349,0.579
							c3.97,0.211,8.225,0.42,12.057,0.575c3.831,0.155,7.239,0.257,9.515,0.25c0.211-0.001,0.411-0.002,0.602-0.005
							c0.189-0.002,0.369-0.006,0.538-0.01c0.169-0.005,0.327-0.01,0.474-0.017c0.147-0.007,0.283-0.014,0.407-0.022
							c0.208-0.014,0.445-0.026,0.71-0.037c0.266-0.011,0.559-0.02,0.877-0.027c0.319-0.007,0.663-0.013,1.029-0.017
							c0.367-0.005,0.757-0.007,1.167-0.008c2.493-0.007,5.747,0.038,9.224,0.11s7.178,0.171,10.566,0.27
							c3.389,0.1,6.466,0.2,8.696,0.275c2.229,0.076,3.612,0.127,3.612,0.127s0.068,0.001,0.196,0.003
							c0.127,0.002,0.313-0.116,0.55-0.114s0.521-0.115,0.848-0.115s0.691,0,1.088,0c0.729,0,1.563,0.111,2.441,0.096
							c0.879-0.018,1.804,0.018,2.716-0.022c0.911-0.04,1.81-0.063,2.638-0.135c0.828-0.07,1.584-0.146,2.211-0.257
							c-0.879-0.738-2.059-1.374-3.443-1.924c-1.386-0.551-2.977-1.004-4.68-1.367c-1.701-0.364-3.515-0.634-5.344-0.813
							c-1.828-0.18-3.672-0.266-5.438-0.261c-0.179,0-0.357,0.003-0.533,0.005c-0.178,0.002-0.354,0.006-0.529,0.01
							c-0.174,0.004-0.349,0.01-0.521,0.016s-0.345,0.014-0.516,0.021c-0.134,0.006-0.279,0.012-0.435,0.017
							s-0.321,0.009-0.496,0.013c-0.176,0.003-0.36,0.006-0.556,0.008c-0.194,0.002-0.397,0.003-0.61,0.004
							c-2.722,0.007-6.902-0.097-11.648-0.27s-10.058-0.415-15.041-0.686c-4.982-0.27-9.636-0.566-13.065-0.851
							c-3.43-0.283-5.636-0.553-5.725-0.767c0.736-0.416,2.318-0.812,4.389-1.182c2.069-0.37,4.627-0.715,7.316-1.03
							c2.688-0.315,5.507-0.601,8.102-0.853c2.593-0.252,4.962-0.47,6.75-0.65c1.748-0.42,2.615-0.845,2.887-1.258
							c0.272-0.412-0.049-0.813-0.677-1.184c-0.627-0.371-1.56-0.711-2.511-1.004c-0.95-0.293-1.919-0.537-2.619-0.717
							c-0.074-0.02-0.162-0.035-0.262-0.05c-0.1-0.014-0.213-0.025-0.338-0.034s-0.262-0.016-0.41-0.02s-0.309-0.006-0.479-0.006
							c-1.431,0.004-3.628,0.164-6.26,0.424c-2.632,0.258-5.699,0.615-8.868,1.011c-3.17,0.396-6.441,0.831-9.481,1.245
							c-3.041,0.414-5.849,0.809-8.089,1.122c-0.655,0.08-1.296,0.149-1.922,0.208c-0.625,0.059-1.235,0.107-1.831,0.146
							c-0.595,0.038-1.176,0.066-1.742,0.086c-0.565,0.02-1.117,0.029-1.653,0.031c-2.697,0.006-5.033-0.207-7.056-0.568
							c-2.021-0.362-3.729-0.873-5.169-1.461s-2.61-1.253-3.561-1.924c-0.95-0.672-1.68-1.35-2.234-1.963
							c-0.903-0.307-2.797-1.54-5.369-3.422c-2.567-1.878-5.809-4.4-9.412-7.287c-3.595-2.879-7.548-6.119-11.553-9.443
							c-3.992-3.314-8.036-6.713-11.829-9.923c2.936-0.339,5.862-0.719,8.778-1.138c2.914-0.418,5.817-0.875,8.707-1.367
							c2.887-0.492,5.76-1.02,8.615-1.58c2.854-0.561,5.689-1.154,8.506-1.778c6.711,3.009,14.354,6.362,22.056,9.706
							c7.723,3.352,15.503,6.691,22.454,9.66c6.967,2.975,13.095,5.574,17.485,7.432c4.397,1.859,7.046,2.973,7.046,2.973
							s-0.078-0.002-0.228-0.004c-0.15-0.002-0.372-0.016-0.66-0.02c-0.288-0.002-0.642-0.018-1.055-0.018s-0.887,0-1.414,0
							c-1.597,0-3.688,0.034-6.104,0.088c-2.416,0.053-5.158,0.147-8.055,0.291c-2.898,0.145-5.952,0.347-8.994,0.622
							s-6.071,0.628-8.92,1.077c-4.929,1.063-7.498,1.98-8.577,2.757c-1.08,0.778-0.667,1.415,0.363,1.921
							c1.031,0.504,2.681,0.875,4.072,1.119c1.392,0.245,2.526,0.363,2.526,0.363s0,0,0.326-0.023s0.979-0.072,2.285-0.168
							c1.307-0.096,3.265-0.238,6.201-0.453c2.936-0.215,6.849-0.502,12.063-0.884c2.452-0.18,4.681-0.335,6.713-0.469
							c2.032-0.133,3.868-0.243,5.536-0.331c1.667-0.088,3.167-0.154,4.526-0.199c1.36-0.045,2.579-0.068,3.687-0.07
							c1.246-0.003,2.349,0.02,3.35,0.068c1.001,0.048,1.898,0.121,2.734,0.219c0.835,0.098,1.607,0.219,2.355,0.363
							s1.473,0.313,2.214,0.502c1.398,0.357,3.756,1.033,6.681,1.91c2.927,0.879,6.424,1.961,10.098,3.132
							c3.678,1.173,7.534,2.435,11.176,3.671c3.646,1.238,7.076,2.451,9.896,3.524c1.011,0.385,1.89,0.712,2.65,0.987
							c0.762,0.273,1.404,0.495,1.944,0.668c0.539,0.174,0.976,0.299,1.321,0.38s0.602,0.119,0.782,0.119
							c0.323-0.001,0.403-0.126,0.323-0.345c-0.08-0.22-0.32-0.535-0.64-0.918c-0.319-0.382-0.719-0.832-1.115-1.321
							c-0.396-0.489-0.79-1.018-1.101-1.558c-0.484-0.843-1.178-1.622-1.945-2.316c-0.767-0.695-1.607-1.306-2.388-1.811
							c-0.78-0.504-1.499-0.904-2.023-1.178s-0.854-0.42-0.854-0.42l-23.914-9.914c0,0,2.303,0.153,5.979,0.381
							c3.676,0.229,8.726,0.533,14.219,0.836c5.493,0.304,11.43,0.605,16.879,0.83s10.41,0.37,13.953,0.362
							c0.338-0.001,0.663-0.003,0.975-0.007c0.311-0.004,0.608-0.009,0.892-0.016c0.282-0.007,0.551-0.016,0.804-0.025
							c0.254-0.01,0.491-0.021,0.713-0.033c2.549-0.149,3.828-0.432,4.313-0.772c0.483-0.34,0.173-0.737-0.456-1.115
							c-0.628-0.378-1.575-0.738-2.364-1.003s-1.421-0.436-1.421-0.436l-11.188-0.082l-25.96-2.982c0,0,0.627-0.051,1.691-0.155
							c1.063-0.104,2.565-0.259,4.313-0.466s3.74-0.466,5.789-0.775c2.049-0.311,4.153-0.672,6.123-1.084s2.819-0.801,2.987-1.154
							c0.167-0.354-0.348-0.67-1.108-0.936c-0.76-0.266-1.766-0.48-2.582-0.628c-0.815-0.147-1.441-0.229-1.441-0.229
							s-0.407,0.043-1.259,0.146s-2.146,0.264-3.924,0.5c-1.777,0.237-4.036,0.55-6.813,0.954c-2.779,0.404-6.079,0.9-9.936,1.506
							c-0.995,0.156-1.972,0.29-2.931,0.404c-0.961,0.115-1.904,0.209-2.832,0.283c-0.93,0.075-1.844,0.131-2.744,0.168
							c-0.902,0.037-1.79,0.056-2.667,0.058c-2.526,0.006-4.959-0.131-7.343-0.384c-2.384-0.254-4.718-0.624-7.047-1.084
							c-2.327-0.461-4.649-1.012-7.01-1.629c-2.359-0.615-4.757-1.297-7.236-2.018c-1.934-0.561-4.967-1.734-8.738-3.33
							c-3.767-1.594-8.268-3.608-13.14-5.852c-4.863-2.24-10.097-4.708-15.341-7.216c-5.234-2.503-10.48-5.044-15.385-7.439
							c12.651-3.306,24.764-7.172,36.063-11.354c11.251-4.164,21.692-8.641,31.065-13.193c9.33-4.531,17.601-9.137,24.564-13.586
							c6.934-4.43,12.574-8.707,16.682-12.606c4.137-3.384,7.188-6.062,9.439-8.177c2.247-2.109,3.7-3.659,4.64-4.789
							c0.938-1.129,1.365-1.839,1.558-2.268c0.191-0.428,0.15-0.573,0.15-0.573l-0.172,0.019c5.406-7.505,7.419-14.63,7.414-21.085
							c-0.005-6.415-2.004-12.177-4.656-17c-2.641-4.802-5.933-8.683-8.561-11.36c-2.621-2.671-4.587-4.15-4.587-4.15
							c-2.563-3.107-3.655-6.115-3.743-8.95c-0.088-2.827,0.824-5.483,2.276-7.896c1.449-2.405,3.437-4.568,5.508-6.419
							c2.067-1.847,4.22-3.382,6.005-4.533c4.769-0.36,9.59-0.754,14.189-1.157c4.598-0.404,8.973-0.817,12.854-1.216
							c3.879-0.398,7.265-0.782,9.886-1.128c2.619-0.346,4.475-0.653,5.294-0.897c0.459-0.138,0.925-0.249,1.394-0.339
							c0.469-0.089,0.94-0.157,1.41-0.208s0.938-0.085,1.397-0.105s0.913-0.028,1.354-0.027c0.222,0.001,0.439,0.003,0.654,0.008
							c0.214,0.004,0.425,0.01,0.631,0.017c0.206,0.008,0.408,0.016,0.605,0.024c0.196,0.009,0.389,0.018,0.574,0.027
							c0.185,0.009,0.363,0.018,0.537,0.025c0.172,0.009,0.339,0.017,0.499,0.022c0.16,0.008,0.313,0.013,0.459,0.017
							s0.284,0.007,0.415,0.007c0.264,0,0.495-0.008,0.688-0.028c0.193-0.021,0.35-0.056,0.463-0.107s0.184-0.12,0.206-0.211
							c0.023-0.091-0.002-0.204-0.08-0.343c-3.699-2.277-9.095-4.114-15.455-5.596c-6.352-1.48-13.672-2.607-21.231-3.466
							c-7.557-0.858-15.356-1.448-22.67-1.853s-14.144-0.623-19.758-0.74c-2.55-1.888-6.223-4.021-10.885-6.16
							c-4.653-2.134-10.293-4.272-16.788-6.177c-6.484-1.901-13.826-3.571-21.901-4.771
							C515.968,317.478,507.158,316.746,497.725,316.719"/>
					</g>
				</g>
			</g>
		</g>
		<g>
			<path id="patted_38_" fill="#47494F" d="M474.222,440.688c0,0,56.9,61.83,69.046,69.082c12.146,7.256,22.182,12.357,37.769,7.934
				c15.589-4.42,22.107-5.664,22.107-5.664s9.44,2.453,1.358,5.471c-8.079,3.023-18.031,4.52-18.031,4.52l24.495,5.6l10.856,0.203
				c0,0,9.134,5.063-0.915,6.121c-10.047,1.059-52.227-4.516-52.227-4.516l20.816,18.268c0,0,4.525,4.322,5.579,10.443
				c1.052,6.119,5.338,11.426-4.496,3.59c-9.839-7.836-28.578-19.814-33.668-22.461c-5.086-2.646-9.591-2.982-30.035-0.287
				c-20.443,2.701-20.443,2.701-20.443,2.701s-17.104-3.549,2.808-11.271c15.127-4.305,34.709-3.594,34.709-3.594
				s-75.94-67.379-80.575-76.035c-4.641-8.654-4.424-7.799-4.424-7.799l15.241-3.844L474.222,440.688z"/>
			<path id="patteg_41_" fill="#61646D" d="M431.848,450.459c0,0,42.027,83.557,47.58,87.398c2.016,5.387,7.578,13.48,23.169,10.041
				c9.932-2.506,31.167-7.9,33.709-6.578c2.544,1.326,9.014,4.586,1.915,7.604c-7.045,1.285-23.154,3.621-26.326,6.629
				c0.178,1.674,37.961,5.406,45.179,4.816c7.22-0.594,16.237,2.043,19.194,7.928c-3.87,1.221-12.303,0.887-12.303,0.887
				s-28.542-2.135-34.259-1.428c-5.717,0.703-36.396-3.107-36.396-3.107s-2.657,1.16,0.588,5.258
				c3.243,4.092,16.153,17.295,17.551,23.818c1.4,6.525,1.638,10.393,1.638,10.393s0.657,10.398-9.012,0.311
				c-7.128-10.732-7.42-13.85-7.42-13.85s-10.893-15.922-14.999-18.572c-4.107-2.646-3.833-10.328-31.505-12.93
				c-9.651-1.252-17.283-4.242-17.283-4.242s-6.26-10.211,8.071-7.928c9.362,2.059,21.935,4.049,21.935,4.049
				s9.197,3.492,3.866-4.988c-5.332-8.48-48.055-92.188-48.055-92.188L431.848,450.459z"/>
			<path id="corps_38_" fill="#E8EAD6" d="M640.897,223.582c0,0,35.646,68.549-24.677,142.582
				c-30.162,45.242-115.162,115.164-193.309,119.275c-27.421,6.855-37.931-3.654-87.286,0c-11.882,5.484-47.528,8.227-63.065,8.227
				c5.529-10.27,129.788-182.797,323.553-264.145c7.01-9.459-128.369-34.109-127.502-34.729c6.4-4.57,62.15-46.408,111.506-44.58
				c17.365,0.912,84.543,8.02,84.543,8.02S631.305,188.234,640.897,223.582z"/>
			<path id="corps_40_" fill="#EBDB2E" d="M636.824,334.77c0,0,0.043,4.73-20.27,31.73
				c-30.162,45.242-115.496,114.828-193.643,118.939c-27.421,6.855-37.931-3.654-87.286,0c-11.882,5.484-47.528,8.227-63.065,8.227
				c5.529-10.27,112.042-75.57,305.807-156.916C595.368,343.084,618.617,338.5,636.824,334.77z"/>
			<path id="queue_40_" fill="#4F402B" d="M349.336,442.482c0,0-204.732,138.928-216.613,148.064
				c-11.884,9.141-55.755,30.164-32.905,0c5.484-8.225-2.744-25.592-29.249,2.742c-7.311,6.398-56.668,20.107,0-23.762
				c56.668-43.871,147.151-101.453,164.52-108.764C252.453,453.449,349.336,442.482,349.336,442.482z"/>
			<path id="tête_4_" fill="#8D6E5C" d="M466.329,191.594c0,0,13.249-36.561,19.648-49.814
				c6.397-13.252,23.763-56.209,70.376-58.494s76.32,29.248,82.717,46.158c6.397,16.908-38.453,27.305-38.453,27.305
				s-11.695,1.516-20.386-0.316C561.037,151.861,477.298,198.447,466.329,191.594z"/>
			<radialGradient id="oeil_32_" cx="554.5254" cy="137.8965" r="14.8818" gradientUnits="userSpaceOnUse">
				<stop  offset="0" style="stop-color:#FFFFFF"/>
				<stop  offset="0.1386" style="stop-color:#D5D4D3"/>
				<stop  offset="0.2079" style="stop-color:#494340"/>
				<stop  offset="0.3663" style="stop-color:#28201D"/>
				<stop  offset="1" style="stop-color:#231B18"/>
			</radialGradient>
			<circle id="oeil_31_" fill="url(#oeil_32_)" cx="553.612" cy="141.779" r="10.968"/>
			<path id="bec_47_" fill="#61646D" d="M621.705,125.33c0,0,78.603-2.289,96.426,25.59c0.457,3.658-5.939-0.914-12.338,2.742
				c-6.399,3.656-63.522,13.711-80.891,13.711c-7.311,0.457-23.761,3.654-28.789,7.768c0-3.656,3.657-12.797-5.484-17.365
				C597.028,151.377,617.592,137.668,621.705,125.33z"/>
			<path id="dos_2_" fill="#8D6E5C" d="M471.054,178.805c0,0-11.579,24.213-19.35,31.98c-7.771,7.77-171.373,180.969-168.589,201.23
				c-4.569,17.822,42.914-34.428,118.318-55.906s200.164-93.684,204.734-108.307c4.571-14.623-5.484-31.533-123.846-50.729
				C475.252,192.908,471.13,191.014,471.054,178.805z"/>
			<path id="aile_50_" fill="#7A5F51" d="M614.393,238.664c0,0,41.129,51.182,0,113.332
				c-53.011,31.99-297.045,108.768-345.487,120.646c-13.71,2.742-84.088,1.83-9.14-40.213
				c23.762-17.367,143.496-138.928,173.657-159.951C463.585,251.461,566.18,187.25,614.393,238.664z"/>
			<path id="aile_bout_1_" fill="#4F402B" d="M630.198,272.62c0,0,13.635,33.548-15.806,79.376
				C576.75,395.75,317.348,460.764,268.905,472.643c-13.71,2.742-84.088,1.83-9.14-40.213c23.762-17.367,38.813-36.952,65.57-61.499
				C371.702,369.282,496.667,353.335,630.198,272.62z"/>
		</g>
	</g>
</g>
<g id="colibri_fallevert">
</g>
<g id="colombe_a_queue_noire">
</g>
</svg>
