<?xml version="1.0" encoding="utf-8"?>
<!-- Generator: Adobe Illustrator 16.0.0, SVG Export Plug-In . SVG Version: 6.00 Build 0)  -->
<!DOCTYPE svg PUBLIC "-//W3C//DTD SVG 1.1//EN" "http://www.w3.org/Graphics/SVG/1.1/DTD/svg11.dtd">
<svg version="1.1" xmlns="http://www.w3.org/2000/svg" xmlns:xlink="http://www.w3.org/1999/xlink" x="0px" y="0px" width="732px"
	 height="692px" viewBox="0 0 732 692" enable-background="new 0 0 732 692" xml:space="preserve">
<g id="Calque_1" display="none">
	<rect x="182" y="-36.879" display="inline" fill="none" width="415.59" height="37.879"/>
	<text transform="matrix(1 0 0 1 182 -12.0293)" display="inline" font-family="'MyriadPro-Regular'" font-size="35">Sporophile rouge-gorge</text>
	<rect x="208.41" y="639.182" display="inline" fill="none" width="415.59" height="37.879"/>
	<text transform="matrix(1 0 0 1 208.4102 664.0313)" display="inline" font-family="'MyriadPro-Regular'" font-size="35">Tyran gris</text>
</g>
<g id="colombe_à_croissant">
</g>
<g id="colombe_rouviolette">
</g>
<g id="colibri_madere">
</g>
<g id="colibri_à_tête_bleue">
</g>
<g id="elenie_siffleuse">
</g>
<g id="grive_à_pieds_jaunes">
</g>
<g id="merle_à_lunette">
</g>
<g id="moucherolle_gobemouche">
</g>
<g id="moqueur_corossol">
</g>
<g id="moqueur_grivotte">
</g>
<g id="trembleur_brun">
</g>
<g id="trembleur_gris">
</g>
<g id="paruline_cafeite">
</g>
<g id="saltator_gros_bec">
</g>
<g id="soporophile_rouge-gorge">
</g>
<g id="sucrier_à_ventre_jaune">
</g>
<g id="vachet_luisant">
</g>
<g id="vireo_a_moustaches">
</g>
<g id="merle_quiscale">
</g>
<g id="paruline_jaune">
</g>
<g id="tyran_gris">
	<g>
		<g opacity="0.3">
			<g>
				<g enable-background="new    ">
					<defs>
						<polygon id="SVGID_51_" enable-background="new    " points="9.407,583.818 9.302,318.058 644.372,319.835 722.698,581.571 
													"/>
					</defs>
					<clipPath id="SVGID_2_">
						<use xlink:href="#SVGID_51_"  overflow="visible"/>
					</clipPath>
					<g clip-path="url(#SVGID_2_)">
						<path fill="#959595" d="M498,320c0,0-0.579,0-0.948,0s-0.74-0.283-1.111-0.281c-0.373,0.006-0.744-0.135-1.119-0.131
							c-0.374,0.007-0.749-0.058-1.124-0.05c-10.838,0.223-19.725,1.551-27.043,3.562c-7.334,2.017-13.101,4.668-17.669,7.504
							c-4.581,2.844-7.958,5.846-10.494,8.523c-2.544,2.685-4.243,5.026-5.464,6.534c-0.731,0.908-1.566,2.06-2.453,3.358
							c-0.891,1.301-1.833,2.75-2.785,4.257c-0.952,1.51-1.913,3.075-2.837,4.607c-0.922,1.531-1.806,3.028-2.604,4.396
							c-0.007-0.021-0.013-0.041-0.019-0.063c-0.007-0.021-0.013-0.041-0.017-0.062c-0.007-0.021-0.013-0.041-0.017-0.062
							c-0.006-0.021-0.011-0.043-0.015-0.066c0,0-0.569,0.742-1.53,1.909c-0.96,1.169-2.313,2.769-3.882,4.482
							c-1.569,1.718-3.354,3.55-5.173,5.183c-1.82,1.636-3.674,3.068-5.379,3.979c-1.703,0.909-11.898,6.659-26.274,14.988
							c-14.495,8.397-33.321,19.461-52.03,30.85c-18.921,11.519-37.733,23.377-51.714,33.084
							c-14.11,9.797-23.237,17.357-22.499,20.081c-0.384,0.199-0.768,0.401-1.148,0.6c-0.382,0.2-0.761,0.398-1.141,0.596
							c-0.379,0.196-0.757,0.392-1.134,0.586c-0.375,0.195-0.75,0.388-1.124,0.577c-1.797,0.885-3.513,1.72-5.133,2.499
							c-1.623,0.781-3.152,1.507-4.577,2.171c-1.427,0.666-2.751,1.27-3.961,1.806c-1.21,0.538-2.307,1.011-3.282,1.408
							c-0.103,0.041-0.204,0.082-0.303,0.124c-0.102,0.041-0.2,0.08-0.299,0.121c-0.098,0.039-0.194,0.076-0.291,0.116
							c-0.095,0.037-0.189,0.074-0.284,0.108c-7.286,2.155-13.185,4.107-17.882,5.872c-4.702,1.769-8.197,3.351-10.671,4.765
							c-2.476,1.414-3.93,2.657-4.548,3.75c-0.621,1.093-0.404,2.033,0.455,2.839c-7.288,2.12-17.592,5.367-29.772,9.383
							c-12.226,4.031-26.361,8.843-41.238,14.069c-14.953,5.251-30.668,10.923-45.944,16.638
							c-15.364,5.748-30.285,11.539-43.531,16.982c-8.311,3.414-14.485,6.216-18.929,8.498c-4.451,2.284-7.16,4.045-8.537,5.375
							c-1.379,1.33-1.425,2.23-0.557,2.794c0.87,0.564,2.653,0.796,4.932,0.789c1.837-0.006,3.991-0.165,6.247-0.427
							s4.607-0.624,6.841-1.037c2.23-0.412,4.34-0.874,6.106-1.336c1.769-0.46,3.195-0.919,4.062-1.325
							c2.895-1.651,5.583-3.029,8.069-4.165c2.484-1.136,4.769-2.03,6.859-2.722c2.089-0.688,3.985-1.173,5.694-1.484
							c1.709-0.313,3.23-0.453,4.571-0.457c1.915-0.007,3.457,0.27,4.645,0.729s2.017,1.104,2.503,1.831
							c0.484,0.729,0.627,1.546,0.435,2.353c-0.189,0.804-0.713,1.598-1.554,2.282c-2.319,1.649-3.979,3.03-5.076,4.173
							c-1.097,1.142-1.629,2.047-1.688,2.744c-0.06,0.696,0.353,1.188,1.143,1.501c0.789,0.313,1.958,0.451,3.407,0.447
							c2.301-0.007,5.308-0.373,8.646-0.969c3.335-0.595,6.997-1.417,10.611-2.339c3.607-0.921,7.168-1.939,10.302-2.927
							c3.132-0.986,5.839-1.94,7.748-2.734c1.843-0.767,8.106-3.14,17.419-6.62c9.282-3.468,21.574-8.028,35.511-13.178
							c13.865-5.128,29.345-10.835,45.1-16.637c15.667-5.771,31.608-11.632,46.53-17.116c4.191-0.028,9.518-0.144,15.323-0.348
							c5.804-0.204,12.09-0.495,18.209-0.872c6.116-0.378,12.069-0.84,17.209-1.386c5.138-0.547,9.465-1.178,12.341-1.893
							c1.969-0.078,3.88-0.146,5.733-0.202c1.854-0.058,3.651-0.104,5.396-0.141c1.744-0.035,3.438-0.063,5.08-0.082
							c1.642-0.019,3.235-0.027,4.781-0.031c2.913-0.004,5.664,0.019,8.271,0.061c2.608,0.043,5.074,0.104,7.422,0.179
							c2.347,0.076,4.573,0.165,6.703,0.262c2.13,0.095,4.16,0.198,6.117,0.299c1.95,0.104,3.824,0.206,5.645,0.304
							c1.82,0.095,3.588,0.186,5.321,0.262c1.731,0.076,3.433,0.14,5.119,0.184c1.688,0.043,3.364,0.065,5.051,0.063
							c1.485-0.002,2.976-0.024,4.489-0.074c1.513-0.047,3.047-0.119,4.62-0.223c1.57-0.103,3.177-0.235,4.836-0.399
							c1.658-0.167,3.367-0.367,5.141-0.604c0.971-0.028,1.939-0.062,2.913-0.101c0.971-0.039,1.941-0.083,2.913-0.133
							c0.971-0.049,1.942-0.103,2.913-0.16c0.971-0.06,1.942-0.124,2.911-0.191c3.854,3.298,7.993,6.836,12.1,10.335
							c4.117,3.507,8.2,6.975,11.925,10.116c3.734,3.15,7.103,5.976,9.779,8.184c2.682,2.214,4.665,3.808,5.618,4.494
							c0.88,0.633,1.453,1.146,1.787,1.557s0.429,0.722,0.351,0.952c-0.076,0.231-0.326,0.384-0.679,0.479
							c-0.354,0.095-0.812,0.132-1.305,0.134c-0.408,0-0.841-0.022-1.26-0.058c-0.419-0.037-0.824-0.084-1.182-0.132
							c-0.354-0.05-0.657-0.097-0.874-0.132c-0.214-0.037-0.342-0.062-0.342-0.062s-0.829-0.066-2.229-0.182
							c-1.398-0.115-3.367-0.282-5.647-0.484c-2.278-0.2-4.867-0.436-7.507-0.691c-2.639-0.253-5.329-0.527-7.812-0.804
							c-0.379-0.028-0.746-0.056-1.097-0.078c-0.353-0.022-0.69-0.039-1.015-0.054c-0.325-0.015-0.637-0.024-0.934-0.031
							c-0.299-0.006-0.586-0.01-0.857-0.008c-2.45,0.004-3.907,0.291-4.716,0.718c-0.81,0.427-0.973,0.993-0.828,1.559
							c0.146,0.566,0.598,1.132,1.012,1.557c0.414,0.424,0.794,0.707,0.794,0.707s0.516,0.101,1.445,0.264
							c0.932,0.161,2.28,0.386,3.946,0.629s3.648,0.509,5.853,0.755c2.204,0.245,4.629,0.47,7.175,0.637
							c7.273,0.34,12.76,0.857,16.973,1.468c4.212,0.61,7.147,1.312,9.318,2.017s3.575,1.412,4.724,2.037
							c1.146,0.622,2.036,1.16,3.179,1.523c1.145,0.362,2.822,1.186,4.696,2.214c1.874,1.029,3.944,2.266,5.874,3.458
							c1.932,1.193,3.722,2.342,5.028,3.193c1.31,0.852,2.134,1.404,2.134,1.404s0.042,0.106,0.237,0.364
							c0.198,0.256,0.553,0.658,1.178,1.25c0.624,0.589,1.521,1.366,2.806,2.37c1.286,1.005,2.961,2.235,5.138,3.734
							c0.926,0.46,1.763,0.843,2.52,1.158c0.757,0.317,1.435,0.567,2.041,0.759c0.606,0.192,1.14,0.326,1.61,0.412
							c0.472,0.087,0.878,0.124,1.23,0.124c0.724-0.004,1.213-0.171,1.54-0.421c0.326-0.249,0.489-0.579,0.561-0.911
							c0.074-0.332,0.056-0.661,0.021-0.909c-0.037-0.247-0.09-0.412-0.09-0.412s-0.044-0.136-0.145-0.396
							c-0.102-0.262-0.26-0.646-0.488-1.145c-0.228-0.499-0.526-1.111-0.905-1.827c-0.382-0.715-0.844-1.533-1.402-2.444
							c-0.555-0.909-1.911-2.048-3.692-3.278c-1.779-1.231-3.983-2.553-6.236-3.833c-2.25-1.276-4.551-2.511-6.527-3.566
							c-1.974-1.054-3.627-1.93-4.584-2.493c-0.96-0.563-1.515-1.026-1.808-1.401c-0.291-0.378-0.319-0.67-0.23-0.891
							c0.091-0.221,0.301-0.373,0.488-0.468c0.188-0.096,0.354-0.137,0.354-0.137s1.692,0.105,4.377,0.262
							c2.685,0.159,6.358,0.369,10.314,0.577c3.959,0.211,8.199,0.419,12.022,0.573c3.82,0.155,7.22,0.256,9.491,0.25
							c0.211-0.002,0.413-0.002,0.603-0.004c0.189-0.005,0.371-0.007,0.54-0.011c0.169-0.006,0.328-0.011,0.477-0.017
							c0.146-0.006,0.282-0.015,0.406-0.022c0.208-0.015,0.445-0.027,0.709-0.037c0.264-0.011,0.557-0.021,0.874-0.027
							c0.317-0.008,0.662-0.012,1.026-0.016c0.365-0.005,0.755-0.007,1.163-0.009c2.486-0.006,5.731,0.039,9.199,0.111
							s7.158,0.171,10.54,0.272c3.379,0.099,6.448,0.2,8.673,0.274c2.225,0.076,3.604,0.127,3.604,0.127s0.067,0,0.195,0.003
							c0.128,0.002,0.315,0.004,0.553,0.006s0.523,0.004,0.852,0.006s0.694,0.002,1.093,0c0.729,0,1.561-0.008,2.437-0.024
							s1.798-0.041,2.705-0.08c0.907-0.04,1.802-0.093,2.627-0.163c0.822-0.07,1.575-0.157,2.197-0.269
							c-0.87-0.733-2.041-1.375-3.418-1.921c-1.377-0.549-2.963-1.004-4.657-1.365c-1.695-0.362-3.501-0.635-5.321-0.813
							c-1.822-0.179-3.662-0.266-5.425-0.262c-0.179,0-0.356,0.002-0.534,0.004c-0.177,0.003-0.354,0.007-0.529,0.011
							c-0.176,0.004-0.351,0.008-0.523,0.015c-0.174,0.006-0.347,0.015-0.518,0.022c-0.132,0.006-0.276,0.011-0.432,0.017
							c-0.152,0.004-0.317,0.008-0.49,0.01c-0.173,0.005-0.356,0.007-0.549,0.009c-0.191,0.002-0.394,0.004-0.604,0.004
							c-2.711,0.006-6.88-0.097-11.615-0.27c-4.736-0.174-10.037-0.415-15.012-0.683c-4.973-0.271-9.618-0.567-13.042-0.85
							c-3.425-0.282-5.627-0.551-5.716-0.763c0.738-0.415,2.32-0.809,4.388-1.178c2.065-0.366,4.62-0.709,7.305-1.022
							c2.683-0.313,5.496-0.598,8.086-0.85c2.588-0.249,4.95-0.466,6.733-0.645c1.748-0.417,2.616-0.84,2.891-1.25
							s-0.043-0.808-0.668-1.177c-0.623-0.369-1.553-0.71-2.499-1c-0.946-0.293-1.913-0.536-2.61-0.714
							c-0.074-0.021-0.16-0.037-0.262-0.049c-0.099-0.015-0.212-0.027-0.336-0.035c-0.123-0.009-0.26-0.015-0.408-0.019
							s-0.307-0.007-0.476-0.007c-1.429,0.005-3.623,0.163-6.249,0.421c-2.629,0.258-5.69,0.612-8.854,1.006
							c-3.167,0.395-6.433,0.825-9.469,1.237c-3.035,0.41-5.841,0.802-8.076,1.111c-0.655,0.08-1.297,0.148-1.922,0.208
							c-0.624,0.058-1.232,0.105-1.828,0.145c-0.594,0.037-1.173,0.066-1.738,0.087c-0.564,0.019-1.115,0.028-1.651,0.028
							c-2.69,0.009-5.022-0.204-7.038-0.564c-2.015-0.361-3.718-0.87-5.15-1.454c-1.436-0.585-2.6-1.247-3.546-1.917
							c-0.946-0.668-1.673-1.342-2.228-1.952c-0.898-0.304-2.785-1.53-5.346-3.402c-2.559-1.87-5.785-4.383-9.374-7.257
							c-3.579-2.868-7.52-6.095-11.509-9.407c-3.979-3.303-8.01-6.69-11.791-9.893c2.928-0.34,5.848-0.72,8.754-1.138
							c2.907-0.419,5.802-0.874,8.682-1.367c2.879-0.492,5.744-1.019,8.592-1.579c2.845-0.561,5.676-1.152,8.485-1.777
							c6.692,3.002,14.319,6.346,22.003,9.68c7.704,3.344,15.467,6.676,22.4,9.637c6.952,2.967,13.064,5.558,17.443,7.411
							c4.388,1.854,7.031,2.963,7.031,2.963s-0.079,0-0.229-0.002s-0.371-0.004-0.659-0.008c-0.289-0.002-0.642-0.005-1.056-0.005
							c-0.413-0.002-0.887-0.002-1.412-0.002c-1.597,0.005-3.683,0.023-6.095,0.074c-2.41,0.054-5.146,0.143-8.036,0.285
							c-2.891,0.142-5.938,0.342-8.973,0.614c-3.037,0.274-6.06,0.624-8.9,1.069c-4.926,1.059-7.492,1.972-8.573,2.744
							c-1.08,0.773-0.672,1.408,0.355,1.909c1.026,0.501,2.672,0.87,4.059,1.113c1.388,0.246,2.52,0.363,2.52,0.363s0,0,0.326-0.024
							c0.326-0.023,0.978-0.07,2.28-0.165s3.258-0.237,6.189-0.452c2.93-0.212,6.834-0.496,12.038-0.876
							c2.451-0.177,4.68-0.334,6.711-0.466c2.03-0.132,3.865-0.241,5.531-0.33c1.666-0.086,3.165-0.152,4.521-0.197
							c1.358-0.044,2.577-0.066,3.682-0.07c1.239-0.002,2.338,0.021,3.336,0.07c0.996,0.047,1.891,0.119,2.724,0.216
							c0.831,0.098,1.6,0.219,2.347,0.363c0.746,0.143,1.468,0.31,2.206,0.499c1.397,0.356,3.746,1.026,6.661,1.9
							s6.399,1.95,10.059,3.117c3.662,1.167,7.503,2.425,11.131,3.655c3.629,1.233,7.047,2.441,9.855,3.51
							c1.006,0.383,1.88,0.709,2.639,0.981c0.757,0.271,1.398,0.492,1.937,0.666c0.536,0.171,0.971,0.294,1.315,0.377
							c0.344,0.08,0.6,0.117,0.781,0.117c0.323,0,0.404-0.123,0.327-0.344c-0.078-0.219-0.317-0.532-0.633-0.914
							c-0.317-0.379-0.713-0.828-1.104-1.315c-0.395-0.486-0.784-1.012-1.091-1.55c-0.479-0.837-1.165-1.61-1.928-2.301
							c-0.761-0.69-1.596-1.299-2.371-1.8c-0.773-0.503-1.488-0.901-2.01-1.174c-0.522-0.271-0.85-0.418-0.85-0.418l-23.821-9.874
							c0,0,2.301,0.153,5.973,0.382c3.674,0.229,8.719,0.532,14.205,0.835s11.416,0.606,16.856,0.831
							c5.441,0.223,10.392,0.371,13.925,0.362c0.334-0.002,0.656-0.004,0.963-0.006c0.31-0.004,0.604-0.01,0.883-0.017
							c0.28-0.006,0.546-0.015,0.798-0.022c0.249-0.011,0.486-0.022,0.705-0.035c2.546-0.148,3.822-0.431,4.307-0.771
							c0.484-0.339,0.178-0.734-0.447-1.111c-0.627-0.378-1.569-0.734-2.356-0.998c-0.785-0.264-1.416-0.436-1.416-0.436
							l-11.164-0.082l-25.901-2.971c0,0,0.626-0.052,1.69-0.155c1.062-0.103,2.563-0.258,4.307-0.464
							c1.746-0.206,3.738-0.462,5.783-0.771c2.047-0.308,4.148-0.666,6.117-1.076s2.82-0.8,2.989-1.15
							c0.169-0.353-0.342-0.668-1.101-0.935c-0.757-0.264-1.761-0.476-2.575-0.622c-0.813-0.148-1.438-0.229-1.438-0.229
							s-0.405,0.044-1.257,0.145c-0.85,0.102-2.143,0.26-3.918,0.495c-1.774,0.237-4.03,0.546-6.808,0.948
							c-2.774,0.402-6.071,0.896-9.927,1.499c-0.994,0.154-1.971,0.288-2.93,0.404c-0.961,0.113-1.903,0.206-2.833,0.282
							c-0.928,0.074-1.841,0.13-2.742,0.167c-0.9,0.037-1.787,0.056-2.663,0.058c-2.52,0.004-4.946-0.132-7.325-0.386
							c-2.378-0.251-4.705-0.62-7.026-1.078c-2.322-0.46-4.637-1.008-6.989-1.622c-2.353-0.615-4.742-1.293-7.214-2.011
							c-1.932-0.561-4.963-1.733-8.729-3.327c-3.763-1.594-8.257-3.604-13.122-5.845c-4.857-2.237-10.082-4.701-15.316-7.206
							c-5.227-2.497-10.464-5.034-15.358-7.427c12.622-3.309,24.701-7.179,35.977-11.365c11.227-4.169,21.648-8.651,31.011-13.208
							c9.318-4.537,17.586-9.147,24.557-13.599c6.939-4.435,12.597-8.713,16.73-12.609c12.509-9.251,19.068-18.252,21.897-26.527
							c2.808-8.214,1.944-15.729-0.438-22.081c-2.366-6.319-6.238-11.502-9.511-15.104c-3.264-3.587-5.938-5.611-5.938-5.611
							c-2.546-3.117-3.622-6.136-3.694-8.98c-0.07-2.838,0.859-5.505,2.33-7.926c1.468-2.416,3.474-4.592,5.563-6.449
							c2.084-1.855,4.253-3.397,6.053-4.556c4.783-0.361,9.62-0.757,14.234-1.163c4.611-0.406,9.001-0.82,12.897-1.223
							c3.893-0.4,7.292-0.785,9.923-1.134c2.631-0.347,4.495-0.655,5.319-0.903c0.46-0.138,0.928-0.249,1.4-0.34
							c0.47-0.089,0.943-0.159,1.416-0.208c0.472-0.052,0.94-0.085,1.402-0.105c0.461-0.021,0.917-0.029,1.358-0.029
							c0.221,0,0.438,0.005,0.653,0.009s0.425,0.01,0.631,0.017c0.206,0.006,0.408,0.015,0.604,0.022
							c0.197,0.01,0.39,0.019,0.575,0.026c0.186,0.011,0.367,0.019,0.542,0.027c0.173,0.008,0.342,0.017,0.503,0.024
							c0.163,0.006,0.317,0.013,0.464,0.017c0.148,0.004,0.286,0.006,0.419,0.006c0.264,0,0.496-0.008,0.69-0.028
							c0.193-0.021,0.351-0.056,0.464-0.107c0.113-0.054,0.186-0.124,0.208-0.215c0.022-0.09-0.002-0.203-0.078-0.344
							c-3.694-2.289-9.092-4.134-15.463-5.622c-6.362-1.487-13.698-2.618-21.276-3.48c-7.577-0.861-15.399-1.453-22.734-1.859
							c-7.336-0.406-14.188-0.625-19.821-0.742c-2.544-1.899-6.216-4.043-10.88-6.193c-4.655-2.146-10.302-4.297-16.809-6.212
							c-6.496-1.911-13.854-3.653-21.953-4.859c-8.09-1.206-17.133-1.68-26.602-1.68"/>
					</g>
				</g>
			</g>
		</g>
		<g>
			<path id="patted_27_" fill="#47494F" d="M468.604,440.688c0,0,56.9,61.83,69.046,69.083c12.146,7.256,22.182,12.356,37.769,7.934
				c15.589-4.42,22.107-5.665,22.107-5.665s9.44,2.453,1.358,5.472c-8.079,3.022-18.031,4.519-18.031,4.519l24.495,5.6l10.856,0.204
				c0,0,9.134,5.062-0.915,6.121c-10.047,1.058-52.227-4.517-52.227-4.517l20.816,18.269c0,0,4.525,4.321,5.579,10.442
				c1.052,6.119,5.338,11.426-4.496,3.59c-9.839-7.835-28.578-19.813-33.668-22.461c-5.086-2.646-9.591-2.982-30.035-0.286
				c-20.443,2.701-20.443,2.701-20.443,2.701s-17.104-3.549,2.808-11.271c15.127-4.305,34.709-3.594,34.709-3.594
				s-75.94-67.38-80.575-76.035c-4.641-8.655-4.424-7.8-4.424-7.8l15.241-3.843L468.604,440.688z"/>
			<path id="patteg_28_" fill="#61646D" d="M426.23,450.46c0,0,42.027,83.557,47.58,87.397c2.016,5.387,7.578,13.481,23.169,10.042
				c9.932-2.507,31.167-7.9,33.709-6.578c2.544,1.325,9.014,4.585,1.915,7.604c-7.045,1.284-23.154,3.62-26.326,6.628
				c0.178,1.674,37.961,5.406,45.179,4.816c7.22-0.594,16.237,2.043,19.194,7.929c-3.87,1.221-12.303,0.887-12.303,0.887
				s-28.542-2.136-34.259-1.429c-5.717,0.703-36.396-3.106-36.396-3.106s-2.657,1.16,0.588,5.257
				c3.243,4.093,16.153,17.296,17.551,23.819c1.4,6.524,1.638,10.393,1.638,10.393s0.657,10.397-9.012,0.31
				c-7.128-10.731-7.42-13.849-7.42-13.849s-10.893-15.923-14.999-18.572c-4.107-2.646-3.833-10.329-31.505-12.931
				c-9.651-1.251-17.283-4.241-17.283-4.241s-6.26-10.211,8.071-7.929c9.362,2.06,21.935,4.049,21.935,4.049
				s9.197,3.493,3.866-4.987c-5.332-8.481-48.055-92.188-48.055-92.188L426.23,450.46z"/>
			<path id="corps_25_" fill="#C7C6D8" d="M635.28,223.583c0,0,35.646,68.549-24.677,142.582
				c-30.162,45.242-115.162,115.163-193.309,119.275c-27.421,6.855-37.931-3.655-87.286,0c-11.882,5.484-47.528,8.227-63.065,8.227
				c5.529-10.27,129.788-182.798,323.553-264.145c7.01-9.459-128.369-34.11-127.502-34.729c6.4-4.57,64.437-38.387,113.792-36.56
				c17.365,0.913,82.257,0,82.257,0S625.688,188.234,635.28,223.583z"/>
			<path id="queue_28_" fill="#615255" d="M343.719,442.483c0,0-204.732,138.928-216.613,148.064
				c-11.884,9.14-55.755,30.163-32.905,0c5.484-8.226-2.744-25.592-29.249,2.742c-7.311,6.397-56.668,20.107,0-23.763
				c56.668-43.871,147.151-101.452,164.52-108.763C246.836,453.449,343.719,442.483,343.719,442.483z"/>
			<path id="tête_5_" fill="#41414D" d="M460.712,191.594c0,0,13.249-36.561,19.648-49.813
				c6.397-13.252,23.763-56.21,70.376-58.494c46.613-2.286,76.32,29.247,82.717,46.157c6.397,16.908-43.872,32.445-43.872,32.445
				s-2.276,1.375-10.967-0.456C559.42,156.862,471.681,198.448,460.712,191.594z"/>
			<radialGradient id="oeil_5_" cx="548.9082" cy="137.8965" r="14.8825" gradientUnits="userSpaceOnUse">
				<stop  offset="0" style="stop-color:#FFFFFF"/>
				<stop  offset="0.1386" style="stop-color:#D5D4D3"/>
				<stop  offset="0.2079" style="stop-color:#494340"/>
				<stop  offset="0.3663" style="stop-color:#28201D"/>
				<stop  offset="1" style="stop-color:#231B18"/>
			</radialGradient>
			<circle id="oeil_23_" fill="url(#oeil_5_)" cx="547.995" cy="141.78" r="10.968"/>
			<path id="bec_31_" fill="#61646D" d="M616.088,125.33c0,0,78.603-2.288,96.426,25.59c0.457,3.658-5.939-0.913-12.338,2.742
				c-6.399,3.657-63.522,13.711-80.891,13.711c-7.311,0.457-23.761,3.655-28.789,7.768c0-3.655,3.657-12.797-5.484-17.365
				C591.411,151.378,611.975,137.668,616.088,125.33z"/>
			<path id="dos_3_" fill="#7D7D89" d="M465.736,177.426c0,0-11.879,25.592-19.649,33.359
				c-7.771,7.77-171.373,180.97-168.589,201.23c-4.569,17.823,42.914-34.427,118.318-55.905s200.164-93.684,204.734-108.307
				c4.571-14.624-5.484-31.534-123.846-50.729C469.635,192.908,465.813,189.635,465.736,177.426z"/>
			<path id="aile_31_" fill="#64646D" d="M608.775,238.664c0,0,41.129,51.182,0,113.333
				c-53.011,31.989-297.045,108.768-345.487,120.646c-13.71,2.742-84.088,1.829-9.14-40.213
				c23.762-17.368,143.496-138.928,173.657-159.951C457.968,251.461,560.563,187.251,608.775,238.664z"/>
			<path id="aile_bout" fill="#615255" d="M614.767,248.01c0,0,31.824,47.893-5.991,103.987
				c-38.843,42.502-297.045,108.768-345.487,120.646c-13.71,2.742-84.088,1.829-9.14-40.213
				c23.762-17.368,57.695-58.952,86.373-80.728C390.083,341.955,482.238,320.217,614.767,248.01z"/>
		</g>
	</g>
</g>
<g id="sporophile_cici">
</g>
<g id="tourterelle_à_queue_carree">
</g>
<g id="colobri_huppé">
</g>
<g id="cécerelle_d_x27_amerique">
</g>
<g id="heron_vert">
</g>
<g id="pic_de_la_guadeloupe">
</g>
<g id="héron_garde-boeufs">
</g>
</svg>
