<?xml version="1.0" encoding="utf-8"?>
<!-- Generator: Adobe Illustrator 16.0.0, SVG Export Plug-In . SVG Version: 6.00 Build 0)  -->
<!DOCTYPE svg PUBLIC "-//W3C//DTD SVG 1.1//EN" "http://www.w3.org/Graphics/SVG/1.1/DTD/svg11.dtd">
<svg version="1.1" xmlns="http://www.w3.org/2000/svg" xmlns:xlink="http://www.w3.org/1999/xlink" x="0px" y="0px" width="732px"
	 height="692px" viewBox="0 0 732 692" enable-background="new 0 0 732 692" xml:space="preserve">
<g id="Calque_1" display="none">
</g>
<g id="colombe_à_croissant">
</g>
<g id="colombe_rouviolette">
</g>
<g id="colibri_madere">
</g>
<g id="colibri_à_tête_bleue">
</g>
<g id="elenie_siffleuse">
</g>
<g id="grive_à_pieds_jaunes">
</g>
<g id="merle_à_lunette">
</g>
<g id="moucherolle_gobemouche">
</g>
<g id="moqueur_corossol">
</g>
<g id="moqueur_grivotte">
</g>
<g id="trembleur_brun">
</g>
<g id="trembleur_gris">
</g>
<g id="paruline_cafeite">
</g>
<g id="saltator_gros_bec">
</g>
<g id="soporophile_rouge-gorge">
</g>
<g id="sucrier_à_ventre_jaune">
</g>
<g id="vachet_luisant">
</g>
<g id="vireo_a_moustaches">
</g>
<g id="merle_quiscale">
</g>
<g id="paruline_jaune">
</g>
<g id="tyran_gris">
</g>
<g id="sporophile_cici">
</g>
<g id="tourterelle_à_queue_carree">
</g>
<g id="colobri_huppé">
</g>
<g id="cécerelle_d_x27_amerique">
</g>
<g id="heron_vert">
</g>
<g id="pic_de_la_guadeloupe">
</g>
<g id="héron_garde-boeufs">
</g>
<g id="photos">
</g>
<g id="solitaire_siffleur">
	<g>
		<g opacity="0.3">
			<g>
				<g enable-background="new    ">
					<defs>
						<polygon id="SVGID_69_" enable-background="new    " points="107.42,604.132 82.523,269.43 574.105,270.598 649.477,602.709 
													"/>
					</defs>
					<clipPath id="SVGID_2_">
						<use xlink:href="#SVGID_69_"  overflow="visible"/>
					</clipPath>
					<g clip-path="url(#SVGID_2_)">
						<path fill="#959595" d="M198,270c0,0-1.386,0-1.576,0c-0.192,0-0.385,0-0.576,0c-0.192,0-0.385,0-0.577,0
							s-0.386-0.146-0.579-0.142c-7.762,0.074-15.178,0.331-22.236,0.983c-7.065,0.654-13.777,1.588-20.127,2.939
							c-6.356,1.351-12.352,3.061-17.981,5.23c-5.636,2.172-10.906,4.778-15.804,7.893c-2.004,0.183-5.16,0.488-8.76,0.928
							c-3.601,0.438-7.646,1.001-11.432,1.695s-7.311,1.516-9.864,2.467c-2.557,0.951-4.14,2.032-4.044,3.24
							c0.061,0.165,0.13,0.357,0.22,0.553c0.089,0.191,0.196,0.39,0.335,0.568c0.137,0.177,0.303,0.334,0.512,0.446
							c0.207,0.114,0.455,0.183,0.751,0.183c0.147,0,0.306-0.016,0.476-0.051c0.172-0.036,0.356-0.09,0.559-0.168
							c0.197-0.076,0.412-0.175,0.641-0.299c0.23-0.124,0.477-0.272,0.738-0.451c0.359,0.018,1.057,0.097,2.039,0.205
							c0.985,0.108,2.256,0.246,3.766,0.383c1.51,0.136,3.254,0.272,5.186,0.373c1.934,0.103,4.051,0.17,6.307,0.175
							c1.072,0.003,2.174-0.009,3.301-0.04s2.28-0.079,3.451-0.148c1.172-0.07,2.363-0.16,3.569-0.276
							c1.207-0.114,2.427-0.255,3.655-0.423c0.836,0.195,1.896,0.504,3.094,0.992c1.195,0.486,2.528,1.152,3.908,2.059
							c1.379,0.908,2.805,2.061,4.187,3.518c1.382,1.46,2.722,3.227,3.927,5.367c0.02-0.021,0.039-0.039,0.056-0.058
							c0.019-0.021,0.036-0.04,0.053-0.06c0.017-0.018,0.034-0.037,0.053-0.057c0.017-0.021,0.036-0.039,0.054-0.059
							c0.869,2.948,2.196,5.686,3.783,8.174c1.588,2.493,3.438,4.735,5.35,6.688c1.914,1.955,3.889,3.617,5.727,4.951
							c1.84,1.334,3.541,2.339,4.903,2.971c1.432,0.664,2.429,1.222,3.127,1.7c0.7,0.479,1.104,0.876,1.345,1.223
							c0.244,0.346,0.326,0.639,0.389,0.905c0.063,0.266,0.104,0.508,0.263,0.75c-1.095,0.551-2.196,1.944-3.084,3.931
							c-0.89,1.988-1.562,4.575-1.798,7.511c-0.236,2.941-0.032,6.233,0.839,9.63c0.872,3.403,2.413,6.909,4.851,10.268l0.024-0.034
							c1.522,2.916,3.48,6.018,5.968,9.283c2.491,3.275,5.516,6.717,9.172,10.313c3.663,3.604,7.961,7.362,12.99,11.261
							c5.043,3.906,10.819,7.954,17.435,12.129c0.032,0.074,0.065,0.148,0.098,0.222c0.034,0.074,0.068,0.147,0.103,0.222
							c0.033,0.074,0.07,0.148,0.106,0.223c0.038,0.074,0.076,0.15,0.116,0.227c0,0,1.861,1.373,5.377,3.671
							c3.522,2.301,8.707,5.535,15.354,9.251c6.66,3.724,14.788,7.936,24.18,12.182c9.412,4.255,20.092,8.547,31.82,12.415
							c-3.391,3.49-7.322,7.495-11.438,11.613c-4.127,4.128-8.438,8.369-12.575,12.312c-4.147,3.951-8.115,7.601-11.54,10.529
							c-3.431,2.936-6.312,5.146-8.273,6.211c-2.822,1.531-5.547,2.973-8.343,4.271c-2.8,1.3-5.669,2.458-8.776,3.427
							c-3.112,0.968-6.463,1.99-10.217,2.525c-3.758,0.537-7.922,1.082-12.659,1.082c-0.149,0-0.301,0-0.449,0
							c-0.151,0-0.302,0-0.454,0s-0.304-0.248-0.457-0.248c-0.152-0.004-0.307-0.13-0.461-0.132
							c-1.766-0.023-3.441-0.106-5.026-0.122s-3.082-0.058-4.492-0.067c-1.41-0.009-2.733-0.032-3.972-0.034
							c-1.238-0.006-2.393-0.015-3.467-0.011c-1.983,0.001-3.689,0.005-5.131,0.019c-1.441,0.012-2.617,0.025-3.547,0.041
							c-0.928,0.016-1.608,0.03-2.058,0.043c-0.448,0.011-0.663,0.019-0.663,0.019s-0.648,0.187-1.451,0.476
							c-0.803,0.291-1.763,0.686-2.387,1.098c-0.625,0.412-0.915,0.843-0.377,1.207c0.537,0.365,1.9,0.664,4.585,0.813
							c0.885,0.048,1.782,0.09,2.683,0.122c0.902,0.034,1.807,0.061,2.705,0.079c0.902,0.021,1.798,0.034,2.682,0.044
							c0.883,0.008,1.754,0.01,2.604,0.01c1.724-0.001,3.362-0.021,4.852-0.047c1.491-0.028,2.833-0.065,3.958-0.1
							c1.125-0.037,2.035-0.071,2.664-0.1c0.627-0.024,0.975-0.043,0.975-0.043l-27.166,7.317l-12.914,1.844
							c0,0-0.467,0.237-1.049,0.592c-0.58,0.354-1.271,0.829-1.715,1.302c-0.443,0.475-0.639,0.947-0.227,1.302
							c0.412,0.354,1.432,0.589,3.418,0.586c0.199,0,0.41-0.003,0.629-0.008c0.218-0.005,0.447-0.013,0.688-0.023
							c0.24-0.009,0.49-0.023,0.752-0.039c0.26-0.017,0.531-0.035,0.814-0.056c3.103-0.233,8.458-1.043,14.74-2.124
							c6.279-1.08,13.481-2.432,20.29-3.753c6.804-1.32,13.212-2.61,17.92-3.569c4.703-0.958,7.709-1.587,7.709-1.587
							l-18.042,14.605c0,0-0.238,0.214-0.582,0.595c-0.343,0.383-0.789,0.933-1.206,1.608c-0.415,0.676-0.802,1.477-1.02,2.358
							c-0.22,0.88-0.272,1.845-0.024,2.843c0.158,0.616,0.213,1.234,0.229,1.814c0.018,0.581-0.006,1.121-0.01,1.585
							c-0.004,0.465,0.014,0.853,0.109,1.122c0.096,0.271,0.272,0.426,0.589,0.426c0.195-0.001,0.444-0.061,0.761-0.188
							s0.699-0.322,1.164-0.597c0.465-0.272,1.012-0.621,1.654-1.059c0.643-0.437,1.378-0.957,2.225-1.575
							c2.221-1.616,5.006-3.482,8.014-5.41c3.006-1.925,6.232-3.908,9.34-5.768c3.102-1.854,6.086-3.586,8.607-5.002
							s4.584-2.522,5.851-3.132c1.265-0.608,2.538-1.124,4.134-1.576s3.515-0.843,6.063-1.207c2.547-0.364,5.727-0.7,9.85-1.043
							c4.118-0.341,9.178-0.688,15.486-1.075c6.307-0.385,11.036-0.673,14.582-0.89c3.543-0.216,5.905-0.359,7.481-0.455
							c1.574-0.097,2.361-0.145,2.755-0.168c0.394-0.024,0.394-0.024,0.394-0.024s1.178-0.304,2.532-0.785
							c1.352-0.482,2.879-1.14,3.578-1.85c0.699-0.709,0.57-1.469-1.387-2.153c-1.956-0.686-5.738-1.294-12.351-1.702
							c-0.2-0.003-0.401,0.428-0.603,0.424c-0.201,0-0.403,0.428-0.604,0.428c-0.203,0-0.405,0-0.607,0c-0.203,0-0.405,0-0.607,0
							c-4.729,0-9.591-0.227-14.222,0.078c-4.633,0.303-9.037,0.491-12.852,0.895c-3.815,0.403-7.04,0.695-9.311,0.998
							c-2.271,0.301-3.588,0.449-3.588,0.449s2.228-1.875,5.869-4.915c3.633-3.036,8.666-7.271,14.281-12.026
							c5.6-4.743,11.773-10.021,17.719-15.183c5.926-5.146,11.625-10.182,16.305-14.48c3.143,0.852,6.344,1.661,9.602,2.427
							s6.571,1.486,9.938,2.149c3.365,0.667,6.782,1.278,10.247,1.83c3.467,0.552,6.979,1.042,10.536,1.463
							c-1.266,3.921-2.608,7.973-3.949,11.876c-1.345,3.914-2.691,7.679-3.965,11.009c-1.277,3.338-2.479,6.238-3.536,8.416
							c-1.059,2.18-1.968,3.634-2.656,4.073c-0.067,0.905-0.333,1.948-1.001,3.01c-0.666,1.063-1.735,2.143-3.414,3.121
							c-1.678,0.979-3.967,1.854-7.068,2.507c-3.104,0.652-7.023,1.08-11.962,1.162c-3.177,0.003-7.26,0.007-11.634,0.03
							c-4.377,0.021-9.047,0.062-13.398,0.141c-4.352,0.077-8.387,0.191-11.488,0.365c-3.105,0.171-5.28,0.4-5.91,0.704
							s-1.502,0.722-2.311,1.189s-1.552,0.984-1.918,1.486c-0.365,0.504-0.354,0.99,0.348,1.399c0.7,0.409,2.092,0.74,4.482,0.927
							c1.394-0.05,3.064-0.118,4.91-0.192c1.846-0.076,3.863-0.158,5.955-0.235c2.088-0.076,4.25-0.146,6.381-0.198
							s4.23-0.087,6.195-0.089c1.158-0.001,2.268,0.008,3.311,0.031c1.044,0.023,2.02,0.058,2.908,0.11
							c0.888,0.053,1.689,0.121,2.381,0.206c0.691,0.087,1.275,0.192,1.73,0.317c0.107,0.267-2.52,0.982-6.662,1.922
							c-4.145,0.938-9.809,2.098-15.766,3.251c-5.961,1.153-12.216,2.296-17.533,3.204c-5.324,0.905-9.706,1.573-11.912,1.77
							c-2.209,0.192-4.477,0.53-6.657,0.994c-2.181,0.463-4.275,1.049-6.134,1.743c-1.861,0.692-3.484,1.49-4.729,2.377
							c-1.245,0.886-2.106,1.859-2.438,2.899c0.06,0.001,0.12-0.105,0.181-0.105c0.061,0.003,0.122-0.105,0.185-0.105
							s0.125,0,0.189,0c0.062,0,0.127,0,0.189,0c1.313,0,2.863,0.019,4.451-0.115c1.588-0.133,3.212-0.256,4.674-0.436
							c1.459-0.176,2.756-0.326,3.688-0.456c0.932-0.133,1.497-0.21,1.497-0.21s2.081-0.361,5.312-0.919
							c3.231-0.558,7.609-1.306,12.207-2.07c4.596-0.765,9.408-1.54,13.516-2.157c4.106-0.617,7.504-1.072,9.275-1.189
							c1.768-0.118,5.281-0.657,9.557-1.402c4.275-0.744,9.309-1.69,14.119-2.623c4.805-0.934,9.387-1.853,12.768-2.535
							c3.379-0.684,5.558-1.135,5.558-1.135s0.225,0.02,0.526,0.095c0.301,0.077,0.681,0.21,0.988,0.438
							c0.311,0.228,0.549,0.552,0.57,1.009c0.023,0.458-0.173,1.049-0.732,1.812c-0.563,0.766-1.621,1.98-2.876,3.439
							c-1.257,1.462-2.714,3.168-4.073,4.914c-1.361,1.748-2.625,3.535-3.496,5.155c-0.869,1.623-1.346,3.076-1.129,4.155
							c0.219,1.08,0.459,2.045,0.697,2.884c0.237,0.841,0.473,1.556,0.682,2.135c0.208,0.58,0.39,1.024,0.518,1.323
							c0.131,0.3,0.207,0.454,0.207,0.454s0.082,0.164,0.246,0.409c0.166,0.246,0.416,0.573,0.756,0.902
							c0.34,0.328,0.77,0.655,1.289,0.901c0.522,0.245,1.138,0.408,1.848,0.406c0.422,0,0.877-0.059,1.368-0.192
							c0.489-0.133,1.015-0.341,1.576-0.642c0.56-0.301,1.155-0.692,1.788-1.193c0.631-0.502,1.299-1.112,2.004-1.847
							c1.07-1.975,1.818-3.578,2.338-4.874c0.52-1.293,0.809-2.282,0.967-3.022c0.156-0.741,0.18-1.235,0.164-1.545
							c-0.016-0.311-0.069-0.436-0.069-0.436s0.42-0.731,1.108-1.863c0.688-1.131,1.646-2.663,2.723-4.266
							c1.075-1.601,2.27-3.272,3.434-4.688c1.164-1.412,2.297-2.568,3.252-3.141c0.957-0.574,1.463-1.299,2.183-2.156
							c0.719-0.858,1.649-1.849,3.449-2.953c1.8-1.105,4.466-2.323,8.659-3.639c4.19-1.313,9.9-2.721,17.788-4.209
							c2.714-0.57,5.233-1.187,7.487-1.791c2.255-0.604,4.243-1.196,5.893-1.717c1.648-0.521,2.957-0.971,3.856-1.289
							c0.897-0.319,1.382-0.507,1.382-0.507s0.131-0.29,0.213-0.726c0.082-0.434,0.114-1.012-0.081-1.592
							c-0.195-0.578-0.618-1.155-1.448-1.59c-0.831-0.432-2.068-0.719-3.893-0.717c-0.456,0-0.949,0.019-1.48,0.057
							c-0.531,0.039-1.104,0.098-1.717,0.18c-0.615,0.081-1.271,0.187-1.973,0.314c-0.701,0.129-1.447,0.284-2.242,0.464
							c-2.543,0.682-5.323,1.39-8.064,2.071c-2.742,0.683-5.447,1.336-7.833,1.905c-2.386,0.568-4.455,1.054-5.929,1.395
							c-1.473,0.341-2.35,0.541-2.35,0.541s-0.174,0.066-0.465,0.164c-0.293,0.099-0.705,0.23-1.182,0.362
							c-0.478,0.132-1.02,0.262-1.573,0.361c-0.552,0.1-1.116,0.166-1.635,0.167c-0.438,0-0.848-0.046-1.19-0.159
							c-0.344-0.113-0.621-0.293-0.805-0.56c-0.181-0.267-0.264-0.62-0.218-1.079c0.045-0.458,0.222-1.025,0.562-1.717
							c0.395-0.806,1.047-2.535,1.879-4.923c0.83-2.386,1.843-5.429,2.957-8.863c1.112-3.43,2.327-7.249,3.572-11.201
							c1.24-3.942,2.508-8.015,3.732-11.96c1.151,0.064,2.306,0.121,3.465,0.17c1.158,0.049,2.32,0.09,3.484,0.122
							c1.166,0.032,2.336,0.058,3.508,0.074c1.171,0.017,2.346,0.024,3.525,0.023c1.07,0,2.146-0.008,3.223-0.022
							s2.156-0.037,3.238-0.067s2.167-0.067,3.253-0.112c1.088-0.043,2.177-0.096,3.271-0.158c1.096,0.989,2.961,2.191,5.234,3.472
							s4.955,2.638,7.684,3.938c2.732,1.3,5.51,2.542,7.971,3.586c2.461,1.046,4.607,1.894,6.07,2.408
							c1.423,0.497,4.262,1.4,7.851,2.52c3.591,1.12,7.933,2.458,12.354,3.824c4.426,1.368,8.932,2.767,12.847,4.006
							c3.917,1.239,7.242,2.321,9.301,3.054c6.559,5.473,13.221,11.023,19.727,16.433c6.521,5.425,12.885,10.706,18.82,15.62
							c5.953,4.926,11.474,9.48,16.295,13.434c4.83,3.964,8.955,7.32,12.101,9.841c7.23,6.749,13.745,12.422,19.629,17.165
							c5.899,4.755,11.16,8.568,15.874,11.587c4.722,3.023,8.891,5.248,12.604,6.823c3.714,1.577,6.97,2.504,9.861,2.93
							c2.355,2.772,5.387,4.986,8.689,6.753c3.305,1.769,6.877,3.086,10.311,4.059c3.434,0.977,6.727,1.608,9.468,2.006
							c2.741,0.396,4.933,0.561,6.164,0.598c4.212,1.196,7.958,2.202,11.286,3.039c3.328,0.838,6.238,1.506,8.781,2.025
							c2.543,0.518,4.715,0.886,6.572,1.125c1.854,0.238,3.389,0.346,4.654,0.342c1.888-0.004,3.178-0.257,4.029-0.69
							c0.853-0.436,1.272-1.051,1.424-1.782c0.152-0.733,0.037-1.581-0.176-2.479c-0.215-0.897-0.527-1.847-0.773-2.781
							c-0.41-1.563-5.73-6.67-13.699-13.594c-7.938-6.898-18.486-15.586-29.41-24.354c-10.87-8.729-22.109-17.538-31.539-24.771
							c-9.392-7.204-17.005-12.854-20.699-15.32c-2.575-1.722-6.852-4.935-12.15-9.056c-5.285-4.115-11.58-9.131-18.211-14.473
							c-6.61-5.326-13.553-10.977-20.162-16.385c-6.589-5.393-12.85-10.547-18.127-14.906c1.441,0.318,2.794,0.623,4.053,0.918
							c1.256,0.294,2.418,0.574,3.473,0.843c1.057,0.268,2.004,0.523,2.838,0.764c0.832,0.24,1.55,0.467,2.143,0.677
							c0.365,0.102,0.804,0.23,1.285,0.368c0.484,0.136,1.011,0.282,1.55,0.413c0.541,0.134,1.095,0.253,1.63,0.338
							c0.537,0.087,1.055,0.142,1.521,0.142c1.186-0.002,2.062-0.345,2.133-1.359c0.07-1.015-0.663-2.699-2.695-5.384
							c-2.026-2.679-5.344-6.352-10.439-11.336c-5.078-4.972-11.916-11.241-20.98-19.121c0.039,0.005,0.082,0.008,0.123,0.011
							s0.082,0.296,0.124,0.299c0.04,0,0.081,0.294,0.121,0.294s0.081,0,0.12,0c1.23,0,2.258-0.774,2.83-1.663
							c0.57-0.893,0.686-2.337,0.087-3.962c-0.599-1.623-1.905-3.645-4.179-5.845c-2.271-2.194-5.503-4.673-9.952-7.286
							c0.831-0.533,1.173-1.401,0.834-2.552c-0.339-1.146-1.36-2.599-3.257-4.308s-4.666-3.685-8.504-5.895
							c-3.832-2.206-8.729-4.654-14.882-7.305c0.103-2.377-4.342-8.121-12.105-15.474c-7.732-7.32-18.741-16.225-31.817-24.985
							c-13.014-8.719-28.08-17.024-44.047-23.788C329.822,320.199,312.984,316,296.301,314c0,0-0.008,0-0.021,0
							c-0.015,0-0.036,0-0.066,0c-0.029,0-0.064,0-0.106,0c-0.044,0-0.093,0-0.151,0c-0.028,0-0.058,0-0.09,0
							c-0.033,0-0.065,0-0.103,0c-0.034,0-0.073,0-0.112,0c-0.038,0-0.08,0-0.121,0c-0.255,0-1.707-3.859-4.964-8.09
							c-3.248-4.222-8.286-9.76-15.714-15.088c-7.403-5.309-17.185-10.846-29.957-14.754c-12.743-3.9-28.379-6.435-47.787-6.435"/>
					</g>
				</g>
			</g>
		</g>
		<g>
			<path id="patted_5_" fill="#CEA234" d="M303.068,362.063c0,0-48.686,89.902-60.842,102.059
				c-12.161,12.158-22.475,21.215-42.158,20.634c-19.686-0.579-27.738-0.073-27.738-0.073s-10.398,5.706,0.023,6.865
				c10.422,1.156,22.594-0.023,22.594-0.023l-27.205,13.879l-12.734,3.47c0,0-9.262,8.681,2.898,6.944
				c12.158-1.738,60.212-20.844,60.212-20.844l-19.104,27.718c0,0-4.054,6.438-3.476,13.965c0.579,7.526-2.894,15.052,6.369,2.895
				c9.265-12.158,27.791-31.844,33.002-36.474c5.209-4.633,10.42-6.369,35.314-9.264c24.896-2.895,24.896-2.895,24.896-2.895
				s19.104-9.264-6.657-12.45c-19.106-0.576-41.976,6.079-41.976,6.079s69.475-102.223,72.368-113.798
				c2.896-11.582,2.896-10.749,2.896-10.749h-19.104L303.068,362.063z"/>
			<path id="patteg_4_" fill="#DFB733" d="M355.915,361.229c0,0-24.704,110.969-30.105,117.143
				c-0.773,6.948-4.925,18.141-24.319,18.719c-12.449,0-39.082-0.048-41.685,2.269c-2.608,2.315-9.264,8.082,0,9.527
				c8.685-0.576,28.365-2.614,32.999-0.01c0.289,2.025-43.132,17.65-51.817,19.1c-8.685,1.447-18.527,7.233-20.263,15.051
				c4.922,0.29,14.764-2.609,14.764-2.609s33.002-10.999,39.949-11.867c6.945-0.867,41.973-14.477,41.973-14.477
				s3.475,0.58,0.868,6.371c-2.604,5.787-13.896,25.183-13.605,33.288c0.288,8.104,1.159,12.736,1.159,12.736
				s2.314,12.449,10.711-2.313c5.209-14.765,4.63-18.528,4.63-18.528s8.108-22,12.159-26.342
				c4.053-4.342,1.446-13.315,33.289-24.606c11.001-4.342,19.107-10.133,19.107-10.133s4.343-13.893-11.869-6.945
				c-10.421,5.21-24.646,11.289-24.646,11.289s-9.803,6.851-6.039-4.729c3.765-11.579,29.238-122.932,29.238-122.932H355.915z"/>
			<path id="tete_3_" fill="#49454D" d="M320.903,108.134c0,0-13.785-96.543-99.589-94.705c-33.471,0.833-61.27,11.287-83.041,40.19
				c4.639,11.073,29.229,66.115,37.627,80.586C189.713,151.839,277.855,161.694,320.903,108.134z"/>
			<path id="queue_3_" fill="#9E9FA4" d="M474.727,387.744c0,0,57.73,112.272,70.268,131.093
				c12.539,18.819,76.227,134.321,76.442,145.711c0.214,11.393,3.203,23.91-34.739,2.034c-4.72-0.302-23.779-4.313-30.649-24.665
				c-10.817-3.183-25.671-21.028-48.733-71.574c-22.59-41.274-106.1-202.374-106.1-202.374S426.115,316.115,474.727,387.744z"/>
			<path id="corps_3_" fill="#9E9FA4" d="M177.314,157.656c0,0-39.249,101.026,115.8,227.581
				c12.504,9.768,120.13,55.188,106.718-3.519c-8.17-36.287-132.497-246.768-145.912-253.822
				C240.504,120.84,193.662,126.934,177.314,157.656z"/>
			<path id="ventre" fill="#943214" d="M218.213,309.88c0,0,70.409,113.264,169.156,102.739c3.74,7.754,19.158,22.212,24.625,26.213
				c5.465,4.001,33.612,21.364,40.283,26.548c1.543-6.446-33.463-72.23-40.82-81.199c-7.355-8.968-124.316-92.942-124.316-92.942
				S207.742,259.02,218.213,309.88z"/>
			<path id="sous_le_bec" fill="#F2F2F2" d="M138.648,70.925c0,0,10.854,1.38,16.578,26.337c4.158-8.932,9.744-18.663,9.957-20.158
				C163.811,75.831,154.473,65.616,138.648,70.925z"/>
			<path id="joue" fill="#F2F2F2" d="M156.84,65.756c0,0,23.787-5.247,31.203,7.996c-3.521-1.879-9.455-3.562-9.455-3.562
				l18.803,20.393c0,0-35.653-11.601-40.605-15.741C154.838,73.725,131.728,67.504,156.84,65.756z"/>
			<path id="gorge_1_" fill="#943214" d="M155.138,93.051c0,0,5.757-20.341,19.542-13.935
				c18.734,12.982,81.413,47.892,81.283,50.822c-17.324,25.434-73.26,58.359-79.734,90.418c-8.615-27.806-2.451-60.819,2.25-65.481
				c-0.551-2.043,0.82-4.057-4.805-9.659C168.051,139.613,156.918,120.265,155.138,93.051z"/>
			<path id="aile_4_" fill="#49454D" d="M321.669,107.928c0,0-129.007-2.914-81.574,142.063
				c10.999,31.544,42.843,76.354,130.021,116.062c15.777,9.706,114.938,42.063,129.389,52.947
				c4.866,2.794,23.415,16.68-19.264-71.226c5.216,1.054,9.146-14.802-7.439-36.617c3.767-4.308,0.596-19.066-22.53-40.757
				C452.4,250.922,390.043,120.666,321.669,107.928z"/>
			<path id="bout_aile_1_" fill="#2C2B31" d="M236.664,238.813c6.536,37.948,46.273,87.532,133.451,127.239
				c15.777,9.706,114.938,42.063,129.389,52.947c4.866,2.794,23.415,16.68-19.264-71.226c5.216,1.054,9.146-14.802-7.439-36.617
				c3.767-4.308,0.596-19.066-22.53-40.757C413.742,269.051,335.816,297.476,236.664,238.813z"/>
			<path id="joue_noire" fill="#333333" d="M142.422,50.932c0,0,48.4,3.211,57.591,0.726c6.405-2.145,29.165-4.603,35.448,1.919
				c2.082,3.135-6.143,25.906-36.441,31.637c-4.432,1.557-8.383,0.143-20.432-15.022c-0.258-1.153,3.917,1.28,9.043,3.562
				C182.505,59.966,119.231,59.768,142.422,50.932z"/>
			<path id="bec_4_" fill="#364343" d="M142.422,50.932c0,0-38.565,6.322-38.521,18.639c0.297,2.111,0.85,6.311,4.321,1.674
				c2.53,0.238,21.2,6.594,40.105-2.525c8.459-2.205,15.161-4.718,27.229-2.641c-0.652-3.934-1.791-8.145-10.91-6.912
				c-9.119,1.234-23.133-1.961-23.133-1.961S135.619,54.143,142.422,50.932z"/>
			<path id="sous_oeil" fill="#F2F2F2" d="M199.209,69.955c0,0,14.821,0.101,17.871-11.408c1.574-3.303-0.282-14.719-11.213-2.721
				c-3.225,2.516-6.992,6.822-9.146,4.939C194.568,58.881,187.832,68.923,199.209,69.955z"/>
			
				<radialGradient id="oeil_32_" cx="-371.8818" cy="550.8203" r="17.2959" gradientTransform="matrix(0.9653 -0.2611 0.2611 0.9653 410.4082 -579.5598)" gradientUnits="userSpaceOnUse">
				<stop  offset="0" style="stop-color:#FFFFFF"/>
				<stop  offset="0.1386" style="stop-color:#D5D4D3"/>
				<stop  offset="0.2079" style="stop-color:#494340"/>
				<stop  offset="0.3663" style="stop-color:#28201D"/>
				<stop  offset="1" style="stop-color:#231B18"/>
			</radialGradient>
			<circle id="oeil_5_" fill="url(#oeil_32_)" cx="198.479" cy="52.07" r="11.107"/>
		</g>
	</g>
</g>
<g id="tyran_janeau">
</g>
<g id="colibri_fallevert">
</g>
<g id="colombe_a_queue_noire">
</g>
</svg>
