<?xml version="1.0" encoding="utf-8"?>
<!-- Generator: Adobe Illustrator 16.0.0, SVG Export Plug-In . SVG Version: 6.00 Build 0)  -->
<!DOCTYPE svg PUBLIC "-//W3C//DTD SVG 1.1//EN" "http://www.w3.org/Graphics/SVG/1.1/DTD/svg11.dtd">
<svg version="1.1" xmlns="http://www.w3.org/2000/svg" xmlns:xlink="http://www.w3.org/1999/xlink" x="0px" y="0px" width="732px"
	 height="692px" viewBox="0 0 732 692" enable-background="new 0 0 732 692" xml:space="preserve">
<g id="Calque_1" display="none">
	<rect x="220.41" y="649.836" display="inline" fill="none" width="415.59" height="37.879"/>
	<text transform="matrix(1 0 0 1 220.4102 674.6855)" display="inline" font-family="'MyriadPro-Regular'" font-size="35">Trembleur brun</text>
</g>
<g id="colombe_à_croissant">
</g>
<g id="colombe_rouviolette">
</g>
<g id="colibri_madere">
</g>
<g id="colibri_à_tête_bleue">
</g>
<g id="elenie_siffleuse">
</g>
<g id="grive_à_pieds_jaunes">
</g>
<g id="merle_à_lunette">
</g>
<g id="moucherolle_gobemouche">
</g>
<g id="moqueur_corossol">
</g>
<g id="moqueur_grivotte">
</g>
<g id="trembleur_brun">
	<g>
		<g opacity="0.3">
			<g>
				<g enable-background="new    ">
					<defs>
						<polygon id="SVGID_29_" enable-background="new    " points="6.128,551.28 9.071,318.91 654.567,320.611 725.872,549.164 
													"/>
					</defs>
					<clipPath id="SVGID_2_">
						<use xlink:href="#SVGID_29_"  overflow="visible"/>
					</clipPath>
					<g clip-path="url(#SVGID_2_)">
						<path fill="#959595" d="M525.793,367.501C525.793,367.501,525.793,367.501,525.793,367.501l-0.002,0.001v0.002
							c-0.002,0.002-0.002,0.002-0.004,0.004L525.793,367.501 M516.805,320.249c-1.808-0.005-3.539,0.01-5.19,0.037
							s-3.222,0.066-4.706,0.109s-2.882,0.091-4.189,0.134c-1.305,0.043-2.518,0.083-3.635,0.111
							c-5.857,0.257-11.354,1.081-16.398,2.258c-5.053,1.179-9.657,2.713-13.723,4.389c-4.076,1.679-7.609,3.5-10.512,5.247
							c-2.907,1.75-5.178,3.426-6.715,4.809c-2.842,2.366-5.402,4.768-7.682,7.1c-2.286,2.337-4.289,4.606-6.014,6.701
							c-1.727,2.099-3.17,4.021-4.335,5.663c-1.165,1.643-2.048,3.003-2.651,3.971c-0.021,0.024-0.042,0.047-0.063,0.071
							c-0.02,0.023-0.041,0.047-0.063,0.07c-0.021,0.023-0.042,0.048-0.063,0.07c-0.021,0.023-0.041,0.047-0.063,0.069
							c-0.784,0.851-2.166,1.669-3.8,2.417c-1.634,0.747-3.522,1.425-5.31,1.997c-1.79,0.572-3.481,1.038-4.728,1.36
							c-1.245,0.321-2.044,0.502-2.044,0.502l-24.049,5.127c0,0-1.084,0.256-2.861,0.698c-1.779,0.442-4.255,1.074-7.036,1.828
							c-2.784,0.755-5.875,1.632-8.882,2.566c-3.01,0.935-5.938,1.927-8.387,2.908c-9.251,1.357-18.674,3.313-28.113,5.67
							c-9.466,2.362-18.955,5.132-28.301,8.11c-9.38,2.987-18.62,6.188-27.552,9.396c-8.962,3.222-17.61,6.453-25.768,9.49
							c-5.089,2.915-9.206,5.345-12.59,7.413c-3.391,2.074-6.042,3.781-8.198,5.25c-2.161,1.471-3.824,2.701-5.233,3.813
							c-1.411,1.117-2.569,2.117-3.724,3.128c-1.348,0.652-3.547,1.542-7.08,2.622c-3.539,1.081-8.418,2.352-15.123,3.761
							c-6.719,1.411-15.271,2.96-26.154,4.6c-10.905,1.64-24.15,3.372-40.236,5.139c-4.52,0.417-12.756,1.465-22.85,2.88
							c-10.111,1.417-22.098,3.203-34.082,5.093c-12.013,1.895-24.025,3.895-34.143,5.73c-10.137,1.84-18.365,3.514-22.762,4.75
							c-0.752,0.115-1.612,0.313-2.376,0.546c-0.761,0.23-1.427,0.498-1.782,0.75c-0.357,0.252-0.405,0.213,0.063,0.385
							c0.467,0.176,1.449,0.01,3.158,0.01c0.07,0,0.144,0,0.219,0s0.15,0.273,0.227,0.273c0.077-0.002,0.156,0.133,0.236,0.133
							c0.079-0.002,0.162,0.065,0.244,0.063c-1.021,0.281-2.023,0.636-2.954,0.959c-0.931,0.322-1.788,0.667-2.517,0.957
							c-0.73,0.29-1.334,0.554-1.753,0.735c-0.419,0.186-0.657,0.297-0.657,0.297s-0.226,0.117-0.484,0.29
							c-0.26,0.172-0.551,0.4-0.683,0.629c-0.133,0.229-0.106,0.459,0.272,0.63s1.111,0.284,2.388,0.282
							c0.137,0,0.278-0.002,0.429-0.004c0.148-0.004,0.304-0.008,0.467-0.014c0.162-0.005,0.331-0.011,0.508-0.021
							c0.177-0.008,0.359-0.02,0.55-0.031c-0.709,0.162-1.517,0.442-2.332,0.773c-0.814,0.33-1.636,0.713-2.368,1.074
							s-1.376,0.703-1.836,0.955c-0.461,0.252-0.74,0.414-0.74,0.414s-0.403,0.121-0.919,0.304
							c-0.517,0.181-1.146,0.425-1.595,0.667c-0.45,0.242-0.722,0.318-0.521,0.5c0.2,0.18,0.871,0.133,2.305,0.133
							c0.055,0,0.109,0,0.168,0c0.057,0,0.115,0.166,0.173,0.164c0.06,0,0.119,0.082,0.181,0.08c0.062,0,0.125,0.038,0.188,0.038
							c1.737-0.042,7.956-0.924,16.638-2.266c8.668-1.342,19.779-3.109,31.327-4.909c11.522-1.797,23.478-3.609,33.888-5.037
							c10.393-1.425,19.254-2.46,24.627-2.702c3.541-0.111,8.888-0.644,15.36-1.407c6.467-0.762,14.056-1.748,22.098-2.768
							c8.029-1.015,16.509-2.062,24.777-2.943c8.257-0.881,16.304-1.6,23.485-1.959c-1.63,1.469-2.674,2.648-3.32,3.591
							c-0.646,0.943-0.896,1.649-0.939,2.17c-0.044,0.523,0.115,0.859,0.286,1.067c0.173,0.207,0.356,0.284,0.356,0.284
							s-0.198,0.117-0.553,0.333c-0.352,0.213-0.859,0.522-1.478,0.905c-0.617,0.383-1.348,0.838-2.146,1.344
							s-1.663,1.06-2.553,1.642c-1.59,1.086-2.695,1.975-3.412,2.693c-0.719,0.721-1.048,1.272-1.083,1.689
							c-0.032,0.417,0.228,0.696,0.685,0.873c0.458,0.175,1.113,0.246,1.871,0.246c0.607,0,1.277-0.048,1.966-0.125
							c0.687-0.077,1.39-0.183,2.062-0.302c0.668-0.119,1.305-0.252,1.858-0.383c0.554-0.129,1.024-0.256,1.363-0.361
							c0.763-0.238,3.481-0.857,7.263-1.655c3.777-0.798,8.616-1.772,13.623-2.728c5.003-0.954,10.178-1.886,14.638-2.602
							c4.458-0.713,8.204-1.211,10.365-1.291c0.081,0.002,0.161-0.341,0.244-0.341c0.081,0,0.163-0.342,0.244-0.342
							c0.083,0,0.163,0,0.246,0s0.165,0,0.248,0c1.707,0,3.509,0.296,5.389,0.209c1.88-0.086,3.839-0.041,5.861-0.203
							c2.024-0.16,4.111-0.27,6.249-0.498c2.136-0.228,4.324-0.44,6.546-0.725c0.117,0.078,0.238,0.176,0.359,0.253
							c0.121,0.076,0.242,0.163,0.367,0.236c0.123,0.074,0.248,0.152,0.373,0.226c0.127,0.073,0.254,0.146,0.383,0.216
							c4.812,0.678,9.577,1.268,14.295,1.771c4.719,0.504,9.391,0.924,14.008,1.265c4.62,0.342,9.186,0.605,13.697,0.798
							c4.51,0.19,8.964,0.312,13.36,0.365c2.42,2.668,6.07,6.682,10.264,11.276c4.208,4.613,8.97,9.817,13.579,14.827
							c4.634,5.033,9.11,9.869,12.717,13.705c3.618,3.849,6.352,6.682,7.469,7.689c0.683,0.611,1.124,1.109,1.38,1.511
							s0.321,0.707,0.248,0.937c-0.073,0.23-0.286,0.384-0.588,0.48c-0.304,0.096-0.698,0.135-1.133,0.135
							c-0.425,0.002-0.888-0.035-1.344-0.087c-0.457-0.054-0.907-0.127-1.303-0.198c-0.396-0.071-0.738-0.143-0.982-0.196
							s-0.391-0.09-0.391-0.09s-0.814-0.107-2.189-0.292s-3.307-0.448-5.542-0.762c-2.234-0.312-4.771-0.675-7.355-1.058
							c-2.583-0.382-5.214-0.786-7.632-1.184c-0.54-0.071-1.051-0.131-1.535-0.183c-0.485-0.052-0.944-0.093-1.377-0.125
							c-0.433-0.033-0.84-0.056-1.225-0.071s-0.744-0.023-1.082-0.023c-1.982,0.004-3.184,0.273-3.874,0.675
							c-0.688,0.4-0.865,0.933-0.792,1.465c0.071,0.535,0.393,1.067,0.694,1.467c0.302,0.4,0.586,0.667,0.586,0.667
							s0.492,0.125,1.386,0.331c0.896,0.206,2.193,0.494,3.803,0.817c1.611,0.324,3.537,0.684,5.685,1.038
							c2.149,0.352,4.521,0.695,7.03,0.987c7.197,0.706,12.568,1.494,16.646,2.306c4.079,0.813,6.863,1.649,8.88,2.449
							c2.017,0.801,3.266,1.564,4.277,2.233c1.011,0.669,1.783,1.24,2.847,1.653s2.561,1.302,4.206,2.402
							c1.647,1.104,3.449,2.419,5.117,3.684c1.669,1.267,3.209,2.484,4.33,3.384c1.122,0.901,1.826,1.483,1.826,1.483
							s0.017,0.11,0.157,0.369c0.142,0.262,0.407,0.675,0.903,1.284c0.496,0.611,1.225,1.419,2.29,2.467
							c1.068,1.052,2.474,2.344,4.329,3.922c0.873,0.526,1.664,0.965,2.386,1.326c0.721,0.359,1.37,0.644,1.953,0.861
							c0.582,0.217,1.101,0.369,1.561,0.467c0.46,0.097,0.861,0.139,1.211,0.137c0.665-0.002,1.147-0.157,1.498-0.395
							c0.348-0.234,0.565-0.546,0.697-0.856c0.133-0.312,0.183-0.623,0.198-0.857c0.018-0.233,0-0.389,0-0.389
							s-0.014-0.135-0.058-0.396c-0.042-0.259-0.115-0.644-0.234-1.146c-0.117-0.5-0.278-1.115-0.502-1.836
							c-0.223-0.721-0.506-1.545-0.863-2.464c-0.355-0.919-1.465-2.104-2.978-3.401c-1.513-1.295-3.43-2.702-5.404-4.069
							c-1.972-1.367-4.004-2.693-5.751-3.827c-1.746-1.133-3.207-2.074-4.043-2.675c-0.837-0.602-1.29-1.082-1.499-1.465
							c-0.21-0.384-0.176-0.67-0.035-0.882c0.139-0.212,0.383-0.348,0.59-0.433c0.21-0.085,0.383-0.115,0.383-0.115
							s1.959,0.223,4.996,0.556c3.039,0.334,7.157,0.778,11.479,1.225c4.322,0.444,8.847,0.677,12.693,1.011
							c3.847,0.33,7.018,0.336,8.626,0.336c0.018,0,0.032,0,0.05,0s0.033,0,0.049,0c0.017,0,0.032,0,0.048,0c0.015,0,0.03,0,0.046,0
							c0.021,0,0.044,0,0.065,0c0.021,0,0.044,0,0.067,0c0.021,0,0.044,0,0.066,0c0.023,0,0.047,0,0.072,0
							c1.636,0,4.673,0.361,8.308,0.598c3.638,0.236,7.872,0.656,11.903,0.974c4.031,0.316,7.861,0.688,10.682,0.926
							c2.819,0.238,4.631,0.423,4.631,0.423s0.296,0.034,0.803,0.065c0.508,0.03,1.229,0.078,2.076,0.118s1.824,0.081,2.848,0.111
							c1.021,0.029,2.088,0.051,3.116,0.047c0.376,0,0.747-0.004,1.108-0.012c0.361-0.007,0.714-0.016,1.054-0.029
							c0.339-0.016,0.663-0.033,0.973-0.056c0.308-0.021,0.599-0.048,0.869-0.081c-0.788-0.84-1.969-1.59-3.414-2.241
							c-1.442-0.649-3.151-1.203-4.994-1.651c-1.844-0.45-3.823-0.794-5.813-1.03c-1.988-0.236-3.987-0.361-5.869-0.373
							s-5.758-0.268-10.512-0.657c-4.756-0.393-10.391-0.917-15.794-1.471c-5.401-0.554-10.573-1.135-14.404-1.634
							c-3.831-0.5-6.323-0.917-6.367-1.146c0.833-0.369,2.505-0.673,4.662-0.927c2.155-0.253,4.792-0.457,7.555-0.624
							c2.761-0.169,5.648-0.302,8.301-0.413c2.653-0.112,5.071-0.204,6.901-0.289c1.846-0.317,2.809-0.687,3.174-1.074
							c0.365-0.387,0.133-0.794-0.413-1.187c-0.544-0.392-1.403-0.772-2.29-1.105c-0.886-0.332-1.803-0.62-2.464-0.83
							c-0.121-0.038-0.284-0.073-0.484-0.1c-0.2-0.029-0.44-0.051-0.714-0.067c-0.274-0.02-0.584-0.031-0.924-0.039
							c-0.343-0.008-0.716-0.012-1.117-0.012c-1.78,0.004-4.129,0.091-6.784,0.229c-2.655,0.14-5.615,0.33-8.616,0.542
							c-3.003,0.213-6.048,0.446-8.867,0.671c-2.822,0.223-5.42,0.437-7.528,0.609c-0.395,0.026-0.78,0.048-1.161,0.067
							s-0.754,0.036-1.123,0.048c-0.369,0.014-0.73,0.023-1.088,0.03c-0.355,0.006-0.707,0.01-1.052,0.01
							c-3.222,0.008-5.94-0.24-8.231-0.659s-4.158-1.007-5.677-1.682c-1.521-0.675-2.691-1.435-3.599-2.193
							c-0.905-0.76-1.546-1.521-1.999-2.197c-1.149-0.472-3.781-2.753-7.245-6.089c-3.453-3.325-7.727-7.693-12.173-12.351
							c-4.429-4.639-9.027-9.564-13.167-14.041c-4.123-4.46-7.795-8.481-10.397-11.346c2.545-0.049,5.067-0.12,7.568-0.21
							c2.499-0.091,4.974-0.2,7.424-0.329c2.451-0.128,4.877-0.276,7.278-0.439c2.399-0.164,4.775-0.345,7.122-0.543
							c2.809,1.925,9.17,5.518,17.155,9.837c8.017,4.335,17.677,9.408,27.02,14.259c9.381,4.871,18.439,9.514,25.164,12.945
							c6.745,3.442,11.13,5.659,11.13,5.659s-0.536-0.036-1.503-0.09c-0.965-0.055-2.361-0.125-4.079-0.196
							c-1.719-0.073-3.759-0.143-6.014-0.194s-4.726-0.085-7.303-0.081c-1.382,0.004-2.794,0.018-4.22,0.044
							c-1.427,0.027-2.868,0.067-4.309,0.123c-1.439,0.059-2.877,0.131-4.298,0.224c-1.421,0.094-2.822,0.205-4.188,0.34
							c-5.17,0.782-7.943,1.544-9.195,2.243c-1.253,0.7-0.984,1.342-0.065,1.885c0.919,0.542,2.485,0.986,3.821,1.295
							c1.339,0.308,2.445,0.482,2.445,0.482s0,0,0.333-0.007c0.333-0.006,0.996-0.02,2.322-0.047
							c1.326-0.024,3.316-0.063,6.302-0.123c2.983-0.058,6.961-0.136,12.265-0.24c1.167-0.022,2.286-0.044,3.356-0.062
							c1.07-0.017,2.094-0.032,3.074-0.046c0.979-0.012,1.912-0.022,2.807-0.028c0.892-0.008,1.743-0.014,2.555-0.014
							c2.874-0.006,5.264,0.022,7.293,0.09c2.032,0.067,3.707,0.174,5.15,0.321c1.441,0.148,2.656,0.337,3.766,0.571
							s2.117,0.513,3.147,0.84c1.324,0.421,3.537,1.199,6.272,2.205c2.737,1.005,6,2.239,9.422,3.567
							c3.426,1.331,7.011,2.759,10.389,4.15c3.379,1.395,6.551,2.753,9.141,3.943c0.955,0.44,1.783,0.812,2.499,1.124
							c0.717,0.312,1.32,0.562,1.828,0.758c0.505,0.196,0.915,0.336,1.239,0.429c0.325,0.092,0.565,0.135,0.736,0.135
							c0.295-0.002,0.385-0.129,0.343-0.354c-0.042-0.224-0.218-0.545-0.452-0.933c-0.234-0.389-0.53-0.842-0.813-1.332
							c-0.283-0.492-0.556-1.02-0.742-1.554c-0.299-0.844-0.819-1.638-1.435-2.353c-0.613-0.716-1.32-1.354-1.991-1.885
							c-0.669-0.532-1.302-0.957-1.767-1.251c-0.466-0.292-0.764-0.454-0.764-0.454l-21.784-10.884c0,0,2.709,0.317,6.941,0.792
							c4.233,0.477,9.989,1.111,16.077,1.745c6.09,0.635,12.515,0.896,18.078,1.368c5.565,0.475,10.27,0.41,12.918,0.41
							c0.01,0,0.02,0,0.029,0s0.019,0,0.028,0s0.02,0,0.029,0s0.02,0,0.029,0c2.595,0,3.944,0.146,4.508-0.162
							c0.561-0.307,0.338-0.522-0.21-0.924c-0.548-0.402-1.419-0.707-2.153-1.005c-0.734-0.299-1.332-0.45-1.332-0.45l-11.227-0.631
							l-25.396-4.214c0,0,0.641-0.013,1.732-0.06c1.09-0.047,2.631-0.117,4.431-0.23c1.8-0.111,3.858-0.26,5.984-0.456
							c2.126-0.198,4.321-0.44,6.392-0.74c2.072-0.302,3.015-0.638,3.263-0.973c0.25-0.334-0.196-0.669-0.899-0.965
							c-0.706-0.296-1.667-0.556-2.453-0.74s-1.397-0.294-1.397-0.294s-0.417,0.021-1.294,0.079s-2.211,0.149-4.047,0.29
							c-1.836,0.143-4.172,0.333-7.049,0.586c-2.88,0.254-6.302,0.569-10.309,0.962c-0.693,0.067-1.378,0.127-2.051,0.177
							c-0.675,0.052-1.34,0.092-1.993,0.127c-0.655,0.032-1.302,0.058-1.938,0.074c-0.638,0.018-1.265,0.027-1.885,0.027
							c-2.961,0.006-5.737-0.165-8.399-0.484c-2.661-0.319-5.208-0.786-7.707-1.369c-2.499-0.58-4.952-1.278-7.426-2.063
							c-2.474-0.782-4.972-1.649-7.559-2.57c-2.465-0.876-6.713-2.958-11.937-5.73c-5.211-2.767-11.39-6.217-17.731-9.841
							c-6.325-3.615-12.812-7.402-18.677-10.863c-5.85-3.448-11.084-6.574-14.933-8.887c4.554-0.542,8.993-1.137,13.314-1.772
							c4.315-0.635,8.513-1.31,12.582-2.015c4.067-0.704,8.011-1.437,11.82-2.188c3.809-0.75,7.486-1.517,11.029-2.294
							c9.97-2.182,18.622-5.5,26.142-9.321c7.49-3.809,13.852-8.11,19.281-12.29c5.408-4.162,9.895-8.2,13.667-11.515
							c3.758-3.301,6.813-5.887,9.367-7.157c2.552-1.269,5.21-3.521,7.727-6.282c2.509-2.753,4.875-6.006,6.854-9.283
							c1.973-3.268,3.563-6.563,4.529-9.418c0.963-2.849,1.31-5.261,0.802-6.783c-0.5-1.577-0.636-3.146-0.54-4.641
							c0.094-1.492,0.421-2.911,0.848-4.191c0.429-1.276,0.957-2.416,1.457-3.35c0.502-0.934,0.975-1.662,1.294-2.122
							c0.056-0.08,0.107-0.151,0.153-0.215c0.045-0.063,0.085-0.117,0.119-0.163c0.033-0.044,0.063-0.081,0.081-0.109
							c0.021-0.027,0.037-0.045,0.042-0.054l-0.144,0.185c0.139-0.201,0.296-0.439,0.467-0.708c0.173-0.267,0.358-0.564,0.554-0.882
							c0.196-0.318,0.4-0.658,0.611-1.009c0.21-0.351,0.425-0.714,0.641-1.081c0.409-0.423,0.816-0.836,1.215-1.238
							c0.399-0.402,0.79-0.795,1.165-1.177c0.374-0.38,0.732-0.749,1.064-1.106c0.335-0.358,0.643-0.702,0.917-1.034
							c0.948-1.669,2.826-3.549,5.23-5.504c2.401-1.949,5.327-3.974,8.38-5.937c3.048-1.957,6.222-3.854,9.128-5.558
							c2.9-1.699,5.536-3.206,7.517-4.386c0.278,0.02,0.56,0.038,0.84,0.054c0.282,0.015,0.563,0.028,0.846,0.04
							c0.282,0.01,0.567,0.019,0.85,0.024s0.567,0.009,0.852,0.009c0.181,0,0.361,0,0.542-0.002
							c0.183-0.001,0.363-0.004,0.544-0.008s0.362-0.009,0.542-0.015c0.182-0.005,0.359-0.013,0.541-0.021
							c3.812-1.951,10.296-3.523,17.997-4.793c7.686-1.267,16.586-2.234,25.25-2.974c8.655-0.739,17.075-1.252,23.818-1.614
							c6.738-0.361,11.806-0.57,13.753-0.702c1.947-0.131,3.543-0.333,4.754-0.58c1.213-0.247,2.045-0.541,2.467-0.859
							c0.42-0.317,0.432-0.658,0.006-1s-1.289-0.684-2.619-1.005c-2.184-0.417-4.921-0.873-8.039-1.322
							c-3.12-0.45-6.621-0.893-10.331-1.285c-3.71-0.393-7.632-0.733-11.592-0.979c-3.962-0.246-7.962-0.396-11.836-0.406
							c-0.401-0.001-0.802,0-1.201,0.001c-0.398,0.002-0.796,0.006-1.19,0.011c-0.396,0.004-0.79,0.011-1.182,0.02
							c-0.393,0.009-0.783,0.019-1.169,0.03c-7.734,0.113-14.447,0.272-20.277,0.481c-5.835,0.208-10.784,0.467-14.991,0.778
							c-4.208,0.311-7.672,0.675-10.526,1.095c-2.856,0.419-5.106,0.895-6.886,1.43c-0.621-0.227-1.23-0.438-1.818-0.629
							c-0.587-0.192-1.154-0.366-1.688-0.52c-0.536-0.153-1.04-0.286-1.503-0.396c-0.462-0.11-0.885-0.198-1.254-0.262
							c-2.943-0.476-5.813-0.865-8.603-1.18c-2.787-0.315-5.494-0.557-8.11-0.739c-2.614-0.183-5.139-0.307-7.561-0.387
							C521.334,320.29,519.014,320.254,516.805,320.249"/>
					</g>
				</g>
			</g>
		</g>
		<g>
			<path id="patted_9_" fill="#232323" d="M395.432,405.113c0,0,50.574,66.954,61.952,75.358
				c11.381,8.403,20.861,14.395,36.804,11.514c15.946-2.88,22.55-3.513,22.55-3.513s9.152,3.345,0.817,5.563
				c-8.338,2.217-18.389,2.729-18.389,2.729l23.828,7.957l10.789,1.257c0,0,8.595,5.931-1.512,6.004
				c-10.104,0.075-51.535-9.591-51.535-9.591l18.934,20.212c0,0,4.088,4.742,4.537,10.935c0.45,6.195,4.196,11.894-4.829,3.138
				c-9.021-8.759-26.504-22.506-31.308-25.638c-4.806-3.129-9.258-3.904-29.866-3.214c-20.605,0.692-20.605,0.692-20.605,0.692
				s-16.677-5.198,3.891-10.942c15.474-2.809,34.894-0.19,34.894-0.19s-68.964-74.211-72.731-83.275
				c-3.773-9.065-3.604-7.938-3.604-7.938l15.542-2.337L395.432,405.113z"/>
			<path id="patteg_10_" fill="#333333" d="M352.271,410.451c0,0,33.674,87.253,38.826,91.615
				c1.479,5.559,6.225,14.156,22.074,12.253c10.13-1.522,31.79-4.819,34.189-3.255c2.405,1.563,8.524,5.44,1.167,7.751
				c-7.136,0.592-23.398,1.342-26.85,4.029c0.014,1.685,37.25,9.081,44.493,9.198c7.243,0.114,15.956,3.616,18.326,9.764
				c-3.968,0.837-12.328-0.314-12.328-0.314s-28.193-4.91-33.951-4.768c-5.76,0.144-35.919-6.64-35.919-6.64s-2.76,0.896,0.07,5.286
				c2.828,4.393,14.387,18.787,15.145,25.418c0.758,6.63,0.615,10.504,0.615,10.504s-0.359,10.411-8.996-0.573
				c-6.047-11.373-6.037-14.505-6.037-14.505s-9.285-16.907-13.112-19.942c-3.829-3.037-2.809-10.657-30.093-15.946
				c-9.482-2.184-16.784-5.903-16.784-5.903s-5.232-10.772,8.805-7.104c9.116,2.966,21.433,6.168,21.433,6.168
				s8.812,4.376,4.333-4.584c-4.478-8.961-38.828-96.433-38.828-96.433L352.271,410.451z"/>
			<path id="queue_11_" fill="#664F3A" d="M247.526,351.676c0,0-8.116,16.231-90.899,34.089
				c-17.855,3.244-94.553,26.071-111.596,35.506c-3.043,0.913-7.913,4.565,0,4.262c-3.957,2.13-7.607,5.477-7.607,5.477
				s-4.262,4.263,3.348,3.35c-2.74,1.217-7.002,6.086-7.002,6.086s-6.695,3.956,0,3.652c6.697-0.304,82.481-26.479,103.481-28.305
				c15.216-0.913,64.826-17.532,92.522-17.897c27.999-2.493,38.347-26.538,38.347-26.538S270.758,350.56,247.526,351.676z"/>
			<linearGradient id="SVGID_3_" gradientUnits="userSpaceOnUse" x1="602.7764" y1="131.4707" x2="336.179" y2="421.8078">
				<stop  offset="0" style="stop-color:#524741"/>
				<stop  offset="0.2822" style="stop-color:#5C4D42"/>
				<stop  offset="0.4703" style="stop-color:#705A44"/>
				<stop  offset="1" style="stop-color:#7A6045"/>
			</linearGradient>
			<path fill="url(#SVGID_3_)" d="M599.132,121.484c-21.913-7.608-41.087-4.869-51.74-4.261
				c-25.261,2.435-46.462,25.06-54.173,37.233c-14.072,20.789-23.352,42.577-26.653,50.878c-0.11,0.206-0.22,0.409-0.325,0.604
				c-3.956,7.304-17.761,13.445-17.761,13.445l-25.869,10.957c0,0-33.276,15.421-36.523,24.754
				c-3.245,9.333-53.567,109.566-81.566,116.871s-26.173,28.608-17.044,38.957c64.522,18.26,122.35,3.043,163.74-14.001
				c41.393-17.042,65.739-70,77.307-80.348c11.564-10.348,28.608-52.957,27.999-65.74c-0.507-13.249,4.954-26.356,6.745-30.273
				c0.351-0.762,0.561-1.176,0.561-1.176l-0.21,0.415c0.782-1.709,2.036-4.729,3.312-7.873c2.135-3.619,4.231-6.928,5.724-9.788
				c6.999-17.652,38.957-46.565,42.002-51.74C621.654,138.224,604.914,123.616,599.132,121.484z"/>
			<path id="aile_15_" fill="#4E3B2D" d="M474.349,261.182c0,0,24.956,20.087-15.22,70.609
				c-15.215,17.045-60.869,42.001-73.651,41.392c-6.695-1.217-15.827,5.479-24.956,9.131c-9.132,3.652-70.002,31.045-99.22,30.436
				c-8.521,0.609-42.607,14-45.652,15.826c-3.043,1.826-16.638,6.696-4.869-8.319c3.652-4.464,6.899-8.116,6.899-8.116
				s-5.277-4.464,16.636-30.841c3.652-5.681,10.146-11.361,10.146-11.361s-8.93-2.436-0.812-12.987
				c5.783-9.333,9.245-15.856,33.479-42.203c37.131-26.783,84.609-61.479,126.002-70.001
				C426.87,239.269,460.955,239.269,474.349,261.182z"/>
			<path id="bec_13_" fill="#333333" d="M616.176,155.674c-10.842,8.326-26.631-8.32-17.044-24.348
				c5.275-8.522,18.666-12.986,63.712-14.609c17.854-1.217,38.956,4.463,48.695,8.522c5.276,2.84,2.436,6.493-6.088,7.71
				C696.929,134.167,629.685,140.015,616.176,155.674z"/>
			<ellipse id="oeil_7_" fill="#EDB100" cx="585.284" cy="145.529" rx="7.456" ry="8.674"/>
			<radialGradient id="oeil_5_" cx="586.5508" cy="143.8037" r="6.055" gradientUnits="userSpaceOnUse">
				<stop  offset="0" style="stop-color:#FFFFFF"/>
				<stop  offset="0.1386" style="stop-color:#D5D4D3"/>
				<stop  offset="0.2079" style="stop-color:#494340"/>
				<stop  offset="0.3663" style="stop-color:#28201D"/>
				<stop  offset="1" style="stop-color:#231B18"/>
			</radialGradient>
			<circle id="oeil_9_" fill="url(#oeil_5_)" cx="585.741" cy="145.225" r="3.804"/>
		</g>
	</g>
</g>
<g id="trembleur_gris">
</g>
<g id="paruline_cafeite">
</g>
<g id="saltator_gros_bec">
</g>
<g id="soporophile_rouge-gorge">
</g>
<g id="sucrier_à_ventre_jaune">
</g>
<g id="vachet_luisant">
</g>
<g id="vireo_a_moustaches">
</g>
<g id="merle_quiscale">
</g>
<g id="paruline_jaune">
</g>
<g id="tyran_gris">
</g>
<g id="sporophile_cici">
</g>
<g id="tourterelle_à_queue_carree">
</g>
<g id="colobri_huppé">
</g>
<g id="cécerelle_d_x27_amerique">
</g>
<g id="heron_vert">
</g>
<g id="pic_de_la_guadeloupe">
</g>
<g id="héron_garde-boeufs">
</g>
</svg>
