<?xml version="1.0" encoding="utf-8"?>
<!-- Generator: Adobe Illustrator 16.0.0, SVG Export Plug-In . SVG Version: 6.00 Build 0)  -->
<!DOCTYPE svg PUBLIC "-//W3C//DTD SVG 1.1//EN" "http://www.w3.org/Graphics/SVG/1.1/DTD/svg11.dtd">
<svg version="1.1" xmlns="http://www.w3.org/2000/svg" xmlns:xlink="http://www.w3.org/1999/xlink" x="0px" y="0px" width="732px"
	 height="692px" viewBox="0 0 732 692" enable-background="new 0 0 732 692" xml:space="preserve">
<g id="Calque_1" display="none">
	<rect x="220.41" y="-36.879" display="inline" fill="none" width="415.59" height="37.879"/>
	<text transform="matrix(1 0 0 1 220.4102 -12.0293)" display="inline" font-family="'MyriadPro-Regular'" font-size="35">Vacher luisant</text>
	<rect x="180.41" y="639.182" display="inline" fill="none" width="415.59" height="37.879"/>
	<text transform="matrix(1 0 0 1 180.4102 664.0313)" display="inline" font-family="'MyriadPro-Regular'" font-size="35">Tourterelle à queue carré</text>
</g>
<g id="colombe_à_croissant">
</g>
<g id="colombe_rouviolette">
</g>
<g id="colibri_madere">
</g>
<g id="colibri_à_tête_bleue">
</g>
<g id="elenie_siffleuse">
</g>
<g id="grive_à_pieds_jaunes">
</g>
<g id="merle_à_lunette">
</g>
<g id="moucherolle_gobemouche">
</g>
<g id="moqueur_corossol">
</g>
<g id="moqueur_grivotte">
</g>
<g id="trembleur_brun">
</g>
<g id="trembleur_gris">
</g>
<g id="paruline_cafeite">
</g>
<g id="saltator_gros_bec">
</g>
<g id="soporophile_rouge-gorge">
</g>
<g id="sucrier_à_ventre_jaune">
</g>
<g id="vachet_luisant">
</g>
<g id="vireo_a_moustaches">
</g>
<g id="merle_quiscale">
</g>
<g id="paruline_jaune">
</g>
<g id="tyran_gris">
</g>
<g id="sporophile_cici">
</g>
<g id="tourterelle_à_queue_carree">
	<g>
		<g opacity="0.3">
			<g>
				<g enable-background="new    ">
					<defs>
						<polygon id="SVGID_55_" enable-background="new    " points="14.21,626.684 9.897,333.765 639.645,335.541 722.103,624.438 
													"/>
					</defs>
					<clipPath id="SVGID_2_">
						<use xlink:href="#SVGID_55_"  overflow="visible"/>
					</clipPath>
					<g clip-path="url(#SVGID_2_)">
						<path fill="#959595" d="M343.164,590.273c1.314-0.003,2.471-0.148,3.466-0.364c0.996-0.216,1.831-0.501,2.502-0.786
							c0.668-0.286,1.174-0.572,1.513-0.785c0.336-0.213,0.508-0.355,0.508-0.355s0.012-0.005,0.031-0.013
							c0.023-0.008,0.053-0.019,0.093-0.035c0.041-0.016,0.091-0.034,0.149-0.058c0.059-0.022,0.126-0.049,0.198-0.08
							c-1.485,1.586-3.075,2.728-4.685,3.564c-1.61,0.839-3.238,1.371-4.801,1.744c-1.563,0.372-3.057,0.582-4.398,0.774
							c-1.343,0.192-2.533,0.366-3.485,0.663c-0.241,0.077-0.549,0.145-0.912,0.205c-0.364,0.06-0.784,0.113-1.253,0.158
							c-0.468,0.046-0.984,0.084-1.543,0.118c-0.555,0.034-1.153,0.062-1.783,0.083l1.657-0.404c0,0,0.246-0.131,0.685-0.372
							c0.438-0.239,1.067-0.589,1.835-1.027c0.768-0.437,1.673-0.963,2.662-1.556c0.989-0.594,2.06-1.253,3.159-1.959
							c0.406,0.088,0.801,0.161,1.188,0.223c0.386,0.063,0.763,0.113,1.131,0.151c0.365,0.04,0.723,0.067,1.07,0.085
							S342.837,590.273,343.164,590.273 M360.313,575.412c-0.11-0.266-0.219-0.533-0.325-0.805c-0.106-0.27-0.21-0.543-0.308-0.818
							c-0.097-0.275-0.189-0.554-0.272-0.835c-0.084-0.282-0.16-0.565-0.229-0.854c-0.196-0.838-0.074-1.886,0.289-3.132
							c0.361-1.244,0.964-2.685,1.729-4.311c0.766-1.623,1.691-3.432,2.703-5.409c1.009-1.976,2.104-4.122,3.206-6.426
							c0.535-0.615,1.029-1.208,1.487-1.779c0.459-0.571,0.883-1.121,1.271-1.649c0.391-0.528,0.748-1.035,1.072-1.523
							c0.328-0.487,0.623-0.953,0.893-1.401c0.04,0,0.081,0,0.119,0c0.041,0,0.082,0,0.12,0c0.04,0,0.081,0.001,0.122,0.002
							c0.038,0,0.078,0.001,0.119,0.003c0.718,1.129,1.016,2.212,1.059,3.225s-0.164,1.953-0.458,2.794s-0.671,1.583-0.962,2.198
							s-0.494,1.104-0.442,1.438c0.038,0.244-0.291,1.028-0.894,2.2c-0.604,1.173-1.479,2.735-2.536,4.538
							c-1.059,1.807-2.298,3.854-3.622,5.992C363.128,571.002,361.715,573.237,360.313,575.412 M105.542,334.034
							c-5.503-0.016-10.779,0.333-15.696,0.991c-4.92,0.658-9.483,1.627-13.559,2.851c-4.08,1.227-7.67,2.707-10.635,4.391
							c-2.969,1.687-5.314,3.575-6.896,5.612c-0.021,0.025-0.048,0.068-0.081,0.126c-0.034,0.058-0.074,0.13-0.12,0.216
							c-0.047,0.086-0.099,0.184-0.153,0.295c-0.057,0.11-0.115,0.23-0.178,0.362c-0.023,0.01-0.043,0.021-0.063,0.032
							c-0.021,0.013-0.038,0.026-0.057,0.042c-0.019,0.015-0.036,0.032-0.052,0.053c-0.019,0.02-0.034,0.041-0.053,0.065
							c-0.391,0.57-1.641,1.627-3.301,2.893c-1.661,1.267-3.732,2.743-5.757,4.151c-2.025,1.409-4.006,2.747-5.479,3.735
							c-1.475,0.988-2.443,1.623-2.443,1.623s-0.065,0.051-0.163,0.138c-0.099,0.087-0.229,0.21-0.365,0.352
							c-0.134,0.142-0.269,0.303-0.375,0.466c-0.106,0.165-0.183,0.332-0.198,0.486c-0.912,0.063-1.658,0.207-2.306,0.406
							c-0.646,0.198-1.196,0.452-1.718,0.735c-0.52,0.284-1.012,0.598-1.545,0.915c-0.533,0.316-1.104,0.639-1.786,0.939
							c-0.837,0.371-1.675,0.772-2.53,1.182c-0.858,0.407-1.734,0.822-2.653,1.216c-0.919,0.396-1.881,0.77-2.903,1.101
							c-1.023,0.331-2.109,0.616-3.276,0.831c-1.17,0.217-2.64,0.955-4.109,1.977c-1.472,1.022-2.944,2.331-4.116,3.687
							c-1.172,1.356-2.041,2.76-2.305,3.973c-0.265,1.212,0.076,2.23,1.332,2.814c0.078,0.037,0.162,0.067,0.248,0.092
							c0.088,0.026,0.181,0.047,0.277,0.063c0.095,0.017,0.196,0.028,0.301,0.036c0.105,0.008,0.214,0.011,0.327,0.013
							c0.265,0,0.551-0.02,0.854-0.054c0.305-0.035,0.63-0.085,0.969-0.144s0.695-0.127,1.065-0.202
							c0.368-0.074,0.752-0.152,1.146-0.231c0.396-0.078,0.805-0.156,1.222-0.23c0.416-0.074,0.843-0.143,1.273-0.203
							c0.434-0.059,0.872-0.106,1.314-0.142c0.442-0.034,0.888-0.054,1.334-0.054c0.034,0,0.068,0.002,0.103,0.002
							c0.031,0,0.064,0.001,0.099,0.001c0.034,0.001,0.067,0.001,0.1,0.002c0.034,0.001,0.067,0.003,0.102,0.003
							c1.635-0.154,3.344-0.575,4.987-1.12c1.644-0.544,3.223-1.213,4.595-1.862c1.373-0.647,2.54-1.276,3.364-1.742
							c0.824-0.467,1.308-0.771,1.308-0.771s0.874-0.354,2.445-0.887c1.571-0.531,3.838-1.238,6.624-1.944
							c2.786-0.705,6.088-1.409,9.734-1.935c3.644-0.524,7.629-0.871,11.785-0.863c0.108,0.001,0.215,0.001,0.323,0.002
							c0.106,0,0.214,0.002,0.323,0.003c0.107,0.002,0.214,0.003,0.322,0.004c0.108,0.003,0.217,0.004,0.325,0.006
							c0.014,0.002,0.029,0.005,0.043,0.006c0.016,0.002,0.031,0.003,0.048,0.005c0.013,0,0.029,0.002,0.045,0.003
							c0.016,0,0.031,0.001,0.047,0.001c0.181,0,0.38-0.035,0.594-0.1c0.217-0.065,0.449-0.161,0.695-0.283s0.506-0.271,0.777-0.442
							c0.271-0.171,0.551-0.364,0.84-0.577c1.208,0.488,2.473,0.952,3.789,1.39c1.316,0.438,2.684,0.851,4.1,1.235
							c1.418,0.384,2.881,0.74,4.387,1.068c1.506,0.327,3.055,0.624,4.643,0.891l0.012,0.023c6.767,2.074,11.592,4.651,15.111,7.567
							c3.526,2.924,5.744,6.19,7.291,9.636c1.551,3.453,2.424,7.088,3.265,10.733c0.842,3.657,1.65,7.325,3.068,10.835
							c0,0,0.011,0.422,0.069,1.199c0.062,0.777,0.17,1.909,0.361,3.326c0.192,1.419,0.47,3.123,0.869,5.047
							c0.4,1.926,0.922,4.072,1.604,6.367c0.637,2.557,1.27,4.636,1.863,6.316c0.594,1.684,1.146,2.967,1.625,3.934
							c0.477,0.967,0.879,1.616,1.168,2.03c0.291,0.415,0.467,0.595,0.498,0.624c0.52,1.009,1.072,2.02,1.66,3.034
							c0.587,1.013,1.212,2.026,1.871,3.036c0.664,1.012,1.364,2.019,2.103,3.018c0.74,1,1.521,1.992,2.346,2.972
							c6.79,10.44,15.204,20.811,25.552,30.559c10.425,9.821,22.798,19,37.406,26.962c14.696,8.008,31.621,14.767,51.038,19.689
							c19.479,4.939,41.402,8.015,65.983,8.646c3.555,0.858,7.083,1.627,10.587,2.314c3.505,0.688,6.981,1.293,10.427,1.822
							s6.857,0.982,10.232,1.366c3.376,0.383,6.715,0.695,10.012,0.944c-0.102,0.208-0.208,0.403-0.316,0.586
							c-0.108,0.185-0.221,0.354-0.334,0.507c-0.11,0.155-0.226,0.293-0.339,0.412c-0.114,0.121-0.229,0.223-0.343,0.305
							c-0.436,0.323-1.265,1.955-2.297,4.259c-1.031,2.31-2.267,5.297-3.508,8.323c-1.246,3.035-2.5,6.107-3.561,8.571
							c-1.063,2.469-1.936,4.322-2.414,4.908c-0.477,0.585-0.74,1.062-0.881,1.484c-0.14,0.424-0.155,0.794-0.138,1.17
							c0.019,0.374,0.072,0.755,0.075,1.197c0.002,0.442-0.05,0.947-0.242,1.571c-0.193,0.625-1.081,1.158-2.305,1.609
							c-1.227,0.45-2.787,0.816-4.324,1.105c-1.537,0.287-3.051,0.498-4.18,0.637c-1.129,0.137-1.873,0.204-1.873,0.204
							s-0.883,0.06-2.308,0.151c-1.425,0.09-3.394,0.212-5.565,0.333c-2.173,0.122-4.55,0.243-6.787,0.337
							c-2.242,0.093-4.345,0.156-5.973,0.16c-0.198,0-0.393,0-0.578-0.002c-0.185-0.002-0.363-0.004-0.532-0.008
							c-0.17-0.003-0.33-0.008-0.481-0.012c-0.151-0.006-0.291-0.013-0.424-0.021c-0.984-0.06-1.979-0.172-3.004-0.31
							c-1.022-0.138-2.079-0.301-3.192-0.454c-1.112-0.153-2.282-0.3-3.533-0.406c-1.251-0.107-2.585-0.175-4.026-0.172
							c-0.317,0.001-0.643,0.006-0.973,0.014c-0.332,0.008-0.666,0.02-1.009,0.036c-0.341,0.016-0.688,0.036-1.044,0.061
							c-0.352,0.024-0.713,0.054-1.079,0.088c-2.052,0.447-3.258,0.939-3.913,1.424c-0.652,0.487-0.754,0.967-0.598,1.391
							c0.158,0.424,0.571,0.792,0.946,1.055c0.374,0.262,0.711,0.419,0.711,0.419s0.079,0.001,0.224,0.005
							c0.146,0.004,0.359,0.008,0.623,0.012s0.582,0.008,0.939,0.011c0.356,0.002,0.754,0.003,1.176,0.002
							c0.423-0.001,0.872-0.004,1.332-0.011c0.463-0.007,0.938-0.018,1.412-0.031c0.472-0.017,0.945-0.035,1.404-0.062
							c0.46-0.024,0.905-0.057,1.322-0.094c0.54-0.05,1.012-0.106,1.428-0.163c0.415-0.057,0.776-0.115,1.095-0.168
							c0.315-0.051,0.589-0.097,0.831-0.129c0.241-0.033,0.449-0.054,0.637-0.054c0.104,0,0.201,0.006,0.293,0.019
							c0.093,0.012,0.181,0.032,0.267,0.061c0.086,0.027,0.169,0.063,0.253,0.108s0.165,0.101,0.248,0.165
							c0.22,0.174,0.754,0.418,1.493,0.686c0.735,0.27,1.677,0.564,2.704,0.836c1.03,0.272,2.15,0.521,3.242,0.703
							c1.096,0.182,2.164,0.295,3.096,0.293c0.066,0,0.131,0,0.197-0.003c0.064-0.001,0.128-0.002,0.191-0.005
							s0.127-0.006,0.188-0.01c0.061-0.003,0.122-0.008,0.183-0.014c0.905-0.075,2.253-0.142,3.767-0.2
							c1.51-0.06,3.186-0.108,4.748-0.149s3.01-0.071,4.066-0.093c1.059-0.021,1.725-0.031,1.725-0.031s-0.384,0.149-1.012,0.391
							c-0.629,0.241-1.501,0.577-2.472,0.949c-0.974,0.372-2.048,0.781-3.08,1.173s-2.025,0.765-2.831,1.063
							c-0.59,0.218-1.1,0.476-1.535,0.75c-0.438,0.275-0.805,0.567-1.111,0.856c-0.305,0.289-0.551,0.574-0.745,0.836
							c-0.194,0.26-0.339,0.494-0.442,0.683c-0.284-0.003-0.564-0.008-0.833-0.01c-0.269-0.004-0.528-0.007-0.779-0.009
							s-0.489-0.003-0.72-0.004s-0.449-0.001-0.66-0.001c-0.286,0.001-0.551,0.003-0.792,0.007s-0.46,0.009-0.65,0.016
							c-0.191,0.008-0.356,0.017-0.494,0.027c-0.136,0.011-0.244,0.024-0.321,0.039c-0.505,0.101-1.562,0.309-2.926,0.563
							c-1.361,0.255-3.032,0.558-4.762,0.848s-3.52,0.568-5.127,0.774c-1.605,0.206-3.026,0.341-4.015,0.343
							c-0.991,0.004-2.213,0.179-3.516,0.453c-1.306,0.273-2.691,0.646-4.013,1.041c-1.322,0.395-2.58,0.813-3.626,1.18
							c-1.045,0.368-1.881,0.682-2.354,0.869c-0.35,0.14-0.483,0.4-0.43,0.716c0.055,0.313,0.301,0.681,0.709,1.029
							c0.409,0.351,0.98,0.681,1.691,0.925s1.561,0.399,2.52,0.397c0.348-0.001,0.712-0.022,1.086-0.069
							c0.377-0.045,0.766-0.115,1.168-0.212c0.399-0.097,0.813-0.222,1.237-0.377s0.86-0.341,1.305-0.562
							c1.671-0.827,3.473-1.39,5.403-1.773c1.928-0.383,3.984-0.589,6.175-0.707c2.188-0.117,4.505-0.146,6.954-0.177
							c2.45-0.029,5.028-0.06,7.738-0.18c0.704,0.259,1.483,0.474,2.32,0.649c0.838,0.176,1.73,0.313,2.662,0.418
							c0.931,0.104,1.899,0.177,2.886,0.221c0.987,0.045,1.991,0.064,2.996,0.062c1.8-0.005,3.597-0.077,5.279-0.183
							c1.682-0.105,3.249-0.244,4.593-0.383c1.341-0.139,2.458-0.275,3.239-0.38c0.781-0.103,1.226-0.171,1.226-0.171
							s-0.34,0.342-0.898,0.865c-0.56,0.525-1.336,1.232-2.208,1.965c-0.871,0.731-1.838,1.486-2.776,2.107
							c-0.938,0.621-1.846,1.105-2.602,1.294c-0.754,0.189-2.732,0.833-5.313,1.703c-2.581,0.872-5.765,1.97-8.924,3.071
							c-3.162,1.102-6.301,2.204-8.785,3.08c-2.485,0.876-4.316,1.525-4.858,1.716c-0.549,0.19-1.549,0.477-2.707,0.836
							c-1.161,0.357-2.479,0.788-3.669,1.265c-1.192,0.477-2.251,1.002-2.891,1.549c-0.639,0.547-0.857,1.117-0.363,1.684
							c0.122,0.139,0.31,0.258,0.556,0.358s0.549,0.182,0.903,0.245c0.354,0.063,0.758,0.109,1.208,0.14
							c0.446,0.029,0.937,0.043,1.465,0.041c1.63-0.005,3.602-0.155,5.69-0.412c2.088-0.259,4.294-0.624,6.394-1.061
							c2.098-0.438,4.091-0.944,5.755-1.486c1.667-0.542,3.001-1.119,3.789-1.692c1.917-0.309,3.712-0.734,5.381-1.225
							c1.668-0.491,3.208-1.046,4.617-1.611c1.408-0.566,2.685-1.144,3.827-1.679c1.14-0.534,2.147-1.027,3.014-1.426
							c0.12,0.019,0.237,0.035,0.356,0.05c0.118,0.014,0.235,0.024,0.353,0.033c0.118,0.01,0.233,0.016,0.351,0.02
							c0.115,0.005,0.23,0.006,0.345,0.006c1.005-0.004,1.956-0.173,2.818-0.426s1.635-0.588,2.28-0.925
							c0.648-0.335,1.167-0.67,1.528-0.921c0.359-0.251,0.556-0.418,0.556-0.418s0.37-0.273,0.967-0.718
							c0.598-0.444,1.422-1.062,2.334-1.749c0.91-0.686,1.91-1.442,2.854-2.168c0.944-0.727,1.836-1.42,2.531-1.984
							c0.486-0.391,0.924-0.709,1.33-0.972c0.406-0.26,0.781-0.462,1.139-0.614c0.358-0.153,0.699-0.257,1.035-0.322
							c0.337-0.066,0.671-0.096,1.015-0.096c0.153-0.002,0.307,0.004,0.463,0.013c0.157,0.009,0.318,0.024,0.483,0.041
							c0.164,0.017,0.334,0.037,0.51,0.061c0.174,0.024,0.354,0.05,0.544,0.077c0.745,0.261,1.688,1.389,2.805,3.032
							c1.117,1.647,2.406,3.813,3.843,6.146c1.438,2.337,3.025,4.844,4.728,7.162c1.707,2.323,3.534,4.458,5.446,6.047
							c0.699,0.44,1.353,0.812,1.964,1.119c0.61,0.308,1.177,0.553,1.702,0.743c0.526,0.19,1.01,0.324,1.457,0.412
							c0.444,0.086,0.852,0.126,1.224,0.124c0.901-0.002,1.587-0.243,2.095-0.616c0.509-0.372,0.838-0.876,1.027-1.404
							c0.188-0.527,0.235-1.08,0.177-1.551c-0.059-0.47-0.224-0.858-0.456-1.06c-0.328-0.283-0.757-0.641-1.242-1.076
							c-0.487-0.437-1.034-0.95-1.596-1.544c-0.563-0.593-1.141-1.267-1.696-2.021c-0.553-0.755-1.083-1.592-1.544-2.515
							c-0.156-1.017-0.695-2.332-1.459-3.765c-0.761-1.432-1.745-2.978-2.795-4.46c-1.048-1.48-2.158-2.896-3.177-4.065
							c-1.019-1.17-1.944-2.093-2.619-2.595c-0.639-0.475-0.944-0.99-0.998-1.492c-0.054-0.504,0.143-0.997,0.503-1.43
							c0.364-0.434,0.891-0.807,1.498-1.073c0.607-0.265,1.295-0.423,1.979-0.426c0.036,0,0.075,0,0.113,0.001
							c0.036,0.002,0.074,0.003,0.11,0.005c0.038,0.001,0.074,0.003,0.113,0.007c0.036,0.002,0.072,0.006,0.11,0.009
							c0.714,0.073,1.849,0.373,3.213,0.843c1.364,0.471,2.956,1.111,4.579,1.87s3.28,1.635,4.775,2.571
							c1.494,0.938,2.826,1.937,3.797,2.941c0.394,0.407,0.795,0.746,1.199,1.026s0.811,0.499,1.215,0.668
							c0.406,0.169,0.809,0.287,1.201,0.362c0.396,0.076,0.781,0.108,1.156,0.107c0.549-0.001,1.07-0.076,1.549-0.197
							c0.477-0.122,0.907-0.29,1.277-0.478c0.371-0.188,0.68-0.395,0.91-0.593c0.23-0.199,0.382-0.39,0.44-0.545
							c0.819-1.03,0.497-2.088-0.477-3.104c-0.971-1.016-2.594-1.988-4.38-2.849c-1.781-0.86-3.728-1.607-5.345-2.172
							c-1.616-0.563-2.907-0.945-3.384-1.072c-0.477-0.129-1.268-0.384-2.204-0.714c-0.937-0.327-2.021-0.729-3.087-1.151
							c-1.065-0.423-2.11-0.866-2.973-1.276c-0.863-0.411-1.54-0.791-1.867-1.086c-0.852-1.278-0.781-2.817-0.186-4.457
							c0.599-1.637,1.723-3.373,2.98-5.053c1.258-1.678,2.65-3.299,3.789-4.706c1.138-1.407,2.021-2.602,2.262-3.43
							c0.242-0.827,0.852-1.97,1.734-3.288c0.881-1.316,2.034-2.807,3.366-4.334c1.332-1.523,2.841-3.082,4.433-4.535
							c1.589-1.453,3.262-2.803,4.929-3.91c1.294-0.979,2.337-1.936,3.161-2.868c0.824-0.932,1.429-1.839,1.849-2.719
							c0.423-0.878,0.659-1.728,0.75-2.546c0.088-0.816,0.026-1.602-0.149-2.35c10.275-0.908,19.664-2.306,27.957-3.89
							c8.279-1.581,15.466-3.349,21.365-5c5.891-1.649,10.5-3.184,13.633-4.306c3.132-1.12,4.794-1.829,4.794-1.829
							c0.165-0.056,0.329-0.116,0.494-0.178c0.163-0.063,0.325-0.128,0.485-0.195c0.16-0.068,0.318-0.138,0.477-0.212
							c0.156-0.072,0.312-0.146,0.468-0.223c3.402,0.206,6.729,0.393,9.975,0.559c3.247,0.166,6.417,0.312,9.513,0.439
							c3.096,0.127,6.114,0.236,9.059,0.328c2.946,0.092,5.818,0.165,8.618,0.223c1.504,0.033,3.01,0.063,4.518,0.088
							c1.509,0.024,3.017,0.046,4.524,0.063c1.511,0.017,3.02,0.029,4.529,0.035c1.511,0.008,3.02,0.012,4.527,0.01
							c7.255-0.01,14.491-0.129,21.646-0.379c7.148-0.25,14.213-0.631,21.122-1.164c6.901-0.531,13.65-1.214,20.171-2.07
							c6.514-0.854,12.803-1.879,18.795-3.096c1.1-0.148,2.1-0.337,3.005-0.559c0.903-0.221,1.712-0.477,2.421-0.757
							c0.709-0.281,1.318-0.589,1.833-0.917c0.515-0.327,0.933-0.675,1.255-1.036c0.256,0.051,0.508,0.099,0.757,0.144
							c0.248,0.045,0.49,0.086,0.728,0.125c0.236,0.038,0.469,0.073,0.695,0.105c0.226,0.032,0.446,0.062,0.659,0.086
							c2.143,0.254,6.392,1.06,11.766,2.16c5.378,1.103,11.888,2.504,18.543,3.949c6.663,1.447,13.473,2.938,19.44,4.221
							c5.975,1.282,11.104,2.354,14.398,2.959c0.401,0.073,0.795,0.138,1.179,0.191c0.382,0.055,0.754,0.099,1.115,0.134
							c0.363,0.035,0.714,0.061,1.054,0.077c0.344,0.017,0.674,0.024,0.994,0.024c2.294-0.003,4.075-0.431,5.412-1.086
							c1.334-0.656,2.227-1.541,2.738-2.46c0.513-0.919,0.65-1.873,0.481-2.668c-0.17-0.795-0.646-1.432-1.362-1.718
							c-0.814-0.324-1.851-0.714-3.036-1.127c-1.183-0.414-2.513-0.853-3.917-1.275c-1.404-0.424-2.884-0.832-4.362-1.187
							c-1.481-0.354-2.963-0.655-4.372-0.863c-1.408-0.206-2.556-0.449-3.682-0.766c-1.127-0.316-2.231-0.708-3.555-1.212
							c-1.32-0.503-2.857-1.12-4.85-1.889c-1.991-0.768-4.437-1.687-7.572-2.795c-1.321-0.882-2.936-1.735-4.753-2.556
							c-1.815-0.82-3.836-1.605-5.972-2.354c-2.137-0.746-4.39-1.453-6.67-2.116c-2.283-0.661-4.593-1.279-6.846-1.846
							c0.37-0.912,0.095-1.947-0.962-3.116c-1.052-1.167-2.886-2.467-5.622-3.91s-6.379-3.027-11.055-4.767
							c-4.669-1.736-10.37-3.625-17.231-5.677c-4.669-2.928-10.138-5.423-15.771-7.522c-5.624-2.097-11.415-3.801-16.746-5.146
							c-5.326-1.346-10.194-2.336-13.974-3.005c-3.777-0.668-6.469-1.016-7.442-1.076c-1.084-0.068-2.883-0.219-5.051-0.454
							c-2.17-0.235-4.705-0.554-7.261-0.955c-2.554-0.403-5.126-0.889-7.365-1.458c-2.24-0.57-4.148-1.225-5.374-1.961
							c-10.727-6.477-26.97-12.411-45.308-17.673c-18.271-5.243-38.644-9.827-57.736-13.619c-19.045-3.784-36.841-6.786-50.02-8.873
							c-13.164-2.085-21.736-3.261-22.351-3.39c-0.612-0.131-1.807-0.415-3.452-0.804c-1.644-0.388-3.739-0.88-6.155-1.425
							c-2.413-0.544-5.147-1.14-8.069-1.738c-2.92-0.598-6.031-1.199-9.198-1.751c-2.644-0.462-6.395-1.286-10.671-2.303
							c-4.273-1.017-9.074-2.223-13.824-3.449c-4.744-1.224-9.438-2.468-13.509-3.56c-4.066-1.09-7.51-2.029-9.761-2.646
							c-3.605-1.139-7.205-2.269-10.793-3.385c-3.583-1.117-7.157-2.221-10.711-3.312c-3.554-1.089-7.09-2.165-10.605-3.226
							c-3.511-1.059-7.001-2.102-10.465-3.127c-0.194-0.059-0.389-0.115-0.582-0.17c-0.192-0.056-0.385-0.111-0.576-0.166
							s-0.384-0.108-0.576-0.163c-0.189-0.056-0.381-0.109-0.575-0.165l-0.012-0.016c-0.582-0.169-3.298-1.079-7.254-2.629
							c-3.951-1.547-9.138-3.73-14.667-6.444c-5.516-2.708-11.366-5.943-16.666-9.601c-5.285-3.646-10.016-7.711-13.316-12.088
							c-1.226-4.479-3.759-8.104-6.868-11.023c-3.103-2.912-6.785-5.126-10.325-6.785c-3.535-1.657-6.936-2.764-9.479-3.46
							c-2.542-0.697-4.229-0.983-4.342-1.003c-2.344-0.997-4.918-1.902-7.686-2.698c-2.764-0.796-5.722-1.483-8.835-2.049
							c-3.109-0.564-6.376-1.005-9.759-1.308C112.62,334.208,109.12,334.045,105.542,334.034"/>
					</g>
				</g>
			</g>
		</g>
		<g>
			<path fill="#E56E88" d="M379.838,474.388c0,0,2.965,7.183-8.615,28.999c-5.658,17.238-10.779,29.627-10.506,35.824
				c0.267,6.194,1.883,11.58,1.346,16.696c-0.54,5.118-11.313,12.392-11.313,12.392s-4.58,6.465-12.117,3.232
				c-4.581,5.117-8.623,8.887-8.623,8.887l-7.27,3.231l-9.695-1.346l-2.423-0.537c0,0,1.07-4.311,4.306-6.466
				c3.23-2.152,9.429-6.463,9.429-6.463s-10.232,0.268-13.734,0.808c-3.502,0.537-9.695-3.232-10.509-4.581
				c-0.803-1.345-1.616-0.268-4.845,0.271c-3.237,0.538-8.083,0.27-8.083,0.27s-4.848-4.579,3.229-7.81
				c7.81-1.351,12.391,1.615,16.973,2.154c4.581,0.537,21.817-1.616,21.817-1.616s11.578-1.889,12.657-6.465
				c1.077-4.579-0.267-5.656,1.883-9.964c2.158-4.311,13.204-46.059,15.09-48.482c1.883-2.426,4.845-14.096,3.229-19.034
				c-1.619-4.937,4.041-14.366,9.426-10.864C376.876,467.025,379.642,469.337,379.838,474.388z"/>
			<path fill="#FF788F" d="M397.077,472.234c0,0,16.159,16.159,0,36.985c-7.181,8.263-15.08,23.702-16.517,29.808
				c-1.436,6.107-13.652,22.985-11.138,32.324c1.079,2.153,7.32,6.779,9.072,7.721c1.749,0.942,15.344,9.291,11.578,16.699
				c-0.533,1.885-5.381,6.6-8.485-0.674c-3.093-7.272-11.716-14.41-14.404-14.947c-2.699-0.54-6.2,4.31-3.911,7.945
				c2.292,3.637,7.413,19.527,7.413,26.798c1.21,6.602,3.635,10.774,4.712,12.795c1.079,2.02-0.811,14.679-9.021,3.907
				c-6.333-11.314-10.108-38.246-12.797-40.135c-2.292-0.674-3.502-0.808-6.467,3.234c-2.963,4.041-9.153,11.852-9.153,11.852
				s-4.175,5.926-8.489,4.576c-3.496,2.828-9.289,8.352-16.699,10.507c-4.306,5.384-23.163,10.773-24.782,6.733
				c-1.61-4.042,7.546-8.082,9.702-9.428c2.149-1.349,24.642-15.623,27.604-16.971c2.962-1.346,8.889-11.178,8.889-11.178
				s-16.832,4.715-23.97-0.537c-10.374,0.808-18.582-0.941-25.321,4.982c-6.73,5.926-10.499-2.02-8.616-3.367
				c1.886-1.346,9.47-6.328,13.247-6.328c3.769,0,14.36-3.774,16.333-4.491c1.977-0.716,23.703,1.438,27.838-0.896
				c4.125-2.335,12.207-0.359,19.211-15.444c7.004-15.081,22.087-52.431,22.087-55.123c0-2.696,5.118-10.773,1.616-20.203
				c-1.079-2.964-7.81-12.118-7.277-15.621c0.54-3.503,8.89-9.159,17.513-8.621C395.458,465.678,395.809,470.747,397.077,472.234z"
				/>
			<linearGradient id="SVGID_3_" gradientUnits="userSpaceOnUse" x1="191.79" y1="255.4063" x2="505.6333" y2="534.5709">
				<stop  offset="0" style="stop-color:#9A612D"/>
				<stop  offset="0.3465" style="stop-color:#AD7C4E"/>
				<stop  offset="0.6832" style="stop-color:#E7CFB3"/>
				<stop  offset="1" style="stop-color:#F8E8D1"/>
			</linearGradient>
			<path fill="url(#SVGID_3_)" d="M473.329,461.202c0,0-72.554,55.306-152.27,16.522c-95.531-5.03-145.089-84.037-169.512-168.074
				c-14.367-37.348-13.646-84.032-13.646-84.032s12.21-102.71,114.199-38.786c101.998,63.926,224.099,158.734,235.593,184.592
				C499.182,397.28,490.082,450.87,473.329,461.202z"/>
			<path fill="#92551E" d="M182.438,101.362c0,24.99-23.453,45.25-52.387,45.25c-19.688,0-36.844-9.389-45.796-23.267
				c-4.195-6.509-6.584-14.004-6.584-21.983c0-2.832,1.149-8.327,1.948-11.627c0.334-1.378,0.609-2.374,0.7-2.632
				c6.921-18.004,26.565-30.99,49.731-30.99C158.984,56.113,182.438,76.373,182.438,101.362z"/>
			<path fill="#92551E" d="M61.408,116.982c0,0,16.369-22.217,18.078-27.247c1.709-5.026,7.04,25.883,7.04,25.883
				s-15.419,5.94-25.118,5.94C58.703,121.376,61.408,116.982,61.408,116.982z"/>
			<path fill="#92551E" d="M168.251,70.428c0,0,27.108,9.386,30.7,48.892c12.21,38.065,48.508,64.641,50.833,66.077
				c2.316,1.436-51.619,127.798-105.481,99.786c0,0-4.631-9.38-6.401-59.564c-4.947-29.365,0.189-64.464-27.379-82.24
				C110.522,143.378,101.633,69.662,168.251,70.428z"/>
			<path fill="#4C4F46" d="M92.654,109.707c-1.115,0.25-16.973,9.43-29.363,10.506c-6.458-1.076-7.271,3.232-10.772,6.465
				s-6.997,7.543-11.852,9.426c-4.848,1.887-14.807,21.813-9.695,26.798c1.886,1.753,6.467-2.558,11.048-2.286
				c6.73-1.347,14.813-11.853,14.813-11.853s15.347-12.914,33.125-12.247c2.962,0.937,12.929-21.958,12.929-21.958
				S102.347,107.555,92.654,109.707z"/>
			<radialGradient id="SVGID_4_" cx="116.7061" cy="98.9609" r="16.3204" gradientUnits="userSpaceOnUse">
				<stop  offset="0" style="stop-color:#FFFFFF"/>
				<stop  offset="0.1386" style="stop-color:#D5D4D3"/>
				<stop  offset="0.2079" style="stop-color:#494340"/>
				<stop  offset="0.3663" style="stop-color:#28201D"/>
				<stop  offset="1" style="stop-color:#231B18"/>
			</radialGradient>
			<path fill="url(#SVGID_4_)" d="M124.668,101.697c0.883,5.316-3.057,10.391-8.781,11.341c-5.734,0.945-11.095-2.596-11.975-7.909
				c-0.881-5.316,3.059-10.396,8.791-11.341C118.428,92.839,123.785,96.382,124.668,101.697z"/>
			<path fill="#9B7C7C" d="M195.598,179.828c0,0,53.051-7.86,47.228,31.256c-15.229,26.326-20.205,46.341-56.175,62.225
				c-35.968,15.883-19.309-65.869-14.75-74.538C176.456,190.101,180.416,183.506,195.598,179.828z"/>
			<path fill="#92551E" d="M625.731,409.486c0,0,30.7,10.776,39.862,25.32c11.312,8.619,12.389,11.312,17.775,12.928
				c5.388,1.616,11.488,6.104,14.367,8.62c2.872,2.514-1.262,19.033-13.646,14.364c-12.389-4.667-51.895-23.703-60.151-25.676
				c-8.266-1.977-25.139-14.547-18.142-26.038C612.801,407.513,619.888,407.203,625.731,409.486z"/>
			<path fill="#92551E" d="M291.606,212.686c0,0,37.53,21.999,50.194,26.577c12.654,4.577,24.233,10.775,26.658,11.851
				c2.43,1.079,132.515,36.632,170.228,88.886c4.308,5.927,19.926,9.156,24.24,9.696c4.308,0.538,41.475,12.389,54.942,41.478
				c9.162,1.616,21.014,13.468,22.626,18.313c1.616,4.85,5.385,10.776-9.155,15.084c-14.541,4.311-23.703,0-23.703,0
				s26.932,15.623,7.543,22.626c-19.395,7.003-74.874,35.552-238.638-7.003c-5.388,6.464-24.782,17.776-71.108-10.773
				c-46.326-28.552-56.562-34.477-70.569-50.636c-14.003-16.161-53.325-102.353-14.54-130.364
				C259.107,220.409,280.07,206.055,291.606,212.686z"/>
			<path fill="#563F2E" d="M380.584,439.955c0,0,140.864,44.229,231.367,10.473c17.23-4.31,14.358-26.575-14.366-22.266
				c33.215,2.873,77.386-5.746,15.683-45.068c-63.564,35.911-139.225,27.699-139.225,27.699
				c-38.068,4.438-54.229,19.521-78.289,12.342C381.699,422.902,371.187,433.228,380.584,439.955z"/>
		</g>
	</g>
</g>
<g id="colobri_huppé">
</g>
<g id="cécerelle_d_x27_amerique">
</g>
<g id="heron_vert">
</g>
<g id="pic_de_la_guadeloupe">
</g>
<g id="héron_garde-boeufs">
</g>
<g id="photos">
</g>
<g id="solitaire_siffleur">
</g>
<g id="tyran_janeau">
</g>
<g id="colibri_fallevert">
</g>
<g id="colombe_a_queue_noire">
</g>
</svg>
