<?xml version="1.0" encoding="utf-8"?>
<!-- Generator: Adobe Illustrator 16.0.0, SVG Export Plug-In . SVG Version: 6.00 Build 0)  -->
<!DOCTYPE svg PUBLIC "-//W3C//DTD SVG 1.1//EN" "http://www.w3.org/Graphics/SVG/1.1/DTD/svg11.dtd">
<svg version="1.1" xmlns="http://www.w3.org/2000/svg" xmlns:xlink="http://www.w3.org/1999/xlink" x="0px" y="0px" width="732px"
	 height="692px" viewBox="0 0 732 692" enable-background="new 0 0 732 692" xml:space="preserve">
<g id="Calque_1" display="none">
	<rect x="208.41" y="642.121" display="inline" fill="none" width="415.59" height="37.879"/>
	<text transform="matrix(1 0 0 1 208.4102 666.9707)" display="inline" font-family="'MyriadPro-Regular'" font-size="35">Pic de la Guadeloupe</text>
</g>
<g id="colombe_à_croissant">
</g>
<g id="colombe_rouviolette">
</g>
<g id="colibri_madere">
</g>
<g id="colibri_à_tête_bleue">
</g>
<g id="elenie_siffleuse">
</g>
<g id="grive_à_pieds_jaunes">
</g>
<g id="merle_à_lunette">
</g>
<g id="moucherolle_gobemouche">
</g>
<g id="moqueur_corossol">
</g>
<g id="moqueur_grivotte">
</g>
<g id="trembleur_brun">
</g>
<g id="trembleur_gris">
</g>
<g id="paruline_cafeite">
</g>
<g id="saltator_gros_bec">
</g>
<g id="soporophile_rouge-gorge">
</g>
<g id="sucrier_à_ventre_jaune">
</g>
<g id="vachet_luisant">
</g>
<g id="vireo_a_moustaches">
</g>
<g id="merle_quiscale">
</g>
<g id="paruline_jaune">
</g>
<g id="tyran_gris">
</g>
<g id="sporophile_cici">
</g>
<g id="tourterelle_à_queue_carree">
</g>
<g id="colobri_huppé">
</g>
<g id="cécerelle_d_x27_amerique">
</g>
<g id="heron_vert">
</g>
<g id="pic_de_la_guadeloupe">
	<g>
		<g opacity="0.3">
			<g>
				<g enable-background="new    ">
					<defs>
						<polygon id="SVGID_65_" enable-background="new    " points="12.391,535.554 13.209,321.262 655.614,322.765 719.609,533.73 
													"/>
					</defs>
					<clipPath id="SVGID_2_">
						<use xlink:href="#SVGID_65_"  overflow="visible"/>
					</clipPath>
					<g clip-path="url(#SVGID_2_)">
						<path fill="#959595" d="M142.916,321.564c-1.007-0.002-1.964,0.013-2.862,0.045c-0.896,0.031-1.734,0.08-2.507,0.145
							c-0.77,0.063-1.473,0.139-2.1,0.229c-0.628,0.091-1.179,0.193-1.643,0.309c-8.12,1.254-15.828,3.382-22.939,5.955
							c-7.132,2.578-13.668,5.609-19.412,8.656c-5.763,3.058-10.728,6.131-14.689,8.78c-3.97,2.657-6.926,4.886-8.659,6.239
							c-3.945,0.9-8.55,2.139-13.438,3.609c-4.896,1.474-10.08,3.18-15.171,5.019c-5.102,1.842-10.112,3.815-14.65,5.815
							c-4.547,2.004-8.619,4.031-11.831,5.979c0.002,0.022,0.026,0.042,0.07,0.058c0.044,0.017,0.106,0.031,0.191,0.041
							c0.084,0.012,0.187,0.02,0.309,0.023c0.123,0.006,0.264,0.009,0.423,0.009c1.493,0.002,4.595-0.222,8.787-0.611
							c4.193-0.39,9.476-0.944,15.332-1.606c5.854-0.663,12.279-1.431,18.768-2.246c6.479-0.814,13.022-1.677,19.118-2.529
							l0.036,0.03c1.542-0.08,3.037-0.153,4.486-0.211c1.447-0.061,2.851-0.108,4.207-0.146s2.669-0.064,3.938-0.083
							c1.271-0.018,2.494-0.025,3.679-0.023c9.953,0.014,16.96,0.688,21.876,1.689c4.919,1.006,7.747,2.34,9.335,3.677
							s1.931,2.675,1.877,3.679c-0.055,1.004-0.507,1.674-0.507,1.674s-0.12,1.09,0.169,2.995c0.287,1.909,0.985,4.643,2.627,7.931
							c1.645,3.299,4.241,7.158,8.323,11.309c4.099,4.164,9.698,8.621,17.34,13.093c0.028,0.034,0.053,0.064,0.075,0.093
							c0.021,0.025,0.042,0.048,0.056,0.068c0.017,0.018,0.028,0.031,0.036,0.04c0.008,0.01,0.015,0.016,0.015,0.016
							c6.388,4.919,15.097,9.865,25.422,14.637c10.365,4.788,22.351,9.398,35.24,13.624c12.933,4.24,26.761,8.09,40.75,11.34
							c14.023,3.258,28.194,5.913,41.762,7.75c-2.752,2.82-5.771,5.878-8.844,8.931c-3.08,3.062-6.215,6.118-9.186,8.927
							c-2.981,2.812-5.795,5.372-8.228,7.427c-2.436,2.058-4.484,3.607-5.921,4.396c-2.298,1.258-4.517,2.438-6.792,3.504
							c-2.279,1.066-4.615,2.016-7.144,2.808c-2.53,0.794-5.254,1.323-8.305,1.765c-3.052,0.438-6.433,0.582-10.273,0.582
							c-0.122,0-0.243,0-0.363,0c-0.123,0-0.243,0-0.366,0c-0.122,0-0.245,0.105-0.367,0.104c-0.123,0-0.248,0.05-0.372,0.048
							c-1.502-0.02-2.923-0.011-4.266-0.022c-1.341-0.014-2.603-0.01-3.788-0.018c-1.187-0.009-2.294-0.007-3.327-0.009
							s-1.991,0.003-2.878,0.003c-1.523,0.004-2.832,0.012-3.939,0.021c-1.107,0.011-2.012,0.022-2.728,0.034
							c-0.714,0.013-1.236,0.024-1.582,0.034c-0.346,0.008-0.513,0.015-0.513,0.015s-0.526,0.152-1.182,0.392
							s-1.438,0.561-1.949,0.9c-0.511,0.338-0.752,0.691-0.32,0.991c0.433,0.3,1.538,0.545,3.713,0.665
							c0.715,0.04,1.441,0.072,2.168,0.099c0.73,0.028,1.46,0.048,2.188,0.064c0.728,0.016,1.451,0.026,2.167,0.032
							c0.713,0.008,1.417,0.01,2.106,0.008c1.402-0.002,2.737-0.02,3.951-0.042c1.214-0.024,2.308-0.055,3.224-0.085
							c0.919-0.029,1.661-0.06,2.173-0.082c0.511-0.022,0.794-0.038,0.794-0.038l-22.115,6.032l-10.506,1.518
							c0,0-0.384,0.196-0.86,0.488c-0.477,0.293-1.046,0.684-1.411,1.075c-0.366,0.39-0.53,0.78-0.197,1.071
							c0.332,0.293,1.16,0.486,2.778,0.482c0.162,0,0.331-0.002,0.508-0.006c0.18-0.004,0.364-0.013,0.559-0.021
							c0.193-0.008,0.396-0.019,0.607-0.032c0.213-0.012,0.433-0.028,0.661-0.046c2.524-0.195,6.885-0.864,12.002-1.759
							c5.109-0.893,10.972-2.008,16.514-3.1c5.533-1.09,10.747-2.154,14.576-2.944c3.825-0.792,6.27-1.311,6.27-1.311
							l-14.762,12.031c0,0-0.194,0.177-0.477,0.491c-0.283,0.313-0.648,0.768-0.992,1.324s-0.664,1.216-0.849,1.943
							c-0.183,0.726-0.233,1.52-0.038,2.342c0.122,0.511,0.163,1.02,0.171,1.497c0.008,0.479-0.017,0.925-0.024,1.307
							c-0.006,0.384,0.004,0.702,0.081,0.927c0.076,0.223,0.219,0.35,0.478,0.35c0.159,0,0.362-0.05,0.621-0.154
							c0.258-0.107,0.573-0.268,0.953-0.493c0.38-0.227,0.828-0.515,1.354-0.876c0.524-0.359,1.13-0.792,1.823-1.301
							c1.815-1.336,4.095-2.876,6.553-4.466c2.456-1.586,5.089-3.222,7.626-4.754c2.53-1.529,4.964-2.954,7.022-4.122
							c2.054-1.166,3.734-2.076,4.768-2.579c1.027-0.502,2.064-0.925,3.36-1.298c1.297-0.372,2.854-0.695,4.925-0.995
							c2.068-0.3,4.649-0.577,7.993-0.858c3.345-0.283,7.451-0.57,12.57-0.891c5.12-0.321,8.957-0.563,11.833-0.743
							s4.792-0.3,6.07-0.38c1.278-0.081,1.915-0.121,2.235-0.141c0.319-0.021,0.319-0.021,0.319-0.021s0.956-0.249,2.054-0.646
							c1.1-0.396,2.338-0.937,2.906-1.52c0.569-0.582,0.467-1.205-1.119-1.767c-1.584-0.559-4.649-1.058-10.01-1.391
							c-0.162-0.002-0.327-0.004-0.492-0.006c-0.165,0-0.332-0.187-0.496-0.188c-0.165,0-0.332-0.188-0.497-0.188
							c-0.167,0-0.333,0-0.498,0c-3.835,0-7.774,0.363-11.527,0.613c-3.757,0.252-7.326,0.677-10.418,1.01
							c-3.093,0.332-5.708,0.711-7.549,0.959c-1.844,0.25-2.911,0.438-2.911,0.438s1.679-1.384,4.44-3.704
							c2.758-2.315,6.591-5.54,10.906-9.21c4.301-3.66,9.079-7.749,13.752-11.813c4.653-4.049,9.206-8.066,13.083-11.603
							c2.169,0.298,4.361,0.589,6.578,0.87c2.215,0.283,4.456,0.56,6.722,0.824c2.266,0.268,4.555,0.525,6.868,0.774
							c2.313,0.251,4.653,0.49,7.015,0.722c0.438,0.052,0.927,0.1,1.466,0.145c0.536,0.042,1.123,0.082,1.756,0.116
							c0.634,0.034,1.313,0.063,2.034,0.089c0.724,0.023,1.491,0.046,2.3,0.063c-1.033,3.26-2.135,6.66-3.246,9.959
							c-1.113,3.307-2.233,6.506-3.299,9.349c-1.067,2.848-2.076,5.334-2.963,7.201c-0.886,1.872-1.649,3.12-2.223,3.489
							c-0.059,0.744-0.273,1.6-0.813,2.473c-0.543,0.872-1.409,1.761-2.771,2.564c-1.36,0.805-3.216,1.35-5.732,1.887
							c-2.516,0.536-5.693,0.785-9.699,0.785c-0.099,0-0.199,0-0.3,0c-0.103,0-0.205,0-0.308,0s-0.207,0-0.313,0
							c-0.104,0-0.211,0-0.317,0c-2.686,0-5.979,0.188-9.438,0.212c-3.461,0.021-7.089,0.149-10.443,0.218s-6.436,0.209-8.8,0.35
							c-2.368,0.141-4.016,0.347-4.509,0.588c-0.514,0.251-1.226,0.605-1.885,0.99s-1.267,0.817-1.563,1.229
							c-0.3,0.414-0.292,0.817,0.277,1.155c0.568,0.336,1.698,0.609,3.642,0.762c1.13-0.042,2.482-0.099,3.978-0.163
							c1.496-0.063,3.132-0.13,4.826-0.194s3.447-0.122,5.174-0.166c1.729-0.045,3.431-0.072,5.024-0.076
							c0.941-0.002,1.844,0.006,2.691,0.023c0.851,0.019,1.645,0.047,2.366,0.089c0.724,0.042,1.375,0.099,1.938,0.169
							s1.037,0.156,1.407,0.261c0.088,0.22-2.047,0.811-5.411,1.584c-3.366,0.774-7.97,1.732-12.81,2.684
							c-4.844,0.952-9.93,1.899-14.255,2.647c-4.327,0.749-7.893,1.302-9.688,1.463c-1.797,0.16-3.643,0.439-5.415,0.824
							c-1.775,0.382-3.479,0.866-4.993,1.438c-1.515,0.573-2.84,1.232-3.854,1.962c-1.016,0.731-1.721,1.533-1.996,2.393
							c0.048,0.002,0.099,0.002,0.148,0.004c0.051,0,0.101-0.224,0.153-0.222c0.05,0,0.103-0.224,0.154-0.224
							c0.053,0,0.104,0,0.157,0c1.067,0,2.327,0.146,3.617,0.037c1.291-0.113,2.609-0.148,3.795-0.295
							c1.187-0.146,2.237-0.237,2.993-0.348s1.214-0.154,1.214-0.154s1.694-0.292,4.325-0.754c2.63-0.465,6.193-1.078,9.936-1.711
							c3.738-0.633,7.654-1.275,10.995-1.785c3.338-0.511,6.102-0.886,7.539-0.982c1.435-0.099,4.291-0.543,7.767-1.16
							c3.473-0.615,7.562-1.397,11.469-2.167c3.903-0.771,7.624-1.528,10.369-2.093c2.741-0.563,4.511-0.935,4.511-0.935
							s0.183,0.015,0.426,0.076c0.245,0.063,0.553,0.171,0.804,0.36c0.25,0.187,0.444,0.454,0.463,0.83
							c0.016,0.378-0.143,0.864-0.597,1.493c-0.457,0.629-1.315,1.63-2.336,2.832c-1.021,1.202-2.205,2.608-3.311,4.048
							c-1.107,1.441-2.137,2.917-2.844,4.254c-0.71,1.338-1.098,2.538-0.921,3.429c0.177,0.89,0.37,1.687,0.563,2.38
							c0.193,0.693,0.384,1.282,0.553,1.761c0.169,0.478,0.315,0.846,0.42,1.093c0.104,0.248,0.167,0.376,0.167,0.376
							s0.064,0.135,0.199,0.338s0.34,0.475,0.615,0.743c0.275,0.271,0.623,0.541,1.047,0.744s0.925,0.338,1.504,0.336
							c0.342-0.002,0.713-0.051,1.111-0.161c0.4-0.11,0.826-0.283,1.282-0.53c0.456-0.25,0.942-0.573,1.455-0.987
							c0.515-0.416,1.06-0.919,1.632-1.527c0.871-1.63,1.478-2.952,1.899-4.024c0.423-1.066,0.659-1.881,0.788-2.494
							c0.127-0.611,0.146-1.019,0.135-1.274c-0.012-0.255-0.057-0.359-0.057-0.359s0.34-0.603,0.901-1.536
							c0.559-0.935,1.336-2.196,2.208-3.518c0.873-1.318,1.842-2.695,2.784-3.86c0.944-1.164,1.861-2.114,2.638-2.587
							c0.775-0.475,1.188-1.071,1.771-1.777c0.583-0.707,1.339-1.521,2.798-2.432c1.459-0.908,3.62-1.912,7.021-2.995
							c3.396-1.081,8.024-2.241,14.416-3.465c2.198-0.471,4.24-0.979,6.065-1.478s3.434-0.984,4.766-1.415
							c1.335-0.428,2.393-0.798,3.117-1.06c0.727-0.261,1.118-0.418,1.118-0.418s0.104-0.236,0.171-0.593
							c0.064-0.357,0.09-0.832-0.07-1.307c-0.159-0.474-0.503-0.948-1.178-1.302c-0.674-0.354-1.677-0.59-3.156-0.588
							c-0.369,0-0.768,0.017-1.199,0.049c-0.431,0.032-0.895,0.08-1.392,0.146c-0.498,0.068-1.028,0.155-1.598,0.262
							c-0.566,0.104-1.172,0.232-1.815,0.382c-2.056,0.559-4.305,1.142-6.523,1.702c-2.222,0.561-4.41,1.1-6.342,1.566
							c-1.934,0.468-3.61,0.865-4.804,1.147c-1.194,0.279-1.903,0.444-1.903,0.444s-0.141,0.054-0.378,0.135
							c-0.237,0.082-0.571,0.188-0.957,0.297s-0.826,0.217-1.272,0.3c-0.448,0.082-0.904,0.137-1.324,0.137
							c-0.355,0.002-0.686-0.036-0.965-0.129c-0.277-0.095-0.505-0.241-0.651-0.46c-0.148-0.22-0.217-0.509-0.181-0.887
							s0.179-0.842,0.452-1.411c0.338-0.699,0.908-2.249,1.638-4.394c0.729-2.139,1.616-4.866,2.589-7.928
							c0.969-3.053,2.022-6.434,3.09-9.891c1.062-3.447,2.137-6.967,3.151-10.315c8.239-0.207,18.136-0.683,28.879-1.465
							c10.731-0.784,22.299-1.874,33.889-3.311c11.571-1.436,23.156-3.214,33.95-5.377c10.765-2.158,20.736-4.695,29.11-7.651
							c0.432-0.059,1.057-0.139,1.845-0.229c0.79-0.091,1.745-0.19,2.841-0.283c1.093-0.093,2.327-0.177,3.676-0.239
							s2.81-0.103,4.359-0.104c0.94,0,1.914,0.014,2.915,0.046c1.001,0.03,2.025,0.08,3.075,0.15
							c1.047,0.073,2.118,0.163,3.201,0.282c1.086,0.116,2.188,0.259,3.299,0.43c9.963,2.604,20.823,5.453,31.688,8.319
							c10.884,2.872,21.773,5.763,31.757,8.439c10.004,2.684,19.097,5.154,26.362,7.18c7.278,2.028,12.718,3.608,15.403,4.509
							c-1.532-0.741-2.967-1.389-4.304-1.952c-1.337-0.564-2.575-1.047-3.713-1.459c-1.137-0.412-2.177-0.754-3.113-1.037
							s-1.771-0.508-2.502-0.689c2.646,0.488,6.51,1.2,10.979,2.022c4.47,0.821,9.547,1.757,14.622,2.688
							c5.077,0.936,10.15,1.868,14.608,2.688c4.46,0.82,8.304,1.525,10.914,2.002c1.566,0.288,4.159,0.655,7.365,1.046
							c3.207,0.39,7.028,0.804,11.057,1.18c4.027,0.378,8.259,0.718,12.285,0.963c4.023,0.245,7.843,0.396,11.038,0.392
							c3.32-0.006,5.972-0.177,7.495-0.579c1.521-0.403,1.914-1.037,0.72-1.97c-1.194-0.931-3.972-2.158-8.792-3.746
							c-4.812-1.586-11.657-3.533-20.987-5.903c-10.194-2.71-21.575-5.364-33.228-7.96c-11.629-2.591-23.528-5.121-34.782-7.59
							c-11.233-2.462-21.826-4.861-30.86-7.193c-9.021-2.325-16.49-4.584-21.503-6.77c-0.961-0.436-2.275-0.94-3.882-1.497
							c-1.605-0.555-3.503-1.162-5.634-1.799c-2.13-0.638-4.494-1.305-7.032-1.982c-2.537-0.677-5.248-1.366-8.074-2.048
							c4.689,0.016,9.346,0.093,13.921,0.239c4.572,0.146,9.061,0.366,13.412,0.667c4.35,0.304,8.563,0.689,12.585,1.17
							c4.023,0.482,7.854,1.062,11.442,1.747c0.137,0.02,0.283,0.038,0.442,0.054c0.159,0.017,0.328,0.03,0.505,0.041
							c0.177,0.012,0.361,0.02,0.555,0.025c0.19,0.004,0.388,0.008,0.591,0.008c1.816-0.002,3.974-0.23,4.963-0.768
							c0.988-0.536,0.81-1.379-2.037-2.601c-2.844-1.22-8.349-2.82-18.007-4.874c-9.644-2.053-23.426-4.557-42.826-7.584
							c-3.92-2.42-12.589-5.983-25.013-10.1c-12.385-4.103-28.493-8.752-47.346-13.369c-18.79-4.601-40.313-9.169-63.632-13.141
							c-23.258-3.962-48.334-7.332-74.337-9.551c-4.23-0.658-8.648-1.259-13.279-1.789c-4.627-0.531-9.465-0.993-14.536-1.373
							c-5.069-0.382-10.37-0.682-15.926-0.887c-5.558-0.207-11.368-0.319-17.454-0.327c-1.033,0-2.072,0.002-3.119,0.006
							c-1.048,0.004-2.104,0.012-3.168,0.024c-1.063,0.012-2.137,0.025-3.216,0.042c-1.081,0.018-2.169,0.038-3.267,0.062
							c-6.804-1.613-12.91-4.331-18.305-7.549c-5.381-3.21-10.05-6.914-14.006-10.519c-3.941-3.594-7.177-7.087-9.71-9.898
							c-2.526-2.804-4.359-4.935-5.501-5.812c-2.649-3.115-6.158-5.678-10.154-7.766c-3.988-2.087-8.464-3.703-13.051-4.935
							c-4.585-1.229-9.284-2.073-13.726-2.613C150.656,321.806,146.472,321.572,142.916,321.564"/>
					</g>
				</g>
			</g>
		</g>
		<g>
			<path id="patted_34_" fill="#0E1616" d="M313.311,390.591c0,0-38.979,71.951-48.711,81.686
				c-9.736,9.734-17.996,16.972-33.754,16.508c-15.76-0.462-22.206-0.068-22.206-0.068s-8.325,4.57,0.019,5.497
				c8.343,0.927,18.087-0.022,18.087-0.022l-21.779,11.113l-10.195,2.776c0,0-7.414,6.95,2.32,5.559
				c9.733-1.393,48.207-16.688,48.207-16.688l-15.296,22.192c0,0-3.244,5.153-2.782,11.18c0.464,6.025-2.317,12.052,5.1,2.319
				c7.417-9.734,22.248-25.495,26.421-29.203c4.171-3.708,8.344-5.099,28.274-7.417c19.933-2.317,19.933-2.317,19.933-2.317
				s15.294-7.417-5.332-9.965c-15.297-0.465-33.605,4.866-33.605,4.866s55.622-81.792,57.939-91.063
				c2.317-9.27,2.317-8.556,2.317-8.556h-15.294L313.311,390.591z"/>
			<path id="patteg_35_" fill="#162022" d="M355.618,389.875c0,0-19.777,88.843-24.104,93.787
				c-0.619,5.563-3.941,14.522-19.47,14.986c-9.968,0-31.287-0.038-33.374,1.815c-2.086,1.854-7.417,6.47,0,7.628
				c6.952-0.463,22.711-2.095,26.421-0.008c0.231,1.622-34.531,14.132-41.485,15.291c-6.952,1.158-14.834,5.791-16.223,12.049
				c3.939,0.23,11.818-2.087,11.818-2.087s26.421-8.808,31.985-9.503c5.561-0.695,33.604-11.59,33.604-11.59s2.781,0.465,0.695,5.1
				c-2.087,4.635-11.125,20.164-10.895,26.652c0.231,6.49,0.929,10.196,0.929,10.196s1.854,9.968,8.574-1.854
				c4.171-11.818,3.709-14.831,3.709-14.831s6.49-17.615,9.734-21.091c3.244-3.478,1.155-10.661,26.65-19.7
				c8.808-3.475,15.297-8.111,15.297-8.111s3.478-11.125-9.503-5.563c-8.343,4.174-19.731,9.039-19.731,9.039
				s-7.847,5.485-4.834-3.784c3.013-9.272,23.408-98.423,23.408-98.423H355.618z"/>
			<path id="tete_20_" fill="#262D2D" d="M134.745,249.576c0,0,9.859-27.925-49.32-21.286c-4.954-10.548-18.375-3.178-8.88-26.871
				c4.958-8.098,33.95-54.092,70.13-65.902c8.916-4.562,46.681-1.399,59.454,33.122c4.868,8.269,21.385,68.328,53.96,74.415
				C254.613,263.362,163.9,313.352,134.745,249.576z"/>
			<path id="queue_36_" fill="#262D2D" d="M471.897,369.577c0,0,1.024,0.555,2.904,1.569c18.751,10.135,122.4,66.271,136.729,76.508
				c-9.76-10.513-15.766-11.262-15.766-11.262s39.789,15.014,51.801,19.519c12.012,4.504,90.086,19.519,22.521-16.517
				c-37.536-21.02-94.591-40.539-112.608-57.807C545.468,369.577,468.143,330.539,471.897,369.577z"/>
			<path id="corps_35_" fill="#262D2D" d="M163.35,324.049c0,0,50.297,77.059,176.418,101.833
				c15.767,3.753,102.101-3.755,148.646-33.781c3.003-0.752,15.015-3.755,27.026,0.75c12.011,4.504-44.045-77.325-88.337-89.337
				c-44.293-12.012-71.566-75.573-196.188-61.56c-32.533,8.008-96.169,7.622-96.169,7.622S131.797,287.265,163.35,324.049z"/>
			<path id="torse_rouge" fill="#5B1D12" d="M161.652,322.238c0,0-12.964-30.845,25.72-33.739
				c18.768,5.254,127.623,56.305,147.142,78.827c12.762,13.513,30.029,45.793-20.271,51.799
				C258.795,409.006,188.287,365.529,161.652,322.238z"/>
			<path id="aile_46_" fill="#181E1E" d="M276.707,243.455c0,0-82.638,14.997-21.77,84.081
				c14.263,10.511,63.811,52.551,201.945,46.545c31.53-5.254,98.38-5.995,128.372,0.585c5.257,1.668,31.53-4.338-52.55-31.363
				C516.94,320.781,403.58,248.712,276.707,243.455z"/>
			<path id="bec_42_" fill="#162022" d="M114.214,199.901c0,0-54.123,18.082-24.561-3.531c-7.575-2.782-50.759,24.411-68.272,46.35
				c0.141,2.499,63.632-13.005,86.4-21.703C115.844,218.156,145.631,192.923,114.214,199.901z"/>
			
				<ellipse id="oeil_27_" transform="matrix(0.765 -0.644 0.644 0.765 -81.1218 132.2077)" fill="#864E1F" cx="140.603" cy="177.265" rx="10.51" ry="8.508"/>
			
				<radialGradient id="iris_1_" cx="-2434.6841" cy="-686.1387" r="7.8313" gradientTransform="matrix(0.765 -0.644 0.644 0.765 2442.3169 -867.5179)" gradientUnits="userSpaceOnUse">
				<stop  offset="0" style="stop-color:#FFFFFF"/>
				<stop  offset="0.1386" style="stop-color:#D5D4D3"/>
				<stop  offset="0.2079" style="stop-color:#494340"/>
				<stop  offset="0.3663" style="stop-color:#28201D"/>
				<stop  offset="1" style="stop-color:#231B18"/>
			</radialGradient>
			<path id="iris" fill="url(#iris_1_)" d="M143.849,172.57c1.869,2.219,1.584,5.533-0.638,7.404
				c-2.219,1.869-5.535,1.584-7.402-0.637c-1.871-2.219-1.586-5.535,0.635-7.405C138.663,170.063,141.979,170.35,143.849,172.57z"/>
		</g>
	</g>
</g>
<g id="héron_garde-boeufs">
</g>
</svg>
