<?xml version="1.0" encoding="utf-8"?>
<!-- Generator: Adobe Illustrator 16.0.0, SVG Export Plug-In . SVG Version: 6.00 Build 0)  -->
<!DOCTYPE svg PUBLIC "-//W3C//DTD SVG 1.1//EN" "http://www.w3.org/Graphics/SVG/1.1/DTD/svg11.dtd">
<svg version="1.1" xmlns="http://www.w3.org/2000/svg" xmlns:xlink="http://www.w3.org/1999/xlink" x="0px" y="0px" width="732px"
	 height="692px" viewBox="0 0 732 692" enable-background="new 0 0 732 692" xml:space="preserve">
<g id="Calque_1" display="none">
	<rect x="214.381" y="646.085" display="inline" fill="none" width="415.59" height="37.878"/>
	<text transform="matrix(1 0 0 1 214.3813 670.9346)" display="inline" font-family="'MyriadPro-Regular'" font-size="35">Colombe à croissants</text>
</g>
<g id="colombe_à_croissant">
	<g>
		<g opacity="0.3">
			<g>
				<g enable-background="new    ">
					<defs>
						<polygon id="SVGID_1_" enable-background="new    " points="110.805,614.677 33.406,342.623 677.229,340.514 681.549,616.331 
													"/>
					</defs>
					<clipPath id="SVGID_2_">
						<use xlink:href="#SVGID_1_"  overflow="visible"/>
					</clipPath>
					<g clip-path="url(#SVGID_2_)">
						<path fill="#959595" d="M379.936,589.378c1.093,0.002,2.055-0.104,2.884-0.263c0.829-0.159,1.523-0.373,2.083-0.586
							c0.558-0.214,0.98-0.429,1.263-0.589c0.282-0.161,0.425-0.269,0.425-0.269s0.01-0.003,0.026-0.009
							c0.018-0.007,0.044-0.016,0.078-0.028c0.033-0.012,0.075-0.026,0.124-0.043c0.048-0.018,0.105-0.037,0.167-0.058
							c-1.246,1.197-2.575,2.055-3.916,2.682c-1.34,0.626-2.693,1.022-3.99,1.296c-1.295,0.274-2.535,0.427-3.647,0.567
							c-1.113,0.14-2.098,0.266-2.886,0.487c-0.201,0.056-0.455,0.105-0.756,0.149c-0.3,0.044-0.648,0.082-1.036,0.114
							c-0.388,0.032-0.815,0.06-1.277,0.082c-0.461,0.023-0.955,0.041-1.476,0.055l1.367-0.299c0,0,0.204-0.097,0.564-0.276
							c0.362-0.178,0.881-0.439,1.515-0.765c0.634-0.328,1.382-0.721,2.198-1.165c0.817-0.445,1.703-0.939,2.613-1.47
							c0.339,0.068,0.669,0.127,0.993,0.175c0.322,0.05,0.637,0.088,0.943,0.12c0.306,0.031,0.604,0.053,0.895,0.068
							C379.38,589.369,379.662,589.377,379.936,589.378 M394.369,578.06c-0.089-0.207-0.178-0.414-0.265-0.624
							c-0.086-0.209-0.169-0.421-0.248-0.635s-0.154-0.429-0.222-0.648c-0.068-0.218-0.13-0.439-0.183-0.663
							c-0.157-0.654-0.042-1.472,0.278-2.444c0.32-0.973,0.847-2.102,1.516-3.376c0.669-1.278,1.481-2.703,2.37-4.267
							c0.89-1.567,1.858-3.275,2.839-5.114c0.501-0.528,0.965-1.036,1.392-1.524s0.82-0.958,1.179-1.408
							c0.36-0.451,0.687-0.882,0.986-1.295c0.297-0.414,0.567-0.81,0.81-1.187c0.7,0.95,0.999,1.861,1.054,2.711
							c0.056,0.849-0.13,1.636-0.398,2.338c-0.269,0.702-0.619,1.32-0.893,1.83c-0.273,0.51-0.47,0.913-0.431,1.186
							c0.028,0.196-0.268,0.819-0.803,1.75c-0.535,0.93-1.309,2.166-2.237,3.588c-0.928,1.421-2.009,3.027-3.163,4.698
							C396.799,574.645,395.578,576.379,394.369,578.06 M129.595,342.308c-5.556,0.019-10.794,0.454-15.592,1.242
							c-4.794,0.787-9.145,1.925-12.932,3.349c-3.782,1.422-6.997,3.128-9.529,5.054c-2.527,1.923-4.37,4.063-5.412,6.356
							c-0.012,0.029-0.029,0.077-0.047,0.141c-0.019,0.063-0.04,0.145-0.064,0.24c-0.023,0.096-0.049,0.207-0.076,0.329
							c-0.027,0.124-0.055,0.259-0.083,0.405c-0.017,0.012-0.033,0.026-0.049,0.04c-0.016,0.015-0.03,0.03-0.045,0.048
							c-0.014,0.018-0.028,0.037-0.041,0.06c-0.013,0.022-0.024,0.047-0.035,0.075c-0.237,0.638-1.199,1.823-2.51,3.24
							c-1.308,1.414-2.962,3.06-4.585,4.624c-1.62,1.561-3.208,3.041-4.392,4.13c-1.182,1.089-1.959,1.787-1.959,1.787
							s-0.05,0.057-0.123,0.153c-0.073,0.095-0.168,0.23-0.262,0.386c-0.092,0.156-0.182,0.333-0.241,0.512
							c-0.061,0.18-0.09,0.363-0.063,0.531c-0.875,0.074-1.564,0.234-2.143,0.454c-0.578,0.219-1.046,0.499-1.478,0.809
							c-0.432,0.311-0.826,0.653-1.259,1c-0.433,0.347-0.903,0.698-1.484,1.027c-0.715,0.406-1.418,0.845-2.14,1.29
							c-0.721,0.445-1.46,0.896-2.244,1.325s-1.613,0.838-2.513,1.198c-0.901,0.36-1.875,0.672-2.948,0.908
							c-1.072,0.238-2.288,1.036-3.422,2.137c-1.132,1.1-2.182,2.501-2.924,3.948c-0.742,1.445-1.178,2.935-1.085,4.217
							c0.092,1.279,0.712,2.351,2.082,2.959c0.084,0.037,0.173,0.068,0.264,0.094c0.091,0.026,0.185,0.048,0.281,0.063
							c0.097,0.017,0.197,0.028,0.299,0.037c0.103,0.007,0.208,0.012,0.315,0.012c0.254,0,0.522-0.022,0.805-0.06
							c0.282-0.037,0.579-0.089,0.888-0.153s0.631-0.137,0.965-0.216c0.335-0.079,0.681-0.163,1.037-0.247
							c0.359-0.084,0.729-0.168,1.109-0.247c0.379-0.08,0.769-0.154,1.168-0.218c0.397-0.064,0.806-0.117,1.22-0.155
							c0.416-0.038,0.838-0.06,1.268-0.061c0.032,0,0.065,0,0.097,0c0.033,0,0.064,0,0.097,0.001c0.033,0,0.064,0.001,0.097,0.002
							c0.032,0,0.065,0.001,0.098,0.002c1.527-0.168,3.055-0.619,4.489-1.199c1.434-0.582,2.775-1.294,3.924-1.987
							c1.151-0.692,2.111-1.364,2.784-1.862c0.673-0.499,1.058-0.825,1.058-0.825s0.751-0.381,2.131-0.954
							c1.38-0.573,3.39-1.338,5.905-2.104c2.519-0.767,5.543-1.536,8.951-2.115c3.41-0.58,7.202-0.971,11.249-0.98
							c0.104,0,0.209,0,0.314,0c0.105,0,0.209,0,0.314,0.001c0.105,0,0.21,0.001,0.315,0.003c0.106,0.001,0.212,0.002,0.317,0.004
							l0.109,0.005l0.071,0.009l0.036-0.01c0.059-0.002,0.119-0.007,0.181-0.018c0.062-0.009,0.125-0.023,0.189-0.042
							c0.065-0.017,0.13-0.04,0.197-0.065c0.066-0.026,0.133-0.056,0.201-0.09c0.223-0.056,0.46-0.112,0.71-0.167
							c0.251-0.055,0.516-0.111,0.793-0.165c0.278-0.055,0.569-0.11,0.872-0.163c0.302-0.053,0.618-0.107,0.945-0.159
							c1.194,0.445,2.426,0.869,3.693,1.269c1.266,0.4,2.567,0.777,3.899,1.129c1.331,0.352,2.693,0.679,4.082,0.981
							c1.388,0.302,2.802,0.578,4.239,0.826l0.015,0.021c7.037,2.189,12.788,5.82,17.448,10.024c4.645,4.19,8.2,8.944,10.872,13.412
							c2.663,4.451,4.448,8.618,5.569,11.666c1.117,3.041,1.572,4.975,1.572,4.975s0.294,1.399,1.012,3.772
							c0.715,2.369,1.85,5.705,3.528,9.584c1.672,3.867,3.883,8.27,6.756,12.792c2.862,4.505,6.38,9.128,10.68,13.463
							c7.827,9.694,16.975,19.166,27.615,27.932c10.562,8.701,22.606,16.72,36.321,23.592c13.639,6.834,28.958,12.549,46.168,16.692
							c17.16,4.132,36.252,6.713,57.527,7.285c3.785,0.873,7.534,1.636,11.238,2.299c3.703,0.664,7.364,1.227,10.977,1.699
							c3.612,0.473,7.177,0.854,10.688,1.156c3.511,0.3,6.969,0.521,10.368,0.668c0.013,0.025,0.027,0.051,0.041,0.078
							c0.014,0.025,0.029,0.051,0.045,0.077s0.033,0.05,0.05,0.076c0.018,0.025,0.036,0.05,0.056,0.075
							c0.439,0.535,0.65,1.251,0.697,2.041c0.047,0.789-0.071,1.65-0.291,2.478c-0.219,0.827-0.541,1.618-0.901,2.267
							c-0.361,0.65-0.76,1.159-1.137,1.417c-0.377,0.26-1.101,1.573-2,3.422c-0.896,1.846-1.966,4.226-3.037,6.625
							c-1.069,2.394-2.138,4.808-3.04,6.734c-0.9,1.923-1.635,3.362-2.034,3.815c-0.4,0.453-0.623,0.821-0.741,1.147
							c-0.119,0.327-0.133,0.612-0.118,0.903c0.016,0.29,0.062,0.583,0.064,0.923c0.002,0.341-0.04,0.729-0.198,1.209
							c-0.161,0.48-0.905,0.888-1.93,1.23c-1.025,0.341-2.331,0.618-3.617,0.834c-1.286,0.215-2.55,0.372-3.493,0.474
							c-0.944,0.103-1.567,0.15-1.567,0.15s-0.733,0.043-1.918,0.107c-1.185,0.064-2.821,0.149-4.627,0.234s-3.781,0.17-5.645,0.232
							c-1.864,0.063-3.615,0.103-4.974,0.101c-0.17-0.001-0.335-0.002-0.493-0.003c-0.157-0.002-0.308-0.005-0.452-0.008
							c-0.143-0.002-0.279-0.007-0.408-0.012c-0.127-0.004-0.249-0.01-0.36-0.017c-0.822-0.048-1.651-0.138-2.507-0.247
							c-0.855-0.108-1.739-0.236-2.669-0.356c-0.93-0.122-1.908-0.237-2.952-0.323c-1.044-0.086-2.156-0.143-3.354-0.146
							c-0.267,0-0.54,0.002-0.816,0.007c-0.277,0.005-0.558,0.013-0.844,0.024c-0.286,0.011-0.577,0.026-0.872,0.044
							c-0.296,0.017-0.597,0.039-0.902,0.064c-1.695,0.334-2.682,0.705-3.208,1.073c-0.526,0.369-0.591,0.734-0.445,1.057
							c0.146,0.323,0.503,0.605,0.824,0.806s0.605,0.32,0.605,0.32s0.065,0.001,0.183,0.005c0.119,0.002,0.292,0.006,0.507,0.009
							c0.216,0.005,0.475,0.008,0.766,0.011c0.291,0.003,0.615,0.006,0.959,0.007c0.353,0,0.727,0,1.113-0.004
							c0.386-0.003,0.783-0.009,1.179-0.019c0.397-0.01,0.793-0.023,1.178-0.041c0.385-0.017,0.758-0.039,1.108-0.067
							c0.447-0.035,0.838-0.077,1.184-0.119c0.345-0.042,0.644-0.085,0.906-0.124c0.263-0.039,0.489-0.072,0.689-0.097
							s0.372-0.039,0.528-0.038c0.085,0,0.166,0.005,0.243,0.015c0.077,0.01,0.15,0.025,0.222,0.047
							c0.072,0.021,0.141,0.05,0.211,0.085c0.069,0.035,0.138,0.077,0.209,0.127c0.187,0.131,0.639,0.319,1.26,0.525
							c0.621,0.207,1.411,0.433,2.274,0.643c0.863,0.211,1.799,0.405,2.712,0.547c0.914,0.142,1.806,0.231,2.581,0.233
							c0.055,0,0.108,0,0.163-0.001c0.053-0.001,0.106-0.002,0.158-0.003c0.053-0.001,0.104-0.004,0.155-0.007
							c0.051-0.002,0.102-0.005,0.151-0.008c0.751-0.055,1.87-0.102,3.124-0.142c1.253-0.039,2.644-0.071,3.94-0.096
							c1.296-0.025,2.499-0.043,3.377-0.055c0.879-0.013,1.433-0.019,1.433-0.019s-0.318,0.112-0.836,0.293
							c-0.518,0.181-1.237,0.433-2.038,0.711c-0.802,0.279-1.686,0.585-2.536,0.877s-1.665,0.571-2.33,0.792
							c-0.485,0.162-0.902,0.354-1.26,0.559c-0.357,0.206-0.657,0.424-0.905,0.641c-0.248,0.215-0.445,0.429-0.602,0.623
							c-0.155,0.194-0.269,0.37-0.349,0.509c-0.228-0.003-0.45-0.007-0.665-0.01c-0.215-0.003-0.423-0.005-0.625-0.008
							c-0.201-0.002-0.394-0.005-0.58-0.005c-0.186-0.001-0.363-0.002-0.531-0.003c-0.247,0-0.476,0-0.684,0.002
							c-0.209,0.001-0.396,0.004-0.561,0.009c-0.165,0.004-0.308,0.011-0.425,0.019c-0.117,0.008-0.21,0.017-0.277,0.029
							c-0.413,0.073-1.279,0.224-2.398,0.409c-1.118,0.187-2.488,0.406-3.907,0.615c-1.419,0.211-2.89,0.411-4.208,0.559
							s-2.487,0.242-3.304,0.24c-0.815-0.001-1.813,0.125-2.876,0.324c-1.063,0.2-2.19,0.471-3.263,0.761
							c-1.073,0.29-2.092,0.596-2.938,0.867c-0.846,0.268-1.518,0.5-1.898,0.639c-0.28,0.101-0.379,0.294-0.321,0.527
							c0.059,0.233,0.274,0.506,0.624,0.767c0.349,0.261,0.831,0.508,1.421,0.691c0.592,0.184,1.293,0.302,2.079,0.305
							c0.285,0,0.581-0.015,0.886-0.046c0.306-0.032,0.623-0.083,0.948-0.153c0.325-0.07,0.659-0.161,1.001-0.274
							s0.693-0.249,1.05-0.411c1.346-0.607,2.808-1.016,4.381-1.292c1.575-0.278,3.262-0.422,5.059-0.502
							c1.797-0.079,3.704-0.092,5.72-0.104c2.015-0.013,4.137-0.025,6.365-0.104c0.585,0.195,1.232,0.358,1.925,0.493
							c0.692,0.134,1.431,0.24,2.199,0.322c0.769,0.081,1.566,0.138,2.38,0.176c0.813,0.038,1.641,0.056,2.467,0.058
							c1.482,0.004,2.962-0.043,4.347-0.115c1.384-0.071,2.675-0.168,3.781-0.266c1.105-0.098,2.025-0.196,2.669-0.269
							c0.644-0.074,1.012-0.123,1.012-0.123s-0.281,0.253-0.74,0.642c-0.458,0.388-1.096,0.911-1.81,1.45
							c-0.713,0.54-1.504,1.095-2.269,1.551c-0.765,0.455-1.506,0.809-2.122,0.945c-0.617,0.138-2.234,0.604-4.338,1.236
							c-2.103,0.63-4.691,1.425-7.256,2.218c-2.562,0.793-5.101,1.585-7.107,2.213c-2.005,0.627-3.481,1.091-3.92,1.226
							c-0.438,0.137-1.242,0.341-2.172,0.598c-0.932,0.255-1.991,0.561-2.942,0.901c-0.952,0.341-1.796,0.716-2.296,1.109
							c-0.501,0.393-0.659,0.804-0.24,1.216c0.102,0.101,0.257,0.187,0.458,0.26c0.201,0.073,0.448,0.133,0.737,0.18
							c0.288,0.048,0.616,0.083,0.979,0.106c0.364,0.023,0.76,0.035,1.187,0.036c1.319,0.004,2.911-0.095,4.596-0.271
							c1.687-0.176,3.466-0.43,5.16-0.736c1.694-0.306,3.303-0.664,4.646-1.049c1.343-0.384,2.42-0.797,3.05-1.21
							c1.556-0.216,3.011-0.519,4.362-0.869c1.353-0.351,2.602-0.748,3.745-1.154c1.143-0.407,2.181-0.822,3.109-1.208
							s1.748-0.741,2.454-1.028c0.097,0.014,0.194,0.026,0.29,0.037c0.097,0.011,0.193,0.019,0.288,0.026
							c0.095,0.007,0.189,0.012,0.284,0.015c0.094,0.004,0.188,0.006,0.281,0.006c0.822,0.002,1.601-0.119,2.306-0.3
							c0.706-0.182,1.337-0.424,1.867-0.668c0.531-0.244,0.957-0.488,1.252-0.67c0.294-0.184,0.457-0.306,0.457-0.306
							s0.302-0.199,0.792-0.525c0.49-0.326,1.167-0.778,1.917-1.282c0.75-0.503,1.572-1.059,2.351-1.593
							c0.78-0.533,1.516-1.044,2.093-1.459c0.398-0.288,0.76-0.524,1.095-0.718c0.335-0.192,0.646-0.342,0.942-0.454
							c0.295-0.113,0.577-0.189,0.855-0.238c0.279-0.048,0.555-0.069,0.839-0.067c0.125,0,0.254,0.004,0.384,0.013
							c0.131,0.008,0.263,0.018,0.4,0.032c0.137,0.014,0.278,0.03,0.423,0.048c0.146,0.019,0.296,0.04,0.451,0.062
							c0.613,0.197,1.381,1.039,2.286,2.265c0.903,1.225,1.94,2.832,3.093,4.557c1.149,1.723,2.415,3.563,3.775,5.261
							c1.358,1.696,2.812,3.25,4.343,4.406c0.562,0.321,1.087,0.592,1.578,0.817c0.492,0.225,0.948,0.405,1.371,0.544
							c0.424,0.139,0.815,0.239,1.176,0.304c0.361,0.064,0.691,0.095,0.993,0.096c0.731,0.002,1.294-0.168,1.716-0.434
							c0.421-0.266,0.702-0.627,0.867-1.008c0.166-0.38,0.216-0.778,0.18-1.12c-0.037-0.34-0.162-0.622-0.347-0.768
							c-0.261-0.206-0.602-0.468-0.988-0.787c-0.388-0.318-0.822-0.694-1.268-1.128c-0.447-0.434-0.906-0.927-1.343-1.48
							c-0.439-0.555-0.854-1.169-1.215-1.846c-0.107-0.746-0.524-1.712-1.122-2.768c-0.599-1.057-1.38-2.204-2.217-3.304
							c-0.838-1.102-1.732-2.157-2.554-3.033c-0.824-0.875-1.575-1.57-2.127-1.948c-0.523-0.357-0.769-0.743-0.807-1.12
							c-0.039-0.377,0.13-0.746,0.436-1.069c0.307-0.324,0.749-0.603,1.257-0.801c0.509-0.197,1.083-0.313,1.654-0.313
							c0.03,0,0.062,0,0.093,0.001c0.031,0.001,0.062,0.002,0.093,0.003s0.062,0.004,0.093,0.007
							c0.031,0.001,0.062,0.004,0.093,0.007c0.591,0.056,1.529,0.285,2.653,0.644c1.124,0.358,2.432,0.846,3.763,1.421
							c1.331,0.575,2.684,1.237,3.899,1.943c1.214,0.706,2.288,1.457,3.063,2.209c0.315,0.304,0.638,0.559,0.965,0.768
							c0.327,0.21,0.657,0.375,0.987,0.503c0.33,0.127,0.659,0.217,0.982,0.274c0.324,0.058,0.642,0.083,0.951,0.084
							c0.455,0.001,0.887-0.052,1.284-0.141c0.398-0.088,0.76-0.212,1.072-0.35c0.312-0.137,0.574-0.29,0.771-0.437
							c0.198-0.147,0.331-0.289,0.385-0.405c0.712-0.763,0.48-1.552-0.294-2.314c-0.774-0.763-2.091-1.498-3.547-2.149
							c-1.457-0.653-3.052-1.222-4.382-1.653c-1.331-0.431-2.396-0.724-2.789-0.823c-0.396-0.098-1.048-0.292-1.821-0.544
							c-0.774-0.25-1.667-0.558-2.545-0.88c-0.878-0.324-1.74-0.663-2.45-0.977c-0.709-0.315-1.267-0.604-1.534-0.829
							c-0.69-0.975-0.606-2.146-0.079-3.394c0.528-1.249,1.501-2.577,2.589-3.863c1.09-1.288,2.295-2.536,3.284-3.622
							c0.991-1.087,1.764-2.013,1.988-2.656c0.224-0.643,0.768-1.534,1.549-2.562c0.783-1.028,1.803-2.196,2.978-3.393
							c1.176-1.198,2.507-2.426,3.911-3.574c1.404-1.15,2.881-2.219,4.344-3.098c3.257-2.213,4.765-4.309,5.19-6.209
							c0.427-1.905-0.233-3.613-1.307-5.045c-1.075-1.434-2.564-2.592-3.792-3.394c-1.228-0.802-2.194-1.249-2.221-1.26
							c8.979-0.713,17.226-1.834,24.552-3.117c7.338-1.285,13.752-2.731,19.048-4.09c5.304-1.361,9.484-2.634,12.339-3.567
							c2.859-0.935,4.388-1.527,4.388-1.527c0.153-0.048,0.306-0.098,0.456-0.15c0.151-0.051,0.301-0.105,0.45-0.162
							c0.148-0.056,0.297-0.114,0.444-0.175c0.147-0.06,0.295-0.123,0.442-0.188c2.982,0.18,5.898,0.342,8.746,0.489
							c2.848,0.146,5.631,0.274,8.349,0.387c2.719,0.114,5.373,0.211,7.964,0.293c2.591,0.083,5.119,0.151,7.587,0.205
							c1.323,0.031,2.648,0.058,3.976,0.082c1.327,0.024,2.657,0.044,3.987,0.061c1.331,0.017,2.663,0.03,3.994,0.039
							c1.333,0.01,2.666,0.015,3.999,0.017c6.429,0.007,12.863-0.079,19.245-0.274c6.384-0.196,12.718-0.501,18.944-0.937
							c6.23-0.435,12.354-0.999,18.315-1.708c5.966-0.711,11.77-1.57,17.356-2.594c0.863-0.105,1.668-0.236,2.414-0.389
							c0.746-0.151,1.433-0.325,2.061-0.516c0.628-0.191,1.197-0.399,1.707-0.623c0.51-0.224,0.959-0.462,1.35-0.712
							c2.312,0.347,6.155,1.1,10.788,2.066c4.628,0.965,10.042,2.142,15.502,3.337c5.455,1.195,10.956,2.407,15.765,3.444
							c4.806,1.037,8.923,1.898,11.619,2.394c0.343,0.063,0.681,0.119,1.01,0.164c0.329,0.047,0.652,0.084,0.967,0.115
							c0.316,0.03,0.624,0.052,0.925,0.067c0.301,0.015,0.595,0.022,0.882,0.023c2.052,0.002,3.747-0.352,5.1-0.9
							c1.353-0.548,2.363-1.292,3.046-2.066c0.683-0.775,1.038-1.581,1.08-2.255c0.041-0.674-0.233-1.215-0.806-1.459
							c-0.657-0.279-1.495-0.612-2.46-0.966c-0.967-0.354-2.06-0.73-3.224-1.094c-1.165-0.363-2.399-0.715-3.65-1.019
							c-1.25-0.305-2.516-0.565-3.74-0.745c-1.224-0.181-2.204-0.391-3.147-0.664c-0.944-0.273-1.851-0.61-2.929-1.044
							c-1.078-0.434-2.327-0.965-3.955-1.628c-1.627-0.664-3.635-1.459-6.229-2.421c-0.859-0.655-1.918-1.293-3.126-1.912
							c-1.211-0.619-2.57-1.217-4.032-1.793c-1.463-0.574-3.026-1.127-4.644-1.653c-1.616-0.526-3.286-1.025-4.958-1.497
							c1.046-0.782,1.468-1.693,1.108-2.744c-0.358-1.053-1.5-2.247-3.58-3.595c-2.084-1.35-5.11-2.855-9.24-4.53
							c-4.133-1.677-9.374-3.522-15.88-5.551h-0.01c-3.759-2.641-8.35-4.901-13.182-6.811c-4.838-1.913-9.915-3.472-14.633-4.706
							c-4.723-1.235-9.085-2.146-12.491-2.761c-3.406-0.616-5.855-0.936-6.75-0.99c-0.996-0.063-2.647-0.202-4.628-0.419
							c-1.981-0.217-4.293-0.512-6.61-0.883c-2.318-0.372-4.642-0.821-6.647-1.349c-2.006-0.526-3.694-1.132-4.738-1.814
							c-9.175-6.043-23.687-11.626-40.363-16.615c-16.738-5.007-35.633-9.407-53.473-13.064
							c-17.883-3.668-34.683-6.584-47.165-8.618c-12.498-2.035-20.651-3.183-21.235-3.311c-0.583-0.127-1.721-0.406-3.29-0.789
							c-1.568-0.381-3.569-0.866-5.875-1.402c-2.308-0.537-4.922-1.125-7.718-1.717c-2.797-0.591-5.776-1.184-8.811-1.728
							c-2.535-0.455-6.138-1.272-10.255-2.281c-4.121-1.009-8.756-2.212-13.351-3.435c-4.6-1.225-9.158-2.471-13.117-3.566
							c-3.962-1.096-7.322-2.042-9.518-2.661c-0.199-0.065-0.397-0.131-0.595-0.195c-0.198-0.064-0.396-0.129-0.593-0.194
							c-0.198-0.063-0.396-0.128-0.593-0.193c-0.198-0.065-0.396-0.13-0.595-0.195c0-0.07-0.005-0.14-0.012-0.208
							c-0.008-0.069-0.019-0.135-0.034-0.201c-0.015-0.065-0.033-0.13-0.056-0.193c-0.022-0.063-0.048-0.124-0.078-0.183
							c-0.514-0.073-1.063-0.167-1.644-0.278c-0.581-0.111-1.193-0.242-1.833-0.389c-0.641-0.146-1.31-0.309-2.005-0.487
							c-0.695-0.179-1.416-0.373-2.16-0.579c-0.998-0.321-1.996-0.642-2.992-0.96c-0.998-0.32-1.994-0.637-2.99-0.954
							c-0.996-0.317-1.992-0.634-2.987-0.949c-0.995-0.315-1.99-0.629-2.984-0.942c-3.683-1.275-7.511-2.67-11.275-4.086
							c-3.769-1.417-7.473-2.853-10.907-4.209c-3.436-1.358-6.599-2.635-9.279-3.729c-2.682-1.096-4.878-2.008-6.378-2.637
							c-0.006-0.033-0.013-0.067-0.019-0.101c-0.006-0.035-0.012-0.069-0.019-0.103c-0.006-0.034-0.013-0.068-0.02-0.1
							c-0.007-0.033-0.015-0.065-0.023-0.095c-2.175-0.726-4.861-1.934-7.669-3.335c-2.811-1.405-5.745-3.005-8.41-4.518
							c-2.667-1.514-5.065-2.938-6.797-3.984c-1.732-1.047-2.796-1.715-2.796-1.715c-0.105,0.016-0.209,0.032-0.313,0.048
							c-0.104,0.017-0.208,0.033-0.31,0.049c-0.103,0.017-0.205,0.033-0.308,0.049c-0.103,0.017-0.205,0.033-0.307,0.048
							c-1.16-0.849-2.294-1.717-3.396-2.605c-1.102-0.89-2.169-1.797-3.195-2.725c-1.027-0.928-2.012-1.875-2.945-2.838
							c-0.935-0.965-1.818-1.949-2.643-2.949c-1.914-4.925-5.007-8.931-8.582-12.169c-3.584-3.246-7.65-5.716-11.49-7.569
							c-3.846-1.855-7.463-3.091-10.149-3.866c-2.687-0.776-4.438-1.092-4.552-1.111c-2.55-1.123-5.316-2.14-8.261-3.033
							c-2.945-0.894-6.067-1.664-9.323-2.291c-3.257-0.629-6.647-1.115-10.128-1.441
							C136.784,342.462,133.214,342.297,129.595,342.308"/>
					</g>
				</g>
			</g>
		</g>
		<path fill="#E56E88" d="M417.769,471.287c0,0,2.709,6.567-7.875,26.509c-5.173,15.758-9.854,27.083-9.604,32.747
			c0.243,5.663,1.722,10.586,1.229,15.264c-0.493,4.679-10.34,11.327-10.34,11.327s-4.188,5.909-11.077,2.955
			c-4.188,4.677-7.883,8.124-7.883,8.124l-6.646,2.954l-8.861-1.23l-2.216-0.492c0,0,0.979-3.939,3.937-5.91
			c2.953-1.967,8.619-5.908,8.619-5.908s-9.354,0.245-12.556,0.738c-3.201,0.491-8.862-2.955-9.604-4.188
			c-0.736-1.229-1.479-0.245-4.431,0.248c-2.958,0.491-7.389,0.246-7.389,0.246s-4.431-4.186,2.952-7.14
			c7.14-1.233,11.327,1.478,15.514,1.969c4.188,0.492,19.945-1.477,19.945-1.477s10.583-1.726,11.57-5.91
			c0.985-4.185-0.244-5.17,1.722-9.108c1.973-3.941,12.07-42.104,13.792-44.319c1.722-2.217,4.431-12.885,2.952-17.4
			c-1.479-4.512,3.694-13.131,8.618-9.93C415.061,464.556,417.59,466.67,417.769,471.287z"/>
		<path fill="#FF788F" d="M433.526,469.319c0,0,14.771,14.771,0,33.809c-6.563,7.552-13.785,21.667-15.097,27.248
			c-1.313,5.583-12.479,21.01-10.181,29.548c0.986,1.969,6.69,6.197,8.292,7.058c1.601,0.861,14.028,8.493,10.584,15.265
			c-0.488,1.723-4.917,6.033-7.755-0.616c-2.83-6.647-10.711-13.172-13.169-13.664c-2.466-0.493-5.667,3.939-3.574,7.263
			c2.095,3.325,6.775,17.851,6.775,24.497c1.108,6.034,3.324,9.849,4.308,11.696c0.986,1.846-0.741,13.417-8.246,3.571
			c-5.788-10.342-9.239-34.962-11.698-36.688c-2.094-0.616-3.202-0.738-5.91,2.956s-8.368,10.834-8.368,10.834
			s-3.817,5.417-7.761,4.183c-3.194,2.585-8.49,7.634-15.264,9.604c-3.937,4.922-21.175,9.848-22.653,6.155
			c-1.473-3.695,6.896-7.387,8.868-8.619c1.966-1.231,22.525-14.279,25.234-15.512c2.708-1.229,8.125-10.218,8.125-10.218
			s-15.387,4.31-21.911-0.491c-9.482,0.738-16.986-0.861-23.146,4.554c-6.153,5.417-9.598-1.846-7.876-3.077
			c1.723-1.231,8.656-5.785,12.108-5.785c3.444,0,13.126-3.45,14.932-4.105c1.805-0.654,21.667,1.313,25.444-0.819
			c3.771-2.134,11.161-0.329,17.563-14.117c6.402-13.787,20.189-47.928,20.189-50.391c0-2.463,4.68-9.847,1.479-18.467
			c-0.987-2.709-7.14-11.078-6.653-14.28c0.493-3.201,8.125-8.371,16.007-7.88C432.047,463.326,432.368,467.959,433.526,469.319z"/>
		<path fill="#C9AC9A" d="M496.889,443.383c0,0-66.32,50.556-139.19,15.104c-87.328-4.598-132.628-76.82-154.955-153.64
			c-13.133-34.14-12.474-76.814-12.474-76.814s11.161-93.89,104.393-35.456c93.237,58.436,204.852,145.102,215.359,168.739
			C520.521,384.951,512.205,433.938,496.889,443.383z"/>
		<path fill="#6E5C48" d="M230.98,114.449c0,22.843-21.437,41.363-47.888,41.363c-17.998,0-33.679-8.582-41.862-21.268
			c-3.834-5.951-6.019-12.802-6.019-20.095c0-2.59,1.05-7.612,1.781-10.629c0.307-1.261,0.557-2.17,0.639-2.407
			c6.327-16.457,24.286-28.329,45.46-28.329C209.543,73.084,230.98,91.604,230.98,114.449z"/>
		<path fill="#6E5C48" d="M117.175,132.953c0,0,18.134-24.535,19.695-29.133c1.563-4.595,6.436,23.66,6.436,23.66
			s-17.264,9.657-26.131,9.657C114.704,136.97,117.175,132.953,117.175,132.953z"/>
		<path fill="#6E5C48" d="M218.014,86.17c0,0,24.778,8.58,28.063,44.691c11.161,34.798,44.34,59.091,46.465,60.403
			c2.12,1.313-39.242,84.698-88.48,59.093l-13.792-22.324c0,0,0.174-58.928-25.028-75.178
			C165.242,152.855,157.117,85.47,218.014,86.17z"/>
		<path fill="#FFF8F0" d="M129.212,145.303c0,0,12.141-10.505,18.056-13.132c5.91-2.625,9.394-4.554,16.085-1.723
			c8.944-3.816,20.175-6.104,26.911-5.826c7.875-1.641,16.09-3.344,29.555-1.017c7.549,1.344,11.813,9.88,1.639,12.178
			c-10.181,2.297-64.099,4.966-74.848,10.833C146.61,146.616,142.346,144.647,129.212,145.303z"/>
		<linearGradient id="SVGID_3_" gradientUnits="userSpaceOnUse" x1="155.2866" y1="122.1279" x2="91.2786" y2="169.8878">
			<stop  offset="0" style="stop-color:#A05367"/>
			<stop  offset="0.995" style="stop-color:#A3596C"/>
		</linearGradient>
		<path fill="url(#SVGID_3_)" d="M148.908,122.076c-1.018,0.228-15.514,8.619-26.84,9.603c-5.904-0.984-6.646,2.955-9.848,5.91
			c-3.201,2.956-6.396,6.895-10.833,8.617c-4.431,1.724-13.536,19.938-8.863,24.496c1.724,1.602,5.911-2.337,10.098-2.091
			c6.153-1.23,13.541-10.834,13.541-10.834s14.029-11.804,30.28-11.194c2.708,0.854,11.819-20.073,11.819-20.073
			S157.77,120.108,148.908,122.076z"/>
		<path fill="#EDD9D0" d="M101.314,145.817c-4.571,1.779-13.962,20.565-9.141,25.266c1.777,1.653,6.096-2.41,10.415-2.155
			c6.348-1.27,13.968-11.175,13.968-11.175S105.89,144.041,101.314,145.817z"/>
		<linearGradient id="SVGID_4_" gradientUnits="userSpaceOnUse" x1="152.353" y1="114.4473" x2="187.8105" y2="114.4473">
			<stop  offset="0" style="stop-color:#A05367"/>
			<stop  offset="1" style="stop-color:#A05367"/>
		</linearGradient>
		<path fill="url(#SVGID_4_)" d="M187.684,111.54c1.159,7.011-5.782,14-15.501,15.605c-9.726,1.608-18.543-2.773-19.702-9.788
			c-1.166-7.012,5.782-14,15.502-15.606C177.702,100.143,186.524,104.526,187.684,111.54z"/>
		<radialGradient id="SVGID_5_" cx="177.9614" cy="106.3203" r="22.6434" gradientUnits="userSpaceOnUse">
			<stop  offset="0.0099" style="stop-color:#FE8046"/>
			<stop  offset="0.3416" style="stop-color:#EC6037"/>
			<stop  offset="0.4703" style="stop-color:#DC4329"/>
			<stop  offset="0.604" style="stop-color:#D83C25"/>
			<stop  offset="0.8267" style="stop-color:#A62F19"/>
			<stop  offset="1" style="stop-color:#9D2D17"/>
		</radialGradient>
		<path fill="url(#SVGID_5_)" d="M181.985,112.481c0.954,5.767-3.605,11.322-10.181,12.41c-6.569,1.085-12.671-2.708-13.624-8.476
			c-0.954-5.77,3.605-11.323,10.174-12.41C174.93,102.919,181.031,106.713,181.985,112.481z"/>
		<radialGradient id="SVGID_6_" cx="170.0005" cy="112.1465" r="10.078" gradientUnits="userSpaceOnUse">
			<stop  offset="0" style="stop-color:#FFFFFF"/>
			<stop  offset="0.2327" style="stop-color:#EEEEEE"/>
			<stop  offset="0.3168" style="stop-color:#191919"/>
			<stop  offset="1" style="stop-color:#191919"/>
		</radialGradient>
		<path fill="url(#SVGID_6_)" d="M175.096,115.264c0.544,3.282-1.89,6.417-5.424,7.003c-3.541,0.583-6.85-1.604-7.394-4.884
			c-0.545-3.283,1.888-6.419,5.428-7.002C171.241,109.793,174.551,111.98,175.096,115.264z"/>
		<path fill="#7F7069" d="M631.975,396.109c0,0,28.064,9.85,36.438,23.145c10.342,7.878,11.327,10.341,16.251,11.817
			c4.924,1.479,10.5,5.581,13.132,7.88c2.625,2.299-1.153,17.4-12.474,13.131c-11.326-4.267-47.438-21.666-54.987-23.472
			c-7.555-1.806-22.979-13.296-16.583-23.801C620.156,394.306,626.636,394.022,631.975,396.109z"/>
		<path fill="#6B584A" d="M330.773,216.21c0,0,34.306,20.11,45.883,24.294c11.569,4.185,22.153,9.85,24.37,10.832
			c2.222,0.987,121.134,33.486,155.608,81.252c3.938,5.417,18.215,8.37,22.16,8.863c3.938,0.493,37.911,11.325,50.223,37.916
			c8.376,1.478,19.209,12.311,20.682,16.741c1.479,4.433,4.924,9.85-8.369,13.788c-13.292,3.941-21.667,0-21.667,0
			s24.619,14.28,6.896,20.683c-17.729,6.401-68.446,32.498-218.145-6.403c-4.923,5.91-22.652,16.25-65.001-9.847
			c-42.348-26.1-51.703-31.516-64.508-46.287c-12.8-14.773-48.745-93.562-13.292-119.167
			C301.065,223.27,320.229,210.148,330.773,216.21z"/>
		<path fill="#873D22" d="M267.444,348.902c0,0,14.912,44.993,88.186,72.327c34.812,19.199,46.906,7.383,56.479,2.732
			c0,0,128.768,40.43,211.5,9.573c15.75-3.939,13.125-24.292-13.133-20.354c30.362,2.625,70.738-5.252,14.336-41.198
			c-58.105,32.828-127.27,25.321-127.27,25.321c-34.797,4.057-49.57,17.845-71.563,11.281
			C378.046,405.299,307.494,378.423,267.444,348.902z"/>
		<path fill="#2B6A7B" d="M256.751,150.883c0,0,14.277,19.698,22.154,25.115c0.492,11.324-16.737,51.704-44.808,67.462
			c-18.714-12.805-30.036-24.129-21.174-55.151C229.661,158.764,242.958,154.823,256.751,150.883z"/>
		<path fill="#6C4EA6" d="M276.939,175.012c0,0,39.883,35.641,54.169,39.733c2.458,14.927-63.664,79.926-78.941,88.501
			c-15.265-3.448-29.889-45.062-17.576-61.803C246.896,224.7,280.384,184.861,276.939,175.012z"/>
	</g>
</g>
<g id="colombe_rouviolette">
</g>
<g id="colibri_madere">
</g>
<g id="colibri_à_tête_bleue">
</g>
<g id="elenie_siffleuse">
</g>
<g id="grive_à_pieds_jaunes">
</g>
<g id="merle_à_lunette">
</g>
<g id="moucherolle_gobemouche">
</g>
<g id="moqueur_corossol">
</g>
<g id="moqueur_grivotte">
</g>
<g id="trembleur_brun">
</g>
<g id="trembleur_gris">
</g>
<g id="paruline_cafeite">
</g>
<g id="saltator_gros_bec">
</g>
<g id="soporophile_rouge-gorge">
</g>
<g id="sucrier_à_ventre_jaune">
</g>
<g id="vachet_luisant">
</g>
<g id="vireo_a_moustaches">
</g>
<g id="merle_quiscale">
</g>
<g id="paruline_jaune">
</g>
<g id="tyran_gris">
</g>
<g id="sporophile_cici">
</g>
<g id="tourterelle_à_queue_carree">
</g>
<g id="colobri_huppé">
</g>
<g id="cécerelle_d_x27_amerique">
</g>
<g id="heron_vert">
</g>
<g id="pic_de_la_guadeloupe">
</g>
<g id="héron_garde-boeufs">
</g>
<g id="photos">
</g>
<g id="solitaire_siffleur">
</g>
<g id="tyran_janeau">
</g>
<g id="colibri_fallevert">
</g>
<g id="colombe_a_queue_noire">
</g>
</svg>
