<?xml version="1.0" encoding="utf-8"?>
<!-- Generator: Adobe Illustrator 16.0.0, SVG Export Plug-In . SVG Version: 6.00 Build 0)  -->
<!DOCTYPE svg PUBLIC "-//W3C//DTD SVG 1.1//EN" "http://www.w3.org/Graphics/SVG/1.1/DTD/svg11.dtd">
<svg version="1.1" xmlns="http://www.w3.org/2000/svg" xmlns:xlink="http://www.w3.org/1999/xlink" x="0px" y="0px" width="732px"
	 height="692px" viewBox="0 0 732 692" enable-background="new 0 0 732 692" xml:space="preserve">
<g id="Calque_1" display="none">
	<rect x="152.41" y="649.836" display="inline" fill="none" width="415.59" height="37.879"/>
	<text transform="matrix(1 0 0 1 152.4102 674.6855)" display="inline" font-family="'MyriadPro-Regular'" font-size="35">Trembleur gris</text>
</g>
<g id="colombe_à_croissant">
</g>
<g id="colombe_rouviolette">
</g>
<g id="colibri_madere">
</g>
<g id="colibri_à_tête_bleue">
</g>
<g id="elenie_siffleuse">
</g>
<g id="grive_à_pieds_jaunes">
</g>
<g id="merle_à_lunette">
</g>
<g id="moucherolle_gobemouche">
</g>
<g id="moqueur_corossol">
</g>
<g id="moqueur_grivotte">
</g>
<g id="trembleur_brun">
</g>
<g id="trembleur_gris">
	<g>
		<g opacity="0.3">
			<g>
				<g enable-background="new    ">
					<defs>
						<polygon id="SVGID_32_" enable-background="new    " points="11.248,537.689 14.149,308.623 650.459,310.299 720.752,535.602 
													"/>
					</defs>
					<clipPath id="SVGID_2_">
						<use xlink:href="#SVGID_32_"  overflow="visible"/>
					</clipPath>
					<g clip-path="url(#SVGID_2_)">
						<path fill="#959595" d="M523.52,356.521L523.52,356.521l-0.002,0.002c0,0,0,0.002-0.002,0.002
							c0,0.001-0.002,0.001-0.002,0.003L523.52,356.521 M514.658,309.942c-1.781-0.005-3.489,0.01-5.117,0.037
							c-1.627,0.027-3.176,0.065-4.639,0.108c-1.463,0.042-2.841,0.089-4.129,0.132c-1.287,0.043-2.482,0.082-3.584,0.109
							c-5.775,0.254-11.191,1.066-16.166,2.227c-4.98,1.162-9.519,2.675-13.526,4.326c-4.018,1.655-7.503,3.45-10.362,5.172
							c-2.865,1.726-5.104,3.377-6.619,4.74c-2.803,2.333-5.327,4.7-7.574,7c-2.252,2.305-4.227,4.542-5.926,6.607
							c-1.701,2.068-3.125,3.964-4.271,5.581c-1.15,1.62-2.02,2.96-2.615,3.913c-0.021,0.023-0.041,0.047-0.063,0.07
							c-0.021,0.023-0.039,0.047-0.061,0.069c-0.021,0.023-0.041,0.047-0.063,0.069c-0.021,0.023-0.042,0.046-0.061,0.068
							c-0.773,0.841-2.136,1.646-3.746,2.383c-1.611,0.739-3.473,1.406-5.234,1.97c-1.765,0.564-3.432,1.022-4.66,1.34
							c-1.228,0.317-2.014,0.495-2.014,0.495l-23.707,5.059c0,0-1.068,0.251-2.822,0.687c-1.752,0.438-4.193,1.059-6.936,1.802
							c-2.744,0.743-5.791,1.608-8.755,2.529c-2.968,0.922-5.854,1.901-8.268,2.869c-9.119,1.338-18.406,3.266-27.713,5.589
							c-9.329,2.329-18.683,5.059-27.898,7.994c-9.245,2.945-18.354,6.099-27.159,9.262c-8.834,3.176-17.36,6.359-25.402,9.354
							c-5.015,2.873-9.073,5.269-12.408,7.308c-3.344,2.042-5.959,3.728-8.085,5.175c-2.128,1.45-3.767,2.663-5.156,3.762
							c-1.391,1.101-2.533,2.086-3.671,3.085c-1.328,0.641-3.496,1.518-6.979,2.583c-3.489,1.065-8.299,2.317-14.908,3.707
							c-6.621,1.391-15.055,2.918-25.781,4.532c-10.751,1.618-23.81,3.324-39.665,5.063c-4.455,0.411-12.573,1.446-22.524,2.839
							c-9.968,1.396-21.783,3.159-33.597,5.021c-11.842,1.869-23.684,3.84-33.657,5.649c-9.992,1.813-18.103,3.464-22.437,4.683
							c-0.741,0.113-1.592,0.311-2.345,0.54c-0.752,0.229-1.406,0.491-1.756,0.739c-0.352,0.25-0.398,0.422,0.066,0.594
							c0.464,0.17,1.438,0.217,3.13,0.217c0.07,0,0.141,0,0.212,0c0.072,0,0.145,0.061,0.219,0.059c0.073,0,0.149,0.03,0.227,0.028
							c0.076-0.002,0.156,0.012,0.235,0.01c-1.006,0.274-1.995,0.598-2.913,0.916c-0.916,0.316-1.762,0.644-2.48,0.93
							c-0.72,0.286-1.314,0.538-1.728,0.718c-0.415,0.18-0.648,0.289-0.648,0.289s-0.222,0.114-0.478,0.283
							c-0.256,0.171-0.542,0.395-0.673,0.62s-0.104,0.451,0.27,0.62c0.373,0.169,1.095,0.28,2.354,0.278
							c0.135,0,0.274-0.002,0.423-0.004c0.146-0.004,0.299-0.007,0.46-0.013c0.159-0.006,0.326-0.014,0.501-0.021
							c0.174-0.009,0.354-0.019,0.541-0.03c-0.699,0.157-1.494,0.435-2.299,0.762c-0.803,0.326-1.612,0.703-2.334,1.06
							c-0.723,0.356-1.357,0.693-1.81,0.942c-0.455,0.248-0.729,0.405-0.729,0.405s-0.396,0.121-0.904,0.299
							c-0.508,0.181-1.127,0.419-1.57,0.66c-0.444,0.238-0.713,0.097-0.52,0.274c0.195,0.179,0.851-0.085,2.257-0.085
							c0.055,0,0.111,0,0.169,0c0.057,0,0.115,0.381,0.176,0.379c0.059,0,0.119,0.189,0.182,0.188s0.125,0.092,0.189,0.09
							c1.713-0.04,7.844-0.882,16.401-2.206c8.545-1.321,19.498-3.05,30.882-4.823c11.358-1.772,23.144-3.554,33.404-4.96
							c10.245-1.403,18.98-2.423,24.277-2.661c3.49-0.107,8.761-0.634,15.142-1.384c6.374-0.751,13.856-1.723,21.781-2.728
							c7.917-1.002,16.276-2.031,24.427-2.901c8.139-0.869,16.071-1.576,23.151-1.931c-1.607,1.449-2.636,2.611-3.272,3.542
							s-0.884,1.628-0.928,2.142c-0.043,0.515,0.114,0.847,0.283,1.052c0.17,0.204,0.351,0.28,0.351,0.28s-0.195,0.115-0.544,0.325
							c-0.347,0.213-0.848,0.518-1.457,0.893c-0.608,0.378-1.329,0.825-2.115,1.323c-0.786,0.496-1.639,1.044-2.517,1.616
							c-1.567,1.072-2.657,1.946-3.364,2.657c-0.708,0.71-1.032,1.254-1.066,1.665c-0.034,0.41,0.224,0.687,0.675,0.858
							c0.451,0.175,1.097,0.245,1.844,0.245c0.597-0.002,1.261-0.048,1.938-0.123c0.677-0.076,1.37-0.181,2.031-0.298
							c0.66-0.119,1.287-0.25,1.833-0.377s1.01-0.252,1.343-0.356c0.753-0.237,3.433-0.845,7.16-1.632
							c3.724-0.786,8.493-1.747,13.43-2.688c4.931-0.94,10.032-1.861,14.429-2.564c4.395-0.705,8.088-1.193,10.218-1.273
							c0.086,0.002,0.169-0.175,0.254-0.173c0.086,0,0.171-0.176,0.256-0.176c0.086,0,0.171,0,0.256,0c0.087,0,0.173,0,0.258,0
							c1.681,0,3.453,0.13,5.303,0.045c1.85-0.086,3.774-0.12,5.766-0.279c1.99-0.159,4.043-0.309,6.145-0.533
							c2.1-0.223,4.25-0.453,6.435-0.731c0.116,0.075,0.235,0.161,0.354,0.237c0.119,0.074,0.239,0.153,0.36,0.226
							c0.123,0.073,0.246,0.147,0.369,0.22c0.126,0.07,0.251,0.144,0.378,0.212c4.742,0.669,9.44,1.25,14.091,1.744
							c4.652,0.497,9.257,0.911,13.809,1.248c4.554,0.336,9.055,0.595,13.502,0.785c4.446,0.188,8.837,0.305,13.171,0.359
							c2.386,2.631,5.984,6.587,10.117,11.116c4.148,4.548,8.842,9.678,13.387,14.618c4.566,4.961,8.98,9.729,12.535,13.51
							c3.566,3.794,6.262,6.587,7.362,7.578c0.673,0.603,1.11,1.094,1.36,1.489c0.252,0.396,0.316,0.699,0.244,0.925
							c-0.073,0.228-0.283,0.379-0.583,0.474s-0.688,0.133-1.116,0.133c-0.419,0.002-0.876-0.034-1.324-0.085
							c-0.449-0.054-0.893-0.123-1.283-0.193s-0.729-0.143-0.969-0.193c-0.238-0.053-0.383-0.089-0.383-0.089
							s-0.803-0.106-2.158-0.288c-1.354-0.185-3.26-0.443-5.463-0.753c-2.202-0.309-4.704-0.665-7.251-1.044
							c-2.547-0.377-5.14-0.776-7.522-1.167c-0.533-0.07-1.037-0.131-1.515-0.181c-0.478-0.051-0.931-0.091-1.356-0.123
							c-0.427-0.032-0.83-0.057-1.207-0.071c-0.379-0.016-0.734-0.021-1.067-0.021c-1.954,0.004-3.138,0.27-3.818,0.663
							c-0.681,0.396-0.853,0.921-0.782,1.446c0.071,0.526,0.386,1.052,0.686,1.446c0.297,0.394,0.578,0.655,0.578,0.655
							s0.484,0.123,1.366,0.328c0.883,0.202,2.16,0.484,3.748,0.805c1.588,0.318,3.485,0.675,5.604,1.021
							c2.119,0.349,4.457,0.688,6.929,0.977c7.095,0.693,12.391,1.471,16.41,2.271c4.021,0.8,6.766,1.626,8.754,2.415
							c1.987,0.788,3.219,1.542,4.216,2.201c0.997,0.658,1.759,1.223,2.807,1.63s2.522,1.283,4.146,2.369s3.399,2.384,5.042,3.631
							c1.647,1.249,3.163,2.448,4.27,3.335c1.107,0.887,1.801,1.463,1.801,1.463s0.017,0.106,0.155,0.364
							c0.14,0.258,0.401,0.665,0.891,1.266c0.489,0.603,1.207,1.398,2.259,2.434c1.052,1.036,2.438,2.31,4.266,3.867
							c0.86,0.52,1.641,0.951,2.352,1.306c0.709,0.356,1.35,0.635,1.924,0.851c0.574,0.215,1.086,0.364,1.539,0.459
							c0.452,0.095,0.849,0.137,1.193,0.137c0.657-0.002,1.133-0.157,1.477-0.389c0.345-0.233,0.557-0.54,0.689-0.849
							c0.131-0.308,0.178-0.614,0.195-0.846c0.017-0.231,0-0.385,0-0.385s-0.014-0.133-0.057-0.389
							c-0.044-0.256-0.114-0.637-0.231-1.129c-0.116-0.493-0.274-1.1-0.495-1.808c-0.22-0.709-0.498-1.522-0.851-2.428
							c-0.351-0.906-1.444-2.075-2.936-3.354c-1.491-1.277-3.38-2.666-5.327-4.014c-1.945-1.347-3.947-2.654-5.67-3.772
							c-1.72-1.116-3.16-2.045-3.984-2.639c-0.824-0.591-1.271-1.064-1.479-1.443c-0.206-0.377-0.172-0.659-0.036-0.868
							c0.139-0.21,0.38-0.345,0.584-0.427c0.206-0.083,0.377-0.113,0.377-0.113s1.931,0.22,4.925,0.548
							c2.994,0.329,7.056,0.768,11.315,1.205c4.261,0.439,8.721,0.802,12.513,1.126c3.792,0.328,6.915,0.467,8.503,0.467
							c0.018,0,0.032,0,0.05,0c0.015,0,0.032,0,0.047,0c0.016,0,0.032,0,0.048,0c0.015,0,0.03,0,0.045,0c0.021,0,0.042,0,0.064,0
							c0.021,0,0.044,0,0.064,0c0.022,0,0.046,0,0.068,0s0.046,0,0.068,0c1.614,0,4.608,0.225,8.192,0.457
							c3.585,0.23,7.76,0.581,11.733,0.894s7.747,0.646,10.527,0.881c2.779,0.234,4.566,0.4,4.566,0.4s0.294,0.026,0.796,0.057
							c0.504,0.03,1.217,0.071,2.057,0.111c0.839,0.04,1.808,0.08,2.817,0.108c1.013,0.028,2.065,0.049,3.083,0.047
							c0.368-0.002,0.73-0.007,1.082-0.012c0.353-0.008,0.697-0.017,1.029-0.029c0.332-0.016,0.65-0.032,0.951-0.054
							c0.302-0.022,0.586-0.047,0.85-0.079c-0.777-0.828-1.941-1.567-3.364-2.21c-1.423-0.641-3.105-1.187-4.925-1.63
							c-1.817-0.443-3.77-0.784-5.73-1.018c-1.962-0.232-3.933-0.358-5.787-0.369c-1.855-0.01-5.674-0.262-10.362-0.648
							c-4.687-0.385-10.241-0.903-15.567-1.449c-5.325-0.546-10.423-1.118-14.199-1.609c-3.777-0.492-6.233-0.903-6.276-1.131
							c0.82-0.362,2.469-0.66,4.595-0.91c2.125-0.25,4.725-0.451,7.447-0.617c2.722-0.167,5.566-0.298,8.184-0.408
							c2.613-0.111,4.999-0.2,6.803-0.284c1.819-0.313,2.769-0.676,3.129-1.059c0.359-0.381,0.131-0.781-0.408-1.17
							c-0.536-0.386-1.383-0.76-2.256-1.087c-0.874-0.33-1.778-0.614-2.43-0.821c-0.119-0.038-0.279-0.071-0.476-0.099
							c-0.199-0.028-0.433-0.049-0.701-0.066c-0.271-0.019-0.574-0.03-0.91-0.037c-0.335-0.01-0.701-0.012-1.097-0.012
							c-1.753,0.004-4.068,0.089-6.686,0.228c-2.617,0.137-5.537,0.326-8.498,0.534c-2.961,0.211-5.963,0.441-8.745,0.663
							c-2.782,0.22-5.346,0.433-7.425,0.603c-0.385,0.025-0.766,0.046-1.139,0.064c-0.373,0.02-0.741,0.034-1.104,0.048
							c-0.361,0.013-0.718,0.022-1.068,0.028c-0.351,0.008-0.693,0.01-1.033,0.012c-3.18,0.005-5.86-0.239-8.123-0.652
							c-2.261-0.413-4.104-0.993-5.602-1.658c-1.499-0.665-2.655-1.413-3.55-2.164c-0.893-0.748-1.523-1.499-1.971-2.166
							c-1.134-0.466-3.728-2.716-7.143-6.003c-3.403-3.276-7.616-7.582-11.999-12.172c-4.366-4.573-8.898-9.428-12.979-13.841
							c-4.065-4.398-7.685-8.361-10.25-11.187c2.509-0.05,4.995-0.118,7.458-0.207c2.464-0.089,4.904-0.198,7.321-0.325
							c2.416-0.127,4.807-0.271,7.174-0.433c2.365-0.163,4.705-0.341,7.021-0.534c2.769,1.895,9.039,5.437,16.91,9.696
							c7.9,4.273,17.426,9.274,26.635,14.056c9.248,4.802,18.176,9.379,24.806,12.761c6.649,3.395,10.973,5.579,10.973,5.579
							s-0.529-0.036-1.482-0.089c-0.953-0.054-2.329-0.125-4.021-0.195c-1.694-0.07-3.705-0.141-5.928-0.191
							s-4.658-0.083-7.201-0.078c-1.361,0.002-2.752,0.016-4.158,0.042c-1.408,0.026-2.827,0.066-4.246,0.123
							c-1.42,0.057-2.837,0.129-4.237,0.22s-2.782,0.203-4.13,0.336c-5.096,0.771-7.83,1.521-9.063,2.211
							c-1.235,0.692-0.97,1.323-0.064,1.859c0.906,0.534,2.45,0.974,3.768,1.279c1.318,0.303,2.412,0.476,2.412,0.476
							s0,0,0.326-0.008c0.327-0.006,0.981-0.019,2.289-0.045c1.308-0.025,3.271-0.064,6.212-0.124
							c2.941-0.059,6.861-0.136,12.088-0.24c1.148-0.021,2.248-0.042,3.301-0.059c1.053-0.018,2.059-0.032,3.021-0.044
							c0.963-0.013,1.881-0.022,2.759-0.03c0.88-0.006,1.717-0.011,2.515-0.013c2.839-0.006,5.198,0.022,7.205,0.091
							c2.005,0.066,3.657,0.168,5.082,0.314c1.426,0.146,2.623,0.331,3.719,0.563c1.095,0.229,2.088,0.506,3.105,0.828
							c1.304,0.415,3.484,1.183,6.184,2.174c2.698,0.991,5.914,2.206,9.287,3.517c3.377,1.312,6.911,2.72,10.24,4.092
							c3.332,1.374,6.457,2.712,9.012,3.887c0.941,0.432,1.758,0.8,2.463,1.106c0.707,0.31,1.302,0.556,1.803,0.749
							c0.498,0.193,0.901,0.333,1.222,0.422c0.32,0.092,0.558,0.135,0.728,0.133c0.29,0,0.377-0.125,0.336-0.347
							c-0.042-0.222-0.215-0.538-0.445-0.921c-0.231-0.381-0.523-0.83-0.802-1.313s-0.548-1.004-0.733-1.531
							c-0.292-0.831-0.806-1.614-1.412-2.321c-0.604-0.705-1.302-1.332-1.963-1.856c-0.659-0.523-1.283-0.944-1.741-1.232
							c-0.459-0.29-0.753-0.447-0.753-0.447l-21.474-10.731c0,0,2.67,0.313,6.843,0.783c4.173,0.47,9.847,1.095,15.848,1.721
							c6.004,0.625,12.337,0.912,17.82,1.381c5.486,0.467,10.124,0.436,12.733,0.436c0.011,0,0.021,0,0.03,0s0.019,0,0.028,0
							c0.009,0,0.019,0,0.028,0s0.02,0,0.028,0c2.559,0,3.889,0.113,4.444-0.189c0.553-0.301,0.333-0.533-0.207-0.927
							c-0.54-0.396-1.398-0.706-2.124-1.002c-0.724-0.294-1.312-0.445-1.312-0.445l-11.066-0.627l-25.037-4.155
							c0,0,0.633-0.013,1.707-0.059c1.076-0.045,2.596-0.114,4.37-0.225c1.773-0.111,3.804-0.258,5.899-0.453
							c2.096-0.193,4.258-0.432,6.301-0.728c2.043-0.297,2.971-0.629,3.216-0.959c0.244-0.331-0.193-0.659-0.889-0.953
							c-0.694-0.292-1.642-0.546-2.419-0.728c-0.774-0.182-1.375-0.29-1.375-0.29s-0.411,0.021-1.275,0.078
							c-0.864,0.055-2.18,0.147-3.989,0.286c-1.81,0.14-4.112,0.328-6.949,0.578c-2.839,0.248-6.212,0.561-10.161,0.947
							c-0.686,0.066-1.36,0.125-2.025,0.176c-0.665,0.05-1.32,0.092-1.967,0.124c-0.646,0.034-1.285,0.059-1.912,0.075
							c-0.629,0.018-1.249,0.024-1.861,0.026c-2.918,0.006-5.652-0.165-8.277-0.479c-2.623-0.314-5.13-0.774-7.594-1.347
							c-2.463-0.574-4.879-1.263-7.318-2.033c-2.438-0.77-4.898-1.624-7.449-2.532c-2.429-0.866-6.617-2.918-11.766-5.65
							c-5.138-2.728-11.229-6.129-17.479-9.703c-6.235-3.564-12.629-7.298-18.412-10.709c-5.765-3.399-10.925-6.482-14.719-8.76
							c4.489-0.535,8.865-1.12,13.125-1.746c4.254-0.625,8.392-1.292,12.403-1.985c4.01-0.694,7.896-1.418,11.652-2.159
							c3.754-0.738,7.379-1.496,10.869-2.26c9.83-2.151,18.359-5.422,25.772-9.191c7.383-3.752,13.653-7.993,19.007-12.113
							c5.331-4.103,9.754-8.086,13.47-11.351c3.707-3.254,6.716-5.803,9.236-7.056c2.515-1.25,5.134-3.472,7.614-6.192
							c2.475-2.714,4.808-5.92,6.76-9.152c1.944-3.222,3.512-6.469,4.463-9.283c0.951-2.808,1.292-5.187,0.792-6.688
							c-0.493-1.554-0.628-3.101-0.534-4.573c0.094-1.471,0.416-2.869,0.837-4.132c0.421-1.258,0.944-2.38,1.437-3.301
							c0.494-0.919,0.963-1.638,1.275-2.09c0.055-0.078,0.106-0.148,0.151-0.211c0.044-0.063,0.083-0.116,0.116-0.161
							s0.061-0.082,0.081-0.109c0.021-0.028,0.034-0.047,0.042-0.056l-0.141,0.187c0.137-0.198,0.29-0.435,0.461-0.698
							c0.168-0.265,0.351-0.558,0.543-0.871c0.193-0.314,0.395-0.649,0.604-0.996c0.206-0.346,0.418-0.704,0.631-1.065
							c0.401-0.417,0.805-0.825,1.197-1.221c0.395-0.398,0.779-0.785,1.148-1.16s0.723-0.738,1.05-1.091
							c0.328-0.353,0.633-0.693,0.904-1.02c0.935-1.646,2.785-3.498,5.156-5.424c2.366-1.922,5.251-3.917,8.261-5.852
							c3.003-1.931,6.132-3.8,8.997-5.479c2.859-1.674,5.458-3.159,7.409-4.322c0.275,0.02,0.552,0.038,0.826,0.053
							c0.277,0.015,0.554,0.028,0.832,0.038c0.277,0.01,0.556,0.019,0.834,0.024s0.557,0.008,0.836,0.009
							c0.18,0,0.359,0,0.538-0.002c0.18-0.001,0.358-0.004,0.538-0.007c0.18-0.004,0.358-0.009,0.536-0.014
							c0.181-0.006,0.358-0.013,0.536-0.02c3.758-1.923,10.152-3.473,17.741-4.725c7.578-1.25,16.353-2.203,24.894-2.932
							c8.529-0.729,16.831-1.235,23.477-1.592c6.643-0.356,11.638-0.564,13.557-0.695c1.92-0.129,3.491-0.327,4.688-0.571
							c1.195-0.244,2.016-0.533,2.431-0.846c0.415-0.313,0.427-0.649,0.006-0.986c-0.419-0.337-1.27-0.675-2.581-0.992
							c-2.152-0.411-4.852-0.859-7.927-1.303c-3.073-0.443-6.526-0.879-10.186-1.266c-3.657-0.387-7.523-0.723-11.429-0.965
							c-3.906-0.242-7.85-0.391-11.668-0.4c-0.395-0.001-0.79-0.001-1.183,0.001c-0.392,0.001-0.782,0.005-1.173,0.01
							s-0.777,0.012-1.164,0.02c-0.385,0.008-0.769,0.018-1.151,0.03c-7.622,0.112-14.239,0.269-19.987,0.475
							c-5.751,0.206-10.631,0.461-14.777,0.768c-4.148,0.307-7.563,0.666-10.377,1.079c-2.815,0.414-5.033,0.883-6.788,1.409
							c-0.612-0.224-1.212-0.431-1.792-0.621c-0.58-0.189-1.138-0.361-1.666-0.512c-0.527-0.151-1.023-0.282-1.48-0.391
							c-0.454-0.109-0.871-0.196-1.237-0.258c-2.899-0.469-5.729-0.852-8.478-1.163c-2.75-0.311-5.418-0.549-7.996-0.729
							c-2.576-0.18-5.064-0.303-7.452-0.381S516.836,309.947,514.658,309.942"/>
					</g>
				</g>
			</g>
		</g>
		<g>
			<path id="patted_11_" fill="#232323" d="M381.43,404.271c0,0,49.854,66.002,61.07,74.286c11.219,8.283,20.564,14.19,36.279,11.35
				c15.72-2.839,22.229-3.462,22.229-3.462s9.022,3.297,0.806,5.484c-8.219,2.185-18.126,2.69-18.126,2.69l23.489,7.844
				l10.635,1.239c0,0,8.473,5.846-1.489,5.918c-9.961,0.074-50.802-9.454-50.802-9.454l18.664,19.924c0,0,4.028,4.675,4.472,10.779
				c0.443,6.107,4.137,11.724-4.76,3.093c-8.894-8.634-26.127-22.186-30.862-25.272c-4.737-3.085-9.126-3.849-29.44-3.168
				c-20.313,0.682-20.313,0.682-20.313,0.682s-16.438-5.124,3.836-10.786c15.253-2.769,34.396-0.188,34.396-0.188
				s-67.981-73.155-71.696-82.09c-3.72-8.938-3.553-7.825-3.553-7.825l15.32-2.304L381.43,404.271z"/>
			<path id="patteg_12_" fill="#333333" d="M338.883,409.534c0,0,33.194,86.011,38.273,90.311c1.457,5.48,6.136,13.955,21.76,12.079
				c9.985-1.501,31.338-4.751,33.703-3.209c2.371,1.541,8.402,5.363,1.15,7.641c-7.034,0.584-23.066,1.323-26.468,3.973
				c0.014,1.66,36.72,8.952,43.86,9.067c7.141,0.111,15.729,3.564,18.064,9.625c-3.911,0.824-12.152-0.312-12.152-0.312
				s-27.792-4.84-33.468-4.699c-5.678,0.143-35.408-6.545-35.408-6.545s-2.72,0.883,0.07,5.211
				c2.787,4.33,14.183,18.52,14.929,25.056s0.606,10.354,0.606,10.354s-0.354,10.264-8.868-0.564
				c-5.961-11.211-5.951-14.298-5.951-14.298s-9.152-16.667-12.926-19.659c-3.774-2.994-2.769-10.506-29.664-15.719
				c-9.349-2.153-16.546-5.82-16.546-5.82s-5.158-10.619,8.68-7.004c8.985,2.924,21.127,6.081,21.127,6.081s8.687,4.313,4.271-4.52
				c-4.413-8.832-38.275-95.06-38.275-95.06L338.883,409.534z"/>
			<path id="queue_13_" fill="#847A72" d="M235.629,351.595c0,0-8.001,16.001-89.605,33.604
				c-17.602,3.199-93.206,25.7-110.008,35.001c-3,0.9-7.8,4.501,0,4.201c-3.899,2.1-7.498,5.398-7.498,5.398
				s-4.201,4.202,3.299,3.302c-2.7,1.199-6.901,5.999-6.901,5.999s-6.601,3.9,0,3.601c6.603-0.299,81.308-26.102,102.009-27.901
				c14.998-0.9,63.903-17.283,91.205-17.643c27.601-2.458,37.801-26.161,37.801-26.161S258.53,350.495,235.629,351.595z"/>
			<linearGradient id="SVGID_3_" gradientUnits="userSpaceOnUse" x1="585.7734" y1="149.9634" x2="317.9993" y2="416.2824">
				<stop  offset="0" style="stop-color:#4B4741"/>
				<stop  offset="0.2426" style="stop-color:#635B54"/>
				<stop  offset="0.3812" style="stop-color:#80756D"/>
				<stop  offset="1" style="stop-color:#93877D"/>
			</linearGradient>
			<path fill="url(#SVGID_3_)" d="M582.23,124.68c-21.602-7.5-40.502-4.8-51.004-4.2c-24.9,2.4-45.801,24.703-53.402,36.704
				c-13.871,20.493-23.019,41.971-26.273,50.154c-0.108,0.203-0.217,0.402-0.32,0.594c-3.9,7.201-17.508,13.254-17.508,13.254
				l-25.502,10.801c0,0-32.803,15.202-36.003,24.401c-3.199,9.2-52.805,108.007-80.405,115.207
				c-27.602,7.201-25.801,28.202-16.802,38.402c63.604,18.001,120.608,3,161.41-13.801c40.803-16.8,64.804-69.004,76.206-79.205
				c11.4-10.201,28.201-52.204,27.601-64.804c-0.501-13.06,4.884-25.981,6.649-29.843c0.345-0.751,0.552-1.159,0.552-1.159
				l-0.207,0.408c0.771-1.685,2.007-4.661,3.266-7.761c2.104-3.567,4.171-6.829,5.642-9.648
				c6.899-17.402,38.402-45.903,41.403-51.003C604.433,141.182,587.931,126.781,582.23,124.68z"/>
			<path id="aile_17_" fill="#6B635B" d="M459.223,262.389c0,0,24.602,19.801-15.002,69.604
				c-14.999,16.802-60.004,41.403-72.604,40.803c-6.601-1.2-15.602,5.4-24.602,9.001c-9.001,3.601-69.005,30.603-97.807,30.002
				c-8.401,0.601-42.002,13.801-45.003,15.602c-3,1.8-16.401,6.601-4.8-8.202c3.6-4.399,6.801-8,6.801-8s-5.202-4.4,16.399-30.402
				c3.601-5.6,10.002-11.199,10.002-11.199s-8.803-2.401-0.8-12.803c5.7-9.2,9.113-15.63,33.002-41.602
				c36.602-26.402,83.404-60.604,124.208-69.004C412.42,240.788,446.021,240.788,459.223,262.389z"/>
			<path id="bec_15_" fill="#333333" d="M599.031,158.383c-12.192,6.587-26.251-8.202-16.801-24.001
				c5.199-8.401,18.4-12.801,62.805-14.401c17.601-1.2,38.402,4.4,48.002,8.4c5.202,2.8,2.401,6.4-6.001,7.601
				C678.635,137.182,623.314,138.773,599.031,158.383z"/>
			<ellipse id="oeil_12_" fill="#EDB100" cx="568.58" cy="148.382" rx="7.35" ry="8.55"/>
			<radialGradient id="oeil_5_" cx="569.8291" cy="146.6821" r="5.9683" gradientUnits="userSpaceOnUse">
				<stop  offset="0" style="stop-color:#FFFFFF"/>
				<stop  offset="0.1386" style="stop-color:#D5D4D3"/>
				<stop  offset="0.2079" style="stop-color:#494340"/>
				<stop  offset="0.3663" style="stop-color:#28201D"/>
				<stop  offset="1" style="stop-color:#231B18"/>
			</radialGradient>
			<circle id="oeil_10_" fill="url(#oeil_5_)" cx="569.03" cy="148.082" r="3.75"/>
		</g>
	</g>
</g>
<g id="paruline_cafeite">
</g>
<g id="saltator_gros_bec">
</g>
<g id="soporophile_rouge-gorge">
</g>
<g id="sucrier_à_ventre_jaune">
</g>
<g id="vachet_luisant">
</g>
<g id="vireo_a_moustaches">
</g>
<g id="merle_quiscale">
</g>
<g id="paruline_jaune">
</g>
<g id="tyran_gris">
</g>
<g id="sporophile_cici">
</g>
<g id="tourterelle_à_queue_carree">
</g>
<g id="colobri_huppé">
</g>
<g id="cécerelle_d_x27_amerique">
</g>
<g id="heron_vert">
</g>
<g id="pic_de_la_guadeloupe">
</g>
<g id="héron_garde-boeufs">
</g>
</svg>
