<?xml version="1.0" encoding="utf-8"?>
<!-- Generator: Adobe Illustrator 16.0.0, SVG Export Plug-In . SVG Version: 6.00 Build 0)  -->
<!DOCTYPE svg PUBLIC "-//W3C//DTD SVG 1.1//EN" "http://www.w3.org/Graphics/SVG/1.1/DTD/svg11.dtd">
<svg version="1.1" xmlns="http://www.w3.org/2000/svg" xmlns:xlink="http://www.w3.org/1999/xlink" x="0px" y="0px" width="732px"
	 height="692px" viewBox="0 0 732 692" enable-background="new 0 0 732 692" xml:space="preserve">
<g id="Calque_1" display="none">
	<rect x="152.41" y="642.121" display="inline" fill="none" width="415.59" height="37.879"/>
	<text transform="matrix(1 0 0 1 152.4102 666.9707)" display="inline" font-family="'MyriadPro-Regular'" font-size="35">Héron garde-bœufs</text>
</g>
<g id="colombe_à_croissant">
</g>
<g id="colombe_rouviolette">
</g>
<g id="colibri_madere">
</g>
<g id="colibri_à_tête_bleue">
</g>
<g id="elenie_siffleuse">
</g>
<g id="grive_à_pieds_jaunes">
</g>
<g id="merle_à_lunette">
</g>
<g id="moucherolle_gobemouche">
</g>
<g id="moqueur_corossol">
</g>
<g id="moqueur_grivotte">
</g>
<g id="trembleur_brun">
</g>
<g id="trembleur_gris">
</g>
<g id="paruline_cafeite">
</g>
<g id="saltator_gros_bec">
</g>
<g id="soporophile_rouge-gorge">
</g>
<g id="sucrier_à_ventre_jaune">
</g>
<g id="vachet_luisant">
</g>
<g id="vireo_a_moustaches">
</g>
<g id="merle_quiscale">
</g>
<g id="paruline_jaune">
</g>
<g id="tyran_gris">
</g>
<g id="sporophile_cici">
</g>
<g id="tourterelle_à_queue_carree">
</g>
<g id="colobri_huppé">
</g>
<g id="cécerelle_d_x27_amerique">
</g>
<g id="heron_vert">
</g>
<g id="pic_de_la_guadeloupe">
</g>
<g id="héron_garde-boeufs">
	<g>
		<g opacity="0.3">
			<g>
				<g enable-background="new    ">
					<defs>
						<polygon id="SVGID_67_" enable-background="new    " points="15.667,589.986 12.744,319.039 642.014,320.735 719.256,587.861 
													"/>
					</defs>
					<clipPath id="SVGID_2_">
						<use xlink:href="#SVGID_67_"  overflow="visible"/>
					</clipPath>
					<g clip-path="url(#SVGID_2_)">
						<path fill="#959595" d="M467.91,320.265c-9.349-0.024-17.486,0.827-24.548,2.173c-7.072,1.351-13.069,3.198-18.116,5.163
							c-5.056,1.968-9.156,4.052-12.422,5.865c-3.271,1.819-5.702,3.366-7.409,4.251c-0.011,0.02-0.021,0.037-0.03,0.057
							c-0.008,0.018-0.018,0.037-0.024,0.055c-0.008,0.018-0.016,0.037-0.023,0.055c-0.009,0.02-0.015,0.037-0.024,0.057
							c-0.023,0.009-0.049,0.018-0.074,0.028c-0.023,0.009-0.048,0.018-0.073,0.026c-0.024,0.009-0.049,0.018-0.073,0.028
							c-0.025,0.009-0.051,0.018-0.074,0.026c0,0-1.369,0.97-2.576,2.731c-1.21,1.762-2.26,4.32-1.61,7.495
							c0.649,3.185,3.008,6.99,8.629,11.238c5.642,4.264,14.571,8.974,28.362,13.946c-2.001-0.217-3.859-0.436-5.602-0.659
							c-1.74-0.221-3.364-0.444-4.897-0.668c-1.532-0.223-2.972-0.445-4.346-0.669c-1.373-0.224-2.68-0.446-3.944-0.668
							c-5.308-2.495-10.841-4.578-16.535-6.301c-5.686-1.72-11.535-3.081-17.479-4.132c-5.939-1.053-11.978-1.795-18.047-2.278
							c-6.067-0.483-12.168-0.707-18.233-0.718c-13.318-0.026-26.484,0.97-38.756,2.478c-12.297,1.513-23.707,3.539-33.467,5.576
							c-9.781,2.04-17.905,4.089-23.589,5.629c-5.692,1.541-8.932,2.571-8.932,2.571s-2.392,0.714-7.045,2.158
							c-4.661,1.447-11.6,3.631-20.698,6.572c-9.125,2.952-20.438,6.673-33.828,11.188c-13.451,4.535-29.021,9.88-46.608,16.064
							c-13.207,3.336-26.026,6.68-37.917,9.844c-11.929,3.176-22.918,6.17-32.419,8.796c-9.525,2.631-17.546,4.892-23.504,6.585
							c-5.968,1.699-9.86,2.828-11.122,3.198c-6.004,1.771-10.1,3.155-12.74,4.241c-2.644,1.086-3.828,1.867-4.014,2.427
							c-0.186,0.561,0.629,0.899,1.98,1.097c1.354,0.197,3.244,0.256,5.211,0.256c0.656,0,1.32-0.006,1.976-0.015
							c0.655-0.011,1.302-0.024,1.923-0.038c0.621-0.013,1.217-0.027,1.77-0.039c0.553-0.011,1.062-0.018,1.512-0.021
							c1.357,0.046,2.958,0.096,4.774,0.153c1.817,0.057,3.848,0.12,6.063,0.188c2.216,0.065,4.618,0.137,7.174,0.212
							c2.557,0.072,5.269,0.151,8.107,0.228c-10.301,2.539-17.775,4.613-23.041,6.297c-5.271,1.685-8.321,2.979-9.773,3.949
							c-1.452,0.977-1.303,1.631-0.179,2.04c1.124,0.411,3.222,0.578,5.662,0.578c1.192,0,2.466-0.042,3.749-0.112
							c1.283-0.071,2.573-0.175,3.799-0.299c1.225-0.123,2.384-0.27,3.403-0.43c1.021-0.159,1.901-0.332,2.568-0.508
							c-1.015,0.58-1.722,1.068-2.157,1.476s-0.602,0.733-0.532,0.985c0.067,0.253,0.37,0.433,0.868,0.549
							c0.498,0.118,1.192,0.171,2.045,0.171c1.897,0,4.582-0.27,7.633-0.698c3.049-0.43,6.466-1.018,9.832-1.666
							c3.364-0.646,6.68-1.35,9.531-2.004c2.85-0.654,5.236-1.261,6.748-1.717c0.336-0.1,0.708-0.207,1.113-0.319
							c0.405-0.111,0.844-0.229,1.313-0.353c0.469-0.122,0.968-0.249,1.493-0.381c0.525-0.129,1.078-0.264,1.654-0.402
							c1.381-0.057,5.064-0.21,9.896-0.413c4.829-0.204,10.804-0.456,16.772-0.71c5.967-0.256,11.927-0.512,16.731-0.727
							c4.804-0.214,8.454-0.383,9.802-0.463c5.802,0.947,11.767,1.748,17.837,2.416c6.071,0.667,12.245,1.203,18.464,1.623
							c6.22,0.421,12.48,0.727,18.729,0.933c6.246,0.208,12.475,0.317,18.629,0.344c-0.006,0.077-0.009,0.155-0.009,0.234
							c0,0.081,0.003,0.159,0.01,0.24s0.017,0.164,0.031,0.247c0.015,0.084,0.033,0.167,0.056,0.252c0,0,1.041,1.287,2.598,3.428
							c1.557,2.143,3.633,5.147,5.696,8.579c2.069,3.442,4.129,7.316,5.642,11.188c1.518,3.88,2.486,7.759,2.363,11.184
							c0,0,0.699,3.06,1.785,7.747c1.09,4.706,2.573,11.062,4.129,17.613c1.564,6.588,3.204,13.377,4.592,18.87
							c1.393,5.518,2.529,9.713,3.07,11.062c0.23,0.566,0.35,1.032,0.38,1.416c0.029,0.381-0.029,0.676-0.156,0.901
							c-0.128,0.226-0.325,0.378-0.57,0.477c-0.245,0.097-0.537,0.141-0.859,0.141c-0.442,0-0.938-0.077-1.433-0.192
							c-0.494-0.119-0.987-0.273-1.426-0.43c-0.436-0.157-0.818-0.313-1.092-0.431c-0.272-0.116-0.436-0.194-0.436-0.194
							s-0.728-0.23-1.949-0.622c-1.224-0.392-2.941-0.945-4.923-1.593c-1.98-0.648-4.224-1.391-6.499-2.16
							c-2.273-0.769-4.579-1.565-6.685-2.32c-0.811-0.256-1.563-0.475-2.261-0.654c-0.698-0.182-1.34-0.326-1.933-0.438
							c-0.592-0.112-1.134-0.193-1.628-0.245c-0.496-0.051-0.944-0.075-1.352-0.075c-1.246,0.003-2.097,0.234-2.671,0.578
							c-0.576,0.346-0.876,0.803-1.021,1.263c-0.143,0.458-0.131,0.917-0.083,1.261s0.132,0.573,0.132,0.573s0.398,0.195,1.137,0.53
							c0.738,0.332,1.817,0.807,3.178,1.365s3.004,1.199,4.871,1.871c1.868,0.67,3.961,1.37,6.217,2.042
							c6.566,1.806,11.302,3.399,14.764,4.809c3.463,1.411,5.646,2.64,7.105,3.712c1.46,1.072,2.192,1.989,2.754,2.777
							c0.563,0.787,0.953,1.446,1.73,2.006c0.775,0.557,1.669,1.629,2.575,2.924c0.907,1.299,1.826,2.819,2.65,4.272
							c0.823,1.456,1.552,2.843,2.074,3.865c0.522,1.024,0.839,1.685,0.839,1.685s-0.053,0.104-0.081,0.37
							c-0.028,0.268-0.034,0.696,0.062,1.347c0.095,0.651,0.289,1.525,0.66,2.678c0.372,1.154,0.922,2.592,1.725,4.369
							c0.599,0.732,1.169,1.339,1.711,1.834c0.541,0.496,1.055,0.882,1.539,1.175c0.484,0.294,0.938,0.495,1.362,0.622
							c0.426,0.129,0.821,0.184,1.187,0.182c0.548-0.002,1.031-0.127,1.444-0.315s0.759-0.44,1.035-0.689
							c0.276-0.252,0.485-0.501,0.624-0.687c0.139-0.188,0.209-0.313,0.209-0.313s0.072-0.129,0.197-0.379
							c0.124-0.251,0.299-0.624,0.505-1.111c0.205-0.486,0.44-1.088,0.683-1.8c0.244-0.709,0.495-1.525,0.733-2.444
							c0.241-0.917-0.086-2.206-0.738-3.668c-0.651-1.457-1.628-3.086-2.688-4.686c-1.059-1.6-2.201-3.169-3.187-4.513
							c-0.984-1.342-1.813-2.46-2.248-3.158c-0.435-0.693-0.568-1.217-0.527-1.608c0.042-0.394,0.26-0.656,0.532-0.834
							c0.272-0.175,0.599-0.265,0.856-0.311s0.449-0.048,0.449-0.048s1.812,0.533,4.623,1.348c2.813,0.816,6.628,1.91,10.631,3.035
							c4.006,1.125,8.2,2.279,11.765,3.207c3.567,0.928,6.503,1.628,7.987,1.845c1.482,0.219,4.322,0.838,7.751,1.642
							c3.43,0.805,7.449,1.797,11.286,2.762c3.838,0.965,7.494,1.904,10.19,2.602c2.697,0.696,4.435,1.154,4.435,1.154
							s0.521,0.124,1.367,0.316c0.847,0.191,2.022,0.449,3.331,0.714s2.751,0.536,4.134,0.755c1.384,0.219,2.707,0.383,3.777,0.436
							c-0.23-0.919-0.911-1.816-1.918-2.665c-1.006-0.848-2.338-1.644-3.873-2.366c-1.532-0.723-3.268-1.368-5.084-1.913
							c-1.814-0.545-3.709-0.987-5.563-1.302c-1.849-0.315-5.508-1.182-9.947-2.318c-4.436-1.133-9.649-2.538-14.615-3.928
							c-4.961-1.393-9.674-2.769-13.12-3.854c-3.442-1.083-5.622-1.875-5.519-2.099c0.156-0.03,0.329-0.057,0.52-0.081
							c0.19-0.021,0.396-0.041,0.617-0.057s0.457-0.026,0.706-0.033c0.249-0.009,0.513-0.013,0.789-0.013
							c1.588-0.004,3.598,0.103,5.818,0.277c2.22,0.174,4.651,0.414,7.083,0.679c2.433,0.265,4.864,0.901,7.084,1.169
							c2.221,0.266,4.229,1.047,5.814,1.047c0.003,0,0.006,0,0.01,0s0.008,0,0.011,0c0.005,0,0.008,0,0.011,0
							c0.005,0,0.008,0,0.012,0c2.011,0,3.188-0.549,3.791-0.855c0.604-0.307,0.634-0.899,0.348-1.356
							c-0.285-0.457-0.887-1.04-1.543-1.495c-0.658-0.457-1.373-0.918-1.885-1.222c-0.517-0.302-2.335-0.667-4.94-1.021
							c-2.605-0.353-5.996-0.731-9.657-1.085c-3.659-0.357-7.59-0.709-11.273-1.018c-3.682-0.309-7.119-0.586-9.793-0.801
							c-4.153-0.398-7.431-1.028-10.011-1.797c-2.578-0.769-4.46-1.678-5.824-2.633c-1.363-0.953-2.208-1.957-2.717-2.915
							c-0.507-0.958-0.678-1.873-0.69-2.657c-0.869-0.66-2.064-3.471-3.405-7.479c-1.337-3.996-2.817-9.172-4.261-14.586
							c-1.438-5.391-2.838-11.016-4.031-15.95c-1.188-4.918-2.17-9.159-2.777-11.823c0.007-0.201,0-0.413-0.021-0.637
							c-0.021-0.225-0.059-0.461-0.113-0.709c-0.054-0.247-0.126-0.508-0.216-0.781c-0.09-0.271-0.198-0.556-0.326-0.855
							c-0.043-3,0.319-6.401,0.843-9.914c0.521-3.502,1.203-7.11,1.803-10.545c0.598-3.425,1.115-6.675,1.313-9.47
							c0.195-2.788,0.073-5.128-0.605-6.738c-0.013-0.032-0.029-0.065-0.046-0.097c-0.018-0.032-0.035-0.065-0.055-0.096
							c-0.02-0.031-0.039-0.063-0.06-0.094c-0.021-0.033-0.041-0.064-0.063-0.097c9.871-0.381,19.178-0.913,27.616-1.506
							c8.431-0.591,15.995-1.243,22.391-1.866c6.392-0.624,11.618-1.22,15.379-1.694c3.76-0.478,6.06-0.834,6.598-0.985
							c0.658-0.065,1.315-0.133,1.968-0.201c0.654-0.067,1.304-0.133,1.954-0.201c0.647-0.068,1.294-0.136,1.938-0.203
							c0.644-0.07,1.286-0.139,1.926-0.208c-0.214,0.286-0.396,0.579-0.542,0.875c-0.147,0.298-0.259,0.598-0.331,0.904
							c-0.073,0.306-0.107,0.616-0.102,0.932s0.053,0.635,0.144,0.961c0,0,0.606,1.714,1.428,4.601
							c0.824,2.896,1.866,6.975,2.733,11.702c0.873,4.745,1.301,10.146,1.423,15.654c0.124,5.533,0.962,11.175-2.038,16.359v0.005
							l0.338,0.048c0.027,0.037,0.201,0.099,0.256,0.192c0.055,0.095,0.191,0.226,0.281,0.4c0.092,0.178,0.237,0.4,0.375,0.684
							c0.138,0.282,0.316,0.623,0.51,1.037c0.068,0.148,0.151,0.309,0.229,0.477c0.078,0.169,0.164,0.349,0.25,0.539
							s0.18,0.39,0.273,0.602c0.097,0.213,0.197,0.434,0.302,0.67c0.565,1.275,4.567,5.158,10.271,10.277
							c5.729,5.141,13.183,11.54,20.599,17.806c7.452,6.299,14.865,12.462,20.43,17.063c5.584,4.615,9.292,7.646,9.292,7.646
							s-1.23-0.241-3.331-0.61c-2.103-0.37-5.074-0.869-8.561-1.381c-3.485-0.513-7.483-1.037-11.639-1.467
							c-4.155-0.427-8.467-0.755-12.581-0.873c-5.554,0.111-8.698,0.501-10.293,1.021c-1.594,0.523-1.637,1.176-0.983,1.817
							c0.653,0.639,2.001,1.265,3.188,1.733c1.187,0.466,2.21,0.772,2.21,0.772s0,0,0.335,0.034
							c0.335,0.035,1.005,0.105,2.347,0.248c1.339,0.14,3.351,0.352,6.368,0.67c3.017,0.316,7.041,0.741,12.407,1.307
							c5.367,0.563,9.674,1.046,13.186,1.492c3.512,0.444,6.228,0.852,8.412,1.261c2.186,0.407,3.84,0.816,5.228,1.267
							c1.389,0.451,2.51,0.943,3.632,1.518c1.123,0.575,2.967,1.607,5.224,2.928c2.26,1.319,4.937,2.928,7.726,4.648
							c2.794,1.725,5.7,3.563,8.414,5.34c2.717,1.781,5.24,3.502,7.262,4.986c0.787,0.577,1.469,1.065,2.057,1.471
							c0.592,0.406,1.09,0.732,1.51,0.986c0.42,0.252,0.762,0.434,1.038,0.552c0.277,0.118,0.488,0.171,0.649,0.171
							c0.252,0,0.377-0.136,0.426-0.372c0.05-0.236,0.025-0.573-0.022-0.974c-0.047-0.401-0.116-0.869-0.155-1.366
							s-0.048-1.026,0.025-1.55c0.119-0.857-0.012-1.695-0.277-2.469c-0.265-0.774-0.66-1.483-1.073-2.086
							c-0.413-0.6-0.839-1.094-1.163-1.438s-0.544-0.538-0.544-0.538l-16.577-13.317c0,0,2.595,0.654,6.65,1.656
							c4.061,1.003,9.585,2.352,15.445,3.743c5.864,1.392,12.063,2.823,17.456,3.987c5.397,1.164,9.986,2.06,12.623,2.375
							c0.339,0.041,0.661,0.076,0.963,0.104s0.586,0.053,0.852,0.072c0.267,0.018,0.516,0.03,0.747,0.04
							c0.232,0.008,0.447,0.013,0.646,0.013c1.348-0.005,1.974-0.21,2.154-0.519c0.18-0.309-0.086-0.721-0.519-1.13
							c-0.434-0.409-1.035-0.815-1.528-1.122c-0.492-0.307-0.877-0.51-0.877-0.51l-11.039-2.064l-23.582-7.316
							c0,0,0.596,0.057,1.622,0.141c1.026,0.085,2.486,0.196,4.217,0.309c1.73,0.111,3.73,0.803,5.841,0.885
							c2.109,0.082,4.328,0.711,6.492,0.711c0.111,0,0.222,0,0.332,0c0.111,0,0.222-0.582,0.332-0.584
							c0.11,0,0.221-0.293,0.332-0.295c0.109,0,0.219-0.146,0.329-0.148c2.245-0.03,3.364-0.311,3.782-0.606
							c0.418-0.298,0.132-0.716-0.434-1.097c-0.566-0.378-1.413-0.771-2.117-1.051c-0.704-0.279-1.267-0.474-1.267-0.474
							s-0.435-0.038-1.35-0.095c-0.915-0.055-2.312-0.138-4.239-0.233c-1.927-0.095-4.383-0.208-7.418-0.325
							c-3.035-0.119-6.647-0.242-10.888-0.364c-4.24-0.123-7.977-0.493-11.357-1.07c-3.382-0.578-6.407-1.364-9.229-2.32
							c-2.818-0.954-5.434-2.079-7.994-3.333c-2.559-1.254-5.063-2.637-7.662-4.112c-2.598-1.473-7.124-5.188-12.439-9.925
							c-5.295-4.719-11.363-10.439-17.086-15.955c-5.697-5.49-11.053-10.78-14.977-14.689c-3.911-3.896-6.407-6.428-6.407-6.428
							l0.382-0.776l-0.217-0.011c0.379-1.779,1.168-4.999,2.233-8.91c1.063-3.897,2.399-8.48,3.879-13.013
							c1.475-4.518,3.092-8.984,4.725-12.688c1.627-3.689,3.272-6.622,4.813-8.095c0.862-0.733,1.789-1.662,2.716-2.747
							c0.926-1.086,1.85-2.329,2.706-3.696c0.854-1.363,1.644-2.852,2.298-4.428c0.653-1.571,1.175-3.232,1.496-4.946
							c0.543-0.085,1.082-0.173,1.618-0.261c0.537-0.087,1.07-0.175,1.602-0.262c0.531-0.088,1.729-0.176,2.256-0.264
							c0.525-0.087,0.24-0.175,2.24-0.262v0.004c0-0.013-0.518-0.026-0.443-0.037c0.074-0.014-0.186-0.026-0.111-0.039
							c0.074-0.016-0.019-0.029,0.056-0.042c0.075-0.011,0.067-0.024,0.142-0.037c2.277-0.39,4.464-0.781,6.647-1.178
							c2.185-0.396,4.302-0.796,6.396-1.199c2.094-0.402,4.13-0.81,6.135-1.221c2.005-0.409,3.959-0.821,5.875-1.237
							c12.684-2.678,22.831-5.239,30.921-7.569c8.071-2.325,14.093-4.423,18.538-6.188c4.438-1.762,7.305-3.19,9.063-4.183
							c1.757-0.986,2.409-1.538,2.416-1.543c1.437-0.709,2.792-1.411,4.071-2.105c1.279-0.693,2.481-1.378,3.613-2.053
							c1.131-0.674,2.19-1.339,3.184-1.989c0.991-0.651,1.917-1.291,2.779-1.917c11.756-2.801,21.152-6.369,28.21-10.387
							c7.031-4.003,11.736-8.45,14.147-13.035c2.399-4.567,2.523-9.269,0.402-13.808c-2.112-4.52-6.453-8.876-12.994-12.776
							c-1.499-0.529-2.813-1.099-3.965-1.686c-1.153-0.586-2.145-1.195-3.003-1.803c-0.857-0.609-1.58-1.217-2.195-1.813
							c-0.613-0.594-1.119-1.171-1.543-1.714c3.625-0.82,9.438-1.339,16.238-1.7c6.796-0.359,14.577-0.561,22.143-0.742
							c7.563-0.184,14.91-0.348,20.838-0.639c5.926-0.289,10.435-0.703,12.324-1.381c2.166,0.175,4.262,0.35,6.274,0.525
							c2.013,0.172,3.939,0.348,5.766,0.518c1.825,0.174,3.55,0.347,5.157,0.518c1.607,0.17,3.098,0.341,4.452,0.51
							c2.971,0.477,8.316,1.074,14.665,1.7c6.351,0.626,13.704,1.282,20.688,1.878s13.598,1.474,18.465,1.861
							c4.869,0.388,7.99,0.969,7.99,0.969s0.004,0,0.015,0c0.009,0,0.021,0,0.039,0s0.039,0,0.064,0c0.026,0,0.056,0,0.089,0
							c0.526,0,1.975-0.354,3.375-0.487c1.399-0.136,2.75-0.562,3.082-1.058c0.332-0.494-0.354-1.308-3.027-2.385
							c-2.672-1.072-7.324-2.533-14.923-4.409c-6.489-1.519-13.919-2.993-21.912-4.366c-7.984-1.375-16.532-2.682-25.263-3.896
							c-8.726-1.214-17.636-2.352-26.354-3.391c-8.714-1.037-17.236-1.986-25.191-2.834c-0.177-0.092-0.348-0.184-0.51-0.271
							c-0.164-0.086-0.319-0.172-0.467-0.252c-0.147-0.082-0.287-0.16-0.416-0.232c-0.129-0.074-0.248-0.145-0.355-0.21
							c-2.661-1.603-6.012-3.081-9.779-4.417c-3.764-1.332-7.943-2.521-12.266-3.541c-4.32-1.02-8.786-1.871-13.124-2.529
							c-4.337-0.661-8.546-1.13-12.359-1.384c-1.626-0.182-3.226-0.339-4.793-0.473c-1.569-0.131-3.11-0.243-4.621-0.33
							c-1.512-0.088-2.995-0.153-4.45-0.197C470.737,320.293,469.311,320.27,467.91,320.265"/>
					</g>
				</g>
			</g>
		</g>
		<g>
			<path fill="#DFB733" d="M226.324,367.84c0,0,14.668,40.626,12.881,66.982c4.139,15.171,16.238,18.703,13.433,2.134
				c1.044-23.076,9.101-58.712,7.074-71.463C257.687,352.745,224.75,351.149,226.324,367.84z"/>
			<path id="patted_35_" fill="#CEA234" d="M351.313,455.486c0,0,33.404,77.304,42.498,88.179
				c9.091,10.877,16.902,19.023,33.105,19.988c16.211,0.97,22.787,1.948,22.787,1.948s8.121,5.438-0.521,5.629
				c-8.643,0.186-18.552-1.684-18.552-1.684l21.324,13.39l10.201,3.78c0,0,6.972,7.809-2.887,5.49
				c-9.855-2.319-47.918-21.531-47.918-21.531l13.657,24.162c0,0,2.854,5.585,1.832,11.722c-1.03,6.14,1.272,12.573-5.444,1.913
				c-6.715-10.662-20.486-28.187-24.43-32.371c-3.936-4.185-8.089-5.992-28.317-10.194c-20.236-4.202-20.236-4.202-20.236-4.202
				s-15.005-9.006,6.381-9.734c15.733,0.926,34.026,8.064,34.026,8.064s-49.581-88.854-51.107-98.574
				c-0.28-1.785-0.512-3.213-0.702-4.353c-0.852-5.08-0.901-4.509-0.901-4.509l15.688,1.398L351.313,455.486z"/>
			<path fill="#CEA234" d="M338.668,358.429c0,0,5.893,54.479-2.559,94.171c8.618,12.799,11.727,18.782,15.203,2.887
				c1.704-10.069,14.677-72.373,22.025-84.509c4.388-6.544,10.746-20.933,12.462-36.864
				C386.337,324.127,337.104,336.018,338.668,358.429z"/>
			<path id="patteg_37_" fill="#DFB733" d="M252.638,436.956c0,0,5.749,93.55,9.352,99.274c-0.271,5.758,1.663,15.41,17.377,18.391
				c10.136,1.611,31.829,5.019,33.65,7.24c1.821,2.223,6.494,7.779-1.235,7.76c-6.997-1.598-22.757-5.802-26.865-4.28
				c-0.498,1.61,32.831,19.955,39.715,22.255c6.885,2.305,14.15,8.291,14.553,14.878c-4.043-0.4-11.683-4.036-11.683-4.036
				s-25.45-13.225-30.989-14.831c-5.546-1.604-32.308-17.218-32.308-17.218s-2.898,0.022-1.527,5.073
				c1.37,5.049,8.054,22.304,6.767,28.865c-1.281,6.563-2.589,10.22-2.589,10.22s-3.495,9.838-8.422-3.27
				c-2.331-12.695-1.374-15.686-1.374-15.686s-3.754-18.961-6.489-23.021c-2.74-4.063,0.545-11.03-23.919-24.344
				c-8.396-4.959-14.248-10.724-14.248-10.724s-1.733-11.875,10.564-4.121c7.81,5.594,18.607,12.385,18.607,12.385
				s7.094,6.846,5.525-3.072c-1.566-9.912-7.895-103.873-7.895-103.873L252.638,436.956z"/>
			<path fill="#DBD7BC" d="M466.794,205.418c-60.061-95.836-194.706-10.198-194.706-10.198s-50.735,30.325-140.298,94.322
				c-45.263,24.28-31.665,70.432-31.665,70.432s47.688-3.933,53.442-4.615c73.247,24.183,174.412-0.414,178.528-2.622
				c169.963-33.708,183.01-110.729,183.01-110.729C519.415,230.236,472.277,203.814,466.794,205.418z"/>
			<path id="aile_47_" fill="#C6C2AB" d="M414.279,235.43c0,0,14.53,59.42-75.15,94.694c-8.643,5.038-79.424,43.804-72.509,14.707
				c-12.204,5.077-67.016,9.089-80.702,3.068c-13.849,3.552-112.62-2.13-136.316-3.716c-7.124,0.081-29.466,3.107,2.5-15.773
				c10.154-5.98,190.821-110.506,255.777-116.485C329.936,211.986,393.897,194.416,414.279,235.43z"/>
			<path fill="#DBD7BC" d="M583.645,126.197c14.592-3.37,2.095-15.589-0.857-19.918c-9.687-14.155-31.689-23.99-47.725-26.166
				c-51.98-12.18-80.002,27.797-89.08,36.787c-3.447,11.376,3.133,2.229,14.642-5.811c12.533,9.376,66.39,32.143,66.915,44.191
				c-0.615-14.099,70.908-8.318,81.279-15.423C614.239,136.145,599.217,130.623,583.645,126.197z"/>
			<path fill="#B7916A" d="M582.787,106.279c-9.687-14.155-31.689-23.99-47.725-26.166c-51.98-12.18-80.002,27.797-89.08,36.787
				C506.754,59.748,585.739,110.608,582.787,106.279z"/>
			<path id="contour_1_" fill="#CEC11B" d="M541.454,107.092c-0.908,4.855-5.582,8.058-10.438,7.149s-8.059-5.581-7.15-10.437
				c0.907-4.859,5.58-8.061,10.438-7.155C539.159,97.559,542.361,102.232,541.454,107.092z"/>
			<path fill="#CEC11B" d="M533.963,96.884c0,0,18.99,1.935,22.521,10.683c-4.699,4.125-14.345,9.491-26.12,6.52
				C521.646,112.149,526.146,98.215,533.963,96.884z"/>
			
				<radialGradient id="oeil_5_" cx="1363.2139" cy="-155.3779" r="7.984" gradientTransform="matrix(0.983 0.1837 -0.1837 0.983 -834.8055 6.2786)" gradientUnits="userSpaceOnUse">
				<stop  offset="0" style="stop-color:#FFFFFF"/>
				<stop  offset="0.1386" style="stop-color:#D5D4D3"/>
				<stop  offset="0.2079" style="stop-color:#494340"/>
				<stop  offset="0.3663" style="stop-color:#28201D"/>
				<stop  offset="1" style="stop-color:#231B18"/>
			</radialGradient>
			<circle id="oeil_28_" fill="url(#oeil_5_)" cx="532.659" cy="105.447" r="6.721"/>
			<path id="queue_37_" fill="#C6C2AB" d="M137.117,344.508c0,0-33.22,13.106-41.965,18.298
				c-8.746,5.193-46.695,20.438-33.614,5.706c-8.126,4.256-47.812,7.292,15.253-23.422
				C115.657,336.876,142.6,328.237,137.117,344.508z"/>
			<path fill="#DBD7BC" d="M445.499,117.641c0,0-26.081,34.248,27.376,76.592c-25.148-5.64-27.781-12.17-57.101-15.571
				c-3.801,42.688,71.087,89.353,84.052,92.315c50.688-23.286,65.814-72.288,42.039-105.897
				c-10.507-8.255-10.343-20.944-11.299-22.971C529.608,140.082,501.535,75.966,445.499,117.641z"/>
			<path id="bec_45_" fill="#C19226" d="M524.639,114.869c0,0-27.992,1.307-3.729,10.895c19.313,5.33,86.146,12.197,110.244,18.524
				c12.042,4.123,63.725,12.208,63.725,12.208s22.232,0.549-9.638-16.76c-29.969-15.377-82.191-27.491-116.249-34.667
				C559.229,103.648,562.875,126.677,524.639,114.869z"/>
			<path id="bec_43_" fill="#CEC11B" d="M524.639,114.869c0,0-27.992,1.307-3.729,10.895c19.313,5.33,86.146,12.197,110.244,18.524
				c12.042,4.123,63.725,12.208,63.725,12.208C690.631,148.314,562.875,126.677,524.639,114.869z"/>
			<path fill="#B7916A" d="M484.247,287.599c0,0-78.907-31.174-92.631,49.774C467.908,311.495,484.247,287.599,484.247,287.599z"/>
		</g>
	</g>
</g>
</svg>
