<?xml version="1.0" encoding="utf-8"?>
<!-- Generator: Adobe Illustrator 16.0.0, SVG Export Plug-In . SVG Version: 6.00 Build 0)  -->
<!DOCTYPE svg PUBLIC "-//W3C//DTD SVG 1.1//EN" "http://www.w3.org/Graphics/SVG/1.1/DTD/svg11.dtd">
<svg version="1.1" xmlns="http://www.w3.org/2000/svg" xmlns:xlink="http://www.w3.org/1999/xlink" x="0px" y="0px" width="732px"
	 height="692px" viewBox="0 0 732 692" enable-background="new 0 0 732 692" xml:space="preserve">
<g id="Calque_1" display="none">
	<rect x="220.41" y="655.121" display="inline" fill="none" width="415.59" height="37.879"/>
	<text transform="matrix(1 0 0 1 220.4102 679.9707)" display="inline" font-family="'MyriadPro-Regular'" font-size="35">Vacher luisant</text>
</g>
<g id="colombe_à_croissant">
</g>
<g id="colombe_rouviolette">
</g>
<g id="colibri_madere">
</g>
<g id="colibri_à_tête_bleue">
</g>
<g id="elenie_siffleuse">
</g>
<g id="grive_à_pieds_jaunes">
</g>
<g id="merle_à_lunette">
</g>
<g id="moucherolle_gobemouche">
</g>
<g id="moqueur_corossol">
</g>
<g id="moqueur_grivotte">
</g>
<g id="trembleur_brun">
</g>
<g id="trembleur_gris">
</g>
<g id="paruline_cafeite">
</g>
<g id="saltator_gros_bec">
</g>
<g id="soporophile_rouge-gorge">
</g>
<g id="sucrier_à_ventre_jaune">
</g>
<g id="vachet_luisant">
	<g>
		<g opacity="0.3">
			<g>
				<g enable-background="new    ">
					<defs>
						<polygon id="SVGID_43_" enable-background="new    " points="9.79,554.648 11.78,330.405 654.181,332.018 722.21,552.662 
													"/>
					</defs>
					<clipPath id="SVGID_2_">
						<use xlink:href="#SVGID_43_"  overflow="visible"/>
					</clipPath>
					<g clip-path="url(#SVGID_2_)">
						<path fill="#959595" d="M268.778,518.475c0,0,1.696-1.594,4.398-4.159c2.696-2.561,6.389-6.082,10.391-9.949
							c3.988-3.853,8.281-8.044,12.205-11.969c3.91-3.91,7.457-7.559,9.982-10.351c0.469-0.177,0.938-0.38,1.405-0.61
							s0.934-0.488,1.398-0.775c0.464-0.287,0.926-0.604,1.384-0.952c0.459-0.349,0.914-0.728,1.364-1.141
							c0.133-0.089,0.263-0.178,0.392-0.266c0.128-0.088,0.254-0.175,0.378-0.262s0.245-0.173,0.364-0.259
							c0.12-0.086,0.237-0.17,0.352-0.255l0.001,0.005c0.534,0.584,1.273,1.31,2.182,2.095c0.909,0.785,1.987,1.631,3.2,2.455
							c1.213,0.825,2.561,1.629,4.008,2.329c1.446,0.701,2.991,1.299,4.598,1.712c-1.158,2.792-2.586,6.196-4.121,9.761
							c-1.541,3.578-3.189,7.319-4.779,10.766c-1.596,3.459-3.131,6.619-4.438,9.014c-1.309,2.401-2.385,4.03-3.057,4.418
							c-0.113,0.613-0.365,1.314-0.881,2.023s-1.295,1.425-2.463,2.064c-1.168,0.642-2.726,1.207-4.797,1.613
							c-2.072,0.407-4.657,0.655-7.881,0.662c-0.057,0-0.114,0.001-0.172,0c-0.058,0-0.115,0-0.173,0c-0.059,0-0.116,0-0.175-0.001
							c-0.059,0-0.117,0-0.176-0.001c-1.287-0.03-2.791-0.067-4.428-0.104c-1.636-0.037-3.402-0.075-5.213-0.108
							s-3.664-0.063-5.475-0.083s-3.576-0.03-5.212-0.027c-1.116,0.003-2.172,0.012-3.138,0.028
							c-0.967,0.018-1.844,0.043-2.604,0.078c-0.761,0.035-1.404,0.081-1.904,0.138c-0.5,0.056-0.854,0.124-1.037,0.205
							c-0.453,0.199-1.082,0.473-1.669,0.781s-1.133,0.652-1.421,0.992c-0.287,0.341-0.316,0.677,0.131,0.972
							c0.447,0.294,1.37,0.545,2.986,0.715c0.674-0.007,1.443-0.019,2.282-0.031c0.839-0.014,1.748-0.028,2.702-0.043
							c0.953-0.015,1.952-0.028,2.971-0.039c1.018-0.011,2.057-0.019,3.089-0.021c1.288-0.002,2.568,0.003,3.792,0.022
							c1.223,0.019,2.391,0.051,3.453,0.102s2.02,0.119,2.824,0.211c0.805,0.091,1.457,0.206,1.908,0.348
							c0.055,0.186-1.791,0.636-4.687,1.212c-2.897,0.576-6.846,1.279-10.993,1.973c-4.151,0.692-8.502,1.375-12.195,1.908
							c-3.697,0.533-6.734,0.917-8.253,1.012c-0.708,0.045-1.427,0.111-2.146,0.199c-0.72,0.087-1.44,0.194-2.152,0.32
							c-0.712,0.127-1.414,0.273-2.097,0.438c-0.684,0.163-1.348,0.346-1.983,0.544c1.489-1.163,3.229-2.442,5.05-3.733
							c1.818-1.29,3.716-2.591,5.521-3.797c1.802-1.204,3.513-2.314,4.96-3.227c1.445-0.91,2.63-1.623,3.383-2.032
							c0.818-0.444,1.65-0.823,2.703-1.166c1.053-0.342,2.326-0.647,4.029-0.945c1.701-0.297,3.832-0.587,6.599-0.897
							c2.765-0.31,6.165-0.641,10.408-1.021c4.241-0.381,7.421-0.667,9.806-0.881c2.383-0.215,3.972-0.357,5.03-0.453
							c1.059-0.095,1.588-0.143,1.853-0.166c0.265-0.024,0.265-0.024,0.265-0.024s0.778-0.231,1.663-0.588
							c0.884-0.357,1.875-0.84,2.304-1.343c0.428-0.503,0.294-1.025-1.071-1.463s-3.961-0.789-8.457-0.952
							c-3.297,0.039-6.723,0.245-10.008,0.531s-6.431,0.654-9.164,1.018c-2.735,0.363-5.059,0.722-6.699,0.989
							C269.734,518.298,268.778,518.475,268.778,518.475 M54.893,340.722l5.509-2.006c-0.584,0.279-1.142,0.525-1.67,0.742
							c-0.528,0.218-1.027,0.405-1.492,0.567c-0.465,0.163-0.896,0.3-1.288,0.414C55.559,340.555,55.204,340.647,54.893,340.722
							 M115.349,330.665c-1.828-0.005-3.595,0.01-5.293,0.036c-1.698,0.025-3.328,0.063-4.88,0.103
							c-1.553,0.04-3.028,0.084-4.42,0.122c-1.391,0.038-2.696,0.072-3.909,0.093c-3.506,0.059-6.814,0.169-9.92,0.365
							c-3.106,0.195-6.011,0.478-8.707,0.878c-2.699,0.402-5.189,0.923-7.469,1.599c-2.28,0.676-4.35,1.507-6.201,2.526
							c-0.233,0.151-0.464,0.298-0.692,0.439c-0.229,0.141-0.455,0.277-0.679,0.409s-0.445,0.26-0.664,0.383
							c-0.219,0.124-0.436,0.243-0.65,0.359c-3.666,0.233-8.297,0.946-13.234,1.9c-4.944,0.954-10.199,2.149-15.102,3.346
							c-4.91,1.197-9.466,2.395-13,3.351c-3.537,0.956-6.049,1.669-6.859,1.895c-0.764,0.213-1.288,0.406-1.616,0.576
							c-0.329,0.171-0.462,0.317-0.442,0.438c0.021,0.121,0.192,0.215,0.474,0.279s0.672,0.099,1.128,0.1c0.035,0,0.071,0,0.107,0
							c0.037-0.001,0.073-0.001,0.11-0.002s0.075-0.002,0.112-0.003c0.038-0.001,0.076-0.003,0.115-0.004
							c2.166,0.177,5.835,0.537,10.246,0.991c4.413,0.455,9.568,1.003,14.707,1.555c5.139,0.551,10.261,1.105,14.602,1.572
							c4.342,0.467,7.902,0.845,9.918,1.045c0.198,0.043,0.384,0.081,0.556,0.113c0.171,0.033,0.329,0.061,0.47,0.083
							c0.143,0.022,0.268,0.04,0.377,0.051c0.109,0.012,0.201,0.018,0.273,0.018h0.019c0.006,0,0.012,0,0.012,0
							c0.011-0.001,0.017-0.001,0.022-0.001l0.016-0.001c7.874,1.78,14.447,3.883,19.885,6.062
							c5.448,2.183,9.759,4.441,13.094,6.527c3.342,2.091,5.703,4.006,7.245,5.495c1.544,1.491,2.267,2.552,2.329,2.931
							c-0.115,0.564-0.153,1.859-0.101,3.578c0.052,1.721,0.196,3.867,0.443,6.131c0.248,2.269,0.601,4.654,1.071,6.846
							c0.471,2.196,1.061,4.195,1.781,5.681c1.392,3.414,4.182,6.913,7.672,10.278c3.5,3.377,7.703,6.619,11.9,9.506
							c4.207,2.895,8.407,5.43,11.883,7.383c3.481,1.956,6.233,3.325,7.537,3.885c4.185,3.354,10.831,6.692,18.568,9.835
							c7.756,3.151,16.605,6.103,25.159,8.668c8.571,2.571,16.841,4.754,23.413,6.36c6.578,1.609,11.449,2.64,13.214,2.906
							s4.069,0.658,6.674,1.108s5.51,0.961,8.472,1.467c2.963,0.505,5.984,1.006,8.818,1.438c2.836,0.432,5.486,0.794,7.707,1.022
							c0.555,0.15,1.112,0.297,1.675,0.438c0.562,0.142,1.128,0.279,1.697,0.412c0.569,0.134,1.143,0.264,1.72,0.389
							c0.576,0.127,1.156,0.25,1.739,0.369c1.167,0.425,2.434,0.938,3.717,1.547c1.283,0.609,2.584,1.314,3.817,2.123
							s2.4,1.723,3.416,2.747c1.016,1.026,1.881,2.165,2.51,3.424c0.434,0.479,1.004,1.054,1.691,1.678
							c0.688,0.625,1.494,1.3,2.398,1.979c0.905,0.682,1.909,1.367,2.993,2.014c1.085,0.646,2.249,1.252,3.474,1.773
							c-2.04,2.43-4.479,5.307-7.076,8.309c-2.604,3.012-5.366,6.149-8.041,9.088c-2.682,2.947-5.275,5.691-7.526,7.902
							c-2.256,2.215-4.167,3.892-5.479,4.694c-1.874,1.146-3.686,2.22-5.561,3.188c-1.877,0.97-3.818,1.834-5.952,2.561
							c-2.135,0.728-4.462,1.316-7.107,1.734c-2.647,0.418-5.614,0.664-9.026,0.706c-3.416,0.043-6.326,0.096-8.768,0.15
							c-2.443,0.054-4.419,0.11-5.967,0.162c-1.549,0.051-2.671,0.097-3.405,0.13s-1.081,0.053-1.081,0.053
							s-0.427,0.142-0.953,0.356c-0.525,0.215-1.151,0.504-1.549,0.8c-0.398,0.296-0.568,0.599-0.184,0.841s1.326,0.424,3.15,0.478
							c0.278,0.009,0.559,0.016,0.841,0.021c0.281,0.006,0.563,0.011,0.848,0.014c0.283,0.004,0.566,0.006,0.851,0.008
							c0.283,0.001,0.567,0.002,0.851,0.001c1.569-0.003,3.12-0.035,4.565-0.082s2.783-0.107,3.924-0.169
							c1.143-0.061,2.088-0.12,2.748-0.165c0.659-0.046,1.034-0.075,1.034-0.075l-17.958,5.557l-8.644,1.512
							c0,0-0.289,0.164-0.648,0.41s-0.789,0.573-1.07,0.901c-0.28,0.327-0.413,0.655-0.177,0.899
							c0.236,0.245,0.842,0.408,2.034,0.405c0.152-0.001,0.314-0.004,0.487-0.01c0.172-0.006,0.354-0.015,0.547-0.026
							c0.193-0.012,0.396-0.026,0.611-0.045c0.214-0.018,0.439-0.039,0.676-0.064c2.091-0.218,5.672-0.875,9.865-1.738
							c4.189-0.862,8.988-1.93,13.52-2.968c4.527-1.038,8.789-2.047,11.918-2.797c3.126-0.749,5.122-1.239,5.122-1.239
							l-11.337,10.441c0,0-0.148,0.152-0.356,0.423s-0.477,0.661-0.717,1.137c-0.239,0.476-0.451,1.037-0.545,1.651
							c-0.095,0.615-0.071,1.282,0.157,1.969c0.105,0.312,0.174,0.623,0.221,0.925c0.048,0.302,0.074,0.593,0.094,0.864
							c0.021,0.271,0.033,0.521,0.056,0.74c0.021,0.22,0.052,0.407,0.105,0.553c-0.021,0.031-0.04,0.063-0.06,0.096
							c-0.02,0.031-0.039,0.063-0.057,0.096c-0.019,0.031-0.036,0.063-0.054,0.095c-0.017,0.032-0.033,0.063-0.049,0.097
							c0.087,0.004,0.177,0.009,0.269,0.012c0.092,0.004,0.186,0.006,0.281,0.009c0.095,0.002,0.192,0.003,0.291,0.005
							c0.1,0,0.2,0.001,0.303,0c0.91-0.002,1.943-0.049,2.979-0.119c1.035-0.069,2.074-0.161,3-0.253
							c0.926-0.091,1.736-0.183,2.316-0.251s0.929-0.114,0.929-0.114s1.447-0.218,3.693-0.548c2.245-0.33,5.288-0.772,8.481-1.221
							c3.191-0.448,6.533-0.902,9.38-1.257c2.845-0.354,5.196-0.61,6.409-0.661c1.216-0.051,3.654-0.362,6.627-0.803
							c2.972-0.439,6.477-1.007,9.826-1.568c3.349-0.56,6.543-1.113,8.9-1.527c2.355-0.414,3.874-0.688,3.874-0.688
							s0.152,0.018,0.353,0.075s0.449,0.155,0.643,0.318s0.332,0.39,0.311,0.706c-0.02,0.315-0.198,0.72-0.64,1.236
							c-0.439,0.518-1.251,1.338-2.216,2.324c-0.966,0.986-2.086,2.14-3.145,3.322c-1.06,1.185-2.057,2.398-2.771,3.504
							c-0.716,1.106-1.149,2.104-1.081,2.854c0.067,0.75,0.159,1.42,0.26,2.004c0.101,0.585,0.208,1.083,0.308,1.487
							s0.191,0.714,0.258,0.924c0.066,0.209,0.107,0.317,0.107,0.317s0.044,0.118,0.142,0.295c0.097,0.177,0.248,0.412,0.462,0.647
							c0.213,0.236,0.488,0.472,0.837,0.647c0.348,0.177,0.768,0.294,1.269,0.292c0.285-0.001,0.598-0.04,0.938-0.129
							c0.34-0.089,0.708-0.228,1.106-0.427c0.397-0.199,0.825-0.459,1.284-0.79s0.949-0.733,1.472-1.218
							c0.879-1.345,1.51-2.439,1.962-3.326c0.451-0.886,0.724-1.563,0.887-2.072c0.163-0.509,0.217-0.851,0.229-1.065
							s-0.016-0.302-0.016-0.302s0.341-0.498,0.896-1.269c0.554-0.771,1.32-1.812,2.174-2.9c0.853-1.087,1.791-2.221,2.689-3.177
							c0.898-0.955,1.757-1.733,2.451-2.112c0.693-0.381,1.094-0.873,1.648-1.453c0.554-0.58,1.263-1.248,2.573-1.98
							c1.311-0.731,3.221-1.527,6.18-2.362c2.955-0.834,6.956-1.708,12.447-2.597c1.895-0.348,3.661-0.73,5.245-1.109
							c1.583-0.379,2.984-0.754,4.148-1.085s2.091-0.618,2.728-0.823c0.636-0.205,0.98-0.327,0.98-0.327s0.115-0.206,0.204-0.516
							c0.089-0.309,0.151-0.721,0.045-1.132s-0.381-0.822-0.965-1.129c-0.584-0.308-1.478-0.511-2.822-0.509
							c-0.302,0.001-0.626,0.012-0.974,0.034c-0.349,0.022-0.722,0.057-1.12,0.104s-0.823,0.105-1.275,0.179
							s-0.932,0.161-1.44,0.263c-1.785,0.426-3.734,0.867-5.655,1.29c-1.922,0.423-3.815,0.827-5.485,1.179
							c-1.671,0.352-3.119,0.649-4.148,0.86c-1.03,0.21-1.643,0.332-1.643,0.332s-0.117,0.041-0.314,0.101
							c-0.197,0.061-0.475,0.142-0.797,0.223c-0.321,0.08-0.687,0.161-1.06,0.223c-0.373,0.061-0.753,0.102-1.104,0.103
							c-0.314,0-0.605-0.031-0.847-0.109s-0.434-0.202-0.55-0.388c-0.115-0.186-0.156-0.432-0.095-0.754
							c0.062-0.321,0.225-0.718,0.515-1.204c0.469-0.785,1.438-2.867,2.699-5.716c1.256-2.842,2.8-6.441,4.422-10.276
							c1.615-3.82,3.308-7.872,4.873-11.64c1.559-3.755,2.992-7.23,4.1-9.923c0.309-0.167,0.616-0.346,0.923-0.537
							s0.611-0.396,0.915-0.615c0.303-0.218,0.605-0.45,0.906-0.697c0.3-0.246,0.599-0.508,0.896-0.784
							c1.293-0.884,2.393-1.694,3.227-2.5c0.832-0.805,1.4-1.604,1.629-2.467c0.229-0.861,0.119-1.786-0.4-2.84
							c-0.52-1.053-1.448-2.235-2.859-3.614c-0.367-0.357-0.766-0.722-1.201-1.088s-0.906-0.734-1.416-1.101
							c-0.51-0.365-1.057-0.729-1.645-1.087c-0.588-0.356-1.217-0.708-1.889-1.048c0.065-0.004,0.129-0.009,0.19-0.014
							c0.062-0.004,0.12-0.009,0.178-0.013c0.057-0.005,0.11-0.008,0.162-0.012c0.052-0.003,0.101-0.006,0.146-0.009
							c0.031-0.002,0.067-0.004,0.106-0.007c0.039-0.002,0.081-0.005,0.127-0.007s0.095-0.005,0.146-0.007
							c0.052-0.003,0.105-0.005,0.162-0.007c2.124,0.499,4.118,0.959,5.968,1.374c1.849,0.415,3.551,0.786,5.088,1.109
							c1.538,0.323,2.91,0.598,4.1,0.82s2.196,0.393,3.001,0.507c4.329,0.614,11.704,2.166,20.661,4.2
							c8.969,2.038,19.529,4.563,30.203,7.117c10.692,2.56,21.499,5.15,30.92,7.31c9.436,2.162,17.475,3.892,22.605,4.723
							c2.164,0.506,4.15,0.937,5.971,1.296c1.822,0.36,3.479,0.65,4.98,0.877c1.503,0.226,2.852,0.389,4.061,0.495
							c1.208,0.105,2.275,0.154,3.213,0.153c3.213-0.005,4.917-0.599,5.62-1.514c0.702-0.914,0.406-2.149-0.381-3.438
							c-0.786-1.286-2.062-2.627-3.318-3.756c-1.257-1.127-2.496-2.044-3.213-2.485c-0.228-0.141-0.541-0.307-0.931-0.496
							c-0.389-0.189-0.854-0.401-1.383-0.633c-0.529-0.232-1.125-0.484-1.773-0.753s-1.352-0.555-2.098-0.855
							c1.957,0.368,3.754,0.682,5.4,0.945c1.647,0.263,3.145,0.476,4.502,0.643s2.574,0.288,3.661,0.367
							c1.087,0.078,2.044,0.115,2.88,0.114c3.515-0.004,4.915-0.673,4.963-1.694c0.049-1.021-1.252-2.392-3.141-3.802
							c-1.885-1.408-4.355-2.856-6.653-4.033c-2.295-1.177-4.418-2.083-5.614-2.412c-1.314-0.361-3.662-1.201-6.521-2.289
							c-2.856-1.088-6.224-2.423-9.581-3.777c-3.354-1.354-6.697-2.727-9.517-3.893c-2.816-1.164-5.11-2.123-6.367-2.65
							c7.175-0.933,15.491-2.152,24.025-3.481c8.521-1.327,17.258-2.763,25.3-4.134c8.027-1.369,15.363-2.672,21.104-3.738
							c5.733-1.064,9.88-1.892,11.54-2.311c0.47,0.07,0.935,0.133,1.393,0.188c0.457,0.055,0.908,0.103,1.352,0.144
							c0.442,0.039,0.877,0.071,1.301,0.096c0.423,0.023,0.836,0.039,1.237,0.045c2.977,0.05,12.327,0.298,24.969,0.648
							c12.638,0.35,28.562,0.803,44.692,1.262c16.125,0.458,32.457,0.923,45.919,1.297c13.458,0.374,24.052,0.658,28.707,0.756
							c0.243,0.006,0.482,0.01,0.716,0.014c0.234,0.004,0.464,0.007,0.688,0.01c0.225,0.002,0.445,0.004,0.66,0.006
							c0.215,0.001,0.426,0.001,0.632,0.001c3.729-0.001,5.97-0.209,7.19-0.54s1.423-0.785,1.076-1.281
							c-0.346-0.495-1.24-1.032-2.213-1.527c-0.972-0.495-2.021-0.949-2.682-1.279c0.326,0.02,0.635,0.037,0.928,0.052
							c0.294,0.015,0.571,0.027,0.833,0.037s0.509,0.017,0.74,0.021s0.448,0.007,0.651,0.007c1.291,0,2.008-0.095,2.315-0.255
							c0.307-0.16,0.204-0.386-0.146-0.649s-0.947-0.564-1.628-0.875c-0.681-0.31-1.445-0.63-2.131-0.931
							c-2.125-0.752-10.72-1.695-22.971-2.717c-12.245-1.021-28.146-2.119-44.892-3.183c-16.741-1.063-34.33-2.09-49.956-2.968
							c-15.624-0.878-29.287-1.607-38.179-2.073c-0.216-0.022-0.432-0.044-0.646-0.064c-0.215-0.02-0.429-0.038-0.643-0.056
							c-0.213-0.018-0.425-0.034-0.636-0.049c-0.21-0.016-0.419-0.029-0.626-0.042c-3.734-0.222-12.132-0.853-22.789-1.691
							c-10.655-0.839-23.567-1.887-36.339-2.942c-12.767-1.056-25.392-2.12-35.482-2.995c-10.086-0.874-17.642-1.559-20.275-1.854
							c-10.819-0.703-20.844-2.05-30.032-3.739c-9.179-1.688-17.517-3.716-24.983-5.786c-7.455-2.067-14.041-4.177-19.732-6.031
							c-5.685-1.852-10.48-3.45-14.368-4.504c-3.887-1.053-8.759-2.638-14.032-4.49c-5.266-1.85-10.927-3.964-16.406-6.078
							c-5.469-2.111-10.755-4.223-15.286-6.073c-4.524-1.848-8.297-3.436-10.749-4.505c-2.449-1.068-5.223-2.286-8.146-3.572
							c-2.921-1.284-5.991-2.637-9.038-3.974c-3.044-1.336-6.064-2.656-8.891-3.881c-2.824-1.224-5.453-2.352-7.719-3.302
							c-5.165-2.494-11.463-5.447-18.146-8.507c-6.666-3.052-13.715-6.208-20.411-9.122c-6.679-2.907-13.011-5.574-18.269-7.659
							c-5.248-2.082-9.434-3.585-11.835-4.17c-4.356-1.438-8.705-2.587-12.993-3.502c-4.285-0.914-8.512-1.595-12.628-2.098
							c-4.114-0.502-8.118-0.826-11.959-1.027S118.809,330.674,115.349,330.665"/>
					</g>
				</g>
			</g>
		</g>
		<g>
			<path id="patted_19_" fill="#585663" d="M303.524,419.952c0,0-29.483,61.432-37.185,69.934
				c-7.702,8.504-14.28,14.836-27.416,15.098c-13.138,0.265-18.487,0.844-18.487,0.844s-6.74,4.138,0.242,4.565
				c6.983,0.429,15.055-0.767,15.055-0.767l-17.671,10.144l-8.373,2.729c0,0-5.884,6.089,2.16,4.531s39.438-15.875,39.438-15.875
				l-11.818,19.1c0,0-2.487,4.426-1.854,9.421c0.634,4.996-1.433,10.127,4.339,1.72c5.773-8.406,17.47-22.136,20.789-25.394
				s6.735-4.588,23.229-7.337s16.494-2.749,16.494-2.749s12.427-6.803-4.847-8.077c-12.751,0.244-27.77,5.435-27.77,5.435
				s42.934-70.243,44.482-78.055c1.547-7.812,1.583-7.091,1.583-7.091l-12.732,0.629L303.524,419.952z"/>
			<path id="patteg_20_" fill="#414049" d="M333.729,429.347c0,0-20.177,73.117-23.986,77.05
				c-0.747,4.605-3.889,11.923-16.832,11.659c-8.295-0.416-26.04-1.34-27.851,0.115c-1.814,1.457-6.444,5.075-0.321,6.35
				c5.807-0.094,18.992-0.792,21.99,1.097c0.125,1.36-29.331,10.318-35.168,10.992c-5.836,0.674-12.589,4.201-14.008,9.351
				c3.271,0.357,9.926-1.243,9.926-1.243s22.36-6.225,27.018-6.57c4.658-0.346,28.453-8.24,28.453-8.24s2.298,0.503,0.367,4.273
				c-1.93,3.771-10.104,16.315-10.182,21.727s0.346,8.526,0.346,8.526s1.125,8.373,7.215-1.185c3.966-9.663,3.708-12.19,3.708-12.19
				s6.137-14.389,8.982-17.146c2.846-2.757,1.411-8.824,23.006-15.279c7.477-2.526,13.072-6.113,13.072-6.113
				s3.359-9.113-7.678-5.026c-7.116,3.123-16.8,6.697-16.8,6.697s-6.762,4.237-3.866-3.354c2.895-7.588,23.601-80.938,23.601-80.938
				L333.729,429.347z"/>
			<path id="debut_patte_1_" fill="#1D2123" d="M299.872,403.837c0,0,14.349,5.979,17.537,22.319
				c3.189,7.972,15.544,29.493,28.298,9.167c5.58-6.775,7.972-11.316,3.188-21.999C344.113,402.642,331.756,388.692,299.872,403.837
				z"/>
			<path id="debut_patte" fill="#292E32" d="M269.98,396.663c0,0,14.349,5.979,17.537,22.319
				c3.188,7.972,15.544,29.493,28.298,9.167c5.58-6.775,7.972-11.316,3.189-22C314.222,395.468,301.864,381.519,269.98,396.663z"/>
			<path id="autre_aile" fill="#181B1C" d="M451.324,391.485c0,0,24.71,22.318,30.29,25.506c5.58,3.19,31.087,34.277-8.769,18.734
				c-14.746-6.378-66.159-45.436-54.203-48.227C430.6,384.708,448.614,389.052,451.324,391.485z"/>
			<path id="corps_17_" fill="#292E32" d="M65.521,147.17c0,0,5.082-1.195,11.658-10.163c7.771-8.968,19.13-11.358,33.777-11.956
				c14.647-0.599,42.446-5.082,69.647,14.049c9.864,5.081,48.425,42.147,68.751,63.37c8.968,8.07,23.614,22.12,33.18,31.087
				c9.565,8.968,39.756,35.272,55.001,43.941c15.244,8.668,43.94,35.272,87.283,40.951c10.463,2.392,99.539,17.338,114.485,19.131
				c14.946,1.794,35.571,17.337-1.794,27.8c-8.07,3.886-78.315,27.201-100.734,30.19c-7.473,1.195-87.583,8.668-92.664,9.267
				c-5.082,0.598-46.631,7.771-75.327-8.071c-8.669-1.794-23.913-7.771-30.788-9.864c-6.875-2.092-61.802-28.173-77.719-55.001
				c-5.082-4.483-32.582-34.973-37.664-63.071c-2.689-12.256-2.95-41.568-2.391-46.332c-0.199-3.189-10.762-29.396-43.044-44.538
				C74.788,178.258,44.299,160.621,65.521,147.17z"/>
			<path id="queue_21_" fill="#292E32" d="M531.034,336.883c0,0,157.031,15.942,166.197,23.116c2.791,2.791,7.175,6.377-2.391,5.182
				c2.391,2.79,11.16,9.963-7.572,9.166c-18.732-0.796-132.719-7.572-144.676-7.971S509.113,350.434,531.034,336.883z"/>
			<path id="aile_24_" fill="#1D2123" d="M217.372,212.136c0,0,115.184,66.158,143.48,106.015
				c15.544,13.152,44.638,44.637,53.008,56.196c1.992,2.79,12.354,13.949,15.145,15.942c2.79,1.993,16.342,15.542,19.529,22.319
				c3.188,6.774,27.5,24.311,30.688,28.695c3.188,4.384,17.536,33.08-18.333,15.942c-19.529-6.376-82.104-40.255-98.843-45.037
				s-121.955-60.183-144.675-91.667c-6.377-7.573-58.985-54.602-54.602-82.9C164.364,229.671,171.141,194.2,217.372,212.136z"/>
			<path id="bec_23_" fill="#585663" d="M75.088,140.396l-9.366,7.174c0,0-1.594,1.395,0.797,3.188
				c2.392,1.794,20.925,14.946,20.925,14.946s3.387,3.786-2.989,1.595c-1.594-0.199-6.775,4.582-2.191,9.166
				c0.598,0.997-0.82,1.992-5.492,1.196c-4.672-0.797-42.734-9.565-52.3-11.159c-2.191,0.199-3.388-0.996,0-2.989
				C27.859,161.519,60.143,141.989,75.088,140.396z"/>
			<circle id="contour_oeil_5_" fill="#585663" cx="98.402" cy="151.953" r="9.864"/>
			<radialGradient id="oeil_32_" cx="96.0107" cy="148.5654" r="11.4216" gradientUnits="userSpaceOnUse">
				<stop  offset="0" style="stop-color:#FFFFFF"/>
				<stop  offset="0.1386" style="stop-color:#D5D4D3"/>
				<stop  offset="0.2079" style="stop-color:#494340"/>
				<stop  offset="0.4393" style="stop-color:#28201D"/>
				<stop  offset="1" style="stop-color:#231B18"/>
			</radialGradient>
			<circle id="oeil_18_" fill="url(#oeil_32_)" cx="98.403" cy="151.953" r="8.071"/>
		</g>
	</g>
</g>
<g id="vireo_a_moustaches">
</g>
<g id="merle_quiscale">
</g>
<g id="paruline_jaune">
</g>
<g id="tyran_gris">
</g>
<g id="sporophile_cici">
</g>
<g id="tourterelle_à_queue_carree">
</g>
<g id="colobri_huppé">
</g>
<g id="cécerelle_d_x27_amerique">
</g>
<g id="heron_vert">
</g>
<g id="pic_de_la_guadeloupe">
</g>
<g id="héron_garde-boeufs">
</g>
<g id="photos">
</g>
<g id="solitaire_siffleur">
</g>
<g id="tyran_janeau">
</g>
<g id="colibri_fallevert">
</g>
<g id="colombe_a_queue_noire">
</g>
</svg>
