<?xml version="1.0" encoding="utf-8"?>
<!-- Generator: Adobe Illustrator 16.0.0, SVG Export Plug-In . SVG Version: 6.00 Build 0)  -->
<!DOCTYPE svg PUBLIC "-//W3C//DTD SVG 1.1//EN" "http://www.w3.org/Graphics/SVG/1.1/DTD/svg11.dtd">
<svg version="1.1" xmlns="http://www.w3.org/2000/svg" xmlns:xlink="http://www.w3.org/1999/xlink" x="0px" y="0px" width="732px"
	 height="692px" viewBox="0 0 732 692" enable-background="new 0 0 732 692" xml:space="preserve">
<g id="Calque_1" display="none">
	<rect x="182" y="655.121" display="inline" fill="none" width="415.59" height="37.879"/>
	<text transform="matrix(1 0 0 1 182 679.9707)" display="inline" font-family="'MyriadPro-Regular'" font-size="35">Sporophile rouge-gorge</text>
</g>
<g id="colombe_à_croissant">
</g>
<g id="colombe_rouviolette">
</g>
<g id="colibri_madere">
</g>
<g id="colibri_à_tête_bleue">
</g>
<g id="elenie_siffleuse">
</g>
<g id="grive_à_pieds_jaunes">
</g>
<g id="merle_à_lunette">
</g>
<g id="moucherolle_gobemouche">
</g>
<g id="moqueur_corossol">
</g>
<g id="moqueur_grivotte">
</g>
<g id="trembleur_brun">
</g>
<g id="trembleur_gris">
</g>
<g id="paruline_cafeite">
</g>
<g id="saltator_gros_bec">
</g>
<g id="soporophile_rouge-gorge">
	<g>
		<g opacity="0.3">
			<g>
				<g enable-background="new    ">
					<defs>
						<polygon id="SVGID_39_" enable-background="new    " points="7.156,583.044 9.412,317.451 644.385,319.318 724.844,580.653 
													"/>
					</defs>
					<clipPath id="SVGID_2_">
						<use xlink:href="#SVGID_39_"  overflow="visible"/>
					</clipPath>
					<g clip-path="url(#SVGID_2_)">
						<path fill="#959595" d="M542.389,319.019c-5.939-0.018-11.553,0.196-16.736,0.541c-5.188,0.345-9.947,0.821-14.172,1.33
							c-4.229,0.51-7.922,1.051-10.975,1.524c-3.055,0.475-5.465,0.881-7.125,1.119c-2.846,0.407-5.824,1.023-8.91,1.833
							c-3.09,0.811-6.287,1.816-9.568,3.003c-3.287,1.189-6.658,2.561-10.088,4.101c-3.436,1.543-6.932,3.256-10.463,5.126
							c-3.408,2.104-7.906,4.336-12.842,6.521c-4.949,2.191-10.338,4.335-15.512,6.256c-5.186,1.926-10.152,3.626-14.238,4.924
							c-4.09,1.299-7.293,2.193-8.941,2.504c-6.246,1.4-13.037,3.451-20.068,5.915c-7.053,2.472-14.352,5.36-21.584,8.428
							c-7.258,3.077-14.453,6.336-21.262,9.531c-6.832,3.206-13.275,6.348-19,9.176c-1.424,0.595-3.131,1.359-5.086,2.273
							c-1.957,0.916-4.164,1.982-6.588,3.18c-2.426,1.199-5.07,2.53-7.9,3.974c-2.834,1.446-5.854,3.005-9.025,4.656
							c-14.734,6.344-29.512,13.146-43.648,19.885c-14.238,6.786-27.82,13.506-40.025,19.615
							c-12.283,6.148-23.154,11.67-31.861,16.003c-8.746,4.352-15.287,7.493-18.865,8.857c-2.73,0.987-4.861,1.812-6.471,2.493
							c-1.611,0.682-2.699,1.221-3.35,1.636c-0.65,0.416-0.859,0.707-0.711,0.895s0.654,0.271,1.436,0.271
							c0.9,0,2.166-0.113,3.672-0.307s3.248-0.469,5.104-0.793c1.855-0.325,3.822-0.701,5.773-1.096s3.889-0.81,5.684-1.213
							c-0.889,0.458-1.701,0.873-2.432,1.241c-0.729,0.368-1.377,0.689-1.938,0.962c-0.563,0.271-1.035,0.493-1.416,0.662
							s-0.67,0.285-0.861,0.345c-0.98,0.378-1.887,0.753-2.727,1.123c-0.84,0.371-1.609,0.737-2.316,1.101
							c-0.707,0.362-1.348,0.721-1.93,1.075c-0.58,0.354-1.1,0.704-1.563,1.05c-5.793,1.794-12.344,3.824-19.047,5.905
							c-6.719,2.085-13.592,4.22-20.004,6.216c-6.424,2.001-12.383,3.861-17.256,5.39c-4.879,1.53-8.664,2.728-10.729,3.397
							c-3.152,1.022-8.896,3.138-15.822,5.77c-6.945,2.64-15.084,5.803-22.982,8.906c-7.924,3.114-15.604,6.168-21.582,8.568
							c-5.992,2.407-10.266,4.154-11.342,4.644c-0.789,0.357-1.523,0.79-2.129,1.237s-1.084,0.91-1.355,1.327
							c-0.271,0.418-0.338,0.791-0.125,1.059c0.215,0.269,0.711,0.432,1.564,0.43c0.314-0.001,0.678-0.023,1.094-0.072
							c0.414-0.048,0.881-0.122,1.404-0.224s1.102-0.232,1.74-0.394s1.336-0.354,2.098-0.581c-0.984,0.738-2.502,1.753-4.127,2.861
							c-1.627,1.11-3.363,2.313-4.777,3.425c-1.414,1.113-2.508,2.134-2.852,2.875c-0.342,0.742,0.068,1.205,1.66,1.201
							c0.371-0.001,0.809-0.026,1.314-0.081s1.084-0.137,1.734-0.248c0.652-0.112,1.379-0.255,2.188-0.43
							c0.807-0.175,1.695-0.383,2.67-0.625c4.715-1.173,14.109-4.098,26.205-8.003c12.049-3.89,26.752-8.744,42.168-13.802
							c15.336-5.032,31.373-10.264,46.229-14.958c14.781-4.671,28.412-8.814,39.066-11.713c0.713,0.051,1.5,0.095,2.355,0.133
							c0.855,0.037,1.777,0.068,2.758,0.093c0.982,0.025,2.025,0.044,3.121,0.058s2.244,0.021,3.439,0.024
							c0.541,0.008,1.088,0.015,1.639,0.021c0.553,0.006,1.109,0.426,1.67,0.43c0.561,0.003,1.125,0.423,1.693,0.423
							c0.57,0,1.143,0,1.719,0c6.107,0,12.633-0.54,19.182-0.718c6.545-0.178,13.113-0.626,19.311-0.876
							c6.193-0.252,12.018-0.618,17.078-0.845c5.059-0.226,9.355-0.469,12.502-0.573c0.668-0.011,1.332-0.047,1.99-0.055
							c0.656-0.008,1.309-0.026,1.953-0.032c0.646-0.006,1.285-0.018,1.918-0.021c0.635-0.003,1.262-0.007,1.883-0.008
							c9.408-0.01,17.475,0.246,24.381,0.645c6.904,0.398,12.648,0.936,17.408,1.484c4.762,0.551,8.537,1.111,11.5,1.555
							c2.965,0.444,5.115,0.771,6.625,0.85c2.836,0.123,5.609,0.23,8.324,0.32s5.371,0.163,7.971,0.221s5.141,0.1,7.627,0.126
							s4.918,0.038,7.297,0.034c0.684,0,1.361-0.002,2.035-0.006c0.674-0.003,1.344-0.007,2.01-0.013s1.328-0.013,1.984-0.021
							c0.658-0.007,1.311-0.016,1.959-0.026c2.398,3.966,5.127,8.466,7.922,13.054c2.807,4.606,5.68,9.301,8.35,13.623
							c2.68,4.339,5.15,8.3,7.137,11.412c1.992,3.121,3.494,5.385,4.225,6.318c0.506,0.645,0.828,1.173,1,1.603
							c0.174,0.43,0.197,0.76,0.109,1.01c-0.09,0.25-0.291,0.419-0.57,0.526c-0.281,0.107-0.639,0.151-1.037,0.152
							c-0.475,0.002-1.006-0.059-1.537-0.149s-1.063-0.213-1.535-0.335c-0.473-0.121-0.885-0.243-1.18-0.334
							c-0.295-0.092-0.473-0.153-0.473-0.153s-0.855-0.184-2.295-0.498c-1.441-0.314-3.465-0.761-5.805-1.284
							c-2.338-0.524-4.99-1.126-7.686-1.754c-2.693-0.628-5.432-1.282-7.943-1.909c-0.777-0.167-1.502-0.309-2.18-0.428
							c-0.676-0.118-1.305-0.214-1.889-0.288c-0.584-0.075-1.123-0.129-1.619-0.163c-0.496-0.035-0.951-0.051-1.369-0.05
							c-1.664,0.003-2.715,0.275-3.35,0.682c-0.637,0.406-0.861,0.947-0.877,1.487c-0.016,0.541,0.178,1.081,0.375,1.487
							c0.197,0.405,0.398,0.676,0.398,0.676s0.496,0.176,1.404,0.472c0.91,0.296,2.232,0.712,3.885,1.194
							c1.654,0.482,3.639,1.031,5.869,1.59c2.232,0.56,4.711,1.13,7.352,1.656c7.621,1.363,13.232,2.661,17.43,3.876
							c4.201,1.216,6.982,2.347,8.939,3.375c1.959,1.029,3.092,1.954,3.994,2.756s1.572,1.48,2.607,2.015
							c1.037,0.534,2.404,1.614,3.871,2.935c1.469,1.321,3.041,2.886,4.482,4.384c1.445,1.501,2.762,2.936,3.717,3.997
							s1.551,1.747,1.551,1.747s-0.014,0.118,0.063,0.41c0.076,0.291,0.242,0.758,0.602,1.454c0.359,0.697,0.912,1.626,1.762,2.843
							c0.85,1.218,2,2.726,3.551,4.581c0.857,0.69,1.645,1.262,2.369,1.731c0.723,0.47,1.381,0.837,1.98,1.117
							c0.6,0.281,1.141,0.475,1.627,0.599c0.488,0.123,0.92,0.177,1.307,0.175c0.65-0.002,1.164-0.158,1.568-0.393
							s0.699-0.545,0.914-0.855c0.215-0.312,0.348-0.621,0.426-0.854c0.08-0.232,0.105-0.388,0.105-0.388s0.025-0.146,0.057-0.428
							c0.031-0.283,0.066-0.702,0.088-1.249s0.029-1.221,0.002-2.014c-0.027-0.791-0.09-1.701-0.207-2.719
							c-0.115-1.017-0.973-2.382-2.238-3.904c-1.266-1.52-2.939-3.194-4.689-4.831c-1.746-1.634-3.57-3.229-5.139-4.595
							c-1.566-1.363-2.881-2.498-3.613-3.213c-0.732-0.712-1.082-1.266-1.193-1.694c-0.113-0.428,0.012-0.732,0.227-0.947
							s0.521-0.341,0.775-0.413c0.252-0.072,0.451-0.091,0.451-0.091s2.115,0.414,5.389,1.042c3.277,0.628,7.715,1.471,12.361,2.326
							c4.648,0.855,9.504,1.726,13.607,2.406c4.107,0.682,7.461,1.175,9.102,1.277c1.643,0.104,4.867,0.516,8.777,1.077
							c3.914,0.562,8.516,1.271,12.916,1.969c4.4,0.698,8.598,1.384,11.695,1.895s5.096,0.848,5.096,0.848s0.537,0.08,1.418,0.2
							s2.105,0.279,3.479,0.438c1.375,0.16,2.896,0.743,4.375,0.861c1.477,0.118,2.91,0.615,4.102,0.615c0.061,0,0.119,0,0.178,0
							c0.061,0,0.117-0.425,0.176-0.427c0.057,0,0.115-0.214,0.17-0.216c0.057,0,0.113-0.108,0.168-0.11
							c-0.615-0.972-1.688-1.932-3.08-2.754c-1.391-0.824-3.102-1.591-4.992-2.233c-1.891-0.641-3.963-1.195-6.076-1.619
							c-2.113-0.425-4.268-0.739-6.33-0.913c-2.061-0.174-6.232-0.783-11.33-1.61c-5.094-0.828-11.109-1.877-16.861-2.934
							c-5.748-1.056-11.232-2.121-15.273-2.984c-4.039-0.861-6.639-1.523-6.619-1.773c0.377-0.119,0.879-0.22,1.484-0.303
							c0.605-0.084,1.316-0.15,2.111-0.202c0.793-0.052,1.672-0.089,2.615-0.114c0.943-0.024,1.951-0.037,3.004-0.04
							c1.785-0.005,3.699,0.02,5.646,0.061s3.928,0.1,5.844,0.163c1.916,0.064,3.77,0.135,5.461,0.198
							c1.693,0.063,3.227,0.122,4.502,0.163c2.115-0.183,3.281-0.495,3.797-0.88c0.516-0.384,0.383-0.839-0.098-1.307
							c-0.479-0.467-1.305-0.946-2.176-1.38s-1.789-0.821-2.451-1.104c-0.631-0.27-2.527-0.469-5.205-0.617
							c-2.676-0.147-6.135-0.243-9.891-0.305s-7.811,0.078-11.68,0.068S436.119,545,433.105,545c-0.133,0-0.262,0-0.393,0
							c-0.129,0-0.256,0-0.383,0s-0.252,0-0.375,0s-0.246,0-0.365,0c-4.514,0-8.201-0.612-11.211-1.212
							c-3.01-0.598-5.344-1.491-7.152-2.399s-3.092-1.955-4.004-2.943s-1.455-1.981-1.779-2.823
							c-0.92-0.499-2.578-2.421-4.697-5.253c-2.113-2.826-4.682-6.569-7.434-10.731c-2.74-4.148-5.662-8.718-8.494-13.224
							c-2.822-4.487-5.557-8.916-7.943-12.818c3.16-0.145,6.211-0.32,9.158-0.521c2.945-0.2,5.785-0.428,8.529-0.68
							s5.391-0.527,7.947-0.823c2.555-0.297,5.021-0.614,7.404-0.951c4.676,3.536,11.295,8.254,18.611,13.354
							c7.35,5.124,15.41,10.638,22.908,15.725c7.531,5.109,14.49,9.784,19.576,13.188c5.1,3.414,8.305,5.542,8.305,5.542
							s-1.25-0.183-3.393-0.456s-5.178-0.638-8.748-1c-3.57-0.363-7.676-0.725-11.959-0.993s-8.748-0.443-13.037-0.434
							c-0.186,0-0.369,0.001-0.555,0.002s-0.369,0.002-0.553,0.004s-0.367,0.004-0.551,0.007s-0.367,0.005-0.549,0.009
							c-5.877,0.4-9.133,0.979-10.709,1.622c-1.576,0.645-1.473,1.353-0.633,2.012s2.418,1.269,3.787,1.714
							c1.367,0.444,2.525,0.725,2.525,0.725s0,0,0.365,0.021c0.363,0.021,1.094,0.063,2.551,0.148s3.645,0.213,6.926,0.403
							c3.279,0.191,7.654,0.445,13.486,0.785c5.832,0.338,10.518,0.645,14.35,0.948s6.809,0.605,9.221,0.936
							c2.414,0.33,4.264,0.688,5.842,1.104c1.576,0.417,2.883,0.892,4.207,1.456c1.326,0.563,3.521,1.588,6.225,2.899
							c2.705,1.314,5.92,2.917,9.281,4.639c3.365,1.723,6.879,3.564,10.176,5.352c3.301,1.789,6.383,3.523,8.877,5.028
							c0.953,0.574,1.779,1.06,2.492,1.465c0.715,0.406,1.316,0.731,1.82,0.984c0.504,0.254,0.91,0.436,1.236,0.554
							c0.324,0.117,0.568,0.172,0.746,0.172c0.285-0.001,0.398-0.146,0.404-0.4c0.004-0.254-0.098-0.615-0.242-1.05
							s-0.33-0.94-0.492-1.482c-0.16-0.542-0.297-1.12-0.342-1.698c-0.078-0.935-0.416-1.834-0.881-2.657
							c-0.463-0.822-1.053-1.568-1.633-2.198c-0.58-0.629-1.15-1.142-1.574-1.497c-0.426-0.354-0.705-0.553-0.705-0.553
							l-20.693-13.557c0,0,2.902,0.576,7.436,1.454c4.537,0.878,10.709,2.058,17.244,3.264c6.539,1.208,13.441,2.441,19.428,3.426
							c5.99,0.984,11.061,1.719,13.926,1.925c0.26,0.019,0.51,0.035,0.748,0.048c0.24,0.014,0.469,0.025,0.688,0.033
							c0.219,0.009,0.426,0.016,0.625,0.02s0.387,0.006,0.566,0.005c1.793-0.005,2.641-0.228,2.904-0.559
							c0.262-0.331-0.059-0.771-0.604-1.21c-0.545-0.438-1.313-0.877-1.945-1.205c-0.631-0.328-1.127-0.547-1.127-0.547
							l-12.178-1.665l-26.688-6.711c0,0,0.324,0.016,0.906,0.039s1.424,0.055,2.461,0.086c1.037,0.03,2.27,0.061,3.637,0.082
							c1.365,0.022,2.863,0.035,4.432,0.031c0.758-0.002,1.531-0.008,2.313-0.019c0.783-0.01,1.574-0.025,2.367-0.047
							s1.588-0.048,2.379-0.081c0.789-0.034,1.574-0.074,2.346-0.122c2.367-0.146,3.504-0.428,3.875-0.768s-0.02-0.736-0.707-1.115
							s-1.672-0.739-2.482-1.005s-1.449-0.437-1.449-0.437s-0.17-0.005-0.52-0.011c-0.35-0.007-0.879-0.016-1.6-0.023
							s-1.631-0.016-2.744-0.021s-2.428-0.007-3.953-0.003c-1.006,0.002-2.105,0.007-3.299,0.015s-2.482,0.019-3.871,0.033
							c-1.387,0.014-2.873,0.032-4.461,0.055c-1.588,0.023-3.277,0.05-5.072,0.082c-0.139,0.003-0.275,0.005-0.412,0.007
							c-0.139,0.002-0.275,0.004-0.412,0.005c-0.137,0.002-0.271,0.003-0.408,0.004c-0.135,0-0.27,0.001-0.404,0.002
							c-4.271,0.01-8.115-0.248-11.662-0.728c-3.549-0.479-6.801-1.182-9.895-2.063c-3.092-0.88-6.025-1.938-8.938-3.131
							c-2.908-1.191-5.797-2.517-8.799-3.931c-2.279-1.074-5.951-3.409-10.42-6.498c-4.455-3.08-9.697-6.906-15.131-10.976
							c-5.414-4.056-11.018-8.351-16.229-12.394c-5.193-4.028-10.002-7.808-13.854-10.855c5.816-1.175,11.113-2.452,16.064-3.772
							c4.943-1.318,9.543-2.68,13.975-4.025c4.426-1.343,8.684-2.671,12.951-3.923c4.262-1.252,8.533-2.428,12.992-3.473
							c8.791-2.057,17.982-5.11,26.852-8.551c8.836-3.429,17.348-7.24,24.838-10.837c7.461-3.584,13.912-6.957,18.674-9.536
							c4.748-2.572,7.826-4.359,8.561-4.781c2.916-1.394,5.564-2.996,7.943-4.672c2.375-1.673,4.482-3.418,6.318-5.104
							c1.832-1.682,3.396-3.305,4.691-4.734c1.295-1.427,2.318-2.663,3.076-3.576c0.754-0.912,2.236-3.137,4.033-5.955
							c1.791-2.811,3.891-6.207,5.891-9.48c1.992-3.264,3.887-6.404,5.281-8.726c1.391-2.315,2.285-3.819,2.285-3.819
							c-0.041-0.373-0.076-0.742-0.105-1.108c-0.031-0.367-0.057-0.73-0.078-1.092c-0.021-0.36-0.039-0.719-0.053-1.073
							c-0.014-0.355-0.023-0.708-0.029-1.057c0.676-4.165,1.643-8.125,2.775-11.804c1.129-3.665,2.422-7.052,3.756-10.085
							c1.33-3.024,2.703-5.699,3.998-7.948c1.289-2.244,2.502-4.067,3.516-5.395l-0.102-0.004c0.023-0.032,0.049-0.063,0.074-0.096
							c0.023-0.031,0.049-0.063,0.074-0.095s0.049-0.063,0.074-0.094s0.049-0.063,0.074-0.093c3.447-0.153,6.734-0.425,9.754-0.764
							c3.02-0.338,5.771-0.742,8.154-1.162c2.381-0.419,4.393-0.854,5.93-1.252c1.535-0.397,2.6-0.76,3.086-1.034
							c0.75-0.423,1.572-0.671,2.428-0.828c0.854-0.157,1.742-0.223,2.623-0.278s1.754-0.102,2.582-0.221
							c0.826-0.118,1.605-0.31,2.299-0.655c-3.973-2.867-8.623-5.363-13.498-7.519c-4.865-2.151-9.961-3.965-14.834-5.471
							c-4.869-1.504-9.52-2.702-13.504-3.623c-3.98-0.921-7.301-1.565-9.506-1.962c-0.232-0.121-0.459-0.235-0.68-0.343
							c-0.221-0.106-0.438-0.207-0.646-0.3s-0.41-0.178-0.605-0.256c-0.195-0.077-0.381-0.147-0.561-0.209
							c-5.018-1.541-10.01-2.816-14.938-3.863c-4.922-1.047-9.785-1.865-14.549-2.494c-4.764-0.628-9.432-1.066-13.969-1.35
							C551.033,319.161,546.627,319.031,542.389,319.019"/>
					</g>
				</g>
			</g>
		</g>
		<g>
			<path id="patted_16_" fill="#393B3D" d="M437.893,422.19c0,0,43.422,79.968,54.264,90.813
				c10.844,10.845,20.043,18.813,37.598,18.298c17.557-0.516,24.738-0.122,24.738-0.122s9.273,5.068-0.023,6.101
				c-9.293,1.033-20.148-0.036-20.148-0.036l24.262,12.373l11.359,3.089c0,0,8.258,7.74-2.586,6.194
				c-10.844-1.552-53.697-18.593-53.697-18.593l17.037,24.72c0,0,3.613,5.74,3.1,12.455c-0.518,6.711,2.58,13.424-5.682,2.581
				c-8.264-10.845-24.785-28.398-29.43-32.53c-4.648-4.129-9.297-5.681-31.498-8.259c-22.203-2.583-22.203-2.583-22.203-2.583
				s-17.037-8.26,5.938-11.101c17.041-0.517,37.434,5.419,37.434,5.419s-61.959-90.748-64.541-101.071
				c-2.582-10.328-2.582-9.169-2.582-9.169h17.039L437.893,422.19z"/>
			<path id="patteg_17_" fill="#434549" d="M390.766,421.031c0,0,22.029,98.965,26.848,104.474
				c0.691,6.196,4.391,16.176,21.689,16.695c11.102,0,34.854-0.044,37.176,2.02c2.324,2.066,8.262,7.208,0,8.499
				c-7.746-0.517-25.299-2.333-29.432-0.012c-0.258,1.809,38.467,15.744,46.213,17.035c7.746,1.29,16.525,6.451,18.072,13.422
				c-4.389,0.259-13.166-2.326-13.166-2.326s-29.434-9.81-35.629-10.585c-6.195-0.772-37.434-12.908-37.434-12.908
				s-3.1,0.517-0.773,5.679c2.32,5.164,12.393,22.462,12.135,29.69c-0.258,7.229-1.035,11.357-1.035,11.357
				s-2.066,11.102-9.551-2.064c-4.648-13.165-4.131-16.521-4.131-16.521s-7.229-19.621-10.844-23.494
				c-3.615-3.872-1.289-11.874-29.688-21.942c-9.813-3.873-17.041-9.039-17.041-9.039s-3.875-12.391,10.586-6.196
				c9.293,4.649,21.98,10.07,21.98,10.07s8.742,6.11,5.385-4.218c-3.355-10.324-26.076-109.635-26.076-109.635H390.766z"/>
			<path id="queue_18_" fill="#333333" d="M198.736,405.439c0,0-74.605,44.458-86.869,52.122
				c-12.264,7.665-64.896,48.034-68.984,51.611s-6.645,11.242,4.088,5.109c-4.6,6.643-21.463,25.55-2.045,16.353
				c19.42-9.198,123.152-78.694,158.922-94.536c35.77-15.84-3.066-30.659-3.066-30.659"/>
			<path id="corps_14_" fill="#333333" d="M644.33,244.986c0,0-21.803,50.758-25.891,58.253
				c-4.09,7.496-13.967,25.551-27.254,36.793c-3.406,3.406-50.42,50.757-87.211,66.769c-36.793,16.013-63.365,48.034-160.113,39.518
				c-6.473-0.682-24.525-10.562-70.176-8.518c-6.816,0.682-66.428,5.792-81.078,3.065c-8.176,2.727-32.363-11.923-6.133-31.34
				c6.813-4.089,139.334-145.465,167.609-168.29c25.209-23.845,63.359-58.593,90.613-70.856
				c7.154-2.726,42.244-25.891,58.596-44.627c16.693-16.693,32.363-27.934,44.969-31.681c12.605-3.748,65.066-25.55,112.42,7.494
				c6.475,5.109,21.633,35.258,12.775,52.291C665.963,169.529,648.418,197.291,644.33,244.986z"/>
			<path id="tache_oeil_1_" fill="#8F1D00" d="M611.967,93.729c0,0,10.563,6.814,16.354,2.044c0.338-2.385,7.494-2.727,11.24,10.9
				c1.363,4.089-5.789,13.628-16.352,6.813c1.023-4.769-1.361-9.878-8.176-8.687c-2.045,0.853-4.428-0.167-7.154-5.96
				C607.195,97.135,606.807,91.221,611.967,93.729z"/>
			<path id="aile_19_" fill="#232323" d="M427.668,205.469c0,0,94.701-38.154,136.945,28.616
				c17.035,24.527-53.824,78.353-76.988,87.211c-23.166,8.856-115.826,50.418-160.113,47.013
				c-44.287,10.9-104.924,23.846-126.729,31.34c-8.176,4.769-47.693,20.44-18.396,0
				C205.553,382.616,354.766,221.821,427.668,205.469z"/>
			<path id="gorge" fill="#8F1D00" d="M671.611,157.958c0,0-23.705-0.865-28.814-0.354c-5.111,0.511-4.088,4.088-8.176,10.22
				c-4.088,6.133-16.352,15.841-21.463,27.595c-17.426,28.661-9.176,37.911,8.178,40.88c9.197,3.577,15.324,0.512,22.994,8.688
				C651.664,203.938,671.611,157.958,671.611,157.958z"/>
			<radialGradient id="oeil_32_" cx="601.748" cy="111.7832" r="16.762" gradientUnits="userSpaceOnUse">
				<stop  offset="0" style="stop-color:#FFFFFF"/>
				<stop  offset="0.1386" style="stop-color:#D5D4D3"/>
				<stop  offset="0.2079" style="stop-color:#494340"/>
				<stop  offset="0.3663" style="stop-color:#28201D"/>
				<stop  offset="1" style="stop-color:#231B18"/>
			</radialGradient>
			<circle id="oeil_16_" fill="url(#oeil_32_)" cx="599.362" cy="115.872" r="11.923"/>
			<path id="sous-queue" fill="#8F1D00" d="M192.395,440.655c0,0,63.83-32.405,67.918-34.96
				c10.986-2.555,38.58,17.118,17.893,31.941C262.102,438.655,215.09,444.021,192.395,440.655z"/>
			<path id="bec_20_" fill="#434549" d="M660.002,102.928c0,0,36.111,11.581,52.121,42.24c-3.408,3.066-7.494,0.684-11.242,4.431
				c-3.748,3.746-32.025,14.988-54.848,6.813c-4.09-1.703-0.342-9.198-9.199-14.309c-3.404-0.681,1.363-4.427,2.387-5.449
				c1.021-1.022,19.076-16.352,24.186-16.352c2.385-1.022,1.361-7.154-3.066-12.265
				C658.979,107.016,655.574,103.949,660.002,102.928z"/>
		</g>
	</g>
</g>
<g id="sucrier_à_ventre_jaune">
</g>
<g id="vachet_luisant">
</g>
<g id="vireo_a_moustaches">
</g>
<g id="merle_quiscale">
</g>
<g id="paruline_jaune">
</g>
<g id="tyran_gris">
</g>
<g id="sporophile_cici">
</g>
<g id="tourterelle_à_queue_carree">
</g>
<g id="colobri_huppé">
</g>
<g id="cécerelle_d_x27_amerique">
</g>
<g id="heron_vert">
</g>
<g id="pic_de_la_guadeloupe">
</g>
<g id="héron_garde-boeufs">
</g>
<g id="photos">
</g>
<g id="solitaire_siffleur">
</g>
<g id="tyran_janeau">
</g>
<g id="colibri_fallevert">
</g>
<g id="colombe_a_queue_noire">
</g>
</svg>
