<?xml version="1.0" encoding="utf-8"?>
<!-- Generator: Adobe Illustrator 16.0.0, SVG Export Plug-In . SVG Version: 6.00 Build 0)  -->
<!DOCTYPE svg PUBLIC "-//W3C//DTD SVG 1.1//EN" "http://www.w3.org/Graphics/SVG/1.1/DTD/svg11.dtd">
<svg version="1.1" xmlns="http://www.w3.org/2000/svg" xmlns:xlink="http://www.w3.org/1999/xlink" x="0px" y="0px" width="732px"
	 height="692px" viewBox="0 0 732 692" enable-background="new 0 0 732 692" xml:space="preserve">
<g id="Calque_1" display="none">
	<rect x="228.961" y="630.896" display="inline" fill="none" width="415.59" height="37.878"/>
	<text transform="matrix(1 0 0 1 228.9609 655.7461)" display="inline" font-family="'MyriadPro-Regular'" font-size="35">Merle à lunette</text>
</g>
<g id="colombe_à_croissant">
</g>
<g id="colombe_rouviolette">
</g>
<g id="colibri_madere">
</g>
<g id="colibri_à_tête_bleue">
</g>
<g id="elenie_siffleuse">
</g>
<g id="grive_à_pieds_jaunes">
</g>
<g id="merle_à_lunette">
	<g>
		<g opacity="0.3">
			<g>
				<g enable-background="new    ">
					<defs>
						<polygon id="SVGID_20_" enable-background="new    " points="10.134,597.505 6.185,322.793 648.416,324.475 725.815,595.413 
													"/>
					</defs>
					<clipPath id="SVGID_2_">
						<use xlink:href="#SVGID_20_"  overflow="visible"/>
					</clipPath>
					<g clip-path="url(#SVGID_2_)">
						<path fill="#959595" d="M137.732,323.137c-7.751-0.021-14.953,0.51-21.563,1.41c-6.618,0.901-12.647,2.172-18.043,3.633
							c-5.404,1.463-10.174,3.117-14.262,4.777c-4.094,1.664-7.504,3.334-10.177,4.827c-0.178-0.021-0.363-0.041-0.553-0.06
							c-0.191-0.019-0.388-0.037-0.59-0.054c-0.203-0.017-0.412-0.032-0.626-0.046s-0.435-0.027-0.661-0.039
							c-0.762-0.037-1.864-0.116-3.25-0.213s-3.055-0.214-4.951-0.326s-4.018-0.22-6.309-0.302
							c-2.292-0.082-4.753-0.137-7.328-0.143c-3.487-0.008-7.183,0.074-10.946,0.302c-3.764,0.228-7.596,0.603-11.356,1.18
							c-3.763,0.578-7.455,1.358-10.936,2.4c-3.484,1.042-6.759,2.346-9.683,3.967c0.655,0.227,4.496,0.584,10.16,1.093
							c5.665,0.508,13.156,1.165,21.11,1.996c7.958,0.832,16.382,1.834,23.914,3.029c7.537,1.197,14.183,2.588,18.575,4.194
							c0.09-0.043,0.179-0.089,0.267-0.135c0.088-0.046,0.175-0.093,0.261-0.141c0.086-0.047,0.171-0.095,0.253-0.145
							c0.083-0.048,0.165-0.097,0.243-0.145l0.064,0.049l0.078,1.728c0,0,2.298,0.999,5.789,2.884
							c3.497,1.889,8.194,4.666,12.987,8.225c4.807,3.568,9.717,7.926,13.615,12.964c3.914,5.058,6.813,10.808,7.564,17.14
							c0.321,2.237,1.485,5.515,3.482,9.401c2.002,3.899,4.844,8.416,8.514,13.114c3.684,4.715,8.203,9.612,13.542,14.25
							c5.359,4.652,11.541,9.039,18.526,12.705c7.005,3.675,16.241,8.097,27.602,12.689c11.397,4.606,24.935,9.385,40.492,13.746
							c15.602,4.374,33.223,8.324,52.712,11.252c19.521,2.932,40.881,4.834,63.896,5.104c0.435,0.004,0.867,0.008,1.297,0.012
							c0.43,0.003,0.858,0.008,1.284,0.011c0.426,0.004,0.849,0.009,1.271,0.012c0.422,0.004,0.842,0.007,1.262,0.012
							c-1.663,1.81-5.045,5.476-9.351,10.054c-4.322,4.596-9.582,10.118-14.967,15.609c-5.409,5.517-10.944,11-15.771,15.467
							c-4.844,4.483-8.967,7.936-11.516,9.356c-2.742,1.53-5.392,2.968-8.115,4.262c-2.726,1.296-5.524,2.449-8.56,3.413
							c-3.039,0.963-6.314,1.354-9.991,1.887c-3.679,0.535-7.759,0.457-12.405,0.457c-0.146,0-0.293,0-0.441,0
							c-0.147,0-0.295,0.383-0.444,0.38c-0.149,0-0.298,0.192-0.448,0.19s-0.3,0.092-0.452,0.089
							c-1.885-0.024-3.665,0.003-5.339-0.013c-1.676-0.018-3.248-0.004-4.72-0.013c-1.472-0.009-2.844-0.003-4.119-0.006
							c-1.274-0.003-2.453,0.005-3.537,0.006c-1.759,0.005-3.271,0.017-4.549,0.027c-1.279,0.012-2.323,0.025-3.148,0.039
							c-0.825,0.013-1.43,0.028-1.829,0.037s-0.591,0.017-0.591,0.017s-0.634,0.188-1.42,0.478
							c-0.787,0.291-1.727,0.683-2.337,1.095c-0.611,0.412-0.893,0.841-0.363,1.205c0.529,0.363,1.871,0.661,4.506,0.808
							c0.862,0.048,1.735,0.088,2.611,0.12c0.876,0.032,1.756,0.058,2.632,0.076c0.875,0.019,1.746,0.031,2.605,0.039
							c0.859,0.009,1.707,0.011,2.534,0.009c1.703-0.004,3.324-0.024,4.798-0.054c1.474-0.03,2.8-0.068,3.913-0.105
							c1.112-0.038,2.013-0.074,2.635-0.103c0.622-0.028,0.966-0.047,0.966-0.047l-26.606,7.349l-12.666,1.856
							c0,0-0.461,0.236-1.03,0.594c-0.569,0.355-1.247,0.83-1.681,1.306c-0.434,0.475-0.624,0.949-0.216,1.304
							c0.408,0.354,1.414,0.589,3.37,0.585c0.196,0,0.401-0.004,0.617-0.008c0.215-0.006,0.44-0.014,0.676-0.024
							s0.481-0.024,0.737-0.04s0.523-0.034,0.801-0.056c3.048-0.237,8.305-1.053,14.471-2.144c6.16-1.088,13.222-2.449,19.897-3.78
							c6.666-1.328,12.944-2.625,17.554-3.59c4.605-0.964,7.546-1.596,7.546-1.596l-17.555,14.652c0,0-0.232,0.214-0.565,0.597
							c-0.332,0.384-0.765,0.938-1.166,1.616c-0.401,0.679-0.77,1.481-0.975,2.367c-0.205,0.886-0.245,1.853,0.013,2.855
							c0.16,0.62,0.221,1.241,0.243,1.823c0.022,0.584,0.004,1.129,0.006,1.596c0.001,0.467,0.022,0.855,0.12,1.128
							s0.274,0.428,0.585,0.427c0.193,0,0.438-0.061,0.748-0.188c0.31-0.129,0.686-0.326,1.141-0.602
							c0.455-0.275,0.989-0.628,1.616-1.067c0.626-0.44,1.346-0.967,2.172-1.588c2.165-1.627,4.882-3.504,7.817-5.441
							c2.931-1.935,6.077-3.929,9.105-5.795c3.024-1.862,5.931-3.6,8.389-5.021c2.456-1.42,4.465-2.528,5.699-3.14
							c1.229-0.61,2.472-1.127,4.03-1.582c1.559-0.454,3.433-0.848,5.928-1.214c2.495-0.366,5.609-0.705,9.646-1.05
							c4.036-0.346,8.994-0.697,15.176-1.09c6.18-0.392,10.813-0.686,14.286-0.905c3.472-0.221,5.786-0.367,7.329-0.464
							c1.542-0.099,2.313-0.146,2.698-0.172c0.386-0.024,0.386-0.024,0.386-0.024s1.149-0.305,2.466-0.787
							c1.315-0.482,2.798-1.142,3.469-1.851c0.67-0.708,0.528-1.467-1.403-2.148c-1.931-0.681-5.649-1.286-12.136-1.687
							c-0.199-0.003-0.398-0.005-0.598-0.007c-0.2-0.003-0.4-0.634-0.6-0.636c-0.201,0-0.401-0.633-0.603-0.633
							c-0.201,0-0.402,0-0.604,0c-4.632,0-9.389,0.848-13.92,1.154c-4.532,0.307-8.84,1.029-12.57,1.434
							c-3.731,0.405-6.885,0.968-9.105,1.271c-2.222,0.304-3.51,0.583-3.51,0.583s3.908-3.288,9.782-8.357
							c5.85-5.048,13.633-11.788,21.436-18.696c7.758-6.868,15.535-13.869,21.474-19.511c5.912-5.615,10.017-9.881,10.496-11.323
							c0.102-0.301,0.197-0.584,0.288-0.851s0.176-0.515,0.256-0.751c0.081-0.235,0.157-0.454,0.229-0.66
							c0.072-0.207,0.14-0.397,0.205-0.577c3.659,0.053,7.11,0.106,10.348,0.158c3.238,0.051,6.264,0.099,9.073,0.143
							c2.81,0.042,5.403,0.08,7.776,0.107c2.374,0.028,4.527,0.048,6.457,0.054c-0.729,2.7-2.007,7.381-3.583,12.943
							c-1.583,5.588-3.469,12.075-5.402,18.335c-1.943,6.291-3.933,12.353-5.705,17.025c-1.779,4.689-3.334,7.972-4.395,8.672
							c-0.046,0.903-0.28,1.945-0.909,3.006c-0.628,1.062-1.651,2.143-3.273,3.122c-1.624,0.979-3.846,1.874-6.874,2.528
							c-3.029,0.656-6.863,1.191-11.706,1.191c-0.113,0-0.227,0-0.343,0c-0.115,0-0.232,0-0.351,0c-0.118,0-0.237,0-0.357,0
							s-0.241,0-0.363,0c-3.238,0-7.221,0.002-11.41,0.029c-4.19,0.029-8.586,0.07-12.652,0.154
							c-4.066,0.085-7.802,0.2-10.667,0.373c-2.867,0.173-4.865,0.396-5.454,0.689c-0.614,0.303-1.467,0.723-2.254,1.189
							c-0.788,0.469-1.508,0.986-1.86,1.489c-0.351,0.504-0.33,0.992,0.366,1.402c0.697,0.409,2.07,0.741,4.424,0.927
							c1.365-0.053,3.001-0.125,4.808-0.202c1.807-0.078,3.785-0.164,5.833-0.242c2.048-0.08,4.166-0.151,6.254-0.206
							s4.146-0.09,6.075-0.094c1.137-0.003,2.229,0.006,3.254,0.027c1.026,0.022,1.987,0.057,2.861,0.108
							c0.875,0.051,1.663,0.118,2.346,0.204c0.682,0.087,1.258,0.191,1.707,0.317c0.113,0.268-2.451,0.988-6.498,1.933
							c-4.051,0.944-9.589,2.113-15.417,3.273c-5.835,1.162-11.96,2.316-17.172,3.229c-5.216,0.914-9.514,1.587-11.682,1.783
							c-2.169,0.198-4.393,0.54-6.527,1.007c-2.137,0.467-4.185,1.059-6.001,1.757c-1.817,0.697-3.404,1.501-4.614,2.391
							c-1.211,0.891-2.047,1.868-2.361,2.913c0.061,0.001,0.122,0.004,0.184,0.005c0.063,0.001,0.125-0.729,0.188-0.729
							c0.063,0,0.127-0.729,0.192-0.729c0.065,0,0.13,0,0.196,0c1.292,0,2.816,0.636,4.374,0.501s3.149,0.05,4.58-0.128
							c1.43-0.18,2.699-0.174,3.609-0.308c0.91-0.134,1.463-0.132,1.463-0.132s2.042-0.327,5.211-0.893
							c3.168-0.566,7.462-1.302,11.97-2.074c4.504-0.772,9.223-1.547,13.248-2.17c4.022-0.623,7.354-1.075,9.09-1.194
							c1.736-0.12,5.18-0.665,9.367-1.416c4.185-0.752,9.109-1.706,13.813-2.646c4.699-0.938,9.179-1.859,12.481-2.549
							c3.301-0.688,5.428-1.142,5.428-1.142s0.221,0.02,0.519,0.095c0.298,0.076,0.673,0.209,0.981,0.437
							c0.309,0.229,0.55,0.553,0.581,1.012c0.031,0.458-0.149,1.051-0.685,1.817c-0.533,0.767-1.542,1.985-2.742,3.449
							c-1.201,1.466-2.593,3.18-3.891,4.933c-1.3,1.756-2.504,3.554-3.324,5.183c-0.822,1.633-1.259,3.095-1.022,4.181
							c0.24,1.087,0.499,2.058,0.752,2.901c0.253,0.845,0.5,1.563,0.717,2.146s0.404,1.03,0.537,1.331
							c0.133,0.302,0.212,0.456,0.212,0.456s0.083,0.166,0.251,0.413s0.422,0.578,0.764,0.907c0.342,0.33,0.771,0.66,1.29,0.906
							c0.519,0.247,1.127,0.411,1.828,0.408c0.415-0.001,0.862-0.061,1.342-0.195c0.479-0.135,0.991-0.345,1.536-0.647
							c0.545-0.304,1.122-0.699,1.732-1.204c0.61-0.504,1.253-1.118,1.929-1.86c1.009-1.987,1.708-3.602,2.189-4.905
							s0.745-2.298,0.883-3.044c0.138-0.746,0.15-1.244,0.128-1.556c-0.022-0.313-0.079-0.438-0.079-0.438s0.395-0.734,1.046-1.873
							c0.65-1.137,1.555-2.676,2.574-4.284c1.019-1.607,2.151-3.284,3.26-4.702c1.108-1.418,2.193-2.577,3.117-3.152
							c0.924-0.574,1.404-1.301,2.088-2.161c0.685-0.859,1.573-1.853,3.312-2.96c1.737-1.107,4.323-2.329,8.402-3.648
							c4.073-1.318,9.635-2.731,17.325-4.225c2.642-0.572,5.095-1.193,7.286-1.801c2.19-0.606,4.121-1.2,5.721-1.722
							c1.6-0.522,2.869-0.973,3.738-1.293c0.87-0.319,1.339-0.508,1.339-0.508s0.12-0.289,0.188-0.723s0.083-1.011-0.124-1.587
							c-0.208-0.577-0.638-1.152-1.462-1.583c-0.825-0.431-2.042-0.716-3.827-0.712c-0.446,0-0.928,0.019-1.448,0.058
							c-0.52,0.04-1.079,0.1-1.677,0.183c-0.599,0.082-1.239,0.186-1.923,0.316c-0.684,0.129-1.411,0.285-2.185,0.466
							c-2.472,0.681-5.175,1.39-7.841,2.072c-2.668,0.682-5.298,1.336-7.62,1.907c-2.323,0.569-4.337,1.055-5.771,1.397
							c-1.434,0.343-2.287,0.543-2.287,0.543s-0.168,0.066-0.453,0.164c-0.284,0.1-0.685,0.231-1.148,0.364
							c-0.464,0.132-0.992,0.265-1.531,0.363c-0.539,0.1-1.089,0.166-1.598,0.168c-0.43,0.001-0.831-0.045-1.17-0.158
							c-0.339-0.113-0.617-0.293-0.802-0.56s-0.276-0.619-0.243-1.079c0.033-0.459,0.19-1.025,0.504-1.716
							c0.638-1.397,1.967-5.576,3.627-11.152c1.653-5.551,3.631-12.475,5.58-19.413c1.938-6.9,3.847-13.813,5.386-19.422
							c1.532-5.586,2.7-9.892,3.169-11.626c0.603-0.053,1.265-0.1,1.982-0.142s1.49-0.078,2.315-0.108
							c0.825-0.03,1.702-0.053,2.628-0.069s1.901-0.025,2.921-0.026c2.961-0.002,6.307,0.064,9.955,0.221
							c3.648,0.157,7.6,0.403,11.775,0.76c4.175,0.357,8.575,0.826,13.118,1.427c4.544,0.601,9.234,1.334,13.987,2.223
							c1.468,0.365,3.12,0.759,4.933,1.175c1.812,0.415,3.783,0.854,5.888,1.31c2.105,0.458,4.345,0.933,6.691,1.424
							c2.348,0.489,4.803,0.994,7.34,1.51c2.897,1.621,8.249,4.619,14.819,8.308c6.588,3.697,14.408,8.092,22.208,12.49
							c7.826,4.412,15.631,8.825,22.144,12.535c6.529,3.717,11.752,6.723,14.377,8.298c2.968,1.785,7.033,4.231,11.554,6.926
							c4.53,2.699,9.521,5.647,14.327,8.426c4.815,2.785,9.444,5.399,13.233,7.42c3.794,2.022,6.744,3.448,8.189,3.852
							c1.087,0.504,2.047,0.889,3.109,1.195c1.062,0.306,2.224,0.533,3.711,0.721c1.488,0.188,3.303,0.338,5.671,0.488
							c2.367,0.151,5.287,0.304,8.986,0.497c0.925,0.049,1.999,0.089,3.198,0.122c1.199,0.032,2.524,0.059,3.954,0.076
							c1.429,0.02,2.961,0.031,4.575,0.038s3.31,0.008,5.063,0.004c4.642-0.012,9.7-0.058,14.762-0.122
							c5.061-0.063,10.127-0.146,14.788-0.231c4.661-0.086,8.917-0.174,12.361-0.25c3.442-0.076,6.074-0.14,7.485-0.174
							c0.16,0.064,0.307,0.124,0.442,0.177c0.135,0.054,0.259,0.101,0.369,0.143c0.11,0.041,0.208,0.077,0.292,0.106
							c0.083,0.03,0.155,0.054,0.211,0.071c0.927-0.104,1.304-0.46,1.348-0.937c0.043-0.475-0.246-1.069-0.651-1.65
							c-0.405-0.58-0.926-1.147-1.345-1.57c-0.418-0.423-0.737-0.7-0.737-0.7s-2.503-1.407-6.363-3.567
							c-3.854-2.155-9.057-5.058-14.467-8.054c-5.398-2.991-11.003-6.073-15.687-8.604c-4.675-2.526-8.436-4.504-10.166-5.294
							c-1.729-0.789-6.688-3.378-13.456-7.024c-6.751-3.639-15.293-8.323-24.221-13.321c-8.896-4.98-18.17-10.27-26.446-15.146
							c-8.246-4.861-15.505-9.316-20.423-12.661c-4.058-2.759-10.025-6.484-16.925-10.652c-6.879-4.156-14.681-8.747-22.445-13.259
							c-7.738-4.496-15.439-8.912-22.16-12.743c-6.702-3.818-12.434-7.059-16.266-9.218c1.876-0.121,3.75-0.233,5.63-0.333
							c1.88-0.099,3.766-0.186,5.666-0.257c1.899-0.072,3.813-0.129,5.747-0.166c1.934-0.039,3.89-0.06,5.874-0.059
							c1.375,0,2.764,0.01,4.169,0.031c1.405,0.021,2.827,0.052,4.268,0.097c1.44,0.044,2.901,0.1,4.383,0.167
							c1.481,0.068,2.985,0.15,4.513,0.245c2.485,0.154,5.589,0.288,9.167,0.403s7.63,0.21,12.011,0.286
							c4.381,0.076,9.091,0.133,13.986,0.171c4.894,0.038,9.973,0.057,15.092,0.057c7.143,0.002,14.365-0.033,21.272-0.103
							c6.907-0.069,13.5-0.174,19.39-0.312c5.888-0.137,11.074-0.309,15.167-0.512c4.092-0.204,7.093-0.439,8.613-0.708
							c1.592-0.183,3.751-0.457,5.584-0.835c1.832-0.379,3.338-0.859,3.627-1.456c0.288-0.595-0.64-1.306-3.674-2.142
							c-3.033-0.837-8.169-1.799-16.298-2.898c-8.126-1.098-15.507-2.148-22.74-3.126c-7.229-0.976-14.309-1.878-21.836-2.678
							c-7.525-0.799-15.5-1.497-24.52-2.064c-9.02-0.566-19.087-1.003-30.802-1.281c-4.799-0.274-10.409-0.912-16.357-1.788
							c-5.944-0.875-12.223-1.99-18.363-3.217c-6.135-1.225-12.131-2.563-17.518-3.888c-5.382-1.323-10.154-2.635-13.852-3.81
							c-3.693-1.172-9.777-2.727-17.003-4.467c-7.218-1.737-15.574-3.658-23.828-5.567c-8.243-1.905-16.383-3.797-23.187-5.479
							c-6.795-1.682-12.258-3.153-15.159-4.223c-2.741-1.009-8.671-2.796-16.794-5.01c-8.11-2.21-18.403-4.847-29.891-7.559
							c-11.467-2.707-24.124-5.491-36.997-8.007c-12.854-2.513-25.928-4.759-38.263-6.396c-3.871-1.103-7.962-2.283-11.963-3.464
							c-3.999-1.18-7.906-2.36-11.414-3.464c-3.505-1.104-6.612-2.13-9.012-3.003c-2.398-0.871-4.091-1.591-4.77-2.081
							c-1.856-0.971-5.158-2.591-9.334-4.572c-4.169-1.979-9.208-4.318-14.547-6.734c-5.33-2.412-10.958-4.899-16.324-7.184
							c-5.356-2.28-10.453-4.357-14.732-5.954c-5.018-1.53-9.906-2.82-14.661-3.896c-4.752-1.076-9.372-1.938-13.856-2.609
							c-4.483-0.672-8.832-1.154-13.042-1.472C145.732,323.3,141.661,323.147,137.732,323.137"/>
					</g>
				</g>
			</g>
		</g>
		<g>
			<path id="queue_derriere_1_" fill="#77695F" d="M508.169,433.274c0,0,55.384,68.63,65.36,82.035
				c9.972,13.407,34.548,46.604,39.763,49.583c3.724,3.725,5.958,3.938,20.11,5.426c14.153,1.49,65.542-0.746,65.542-0.746
				L576.8,433.274H508.169z"/>
			<path id="queue_6_" fill="#4F463F" d="M516.471,324.754c0,0,55.858,70.755,72.244,96.823
				c16.386,26.067,65.54,86.392,71.498,92.353c5.961,5.959,38.73,47.666,38.73,47.666s3.725,8.192,0,8.938
				c-5.958-3.726-171.297-166.832-178.748-172.046c-7.449-5.215-73.74-64.388-73.74-64.388L516.471,324.754z"/>
			<path id="patted_3_" fill="#AD9371" d="M362.708,416.285c0,0-46.973,86.621-58.703,98.352
				c-11.731,11.732-21.683,20.409-40.674,19.851c-18.993-0.559-26.762-0.104-26.762-0.104s-10.032,5.496,0.022,6.612
				c10.056,1.118,21.799-0.032,21.799-0.032l-26.247,13.391l-12.288,3.344c0,0-8.935,8.375,2.796,6.698
				c11.73-1.676,58.093-20.111,58.093-20.111l-18.432,26.744c0,0-3.911,6.21-3.352,13.473c0.558,7.261-2.793,14.523,6.145,2.793
				c8.938-11.73,26.812-30.723,31.839-35.191c5.026-4.468,10.055-6.145,34.073-8.938c24.021-2.792,24.021-2.792,24.021-2.792
				s18.432-8.938-6.424-12.01c-18.434-0.56-40.497,5.864-40.497,5.864s67.03-98.392,69.822-109.563
				c2.794-11.173,2.794-10.136,2.794-10.136h-18.433L362.708,416.285z"/>
			<path id="patteg_3_" fill="#C9AC82" d="M413.695,415.249c0,0-23.833,107.063-29.047,113.021
				c-0.746,6.703-4.75,17.501-23.463,18.061c-12.011,0-37.706-0.048-40.218,2.187c-2.515,2.234-8.938,7.797,0,9.194
				c8.378-0.56,27.37-2.525,31.838-0.012c0.279,1.955-41.614,17.03-49.993,18.429c-8.379,1.396-17.875,6.979-19.55,14.52
				c4.748,0.279,14.243-2.516,14.243-2.516s31.841-10.613,38.544-11.45c6.702-0.838,40.497-13.968,40.497-13.968
				s3.352,0.56,0.837,6.146c-2.513,5.585-13.407,24.298-13.127,32.117c0.279,7.821,1.119,12.289,1.119,12.289
				s2.233,12.01,10.334-2.234c5.027-14.243,4.469-17.874,4.469-17.874s7.82-21.228,11.73-25.416
				c3.91-4.189,1.395-12.847,32.117-23.739c10.615-4.189,18.435-9.776,18.435-9.776s4.19-13.405-11.452-6.702
				c-10.054,5.027-23.779,10.892-23.779,10.892s-9.457,6.61-5.826-4.563c3.631-11.171,28.209-118.605,28.209-118.605H413.695z"/>
			<path id="corps_6_" fill="#AC9E95" d="M97.905,146.009c0,0,37.237,34.259,38.727,87.14c0.743,18.621,14.15,71.566,40.963,100.952
				c26.811,29.386,87.884,82.266,178.746,84.499c43.944,0.746,67.776,2.979,68.522,0c0.744-2.978,30.536-5.212,61.816,6.705
				c24.578,12.66,104.905,41.706,104.905,41.706L488.916,364.977c0,0-135.55-107.992-169.811-116.928
				c-34.263-8.938-113.208-65.542-113.208-65.542L105.352,134.84c0,0-10.857,0.254-7.447,7.448"/>
			<path id="tête_2_" fill="#837069" d="M84.59,114.823c8.659-14.617,58.746-68.8,129.686-22.438
				c17.317,13.965,47.481,44.688,54.741,53.066c4.469,7.262,57.538,37.798,57.538,37.798s-59.304,49.25-117.397,23.555
				c-58.093-25.695-63.494-30.166-69.079-33.518C124.612,163.18,90.084,130.183,84.59,114.823z"/>
			<path id="aile_8_" fill="#4F463F" d="M204.406,210.81c15.177,34.907,26.066,77.458,139.273,113.952
				c86.396,13.406,131.081,12.72,153.424,9.339c22.344-3.381,40.963-7.106,64.795-4.126c23.835,2.979,105.761,2.234,116.933-1.489
				c6.702-1.489,23.088-5.958-8.937-14.896c-32.028-8.937-52.136-16.385-99.802-18.62c-19.364-2.234-50.646-16.384-64.796-26.067
				s-66.287-32.025-77.458-40.962c-11.172-8.938-78.666-47.02-130.292-58.988C247.231,157.46,198.356,186.507,204.406,210.81z"/>
			<path id="bec_6_" fill="#C9AC82" d="M128.068,138.561l-41.337-21.226l9.685-6.704c0,0-0.747-3.725-8.194-4.468
				c-7.446-0.744-46.178-9.309-67.403,15.268c2.699,1.956,58.092,8.191,75.968,21.971c2.977-2.98,4.468-7.819,4.468-7.819
				L128.068,138.561z"/>
			<ellipse id="contour_oeil_3_" fill="#F3D417" cx="149.48" cy="119.198" rx="22.364" ry="17.57"/>
			<ellipse id="contour_oeil_4_" fill="#E2B000" cx="149.479" cy="119.198" rx="19.239" ry="15.115"/>
			<radialGradient id="oeil_32_" cx="154.8799" cy="114.3569" r="19.573" gradientUnits="userSpaceOnUse">
				<stop  offset="0" style="stop-color:#FFFFFF"/>
				<stop  offset="0.1386" style="stop-color:#D5D4D3"/>
				<stop  offset="0.2079" style="stop-color:#494340"/>
				<stop  offset="0.3663" style="stop-color:#28201D"/>
				<stop  offset="1" style="stop-color:#231B18"/>
			</radialGradient>
			<ellipse id="oeil_1_" fill="url(#oeil_32_)" cx="149.759" cy="118.08" rx="12.568" ry="10.334"/>
		</g>
	</g>
</g>
<g id="moucherolle_gobemouche">
</g>
<g id="moqueur_corossol">
</g>
<g id="moqueur_grivotte">
</g>
<g id="trembleur_brun">
</g>
<g id="trembleur_gris">
</g>
<g id="paruline_cafeite">
</g>
<g id="saltator_gros_bec">
</g>
<g id="soporophile_rouge-gorge">
</g>
<g id="sucrier_à_ventre_jaune">
</g>
<g id="vachet_luisant">
</g>
<g id="vireo_a_moustaches">
</g>
<g id="merle_quiscale">
</g>
<g id="paruline_jaune">
</g>
<g id="tyran_gris">
</g>
<g id="sporophile_cici">
</g>
<g id="tourterelle_à_queue_carree">
</g>
<g id="colobri_huppé">
</g>
<g id="cécerelle_d_x27_amerique">
</g>
<g id="heron_vert">
</g>
<g id="pic_de_la_guadeloupe">
</g>
<g id="héron_garde-boeufs">
</g>
<g id="photos">
</g>
<g id="solitaire_siffleur">
</g>
<g id="tyran_janeau">
</g>
<g id="colibri_fallevert">
</g>
<g id="colombe_a_queue_noire">
</g>
</svg>
