<?xml version="1.0" encoding="utf-8"?>
<!-- Generator: Adobe Illustrator 16.0.0, SVG Export Plug-In . SVG Version: 6.00 Build 0)  -->
<!DOCTYPE svg PUBLIC "-//W3C//DTD SVG 1.1//EN" "http://www.w3.org/Graphics/SVG/1.1/DTD/svg11.dtd">
<svg version="1.1" xmlns="http://www.w3.org/2000/svg" xmlns:xlink="http://www.w3.org/1999/xlink" x="0px" y="0px" width="732px"
	 height="692px" viewBox="0 0 732 692" enable-background="new 0 0 732 692" xml:space="preserve">
<g id="Calque_1" display="none">
	<rect x="232.41" y="646.085" display="inline" fill="none" width="415.59" height="37.878"/>
	<text transform="matrix(1 0 0 1 232.4102 670.9346)" display="inline" font-family="'MyriadPro-Regular'" font-size="35">Colibri madère</text>
</g>
<g id="colombe_à_croissant">
</g>
<g id="colombe_rouviolette">
</g>
<g id="colibri_madere">
	<g>
		<g opacity="0.3">
			<g>
				<g enable-background="new    ">
					<defs>
						<polygon id="SVGID_11_" enable-background="new    " points="18.923,604.759 13.435,265.462 623.516,267.456 718.565,602.131 
													"/>
					</defs>
					<clipPath id="SVGID_2_">
						<use xlink:href="#SVGID_11_"  overflow="visible"/>
					</clipPath>
					<g clip-path="url(#SVGID_2_)">
						<path fill="#959595" d="M248.992,487.961c0.726-0.002,1.367-0.078,1.922-0.194c0.554-0.116,1.021-0.27,1.396-0.423
							c0.377-0.153,0.662-0.308,0.854-0.422c0.191-0.115,0.289-0.192,0.289-0.192s0.006-0.001,0.016-0.006
							c0.011-0.004,0.028-0.01,0.049-0.018s0.046-0.018,0.076-0.029c0.03-0.011,0.063-0.024,0.102-0.04
							c-0.853,0.853-1.753,1.465-2.658,1.914c-0.904,0.449-1.813,0.736-2.68,0.937c-0.868,0.2-1.696,0.313-2.44,0.417
							c-0.743,0.104-1.403,0.198-1.936,0.359c-0.136,0.039-0.308,0.074-0.508,0.105c-0.201,0.031-0.434,0.059-0.692,0.083
							s-0.543,0.044-0.85,0.062c-0.309,0.017-0.638,0.03-0.985,0.042l0.918-0.214c0,0,0.14-0.069,0.387-0.199
							c0.246-0.129,0.601-0.317,1.033-0.553c0.432-0.235,0.941-0.52,1.497-0.839s1.159-0.676,1.777-1.057
							c0.224,0.048,0.442,0.088,0.655,0.122s0.42,0.063,0.623,0.083c0.202,0.021,0.401,0.037,0.593,0.047
							C248.623,487.956,248.811,487.961,248.992,487.961 M258.781,479.923c-0.056-0.145-0.111-0.289-0.165-0.437
							s-0.105-0.296-0.153-0.445c-0.049-0.149-0.095-0.301-0.136-0.454c-0.04-0.152-0.077-0.308-0.108-0.464
							c-0.09-0.456-0.001-1.026,0.227-1.703c0.229-0.678,0.594-1.462,1.055-2.347c0.46-0.885,1.015-1.87,1.621-2.948
							s1.263-2.25,1.93-3.509c0.335-0.362,0.644-0.709,0.927-1.043c0.285-0.334,0.545-0.654,0.782-0.961
							c0.239-0.307,0.454-0.601,0.651-0.882c0.197-0.28,0.375-0.55,0.536-0.807c0.444,0.643,0.627,1.261,0.653,1.838
							c0.028,0.577-0.103,1.114-0.284,1.594c-0.183,0.479-0.42,0.902-0.604,1.252c-0.185,0.35-0.318,0.626-0.296,0.813
							c0.016,0.135-0.186,0.563-0.546,1.203c-0.36,0.641-0.881,1.493-1.509,2.478c-0.625,0.983-1.358,2.099-2.141,3.263
							S259.606,478.743,258.781,479.923 M50.894,265.585c-3.499-0.012-6.943,0.059-10.303,0.224s-6.634,0.426-9.79,0.795
							c-3.157,0.37-6.198,0.849-9.089,1.45c-2.894,0.603-5.638,1.327-8.2,2.189c0.237,0.275,5.065,0.518,12.696,0.909
							c7.632,0.391,18.066,0.931,29.523,1.804c11.461,0.872,23.95,2.077,35.695,3.8c11.758,1.725,22.779,3.969,31.295,6.921
							c0.854,1.386,2.02,2.387,3.346,3.158c1.325,0.771,2.809,1.313,4.296,1.783c1.486,0.469,2.976,0.865,4.314,1.347
							s2.526,1.048,3.409,1.856c3.16,1.401,5.893,2.941,8.254,4.595c2.364,1.656,4.355,3.425,6.031,5.279
							c1.68,1.858,3.042,3.803,4.145,5.806c1.104,2.008,1.946,4.073,2.583,6.172c1.361,2.16,2.564,5.405,3.56,9.253
							c0.999,3.86,1.791,8.329,2.323,12.917c0.536,4.604,0.809,9.329,0.769,13.671c-0.04,4.357-0.396,8.325-1.122,11.39
							c-1.162,4.668-1.268,9.045-0.653,13.129c0.616,4.098,1.957,7.897,3.682,11.399c1.729,3.513,3.844,6.722,6.001,9.629
							c2.16,2.913,4.361,5.521,6.257,7.823c1.07,1.499,2.187,3.028,3.329,4.556c1.145,1.528,2.316,3.055,3.497,4.544
							c1.182,1.491,2.372,2.945,3.554,4.329c1.183,1.385,2.355,2.699,3.5,3.907c2.47,2.607,6.048,5.733,10.344,9.055
							c4.308,3.33,9.339,6.856,14.697,10.251c5.373,3.402,11.072,6.671,16.697,9.473c5.636,2.807,11.191,5.142,16.258,6.668
							c0.392,0.117,0.794,0.24,1.209,0.369s0.842,0.264,1.282,0.403s0.894,0.283,1.361,0.432c0.468,0.149,0.948,0.303,1.442,0.46
							c-0.122,0.156-0.223,0.317-0.3,0.479c-0.076,0.162-0.127,0.324-0.15,0.484c-0.024,0.158-0.021,0.315,0.015,0.465
							c0.034,0.148,0.099,0.291,0.197,0.422c0.27,0.358,0.392,0.838,0.405,1.368c0.014,0.531-0.078,1.111-0.235,1.669
							c-0.157,0.559-0.38,1.095-0.624,1.535s-0.513,0.786-0.759,0.963c-0.251,0.177-0.749,1.07-1.371,2.331
							c-0.624,1.263-1.373,2.896-2.125,4.548c-0.753,1.654-1.51,3.328-2.147,4.67c-0.639,1.342-1.157,2.351-1.434,2.668
							c-0.275,0.317-0.432,0.575-0.519,0.805s-0.104,0.431-0.103,0.633c0.002,0.204,0.024,0.41,0.018,0.649
							c-0.008,0.24-0.044,0.513-0.16,0.851c-0.118,0.339-0.62,0.63-1.307,0.873c-0.687,0.244-1.558,0.442-2.414,0.598
							s-1.698,0.269-2.325,0.343c-0.628,0.074-1.042,0.11-1.042,0.11s-0.485,0.032-1.271,0.08c-0.786,0.048-1.87,0.112-3.067,0.177
							c-1.199,0.064-2.509,0.129-3.746,0.178s-2.4,0.081-3.303,0.083c-0.115,0-0.225,0-0.33-0.002
							c-0.106-0.001-0.208-0.002-0.304-0.004c-0.097-0.002-0.188-0.005-0.273-0.008c-0.086-0.004-0.167-0.008-0.242-0.012
							c-0.546-0.031-1.094-0.094-1.659-0.168c-0.564-0.075-1.147-0.162-1.761-0.246s-1.259-0.163-1.948-0.222
							c-0.691-0.059-1.428-0.097-2.225-0.096c-0.177,0.001-0.355,0.003-0.537,0.007c-0.183,0.004-0.368,0.011-0.557,0.019
							c-0.188,0.009-0.379,0.02-0.574,0.032c-0.195,0.014-0.395,0.029-0.597,0.047c-1.144,0.241-1.817,0.507-2.187,0.77
							c-0.368,0.262-0.432,0.521-0.352,0.751c0.08,0.229,0.304,0.428,0.507,0.57c0.203,0.142,0.386,0.226,0.386,0.226
							s0.046,0.002,0.128,0.004c0.084,0.001,0.204,0.004,0.355,0.007c0.15,0.002,0.331,0.005,0.534,0.006
							c0.202,0.002,0.428,0.003,0.666,0.003c0.231,0,0.477-0.002,0.728-0.005c0.251-0.004,0.51-0.01,0.767-0.017
							c0.258-0.008,0.516-0.018,0.766-0.03c0.249-0.014,0.491-0.029,0.72-0.049c0.298-0.027,0.56-0.058,0.791-0.089
							c0.232-0.031,0.432-0.063,0.608-0.09c0.176-0.029,0.328-0.054,0.461-0.071c0.134-0.018,0.25-0.028,0.353-0.028
							c0.057-0.001,0.11,0.003,0.161,0.01s0.1,0.018,0.146,0.033c0.047,0.015,0.093,0.035,0.138,0.06
							c0.044,0.025,0.089,0.055,0.134,0.091c0.119,0.093,0.411,0.226,0.815,0.371c0.402,0.146,0.917,0.305,1.48,0.452
							c0.564,0.147,1.178,0.283,1.778,0.382c0.603,0.099,1.192,0.16,1.709,0.159c0.036,0,0.073,0,0.11-0.001
							c0.035,0,0.071-0.001,0.107-0.003c0.035-0.001,0.071-0.003,0.105-0.005c0.034-0.003,0.068-0.005,0.103-0.008
							c0.5-0.04,1.244-0.075,2.08-0.106c0.835-0.03,1.761-0.057,2.624-0.078c0.863-0.021,1.664-0.037,2.249-0.048
							c0.584-0.011,0.954-0.017,0.954-0.017s-0.216,0.08-0.567,0.211s-0.838,0.312-1.381,0.513
							c-0.544,0.201-1.145,0.422-1.722,0.633s-1.131,0.413-1.583,0.573c-0.328,0.117-0.613,0.256-0.86,0.404
							c-0.246,0.147-0.454,0.305-0.628,0.46c-0.173,0.155-0.313,0.309-0.425,0.448c-0.11,0.14-0.193,0.266-0.252,0.366
							c-0.155-0.002-0.307-0.004-0.452-0.006c-0.146-0.001-0.287-0.002-0.423-0.004c-0.137-0.001-0.267-0.002-0.392-0.002
							c-0.126-0.001-0.246-0.001-0.359-0.001c-0.162,0-0.313,0.001-0.448,0.003c-0.138,0.002-0.261,0.005-0.369,0.009
							c-0.107,0.004-0.201,0.009-0.278,0.015c-0.078,0.007-0.14,0.015-0.185,0.023c-0.279,0.054-0.867,0.164-1.622,0.3
							c-0.756,0.137-1.682,0.298-2.639,0.452c-0.96,0.155-1.952,0.304-2.84,0.414c-0.89,0.109-1.674,0.182-2.22,0.182
							c-0.546,0.001-1.221,0.095-1.942,0.24c-0.722,0.147-1.491,0.347-2.225,0.558c-0.734,0.212-1.435,0.437-2.016,0.633
							c-0.581,0.197-1.046,0.366-1.309,0.468c-0.194,0.074-0.271,0.215-0.243,0.384c0.026,0.169,0.156,0.366,0.376,0.554
							c0.22,0.188,0.531,0.366,0.918,0.498c0.388,0.131,0.852,0.216,1.38,0.215c0.191,0,0.393-0.012,0.6-0.036
							c0.208-0.024,0.422-0.062,0.645-0.114c0.223-0.052,0.451-0.118,0.688-0.201c0.235-0.084,0.478-0.184,0.726-0.301
							c0.934-0.444,1.934-0.744,3.003-0.95c1.068-0.204,2.207-0.314,3.415-0.376c1.209-0.062,2.487-0.075,3.839-0.09
							c1.353-0.015,2.775-0.028,4.273-0.091c0.384,0.139,0.809,0.255,1.267,0.35c0.457,0.095,0.947,0.169,1.458,0.226
							c0.51,0.057,1.041,0.096,1.584,0.121c0.542,0.024,1.094,0.035,1.646,0.034c0.992-0.001,1.985-0.039,2.914-0.095
							c0.93-0.056,1.798-0.13,2.541-0.204c0.743-0.073,1.361-0.146,1.795-0.202s0.682-0.092,0.682-0.092s-0.195,0.184-0.514,0.466
							s-0.76,0.662-1.256,1.056c-0.494,0.393-1.041,0.798-1.569,1.131s-1.038,0.592-1.456,0.692
							c-0.419,0.103-1.52,0.446-2.956,0.912s-3.207,1.054-4.964,1.641c-1.759,0.589-3.503,1.177-4.883,1.645
							c-1.381,0.467-2.397,0.813-2.698,0.915c-0.304,0.103-0.856,0.255-1.499,0.446c-0.643,0.19-1.374,0.42-2.036,0.675
							c-0.66,0.254-1.252,0.534-1.611,0.826s-0.487,0.597-0.224,0.899c0.064,0.074,0.165,0.138,0.298,0.19
							c0.134,0.053,0.299,0.097,0.491,0.131c0.193,0.034,0.414,0.059,0.659,0.075c0.245,0.016,0.513,0.023,0.802,0.022
							c0.895-0.001,1.98-0.079,3.132-0.216c1.151-0.136,2.369-0.329,3.53-0.562c1.161-0.231,2.265-0.502,3.188-0.791
							c0.924-0.288,1.668-0.597,2.108-0.904c1.061-0.162,2.055-0.388,2.98-0.649c0.927-0.26,1.783-0.556,2.569-0.857
							c0.784-0.302,1.497-0.61,2.136-0.896c0.637-0.285,1.199-0.549,1.684-0.763c0.065,0.011,0.13,0.02,0.195,0.027
							c0.065,0.007,0.129,0.013,0.193,0.019c0.065,0.004,0.129,0.008,0.193,0.01c0.063,0.003,0.127,0.004,0.189,0.004
							c0.553-0.001,1.079-0.092,1.558-0.227c0.48-0.135,0.911-0.314,1.273-0.493c0.362-0.18,0.656-0.358,0.859-0.493
							c0.202-0.134,0.314-0.224,0.314-0.224s0.209-0.146,0.547-0.385s0.805-0.569,1.321-0.938s1.082-0.774,1.618-1.163
							c0.534-0.39,1.04-0.763,1.436-1.064c0.274-0.21,0.522-0.382,0.751-0.522s0.439-0.249,0.641-0.331
							c0.199-0.082,0.39-0.139,0.577-0.174c0.187-0.036,0.371-0.051,0.561-0.052c0.084,0,0.169,0.003,0.255,0.009
							c0.087,0.005,0.175,0.012,0.266,0.022c0.092,0.009,0.184,0.021,0.28,0.033c0.096,0.014,0.196,0.028,0.299,0.043
							c0.403,0.14,0.901,0.747,1.481,1.632c0.582,0.886,1.246,2.05,1.988,3.303c0.743,1.254,1.563,2.599,2.449,3.841
							c0.89,1.244,1.846,2.386,2.862,3.234c0.375,0.236,0.727,0.435,1.056,0.6c0.328,0.166,0.635,0.297,0.92,0.398
							c0.284,0.103,0.547,0.175,0.791,0.222c0.243,0.047,0.465,0.068,0.669,0.067c0.494,0,0.877-0.129,1.165-0.327
							c0.287-0.197,0.479-0.467,0.596-0.748c0.115-0.281,0.154-0.576,0.132-0.827c-0.021-0.251-0.103-0.458-0.226-0.565
							c-0.175-0.152-0.402-0.345-0.659-0.579c-0.259-0.233-0.546-0.509-0.842-0.827c-0.294-0.317-0.597-0.679-0.884-1.084
							c-0.286-0.405-0.558-0.854-0.789-1.349c-0.063-0.545-0.331-1.25-0.719-2.019c-0.389-0.768-0.897-1.599-1.444-2.396
							c-0.546-0.796-1.129-1.558-1.666-2.188c-0.536-0.63-1.026-1.129-1.388-1.4c-0.343-0.256-0.499-0.532-0.518-0.804
							c-0.02-0.271,0.1-0.535,0.31-0.769c0.209-0.233,0.508-0.435,0.849-0.577s0.724-0.228,1.101-0.229
							c0.021,0,0.043,0.001,0.063,0.001c0.021,0,0.043,0.002,0.063,0.003c0.021,0.001,0.043,0.002,0.063,0.004
							c0.021,0.001,0.043,0.003,0.063,0.005c0.394,0.039,1.015,0.2,1.758,0.454s1.608,0.601,2.488,1.01
							c0.88,0.41,1.775,0.883,2.577,1.388c0.803,0.506,1.514,1.045,2.024,1.587c0.206,0.219,0.42,0.401,0.635,0.552
							c0.217,0.15,0.436,0.27,0.654,0.36s0.438,0.154,0.653,0.195s0.428,0.059,0.633,0.059c0.304,0,0.593-0.041,0.858-0.105
							c0.266-0.065,0.508-0.155,0.716-0.255c0.209-0.101,0.384-0.211,0.516-0.318c0.132-0.106,0.221-0.209,0.257-0.292
							c0.478-0.554,0.327-1.124-0.186-1.671c-0.511-0.548-1.382-1.073-2.347-1.538c-0.963-0.465-2.018-0.869-2.896-1.174
							c-0.879-0.306-1.581-0.512-1.84-0.581c-0.262-0.07-0.693-0.208-1.205-0.387c-0.512-0.178-1.103-0.395-1.683-0.623
							c-0.579-0.229-1.147-0.468-1.613-0.689c-0.466-0.223-0.83-0.427-1.001-0.585c-0.443-0.693-0.371-1.525-0.006-2.413
							c0.366-0.886,1.027-1.827,1.761-2.737c0.734-0.909,1.542-1.788,2.204-2.553c0.662-0.764,1.178-1.413,1.33-1.862
							c0.155-0.448,0.521-1.069,1.042-1.786c0.522-0.716,1.198-1.527,1.976-2.358c0.776-0.83,1.652-1.68,2.571-2.473
							c0.92-0.793,1.884-1.529,2.837-2.133c0.646-0.464,1.187-0.92,1.635-1.366c0.447-0.446,0.8-0.883,1.07-1.309
							c0.271-0.425,0.461-0.839,0.582-1.241c0.12-0.401,0.173-0.79,0.168-1.166c3.161,0.75,6.572,1.502,10.255,2.243
							c3.685,0.742,7.639,1.472,11.887,2.176c4.25,0.704,8.792,1.382,13.649,2.019c4.858,0.637,10.03,1.233,15.538,1.773
							c1.27,0.9,2.595,1.809,3.994,2.689c1.4,0.881,2.875,1.734,4.442,2.523c1.568,0.789,3.23,1.514,5.003,2.138
							c1.773,0.624,3.658,1.146,5.672,1.53c1.474,0.973,9.833,7.22,23.748,16.434c14.012,9.276,33.716,21.602,57.755,34.612
							c24.266,13.134,52.964,26.977,84.57,39.026c31.868,12.15,66.593,22.441,102.398,28.264c1.621,0.313,3.734,0.642,6.17,0.958
							c2.436,0.318,5.193,0.624,8.102,0.89c2.908,0.265,5.968,0.49,9.005,0.646c3.038,0.156,6.056,0.243,8.88,0.232
							c4.729-0.018,8.918-0.31,11.758-1.009s4.333-1.805,3.677-3.451c-0.655-1.645-3.453-3.826-9.188-6.677
							c-5.724-2.845-14.368-6.354-26.716-10.654c-1.368-0.587-3.207-1.406-5.465-2.437c-2.257-1.028-4.93-2.267-7.969-3.692
							c-3.035-1.424-6.433-3.034-10.139-4.809c-3.703-1.771-7.714-3.707-11.979-5.783c6.84,2.136,15.01,4.317,23.657,6.388
							c8.658,2.072,17.794,4.034,26.545,5.728c8.762,1.695,17.135,3.121,24.258,4.12c7.128,1,13,1.572,16.752,1.561
							c0.423,0.009,0.84,0.018,1.251,0.024c0.411,0.008,0.815,0.014,1.214,0.018c0.397,0.004,0.788,0.007,1.173,0.009
							c0.385,0.001,0.762,0.001,1.133,0c9.921-0.032,15.215-1.029,17.475-2.534c2.256-1.503,1.483-3.514-0.729-5.579
							c-2.209-2.062-5.853-4.179-9.348-5.902c-3.491-1.721-6.838-3.052-8.466-3.544c-3.985-1.127-7.937-2.484-11.786-3.97
							c-3.846-1.484-7.591-3.096-11.17-4.731c-3.574-1.633-6.983-3.29-10.162-4.87c-3.177-1.577-6.125-3.077-8.783-4.397
							c1.598-0.514,1.499-1.609,0.299-3.013c-1.199-1.401-3.498-3.11-6.309-4.854c-2.805-1.741-6.12-3.517-9.357-5.058
							c-3.234-1.539-6.393-2.844-8.894-3.645c-2.497-0.8-5.908-2.377-9.617-4.29c-3.703-1.909-7.702-4.154-11.384-6.296
							c-3.676-2.139-7.036-4.175-9.476-5.675c-2.437-1.499-3.958-2.464-3.958-2.464s0.846-0.422,2.082-1.13
							c1.234-0.707,2.859-1.698,4.424-2.837c1.563-1.139,3.062-2.423,4.049-3.72c0.985-1.294,1.461-2.6,0.976-3.78
							c-1.379-0.981-5.941-3.354-12.135-6.422c-6.178-3.062-13.972-6.813-21.843-10.566c-7.849-3.743-15.772-7.488-22.254-10.558
							c-6.468-3.062-11.505-5.455-13.612-6.507c-2.663-1.051-6.922-3.145-11.808-5.689c-4.876-2.54-10.372-5.529-15.528-8.383
							c-5.146-2.849-9.954-5.562-13.478-7.563c-3.519-1.999-5.759-3.292-5.779-3.302c-1.738-1.526-4.26-3.466-7.063-5.513
							c-2.796-2.044-5.87-4.195-8.724-6.154c-2.851-1.955-5.481-3.72-7.398-4.994c-1.915-1.272-3.12-2.059-3.12-2.059
							s-3.84-3.244-10.658-8.555c-6.788-5.289-16.508-12.609-28.296-20.791c-11.712-8.129-25.45-17.098-40.392-25.774
							c-14.84-8.619-30.876-16.954-47.34-23.921c0,0-0.619-0.347-1.628-0.901c-1.009-0.556-2.405-1.32-3.96-2.158
							c-1.555-0.837-3.267-1.746-4.908-2.592c-1.639-0.845-3.209-1.627-4.479-2.212c0.033-0.021,0.068-0.042,0.102-0.063
							c0.034-0.021,0.069-0.04,0.104-0.06c0.035-0.021,0.069-0.04,0.105-0.06c0.035-0.021,0.072-0.04,0.107-0.061
							c0,0-0.297-0.403-0.754-1.094s-1.075-1.668-1.719-2.816c-0.643-1.147-1.308-2.466-1.863-3.84
							c-0.553-1.372-0.997-2.8-1.193-4.167c-0.197-1.368-0.992-4.211-3.024-7.818c-2.026-3.595-5.28-7.944-10.396-12.347
							c-5.099-4.386-12.045-8.823-21.48-12.625c-9.409-3.791-21.303-6.956-36.343-8.817c-2.692-0.423-5.772-0.828-9.238-1.198
							c-3.465-0.371-7.315-0.707-11.552-0.992c-4.235-0.284-8.854-0.519-13.857-0.687c-5.004-0.167-10.394-0.269-16.165-0.285
							c-1.106-0.004-2.226-0.004-3.358-0.001c-1.134,0.003-2.282,0.009-3.444,0.018c-1.162,0.01-2.339,0.022-3.529,0.038
							c-1.19,0.017-2.396,0.036-3.615,0.059c-0.334-0.008-0.677-0.015-1.026-0.021c-0.35-0.007-0.704-0.012-1.065-0.016
							c-0.36-0.004-0.728-0.008-1.099-0.011c-0.372-0.003-0.749-0.004-1.131-0.005c-0.796-0.003-1.612-0.002-2.444,0.001
							s-1.68,0.008-2.536,0.015c-0.858,0.006-1.727,0.015-2.601,0.023c-0.873,0.009-1.753,0.019-2.632,0.028
							c-0.868,0.009-1.736,0.019-2.603,0.027c-0.863,0.009-1.725,0.017-2.577,0.023c-0.853,0.006-1.696,0.012-2.526,0.014
							c-0.83,0.003-1.646,0.003-2.445,0.001c-0.789-0.002-1.561-0.008-2.311-0.017c-0.749-0.009-1.476-0.021-2.176-0.038
							s-1.373-0.038-2.015-0.063c-0.643-0.026-1.253-0.058-1.828-0.095c-0.042-0.01-3.246-0.777-8.687-1.923
							c-5.435-1.146-13.102-2.668-22.076-4.192c-8.967-1.522-19.24-3.047-29.908-4.198
							C72.529,266.399,61.463,265.619,50.894,265.585"/>
					</g>
				</g>
			</g>
		</g>
		<g>
			<path id="patted" fill="#232326" d="M271.786,416.503c0,0,1.667,4.039-4.843,16.305c-3.183,9.692-6.063,16.657-5.908,20.141
				c0.149,3.483,1.059,6.511,0.758,9.389c-0.304,2.877-6.359,6.966-6.359,6.966s-2.578,3.635-6.814,1.817
				c-2.574,2.877-4.848,4.996-4.848,4.996l-4.088,1.817l-5.449-0.757l-1.362-0.303c0,0,0.6-2.423,2.42-3.634
				c1.816-1.211,5.301-3.635,5.301-3.635s-5.753,0.15-7.721,0.454c-1.971,0.302-5.451-1.817-5.907-2.575
				c-0.454-0.756-0.911-0.151-2.727,0.152c-1.819,0.302-4.545,0.151-4.545,0.151s-2.725-2.574,1.817-4.392
				c4.391-0.758,6.966,0.909,9.541,1.212c2.575,0.302,12.268-0.908,12.268-0.908s6.509-1.062,7.115-3.636s-0.149-3.18,1.059-5.602
				c1.213-2.423,7.424-25.896,8.482-27.258c1.06-1.364,2.726-7.925,1.817-10.702c-0.912-2.774,2.271-8.076,5.299-6.107
				C270.12,412.363,271.676,413.664,271.786,416.503z"/>
			<path id="patteg" fill="#343338" d="M281.478,415.292c0,0,9.085,9.086,0,20.795c-4.037,4.646-8.478,13.326-9.286,16.759
				c-0.808,3.434-7.674,12.923-6.261,18.173c0.606,1.211,4.114,3.812,5.101,4.341c0.983,0.531,8.627,5.224,6.509,9.39
				c-0.299,1.06-3.024,3.71-4.771-0.379c-1.738-4.089-6.586-8.102-8.099-8.405c-1.516-0.303-3.486,2.424-2.198,4.468
				c1.288,2.045,4.168,10.979,4.168,15.067c0.68,3.711,2.043,6.057,2.648,7.192c0.606,1.136-0.455,8.252-5.072,2.197
				c-3.559-6.361-5.682-21.504-7.194-22.565c-1.286-0.377-1.97-0.453-3.634,1.818c-1.668,2.272-5.147,6.664-5.147,6.664
				s-2.347,3.332-4.773,2.572c-1.964,1.591-5.223,4.696-9.388,5.907c-2.421,3.027-13.023,6.057-13.932,3.786
				c-0.906-2.272,4.239-4.544,5.454-5.301c1.208-0.758,13.853-8.783,15.519-9.541c1.664-0.757,4.996-6.283,4.996-6.283
				s-9.462,2.649-13.473-0.303c-5.834,0.453-10.449-0.529-14.239,2.801c-3.783,3.332-5.903-1.136-4.842-1.894
				c1.059-0.756,5.322-3.557,7.444-3.557c2.121,0,8.074-2.122,9.185-2.525c1.109-0.402,13.327,0.808,15.65-0.505
				c2.319-1.311,6.863-0.201,10.802-8.682c3.938-8.479,12.416-29.479,12.416-30.992c0-1.516,2.879-6.057,0.911-11.357
				c-0.607-1.666-4.392-6.813-4.092-8.783c0.304-1.97,4.997-5.149,9.845-4.847C280.568,411.606,280.765,414.457,281.478,415.292z"/>
			<path id="corps" fill="#201F24" d="M181.834,202.927c0,0-5.949,45.613,0,70.401c1.983,8.925,12.395,45.614,21.319,66.438
				c8.924,20.823,34.707,58.007,54.041,69.906c12.89,7.932,39.167,29.249,101.635,36.188c64.948,3.721,135.225-41.645,135.534-60.67
				c-0.681-7.002-24.477-42.453-24.477-42.453s-51.688-104.36-115.519-163.605c0,0-10.109-12.686-14.874-17.353
				C333.05,158.804,228.932,123.6,181.834,202.927z"/>
			<path id="queue" fill="#316C6A" d="M492.519,380.047c0,0,31.47,40.717,41.137,48.896c7.438,8.181,56.612,57.914,61.074,65.352
				c0.743,8.924-14.084,21.52-14.084,21.52s20.103,28.98,29.027,34.93c8.924,5.949,26.04,26.761,19.347,30.479
				c8.925,9.668,21.573,24.535,35.703,32.716c5.949,3.719,36.443,33.462-8.178,31.231c-17.849,0-82.176-26.03-96.305-43.135
				c-17.104-15.617-141.42-153.198-148-200.61c0-6.692,39.053-7.62,48.721-11.339S492.519,380.047,492.519,380.047z"/>
			<path id="tete" fill="#201F24" d="M340.485,161.778c0,0-3.967-13.882-3.967-25.78c0-11.899-6.443-75.36-69.409-91.721
				c-13.386-4.463-36.191-7.933-68.418-6.444c-10.908-0.497-28.758,1.284-36.688-0.35c-2.975,6.794-4.462,29.104-4.462,29.104
				s25.283,21.814,25.78,86.762c5.948,13.883,43.136,57.016,82.301,48.092C304.788,192.517,321.149,183.592,340.485,161.778z"/>
			<path id="cou" fill="#7A1D18" d="M159.028,63.613c0,0,74.862,11.401,120.971,58.998c6.688,8.747,39.16,45.778,37.674,63.129
				c-1.487,17.352-51.06,65.773-51.06,65.773c-19.336,20.324-47.597,54.534-72.881,61.974c-5.452-17.849-22.31-49.454-14.997-95.19
				c3.965-25.781,3.099-82.3-1.858-101.141c-1.984-18.344-7.438-35.697-20.328-48.091C159.028,63.613,159.028,63.613,159.028,63.613
				z"/>
			<linearGradient id="aile_4_" gradientUnits="userSpaceOnUse" x1="258.8193" y1="258.1304" x2="617.2703" y2="686.4863">
				<stop  offset="0" style="stop-color:#3A8863"/>
				<stop  offset="0.4653" style="stop-color:#357C5A"/>
				<stop  offset="1" style="stop-color:#204534"/>
			</linearGradient>
			<path id="aile" fill="url(#aile_4_)" d="M309.993,238.377c0,0-18.59-11.155-43.132,8.18c-9.668,7.438-29.004,39.415-6.692,87.011
				c6.692,14.13,21.565,41.646,30.489,49.083c4.463,9.667,11.156,34.952,19.335,44.62c4.464,5.205,14.875,11.155,21.568,9.668
				c5.205,8.181,11.155,18.592,20.821,22.311c5.207,7.437,105.604,175.507,235.746,217.153
				c15.617,5.949,84.036,15.617,15.617-33.466c-22.311-20.079-188.893-192.612-191.868-244.669
				c1.488-6.694,7.437-15.617,1.488-25.285c-5.95-9.669-5.208-10.412-10.413-19.336c7.438-3.718,11.156-7.809,5.578-20.451
				C400.35,319.438,370.977,274.816,309.993,238.377z"/>
			<path id="bec" fill="#343338" d="M194.479,63.862c-13.103-8.798-23.557-14.135-26.53-18.101c-2.976-3.967-4.23-7.997-4.23-7.997
				S70.035-10.256,26.153,21.468c0.997,2.485,79.579,3.229,114.779,29.505c3.224,12.395,12.148,10.908,15.616,18.093
				C177.622,65.352,205.228,71.08,194.479,63.862z"/>
			<path id="contour_oeil" fill="#343338" d="M237.853,83.937c0,0,21.815-23.303,39.664-1.983c1.801,6.944-13.071,39.48-35.2,17.354
				C239.384,95.168,239.004,93.649,237.853,83.937z"/>
			<radialGradient id="yeux_3_" cx="250.873" cy="82.5762" r="22.6085" gradientUnits="userSpaceOnUse">
				<stop  offset="0" style="stop-color:#FFFFFF"/>
				<stop  offset="0.1386" style="stop-color:#D5D4D3"/>
				<stop  offset="0.2079" style="stop-color:#494340"/>
				<stop  offset="0.3663" style="stop-color:#28201D"/>
				<stop  offset="1" style="stop-color:#231B18"/>
			</radialGradient>
			<path id="yeux" fill="url(#yeux_3_)" d="M268.744,95.333c-2.932,6.187-10.923,8.54-17.854,5.258
				c-6.928-3.281-10.17-10.956-7.239-17.144c2.932-6.188,10.924-8.539,17.851-5.259C268.434,81.471,271.674,89.146,268.744,95.333z"
				/>
		</g>
	</g>
</g>
<g id="colibri_à_tête_bleue">
</g>
<g id="elenie_siffleuse">
</g>
<g id="grive_à_pieds_jaunes">
</g>
<g id="merle_à_lunette">
</g>
<g id="moucherolle_gobemouche">
</g>
<g id="moqueur_corossol">
</g>
<g id="moqueur_grivotte">
</g>
<g id="trembleur_brun">
</g>
<g id="trembleur_gris">
</g>
<g id="paruline_cafeite">
</g>
<g id="saltator_gros_bec">
</g>
<g id="soporophile_rouge-gorge">
</g>
<g id="sucrier_à_ventre_jaune">
</g>
<g id="vachet_luisant">
</g>
<g id="vireo_a_moustaches">
</g>
<g id="merle_quiscale">
</g>
<g id="paruline_jaune">
</g>
<g id="tyran_gris">
</g>
<g id="sporophile_cici">
</g>
<g id="tourterelle_à_queue_carree">
</g>
<g id="colobri_huppé">
</g>
<g id="cécerelle_d_x27_amerique">
</g>
<g id="heron_vert">
</g>
<g id="pic_de_la_guadeloupe">
</g>
<g id="héron_garde-boeufs">
</g>
</svg>
