<?xml version="1.0" encoding="utf-8"?>
<!-- Generator: Adobe Illustrator 16.0.0, SVG Export Plug-In . SVG Version: 6.00 Build 0)  -->
<!DOCTYPE svg PUBLIC "-//W3C//DTD SVG 1.1//EN" "http://www.w3.org/Graphics/SVG/1.1/DTD/svg11.dtd">
<svg version="1.1" xmlns="http://www.w3.org/2000/svg" xmlns:xlink="http://www.w3.org/1999/xlink" x="0px" y="0px" width="732px"
	 height="692px" viewBox="0 0 732 692" enable-background="new 0 0 732 692" xml:space="preserve">
<g id="Calque_1" display="none">
	<rect x="215" y="-36.879" display="inline" fill="none" width="415.59" height="37.879"/>
	<text transform="matrix(1 0 0 1 215 -12.0293)" display="inline" font-family="'MyriadPro-Regular'" font-size="35">Saltator gros-bec</text>
	<rect x="156.41" y="639.182" display="inline" fill="none" width="415.59" height="37.879"/>
	<text transform="matrix(1 0 0 1 156.4102 664.0313)" display="inline" font-family="'MyriadPro-Regular'" font-size="35">Paruline jaune</text>
</g>
<g id="colombe_à_croissant">
</g>
<g id="colombe_rouviolette">
</g>
<g id="colibri_madere">
</g>
<g id="colibri_à_tête_bleue">
</g>
<g id="elenie_siffleuse">
</g>
<g id="grive_à_pieds_jaunes">
</g>
<g id="merle_à_lunette">
</g>
<g id="moucherolle_gobemouche">
</g>
<g id="moqueur_corossol">
</g>
<g id="moqueur_grivotte">
</g>
<g id="trembleur_brun">
</g>
<g id="trembleur_gris">
</g>
<g id="paruline_cafeite">
</g>
<g id="saltator_gros_bec">
</g>
<g id="soporophile_rouge-gorge">
</g>
<g id="sucrier_à_ventre_jaune">
</g>
<g id="vachet_luisant">
</g>
<g id="vireo_a_moustaches">
</g>
<g id="merle_quiscale">
</g>
<g id="paruline_jaune">
	<g>
		<g opacity="0.3">
			<g>
				<g enable-background="new    ">
					<defs>
						<polygon id="SVGID_49_" enable-background="new    " points="11.64,548.344 13.445,316.261 650.204,317.911 720.36,546.296 
													"/>
					</defs>
					<clipPath id="SVGID_2_">
						<use xlink:href="#SVGID_49_"  overflow="visible"/>
					</clipPath>
					<g clip-path="url(#SVGID_2_)">
						<path fill="#959595" d="M544.488,317.637c-8.233-0.021-16.309,1.021-23.863,2.663c-7.57,1.646-14.626,3.897-20.79,6.288
							c-6.181,2.396-11.465,4.934-15.464,7.138c-4.009,2.209-6.723,4.083-7.746,5.142c-0.938,0.971-2.768,2.241-5.061,3.638
							c-2.297,1.399-5.059,2.926-7.858,4.403c-2.804,1.481-5.644,2.913-8.089,4.12c-2.447,1.209-4.497,2.192-5.714,2.771
							c-9.061,1.263-19.804,3.472-30.845,6.081c-11.075,2.617-22.459,5.639-32.734,8.511c-10.31,2.881-19.499,5.61-26.122,7.622
							c-6.637,2.017-10.684,3.31-10.684,3.31s-3.76,1.124-9.771,3.008c-6.023,1.889-14.316,4.542-23.363,7.598
							c-9.078,3.064-18.923,6.536-27.993,10.041c-9.106,3.519-17.433,7.071-23.41,10.278c-1.273,0.523-2.937,1.273-4.882,2.197
							c-1.948,0.926-4.179,2.026-6.586,3.251c-2.41,1.227-4.997,2.577-7.652,4.002c-2.659,1.426-5.388,2.926-8.075,4.446
							c-1.272,0.462-2.642,1.041-4.118,1.696c-1.477,0.656-3.062,1.388-4.763,2.153c-1.703,0.766-3.524,1.565-5.473,2.356
							c-1.95,0.792-4.028,1.575-6.244,2.309c-6.975,1.827-12.206,3.396-16.027,4.741c-3.827,1.349-6.237,2.472-7.569,3.407
							c-1.333,0.937-1.585,1.683-1.095,2.276c0.49,0.595,1.722,1.036,3.355,1.36c-2.726,0.517-12.889,2.46-27.209,5.398
							c-14.369,2.948-32.957,6.903-52.453,11.434c-19.597,4.553-40.135,9.69-58.228,14.966
							c-18.195,5.307-33.917,10.753-43.687,15.876c-0.981,0.503-1.717,0.923-2.117,1.273c-0.4,0.352-0.463,0.634-0.098,0.864
							c0.365,0.229,1.158,0.406,2.471,0.546c1.313,0.139,3.146,0.24,5.591,0.319c1.467-0.002,3.626-0.109,6.04-0.271
							c2.413-0.161,5.079-0.374,7.561-0.587c2.481-0.213,4.779-0.426,6.456-0.585c1.676-0.159,2.733-0.265,2.733-0.265
							s-0.23,0.118-0.496,0.297c-0.266,0.178-0.567,0.415-0.711,0.652c-0.145,0.237-0.131,0.475,0.233,0.651
							c0.365,0.178,1.081,0.295,2.342,0.293c0.237,0,0.493-0.005,0.77-0.015c0.276-0.009,0.573-0.022,0.892-0.041
							c0.319-0.02,0.659-0.043,1.023-0.072c0.363-0.029,0.75-0.063,1.161-0.104c0.04,0.004,0.081,0.008,0.125,0.011
							c0.044,0.003,0.091-0.043,0.139-0.041c0.049,0.002,0.099-0.045,0.152-0.045c0.053,0,0.108,0,0.165,0
							c2.583,0,9.585-1.059,19.706-2.941c10.099-1.877,23.286-4.5,38.264-7.599c14.925-3.087,31.613-6.604,48.791-10.26
							c17.106-3.64,34.692-7.396,51.518-10.975c4.464,0.428,9.254,0.784,14.288,1.073c5.034,0.289,10.311,0.516,15.744,0.686
							s11.023,0.286,16.688,0.358c5.662,0.072,11.397,0.101,17.12,0.095c8.866-0.008,17.705-0.096,26.205-0.227
							c8.496-0.132,16.654-0.306,24.166-0.481c7.508-0.178,14.371-0.358,20.283-0.505c5.908-0.147,10.868-0.26,14.571-0.3
							c0.074,0.008,0.148,0.016,0.222,0.023c0.074,0.007,0.148,0.014,0.222,0.021s0.146,0.013,0.22,0.02
							c0.072,0.007,0.145,0.013,0.217,0.02c1.614,2.686,3.997,6.642,6.718,11.138c2.731,4.516,5.807,9.578,8.785,14.443
							c2.991,4.887,5.884,9.571,8.226,13.287c2.351,3.729,4.143,6.477,4.918,7.468c0.434,0.552,0.709,1.003,0.855,1.369
							c0.147,0.366,0.168,0.648,0.09,0.862c-0.077,0.213-0.252,0.357-0.493,0.449c-0.241,0.091-0.549,0.129-0.893,0.13
							c-0.407,0.001-0.864-0.051-1.321-0.128c-0.457-0.078-0.913-0.182-1.319-0.286c-0.405-0.104-0.761-0.208-1.014-0.286
							s-0.405-0.13-0.405-0.13s-0.734-0.157-1.972-0.427c-1.236-0.27-2.975-0.65-4.983-1.099c-2.008-0.448-4.285-0.964-6.6-1.502
							c-2.313-0.537-4.665-1.097-6.822-1.634c-0.667-0.144-1.29-0.265-1.872-0.366c-0.582-0.103-1.122-0.185-1.624-0.248
							s-0.965-0.11-1.392-0.14c-0.428-0.03-0.818-0.044-1.177-0.043c-1.432,0.003-2.334,0.235-2.882,0.583
							c-0.547,0.348-0.74,0.81-0.754,1.272s0.152,0.926,0.321,1.272s0.342,0.578,0.342,0.578s0.427,0.15,1.207,0.403
							c0.782,0.253,1.918,0.609,3.338,1.021c1.42,0.413,3.123,0.882,5.038,1.359c1.916,0.479,4.043,0.966,6.311,1.415
							c6.544,1.166,11.362,2.276,14.964,3.315c3.604,1.039,5.991,2.006,7.669,2.884c1.679,0.879,2.648,1.669,3.42,2.353
							c0.772,0.684,1.347,1.262,2.233,1.716c0.889,0.456,2.057,1.378,3.312,2.505c1.255,1.128,2.597,2.462,3.829,3.74
							c1.232,1.279,2.355,2.502,3.171,3.406s1.322,1.489,1.322,1.489s-0.013,0.1,0.051,0.349c0.063,0.248,0.203,0.645,0.508,1.238
							s0.774,1.384,1.498,2.42c0.725,1.036,1.703,2.319,3.027,3.897c0.731,0.588,1.403,1.074,2.021,1.474
							c0.617,0.4,1.18,0.713,1.692,0.951s0.975,0.404,1.392,0.51c0.417,0.104,0.788,0.15,1.119,0.149
							c0.558-0.002,0.999-0.135,1.348-0.334c0.349-0.198,0.604-0.463,0.791-0.728c0.186-0.264,0.302-0.527,0.372-0.726
							c0.069-0.197,0.093-0.329,0.093-0.329s0.021-0.124,0.049-0.364c0.027-0.241,0.06-0.598,0.081-1.063
							c0.021-0.466,0.03-1.039,0.011-1.712c-0.019-0.674-0.066-1.447-0.158-2.313c-0.093-0.865-0.821-2.029-1.9-3.326
							c-1.077-1.295-2.505-2.722-3.998-4.116c-1.491-1.393-3.048-2.753-4.389-3.917c-1.339-1.162-2.462-2.129-3.087-2.738
							c-0.626-0.609-0.924-1.082-1.019-1.447c-0.095-0.366,0.013-0.626,0.198-0.81s0.45-0.292,0.667-0.353
							c0.218-0.063,0.389-0.078,0.389-0.078s1.813,0.354,4.623,0.891c2.812,0.536,6.619,1.256,10.604,1.986
							c3.987,0.731,8.153,1.475,11.675,2.057c3.522,0.582,6.4,1.005,7.811,1.094c1.409,0.088,4.175,0.44,7.529,0.92
							c3.356,0.479,7.305,1.086,11.077,1.682c3.773,0.597,7.373,1.182,10.028,1.618c2.657,0.437,4.37,0.724,4.37,0.724
							s0.46,0.068,1.216,0.172c0.755,0.103,1.805,0.238,2.982,0.375s2.484,0.337,3.752,0.438c1.268,0.1,2.497,0.229,3.521,0.229
							c0.052,0,0.103,0,0.153,0s0.101-0.066,0.15-0.068c0.05,0,0.099-0.033,0.146-0.034c0.049-0.001,0.097-0.02,0.144-0.021
							c-0.52-0.828-1.433-1.607-2.621-2.311s-2.651-1.339-4.27-1.887c-1.618-0.547-3.393-1.011-5.203-1.373
							s-3.658-0.625-5.425-0.772c-1.77-0.149-5.349-0.667-9.721-1.376c-4.37-0.705-9.53-1.602-14.465-2.504
							c-4.932-0.902-9.637-1.813-13.104-2.552c-3.465-0.737-5.692-1.303-5.673-1.516c0.325-0.102,0.757-0.188,1.277-0.259
							s1.13-0.128,1.812-0.172s1.436-0.075,2.245-0.097c0.81-0.021,1.674-0.031,2.577-0.033c1.534-0.003,3.18,0.018,4.854,0.054
							s3.375,0.086,5.022,0.142c1.647,0.055,3.24,0.115,4.695,0.17s2.772,0.105,3.87,0.141c1.82-0.156,2.825-0.423,3.272-0.751
							c0.446-0.328,0.336-0.717-0.072-1.116c-0.409-0.399-1.116-0.809-1.862-1.18c-0.747-0.37-1.532-0.701-2.1-0.943
							c-0.541-0.23-2.177-0.402-4.488-0.529c-2.312-0.128-5.298-0.211-8.541-0.264c-3.242-0.054-6.741,0.089-10.076,0.081
							c-3.335-0.01-6.506,0.17-9.093,0.17c-0.104,0-0.208,0-0.311,0s-0.204,0-0.305,0c-0.1,0-0.199,0-0.298,0s-0.196,0-0.292,0
							c-3.878,0-7.044-0.549-9.628-1.061c-2.584-0.514-4.586-1.289-6.138-2.066c-1.55-0.777-2.649-1.679-3.43-2.525
							c-0.779-0.845-1.24-1.696-1.515-2.418c-0.94-0.508-2.775-2.75-5.107-5.987c-2.325-3.229-5.14-7.459-8.049-11.974
							c-2.897-4.497-5.887-9.282-8.585-13.658c-2.687-4.359-5.086-8.32-6.82-11.203c2.401,0.158,4.809,0.3,7.216,0.425
							s4.815,0.232,7.22,0.326s4.806,0.172,7.199,0.234c2.394,0.063,4.779,0.112,7.153,0.147c2.835,2.378,8.152,6.286,14.553,10.823
							c6.425,4.555,13.947,9.748,21.141,14.66c7.223,4.934,14.111,9.582,19.203,13.004c5.106,3.432,8.396,5.622,8.396,5.622
							s-1.073-0.157-2.912-0.392c-1.839-0.233-4.444-0.546-7.509-0.857c-3.065-0.311-6.59-0.621-10.27-0.852
							s-7.516-0.381-11.201-0.374c-0.162,0.001-0.323,0.001-0.484,0.002s-0.322,0.002-0.482,0.004
							c-0.16,0.001-0.32,0.003-0.479,0.005c-0.16,0.003-0.319,0.005-0.479,0.008c-5.06,0.34-7.863,0.833-9.224,1.383
							c-1.361,0.549-1.276,1.154-0.558,1.717c0.719,0.563,2.072,1.085,3.246,1.465c1.174,0.381,2.168,0.619,2.168,0.619
							s0,0,0.313,0.019c0.313,0.019,0.938,0.055,2.191,0.128c1.253,0.072,3.131,0.182,5.949,0.346s6.576,0.383,11.587,0.674
							c5.013,0.292,9.041,0.556,12.333,0.817c3.293,0.261,5.851,0.521,7.924,0.803c2.072,0.283,3.66,0.59,5.013,0.945
							c1.354,0.356,2.472,0.763,3.605,1.243c1.135,0.483,3.012,1.357,5.323,2.479c2.313,1.123,5.062,2.491,7.935,3.961
							c2.876,1.471,5.878,3.042,8.692,4.566c2.817,1.526,5.446,3.006,7.572,4.289c0.813,0.489,1.517,0.904,2.125,1.25
							s1.12,0.624,1.551,0.84c0.43,0.217,0.776,0.371,1.055,0.473c0.277,0.101,0.485,0.146,0.638,0.146
							c0.246-0.001,0.345-0.125,0.352-0.341s-0.077-0.524-0.196-0.895c-0.119-0.369-0.273-0.801-0.407-1.263
							c-0.133-0.461-0.245-0.954-0.279-1.446c-0.054-0.797-0.333-1.564-0.722-2.267c-0.388-0.701-0.885-1.338-1.376-1.875
							c-0.49-0.537-0.974-0.975-1.334-1.277s-0.599-0.472-0.599-0.472l-17.651-11.577c0,0,2.49,0.492,6.38,1.243
							c3.891,0.751,9.186,1.76,14.79,2.792c5.608,1.032,11.528,2.087,16.662,2.929c5.138,0.841,9.486,1.469,11.947,1.645
							c0.225,0.016,0.439,0.03,0.645,0.041c0.206,0.013,0.403,0.021,0.591,0.029c0.188,0.008,0.367,0.013,0.539,0.017
							c0.171,0.003,0.333,0.005,0.487,0.004c1.539-0.003,2.27-0.193,2.5-0.476c0.229-0.282-0.041-0.657-0.503-1.032
							c-0.463-0.375-1.117-0.749-1.655-1.029c-0.539-0.28-0.962-0.467-0.962-0.467l-10.448-1.428l-22.871-5.741
							c0,0,0.276,0.013,0.775,0.033s1.221,0.047,2.11,0.073c0.891,0.025,1.948,0.052,3.12,0.07s2.458,0.03,3.804,0.027
							c0.652-0.002,1.319-0.006,1.994-0.015s1.357-0.022,2.042-0.04s1.37-0.041,2.052-0.069s1.358-0.063,2.024-0.103
							c2.038-0.125,3.019-0.365,3.342-0.656c0.324-0.29-0.008-0.631-0.595-0.956c-0.586-0.324-1.427-0.634-2.121-0.861
							c-0.694-0.229-1.241-0.375-1.241-0.375s-0.154-0.005-0.473-0.011s-0.802-0.015-1.459-0.022
							c-0.657-0.009-1.489-0.016-2.505-0.021c-1.017-0.006-2.218-0.008-3.613-0.005c-0.854,0.002-1.783,0.005-2.786,0.012
							c-1.004,0.006-2.082,0.015-3.239,0.025c-1.156,0.012-2.392,0.026-3.706,0.044c-1.315,0.019-2.71,0.04-4.188,0.065
							c-0.12,0.002-0.239,0.004-0.358,0.006c-0.118,0.001-0.237,0.303-0.355,0.305c-0.118,0-0.236,0.303-0.354,0.303
							c-0.118,0-0.234,0-0.352,0c-3.672,0-6.973-0.514-10.019-0.928s-5.836-1.167-8.488-1.924c-2.651-0.756-5.165-1.741-7.659-2.764
							c-2.493-1.022-4.966-2.193-7.537-3.404c-1.996-0.94-5.233-3.029-9.168-5.764c-3.926-2.728-8.541-6.123-13.306-9.711
							c-4.751-3.577-9.649-7.355-14.166-10.877c-4.503-3.511-8.629-6.773-11.858-9.342c6.996-0.068,13.791-0.24,20.27-0.486
							c6.475-0.246,12.633-0.566,18.359-0.933c5.723-0.364,11.014-0.775,15.761-1.203c4.744-0.427,8.944-0.871,12.487-1.304
							c17.931-2.022,33.551-5.219,46.991-8.971c13.385-3.735,24.597-8.019,33.792-12.241c9.154-4.205,16.313-8.352,21.645-11.85
							c5.313-3.484,8.817-6.328,10.684-7.95c6.517-5.079,10.766-9.91,13.401-14.383c2.624-4.453,3.651-8.556,3.725-12.196
							c0.072-3.629-0.804-6.805-1.994-9.419c-1.188-2.607-2.69-4.659-3.881-6.047c-0.2-0.689-0.257-1.391-0.227-2.067
							c0.029-0.676,0.146-1.327,0.288-1.918c0.144-0.589,0.314-1.117,0.456-1.548s0.254-0.763,0.278-0.962
							c-0.099-1.158,0.787-2.7,2.227-4.403c1.438-1.701,3.427-3.563,5.539-5.365c2.108-1.8,4.34-3.541,6.271-5.008
							c1.927-1.465,3.555-2.656,4.462-3.358c0.33-0.124,0.641-0.25,0.936-0.377c0.295-0.128,0.571-0.258,0.832-0.39
							s0.504-0.266,0.732-0.402c0.228-0.136,0.439-0.273,0.635-0.414c1.881,0.163,3.717,0.302,5.495,0.419
							c1.778,0.115,3.5,0.209,5.153,0.283c1.652,0.073,3.238,0.127,4.743,0.162c1.506,0.035,2.932,0.053,4.267,0.056
							c1.963,0.003,3.729-0.026,5.264-0.083c1.534-0.056,2.838-0.138,3.874-0.238c1.036-0.1,1.806-0.219,2.273-0.349
							s0.634-0.271,0.463-0.416c-0.524-0.505-1.618-1.065-3.02-1.637s-3.109-1.154-4.862-1.706c-1.752-0.551-3.55-1.07-5.13-1.516
							s-2.943-0.815-3.829-1.068c-0.475-0.135-1.303-0.347-2.383-0.613s-2.411-0.588-3.89-0.939
							c-1.478-0.353-3.104-0.735-4.773-1.127c-1.669-0.391-3.382-0.789-5.036-1.173c-0.153-0.17-0.305-0.336-0.453-0.497
							c-0.147-0.162-0.292-0.319-0.431-0.473c-0.14-0.153-0.273-0.303-0.401-0.446s-0.249-0.283-0.363-0.417
							c-4.108-5.025-9.748-8.931-16.182-11.981c-6.416-3.042-13.634-5.239-20.924-6.849c-7.28-1.606-14.641-2.629-21.348-3.317
							c-6.705-0.688-12.76-1.045-17.428-1.319c-0.503-0.034-1.006-0.064-1.509-0.09c-0.502-0.025-1.005-0.047-1.507-0.064
							s-1.003-0.031-1.504-0.04S544.988,317.638,544.488,317.637"/>
					</g>
				</g>
			</g>
		</g>
		<g>
			<path id="patted_25_" fill="#8E8D8D" d="M411,414.443c0,0,37.518,69.185,46.886,78.554c9.37,9.369,17.318,16.3,32.486,15.854
				c15.17-0.445,21.375-0.083,21.375-0.083s8.012,4.39-0.019,5.281c-8.031,0.893-17.411-0.025-17.411-0.025l20.964,10.694
				l9.814,2.671c0,0,7.136,6.688-2.233,5.35s-46.399-16.063-46.399-16.063l14.722,21.36c0,0,3.123,4.96,2.678,10.761
				c-0.446,5.799,2.23,11.6-4.908,2.23s-21.415-24.538-25.431-28.107c-4.014-3.568-8.03-4.907-27.214-7.138
				c-19.185-2.23-19.185-2.23-19.185-2.23s-14.722-7.139,5.131-9.592c14.723-0.447,32.345,4.684,32.345,4.684
				s-53.537-78.585-55.767-87.507c-2.231-8.924-2.231-8.096-2.231-8.096h14.723L411,414.443z"/>
			<path id="patteg_26_" fill="#C7C1C5" d="M370.277,413.616c0,0,19.036,85.51,23.2,90.27c0.596,5.354,3.794,13.979,18.74,14.425
				c9.593,0,30.115-0.038,32.121,1.746c2.009,1.785,7.139,6.228,0,7.344c-6.691-0.447-21.859-2.017-25.429-0.009
				c-0.223,1.562,33.236,13.602,39.93,14.718c6.692,1.115,14.277,5.574,15.614,11.598c-3.792,0.223-11.375-2.01-11.375-2.01
				s-25.432-8.477-30.785-9.146s-32.345-11.155-32.345-11.155s-2.678,0.446-0.669,4.909c2.006,4.461,10.708,19.406,10.484,25.651
				c-0.223,6.247-0.894,9.815-0.894,9.815s-1.783,9.592-8.253-1.784c-4.016-11.376-3.569-14.276-3.569-14.276
				s-6.246-16.954-9.369-20.3s-1.114-10.261-25.651-18.96c-8.479-3.347-14.725-7.809-14.725-7.809s-3.346-10.707,9.146-5.354
				c8.03,4.016,18.992,8.7,18.992,8.7s7.554,5.278,4.653-3.645s-22.53-94.729-22.53-94.729H370.277z"/>
			<path id="queue_26_" fill="#28261F" d="M203.154,382.162c0,0-139.977,51.153-179.036,91.078c-3.743,3.743-3.743,4.99,5.614,5.614
				c5.615,0,21.833-3.119,21.833-3.119s-4.99,4.99,4.99,3.119c11.697,2.495,226.448-92.326,252.024-96.692
				C301.094,370.933,236.216,355.338,203.154,382.162z"/>
			<path id="corps_23_" fill="#F2B903" d="M629.223,245.545c0,0,18.092,39.925-21.833,91.079
				c-9.357,13.1-50.529,65.5-123.517,81.096c-24.329,5.614-78.29,12.164-125.544,2.807c-24.329,0.469-103.866,7.019-147.846-1.871
				c-6.082-7.018-6.438-35.556,12.165-47.723c8.679-15.276,41.927-48.685,51.933-56.611c25.577-26.044,90.143-63.785,90.143-63.785
				s72.675-45.228,111.039-55.053C496.817,196.419,585.712,180.979,629.223,245.545z"/>
			<path id="tete_11_" fill="#F2B903" d="M472.021,197.355c0,0,27.136-23.861,32.75-33.687s46.787-51.934,83.748-46.787
				c19.65,2.34,62.694,7.486,73.923,51.466c1.871,7.018,7.954,20.586-4.211,29.008c-4.679,6.082-23.861,29.007-24.797,38.832
				c-0.468,2.34-4.995,13.526-1.252,20.076c-5.146,3.743-138.64-16.801-160.161-57.037"/>
			<path id="aile_29_" fill="#DBA305" d="M562.318,261.921c0,0,41.64,34.621,15.439,67.372
				c-11.229,16.843-72.52,29.943-94.041,33.687s-150.652,17.311-180.128,16.843c-29.008-0.468-98.72,6.551-93.573,4.679
				c5.146-1.871-18.48-2.105,6.784-15.674c18.715-11.696,21.288-22.223,32.517-28.306c5.614-2.807,101.604-86.633,161.959-103.943
				C422.036,234.239,504.771,208.584,562.318,261.921z"/>
			<path id="bec_29_" fill="#C7C1C5" d="M652.929,166.944c0,0,23.081,11.541,26.512,13.724c3.432,2.184,14.348,8.422,15.907,12.789
				c0.936,2.183-15.595,4.055-35.869,0c-6.239-0.313-21.521-1.873-26.2-1.249c-2.184-0.623-2.184-4.99-10.605-5.302
				c-2.807,0.937-6.862-4.055,9.98-8.109C639.203,177.55,637.957,182.539,652.929,166.944z"/>
			<radialGradient id="oeil_32_" cx="584.6191" cy="162.5762" r="20.4346" gradientUnits="userSpaceOnUse">
				<stop  offset="0" style="stop-color:#FFFFFF"/>
				<stop  offset="0.1386" style="stop-color:#D5D4D3"/>
				<stop  offset="0.2079" style="stop-color:#494340"/>
				<stop  offset="0.3663" style="stop-color:#28201D"/>
				<stop  offset="1" style="stop-color:#231B18"/>
			</radialGradient>
			<path id="oeil_22_" fill="url(#oeil_32_)" d="M595.749,164.011c3.096,7.673,0.273,16.044-6.304,18.698
				s-14.418-1.415-17.514-9.088c-3.097-7.674-0.274-16.046,6.302-18.699C584.811,152.269,592.652,156.337,595.749,164.011z"/>
			<path fill="#28261F" d="M579.467,326.711c0,0-10.402,28.91-137.193,41.543C463.327,354.686,560.752,343.554,579.467,326.711z"/>
			<path fill="#28261F" d="M477.167,302.157c0,0-30.411,21.521-62.694,20.118C414.473,319.936,464.066,305.899,477.167,302.157z"/>
			<path fill="#28261F" d="M372.833,285.781c1.871,0.937-1.404,8.422,7.018,10.761c-14.036,3.743-47.722,6.551-57.547,5.615
				c0.468-0.936,2.339-2.808,7.018-4.211C334,296.542,372.833,285.781,372.833,285.781z"/>
			<path fill="#28261F" d="M426.124,264.124c0,0-29.507,10.828-40.229,8.316c-4.386,0.503-9.253-2.332-2.013-6.658
				s15.387-5.113,15.387-5.113s5.162-2.432,9.053,2.755C410.635,264.006,426.124,264.124,426.124,264.124z"/>
			<path fill="#28261F" d="M388.272,298.882c0,0-2.34,3.743,2.807,7.018c5.146,3.275-123.516,28.54-133.809,28.54
				c6.082-5.029,19.231-15.858,25.122-19.793C289.41,320.261,348.036,312.45,388.272,298.882z"/>
			<path fill="#28261F" d="M358.174,323.834c0,0-47.913,14.907-64.878,18.715c-17.215,6.093-25.967,9.202-41.484,7.798
				c-2.495-0.936-0.937-11.924,12.164-12.979C279.883,339.118,358.174,323.834,358.174,323.834z"/>
			<path fill="#28261F" d="M249.983,340.154c0,0-5.813,26.568,20.387,22.357c11.697-1.872,53.88-7.486,53.88-7.486l-31.89,7.952
				c0,0,2.807,5.616,21.521,2.341c18.715-3.274,134.745-17.311,139.424-20.586c2.807-0.936,7.746,3.045-4.679,3.275
				c-12.165,3.274-167.964,27.604-176.386,27.604c18.715-0.936,50.063,4.211,50.063,4.211s-85.152,0.468-104.802,4.211
				c-8.421,0.468-40.704-0.468,7.018-24.797C236.216,351.751,244.447,341.525,249.983,340.154z"/>
			<path fill="#28261F" d="M269.902,360.172c0,0,63.318-14.036,88.271-14.036c14.659-1.871,70.803-8.878,70.803-8.878
				s25.732-1.883,29.943,3.731c0.936,2.34-10.293,0-21.989,0C425.233,340.989,275.517,360.172,269.902,360.172z"/>
			<path fill="#28261F" d="M518.807,316.661c0,0,2.34,4.81,4.679,5.68c2.34,0.87-33.687,17.268-52.869,14.917
				C479.974,333.504,516.936,322.275,518.807,316.661z"/>
			<path fill="#28261F" d="M526.761,323.834l3.274,3.24c0,0-28.085,17.428-42.107,13.915
				C494.01,339.118,525.825,329.137,526.761,323.834z"/>
			<path fill="#28261F" d="M457,350.347v3.743c0,0-117.902,22.458-146.91,19.183C342.373,369.529,454,353.622,457,350.347z"/>
			<path fill="#28261F" d="M456.68,356.897l-1.971,3.274c0,0-117.854,20.755-141.952,18.253
				C327.918,375.611,450.227,362.512,456.68,356.897z"/>
			<path fill="#28261F" d="M484.652,310.11c0.694-2.914,3.275,4.679,3.275,4.679s-25.265,19.183-53.805,15.907
				C443.948,328.825,482.313,319.936,484.652,310.11z"/>
			<path fill="#28261F" d="M502.432,312.249l6.55,4.412c0,0-40.117,21.308-51.933,17.778
				C463.599,331.633,504.303,315.323,502.432,312.249z"/>
			<path fill="#28261F" d="M399.501,306.368c0,0,30.879-15.242,40.236-15.575s17.312,2.808,10.761,7.787
				C443.948,303.561,405.583,310.11,399.501,306.368z"/>
			<path fill="#28261F" d="M383.098,287.354c0,0,32.005-12.709,41.358-12.288s17.028,4.189,10.101,8.627
				C427.626,288.13,388.859,291.573,383.098,287.354z"/>
			<path fill="#28261F" d="M414.473,331.073c0,0,31.157-0.134,0,5.881s-95.808,13.727-95.808,13.727
				S388.733,331.079,414.473,331.073z"/>
		</g>
	</g>
</g>
<g id="tyran_gris">
</g>
<g id="sporophile_cici">
</g>
<g id="tourterelle_à_queue_carree">
</g>
<g id="colobri_huppé">
</g>
<g id="cécerelle_d_x27_amerique">
</g>
<g id="heron_vert">
</g>
<g id="pic_de_la_guadeloupe">
</g>
<g id="héron_garde-boeufs">
</g>
<g id="photos">
</g>
<g id="solitaire_siffleur">
</g>
<g id="tyran_janeau">
</g>
<g id="colibri_fallevert">
</g>
<g id="colombe_a_queue_noire">
</g>
</svg>
