<?xml version="1.0" encoding="utf-8"?>
<!-- Generator: Adobe Illustrator 16.0.0, SVG Export Plug-In . SVG Version: 6.00 Build 0)  -->
<!DOCTYPE svg PUBLIC "-//W3C//DTD SVG 1.1//EN" "http://www.w3.org/Graphics/SVG/1.1/DTD/svg11.dtd">
<svg version="1.1" xmlns="http://www.w3.org/2000/svg" xmlns:xlink="http://www.w3.org/1999/xlink" x="0px" y="0px" width="732px"
	 height="692px" viewBox="0 0 732 692" enable-background="new 0 0 732 692" xml:space="preserve">
<g id="Calque_1" display="none">
	<rect x="248.41" y="642.121" display="inline" fill="none" width="415.59" height="37.879"/>
	<text transform="matrix(1 0 0 1 248.4102 666.9707)" display="inline" font-family="'MyriadPro-Regular'" font-size="35">Héron vert</text>
</g>
<g id="colombe_à_croissant">
</g>
<g id="colombe_rouviolette">
</g>
<g id="colibri_madere">
</g>
<g id="colibri_à_tête_bleue">
</g>
<g id="elenie_siffleuse">
</g>
<g id="grive_à_pieds_jaunes">
</g>
<g id="merle_à_lunette">
</g>
<g id="moucherolle_gobemouche">
</g>
<g id="moqueur_corossol">
</g>
<g id="moqueur_grivotte">
</g>
<g id="trembleur_brun">
</g>
<g id="trembleur_gris">
</g>
<g id="paruline_cafeite">
</g>
<g id="saltator_gros_bec">
</g>
<g id="soporophile_rouge-gorge">
</g>
<g id="sucrier_à_ventre_jaune">
</g>
<g id="vachet_luisant">
</g>
<g id="vireo_a_moustaches">
</g>
<g id="merle_quiscale">
</g>
<g id="paruline_jaune">
</g>
<g id="tyran_gris">
</g>
<g id="sporophile_cici">
</g>
<g id="tourterelle_à_queue_carree">
</g>
<g id="colobri_huppé">
</g>
<g id="cécerelle_d_x27_amerique">
</g>
<g id="heron_vert">
	<g>
		<g opacity="0.3">
			<g>
				<g enable-background="new    ">
					<defs>
						<polygon id="SVGID_63_" enable-background="new    " points="54.366,641.389 40.784,303.488 604.183,305.146 691.217,639.266 
													"/>
					</defs>
					<clipPath id="SVGID_2_">
						<use xlink:href="#SVGID_63_"  overflow="visible"/>
					</clipPath>
					<g clip-path="url(#SVGID_2_)">
						<path fill="#959595" d="M420.527,304.605c-13.298-0.039-24.336,1.16-33.526,3.069c-9.209,1.909-16.573,4.529-22.492,7.324
							c-5.933,2.8-10.415,5.771-13.84,8.375c-3.433,2.605-5.799,4.838-7.494,6.145c-0.398,0.304-0.841,0.615-1.326,0.931
							c-0.485,0.316-1.011,0.635-1.57,0.959c-0.561,0.323-1.155,0.649-1.777,0.976c-0.622,0.325-1.274,0.654-1.946,0.983
							c-0.381,0.176-0.759,0.351-1.133,0.524c-0.375,0.172-0.746,0.344-1.112,0.511c-0.363,0.169-0.724,0.333-1.077,0.495
							c-0.354,0.164-0.702,0.321-1.041,0.478c-2.12,0.924-4.306,1.814-6.389,2.631c-2.085,0.816-4.069,1.558-5.789,2.186
							c-1.72,0.627-3.173,1.137-4.196,1.49c-1.025,0.355-1.62,0.553-1.62,0.553s0.038-0.01,0.104-0.03
							c0.07-0.022,0.17-0.052,0.304-0.095c0.132-0.039,0.297-0.092,0.488-0.151c0.194-0.06,0.415-0.13,0.662-0.206
							c-8.395,3.031-16.464,6.164-23.982,9.229c-7.536,3.073-14.518,6.077-20.71,8.835c-6.207,2.763-11.617,5.281-15.998,7.372
							c-4.388,2.096-7.737,3.763-9.813,4.825c-1.162,0.585-2.319,1.178-3.477,1.774c-1.157,0.598-2.31,1.2-3.462,1.808
							c-1.149,0.606-2.3,1.22-3.444,1.837c-1.146,0.617-2.29,1.239-3.427,1.866c-14.928,4.886-32.512,14.722-50.704,26.907
							c-18.374,12.307-37.433,27.056-54.962,41.518c-17.732,14.63-33.884,28.958-46.055,40.07
							C67.444,499,59.283,506.88,57.714,508.423c-2.628,2.596-4.541,4.719-5.86,6.441c-1.321,1.728-2.048,3.051-2.307,4.049
							c-0.259,0.998-0.05,1.67,0.501,2.093c0.55,0.424,1.441,0.596,2.544,0.593c0.982,0,2.133-0.14,3.36-0.36
							c1.228-0.222,2.533-0.525,3.825-0.856c1.292-0.334,2.57-0.694,3.746-1.028c1.175-0.333,2.248-0.642,3.126-0.871
							c1.486-0.301,3.237-0.659,5.219-1.064c1.981-0.408,4.195-0.864,6.606-1.364c2.41-0.5,5.018-1.043,7.79-1.623
							c2.771-0.579,5.706-1.196,8.771-1.844c-5.63,4.555-9.824,8.292-12.847,11.339c-3.03,3.057-4.88,5.41-5.823,7.192
							c-0.944,1.784-0.977,2.994-0.375,3.756c0.601,0.765,1.838,1.08,3.431,1.077c1.384-0.002,3.037-0.243,4.777-0.639
							c1.738-0.394,3.564-0.943,5.293-1.561c1.729-0.615,3.363-1.3,4.72-1.967s2.438-1.313,3.062-1.861
							c-0.167,0.727-0.226,1.347-0.186,1.864c0.039,0.518,0.177,0.936,0.402,1.262c0.224,0.329,0.536,0.565,0.923,0.72
							c0.387,0.151,0.85,0.224,1.377,0.224c1.716-0.003,4.114-0.774,6.807-1.993c2.691-1.22,5.675-2.888,8.568-4.682
							c2.89-1.792,5.688-3.711,8.017-5.441c2.325-1.727,4.182-3.265,5.192-4.298c0.203-0.209,0.436-0.436,0.695-0.675
							c0.26-0.238,0.546-0.495,0.857-0.761c0.311-0.269,0.645-0.55,1-0.844c0.355-0.292,0.731-0.598,1.126-0.911
							c1.341-0.426,4.921-1.565,9.613-3.063c4.686-1.496,10.478-3.345,16.254-5.197c5.767-1.847,11.519-3.693,16.143-5.188
							c4.618-1.494,8.114-2.639,9.382-3.082c1.427-0.072,2.874-0.154,4.323-0.241c1.449-0.089,2.9-0.187,4.333-0.294
							c1.432-0.104,2.688-0.216,4.064-0.338c1.374-0.119,2.833-0.249,3.833-0.383v0.004c0,0,1.902,1.352,4.604,3.622
							c2.706,2.274,6.456,5.473,10.309,9.158c3.86,3.698,7.944,7.89,11.373,12.139c3.442,4.258,6.285,8.576,7.688,12.503
							c0,0,2.164,3.415,5.479,8.642c3.33,5.244,7.841,12.33,12.517,19.627c4.699,7.337,9.575,14.891,13.582,20.996
							c4.027,6.127,7.174,10.781,8.381,12.255c0.565,0.691,0.927,1.257,1.119,1.715c0.191,0.46,0.217,0.813,0.117,1.08
							c-0.102,0.266-0.325,0.445-0.637,0.557c-0.311,0.115-0.707,0.162-1.147,0.162c-0.495,0.003-1.05-0.055-1.601-0.142
							c-0.55-0.087-1.098-0.204-1.582-0.321c-0.485-0.117-0.909-0.233-1.213-0.323c-0.301-0.087-0.482-0.145-0.482-0.145
							s-0.908-0.179-2.439-0.482c-1.53-0.304-3.683-0.734-6.169-1.242s-5.307-1.093-8.174-1.702
							c-2.867-0.612-5.779-1.25-8.454-1.861c-0.774-0.152-1.499-0.281-2.178-0.389c-0.683-0.107-1.316-0.194-1.906-0.262
							c-0.593-0.069-1.143-0.117-1.65-0.149c-0.511-0.032-0.979-0.044-1.411-0.044c-1.877,0.004-3.057,0.298-3.771,0.738
							c-0.715,0.441-0.963,1.028-0.979,1.613c-0.012,0.587,0.209,1.172,0.433,1.612c0.227,0.438,0.453,0.731,0.453,0.731
							s0.533,0.178,1.504,0.474c0.973,0.294,2.387,0.709,4.148,1.187c1.765,0.476,3.883,1.016,6.257,1.563
							c2.38,0.545,5.018,1.098,7.825,1.598c8.094,1.287,14.06,2.549,18.526,3.751c4.473,1.202,7.441,2.344,9.537,3.395
							c2.099,1.051,3.318,2.006,4.291,2.838c0.976,0.833,1.7,1.537,2.808,2.08c1.11,0.545,2.583,1.662,4.169,3.031
							c1.588,1.371,3.287,2.996,4.851,4.555c1.565,1.561,2.991,3.051,4.026,4.156c1.038,1.103,1.683,1.816,1.683,1.816
							s-0.01,0.125,0.077,0.434c0.087,0.307,0.274,0.797,0.67,1.525c0.396,0.732,1.003,1.703,1.931,2.972
							c0.929,1.272,2.178,2.843,3.863,4.771c0.905,0.699,1.737,1.279,2.499,1.755c0.764,0.475,1.458,0.848,2.088,1.135
							c0.632,0.283,1.202,0.482,1.715,0.607c0.513,0.127,0.971,0.182,1.376,0.179c0.704-0.003,1.257-0.172,1.69-0.426
							c0.43-0.254,0.744-0.59,0.968-0.926c0.222-0.336,0.358-0.672,0.438-0.926c0.079-0.251,0.104-0.418,0.104-0.418
							s0.022-0.157,0.048-0.456c0.024-0.301,0.052-0.744,0.063-1.323c0.007-0.58-0.003-1.292-0.05-2.131
							c-0.05-0.836-0.137-1.797-0.286-2.869c-0.145-1.075-1.083-2.504-2.457-4.087c-1.371-1.583-3.178-3.32-5.064-5.018
							c-1.884-1.695-3.851-3.348-5.54-4.761c-1.69-1.411-3.106-2.589-3.9-3.33c-0.791-0.742-1.177-1.321-1.307-1.774
							c-0.132-0.453-0.007-0.779,0.214-1.011c0.222-0.234,0.543-0.374,0.81-0.456c0.264-0.082,0.475-0.104,0.475-0.104
							s2.243,0.393,5.715,0.987c3.475,0.598,8.181,1.394,13.104,2.203c4.928,0.806,10.072,1.622,14.418,2.257
							c4.351,0.635,7.899,1.086,9.632,1.157c1.734,0.075,5.142,0.446,9.28,0.956s9.008,1.165,13.661,1.81
							c4.657,0.645,9.097,1.281,12.372,1.755c3.278,0.475,5.391,0.788,5.391,0.788s0.525,0.067,1.389,0.17
							c0.866,0.099,2.073,0.233,3.439,0.368c1.367,0.135,2.893,0.269,4.398,0.368c1.503,0.1,2.986,0.164,4.266,0.159
							c0.119,0,0.239-0.002,0.355-0.002c0.117-0.003,0.234-0.006,0.347-0.008c0.111-0.002,0.224-0.008,0.333-0.01
							c0.107-0.005,0.214-0.01,0.318-0.016c-0.669-1.018-1.818-1.953-3.303-2.797c-1.485-0.844-3.302-1.591-5.311-2.23
							c-2.006-0.639-4.201-1.167-6.437-1.572c-2.237-0.403-4.517-0.685-6.692-0.824c-2.175-0.139-6.588-0.691-11.98-1.461
							c-5.389-0.767-11.758-1.75-17.851-2.748c-6.087-0.995-11.901-2.008-16.187-2.837c-4.283-0.831-7.041-1.476-7.026-1.742
							c0.527-0.182,1.292-0.331,2.24-0.453s2.08-0.216,3.347-0.288c1.27-0.072,2.671-0.125,4.157-0.157
							c1.488-0.034,3.059-0.052,4.666-0.055c1.633-0.005,3.3,0.003,4.953,0.018c1.652,0.018,3.287,0.04,4.855,0.064
							c1.565,0.025,3.063,0.055,4.44,0.08c1.379,0.024,2.633,0.044,3.715,0.06c2.229-0.241,3.447-0.6,3.982-1.021
							s0.384-0.901-0.134-1.389c-0.516-0.485-1.399-0.979-2.33-1.419c-0.928-0.443-1.903-0.834-2.605-1.12
							c-0.329-0.132-0.971-0.241-1.867-0.328c-0.898-0.09-2.053-0.157-3.404-0.206c-1.352-0.053-2.902-0.085-4.589-0.105
							c-1.69-0.02-3.518-0.024-5.426-0.02c-2.195,0.005-4.495,0.025-6.814,0.055c-2.317,0.027-4.654,0.064-6.922,0.107
							c-2.268,0.042-4.462,0.432-6.501,0.477c-2.035,0.045-3.915,0.469-5.542,0.469c-0.035,0-0.07,0-0.103,0
							c-0.034,0-0.069,0-0.102,0c-0.035,0-0.067,0-0.103,0c-0.032,0-0.067,0-0.1,0c-4.687,0-8.523-0.676-11.667-1.254
							c-3.144-0.576-5.593-1.561-7.499-2.486c-1.906-0.924-3.273-2.045-4.251-3.07c-0.979-1.025-1.568-2.085-1.929-2.971
							c-1.257-0.649-3.841-3.734-7.121-8.146c-3.272-4.398-7.229-10.139-11.257-16.144c-4.012-5.98-8.086-12.238-11.625-17.733
							c-3.524-5.473-6.519-10.199-8.388-13.168c-0.082-0.232-0.187-0.479-0.311-0.733c-0.125-0.254-0.271-0.519-0.443-0.798
							c-0.172-0.276-0.368-0.564-0.592-0.863c-0.222-0.301-0.471-0.612-0.75-0.936c-1.391-3.423-2.519-7.348-3.521-11.416
							c-1-4.058-1.876-8.256-2.763-12.243c-0.883-3.978-1.781-7.745-2.827-10.961c-1.04-3.205-2.232-5.86-3.711-7.626
							c7.822-1.431,15.414-3.031,22.748-4.748c7.322-1.713,14.386-3.539,21.157-5.428c6.76-1.885,13.321-3.831,19.47-5.785
							c6.141-1.951,11.521-3.907,17.521-5.82v0.007c0,0,1.369,1.872,3.586,5.045c2.227,3.184,5.178,7.681,8.246,12.927
							c3.081,5.267,6.221,11.295,8.752,17.507c2.543,6.239,4.442,12.668,4.997,18.69l0.259,0.048
							c0.047,0.04,0.118,0.102,0.228,0.204c0.11,0.1,0.256,0.238,0.444,0.428c0.189,0.189,0.421,0.428,0.705,0.734
							c0.283,0.304,0.62,0.672,1.018,1.117c0.14,0.162,0.291,0.331,0.455,0.513c0.161,0.182,0.336,0.376,0.52,0.58
							c0.182,0.204,0.374,0.418,0.575,0.647c0.202,0.227,0.411,0.465,0.625,0.719c1.192,1.379,7.307,5.307,15.836,10.438
							c8.557,5.149,19.555,11.521,30.448,17.74c10.937,6.244,21.763,12.34,29.873,16.882c8.134,4.557,13.518,7.541,13.518,7.541
							s-0.844-0.074-2.332-0.189c-1.488-0.111-3.627-0.264-6.215-0.413c-2.586-0.149-5.627-0.296-8.923-0.405
							c-3.297-0.109-6.852-0.18-10.468-0.172c-1.125,0.002-2.257,0.013-3.39,0.032c-1.135,0.018-2.268,0.045-3.395,0.082
							c-1.128,0.038-2.247,0.085-3.357,0.145c-1.11,0.058-2.21,0.127-3.29,0.209c-6.031,0.769-9.304,1.573-10.819,2.345
							c-1.516,0.773-1.271,1.516-0.273,2.162c0.998,0.645,2.753,1.479,4.258,1.867c1.506,0.391,2.763,0.9,2.763,0.9s0,0,0.381,0
							c0.384,0,1.147-0.281,2.678-0.275c1.531,0.002,3.826-0.134,7.266-0.126c3.441,0.01,8.028-0.048,14.144-0.032
							c6.115,0.012,11.033,0.024,15.063,0.121c4.029,0.095,7.173,0.221,9.736,0.426c2.563,0.207,4.55,0.465,6.262,0.811
							c1.712,0.347,3.153,0.767,4.629,1.284c1.479,0.516,3.94,1.464,6.979,2.688c3.041,1.225,6.662,2.721,10.455,4.334
							c3.798,1.615,7.768,3.344,11.498,5.025c3.738,1.688,7.237,3.328,10.088,4.76c1.06,0.535,1.98,0.987,2.777,1.365
							c0.796,0.379,1.468,0.683,2.033,0.922c0.563,0.236,1.016,0.408,1.379,0.518c0.36,0.111,0.63,0.164,0.823,0.161
							c0.326,0,0.436-0.149,0.406-0.41c-0.027-0.262-0.194-0.635-0.421-1.085c-0.229-0.448-0.516-0.977-0.784-1.543
							c-0.269-0.568-0.518-1.176-0.672-1.79c-0.249-0.978-0.759-1.903-1.389-2.74c-0.627-0.839-1.369-1.588-2.081-2.215
							c-0.711-0.627-1.394-1.133-1.896-1.483c-0.502-0.349-0.826-0.54-0.826-0.54l-23.885-13.052c0,0,3.111,0.436,7.967,1.093
							c4.855,0.659,11.456,1.538,18.435,2.425c6.983,0.886,14.341,1.779,20.704,2.463c6.364,0.686,11.732,1.16,14.729,1.207
							c0.079,0.003,0.161,0.345,0.241,0.345c0.08,0.003,0.156,0.345,0.236,0.345c0.077,0,0.152,0,0.229,0c0.075,0,0.149,0,0.222,0
							c2.624,0,3.958-0.581,4.485-0.932c0.525-0.349,0.244-0.984-0.363-1.447s-1.543-1.009-2.327-1.353
							c-0.781-0.346-1.414-0.622-1.414-0.622l-12.874-1.062l-28.823-5.515c0,0,0.741-0.012,2.006-0.036
							c1.265-0.027,3.049-0.075,5.14-0.16c2.088-0.082,4.479-0.204,6.956-0.378c2.474-0.172,5.032-0.399,7.456-0.693
							c2.422-0.294,3.547-0.657,3.87-1.038c0.324-0.38-0.154-0.778-0.933-1.14c-0.779-0.361-1.862-0.685-2.748-0.916
							c-0.886-0.233-1.578-0.378-1.578-0.378s-0.485,0.013-1.503,0.055s-2.568,0.114-4.701,0.229
							c-2.133,0.113-4.851,0.273-8.198,0.49c-3.351,0.216-7.33,0.494-11.994,0.846c-0.622,0.045-1.234,0.087-1.842,0.122
							c-0.604,0.034-1.204,0.062-1.794,0.087c-0.593,0.022-1.178,0.04-1.755,0.053c-0.577,0.012-1.149,0.02-1.715,0.02
							c-3.676,0.008-7.08-0.212-10.311-0.62c-3.229-0.407-6.279-1.005-9.249-1.752c-2.969-0.744-5.854-1.638-8.753-2.641
							c-2.899-1-5.812-2.11-8.83-3.29c-3.482-1.359-10.061-5.027-17.95-9.751c-7.867-4.709-17.025-10.464-25.719-16.028
							c-8.664-5.545-16.867-10.903-22.896-14.868c-6.01-3.955-9.867-6.528-9.867-6.528l0.066-0.926l-0.254,0.013
							c-0.368-2.054-0.923-5.776-1.483-10.313c-0.558-4.522-1.117-9.849-1.498-15.135c-0.381-5.267-0.582-10.496-0.431-14.858
							c0.154-4.351,0.66-7.85,1.697-9.682c0.699-1.043,1.382-2.372,1.964-3.923c0.583-1.547,1.067-3.314,1.369-5.233
							c0.299-1.919,0.418-3.987,0.273-6.14c-0.145-2.148-0.55-4.381-1.302-6.633c2.867-1.237,5.657-2.469,8.368-3.691
							c2.707-1.222,5.338-2.437,7.895-3.644c2.551-1.207,5.029-2.404,7.434-3.594s4.733-2.372,6.993-3.544
							c-0.102,0.102-0.201,0.201-0.296,0.301c-0.097,0.098-0.188,0.191-0.281,0.284c-0.089,0.095-0.177,0.185-0.259,0.271
							c-0.084,0.089-0.164,0.174-0.241,0.256c5.809-2.13,11.416-4.833,16.72-7.864c5.291-3.026,10.279-6.377,14.868-9.816
							c4.575-3.43,8.749-6.946,12.432-10.313c3.674-3.357,6.857-6.565,9.46-9.397c2.203-2.282,4.14-4.505,5.834-6.668
							c1.695-2.16,3.151-4.258,4.393-6.291c1.242-2.031,2.272-4,3.119-5.899c0.846-1.898,1.506-3.73,2.008-5.492
							c1.19-3.229,1.852-6.07,2.128-8.567c0.276-2.488,0.17-4.634-0.184-6.476c-0.351-1.839-0.946-3.377-1.647-4.649
							c-0.699-1.271-1.506-2.281-2.28-3.068c-0.521-0.998-1.055-1.881-1.563-2.648c-0.508-0.764-0.991-1.408-1.409-1.929
							c-0.415-0.52-0.767-0.913-1.013-1.18c-0.249-0.266-0.391-0.4-0.391-0.4c-0.112-0.162-0.212-0.326-0.304-0.487
							c-0.09-0.162-0.169-0.324-0.239-0.486c-0.069-0.158-0.132-0.32-0.182-0.479c-0.052-0.162-0.095-0.321-0.129-0.48
							c0.114-0.436,0.169-0.94,0.309-1.536c0.139-0.595,0.36-1.279,0.812-2.072c0.447-0.792,1.122-1.693,2.165-2.724
							c1.04-1.03,2.448-2.185,4.368-3.489c0.823-0.518,1.68-1.027,2.551-1.525s1.757-0.983,2.643-1.456
							c0.884-0.471,1.768-0.931,2.631-1.376s1.71-0.877,2.521-1.292c6-0.54,12.073-1.088,18.019-1.612
							c5.946-0.523,11.765-1.023,17.263-1.472c5.493-0.445,10.667-0.839,15.324-1.149c4.653-0.309,8.793-0.535,12.223-0.647
							c3.395,0.011,9.311-0.264,16.267-0.682c6.954-0.416,14.948-0.974,22.511-1.53c7.562-0.558,14.689-1.118,19.929-1.536
							c5.236-0.418,8.584-0.699,8.584-0.699s1.354-0.206,2.78-0.57c1.423-0.36,2.919-0.878,3.203-1.493
							c0.281-0.612-0.647-1.326-4.067-2.083c-3.417-0.757-9.325-1.558-19.002-2.35c-2.504-0.177-5.103-0.328-7.785-0.458
							c-2.683-0.129-5.448-0.236-8.282-0.32c-2.835-0.085-5.74-0.149-8.701-0.194c-2.959-0.045-5.979-0.072-9.04-0.08
							c-5.365-0.015-10.866,0.022-16.426,0.103c-5.563,0.082-11.189,0.204-16.805,0.36c-5.62,0.154-11.228,0.341-16.755,0.553
							c-5.53,0.209-10.98,0.44-16.276,0.682c-0.234-0.089-0.461-0.177-0.677-0.261c-0.217-0.082-0.426-0.164-0.625-0.242
							c-0.197-0.076-0.384-0.151-0.558-0.224c-0.175-0.069-0.336-0.14-0.485-0.204c-3.328-1.445-7.277-2.713-11.591-3.801
							c-4.311-1.087-8.989-1.996-13.78-2.723c-4.788-0.729-9.691-1.101-14.458-1.469c-4.763-0.371-9.393-0.396-13.628-0.396
							c-0.284,0-0.565,0-0.844,0c-0.281,0-0.558-0.176-0.834-0.174c-0.276,0.003-0.55-0.085-0.824-0.082
							c-0.271,0.005-0.542-0.033-0.812-0.029c-0.405-0.01-0.809-0.041-1.212-0.048c-0.4-0.008-0.801-0.025-1.199-0.031
							c-0.4-0.007-0.797-0.017-1.189-0.019C421.309,304.615,420.916,304.605,420.527,304.605"/>
					</g>
				</g>
			</g>
		</g>
		<g>
			<path fill="#DFB733" d="M235.292,414.224c0,0,25.349,42.076,29.184,71.87c7.972,16.008,22.25,17.27,15.456-0.59
				c-3.939-25.974-2.838-67.508-7.917-81.28C266.935,390.45,229.841,395.955,235.292,414.224z"/>
			<path id="patted_33_" fill="#CEA234" d="M390.629,466.845c0,0,54.363,78.841,66.912,88.96
				c12.549,10.123,23.064,17.482,41.352,14.973c18.296-2.506,25.85-2.867,25.85-2.867s10.262,4.269,0.664,6.395
				c-9.602,2.118-21.067,2.225-21.067,2.225l26.75,10.222l12.215,1.956c0,0,9.505,7.168-2.006,6.765
				c-11.506-0.408-58.214-13.417-58.214-13.417l20.58,23.93c0,0,4.42,5.598,4.635,12.671c0.211,7.075,4.203,13.743-5.647,3.338
				c-9.851-10.409-29.09-26.909-34.413-30.705c-5.316-3.798-10.349-4.896-33.843-5.106c-23.502-0.209-23.502-0.209-23.502-0.209
				s-18.731-6.728,4.963-12.271c17.755-2.449,39.741,1.469,39.741,1.469s-74.963-88.149-78.816-98.652
				c-0.707-1.929-1.281-3.472-1.747-4.701c-2.073-5.478-2.003-4.831-2.003-4.831l17.81-1.908L390.629,466.845z"/>
			<path fill="#CEA234" d="M355.057,361.376c0,0,18.624,59.468,17.975,105.61c12.446,12.372,17.237,18.357,17.598-0.142
				c-0.325-11.61,0.361-83.976,5.877-99.14c3.444-8.271,7.354-25.729,5.744-43.878C400.64,312.57,348.352,336.725,355.057,361.376z"
				/>
			<path id="patteg_34_" fill="#DFB733" d="M279.932,485.504c0,0,27.108,103.076,32.395,108.669
				c0.971,6.483,5.262,16.819,23.449,16.667c11.663-0.442,36.616-1.44,39.137,0.635c2.526,2.076,8.968,7.24,0.342,8.928
				c-8.159-0.234-26.671-1.436-30.917,1.17c-0.199,1.906,41.038,14.995,49.225,16.04c8.19,1.046,17.618,6.115,19.524,13.375
				c-4.597,0.448-13.923-1.916-13.923-1.916s-31.313-9.124-37.85-9.688c-6.541-0.565-39.846-12.062-39.846-12.062
				s-3.23,0.667-0.585,5.998c2.647,5.331,13.92,23.099,13.935,30.702c0.022,7.604-0.627,11.974-0.627,11.974
				s-1.723,11.745-10.117-1.787c-5.408-13.644-5.003-17.19-5.003-17.19s-8.38-20.32-12.332-24.246
				c-3.952-3.922-1.831-12.424-32.063-21.861c-10.465-3.674-18.268-8.811-18.268-8.811s-4.56-12.862,10.874-6.934
				c9.947,4.512,23.494,9.699,23.494,9.699s9.428,6.064,5.485-4.649c-3.939-10.712-31.785-114.122-31.785-114.122L279.932,485.504z"
				/>
			<linearGradient id="corps_45_" gradientUnits="userSpaceOnUse" x1="532.5498" y1="50.1973" x2="160.4202" y2="443.4465">
				<stop  offset="0" style="stop-color:#693B35"/>
				<stop  offset="0.4951" style="stop-color:#7A4F50"/>
				<stop  offset="0.6832" style="stop-color:#877076"/>
				<stop  offset="0.797" style="stop-color:#938D97"/>
				<stop  offset="1" style="stop-color:#9DA6B5"/>
			</linearGradient>
			<path id="corps_33_" fill="url(#corps_45_)" d="M516.198,105.117c0,0,39.517,94.652-113.948,218.71
				c-2.756,4.595-90.979,83.622-183.79,92.813c-5.513,3.676-52.379,32.162-52.379,32.162s-45.944-45.943-15.621-96.483
				c8.271-15.622,71.679-121.301,143.356-192.061c10.107-10.106,47.78-45.946,90.053-74.433c4.598-4.595,22.057-19.301,26.65-25.732
				c4.598-6.431,54.22-14.704,68.005-13.783c13.783,0.919,42.24,6.432,42.24,6.432s29.436,1.839,19.328,11.949
				C529.983,74.798,512.566,89.484,516.198,105.117z"/>
			<path id="aile_42_" fill="#2B2D3A" d="M406.847,148.315c0,0,56.053,60.649-12.867,146.111
				c-5.513,10.109-52.383,90.056-65.245,53.298c-9.188,11.946-63.404,44.109-81.785,44.109
				c-11.948,11.028-118.546,54.219-144.276,64.326c-7.35,3.679-28.49,18.38-8.271-19.296
				c6.434-11.948,122.221-222.384,185.628-261.901C303.006,163.938,357.391,111.665,406.847,148.315z"/>
			<path id="tete_18_" fill="#878BA0" d="M369.73,95.58c0,0,24.249-16.183,32.52-28.132c8.27-11.946,31.244-58.811,91.895-56.056
				c18.38-0.918,45.03,5.48,58.813,19.281c4.592,4.611,23.893,17.359,0,23.853c-23.893,6.488-73.169-2.13-75.009-3.046
				c-1.839-0.919-44.285-3.395-59.992,9.527C406.396,72.57,369.73,95.58,369.73,95.58z"/>
			<path id="bec_39_" fill="#383330" d="M480.588,63.076c0,0-29.635,11.717,0,13.096c22.745-1.379,97.179-18.609,125.437-20.678
				c14.473,0,73.057-10.338,73.057-10.338s24.122-7.599-16.543-14.482c-37.905-5.506-98.555,0.699-137.841,5.522
				C513.672,38.265,526.076,61.697,480.588,63.076z"/>
			<path id="bec_41_" fill="#CEC11B" d="M480.588,63.076c0,0-29.635,11.717,0,13.096c22.745-1.379,97.179-18.609,125.437-20.678
				c14.473,0,73.057-10.338,73.057-10.338C671.5,37.918,526.076,61.697,480.588,63.076z"/>
			<circle id="contour" fill="#CEC11B" cx="493.226" cy="42.17" r="10.174"/>
			<path fill="#CEC11B" d="M492.895,32.326c0,0,21.631-1.805,27.407,7.235c-4.393,5.595-14.054,13.608-27.837,12.745
				C482.315,51.961,484.436,35.447,492.895,32.326z"/>
			<radialGradient id="oeil_32_" cx="494.167" cy="40.2813" r="9.079" gradientUnits="userSpaceOnUse">
				<stop  offset="0" style="stop-color:#FFFFFF"/>
				<stop  offset="0.1386" style="stop-color:#D5D4D3"/>
				<stop  offset="0.2079" style="stop-color:#494340"/>
				<stop  offset="0.3663" style="stop-color:#28201D"/>
				<stop  offset="1" style="stop-color:#231B18"/>
			</radialGradient>
			<path id="oeil_26_" fill="url(#oeil_32_)" d="M500.869,42.17c0,4.223-3.425,7.646-7.643,7.646c-4.219,0-7.644-3.423-7.644-7.646
				c0-4.222,3.425-7.646,7.644-7.646C497.444,34.523,500.869,37.948,500.869,42.17z"/>
			<path id="sous_bec" fill="#F7F7F7" d="M542.848,61.008c0,0-60.189,4.136-64.323,7.354c-5.976,1.837-7.81,9.647,6.892,7.35
				C500.117,73.414,534.117,68.817,542.848,61.008z"/>
			<path id="cou_4_" fill="#F7F7F7" d="M538.609,66.971c0,0-62.947,32.633-84.084,34.931c-13.783,0.921-20.678,12.404,6.434,11.485
				c27.11-0.918,53.756-6.431,55.595-11.027C518.393,97.765,515.636,88.808,538.609,66.971z"/>
			<path id="torse" fill="#F7F7F7" d="M516.656,113.439c0,0,20.807,17.409-8.868,87.902c-6.892,16.541-40.294,72.402-73.375,95.375
				c11.943-21.594,87.295-139.221,72.594-175.057C503.44,103.372,516.656,113.439,516.656,113.439z"/>
			<path id="queue_35_" fill="#2B2D3A" d="M193.877,412.504c0,0-25.5,31.705-31.015,42.041
				c-5.514,10.339-34.46,46.867-31.013,23.435c-5.514,8.96-44.681,32.392-0.286-34.46
				C166.309,414.572,188.365,391.14,193.877,412.504z"/>
		</g>
	</g>
</g>
<g id="pic_de_la_guadeloupe">
</g>
<g id="héron_garde-boeufs">
</g>
<g id="photos">
</g>
<g id="solitaire_siffleur">
</g>
<g id="tyran_janeau">
</g>
<g id="colibri_fallevert">
</g>
<g id="colombe_a_queue_noire">
</g>
</svg>
