<?xml version="1.0" encoding="utf-8"?>
<!-- Generator: Adobe Illustrator 16.0.0, SVG Export Plug-In . SVG Version: 6.00 Build 0)  -->
<!DOCTYPE svg PUBLIC "-//W3C//DTD SVG 1.1//EN" "http://www.w3.org/Graphics/SVG/1.1/DTD/svg11.dtd">
<svg version="1.1" xmlns="http://www.w3.org/2000/svg" xmlns:xlink="http://www.w3.org/1999/xlink" x="0px" y="0px" width="732px"
	 height="692px" viewBox="0 0 732 692" enable-background="new 0 0 732 692" xml:space="preserve">
<g id="Calque_1" display="none">
	<rect x="215" y="-43" display="inline" fill="none" width="327" height="45.169"/>
	<text transform="matrix(1 0 0 1 215 -18.1504)" display="inline" font-family="'MyriadPro-Regular'" font-size="35">Colombe rouviolette</text>
	<rect x="156.41" y="649.836" display="inline" fill="none" width="415.59" height="37.879"/>
	<text transform="matrix(1 0 0 1 156.4102 674.6855)" display="inline" font-family="'MyriadPro-Regular'" font-size="35">Moucherolle gobe-mouche</text>
</g>
<g id="colombe_à_croissant">
</g>
<g id="colombe_rouviolette">
</g>
<g id="colibri_madere">
</g>
<g id="colibri_à_tête_bleue">
</g>
<g id="elenie_siffleuse">
</g>
<g id="grive_à_pieds_jaunes">
</g>
<g id="merle_à_lunette">
</g>
<g id="moucherolle_gobemouche">
	<g>
		<path id="patted_4_" fill="#282828" d="M426.049,438.053c0,0-2.165,5.687,6.287,22.951c4.132,13.646,7.871,23.452,7.669,28.356
			c-0.192,4.904-1.372,9.165-0.98,13.216c0.392,4.052,8.256,9.807,8.256,9.807s3.345,5.118,8.847,2.56
			c3.343,4.048,6.294,7.034,6.294,7.034l5.307,2.558l7.073-1.065l1.769-0.427c0,0-0.778-3.411-3.141-5.116
			c-2.358-1.705-6.884-5.115-6.884-5.115s7.473,0.212,10.024,0.639c2.56,0.424,7.08-2.559,7.672-3.626
			c0.589-1.064,1.18-0.214,3.537,0.215c2.363,0.425,5.903,0.214,5.903,0.214s3.535-3.624-2.36-6.184
			c-5.701-1.065-9.041,1.279-12.387,1.707c-3.346,0.425-15.927-1.28-15.927-1.28s-8.45-1.492-9.239-5.117
			c-0.788-3.625,0.195-4.475-1.374-7.887c-1.574-3.411-9.638-36.455-11.013-38.371c-1.377-1.922-3.537-11.158-2.357-15.067
			c1.183-3.906-2.949-11.371-6.881-8.599C428.212,432.225,426.191,434.057,426.049,438.053z"/>
		<path id="patteg_5_" fill="#333333" d="M413.465,436.348c0,0-11.796,12.789,0,29.274c5.242,6.541,11.008,18.762,12.057,23.592
			c1.05,4.835,9.965,18.194,8.128,25.586c-0.786,1.705-5.343,5.365-6.62,6.11c-1.277,0.747-11.202,7.354-8.452,13.217
			c0.389,1.493,3.927,5.224,6.194-0.533c2.258-5.755,8.553-11.404,10.514-11.831c1.971-0.425,4.527,3.41,2.856,6.289
			c-1.674,2.878-5.414,15.456-5.414,21.21c-0.881,5.227-2.652,8.529-3.436,10.128c-0.788,1.599,0.589,11.616,6.582,3.091
			c4.622-8.953,7.377-30.27,9.343-31.766c1.672-0.531,2.557-0.638,4.72,2.56c2.161,3.199,6.682,9.384,6.682,9.384
			s3.046,4.688,6.194,3.62c2.553,2.238,6.781,6.61,12.19,8.315c3.144,4.262,16.907,8.527,18.087,5.33
			c1.178-3.198-5.506-6.396-7.08-7.463c-1.569-1.066-17.985-12.366-20.148-13.431c-2.163-1.066-6.486-8.847-6.486-8.847
			s12.284,3.729,17.491-0.426c7.574,0.639,13.564-0.744,18.486,3.943c4.913,4.689,7.665-1.6,6.287-2.666
			c-1.374-1.065-6.911-5.008-9.665-5.008c-2.752,0-10.483-2.987-11.924-3.555c-1.441-0.566-17.302,1.139-20.32-0.71
			c-3.01-1.846-8.91-0.284-14.022-12.223c-5.114-11.937-16.121-41.499-16.121-43.631s-3.737-8.526-1.181-15.989
			c0.786-2.346,5.698-9.591,5.31-12.365c-0.392-2.771-6.487-7.248-12.781-6.823C414.647,431.161,414.394,435.172,413.465,436.348z"
			/>
		<g>
			<g opacity="0.3">
				<g>
					<g enable-background="new    ">
						<defs>
							<polygon id="SVGID_22_" enable-background="new    " points="14.493,611.78 7.994,304.292 639.286,306.069 724.007,609.531 
															"/>
						</defs>
						<clipPath id="SVGID_2_">
							<use xlink:href="#SVGID_22_"  overflow="visible"/>
						</clipPath>
						<g clip-path="url(#SVGID_2_)">
							<path fill="#959595" d="M459.531,540.155c-0.456-0.016-0.89-0.034-1.296-0.06c-0.406-0.023-0.786-0.052-1.133-0.085
								c-0.347-0.035-0.66-0.073-0.936-0.118s-0.513-0.095-0.705-0.151c-0.753-0.228-1.646-0.357-2.652-0.501
								c-1.007-0.143-2.125-0.3-3.333-0.581c-1.209-0.28-2.505-0.684-3.861-1.321c-1.355-0.636-2.775-1.506-4.226-2.719
								c0.059,0.021,0.113,0.041,0.159,0.058c0.045,0.017,0.085,0.03,0.116,0.041c0.03,0.012,0.057,0.021,0.071,0.026
								c0.017,0.006,0.025,0.009,0.025,0.009s0.157,0.108,0.451,0.271c0.295,0.164,0.727,0.381,1.277,0.599s1.219,0.436,1.985,0.598
								c0.765,0.163,1.629,0.27,2.571,0.269c0.237,0,0.478-0.007,0.722-0.022c0.247-0.015,0.496-0.038,0.75-0.069
								c0.255-0.03,0.514-0.071,0.774-0.119c0.261-0.049,0.527-0.108,0.798-0.177c0.957,0.538,1.881,1.042,2.73,1.493
								c0.85,0.452,1.626,0.854,2.281,1.187c0.655,0.334,1.192,0.602,1.565,0.784c0.37,0.183,0.579,0.282,0.579,0.282
								L459.531,540.155 M432.125,525.104c-1.354-1.464-2.722-2.963-4.034-4.421c-1.313-1.456-2.569-2.87-3.701-4.164
								c-1.133-1.292-2.14-2.466-2.952-3.44c-0.812-0.975-1.429-1.751-1.78-2.254c0.354-0.031,0.705-0.063,1.054-0.095
								c0.35-0.032,0.698-0.064,1.043-0.097c0.347-0.032,0.693-0.065,1.035-0.098c0.344-0.033,0.686-0.066,1.028-0.1
								c1.123,1.426,2.188,2.756,3.16,3.983c0.971,1.228,1.847,2.354,2.59,3.371c0.743,1.021,1.352,1.93,1.788,2.725
								c0.439,0.797,0.703,1.478,0.76,2.037c0.021,0.224,0.038,0.443,0.045,0.66c0.01,0.218,0.012,0.431,0.01,0.644
								c0,0.213-0.007,0.423-0.017,0.631C432.146,524.693,432.134,524.899,432.125,525.104 M489.253,305.646
								c-4.096-0.011-8.006,0.079-11.693,0.253s-7.151,0.431-10.352,0.753c-3.201,0.322-6.136,0.71-8.767,1.144
								c-2.633,0.434-4.96,0.915-6.942,1.424c-6.795,1.778-12.961,4.348-18.413,7.317c-5.465,2.976-10.217,6.355-14.167,9.738
								c-3.961,3.392-7.116,6.789-9.369,9.784c-2.261,3.003-3.611,5.599-3.965,7.381c-0.195,1.136-1.28,2.676-2.964,4.41
								c-1.686,1.738-3.975,3.67-6.572,5.585c-2.604,1.917-5.522,3.816-8.459,5.482c-2.939,1.669-5.9,3.103-8.583,4.086
								c-2.714,1.008-6.066,2.394-9.704,3.971c-3.643,1.58-7.574,3.354-11.438,5.134c-3.87,1.783-7.671,3.57-11.048,5.175
								c-3.378,1.607-6.329,3.029-8.49,4.076c-6.197,2.915-12.189,6.276-17.826,9.794c-5.655,3.528-10.955,7.214-15.747,10.761
								c-4.805,3.558-9.101,6.976-12.724,9.953c-3.633,2.984-6.589,5.522-8.711,7.312c-2.113,3.111-5.331,6.673-9.092,10.389
								c-3.772,3.727-8.094,7.61-12.394,11.346c-4.314,3.748-8.604,7.349-12.299,10.495c-3.704,3.154-6.805,5.849-8.719,7.773
								c-2.266,2.678-7.04,6.355-13.166,10.538c-6.15,4.198-13.665,8.906-21.372,13.619c-7.736,4.732-15.667,9.469-22.592,13.692
								c-6.949,4.238-12.88,7.957-16.576,10.627c-4.255,3.011-7.341,5.464-9.482,7.449c-2.144,1.989-3.336,3.507-3.804,4.647
								s-0.209,1.903,0.549,2.379c0.759,0.477,2.016,0.666,3.544,0.664c0.01,0,0.02,0,0.03,0c0.011,0,0.02,0,0.031,0
								c0.01,0,0.02,0,0.03,0s0.02,0,0.031,0c-14.496,6.135-29.688,12.807-44.501,19.559c-14.896,6.79-29.41,13.663-42.427,20.148
								c-13.087,6.521-24.653,12.645-33.557,17.887c-8.941,5.265-15.184,9.635-17.574,12.615c-3.096,2.737-4.807,5.275-5.452,7.546
								c-0.646,2.273-0.221,4.276,0.954,5.937c1.176,1.66,3.103,2.976,5.458,3.875c2.356,0.899,5.138,1.38,8.022,1.371
								c1.139-0.004,2.293-0.085,3.443-0.245c1.15-0.16,2.296-0.402,3.417-0.729c1.12-0.325,2.216-0.737,3.267-1.238
								c1.051-0.5,2.056-1.09,2.998-1.772c0.767-0.668,7.541-4.466,18.181-10.268c10.59-5.774,24.977-13.516,41.034-22.11
								c15.946-8.534,33.518-17.898,50.668-27.017c17.022-9.051,33.636-17.863,47.877-25.41c-0.486,0.396-0.955,0.777-1.406,1.142
								c-0.452,0.366-0.886,0.715-1.3,1.046c-0.415,0.331-0.811,0.644-1.185,0.937c-0.375,0.293-0.728,0.564-1.058,0.813
								c0.38,0.064,0.801,0.119,1.26,0.165c0.459,0.048,0.958,0.086,1.492,0.115c0.533,0.031,1.104,0.053,1.709,0.066
								c0.605,0.015,1.244,0.021,1.915,0.021c6.381-0.011,15.679-0.692,26.186-1.767c10.492-1.074,22.179-2.538,33.361-4.115
								c11.166-1.573,21.825-3.26,30.297-4.781c8.457-1.52,14.737-2.875,17.166-3.796c1.483-0.562,2.93-1.036,4.343-1.432
								c1.41-0.395,2.785-0.711,4.129-0.956c1.344-0.247,2.656-0.423,3.941-0.538c1.282-0.115,2.538-0.169,3.771-0.17
								c0.992-0.002,1.968,0.031,2.932,0.093c0.962,0.063,1.911,0.154,2.85,0.271c0.936,0.116,1.861,0.258,2.775,0.419
								s1.818,0.343,2.716,0.54c3.688,0.304,7.323,0.562,10.905,0.778c3.583,0.216,7.114,0.39,10.585,0.525
								c3.472,0.136,6.888,0.232,10.243,0.295c3.354,0.063,6.647,0.09,9.879,0.085c2.52-0.002,5.001-0.024,7.441-0.064
								c2.441-0.04,4.842-0.097,7.201-0.169c2.358-0.073,4.678-0.162,6.952-0.264c2.274-0.103,4.507-0.22,6.695-0.348
								c1.29,0.883,2.584,1.854,3.815,2.847c1.235,0.994,2.41,2.011,3.467,2.984c1.055,0.975,1.99,1.906,2.74,2.729
								s1.317,1.539,1.639,2.081c0.377,0.639,1.308,1.558,2.472,2.64c1.165,1.083,2.566,2.328,3.884,3.617
								c1.317,1.291,2.55,2.625,3.381,3.883c0.831,1.259,1.259,2.441,0.96,3.427c-0.162,0.228-0.554,0.521-1.071,0.841
								c-0.516,0.318-1.156,0.662-1.816,0.99c-0.662,0.327-1.342,0.64-1.933,0.895c-0.591,0.256-1.097,0.454-1.41,0.554
								c-0.309,0.1-1.14,0.397-2.161,0.835c-1.023,0.439-2.234,1.02-3.303,1.686c-1.07,0.667-1.994,1.418-2.442,2.202
								c-0.447,0.782-0.416,1.595,0.43,2.382c0.078,0.119,0.234,0.265,0.448,0.416s0.487,0.309,0.798,0.451
								c0.313,0.143,0.665,0.271,1.038,0.362c0.37,0.091,0.764,0.146,1.16,0.146c0.269-0.001,0.537-0.027,0.803-0.086
								c0.264-0.06,0.522-0.152,0.771-0.283c0.25-0.132,0.487-0.302,0.708-0.518c0.223-0.215,0.428-0.476,0.61-0.789
								c0.446-0.775,1.153-1.546,1.994-2.271c0.838-0.723,1.812-1.4,2.79-1.986c0.98-0.588,1.964-1.086,2.828-1.451
								c0.864-0.364,1.604-0.598,2.101-0.655c0.026-0.004,0.053-0.006,0.078-0.009c0.026-0.002,0.053-0.003,0.079-0.006
								c0.025-0.001,0.052-0.002,0.08-0.003c0.026,0,0.053-0.002,0.079-0.002c0.491,0,1.025,0.119,1.526,0.321
								c0.501,0.201,0.971,0.486,1.337,0.817c0.363,0.331,0.624,0.708,0.71,1.095c0.083,0.386-0.01,0.782-0.352,1.15
								c-0.363,0.387-0.8,1.099-1.244,1.998c-0.446,0.9-0.897,1.988-1.287,3.126c-0.39,1.137-0.717,2.325-0.912,3.423
								c-0.196,1.099-0.261,2.106-0.123,2.885c-0.102,0.708-0.273,1.351-0.484,1.931c-0.209,0.581-0.458,1.099-0.717,1.555
								c-0.257,0.457-0.522,0.851-0.765,1.186c-0.242,0.336-0.463,0.611-0.629,0.829c-0.116,0.154-0.141,0.451-0.066,0.81
								c0.073,0.359,0.242,0.781,0.505,1.184c0.264,0.402,0.622,0.784,1.076,1.067c0.456,0.281,1.004,0.463,1.647,0.46
								c0.266,0,0.549-0.032,0.846-0.1c0.299-0.068,0.612-0.173,0.942-0.321c0.33-0.147,0.677-0.338,1.037-0.575
								c0.361-0.237,0.739-0.523,1.133-0.862c0.98-1.22,1.765-2.856,2.42-4.638c0.652-1.778,1.178-3.699,1.638-5.493
								c0.458-1.79,0.854-3.452,1.254-4.718c0.398-1.263,0.8-2.131,1.272-2.332c0.126-0.022,0.249-0.043,0.368-0.062
								c0.119-0.02,0.235-0.036,0.349-0.051c0.114-0.014,0.226-0.024,0.335-0.033c0.109-0.007,0.219-0.012,0.328-0.012
								c0.247,0,0.491,0.021,0.75,0.07c0.257,0.05,0.527,0.129,0.819,0.246c0.294,0.116,0.612,0.27,0.966,0.468
								c0.356,0.198,0.748,0.441,1.189,0.738c0.632,0.429,1.437,0.956,2.289,1.51c0.851,0.552,1.75,1.129,2.569,1.651
								c0.819,0.523,1.558,0.992,2.094,1.332c0.534,0.338,0.867,0.547,0.867,0.547s0.18,0.126,0.498,0.316
								c0.316,0.19,0.77,0.443,1.311,0.696c0.542,0.254,1.173,0.507,1.85,0.696s1.396,0.315,2.113,0.314
								c0.083,0,0.164-0.003,0.247-0.006c0.081-0.004,0.164-0.009,0.244-0.016c0.081-0.007,0.164-0.017,0.245-0.027
								c0.081-0.012,0.161-0.025,0.242-0.039c0.715,0.302,1.553,0.674,2.495,1.079c0.942,0.404,1.994,0.841,3.135,1.267
								c1.142,0.428,2.374,0.846,3.68,1.212c1.309,0.368,2.688,0.686,4.129,0.912c0.698,0.436,1.788,0.871,3.104,1.278
								s2.856,0.787,4.456,1.111c1.599,0.325,3.256,0.596,4.804,0.783c1.548,0.189,2.986,0.295,4.146,0.292
								c0.375-0.001,0.722-0.013,1.033-0.036c0.309-0.025,0.586-0.063,0.821-0.11c0.237-0.05,0.432-0.113,0.584-0.19
								c0.149-0.077,0.254-0.169,0.309-0.274c0.219-0.436-0.071-0.869-0.655-1.283s-1.463-0.81-2.422-1.169
								c-0.959-0.358-2.002-0.681-2.911-0.949c-0.909-0.268-1.688-0.482-2.122-0.625c-0.433-0.144-1.893-0.632-3.873-1.292
								c-1.98-0.659-4.48-1.49-6.999-2.319c-2.518-0.829-5.053-1.657-7.104-2.314c-2.051-0.656-3.621-1.142-4.205-1.283
								c-0.581-0.144-1.346-0.512-2.165-0.984c-0.819-0.471-1.69-1.047-2.49-1.604c-0.801-0.558-1.524-1.097-2.052-1.497
								c-0.527-0.398-0.853-0.658-0.853-0.658s0.335,0.051,0.919,0.127c0.582,0.075,1.413,0.178,2.405,0.278
								c0.992,0.103,2.146,0.203,3.371,0.278c1.228,0.074,2.526,0.124,3.813,0.122c0.717-0.001,1.43-0.02,2.123-0.057
								c0.693-0.038,1.367-0.097,2.006-0.18s1.244-0.191,1.798-0.329c0.556-0.136,1.061-0.304,1.5-0.503
								c1.966,0.083,3.815,0.098,5.57,0.111c1.757,0.016,3.417,0.031,5.005,0.113c1.591,0.083,3.108,0.233,4.573,0.521
								c1.467,0.288,2.887,0.71,4.278,1.338c0.368,0.167,0.722,0.308,1.062,0.424c0.34,0.118,0.662,0.212,0.971,0.285
								c0.309,0.072,0.604,0.125,0.881,0.158c0.278,0.034,0.542,0.049,0.788,0.049c0.685-0.002,1.252-0.124,1.698-0.313
								c0.448-0.188,0.776-0.444,0.985-0.712c0.206-0.27,0.294-0.552,0.261-0.791c-0.035-0.241-0.189-0.44-0.47-0.545
								c-0.383-0.143-1.052-0.38-1.886-0.656c-0.83-0.278-1.828-0.594-2.863-0.892s-2.113-0.578-3.107-0.784
								c-0.995-0.205-1.907-0.336-2.614-0.334c-0.705,0.001-1.75-0.098-2.944-0.25c-1.194-0.153-2.538-0.359-3.844-0.575
								c-1.304-0.217-2.566-0.442-3.603-0.632c-1.032-0.19-1.837-0.345-2.222-0.418c-0.062-0.012-0.146-0.022-0.252-0.031
								c-0.104-0.008-0.23-0.014-0.375-0.02c-0.145-0.005-0.309-0.009-0.491-0.01c-0.181-0.002-0.38-0.004-0.597-0.004
								c-0.146,0.002-0.299,0.002-0.458,0.003s-0.325,0.003-0.496,0.006c-0.173,0.001-0.352,0.004-0.534,0.007
								c-0.186,0.003-0.375,0.005-0.57,0.009c-0.116-0.144-0.275-0.322-0.475-0.521c-0.201-0.198-0.443-0.415-0.731-0.636
								c-0.289-0.22-0.622-0.443-1.002-0.652c-0.38-0.21-0.805-0.404-1.282-0.57c-0.646-0.228-1.443-0.511-2.274-0.808
								c-0.831-0.298-1.697-0.609-2.483-0.893c-0.783-0.283-1.488-0.538-1.997-0.722c-0.508-0.184-0.818-0.297-0.818-0.297
								s0.479,0.007,1.241,0.02c0.763,0.014,1.805,0.033,2.93,0.06c1.128,0.027,2.337,0.062,3.429,0.103
								c1.095,0.041,2.073,0.089,2.735,0.145c0.045,0.004,0.088,0.007,0.133,0.01s0.091,0.005,0.138,0.007
								c0.045,0.001,0.091,0.004,0.138,0.004c0.048,0.001,0.093,0.001,0.141,0.001c0.669-0.001,1.407-0.092,2.146-0.234
								c0.738-0.144,1.479-0.339,2.15-0.552c0.67-0.213,1.271-0.44,1.733-0.65c0.463-0.209,0.786-0.397,0.902-0.532
								c0.043-0.05,0.088-0.091,0.136-0.126c0.05-0.035,0.1-0.063,0.154-0.085c0.055-0.021,0.111-0.037,0.176-0.046
								c0.062-0.01,0.128-0.015,0.201-0.015c0.136-0.001,0.29,0.015,0.471,0.039c0.18,0.023,0.387,0.059,0.627,0.098
								c0.239,0.039,0.513,0.083,0.823,0.126c0.313,0.042,0.665,0.084,1.063,0.119c0.312,0.029,0.642,0.052,0.981,0.07
								c0.337,0.018,0.686,0.031,1.03,0.042c0.347,0.011,0.69,0.017,1.025,0.02c0.335,0.005,0.66,0.006,0.964,0.005
								c0.295,0,0.57-0.002,0.819-0.005s0.468-0.007,0.653-0.011c0.183-0.003,0.33-0.007,0.43-0.009
								c0.1-0.003,0.154-0.005,0.154-0.005s0.201-0.121,0.408-0.324c0.204-0.203,0.41-0.486,0.42-0.813
								c0.012-0.326-0.176-0.694-0.757-1.065c-0.582-0.372-1.558-0.746-3.13-1.083c-0.271-0.025-0.536-0.046-0.795-0.064
								c-0.259-0.018-0.513-0.033-0.76-0.044c-0.25-0.012-0.492-0.02-0.731-0.024c-0.237-0.006-0.473-0.009-0.7-0.008
								c-1.031,0.002-1.967,0.058-2.835,0.143c-0.869,0.086-1.672,0.201-2.43,0.322c-0.76,0.121-1.474,0.248-2.175,0.355
								c-0.7,0.109-1.382,0.198-2.075,0.246c-0.092,0.007-0.194,0.013-0.301,0.018c-0.109,0.005-0.224,0.009-0.345,0.013
								c-0.123,0.002-0.252,0.004-0.385,0.007c-0.133,0.001-0.272,0.002-0.42,0.002c-1.164,0.003-2.681-0.04-4.303-0.104
								c-1.621-0.065-3.348-0.151-4.929-0.238c-1.579-0.087-3.013-0.175-4.053-0.24s-1.684-0.109-1.684-0.109
								s-0.551-0.048-1.394-0.15c-0.843-0.104-1.98-0.26-3.153-0.478c-1.173-0.217-2.382-0.493-3.372-0.837
								c-0.987-0.343-1.754-0.751-2.044-1.23c-0.289-0.481-0.448-0.869-0.556-1.21c-0.106-0.341-0.161-0.633-0.237-0.923
								c-0.078-0.288-0.181-0.573-0.382-0.898c-0.204-0.325-0.509-0.69-0.99-1.142c-0.316-0.291-0.881-0.994-1.61-1.97
								c-0.73-0.975-1.626-2.223-2.604-3.607c-0.978-1.384-2.039-2.901-3.103-4.42c-1.062-1.517-2.126-3.033-3.108-4.414
								c4.302-0.526,8.289-1.078,11.938-1.629c3.648-0.552,6.961-1.104,9.917-1.631s5.556-1.028,7.78-1.479
								c2.226-0.45,4.075-0.849,5.53-1.173c10.972-1.993,21.716-5.793,31.764-10.523c10.005-4.709,19.306-10.336,27.459-16.016
								c8.115-5.654,15.094-11.361,20.519-16.283c5.401-4.901,9.272-9.031,11.195-11.566c4.656-4.211,8.127-8.513,10.685-12.702
								c2.548-4.176,4.19-8.24,5.199-11.994c1.007-3.743,1.387-7.179,1.408-10.112c0.021-2.927-0.313-5.355-0.736-7.09
								c0.435-9.769,1.755-18.061,3.581-25.074c1.816-6.973,4.134-12.697,6.579-17.358c2.437-4.643,5.005-8.239,7.332-10.962
								c2.324-2.719,4.413-4.574,5.897-5.736c0.601,0.014,1.226,0.025,1.871,0.035c0.646,0.011,1.313,0.02,1.997,0.026
								c0.684,0.007,1.386,0.013,2.104,0.017c0.72,0.005,1.45,0.007,2.196,0.008c3.094,0.007,6.398-0.009,9.716-0.039
								c3.316-0.029,6.646-0.073,9.782-0.122s6.083-0.104,8.64-0.154c2.555-0.052,4.718-0.1,6.29-0.138
								c2.519-0.061,4.312-0.089,5.524-0.132c1.216-0.041,1.85-0.097,2.052-0.21c0.202-0.111-0.031-0.282-0.549-0.555
								c-0.518-0.271-1.322-0.645-2.268-1.163c-3.464-1.486-7.56-2.746-11.98-3.809c-4.418-1.063-9.165-1.927-13.938-2.622
								c-4.768-0.694-9.563-1.219-14.077-1.603c-4.516-0.383-8.754-0.623-12.408-0.748c-0.04-0.051-0.078-0.103-0.116-0.153
								c-0.04-0.051-0.078-0.102-0.116-0.152c-0.04-0.051-0.078-0.102-0.116-0.152c-0.041-0.05-0.078-0.101-0.117-0.15
								c-0.896-1.157-1.538-2.096-2.2-2.974c-0.66-0.878-1.344-1.696-2.327-2.609c-0.98-0.913-2.26-1.922-4.112-3.183
								c-1.852-1.26-4.273-2.769-7.541-4.685c-7.726-3.218-15.587-5.885-23.435-8.076c-7.835-2.188-15.661-3.903-23.327-5.22
								c-7.66-1.316-15.167-2.234-22.364-2.828C502.583,305.935,495.69,305.665,489.253,305.646"/>
						</g>
					</g>
				</g>
			</g>
			<path id="queue_7_" fill="#3D3731" d="M257.634,446.439c0,0-194.898,190.238-199.135,197.017
				c-12.711,16.948-36.861,0.848-20.337-26.269c10.501-24.091,96.519-99.326,157.613-145.75
				C220.744,455.779,237.653,452.639,257.634,446.439z"/>
			<path id="tete_2_" fill="#5B5145" d="M365.066,211.1c0,0,34.079-32.008,49.332-43.024c11.864-8.474,29.659-32.482,31.353-42.369
				c2.825-15.535,25.006-59.747,55.512-75.847c22.879-11.863,84.308-17.364,132.608,29.241
				c11.864,16.948,11.017,19.49,13.557,29.659c2.543,10.168,5.454,22.364,5.454,22.364L575.4,157.907l-42.792,44.487l-19.913,19.066
				l-23.727,23.727L365.066,211.1z"/>
			<path id="corps_7_" fill="#E5CF91" d="M652.882,131.124c0,0-28.333,28.478-42.737,129.317c0,14.405-4.236,51.69-27.117,85.585
				c-10.167,20.337-57.62,91.517-102.533,106.771c-14.405,5.931-66.096,25.421-133.038,14.405c-7.626-3.39-16.1-4.39-27.116,3.313
				c-11.018,7.703-96.602,31.43-111.854,26.346c9.321-12.711,35.591-55.928,53.384-62.707c17.796-6.778,136.429-99.99,136.429-99.99
				s105.923-54.797,102.535-101.686c-3.391-46.888,44.701-100.21,107.336-99.399C620.524,133.04,652.882,131.124,652.882,131.124z"
				/>
			<path id="aile_10_" fill="#5B5145" d="M501.678,227.392c0,0,43.218,55.08-7.626,94.907
				c-13.558,13.558-98.295,58.47-115.242,66.942c-16.948,8.474-179.646,91.519-189.814,94.06
				c-4.237,2.542-38.98,20.338-5.932-22.879c15.252-20.337,66.944-72.875,77.113-94.06c8.474-15.253,37.284-55.079,47.453-80.501
				c11.015-16.947,42.367-66.942,74.567-88.975C396.604,188.413,455.072,172.313,501.678,227.392z"/>
			<path id="bout_aile" fill="#3D3731" d="M518.089,284.415c-2.825,46.891-122.332,96.354-139.279,104.826
				c-16.948,8.474-179.646,91.519-189.814,94.06c-4.237,2.542-38.98,20.338-5.932-22.879c15.252-20.337,66.944-72.875,77.113-94.06
				c8.474-15.253,37.284-55.079,47.453-80.501C353.953,324.56,455.946,293.454,518.089,284.415z"/>
		</g>
		<path id="bec_8_" fill="#333333" d="M617.205,129.096c0,0,10.734-19.206,24.857-19.206c14.122,0,44.063,4.518,58.752,19.206
			c3.389,4.521,5.084,3.956-5.648,4.521c-10.734,0.564-47.453,2.26-53.104,0C634.229,134.092,626.239,132.499,617.205,129.096z"/>
		<radialGradient id="SVGID_3_" cx="586.1348" cy="102.5454" r="23.0509" gradientUnits="userSpaceOnUse">
			<stop  offset="0" style="stop-color:#FFFFFF"/>
			<stop  offset="0.1386" style="stop-color:#D5D4D3"/>
			<stop  offset="0.2079" style="stop-color:#494340"/>
			<stop  offset="0.3663" style="stop-color:#28201D"/>
			<stop  offset="1" style="stop-color:#231B18"/>
		</radialGradient>
		<circle fill="url(#SVGID_3_)" cx="582.181" cy="109.89" r="16.664"/>
	</g>
</g>
<g id="moqueur_corossol">
</g>
<g id="moqueur_grivotte">
</g>
<g id="trembleur_brun">
</g>
<g id="trembleur_gris">
</g>
<g id="paruline_cafeite">
</g>
<g id="saltator_gros_bec">
</g>
<g id="soporophile_rouge-gorge">
</g>
<g id="sucrier_à_ventre_jaune">
</g>
<g id="vachet_luisant">
</g>
<g id="vireo_a_moustaches">
</g>
<g id="merle_quiscale">
</g>
<g id="paruline_jaune">
</g>
<g id="tyran_gris">
</g>
<g id="sporophile_cici">
</g>
<g id="tourterelle_à_queue_carree">
</g>
<g id="colobri_huppé">
</g>
<g id="cécerelle_d_x27_amerique">
</g>
<g id="heron_vert">
</g>
<g id="pic_de_la_guadeloupe">
</g>
<g id="héron_garde-boeufs">
</g>
<g id="photos">
</g>
<g id="solitaire_siffleur">
</g>
<g id="tyran_janeau">
</g>
<g id="colibri_fallevert">
</g>
<g id="colombe_a_queue_noire">
</g>
</svg>
