<?xml version="1.0" encoding="utf-8"?>
<!-- Generator: Adobe Illustrator 16.0.0, SVG Export Plug-In . SVG Version: 6.00 Build 0)  -->
<!DOCTYPE svg PUBLIC "-//W3C//DTD SVG 1.1//EN" "http://www.w3.org/Graphics/SVG/1.1/DTD/svg11.dtd">
<svg version="1.1" xmlns="http://www.w3.org/2000/svg" xmlns:xlink="http://www.w3.org/1999/xlink" x="0px" y="0px" width="732px"
	 height="692px" viewBox="0 0 732 692" enable-background="new 0 0 732 692" xml:space="preserve">
<g id="Calque_1" display="none">
	<rect x="184.41" y="642.121" display="inline" fill="none" width="415.59" height="37.879"/>
	<text transform="matrix(1 0 0 1 184.4102 666.9707)" display="inline" font-family="'MyriadPro-Regular'" font-size="35">Crécelle d&apos;Amérique</text>
</g>
<g id="colombe_à_croissant">
</g>
<g id="colombe_rouviolette">
</g>
<g id="colibri_madere">
</g>
<g id="colibri_à_tête_bleue">
</g>
<g id="elenie_siffleuse">
</g>
<g id="grive_à_pieds_jaunes">
</g>
<g id="merle_à_lunette">
</g>
<g id="moucherolle_gobemouche">
</g>
<g id="moqueur_corossol">
</g>
<g id="moqueur_grivotte">
</g>
<g id="trembleur_brun">
</g>
<g id="trembleur_gris">
</g>
<g id="paruline_cafeite">
</g>
<g id="saltator_gros_bec">
</g>
<g id="soporophile_rouge-gorge">
</g>
<g id="sucrier_à_ventre_jaune">
</g>
<g id="vachet_luisant">
</g>
<g id="vireo_a_moustaches">
</g>
<g id="merle_quiscale">
</g>
<g id="paruline_jaune">
</g>
<g id="tyran_gris">
</g>
<g id="sporophile_cici">
</g>
<g id="tourterelle_à_queue_carree">
</g>
<g id="colobri_huppé">
</g>
<g id="cécerelle_d_x27_amerique">
	<g>
		<g opacity="0.3">
			<g>
				<g enable-background="new    ">
					<defs>
						<polygon id="SVGID_61_" enable-background="new    " points="12.255,615.003 9.025,288.255 629.528,290.266 722.975,612.359 
													"/>
					</defs>
					<clipPath id="SVGID_2_">
						<use xlink:href="#SVGID_61_"  overflow="visible"/>
					</clipPath>
					<g clip-path="url(#SVGID_2_)">
						<path fill="#959595" d="M516.12,557.573c-0.747-0.023-1.459-0.052-2.126-0.088c-0.668-0.035-1.291-0.079-1.86-0.13
							c-0.569-0.051-1.085-0.11-1.537-0.179c-0.453-0.068-0.842-0.146-1.16-0.234c-1.24-0.347-2.708-0.545-4.363-0.763
							c-1.655-0.219-3.497-0.459-5.485-0.888c-1.987-0.43-4.12-1.049-6.356-2.026c-2.235-0.978-4.571-2.311-6.968-4.171
							c0.1,0.033,0.19,0.063,0.268,0.09s0.144,0.049,0.198,0.065c0.054,0.018,0.097,0.032,0.125,0.042
							c0.028,0.009,0.042,0.014,0.042,0.014s0.259,0.166,0.744,0.417c0.484,0.25,1.196,0.584,2.101,0.916
							c0.904,0.333,2.002,0.666,3.262,0.914c1.259,0.25,2.678,0.413,4.223,0.41c0.386-0.001,0.781-0.014,1.182-0.036
							c0.401-0.022,0.81-0.059,1.225-0.106c0.415-0.049,0.838-0.109,1.266-0.186c0.429-0.074,0.864-0.164,1.304-0.27
							c1.579,0.825,3.106,1.597,4.51,2.289c1.404,0.693,2.683,1.308,3.765,1.819c1.083,0.511,1.967,0.919,2.582,1.2
							c0.615,0.279,0.958,0.433,0.958,0.433L516.12,557.573 M470.993,534.561c-1.095-1.101-2.195-2.213-3.288-3.324
							c-1.092-1.109-2.176-2.217-3.238-3.311c-1.063-1.092-2.103-2.168-3.108-3.216c-1.005-1.047-1.975-2.065-2.896-3.039
							c0.497-0.093,0.993-0.186,1.489-0.278c0.496-0.095,0.991-0.19,1.485-0.287c0.494-0.095,0.987-0.192,1.48-0.29
							c0.494-0.099,0.987-0.197,1.48-0.297c0.942,1.123,1.808,2.181,2.581,3.169c0.774,0.99,1.455,1.91,2.026,2.76
							s1.033,1.627,1.367,2.331c0.335,0.704,0.541,1.333,0.604,1.884c0.038,0.34,0.064,0.674,0.079,1.005s0.021,0.658,0.017,0.983
							c-0.002,0.324-0.012,0.645-0.026,0.963S471.014,534.247,470.993,534.561 M543.256,289.986
							c-0.428-0.002-0.852-0.003-1.274-0.003c-0.42,0-0.838,0-1.252,0.003c-0.414,0-0.825,0.002-1.232,0.004
							c-0.406,0.002-0.81,0.004-1.209,0.008c-9.443,0.664-17.74,1.748-25.033,3.139c-7.306,1.394-13.608,3.094-19.049,4.988
							c-5.452,1.897-10.038,3.99-13.898,6.163c-3.869,2.178-7.008,4.436-9.557,6.657c-0.043,0.035-0.089,0.074-0.134,0.113
							c-0.045,0.04-0.093,0.081-0.14,0.124c-0.048,0.043-0.096,0.087-0.145,0.132c-0.047,0.046-0.096,0.092-0.144,0.139
							c-2.426,2.188-4.285,4.33-5.71,6.314c-1.428,1.988-2.418,3.816-3.104,5.373c-0.688,1.558-1.071,2.842-1.281,3.735
							c-0.21,0.896-0.25,1.399-0.25,1.399c0.03,0.054,0.062,0.105,0.094,0.157c0.033,0.052,0.066,0.104,0.1,0.156
							c0.033,0.051,0.068,0.103,0.102,0.154c0.034,0.05,0.066,0.102,0.099,0.151c-0.016,0.05-0.029,0.098-0.041,0.144
							c-0.012,0.045-0.023,0.087-0.031,0.129c-0.01,0.041-0.018,0.079-0.024,0.116c-0.007,0.036-0.013,0.071-0.018,0.104
							c-0.327,0.081-0.655,0.162-0.981,0.244c-0.327,0.082-0.655,0.164-0.981,0.247c-0.327,0.083-0.655,0.167-0.981,0.25
							c-0.328,0.085-0.654,0.169-0.98,0.254c-0.112-0.011-0.222-0.022-0.333-0.034c-0.111-0.012-0.222-0.023-0.333-0.035
							c-0.112-0.011-0.224-0.022-0.336-0.035c-0.111-0.01-0.224-0.022-0.338-0.034c-1.479,0.19-3.282,0.571-5.293,1.102
							c-2.012,0.53-4.231,1.21-6.541,2.002c-2.312,0.792-4.714,1.695-7.089,2.672c-2.378,0.977-4.729,2.027-6.934,3.11
							c-14.758,5.6-28.604,12.221-41.263,19.157c-12.746,6.983-24.294,14.288-34.34,21.183
							c-10.112,6.939-18.69,13.457-25.408,18.791c-6.751,5.362-11.608,9.518-14.236,11.694c-4.621,4.308-8.683,8.058-12.271,11.312
							c-3.601,3.264-6.724,6.023-9.459,8.343c-2.739,2.324-5.088,4.201-7.135,5.697c-2.05,1.498-3.797,2.61-5.334,3.403
							c-1.973,2.37-6.141,6.443-11.416,11.342c-5.296,4.918-11.717,10.672-18.149,16.364c-6.465,5.721-12.939,11.376-18.282,16.038
							c-5.365,4.682-9.577,8.354-11.473,10.07c-1.955,1.781-4.094,3.414-6.5,5.028c-2.409,1.617-5.084,3.216-8.109,4.928
							c-3.03,1.715-6.412,3.545-10.229,5.622c-3.824,2.081-8.088,4.411-12.877,7.127c-7.883,4.265-16.749,9.047-25.826,13.912
							c-9.117,4.885-18.449,9.856-27.204,14.467c-8.79,4.631-16.993,8.895-23.795,12.34c-6.824,3.455-12.228,6.08-15.395,7.417
							c-4.905,2.072-11.221,4.857-17.702,7.885c-6.498,3.035-13.164,6.316-18.732,9.366c-5.583,3.058-10.062,5.881-12.154,7.988
							c-2.096,2.109-1.796,3.497,2.181,3.678c-1.151,1.094-4.601,3.055-8.834,5.381c-4.242,2.332-9.277,5.033-13.579,7.601
							c-4.313,2.573-7.887,5.011-9.187,6.803c-1.302,1.794-0.321,2.938,4.482,2.921c1.104-0.004,2.41-0.07,3.936-0.202
							c1.526-0.134,3.272-0.334,5.257-0.609c1.983-0.274,4.205-0.622,6.684-1.05c2.477-0.429,5.21-0.936,8.217-1.529
							c5.208-0.991,14.404-4.18,25.328-8.463c10.881-4.268,23.454-9.615,35.5-14.959c11.989-5.319,23.457-10.636,32.246-14.895
							c8.755-4.244,14.87-7.447,16.217-8.572c1.359-0.939,6.751-2.636,14.609-4.766c7.84-2.126,18.131-4.683,29.313-7.35
							c11.152-2.662,23.19-5.432,34.576-7.998c11.357-2.561,22.071-4.919,30.628-6.764c0.014-0.063,0.027-0.123,0.041-0.185
							c0.013-0.061,0.026-0.122,0.038-0.184c0.012-0.061,0.024-0.122,0.036-0.183c0.012-0.061,0.022-0.122,0.035-0.184
							c3.521-0.161,7.348-0.445,11.479-0.861c4.13-0.417,8.561-0.967,13.294-1.659c4.728-0.692,9.753-1.528,15.075-2.518
							c5.316-0.989,10.924-2.13,16.819-3.437c4.08-1.057,8.046-1.931,11.91-2.648c3.861-0.717,7.622-1.276,11.29-1.706
							c3.667-0.429,7.244-0.728,10.741-0.919c3.496-0.193,6.913-0.279,10.259-0.286c2.71-0.005,5.374,0.043,7.997,0.132
							c2.624,0.087,5.207,0.215,7.755,0.369c2.547,0.153,5.062,0.334,7.545,0.527c2.483,0.194,4.937,0.401,7.364,0.608
							c2.428,0.207,4.832,0.415,7.215,0.609c2.382,0.194,4.746,0.375,7.094,0.528c2.348,0.155,4.679,0.282,7,0.371
							c2.32,0.089,4.629,0.137,6.931,0.133c0.4,0,0.801-0.003,1.201-0.007c0.4-0.005,0.8-0.01,1.199-0.018
							c0.4-0.008,0.799-0.017,1.199-0.027c0.399-0.012,0.798-0.023,1.198-0.038c1.415-0.107,2.83-0.225,4.245-0.354
							s2.827-0.269,4.24-0.417c1.411-0.148,2.821-0.308,4.23-0.476c1.407-0.167,2.814-0.345,4.217-0.531
							c0.696,0.621,1.35,1.225,1.953,1.805c0.604,0.579,1.158,1.134,1.652,1.655c0.495,0.521,0.932,1.009,1.302,1.457
							c0.371,0.446,0.674,0.853,0.903,1.208c0.62,0.972,2.145,2.373,4.053,4.022c1.911,1.651,4.209,3.554,6.372,5.522
							c2.166,1.973,4.196,4.012,5.566,5.938c1.373,1.929,2.083,3.742,1.601,5.254c-0.265,0.351-0.907,0.804-1.754,1.293
							c-0.848,0.49-1.9,1.02-2.984,1.523s-2.198,0.984-3.169,1.376s-1.799,0.696-2.309,0.851c-0.511,0.155-1.879,0.613-3.557,1.289
							c-1.679,0.676-3.669,1.571-5.423,2.598c-1.756,1.028-3.275,2.188-4.01,3.395c-0.735,1.207-0.684,2.462,0.705,3.675
							c0.132,0.184,0.389,0.408,0.743,0.643c0.353,0.232,0.803,0.476,1.317,0.695c0.514,0.221,1.093,0.417,1.706,0.558
							c0.613,0.142,1.26,0.227,1.91,0.225c0.442,0,0.884-0.042,1.32-0.135c0.435-0.091,0.861-0.233,1.27-0.437
							c0.41-0.203,0.8-0.465,1.163-0.799c0.363-0.334,0.699-0.737,0.997-1.221c0.734-1.197,1.897-2.387,3.278-3.504
							c1.38-1.116,2.978-2.161,4.584-3.067c1.605-0.904,3.219-1.671,4.636-2.235c1.416-0.563,2.633-0.921,3.445-1.011
							c0.041-0.006,0.083-0.009,0.127-0.013c0.042-0.004,0.084-0.006,0.128-0.008c0.043-0.003,0.086-0.005,0.13-0.006
							s0.087-0.002,0.13-0.002c0.807-0.002,1.681,0.181,2.504,0.49c0.824,0.311,1.597,0.748,2.199,1.257s1.035,1.089,1.176,1.683
							c0.142,0.594-0.008,1.202-0.569,1.767c-0.588,0.598-1.299,1.696-2.021,3.084c-0.723,1.39-1.455,3.07-2.085,4.826
							c-0.632,1.761-1.161,3.597-1.475,5.294c-0.314,1.7-0.413,3.261-0.182,4.465c-0.167,1.096-0.448,2.092-0.792,2.992
							c-0.344,0.899-0.751,1.703-1.172,2.41c-0.422,0.708-0.856,1.322-1.253,1.842c-0.398,0.521-0.758,0.951-1.031,1.289
							c-0.193,0.24-0.228,0.701-0.105,1.259c0.124,0.56,0.404,1.214,0.843,1.839c0.438,0.625,1.034,1.221,1.787,1.658
							c0.753,0.438,1.663,0.719,2.727,0.715c0.439-0.002,0.904-0.052,1.395-0.158c0.491-0.107,1.008-0.271,1.552-0.5
							c0.543-0.23,1.112-0.525,1.708-0.896c0.595-0.371,1.216-0.815,1.862-1.345c1.608-1.896,2.888-4.439,3.95-7.204
							c1.06-2.759,1.902-5.736,2.641-8.511c0.736-2.77,1.369-5.338,2.008-7.291c0.64-1.949,1.287-3.287,2.056-3.601
							c0.21-0.033,0.413-0.065,0.609-0.095c0.197-0.027,0.388-0.054,0.576-0.075s0.371-0.039,0.553-0.051
							c0.181-0.013,0.36-0.019,0.54-0.019c0.405-0.002,0.81,0.03,1.234,0.106c0.424,0.075,0.867,0.197,1.351,0.375
							c0.485,0.178,1.008,0.414,1.595,0.72c0.585,0.306,1.232,0.681,1.963,1.138c1.049,0.661,2.381,1.476,3.79,2.326
							c1.409,0.852,2.895,1.739,4.249,2.544c1.356,0.806,2.581,1.527,3.467,2.051c0.886,0.521,1.433,0.842,1.433,0.842
							s0.301,0.196,0.828,0.49c0.525,0.293,1.277,0.686,2.177,1.078c0.899,0.393,1.947,0.784,3.065,1.076
							c1.118,0.294,2.307,0.487,3.488,0.484c0.134,0,0.269-0.004,0.403-0.01c0.134-0.005,0.269-0.014,0.402-0.024
							s0.267-0.026,0.4-0.042c0.133-0.018,0.266-0.038,0.398-0.061c1.182,0.464,2.566,1.038,4.126,1.661
							c1.562,0.625,3.299,1.297,5.187,1.954c1.889,0.66,3.927,1.305,6.089,1.873c2.163,0.567,4.448,1.059,6.829,1.41
							c1.161,0.673,2.969,1.345,5.148,1.974c2.18,0.629,4.73,1.214,7.375,1.715c2.646,0.501,5.386,0.916,7.943,1.206
							c2.557,0.288,4.931,0.45,6.846,0.443c0.617,0,1.187-0.02,1.698-0.059c0.513-0.039,0.967-0.096,1.355-0.174
							c0.388-0.077,0.71-0.176,0.957-0.296c0.245-0.119,0.414-0.261,0.499-0.425c0.343-0.676-0.15-1.348-1.126-1.99
							s-2.437-1.254-4.03-1.809c-1.592-0.554-3.317-1.053-4.825-1.467c-1.507-0.415-2.796-0.746-3.516-0.968
							c-0.719-0.221-3.135-0.974-6.414-1.99c-3.278-1.015-7.417-2.294-11.583-3.573c-4.163-1.276-8.354-2.551-11.742-3.563
							c-3.386-1.01-5.975-1.757-6.938-1.977c-0.964-0.219-2.234-0.785-3.592-1.513c-1.359-0.727-2.808-1.613-4.134-2.471
							s-2.532-1.688-3.406-2.302c-0.873-0.615-1.415-1.016-1.415-1.016s0.553,0.077,1.513,0.194c0.96,0.116,2.33,0.271,3.963,0.427
							c1.634,0.154,3.533,0.309,5.551,0.422c2.02,0.114,4.158,0.188,6.274,0.183c1.18-0.003,2.35-0.031,3.49-0.09
							c1.139-0.06,2.246-0.149,3.295-0.28c1.048-0.129,2.041-0.296,2.95-0.508c0.908-0.213,1.735-0.47,2.454-0.779
							c3.224,0.123,6.258,0.143,9.138,0.163c2.88,0.02,5.607,0.04,8.219,0.165c2.61,0.125,5.105,0.354,7.523,0.795
							c2.418,0.438,4.759,1.088,7.061,2.053c0.61,0.256,1.196,0.472,1.756,0.651c0.56,0.18,1.095,0.324,1.604,0.437
							c0.509,0.111,0.993,0.191,1.451,0.243c0.458,0.051,0.89,0.073,1.296,0.073c1.124-0.004,2.051-0.192,2.779-0.484
							c0.729-0.291,1.259-0.686,1.592-1.099c0.332-0.413,0.466-0.847,0.401-1.216s-0.33-0.676-0.792-0.835
							c-0.633-0.218-1.74-0.585-3.115-1.01c-1.375-0.426-3.019-0.91-4.729-1.368c-1.709-0.456-3.484-0.885-5.122-1.199
							c-1.637-0.313-3.137-0.513-4.298-0.511c-1.158,0.003-2.876-0.146-4.841-0.38c-1.965-0.231-4.177-0.548-6.322-0.88
							c-2.146-0.331-4.226-0.677-5.927-0.969c-1.702-0.292-3.026-0.529-3.662-0.645c-0.099-0.017-0.234-0.032-0.404-0.044
							c-0.17-0.012-0.374-0.021-0.609-0.029c-0.235-0.007-0.501-0.012-0.796-0.016c-0.294-0.002-0.618-0.004-0.968-0.002
							c-0.24,0-0.491,0.001-0.754,0.004c-0.264,0.002-0.538,0.005-0.822,0.008c-0.285,0.004-0.581,0.008-0.886,0.014
							c-0.304,0.004-0.618,0.01-0.941,0.016c-0.196-0.219-0.46-0.494-0.795-0.798s-0.74-0.64-1.22-0.978
							c-0.479-0.338-1.031-0.681-1.66-1.002c-0.628-0.32-1.332-0.619-2.116-0.872c-1.068-0.346-2.381-0.779-3.751-1.235
							c-1.371-0.453-2.797-0.931-4.09-1.364c-1.292-0.433-2.451-0.823-3.287-1.104c-0.834-0.281-1.347-0.455-1.347-0.455
							s0.787,0.01,2.035,0.028c1.249,0.02,2.958,0.048,4.804,0.087s3.829,0.088,5.623,0.15c1.794,0.062,3.398,0.133,4.49,0.218
							c0.072,0.007,0.145,0.011,0.219,0.015c0.074,0.005,0.148,0.008,0.223,0.01c0.075,0.004,0.151,0.005,0.227,0.006
							c0.077,0.002,0.153,0.002,0.231,0.002c1.095-0.002,2.302-0.142,3.51-0.361c1.208-0.22,2.414-0.521,3.507-0.846
							c1.093-0.326,2.072-0.677,2.824-0.996c0.751-0.32,1.276-0.611,1.461-0.814c0.069-0.077,0.143-0.143,0.22-0.195
							c0.078-0.055,0.16-0.098,0.249-0.131c0.088-0.033,0.183-0.058,0.285-0.072c0.103-0.016,0.215-0.023,0.335-0.024
							c0.22,0,0.473,0.022,0.768,0.061c0.296,0.037,0.634,0.089,1.027,0.148c0.393,0.06,0.839,0.126,1.35,0.19
							c0.511,0.066,1.086,0.13,1.737,0.185c0.504,0.042,1.038,0.076,1.586,0.104c0.548,0.028,1.11,0.048,1.669,0.063
							c0.561,0.016,1.12,0.025,1.662,0.03c0.542,0.006,1.067,0.007,1.562,0.007c0.494-0.002,0.957-0.006,1.374-0.011
							c0.416-0.005,0.786-0.011,1.092-0.018c0.308-0.007,0.554-0.012,0.723-0.018c0.168-0.004,0.26-0.006,0.26-0.006
							s0.327-0.186,0.657-0.496c0.33-0.31,0.66-0.744,0.667-1.243c0.006-0.499-0.31-1.063-1.275-1.629
							c-0.965-0.567-2.578-1.138-5.164-1.651c-0.442-0.039-0.876-0.071-1.301-0.099c-0.425-0.026-0.84-0.049-1.248-0.065
							c-0.407-0.018-0.805-0.031-1.195-0.038c-0.392-0.008-0.773-0.013-1.148-0.011c-1.683,0.004-3.212,0.09-4.63,0.222
							s-2.724,0.31-3.962,0.497c-1.238,0.186-2.406,0.381-3.547,0.548c-1.142,0.167-2.256,0.306-3.384,0.38
							c-0.153,0.008-0.319,0.018-0.495,0.025c-0.177,0.007-0.366,0.014-0.565,0.019c-0.199,0.006-0.409,0.009-0.629,0.013
							c-0.219,0.002-0.449,0.004-0.687,0.004c-1.908,0.004-4.396-0.059-7.053-0.156c-2.658-0.097-5.486-0.228-8.076-0.359
							c-2.589-0.131-4.94-0.263-6.645-0.362c-1.703-0.099-2.759-0.165-2.759-0.165s-0.902-0.074-2.284-0.23
							c-1.381-0.156-3.244-0.396-5.167-0.728c-1.922-0.331-3.904-0.754-5.527-1.276c-1.622-0.523-2.883-1.146-3.364-1.877
							c-0.481-0.734-0.748-1.328-0.927-1.849c-0.18-0.521-0.272-0.968-0.404-1.41c-0.132-0.441-0.305-0.877-0.644-1.373
							c-0.338-0.497-0.844-1.055-1.644-1.741c-0.39-0.334-1.015-1.023-1.813-1.979s-1.773-2.176-2.864-3.571
							c-1.089-1.395-2.296-2.964-3.559-4.618c-1.262-1.654-2.582-3.393-3.901-5.129c11.377-2.797,22.257-5.992,32.374-9.336
							c10.084-3.332,19.408-6.81,27.717-10.188c8.283-3.364,15.561-6.631,21.584-9.553c6.009-2.915,10.774-5.492,14.053-7.488
							c17.743-8.798,30.557-19.867,39.69-31.593c9.039-11.605,14.465-23.842,17.532-35.185c3.037-11.23,3.768-21.604,3.41-29.672
							c-0.355-8.012-1.783-13.784-3.104-15.901c0.419-0.731,0.844-1.887,1.26-3.3c0.416-1.41,0.821-3.076,1.205-4.828
							c0.383-1.751,0.741-3.59,1.064-5.352c0.322-1.758,0.607-3.439,0.842-4.879c0.085-0.402,0.165-0.8,0.237-1.189
							c0.072-0.391,0.138-0.774,0.195-1.15c0.059-0.375,0.108-0.742,0.151-1.101c0.042-0.357,0.076-0.707,0.102-1.043l-0.003-0.013
							c0.032-0.391,0.052-0.766,0.06-1.123c0.008-0.356,0.005-0.696-0.011-1.014c-0.015-0.317-0.042-0.614-0.082-0.889
							c-0.039-0.273-0.091-0.522-0.155-0.746c-0.625-1.073-1.066-2.468-1.375-4.024c-0.308-1.555-0.484-3.268-0.582-4.978
							c-0.098-1.709-0.116-3.413-0.108-4.955c0.007-1.539,0.042-2.917,0.05-3.972c1.079-2.783,1.378-5.13,1.154-7.116
							c-0.224-1.984-0.97-3.61-1.985-4.955c-1.013-1.345-2.296-2.408-3.597-3.268c-1.298-0.857-2.615-1.511-3.698-2.033
							c-5.072-3.422-11.266-6.138-18.11-8.289c-6.833-2.148-14.32-3.738-21.992-4.904c-7.666-1.164-15.521-1.908-23.092-2.366
							C557.081,290.18,549.79,290.008,543.256,289.986"/>
					</g>
				</g>
			</g>
		</g>
		<g>
			<path fill="#9E7400" d="M464.596,443.496c0,0-3.512,8.511,10.208,34.361c6.707,20.428,12.774,35.107,12.451,42.449
				c-0.315,7.341-2.234,13.723-1.595,19.787c0.639,6.063,13.404,14.681,13.404,14.681s5.429,7.661,14.359,3.83
				c5.428,6.064,10.216,10.53,10.216,10.53l8.615,3.831l11.487-1.595l2.874-0.638c0,0-1.268-5.108-5.104-7.662
				c-3.827-2.55-11.17-7.657-11.17-7.657s12.125,0.316,16.275,0.956c4.148,0.638,11.487-3.831,12.449-5.428
				c0.955-1.593,1.917-0.319,5.743,0.321c3.835,0.637,9.578,0.319,9.578,0.319s5.743-5.427-3.827-9.256
				c-9.254-1.599-14.682,1.915-20.11,2.553c-5.428,0.639-25.853-1.914-25.853-1.914s-13.718-2.237-14.998-7.659
				c-1.277-5.427,0.316-6.704-2.232-11.81c-2.556-5.106-15.644-54.574-17.878-57.447c-2.231-2.872-5.743-16.702-3.826-22.554
				c1.918-5.849-4.788-17.022-11.169-12.873C468.105,434.771,464.828,437.513,464.596,443.496z"/>
			<path fill="#CF9D00" d="M444.169,440.943c0,0-19.149,19.148,0,43.828c8.508,9.789,17.867,28.085,19.569,35.32
				c1.702,7.235,16.178,27.234,13.196,38.299c-1.276,2.554-8.672,8.035-10.748,9.151c-2.073,1.115-18.184,11.007-13.718,19.787
				c0.63,2.233,6.375,7.819,10.052-0.8c3.667-8.617,13.884-17.074,17.071-17.711c3.196-0.639,7.347,5.105,4.633,9.414
				c-2.714,4.31-8.783,23.14-8.783,31.755c-1.436,7.823-4.308,12.767-5.583,15.162c-1.278,2.392,0.96,17.392,10.687,4.629
				c7.504-13.407,11.979-45.321,15.166-47.56c2.714-0.795,4.147-0.956,7.66,3.833c3.512,4.789,10.849,14.044,10.849,14.044
				s4.946,7.022,10.058,5.425c4.143,3.348,11.007,9.895,19.787,12.448c5.104,6.381,27.449,12.767,29.365,7.979
				c1.908-4.788-8.94-9.576-11.495-11.172c-2.549-1.598-29.199-18.51-32.711-20.107c-3.51-1.596-10.532-13.244-10.532-13.244
				s19.944,5.586,28.403-0.638c12.292,0.957,22.018-1.114,30.003,5.905c7.977,7.02,12.442-2.396,10.208-3.991
				c-2.231-1.596-11.218-7.5-15.693-7.5c-4.466,0-17.015-4.472-19.355-5.32s-28.086,1.704-32.985-1.062
				c-4.887-2.765-14.465-0.427-22.765-18.3c-8.298-17.87-26.171-62.128-26.171-65.317c0-3.195-6.066-12.768-1.917-23.939
				c1.28-3.513,9.255-14.359,8.623-18.51c-0.639-4.152-10.531-10.852-20.75-10.217C446.086,433.176,445.671,439.182,444.169,440.943
				z"/>
			<path id="queue_33_" fill="#C25E3C" d="M240.072,460.167c0,0-102.188,103.531-121.014,118.323
				c-18.825,14.791-59.161,49.75-44.371,51.095c-5.378,9.411-62.858,55.126-3.192,33.614c19.328-6.725,98.66-73.951,104.036-82.019
				c5.378-6.726,72.606-34.961,106.222-48.405C288.476,492.437,291.167,464.201,240.072,460.167z"/>
			<path id="corps_31_" fill="#D18C65" d="M576.893,142.17c15.123,8.068,82.353,26.557,112.945,52.438
				c4.034,10.759-6.722,160.006-88.743,230.598c-20.842,21.513-91.432,77.313-158.662,86.724
				c-30.592,2.021-59.835-17.479-104.878,4.034c-82.021,33.617-104.207,7.397-63.197-22.856
				c41.009-30.252,187.57-328.751,194.965-342.868c7.396-14.119,32.605-33.279,42.69-35.969
				C542.937,120.658,561.77,134.102,576.893,142.17z"/>
			<path id="tete_16_" fill="#7C7C84" d="M517.728,109.899c0,0,10.082-73.951,93.448-86.726
				c28.236-0.672,73.281,3.363,92.105,36.304c4.033,4.706,11.429,14.118,3.362,38.994c-1.345,9.41-4.708,30.253-3.362,39.665
				c0,8.738-6.724,35.629-13.447,47.73C685.128,190.575,529.829,181.836,517.728,109.899z"/>
			<path id="aile_37_" fill="#7C7C84" d="M520.753,110.908c0,0,20.168,21.177,35.296,24.201
				c15.126,3.027,81.683,31.263,32.269,125.047c-17.143,31.263-124.038,96.812-152.273,114.963
				c-24.204,20.169-222.866,167.402-239,174.461c-12.102,7.059-112.694,64.792-9.833-34.035
				c34.411-39.798,50.17-49.666,61.263-67.817c8.068-13.11,55.465-86.152,64.541-105.095c6.555-6.339,17.143-22.979,38.32-58.272
				C365.453,263.184,437.052,150.238,520.753,110.908z"/>
			<path id="aile_41_" fill="#372E2F" d="M333.821,452.303c-24.203,20.169-120.642,90.219-136.777,97.277
				c-12.102,7.059-112.694,64.792-9.833-34.035c34.411-39.798,50.17-49.666,61.263-67.817
				C256.542,434.617,362.058,434.15,333.821,452.303z"/>
			<path id="aile_40_" fill="#C25E3C" d="M517.728,110.908c0,0,23.194,21.177,38.321,24.201c15.126,3.027,12.254,1.503-37.16,95.287
				c-17.143,31.262-77.644,69.578-105.88,87.729c-24.203,20.169-175.628,147.753-164.536,129.602
				c8.068-13.11,55.465-86.152,64.541-105.095c6.555-6.339,17.143-22.979,38.32-58.272
				C365.453,263.184,434.027,150.238,517.728,110.908z"/>
			<path id="blanc_tete" fill="#E5DDD0" d="M533.277,71.193c0,0,46.301,25.257,66.47,17.864
				c10.084,26.22,102.591,57.339,102.591,57.339s-8.845,42.661-12.505,50.229c-3.66,7.566-156.578-9.413-174.059-83.779
				C515.775,109.899,525.315,77.678,533.277,71.193z"/>
			<path id="tache_tete_1_" fill="#333333" d="M579.747,89.227c0,0-18.358,71.806-13.317,78.36
				c5.043,6.556-21.979-5.753-26.517-14.829c-4.539-9.076,9.077-61.516,14.118-67.061C559.074,80.15,576.217,84.184,579.747,89.227z
				"/>
			<path id="tache_tete_3_" fill="#333333" d="M642.271,120.992c0,0-22.674,58.464-28.724,61.489
				c-6.051,3.025-8.155,4.538-9.624-2.521c-1.47-7.06,16.538-62.666,24.604-65.691c8.068-3.025,8.196,2.185,13.743,5.21"/>
			<path id="bec_37_" fill="#CF9D00" d="M658.237,112.59c0,0,13.445-7.396,15.461-15.463c0.674-4.706,21.517-9.1,22.86,7.888
				c0,7.575,0.671,24.382-7.396,36.484c-2.689,2.016-3.362-2.019-7.396-6.052c-4.034-4.034-22.856-4.706-27.563-10.085
				C649.496,119.983,648.153,112.59,658.237,112.59z"/>
			<path id="bec_38_" fill="#333333" d="M666.305,124.691c0,0,13.444-7.396,15.462-15.463c0.673-4.706,13.462-15.307,14.805,1.68
				c0,7.575,0.406,20.169-7.662,32.27c-2.688,2.018-4.034-2.521-8.067-6.555c-4.034-4.033-12.957-4.162-19.3-7.453
				C654.204,125.362,661.269,124.641,666.305,124.691z"/>
			<ellipse id="contour_oeil_9_" fill="#CF9D00" cx="618.025" cy="87.563" rx="19.496" ry="16.959"/>
			
				<radialGradient id="oeil_5_" cx="620.5898" cy="827.8545" r="19.8672" gradientTransform="matrix(1 0 0 0.8698 0 -637.1797)" gradientUnits="userSpaceOnUse">
				<stop  offset="0" style="stop-color:#FFFFFF"/>
				<stop  offset="0.1386" style="stop-color:#D5D4D3"/>
				<stop  offset="0.2079" style="stop-color:#494340"/>
				<stop  offset="0.3663" style="stop-color:#28201D"/>
				<stop  offset="1" style="stop-color:#231B18"/>
			</radialGradient>
			<path id="oeil_25_" fill="url(#oeil_5_)" d="M632.444,87.563c0,6.926-6.458,12.541-14.42,12.541
				c-7.961,0-14.417-5.615-14.417-12.541c0-6.925,6.456-12.537,14.417-12.537C625.986,75.026,632.444,80.639,632.444,87.563z"/>
			<path fill="#333333" d="M588.318,220.827c0,0,6.723,10.086,0,13.447c-6.722,3.362-12.775,2.689-13.446-2.688
				C574.2,226.207,577.563,218.137,588.318,220.827z"/>
			<path fill="#333333" d="M558.737,237.637c0,0,6.722,12.772,0,18.823c-6.723,6.051-8.739,1.983-10.756-5.395
				C545.964,243.687,552.686,234.274,558.737,237.637z"/>
			<path fill="#333333" d="M504.955,228.361c0,0,3.36,14.055-4.708,16.034C492.18,246.376,500.921,232.533,504.955,228.361z"/>
			<path fill="#333333" d="M527.141,186.008c0,0,3.359,14.055-4.708,16.034C514.366,204.021,523.106,190.179,527.141,186.008z"/>
			<path fill="#333333" d="M503.609,262.28l2.038,11.229c0,0-1.922,7.151-8.704,7.824
				C492.853,280.662,496.887,263.396,503.609,262.28z"/>
			<path fill="#333333" d="M526.804,222.403c0,0,8.571,8.45,2.016,14.53C525.291,238.979,517.728,230.028,526.804,222.403z"/>
			<path fill="#333333" d="M547.616,198.137c0,0,0.868,10.59-4.173,10.59C539.913,206.709,533.638,193.096,547.616,198.137z"/>
			<path fill="#333333" d="M573.696,187.549c2.362-0.886,16.182,18.152,3.301,12.606C571.175,198.137,557.561,193.6,573.696,187.549
				z"/>
			<path fill="#333333" d="M534.964,273.267c0,0,8.479,8.067,9.487,10.589c1.008,2.521-1.111,7.059-5.094,9.076
				c-3.983,2.017-6.503-5.547-6.503-9.832C532.854,278.813,530.519,275.788,534.964,273.267z"/>
			<path fill="#333333" d="M502.096,291.25c1.468-2.717,6.839-6.386,14.512,3.698c2.632,3.024,0.899,10.085-3.529,12.604
				c-4.428,2.521-7.512,12.082-6.948-2.52C506.635,302.512,497.559,299.652,502.096,291.25z"/>
			<path fill="#333333" d="M486.97,301.504c0,0,5.042,17.143-8.572,23.193c-2.016-1.008-3.025-5.547-2.521-11.597
				C476.382,307.05,479.911,294.948,486.97,301.504z"/>
			<path fill="#333333" d="M457.725,300.4c0,0,5.547,7.152,0,14.717c-1.008,2.521-11.092,0.165-8.571-11.767
				C451.17,298.479,453.188,299.802,457.725,300.4z"/>
			<path fill="#333333" d="M420.917,334.177c0,0-4.033,7.382-6.555,9.035c-2.521-2.38-6.051-6.854-6.051-6.854s-2.016-5.105,0-7.627
				C410.329,326.21,421.925,320.463,420.917,334.177z"/>
			<path fill="#333333" d="M467.306,330.748c0,0,4.033,4.033,6.555,5.546c2.521,1.514-1.008,7.564-6.555,8.572
				C461.759,345.874,455.708,314.109,467.306,330.748z"/>
			<path fill="#333333" d="M446.128,337.808l2.621,10.084l-8.167,11.597c0,0-10.463-10.084-3.467-18.656
				C444.111,332.261,445.36,334.85,446.128,337.808z"/>
			<path fill="#333333" d="M417.388,359.008c0,0,4.538,14.094-3.025,20.65C410.329,374.11,406.295,360.04,417.388,359.008z"/>
			<path fill="#333333" d="M470.835,252.09c0,0,2.266,16.135-3.153,18.152C463.776,265.199,458.229,257.635,470.835,252.09z"/>
			<path fill="#333333" d="M437.115,206.176c0,0,17.979,1.574,23.076,8.113c5.097,6.538-9.754,8.297-18.464,7.922
				C438.061,218.811,427.094,214.214,437.115,206.176z"/>
			<path fill="#333333" d="M411.841,236.934l6.66,7.089c0,0,0.399,6.019-8.676,7.043c-6.555,1.024-10.084-0.489-8.572-9.564
				C403.27,236.459,407.229,232.022,411.841,236.934z"/>
			<path fill="#333333" d="M379.572,263.425l16.134,12.867c0,0-4.033,7.06-16.134,6.051c-5.043,0-12.102-1.009-11.598-11.093
				C368.478,261.165,374.458,259.346,379.572,263.425z"/>
			<path fill="#333333" d="M348.813,304.626c0,0,2.521,7.466,6.555,8.978c4.034,1.514-2.52,10.589-9.58,9.581
				c-7.059-1.009-8.067-4.865-7.563-9.239C338.729,309.57,347.62,301.813,348.813,304.626z"/>
			<path fill="#333333" d="M386.126,293.351c0,0-0.694,9.477,14.779,7.05c4.884,6.145,8.415,4.9-3.183,12.33
				c-11.597,7.43-25.211-1.093-28.741-9.691C365.453,294.443,367.47,294.274,386.126,293.351z"/>
			<path fill="#333333" d="M336.713,334.781c0,0,16.639,5.783,21.177,12.724c4.538,6.941-8.067,10.18-10.588,11.838
				c-2.521,1.657-18.657-8.426-17.144-16.494C331.67,334.781,334.435,333.927,336.713,334.781z"/>
			<path fill="#333333" d="M334.191,369.572c0,0-5.043,15.631-15.127,13.615c-10.084-2.018-16.64,1.691-18.151-6.717
				c-1.514-8.41,4.033-21.497,12.102-21.257C321.082,355.455,332.174,361,334.191,369.572z"/>
			<path fill="#333333" d="M437.304,242.761c0,0,10.59,3.783,1.765,9.329C435.539,252.594,427.725,245.787,437.304,242.761z"/>
			<path fill="#333333" d="M481.676,182.255c0,0,10.588,3.782,1.765,9.329C479.911,192.088,472.096,185.281,481.676,182.255z"/>
			<path fill="#333333" d="M479.271,213.012c0,0,13.247-0.503,5.682,8.068C482.684,224.105,470.059,220.827,479.271,213.012z"/>
			<path fill="#333333" d="M447.001,182.76c0,0,13.245-0.505,5.682,8.066C450.414,193.853,437.789,190.575,447.001,182.76z"/>
			<path fill="#333333" d="M424.447,194.356c0,0,14.622,1.261,3.278,7.059c-11.345,5.8-13.615,6.216-13.615,6.216
				S409.825,201.415,424.447,194.356z"/>
			<path fill="#333333" d="M413.563,275.283c0.45-1.752,3.825,3.277,9.119,0c5.294-3.276,8.824,2.018,11.093,4.034
				c2.27,2.017,5.508,2.017,7.292,2.521c1.784,0.504-11.061,9.075-23.295,4.537C414.11,286.376,411.754,282.343,413.563,275.283z"/>
			<path fill="#333333" d="M355.621,328.73c0,0,18.207-8.319,36.08-3.781c-2.549,8.823-5.07,13.615-15.407,14.37
				C365.957,340.076,357.133,336.799,355.621,328.73z"/>
			<path fill="#333333" d="M387.666,349.236c0,0,1.658,11.278,3,12.024c1.343,0.749-5.38,10.329-5.38,10.329
				S375.927,353.941,387.666,349.236z"/>
			<path fill="#333333" d="M325.717,405.372L338,401.339v15.127l-17.422,13.11C320.578,429.576,321.054,409.068,325.717,405.372z"/>
			<path fill="#333333" d="M284.443,405.709c0,0,5.713-10.421,10.756-4.37c3.025,4.37-0.674,11.767-5.379,14.455
				c-4.706,2.688-14.79,13.782-14.79,13.782L284.443,405.709z"/>
			<path fill="#333333" d="M512.349,361c0,0,3.36,14.454-9.076,17.145C501.256,379.488,501.256,364.7,512.349,361z"/>
			<path fill="#333333" d="M481.423,375.793c0,0,0.337,9.41-2.016,12.771c-2.354,3.363-7.396,6.724-7.396,6.724
				s-4.369,2.351-3.698-5.716C468.313,384.195,472.011,375.793,481.423,375.793z"/>
			<path fill="#333333" d="M468.243,424.869c0,0-1.946,21.849-15.056,22.186c-3.025-0.337-5.041-9.749-2.688-14.455
				C452.851,427.896,462.793,422.853,468.243,424.869z"/>
			<path fill="#333333" d="M452.851,390.246c0,0-0.337,22.522-17.144,24.876C432.01,412.769,423.605,382.514,452.851,390.246z"/>
			<path fill="#333333" d="M452.851,474.281c0,0-2.352,18.152-15.461,24.203C436.38,498.149,436.378,475.628,452.851,474.281z"/>
			<path fill="#333333" d="M529.157,322.343c0.815,0.681-1.008,14.456-9.076,20.169c-2.016-0.671-5.379-9.747-2.353-12.771
				C520.753,326.714,525.124,318.981,529.157,322.343z"/>
			<path fill="#333333" d="M422.597,439.659c0,0,21.177,1.344,12.438,15.462c-6.387,5.043-17.144,6.725-17.144,6.725
				S402.764,447.054,422.597,439.659z"/>
		</g>
	</g>
</g>
<g id="heron_vert">
</g>
<g id="pic_de_la_guadeloupe">
</g>
<g id="héron_garde-boeufs">
</g>
</svg>
