<?xml version="1.0" encoding="utf-8"?>
<!-- Generator: Adobe Illustrator 16.0.0, SVG Export Plug-In . SVG Version: 6.00 Build 0)  -->
<!DOCTYPE svg PUBLIC "-//W3C//DTD SVG 1.1//EN" "http://www.w3.org/Graphics/SVG/1.1/DTD/svg11.dtd">
<svg version="1.1" xmlns="http://www.w3.org/2000/svg" xmlns:xlink="http://www.w3.org/1999/xlink" x="0px" y="0px" width="732px"
	 height="692px" viewBox="0 0 732 692" enable-background="new 0 0 732 692" xml:space="preserve">
<g id="Calque_1" display="none">
	<rect x="232.41" y="649.836" display="inline" fill="none" width="415.59" height="37.879"/>
	<text transform="matrix(1 0 0 1 232.4102 674.6855)" display="inline" font-family="'MyriadPro-Regular'" font-size="35">Moqueur corrosol</text>
</g>
<g id="colombe_à_croissant">
</g>
<g id="colombe_rouviolette">
</g>
<g id="colibri_madere">
</g>
<g id="colibri_à_tête_bleue">
</g>
<g id="elenie_siffleuse">
</g>
<g id="grive_à_pieds_jaunes">
</g>
<g id="merle_à_lunette">
</g>
<g id="moucherolle_gobemouche">
</g>
<g id="moqueur_corossol">
	<g>
		<g opacity="0.3">
			<g>
				<g enable-background="new    ">
					<defs>
						<polygon id="SVGID_25_" enable-background="new    " points="11.783,563.837 10.085,315.766 650.282,317.375 721.915,561.854 
													"/>
					</defs>
					<clipPath id="SVGID_2_">
						<use xlink:href="#SVGID_25_"  overflow="visible"/>
					</clipPath>
					<g clip-path="url(#SVGID_2_)">
						<path fill="#959595" d="M26.781,315.808c-1.344-0.003-2.804,0.044-4.293,0.165c-1.49,0.121-3.009,0.313-4.469,0.597
							c-1.462,0.284-2.865,0.661-4.124,1.149c-1.26,0.489-2.375,1.091-3.259,1.825c-0.529,0.292-0.659,0.523-0.521,0.707
							c0.14,0.184,0.551,0.322,1.105,0.428s1.254,0.182,1.969,0.241c0.716,0.06,1.448,0.103,2.071,0.146
							c0.608,0.042,2.678,0.637,5.566,1.604c2.89,0.969,6.601,2.312,10.491,3.852c3.895,1.542,7.973,3.282,11.585,5.04
							c3.617,1.761,6.77,3.54,8.808,5.159c-0.278,2.24-0.042,4.43,0.513,6.545c0.556,2.12,1.432,4.164,2.428,6.105
							c1.001,1.945,2.123,3.785,3.169,5.496c1.049,1.713,2.02,3.295,2.716,4.719c0.552,1.133,1.021,2.408,1.415,3.729
							c0.395,1.322,0.718,2.69,0.978,4.007c0.262,1.318,0.463,2.586,0.616,3.703c0.152,1.12,0.257,2.09,0.325,2.814
							c-0.131,0.368-0.233,0.746-0.309,1.13c-0.074,0.385-0.121,0.778-0.136,1.179c-0.016,0.4,0.001,0.811,0.05,1.227
							c0.049,0.419,0.13,0.845,0.245,1.279c0,0-0.575,2.752,0.082,7.528c0.662,4.797,2.57,11.649,7.57,19.829
							c5.034,8.237,13.212,17.837,26.424,28.046c13.317,10.294,31.759,21.213,57.235,31.964c1.471,0.613,3.806,1.656,6.89,2.996
							c3.088,1.342,6.929,2.984,11.402,4.798c4.479,1.814,9.597,3.802,15.232,5.831c5.644,2.032,11.808,4.108,18.371,6.093
							c-2.833,2.828-6.042,6.002-9.361,9.229c-3.329,3.233-6.771,6.521-10.054,9.563c-3.29,3.049-6.422,5.848-9.116,8.096
							c-2.701,2.253-4.962,3.947-6.507,4.781c-2.306,1.244-4.533,2.412-6.811,3.467c-2.279,1.054-4.611,1.993-7.126,2.777
							c-2.519,0.786-5.22,1.821-8.236,2.258c-3.02,0.436-6.355,1.089-10.138,1.089c-0.12,0-0.24,0-0.361,0s-0.241,0-0.363,0
							c-0.121,0-0.243-0.407-0.365-0.409c-0.123,0-0.247-0.202-0.371-0.206c-1.471-0.018-2.863-0.135-4.178-0.148
							c-1.314-0.012-2.553-0.071-3.714-0.078c-1.162-0.006-2.25-0.036-3.265-0.038c-1.014-0.002-1.955-0.015-2.826-0.013
							c-1.511,0.004-2.808,0.004-3.904,0.014c-1.098,0.011-1.996,0.02-2.703,0.033c-0.707,0.011-1.227,0.021-1.568,0.03
							c-0.344,0.009-0.508,0.013-0.508,0.013s-0.523,0.151-1.175,0.388c-0.653,0.235-1.435,0.555-1.949,0.89
							c-0.514,0.334-0.761,0.684-0.345,0.979s1.496,0.537,3.633,0.656c0.703,0.039,1.415,0.071,2.131,0.098
							c0.714,0.026,1.432,0.047,2.146,0.062c0.715,0.017,1.426,0.025,2.129,0.032c0.702,0.007,1.395,0.008,2.072,0.007
							c1.384-0.003,2.701-0.02,3.898-0.044c1.197-0.022,2.276-0.054,3.182-0.084s1.638-0.06,2.145-0.082
							c0.505-0.023,0.785-0.037,0.785-0.037l-21.975,5.965l-10.39,1.505c0,0-0.386,0.191-0.862,0.482
							c-0.478,0.289-1.049,0.674-1.421,1.059c-0.373,0.387-0.548,0.771-0.232,1.061c0.316,0.287,1.124,0.478,2.712,0.475
							c0.16,0,0.326-0.002,0.502-0.007c0.176-0.004,0.358-0.011,0.551-0.02c0.191-0.009,0.393-0.02,0.601-0.032
							c0.21-0.013,0.427-0.028,0.654-0.047c2.492-0.192,6.806-0.854,11.868-1.738c5.062-0.883,10.867-1.987,16.357-3.065
							c5.482-1.079,10.65-2.131,14.445-2.913c3.793-0.783,6.216-1.296,6.216-1.296L138.2,542.375c0,0-0.198,0.174-0.485,0.484
							c-0.288,0.311-0.664,0.759-1.02,1.309c-0.355,0.551-0.692,1.202-0.896,1.92c-0.205,0.718-0.279,1.502-0.112,2.313
							c0.104,0.502,0.128,1.005,0.121,1.477c-0.008,0.472-0.045,0.912-0.064,1.289c-0.02,0.379-0.02,0.693,0.048,0.914
							c0.068,0.22,0.205,0.347,0.458,0.346c0.155,0,0.356-0.049,0.614-0.154c0.259-0.103,0.572-0.263,0.954-0.486
							c0.382-0.222,0.832-0.507,1.36-0.863c0.529-0.355,1.138-0.782,1.837-1.286c1.831-1.316,4.123-2.837,6.597-4.406
							c2.468-1.567,5.117-3.184,7.664-4.695c2.543-1.511,4.985-2.919,7.05-4.073c2.063-1.152,3.747-2.052,4.777-2.548
							c1.029-0.497,2.064-0.915,3.355-1.285c1.29-0.369,2.834-0.689,4.882-0.986c2.05-0.297,4.602-0.572,7.905-0.853
							c3.303-0.279,7.355-0.565,12.41-0.883c5.053-0.317,8.841-0.557,11.682-0.735c2.84-0.18,4.732-0.3,5.994-0.379
							c1.261-0.08,1.892-0.118,2.207-0.139c0.315-0.02,0.315-0.02,0.315-0.02s0.95-0.248,2.046-0.641
							c1.096-0.392,2.335-0.926,2.914-1.502c0.58-0.577,0.502-1.192-1.04-1.746c-1.54-0.554-4.541-1.045-9.807-1.37
							c-0.164-0.003-0.329-0.005-0.492-0.007c-0.165-0.001-0.33,0.316-0.494,0.316c-0.166-0.002-0.329,0.314-0.495,0.314
							s-0.33,0-0.496,0c-3.775,0-7.66-0.145-11.367,0.107c-3.706,0.25-7.232,0.423-10.288,0.752
							c-3.058,0.33-5.644,0.578-7.465,0.825c-1.821,0.246-2.878,0.372-2.878,0.372s1.76-1.449,4.646-3.813
							c2.882-2.36,6.882-5.659,11.37-9.384c4.474-3.711,9.43-7.857,14.249-11.945c4.803-4.074,9.467-8.099,13.392-11.593
							c2.424,0.627,4.886,1.236,7.381,1.82c2.495,0.583,5.026,1.139,7.583,1.665c2.559,0.526,5.146,1.019,7.754,1.476
							c2.609,0.457,5.242,0.875,7.891,1.252c0.147,0.023,0.301,0.049,0.455,0.072c0.156,0.023,0.314,0.047,0.476,0.069
							c0.163,0.022,0.328,0.045,0.497,0.067c0.167,0.022,0.338,0.045,0.512,0.066c-1.104,3.096-2.261,6.265-3.408,9.304
							c-1.151,3.049-2.293,5.963-3.366,8.535c-1.076,2.578-2.082,4.809-2.955,6.485c-0.874,1.678-1.616,2.795-2.162,3.139
							c-0.081,0.735-0.324,1.583-0.888,2.444c-0.566,0.863-1.453,1.742-2.823,2.538c-1.372,0.796-3.226,1.886-5.724,2.416
							c-2.499,0.532-5.643,1.329-9.591,1.329c-0.106,0-0.214,0-0.324,0c-0.109,0-0.22,0-0.331,0c-0.112,0-0.227,0-0.34,0
							s-0.229,0-0.345,0c-2.651,0-5.892-0.36-9.29-0.337c-3.399,0.024-6.959-0.124-10.248-0.055
							c-3.291,0.068-6.312,0.072-8.632,0.213c-2.321,0.139-3.943,0.274-4.435,0.513c-0.512,0.248-1.223,0.563-1.885,0.942
							c-0.661,0.38-1.273,0.79-1.582,1.2c-0.31,0.407-0.316,0.798,0.229,1.13c0.548,0.331,1.649,0.598,3.556,0.747
							c1.116-0.041,2.451-0.102,3.926-0.163c1.476-0.063,3.088-0.133,4.758-0.197c1.671-0.063,3.397-0.123,5.1-0.167
							s3.379-0.071,4.949-0.076c0.928-0.001,1.818,0.005,2.654,0.024c0.835,0.016,1.617,0.045,2.327,0.086
							c0.712,0.042,1.353,0.098,1.905,0.168s1.017,0.154,1.378,0.257c0.075,0.217-2.049,0.8-5.389,1.565
							c-3.345,0.766-7.909,1.714-12.707,2.654c-4.804,0.941-9.843,1.878-14.123,2.617c-4.286,0.742-7.812,1.287-9.582,1.447
							c-1.775,0.159-3.6,0.436-5.358,0.813c-1.759,0.379-3.453,0.857-4.963,1.423s-2.837,1.217-3.862,1.938
							c-1.025,0.722-1.749,1.513-2.053,2.358c0.05,0.001,0.099,0.45,0.149,0.45c0.049,0,0.1,0.449,0.15,0.449
							c0.052,0,0.103,0,0.155,0c0.052,0,0.104,0,0.157,0c1.051,0,2.295-0.521,3.568-0.633c1.272-0.109,2.576-0.479,3.748-0.623
							c1.171-0.145,2.209-0.403,2.957-0.513c0.746-0.107,1.2-0.232,1.2-0.232s1.678-0.331,4.282-0.788
							c2.604-0.457,6.133-1.085,9.836-1.71c3.702-0.625,7.579-1.269,10.883-1.771c3.305-0.505,6.037-0.881,7.455-0.978
							s4.244-0.541,7.687-1.15c3.439-0.609,7.493-1.384,11.366-2.146c3.87-0.762,7.56-1.512,10.282-2.069
							c2.72-0.56,4.475-0.927,4.475-0.927s0.179,0.015,0.419,0.076c0.237,0.062,0.537,0.171,0.778,0.356s0.422,0.447,0.426,0.819
							c0.006,0.372-0.168,0.854-0.639,1.476c-0.472,0.622-1.354,1.609-2.402,2.797c-1.05,1.188-2.267,2.576-3.408,3.998
							c-1.145,1.422-2.211,2.879-2.957,4.198c-0.749,1.319-1.175,2.505-1.035,3.384c0.143,0.879,0.305,1.664,0.471,2.347
							c0.165,0.685,0.331,1.266,0.479,1.737c0.149,0.473,0.279,0.835,0.374,1.079c0.093,0.243,0.15,0.37,0.15,0.37
							s0.059,0.133,0.184,0.333s0.315,0.466,0.577,0.733c0.262,0.266,0.595,0.532,1.005,0.732c0.41,0.199,0.896,0.331,1.465,0.33
							c0.337-0.002,0.704-0.049,1.101-0.159c0.397-0.108,0.823-0.278,1.282-0.522c0.457-0.247,0.947-0.565,1.467-0.975
							c0.521-0.409,1.074-0.906,1.662-1.507c0.917-1.606,1.566-2.913,2.021-3.967c0.455-1.057,0.717-1.859,0.866-2.465
							c0.147-0.602,0.182-1.006,0.18-1.259c-0.005-0.252-0.043-0.354-0.043-0.354s0.356-0.596,0.94-1.518
							c0.586-0.92,1.396-2.167,2.307-3.472c0.907-1.303,1.912-2.661,2.885-3.812c0.972-1.148,1.913-2.09,2.695-2.556
							c0.778-0.469,1.204-1.059,1.805-1.757c0.6-0.697,1.371-1.503,2.843-2.403c1.471-0.898,3.638-1.891,7.028-2.96
							c3.385-1.071,7.989-2.218,14.332-3.429c2.183-0.466,4.213-0.969,6.03-1.462c1.816-0.492,3.421-0.975,4.751-1.398
							c1.332-0.424,2.39-0.789,3.114-1.048c0.725-0.261,1.117-0.414,1.117-0.414s0.113-0.236,0.192-0.588
							c0.078-0.353,0.121-0.821-0.018-1.291c-0.138-0.47-0.458-0.938-1.108-1.287c-0.648-0.351-1.628-0.584-3.083-0.581
							c-0.365,0.001-0.759,0.017-1.184,0.049c-0.427,0.031-0.885,0.08-1.377,0.147c-0.492,0.066-1.02,0.151-1.584,0.257
							c-0.564,0.106-1.164,0.231-1.805,0.379c-2.049,0.554-4.29,1.13-6.498,1.684c-2.21,0.556-4.387,1.087-6.309,1.55
							c-1.924,0.465-3.59,0.858-4.776,1.136c-1.186,0.279-1.892,0.441-1.892,0.441s-0.14,0.054-0.377,0.135
							c-0.236,0.08-0.569,0.186-0.955,0.294c-0.385,0.107-0.822,0.215-1.266,0.295c-0.444,0.08-0.896,0.136-1.311,0.136
							c-0.352,0.001-0.676-0.037-0.947-0.129c-0.271-0.091-0.487-0.237-0.626-0.454c-0.138-0.216-0.194-0.502-0.145-0.875
							c0.051-0.374,0.207-0.834,0.498-1.396c0.335-0.64,0.89-1.999,1.604-3.875c0.714-1.875,1.584-4.263,2.549-6.967
							c0.961-2.698,2.016-5.708,3.097-8.83c1.08-3.116,2.187-6.343,3.259-9.488c0.351,0.006,0.705,0.011,1.063,0.016
							c0.359,0.003,0.721,0.226,1.084,0.228c0.364,0.002,0.732,0.225,1.103,0.225c0.371,0,0.746,0,1.122,0
							c6.069,0,12.896-0.433,19.951-0.848c7.051-0.418,14.33-1.154,21.307-2.006c6.971-0.853,13.64-1.984,19.481-3.299
							c5.835-1.313,10.843-2.889,14.504-4.688c0.095-0.15,0.209-0.292,0.342-0.399c0.133-0.108,0.282-0.202,0.451-0.271
							c0.167-0.069,0.353-0.121,0.555-0.154c0.201-0.032,0.418-0.05,0.651-0.05c0.515-0.002,1.104,0.073,1.757,0.203
							c0.654,0.128,1.373,0.313,2.146,0.535c0.773,0.224,1.601,0.483,2.473,0.763c0.871,0.278,1.787,0.575,2.736,0.873
							c3.22,1.572,10.603,3.161,20.849,4.687c10.257,1.523,23.378,2.982,38.06,4.293c14.69,1.31,30.938,2.47,47.433,3.398
							c16.496,0.928,33.234,1.622,48.904,2.002c4.971,1.4,17.828,5.017,34.953,9.765c17.179,4.762,38.679,10.673,60.828,16.635
							c22.238,5.987,45.131,12.024,64.912,16.989c19.847,4.982,36.532,8.879,46.227,10.548c0.167-0.19,0.402-0.36,0.646-0.524
							c0.244-0.163,0.497-0.318,0.699-0.48c0.203-0.162,0.354-0.331,0.399-0.521c0.044-0.188-0.021-0.396-0.252-0.636
							c-0.155-0.16-0.383-0.335-0.701-0.527c-0.319-0.192-0.728-0.403-1.244-0.636c-0.516-0.232-1.14-0.486-1.888-0.768
							c-0.748-0.28-1.618-0.587-2.632-0.922c-9.601-3.922-25.381-9.469-44.334-15.787c-18.867-6.291-40.857-13.34-63.022-20.312
							c-22.056-6.938-44.286-13.801-63.817-19.777c-19.45-5.952-36.249-11.03-47.581-14.441c2.847,0.559,5.783,1.131,8.644,1.694
							c2.858,0.563,5.64,1.114,8.175,1.631c2.537,0.516,4.827,0.995,6.703,1.409c1.878,0.415,3.339,0.767,4.22,1.027
							c0.317,0.029,0.685,0.07,1.075,0.118c0.392,0.046,0.807,0.097,1.217,0.146c0.411,0.048,0.817,0.092,1.193,0.125
							c0.375,0.032,0.719,0.052,1.002,0.052c0.421,0,0.711-0.046,0.782-0.163c0.07-0.117-0.078-0.306-0.535-0.594
							c-0.458-0.287-1.224-0.674-2.386-1.187c-1.163-0.512-2.725-1.15-4.771-1.939c-2.986-1.218-6.864-2.701-11.09-4.285
							c-4.222-1.582-8.788-3.264-13.163-4.882c-4.37-1.617-8.548-3.168-11.998-4.493c-3.446-1.323-6.169-2.42-7.631-3.129
							c-0.564-0.39-3.454-2.509-7.601-5.51c-4.136-2.992-9.518-6.856-15.088-10.748c-5.555-3.878-11.297-7.785-16.189-10.89
							c-4.883-3.098-8.925-5.4-11.107-6.089c-2.427-0.895-8.754-3.303-17.104-6.466c-8.328-3.156-18.661-7.059-29.133-10.959
							c-10.443-3.89-21.027-7.775-29.924-10.921c-8.875-3.139-16.082-5.544-19.812-6.485c-3.731-0.941-7.17-1.999-10.346-3.106
							c-3.175-1.108-6.085-2.267-8.763-3.411c-2.676-1.145-5.119-2.273-7.36-3.326c-2.238-1.05-4.274-2.022-6.14-2.854
							c-1.83-0.815-6.029-2.502-11.721-4.636c-5.685-2.13-12.854-4.706-20.643-7.31c-7.775-2.599-16.168-5.225-24.323-7.465
							c-8.143-2.236-16.055-4.09-22.893-5.148c-1.563-0.465-3.945-1.18-6.784-2.054c-2.838-0.873-6.129-1.904-9.514-3.004
							c-3.382-1.098-6.855-2.263-10.06-3.406c-3.202-1.14-6.136-2.259-8.442-3.263c-1.474-0.604-3.313-1.363-5.338-2.282
							s-4.237-1.995-6.462-3.233c-2.222-1.239-4.457-2.638-6.531-4.202c-2.072-1.562-3.981-3.287-5.558-5.179
							c-1.045-1.263-2.799-2.539-4.933-3.766c-2.131-1.227-4.644-2.405-7.206-3.475s-5.177-2.03-7.521-2.822
							c-2.342-0.791-4.412-1.415-5.888-1.81c-1.719-0.416-3.685-0.883-5.925-1.351c-2.24-0.467-4.753-0.936-7.562-1.353
							c-2.811-0.417-5.918-0.783-9.346-1.048c-3.43-0.264-7.182-0.427-11.281-0.438c-2.125-0.005-4.342,0.031-6.655,0.114
							c-2.315,0.084-4.727,0.215-7.241,0.402c-2.516,0.187-5.132,0.429-7.853,0.734c-2.723,0.304-5.552,0.671-8.492,1.108
							c-0.427,0.122-0.9,0.24-1.41,0.353c-0.507,0.114-1.052,0.223-1.62,0.326s-1.161,0.203-1.769,0.297
							c-0.606,0.095-1.229,0.184-1.854,0.269c-0.79-0.242-1.572-0.476-2.346-0.697c-0.772-0.221-1.535-0.43-2.286-0.624
							c-0.75-0.194-1.485-0.374-2.203-0.535c-0.716-0.163-1.415-0.308-2.092-0.433c-3.198-0.596-5.951-1.095-8.364-1.516
							c-2.411-0.42-4.483-0.76-6.323-1.037c-1.839-0.276-3.442-0.489-4.919-0.655c-1.479-0.167-2.827-0.284-4.155-0.371
							c-0.218-0.015-0.443-0.028-0.675-0.039c-0.232-0.011-0.471-0.021-0.715-0.029c-0.244-0.008-0.495-0.015-0.75-0.019
							C27.308,315.812,27.046,315.808,26.781,315.808"/>
					</g>
				</g>
			</g>
		</g>
		<g>
			<path id="patted_6_" fill="#59443D" d="M222.186,428.081c0,0-38.043,70.226-47.543,79.726
				c-9.501,9.501-17.561,16.565-32.942,16.112c-15.382-0.452-21.675-0.066-21.675-0.066s-8.123,4.46,0.019,5.365
				c8.146,0.903,17.655-0.022,17.655-0.022l-21.257,10.847l-9.952,2.708c0,0-7.236,6.785,2.264,5.427
				c9.502-1.358,47.052-16.288,47.052-16.288l-14.929,21.659c0,0-3.167,5.03-2.715,10.912s-2.262,11.763,4.977,2.262
				c7.239-9.499,21.717-24.882,25.786-28.5c4.071-3.62,8.145-4.978,27.597-7.238c19.455-2.263,19.455-2.263,19.455-2.263
				s14.927-7.239-5.203-9.727c-14.931-0.453-32.8,4.749-32.8,4.749s54.288-79.828,56.55-88.874c2.262-9.049,2.262-8.352,2.262-8.352
				h-14.929L222.186,428.081z"/>
			<path id="patteg_7_" fill="#664E44" d="M263.48,427.383c0,0-19.304,86.712-23.526,91.535c-0.604,5.43-3.848,14.176-19.003,14.629
				c-9.727,0-30.537-0.038-32.572,1.771c-2.037,1.81-7.239,6.315,0,7.446c6.786-0.453,22.166-2.045,25.786-0.009
				c0.226,1.583-33.702,13.792-40.489,14.924c-6.786,1.13-14.478,5.653-15.834,11.761c3.846,0.226,11.535-2.038,11.535-2.038
				s25.788-8.596,31.217-9.273c5.428-0.679,32.799-11.312,32.799-11.312s2.714,0.453,0.679,4.977
				c-2.034,4.524-10.858,19.68-10.634,26.014c0.228,6.334,0.907,9.951,0.907,9.951s1.81,9.729,8.369-1.809
				c4.071-11.536,3.62-14.477,3.62-14.477s6.333-17.191,9.501-20.584c3.165-3.395,1.129-10.405,26.009-19.227
				c8.6-3.394,14.932-7.919,14.932-7.919s3.394-10.857-9.274-5.428c-8.144,4.071-19.258,8.821-19.258,8.821s-7.66,5.354-4.72-3.694
				c2.941-9.048,22.848-96.06,22.848-96.06H263.48z"/>
			<path id="tete_4_" fill="#483227" d="M235.415,198.193c0,0-25.78-15.836-36.828-26.147c-5.893-5.155-17.585-15.652-23.569-32.039
				c-3.959-10.957-19.727-22.352-25.777-25.778c-10.726-5.49-30.936-15.1-67.025-3.683c-5.524,3.314-18.045,5.155-18.045,5.155
				s-2.578,19.887,0,29.83c2.946,0.737,15.837-9.574,30.935-1.841c8.423,3.452,33.044,40.879,48.243,54.504
				c5.081,4.113,18.78,13.731,25.778,15.467c8.147,3.359,50.452,12.521,50.452,12.521L235.415,198.193z"/>
			<linearGradient id="corps_3_" gradientUnits="userSpaceOnUse" x1="-12.667" y1="182.8203" x2="456.0727" y2="489.6461">
				<stop  offset="0" style="stop-color:#685B4C"/>
				<stop  offset="0.1188" style="stop-color:#6E6152"/>
				<stop  offset="0.6089" style="stop-color:#CDC2AE"/>
				<stop  offset="1" style="stop-color:#CFC4B0"/>
			</linearGradient>
			<path id="corps_9_" fill="url(#corps_3_)" d="M435.383,404.975L227.127,293.389l-34.248-72.917c0,0-28.173-18.782-35.906-22.096
				c-1.634-1.09-3.798-2.025-6.355-2.792c-1.587-0.95-3.247-1.72-4.969-2.18c-8.287-2.209-29.83-33.973-38.393-49.271
				c-8.562-15.298-38.115-6.797-43.397,0c-1.968,20.055,5.558,38.224,8.32,50.653c2.132,9.591,2.783,23.941,2.97,29.998
				c-0.577,3.089-0.709,6.43-0.299,10.052c0,0-10.682,91.698,86.91,175.478c8.418,7.155,46.401,44.191,90.594,56.713
				c15.467,5.155,72.916,0.737,93.539-17.677c1.474-3.682,5.525-0.366,10.682,2.948c12.888,13.257,104.771,27.251,167.744,28.356
				C523.215,469.053,435.383,404.975,435.383,404.975z"/>
			<path id="bout_queue" fill="#CFC4B0" d="M504.248,478.811c0,0,152.188,88.845,190.487,102.103
				c2.116-3.405,10.034-3.221-26.902-22.69c-31.799-17.444-170.95-100.773-170.95-100.773L504.248,478.811z"/>
			<path id="queue_9_" fill="#483227" d="M479.942,430.198c0,0,191.5,118.953,216.849,146.783
				c-32.406-18.414-171.921-96.699-183.705-103.328c-11.783-6.629-58.922-36.823-65.55-43.455
				C440.906,423.57,479.942,430.198,479.942,430.198z"/>
			<path id="aile_12_" fill="#38271F" d="M191.774,194.233c0,0-54.688,1.934-39.774,54.964c5.525,18.782,9.392,48.612,49.164,74.575
				c9.943,6.628,28.725,18.781,37.011,21.544c5.524,1.657,67.945,60.211,114.9,67.393c7.181,0.553,10.495,2.485,0-8.839
				c-3.314-2.762-5.801-7.733-12.981-13.81c2.209,0.828,87.278,36.183,105.508,42.259c10.219,2.762,24.306,7.457,29.277,8.838
				c3.867,0.828,8.839-0.275,1.381-9.667c4.42,2.762,38.392,15.19,44.192,18.782c3.038,0.553,10.771,3.591-1.657-6.63
				c-10.771-9.391-34.802-27.067-40.049-32.591c-1.934-3.038-35.354-60.212-43.641-65.735c-9.114-7.182-76.783-62.975-91.421-70.708
				c-14.64-7.733-24.306-19.334-31.488-26.239c-7.181-6.905-52.754-43.916-80.374-51.925
				C216.079,193.125,201.809,193.732,191.774,194.233z"/>
			<path id="bec_10_" fill="#664E44" d="M100.628,133.745c0,0-21.359-20.254-34.617-25.411c-13.258-5.155-19.15-6.997-24.674-7.733
				c-5.523-0.736-15.467,0.368-19.887,8.103c-2.209,2.578,2.209,2.946,4.787,3.314c2.579,0.369,30.198,20.624,37.933,34.617
				c2.578-0.368,16.94-3.314,32.039,0C101.363,147.372,107.258,145.529,100.628,133.745z"/>
			<ellipse id="oeil_2_" fill="#E5E5DB" cx="132.115" cy="129.05" rx="8.838" ry="7.733"/>
			<radialGradient id="oeil_5_" cx="130.8252" cy="126.9331" r="7.5565" gradientUnits="userSpaceOnUse">
				<stop  offset="0" style="stop-color:#FFFFFF"/>
				<stop  offset="0.1386" style="stop-color:#D5D4D3"/>
				<stop  offset="0.2079" style="stop-color:#494340"/>
				<stop  offset="0.3663" style="stop-color:#28201D"/>
				<stop  offset="1" style="stop-color:#231B18"/>
			</radialGradient>
			<circle id="oeil_3_" fill="url(#oeil_5_)" cx="131.838" cy="128.498" r="4.419"/>
		</g>
	</g>
</g>
<g id="moqueur_grivotte">
</g>
<g id="trembleur_brun">
</g>
<g id="trembleur_gris">
</g>
<g id="paruline_cafeite">
</g>
<g id="saltator_gros_bec">
</g>
<g id="soporophile_rouge-gorge">
</g>
<g id="sucrier_à_ventre_jaune">
</g>
<g id="vachet_luisant">
</g>
<g id="vireo_a_moustaches">
</g>
<g id="merle_quiscale">
</g>
<g id="paruline_jaune">
</g>
<g id="tyran_gris">
</g>
<g id="sporophile_cici">
</g>
<g id="tourterelle_à_queue_carree">
</g>
<g id="colobri_huppé">
</g>
<g id="cécerelle_d_x27_amerique">
</g>
<g id="heron_vert">
</g>
<g id="pic_de_la_guadeloupe">
</g>
<g id="héron_garde-boeufs">
</g>
</svg>
