<?xml version="1.0" encoding="utf-8"?>
<!-- Generator: Adobe Illustrator 16.0.0, SVG Export Plug-In . SVG Version: 6.00 Build 0)  -->
<!DOCTYPE svg PUBLIC "-//W3C//DTD SVG 1.1//EN" "http://www.w3.org/Graphics/SVG/1.1/DTD/svg11.dtd">
<svg version="1.1" xmlns="http://www.w3.org/2000/svg" xmlns:xlink="http://www.w3.org/1999/xlink" x="0px" y="0px" width="732px"
	 height="692px" viewBox="0 0 732 692" enable-background="new 0 0 732 692" xml:space="preserve">
<g id="Calque_1" display="none">
	<rect x="192.41" y="646.085" display="inline" fill="none" width="415.59" height="37.879"/>
	<text transform="matrix(1 0 0 1 192.4102 670.9346)" display="inline" font-family="'MyriadPro-Regular'" font-size="35">Grive à pieds jaunes</text>
</g>
<g id="colombe_à_croissant">
</g>
<g id="colombe_rouviolette">
</g>
<g id="colibri_madere">
</g>
<g id="colibri_à_tête_bleue">
</g>
<g id="elenie_siffleuse">
</g>
<g id="grive_à_pieds_jaunes">
	<g>
		<g opacity="0.3">
			<g>
				<g enable-background="new    ">
					<defs>
						<polygon id="SVGID_18_" enable-background="new    " points="14.777,589.599 10.879,318.472 644.731,320.132 721.121,587.533 
													"/>
					</defs>
					<clipPath id="SVGID_2_">
						<use xlink:href="#SVGID_18_"  overflow="visible"/>
					</clipPath>
					<g clip-path="url(#SVGID_2_)">
						<path fill="#959595" d="M140.707,318.812c-7.65-0.021-14.757,0.503-21.281,1.391c-6.531,0.889-12.482,2.144-17.808,3.585
							c-5.333,1.444-10.04,3.076-14.075,4.714c-4.04,1.641-7.405,3.29-10.044,4.762c-0.177-0.02-0.358-0.038-0.547-0.056
							c-0.188-0.018-0.382-0.036-0.583-0.052c-0.2-0.016-0.407-0.031-0.62-0.045s-0.432-0.026-0.657-0.038
							c-0.751-0.038-1.839-0.116-3.205-0.212c-1.366-0.097-3.013-0.211-4.883-0.322c-1.869-0.111-3.963-0.218-6.224-0.298
							s-4.688-0.135-7.228-0.141c-3.442-0.008-7.091,0.073-10.804,0.298c-3.715,0.225-7.497,0.595-11.209,1.165
							c-3.714,0.57-7.358,1.341-10.794,2.369c-3.439,1.029-6.673,2.315-9.561,3.916c0.647,0.223,4.438,0.575,10.026,1.076
							c5.591,0.501,12.982,1.151,20.833,1.971c7.854,0.82,16.168,1.811,23.601,2.991c7.439,1.182,14,2.554,18.337,4.14
							c0.09-0.044,0.178-0.089,0.265-0.135s0.173-0.091,0.257-0.138c0.085-0.046,0.169-0.094,0.25-0.142
							c0.082-0.047,0.162-0.095,0.24-0.143l0.063,0.048l0.077,1.705c0,0,2.269,0.986,5.713,2.847
							c3.451,1.863,8.088,4.605,12.818,8.118c4.743,3.522,9.59,7.823,13.438,12.794c3.862,4.992,6.724,10.666,7.466,16.916
							c0.315,2.208,1.464,5.442,3.434,9.278c1.977,3.848,4.778,8.305,8.4,12.94c3.635,4.653,8.095,9.487,13.364,14.063
							c5.289,4.592,11.393,8.92,18.289,12.538c6.914,3.627,16.029,7.992,27.242,12.525c11.248,4.547,24.609,9.265,39.964,13.569
							c15.398,4.317,32.789,8.216,52.024,11.106c19.266,2.895,40.348,4.771,63.063,5.038c0.43,0.004,0.855,0.007,1.28,0.011
							c0.425,0.004,0.847,0.008,1.267,0.012c0.42,0.003,0.838,0.007,1.255,0.011c0.417,0.004,0.831,0.008,1.245,0.011
							c-1.644,1.787-4.984,5.405-9.235,9.923c-4.267,4.536-9.459,9.986-14.772,15.405c-5.34,5.444-10.803,10.856-15.565,15.265
							c-4.78,4.425-8.846,7.832-11.358,9.234c-2.707,1.511-5.322,2.929-8.01,4.207c-2.69,1.28-5.452,2.418-8.448,3.368
							c-2.999,0.951-6.231,1.478-9.86,2.005c-3.631,0.527-7.658,0.594-12.243,0.594c-0.145,0-0.29,0-0.435,0
							c-0.146,0-0.291,0.234-0.438,0.234c-0.147-0.001-0.295,0.116-0.442,0.115c-0.148-0.002-0.297,0.055-0.446,0.053
							c-1.86-0.025-3.616-0.016-5.271-0.032c-1.652-0.016-3.205-0.013-4.657-0.021c-1.454-0.008-2.808-0.007-4.065-0.009
							c-1.259-0.002-2.421,0-3.49,0.003c-1.736,0.003-3.229,0.015-4.49,0.026s-2.293,0.026-3.107,0.039
							c-0.813,0.013-1.411,0.026-1.804,0.036c-0.394,0.009-0.584,0.016-0.584,0.016s-0.626,0.185-1.402,0.471
							c-0.776,0.286-1.704,0.674-2.308,1.08c-0.603,0.406-0.881,0.831-0.358,1.189c0.522,0.359,1.847,0.653,4.448,0.797
							c0.85,0.047,1.711,0.086,2.575,0.118c0.865,0.032,1.732,0.057,2.595,0.076c0.864,0.02,1.723,0.032,2.571,0.039
							s1.685,0.01,2.501,0.008c1.682-0.004,3.281-0.024,4.736-0.053c1.454-0.03,2.764-0.067,3.863-0.104
							c1.1-0.038,1.988-0.074,2.602-0.101c0.615-0.028,0.955-0.046,0.955-0.046l-26.26,7.252l-12.501,1.832
							c0,0-0.455,0.234-1.017,0.586c-0.561,0.352-1.23,0.82-1.658,1.289c-0.428,0.468-0.615,0.937-0.213,1.287
							c0.403,0.35,1.396,0.582,3.326,0.578c0.193,0,0.396-0.003,0.608-0.009c0.214-0.005,0.436-0.013,0.667-0.023
							c0.232-0.01,0.476-0.023,0.729-0.039c0.252-0.016,0.515-0.034,0.791-0.055c3.008-0.234,8.195-1.04,14.281-2.115
							c6.078-1.074,13.049-2.418,19.637-3.73c6.578-1.311,12.775-2.592,17.324-3.543c4.546-0.952,7.449-1.575,7.449-1.575
							l-17.328,14.461c0,0-0.229,0.211-0.557,0.589s-0.755,0.924-1.15,1.594c-0.395,0.67-0.76,1.463-0.962,2.336
							c-0.2,0.875-0.24,1.828,0.014,2.818c0.157,0.613,0.217,1.225,0.238,1.8c0.021,0.576,0.003,1.112,0.003,1.573
							c0.002,0.46,0.021,0.844,0.117,1.113c0.097,0.268,0.27,0.422,0.576,0.42c0.191,0,0.434-0.059,0.738-0.186
							c0.307-0.127,0.678-0.322,1.127-0.593c0.45-0.271,0.977-0.62,1.596-1.053c0.62-0.433,1.33-0.952,2.146-1.565
							c2.137-1.607,4.818-3.46,7.717-5.373c2.891-1.91,5.996-3.878,8.986-5.72c2.984-1.839,5.854-3.552,8.279-4.957
							c2.424-1.402,4.406-2.497,5.623-3.101c1.216-0.602,2.441-1.111,3.98-1.559c1.537-0.448,3.387-0.835,5.852-1.196
							c2.461-0.361,5.535-0.695,9.519-1.036c3.983-0.34,8.878-0.688,14.979-1.074c6.1-0.387,10.671-0.676,14.1-0.894
							c3.426-0.217,5.71-0.362,7.232-0.458c1.521-0.097,2.283-0.145,2.664-0.169c0.38-0.024,0.38-0.024,0.38-0.024
							s1.134-0.301,2.434-0.777c1.298-0.476,2.762-1.127,3.423-1.826c0.66-0.7,0.52-1.448-1.387-2.122
							c-1.904-0.672-5.575-1.268-11.977-1.664c-0.195-0.003-0.393-0.005-0.591-0.007c-0.196-0.002-0.394-0.509-0.591-0.511
							c-0.199-0.001-0.396-0.507-0.596-0.507c-0.197,0-0.396,0-0.596,0c-4.571,0-9.266,0.72-13.738,1.022
							c-4.474,0.303-8.725,0.957-12.406,1.356c-3.684,0.4-6.795,0.925-8.986,1.225c-2.193,0.299-3.465,0.562-3.465,0.562
							s3.857-3.253,9.655-8.257c5.773-4.982,13.455-11.638,21.156-18.455c7.657-6.778,15.331-13.691,21.192-19.259
							c5.835-5.542,9.888-9.752,10.359-11.177c0.099-0.296,0.192-0.574,0.28-0.837c0.089-0.264,0.174-0.511,0.254-0.743
							c0.08-0.232,0.157-0.449,0.228-0.653c0.072-0.203,0.141-0.393,0.205-0.569c3.611,0.051,7.017,0.103,10.213,0.153
							c3.195,0.05,6.181,0.099,8.954,0.141c2.772,0.043,5.332,0.08,7.675,0.108c2.344,0.028,4.469,0.047,6.372,0.054
							c-0.72,2.665-1.98,7.284-3.535,12.774c-1.563,5.515-3.424,11.916-5.332,18.094c-1.919,6.209-3.882,12.19-5.632,16.803
							c-1.754,4.63-3.29,7.87-4.336,8.562c-0.047,0.892-0.281,1.92-0.9,2.967c-0.621,1.048-1.631,2.115-3.23,3.081
							c-1.602,0.967-3.795,2.04-6.783,2.685c-2.988,0.646-6.771,1.363-11.551,1.363c-0.139,0-0.279,0-0.422,0
							c-0.141,0-0.284,0-0.43,0s-0.293,0-0.441,0c-0.149,0-0.299,0-0.451,0c-3.219,0-7.141-0.188-11.248-0.158
							c-4.109,0.029-8.404-0.025-12.369,0.058c-3.965,0.083-7.602,0.151-10.388,0.32c-2.789,0.169-4.73,0.364-5.306,0.652
							c-0.607,0.301-1.448,0.702-2.225,1.165c-0.777,0.462-1.488,0.968-1.836,1.465c-0.346,0.497-0.324,0.977,0.361,1.38
							c0.688,0.404,2.043,0.727,4.366,0.909c1.347-0.05,2.96-0.12,4.742-0.197c1.782-0.076,3.731-0.16,5.753-0.237
							c2.019-0.078,4.107-0.15,6.167-0.203s4.09-0.088,5.993-0.092c1.123-0.002,2.201,0.006,3.215,0.027
							c1.015,0.021,1.965,0.057,2.828,0.107c0.865,0.05,1.645,0.117,2.318,0.202c0.675,0.085,1.244,0.188,1.689,0.313
							c0.111,0.264-2.419,0.975-6.413,1.906c-3.997,0.932-9.464,2.084-15.216,3.229c-5.759,1.147-11.805,2.286-16.948,3.187
							c-5.147,0.903-9.39,1.567-11.53,1.763c-2.14,0.195-4.334,0.532-6.441,0.992c-2.108,0.46-4.13,1.045-5.923,1.733
							c-1.794,0.689-3.36,1.482-4.556,2.362c-1.194,0.879-2.019,1.844-2.33,2.875c0.058,0.002,0.116,0.003,0.175,0.004
							c0.06,0.002,0.118-0.381,0.18-0.38c0.06,0.001,0.12-0.381,0.182-0.381s0.123,0,0.187,0c1.273,0,2.779,0.289,4.318,0.154
							c1.54-0.135,3.115-0.12,4.529-0.297c1.416-0.177,2.672-0.259,3.573-0.391c0.901-0.132,1.45-0.172,1.45-0.172
							s2.014-0.343,5.143-0.902c3.127-0.558,7.364-1.293,11.813-2.056c4.446-0.762,9.104-1.532,13.076-2.146
							c3.971-0.615,7.258-1.066,8.972-1.185c1.714-0.117,5.112-0.654,9.245-1.396c4.129-0.741,8.99-1.683,13.633-2.609
							c4.637-0.927,9.059-1.838,12.318-2.517c3.258-0.679,5.356-1.125,5.356-1.125s0.22,0.019,0.513,0.093
							c0.295,0.075,0.665,0.206,0.969,0.432c0.305,0.225,0.543,0.545,0.574,0.998c0.029,0.452-0.148,1.038-0.677,1.794
							c-0.526,0.755-1.522,1.957-2.706,3.402c-1.186,1.447-2.56,3.138-3.84,4.869c-1.283,1.734-2.471,3.508-3.281,5.116
							c-0.811,1.611-1.242,3.056-1.008,4.127c0.237,1.07,0.492,2.027,0.741,2.86c0.251,0.833,0.495,1.543,0.709,2.118
							c0.214,0.576,0.398,1.018,0.53,1.315c0.131,0.298,0.208,0.452,0.208,0.452s0.083,0.163,0.249,0.407
							c0.166,0.244,0.418,0.569,0.754,0.895c0.338,0.326,0.762,0.651,1.272,0.895c0.512,0.243,1.112,0.405,1.802,0.402
							c0.41-0.001,0.852-0.06,1.325-0.193s0.979-0.341,1.517-0.64s1.107-0.69,1.711-1.188c0.602-0.499,1.236-1.106,1.903-1.838
							c0.996-1.961,1.687-3.555,2.161-4.842c0.475-1.286,0.734-2.266,0.871-3.001s0.147-1.227,0.126-1.534
							c-0.021-0.308-0.077-0.431-0.077-0.431s0.391-0.726,1.031-1.849c0.642-1.122,1.535-2.641,2.541-4.229
							c1.005-1.586,2.124-3.242,3.219-4.642c1.092-1.398,2.163-2.543,3.075-3.11c0.91-0.569,1.382-1.287,2.058-2.137
							c0.676-0.849,1.551-1.829,3.268-2.923c1.715-1.093,4.269-2.3,8.295-3.601c4.021-1.3,9.512-2.696,17.101-4.168
							c2.608-0.564,5.029-1.175,7.192-1.774c2.162-0.598,4.068-1.184,5.646-1.699c1.578-0.515,2.832-0.959,3.69-1.275
							c0.858-0.315,1.322-0.502,1.322-0.502s0.118-0.286,0.185-0.713c0.066-0.428,0.082-0.999-0.123-1.567
							c-0.205-0.569-0.631-1.138-1.445-1.563s-2.019-0.708-3.782-0.704c-0.44,0-0.915,0.02-1.427,0.058
							c-0.514,0.039-1.064,0.097-1.654,0.179c-0.592,0.081-1.223,0.184-1.896,0.312c-0.674,0.128-1.391,0.28-2.154,0.459
							c-2.439,0.672-5.106,1.374-7.737,2.047c-2.634,0.673-5.229,1.32-7.521,1.882c-2.293,0.562-4.281,1.041-5.695,1.378
							c-1.416,0.338-2.258,0.535-2.258,0.535s-0.166,0.065-0.447,0.163c-0.281,0.098-0.676,0.229-1.135,0.359
							c-0.458,0.13-0.979,0.261-1.511,0.359s-1.076,0.165-1.579,0.165c-0.423,0.001-0.816-0.044-1.152-0.156
							c-0.334-0.111-0.607-0.288-0.789-0.551c-0.184-0.262-0.273-0.61-0.24-1.063c0.032-0.452,0.188-1.01,0.498-1.691
							c0.629-1.38,1.939-5.505,3.578-11.009c1.631-5.479,3.582-12.313,5.504-19.16c1.912-6.81,3.797-13.631,5.316-19.168
							c1.512-5.511,2.666-9.76,3.132-11.473c0.595-0.051,1.249-0.098,1.956-0.139c0.709-0.042,1.471-0.078,2.286-0.107
							c0.813-0.029,1.681-0.053,2.595-0.069c0.914-0.016,1.876-0.025,2.883-0.025c2.922-0.002,6.225,0.064,9.825,0.218
							c3.601,0.154,7.5,0.396,11.622,0.75c4.12,0.353,8.462,0.815,12.947,1.408c4.484,0.593,9.112,1.316,13.803,2.193
							c1.45,0.36,3.08,0.748,4.868,1.157c1.788,0.41,3.733,0.842,5.812,1.293c2.078,0.451,4.287,0.92,6.604,1.403
							c2.317,0.484,4.74,0.981,7.245,1.489c2.859,1.601,8.142,4.561,14.626,8.201c6.501,3.65,14.221,7.988,21.919,12.329
							c7.724,4.354,15.427,8.71,21.854,12.371c6.445,3.67,11.6,6.636,14.191,8.192c2.93,1.76,6.94,4.174,11.402,6.833
							c4.47,2.664,9.396,5.574,14.139,8.317c4.754,2.749,9.32,5.329,13.061,7.322c3.744,1.996,6.654,3.402,8.082,3.798
							c1.072,0.499,2.021,0.879,3.068,1.183c1.049,0.303,2.194,0.527,3.664,0.714c1.469,0.186,3.26,0.333,5.596,0.483
							c2.338,0.148,5.219,0.298,8.869,0.49c0.914,0.048,1.973,0.088,3.156,0.121c1.184,0.033,2.492,0.058,3.902,0.076
							s2.923,0.03,4.516,0.037c1.593,0.007,3.266,0.007,4.998,0.003c4.58-0.011,9.572-0.056,14.568-0.119
							c4.995-0.063,9.995-0.145,14.596-0.229c4.6-0.084,8.801-0.172,12.199-0.247c3.398-0.075,5.995-0.137,7.388-0.171
							c0.155,0.062,0.303,0.119,0.437,0.17c0.133,0.052,0.254,0.098,0.363,0.139c0.107,0.042,0.204,0.076,0.287,0.105
							c0.083,0.03,0.152,0.053,0.207,0.07c0.917-0.101,1.289-0.452,1.332-0.92c0.043-0.468-0.242-1.054-0.643-1.627
							c-0.399-0.573-0.913-1.132-1.326-1.549c-0.414-0.417-0.727-0.691-0.727-0.691s-2.471-1.389-6.281-3.52
							c-3.805-2.128-8.938-4.993-14.279-7.95c-5.326-2.951-10.859-5.994-15.48-8.492c-4.615-2.493-8.326-4.445-10.034-5.225
							c-1.71-0.779-6.604-3.334-13.284-6.933c-6.664-3.59-15.094-8.214-23.906-13.148c-8.777-4.916-17.931-10.136-26.098-14.951
							c-8.139-4.798-15.303-9.196-20.156-12.498c-4.004-2.722-9.893-6.398-16.703-10.512c-6.79-4.101-14.49-8.632-22.152-13.085
							c-7.637-4.437-15.238-8.796-21.871-12.576c-6.614-3.77-12.271-6.966-16.053-9.096c1.851-0.12,3.7-0.23,5.555-0.328
							c1.855-0.098,3.717-0.184,5.59-0.255c1.875-0.07,3.763-0.125,5.671-0.164c1.909-0.039,3.839-0.059,5.798-0.058
							c1.355,0,2.727,0.01,4.114,0.031c1.387,0.021,2.79,0.052,4.213,0.096c1.422,0.043,2.864,0.098,4.327,0.166
							c1.463,0.067,2.947,0.147,4.456,0.241c2.452,0.152,5.517,0.285,9.047,0.398c3.53,0.113,7.53,0.207,11.855,0.282
							c4.323,0.075,8.973,0.131,13.804,0.168c4.83,0.037,9.843,0.056,14.895,0.057c7.049,0.001,14.177-0.034,20.995-0.102
							c6.815-0.069,13.324-0.171,19.138-0.308c5.811-0.135,10.928-0.304,14.969-0.505c4.039-0.201,7-0.434,8.5-0.697
							c1.572-0.181,3.701-0.452,5.51-0.825c1.81-0.374,3.296-0.848,3.582-1.437c0.283-0.588-0.632-1.29-3.627-2.115
							c-2.993-0.825-8.063-1.774-16.086-2.86c-8.021-1.084-15.307-2.122-22.443-3.087c-7.135-0.964-14.122-1.854-21.553-2.643
							c-7.426-0.79-15.295-1.477-24.197-2.036c-8.902-0.559-18.838-0.99-30.4-1.265c-4.737-0.271-10.275-0.902-16.146-1.768
							c-5.868-0.865-12.066-1.964-18.128-3.175c-6.057-1.209-11.975-2.529-17.293-3.836c-5.311-1.306-10.021-2.599-13.67-3.757
							c-3.646-1.157-9.649-2.692-16.781-4.409c-7.123-1.715-15.369-3.611-23.515-5.495c-8.135-1.881-16.169-3.748-22.884-5.409
							c-6.707-1.659-12.1-3.112-14.965-4.167c-2.706-0.996-8.558-2.76-16.574-4.945c-8.004-2.182-18.161-4.784-29.497-7.462
							c-11.317-2.672-23.808-5.42-36.513-7.904c-12.684-2.479-25.586-4.696-37.76-6.313c-3.821-1.086-7.859-2.25-11.809-3.416
							c-3.945-1.164-7.801-2.328-11.264-3.417c-3.459-1.088-6.526-2.101-8.895-2.962c-2.366-0.861-4.037-1.571-4.707-2.054
							c-1.833-0.96-5.092-2.56-9.213-4.516c-4.115-1.953-9.088-4.262-14.357-6.646c-5.26-2.38-10.816-4.834-16.111-7.088
							c-5.287-2.25-10.316-4.299-14.54-5.876c-4.952-1.509-9.778-2.783-14.471-3.845c-4.689-1.062-9.25-1.912-13.677-2.575
							c-4.424-0.663-8.716-1.14-12.871-1.452C148.604,318.972,144.586,318.822,140.707,318.812"/>
					</g>
				</g>
			</g>
		</g>
		<g>
			<path fill-rule="evenodd" clip-rule="evenodd" fill="#FFFFFF" d="M415.939,364.993c1.746,2.042,3.489,3.401,3.266,3.934
				c-0.919,2.193-2.441,4.134-3.735,6.168c-0.741-0.705-2.206-1.557-2.099-2.092C413.834,370.701,414.758,368.493,415.939,364.993z"
				/>
			<path id="queue_derriere" fill="#7A6049" d="M495.906,432c0,0,54.662,67.802,64.508,81.033
				c9.842,13.233,34.097,46.029,39.244,48.969c3.675,3.677,5.879,3.904,19.848,5.374c13.968,1.47,64.687-0.795,64.687-0.795
				L563.643,432H495.906z"/>
			<path id="queue_4_" fill="#5E4429" d="M504.1,325.032c0,0,55.13,69.832,71.302,95.559c16.173,25.727,64.685,85.266,70.565,91.147
				c5.883,5.881,38.226,47.044,38.226,47.044s3.677,8.085,0,8.821c-5.881-3.676-169.063-164.654-176.415-169.801
				c-7.354-5.146-72.779-63.547-72.779-63.547L504.1,325.032z"/>
			<path id="patted_2_" fill="#CEA234" d="M352.344,415.05c0,0-46.359,85.65-57.937,97.228c-11.579,11.578-21.4,20.222-40.144,19.67
				c-18.746-0.551-26.413-0.062-26.413-0.062s-9.901,5.443,0.022,6.545s21.515-0.021,21.515-0.021l-25.905,13.22l-12.127,3.301
				c0,0-8.818,8.268,2.76,6.614s57.336-19.849,57.336-19.849l-18.191,26.395c0,0-3.859,6.13-3.309,13.297s-2.756,14.334,6.064,2.757
				c8.821-11.577,26.463-30.322,31.424-34.732c4.961-4.41,9.924-6.064,33.629-8.821c23.707-2.756,23.707-2.756,23.707-2.756
				s18.191-8.821-6.34-11.853c-18.193-0.552-39.969,5.788-39.969,5.788s66.156-97.426,68.911-108.451
				c2.757-11.026,2.757-10.32,2.757-10.32h-18.191L352.344,415.05z"/>
			<path id="patteg_2_" fill="#DFB733" d="M402.665,414.345c0,0-23.522,105.667-28.668,111.546
				c-0.736,6.617-4.688,17.274-23.157,17.826c-11.854,0-37.214-0.046-39.693,2.158c-2.482,2.206-8.821,7.695,0,9.074
				c8.27-0.552,27.012-2.492,31.423-0.011c0.275,1.93-41.071,16.809-49.341,18.187c-8.271,1.378-17.643,6.889-19.296,14.332
				c4.687,0.275,14.058-2.483,14.058-2.483s31.426-10.474,38.041-11.301c6.615-0.827,39.969-13.784,39.969-13.784
				s3.309,0.552,0.826,6.065c-2.479,5.513-13.231,23.981-12.956,31.7c0.276,7.718,1.104,12.128,1.104,12.128
				s2.204,11.854,10.199-2.205c4.961-14.058,4.41-17.642,4.41-17.642s7.719-20.949,11.578-25.083
				c3.857-4.135,1.376-12.68,31.697-23.43c10.477-4.135,18.194-9.648,18.194-9.648s4.136-13.231-11.302-6.615
				c-9.924,4.961-23.469,10.75-23.469,10.75s-9.334,6.523-5.75-4.503c3.584-11.025,27.841-117.059,27.841-117.059H402.665z"/>
			<linearGradient id="corps_45_" gradientUnits="userSpaceOnUse" x1="-14.5654" y1="281.0859" x2="544.0854" y2="313.4284">
				<stop  offset="0" style="stop-color:#704F32"/>
				<stop  offset="0.5446" style="stop-color:#715536"/>
				<stop  offset="0.6863" style="stop-color:#836542"/>
				<stop  offset="0.8911" style="stop-color:#A38257"/>
				<stop  offset="1" style="stop-color:#D9B27B"/>
			</linearGradient>
			<path id="corps_4_" fill="url(#corps_45_)" d="M90.995,148.618c0,0,36.752,33.813,38.222,86.003
				c0.732,18.378,13.966,70.633,40.429,99.635c26.462,29.003,86.737,81.191,176.414,83.397c43.371,0.736,66.892,2.939,67.628,0
				c0.734-2.94,30.139-5.145,61.011,6.616c24.257,12.496,103.536,41.163,103.536,41.163l-101.33-100.704
				c0,0-133.781-106.582-167.596-115.402c-33.815-8.821-111.73-64.687-111.73-64.687l-99.233-47.044c0,0-10.716,0.25-7.35,7.351"/>
			<path id="tête_1_" fill="#5E4429" d="M77.854,117.839c8.546-14.427,57.979-67.903,127.994-22.145
				c17.091,13.783,46.861,44.104,54.027,52.374c4.41,7.167,56.786,37.304,56.786,37.304s-58.53,48.608-115.866,23.248
				c-57.334-25.36-62.666-29.772-68.177-33.081C117.354,165.564,83.275,132.998,77.854,117.839z"/>
			<path id="aile_6_" fill="#513924" d="M196.107,212.574c14.979,34.452,25.726,76.447,137.455,112.465
				c85.27,13.231,129.371,12.554,151.424,9.217c22.052-3.337,40.428-7.013,63.949-4.072c23.524,2.941,104.381,2.205,115.408-1.47
				c6.614-1.47,22.787-5.88-8.82-14.701c-31.611-8.82-51.456-16.171-98.5-18.377c-19.112-2.205-49.985-16.17-63.951-25.727
				c-13.966-9.557-65.422-31.607-76.447-40.428c-11.026-8.821-77.64-46.407-128.592-58.218
				C238.373,159.92,190.136,188.588,196.107,212.574z"/>
			<path id="bec_3_" fill="#DFB733" d="M120.765,141.267l-40.798-20.949l9.559-6.616c0,0-0.736-3.676-8.087-4.41
				c-7.349-0.734-45.575-9.188-66.523,15.069c2.663,1.93,57.334,8.085,74.977,21.684c2.938-2.941,4.409-7.717,4.409-7.717
				L120.765,141.267z"/>
			<ellipse id="contour_oeil_2_" fill="#DFB733" cx="141.896" cy="122.157" rx="15.713" ry="12.344"/>
			<radialGradient id="oeil_32_" cx="147.2266" cy="117.3789" r="19.3175" gradientUnits="userSpaceOnUse">
				<stop  offset="0" style="stop-color:#FFFFFF"/>
				<stop  offset="0.1386" style="stop-color:#D5D4D3"/>
				<stop  offset="0.2079" style="stop-color:#494340"/>
				<stop  offset="0.3663" style="stop-color:#28201D"/>
				<stop  offset="1" style="stop-color:#231B18"/>
			</radialGradient>
			<ellipse id="oeil" fill="url(#oeil_32_)" cx="142.172" cy="121.054" rx="12.404" ry="10.199"/>
			<path fill-rule="evenodd" clip-rule="evenodd" fill="#D9B27B" d="M320.618,346.172c-3.243,3.494-7.069,7.62-10.896,11.748
				c-1.275-1.506-2.863-2.846-3.764-4.551c-3.258-6.18-6.276-12.487-9.398-18.738c-0.563-1.127-1.187-2.224-1.783-3.334
				c0.646-0.257,1.475-0.911,1.908-0.709c7.523,3.497,15.029,7.043,22.441,10.77C319.787,341.688,319.783,343.334,320.618,346.172z"
				/>
			<path fill-rule="evenodd" clip-rule="evenodd" fill="#D9B27B" d="M325.438,330.855c6.677,6.18,13.796,9.84,13.841,13.585
				c0.049,4.257-6.22,8.591-9.743,12.892c-1.978-5.551-4.214-11.03-5.79-16.693C323.225,338.764,324.396,336.418,325.438,330.855z"
				/>
			<path fill-rule="evenodd" clip-rule="evenodd" fill="#D9B27B" d="M390.537,381.662c6.675,6.18,13.795,9.84,13.84,13.584
				c0.051,4.258-6.218,8.592-9.742,12.893c-1.979-5.55-4.215-11.03-5.79-16.693C388.324,389.571,389.494,387.225,390.537,381.662z"
				/>
			<path fill-rule="evenodd" clip-rule="evenodd" fill="#D9B27B" d="M246.357,321.188c-7.375,4.249-12.752,9.667-15.983,8.599
				c-3.733-1.235-6.138-7.995-7.765-12.814c-0.332-0.981,5.979-6.222,8.131-5.614C235.383,312.671,239.313,316.506,246.357,321.188z
				"/>
			<path fill-rule="evenodd" clip-rule="evenodd" fill="#D9B27B" d="M200.041,313.839c-5.865,3.426-9.038,6.784-11.978,6.589
				c-3.195-0.21-9.055-4.494-8.743-5.659c1.318-4.919-0.354-13.771,8.424-12.452C191.396,302.865,194.318,308.244,200.041,313.839z"
				/>
			<path fill-rule="evenodd" clip-rule="evenodd" fill="#D9B27B" d="M383.688,364.16c-5.445,4.37-9.58,9.507-11.402,8.786
				c-4.081-1.614-7.57-5.802-9.957-9.754c-0.508-0.838,5.137-7.662,7.23-7.322C373.772,356.551,377.493,360.271,383.688,364.16z"/>
			<path fill-rule="evenodd" clip-rule="evenodd" fill="#D9B27B" d="M181.626,275.253c-4.775,3.816-8.53,7.796-13.144,9.863
				c-1.281,0.575-5.104-4.523-7.762-7.017c5.155-3.853,10.311-7.707,15.466-11.559C177.544,268.71,178.898,270.882,181.626,275.253z
				"/>
			<path fill-rule="evenodd" clip-rule="evenodd" fill="#D9B27B" d="M219.283,277.918c-5.275,2.92-8.119,4.494-10.965,6.069
				c-2.99-5.768-6.09-11.484-8.793-17.381c-0.255-0.553,2.857-3.316,2.928-3.258C207.537,267.54,212.475,271.914,219.283,277.918z"
				/>
			<path fill-rule="evenodd" clip-rule="evenodd" fill="#D9B27B" d="M175.483,252.019c5.211-3.561,9.794-7.496,10.388-6.966
				c3.395,3.03,5.836,7.124,8.604,10.855c-2.934,1.966-6.202,5.845-8.718,5.407C182.693,260.781,180.267,256.613,175.483,252.019z"
				/>
			<path fill-rule="evenodd" clip-rule="evenodd" fill="#D9B27B" d="M386.693,365.973c3.329-3.723,5.775-8.399,7.727-8.2
				c3.159,0.323,5.991,3.845,8.963,6.018c-2.977,3.849-5.951,7.698-8.925,11.546C392.271,372.701,390.087,370.065,386.693,365.973z"
				/>
			<path fill-rule="evenodd" clip-rule="evenodd" fill="#D9B27B" d="M263.373,383.822c3.328-3.723,5.774-8.399,7.726-8.2
				c3.161,0.322,5.991,3.846,8.964,6.017c-2.977,3.85-5.951,7.698-8.924,11.547C268.949,390.55,266.766,387.915,263.373,383.822z"/>
			<path fill-rule="evenodd" clip-rule="evenodd" fill="#D9B27B" d="M233.356,301.559c0.123-2.604,0.249-5.209,0.372-7.814
				c4.76,4.087,9.658,8.044,13.948,12.578c0.271,0.283-4.229,5.079-6.511,7.774c-3.152-3.552-6.307-7.104-9.459-10.656
				C232.258,302.815,232.805,302.187,233.356,301.559z"/>
			<path fill-rule="evenodd" clip-rule="evenodd" fill="#D9B27B" d="M204.304,302.286c2.862-4.428,4.159-6.434,5.457-8.442
				c4.122,5.313,8.372,10.541,12.051,16.146c0.218,0.332-4.157,3.679-6.392,5.623C211.76,311.223,208.098,306.834,204.304,302.286z"
				/>
			<path fill-rule="evenodd" clip-rule="evenodd" fill="#D9B27B" d="M361.178,341.847c-2.529,0.582-4.629,1.813-5.924,1.236
				c-6.862-3.068-13.597-6.459-20.206-10.047c-1.692-0.918-2.778-2.96-4.14-4.484c1.543-0.792,3.496-2.626,4.559-2.207
				c7.727,3.051,15.314,6.464,22.822,10.024C359.301,336.85,359.623,338.788,361.178,341.847z"/>
			<path fill-rule="evenodd" clip-rule="evenodd" fill="#D9B27B" d="M183.131,276.313c5.348-4.326,8.217-6.646,11.086-8.967
				c2.407,3.668,5.576,7.111,6.775,11.139c0.379,1.277-4.743,6.046-6.93,5.779C190.986,283.89,188.301,280.313,183.131,276.313z"/>
			<path fill-rule="evenodd" clip-rule="evenodd" fill="#D9B27B" d="M281.563,334.771c5.664,3.497,11.678,6.573,16.746,10.788
				c1.254,1.043-0.557,5.774-0.957,8.809c-3.063-0.833-7.738-0.725-8.873-2.677c-3.044-5.232-4.568-11.347-6.697-17.11
				L281.563,334.771z"/>
			<path fill-rule="evenodd" clip-rule="evenodd" fill="#D9B27B" d="M334.443,375.521c-3.742,1.574-9.842,5.36-10.809,4.33
				c-3.679-3.919-5.957-9.288-8.068-14.4c-0.324-0.788,3.979-4.698,4.445-4.411c4.002,2.473,7.611,5.577,11.34,8.494
				C332.381,371.529,333.41,373.524,334.443,375.521z"/>
			<path fill-rule="evenodd" clip-rule="evenodd" fill="#D9B27B" d="M289.49,312.528c9.125,3.883,17.446,7.332,25.613,11.114
				c0.535,0.247,0.381,4.191-0.281,4.476c-7.068,3.026-24.08-6.252-25.437-13.655C289.235,313.645,289.475,312.755,289.49,312.528z"
				/>
			<path fill-rule="evenodd" clip-rule="evenodd" fill="#D9B27B" d="M281.781,334.58c-2.358-1.729-5.812-2.983-6.816-5.301
				c-1.348-3.098-1.723-7.338-0.654-10.449c0.506-1.47,7.07-2.844,7.877-1.84c2.18,2.712,3.627,6.716,3.651,10.22
				c0.019,2.501-2.735,5.023-4.263,7.547C281.563,334.771,281.781,334.58,281.781,334.58z"/>
			<path fill-rule="evenodd" clip-rule="evenodd" fill="#D9B27B" d="M380.063,333.045c4.855,5.456,8.469,8.623,10.624,12.583
				c0.517,0.956-3.788,4.538-5.878,6.912c-2.756-3.763-5.822-7.354-8.058-11.403C376.158,340.06,378.119,337.575,380.063,333.045z"
				/>
			<path fill-rule="evenodd" clip-rule="evenodd" fill="#D9B27B" d="M173.834,260.621c-3.924,3.396-6.771,7.48-10.404,8.374
				c-2.048,0.502-5.388-4.248-8.147-6.631c4.64-2.968,9.264-5.964,14.034-8.696C169.407,253.615,171.285,256.682,173.834,260.621z"
				/>
			<path fill-rule="evenodd" clip-rule="evenodd" fill="#D9B27B" d="M341.361,394.302c-4.775,3.816-8.532,7.797-13.145,9.863
				c-1.282,0.575-5.105-4.522-7.762-7.017c5.156-3.853,10.31-7.707,15.467-11.559C337.279,387.76,338.633,389.932,341.361,394.302z"
				/>
			<path fill-rule="evenodd" clip-rule="evenodd" fill="#D9B27B" d="M473.659,368.382c-5.278,2.92-8.12,4.494-10.967,6.068
				c-2.987-5.767-6.089-11.483-8.794-17.381c-0.253-0.553,2.859-3.316,2.932-3.258C461.914,358.004,466.85,362.378,473.659,368.382z
				"/>
			<path fill-rule="evenodd" clip-rule="evenodd" fill="#D9B27B" d="M456.767,377.266c-5.276,2.92-8.118,4.494-10.967,6.068
				c-2.987-5.768-6.089-11.483-8.793-17.381c-0.253-0.554,2.858-3.315,2.931-3.258C445.021,366.888,449.957,371.262,456.767,377.266
				z"/>
			<path fill-rule="evenodd" clip-rule="evenodd" fill="#D9B27B" d="M442.988,382.952c-2.805,5.338-4.318,8.215-5.83,11.094
				c-5.668-3.177-11.396-6.253-16.896-9.695c-0.515-0.323,0.569-4.341,0.66-4.331C427.473,380.731,434,381.674,442.988,382.952z"/>
			<path fill-rule="evenodd" clip-rule="evenodd" fill="#D9B27B" d="M428.109,397.96c-0.431,6.013-0.663,9.255-0.896,12.498
				c-6.465-0.641-12.945-1.162-19.363-2.114c-0.604-0.089-1.219-4.204-1.133-4.231C413.005,402.14,419.363,400.389,428.109,397.96z"
				/>
			<path fill-rule="evenodd" clip-rule="evenodd" fill="#D9B27B" d="M398.417,374.261c5.212-3.56,9.794-7.496,10.388-6.965
				c3.395,3.03,5.836,7.124,8.604,10.855c-2.934,1.966-6.202,5.846-8.718,5.408C405.627,383.024,403.2,378.856,398.417,374.261z"/>
			<path fill-rule="evenodd" clip-rule="evenodd" fill="#D9B27B" d="M348.985,387.536c5.346-4.327,8.216-6.647,11.085-8.967
				c2.406,3.668,5.576,7.11,6.773,11.139c0.379,1.277-4.74,6.046-6.928,5.779C356.839,395.112,354.154,391.535,348.985,387.536z"/>
			<path fill-rule="evenodd" clip-rule="evenodd" fill="#D9B27B" d="M385.916,378.623c-3.924,3.396-6.77,7.48-10.404,8.374
				c-2.048,0.503-5.388-4.248-8.147-6.631c4.64-2.969,9.264-5.964,14.036-8.696C381.49,371.617,383.367,374.684,385.916,378.623z"/>
			<path fill-rule="evenodd" clip-rule="evenodd" fill="#D9B27B" d="M170.082,292.228c-4.634,4.23-7.228,8.082-10.684,9.16
				c-1.887,0.587-5.238-3.529-7.928-5.525c3.15-2.987,5.966-6.574,9.637-8.63C162.351,286.538,165.762,289.716,170.082,292.228z"/>
			<path fill-rule="evenodd" clip-rule="evenodd" fill="#D9B27B" d="M354.352,361.755c-3.806-5.008-6.886-7.922-8.264-11.493
				c-0.486-1.258,3.199-4.125,4.978-6.257c3.03,2.743,6.697,5.099,8.735,8.447C360.498,353.594,357.111,357.227,354.352,361.755z"/>
			<path fill-rule="evenodd" clip-rule="evenodd" fill="#D9B27B" d="M350.367,413.085c-3.804-5.009-6.888-7.922-8.264-11.493
				c-0.487-1.258,3.201-4.125,4.979-6.257c3.03,2.743,6.695,5.099,8.736,8.447C356.513,404.924,353.129,408.557,350.367,413.085z"/>
			<path fill-rule="evenodd" clip-rule="evenodd" fill="#D9B27B" d="M287.221,402.062c-3.803-5.009-6.887-7.922-8.264-11.493
				c-0.484-1.259,3.201-4.125,4.979-6.257c3.03,2.744,6.697,5.1,8.738,8.447C293.368,393.901,289.984,397.533,287.221,402.062z"/>
			<path fill-rule="evenodd" clip-rule="evenodd" fill="#D9B27B" d="M136.989,239.463c-0.216-3.128-1.794-7.672-0.345-9.069
				c2.49-2.396,6.814-3.157,10.506-3.814c0.768-0.137,3.471,4.035,3.012,4.734c-1.824,2.779-4.275,5.379-7.039,7.225
				c-1.574,1.052-4.21,0.518-6.367,0.699L136.989,239.463z"/>
			<path fill-rule="evenodd" clip-rule="evenodd" fill="#D9B27B" d="M192.442,300.187c-0.216-3.128-1.794-7.671-0.345-9.068
				c2.489-2.397,6.814-3.157,10.506-3.813c0.769-0.137,3.471,4.035,3.012,4.733c-1.826,2.78-4.275,5.38-7.039,7.226
				c-1.575,1.052-4.209,0.518-6.366,0.7L192.442,300.187z"/>
			<path fill-rule="evenodd" clip-rule="evenodd" fill="#D9B27B" d="M186.355,223.842c2.875-1.247,6.631-4.25,8.432-3.35
				c3.09,1.547,5.25,5.37,7.102,8.633c0.383,0.677-2.646,4.617-3.458,4.418c-3.23-0.793-6.496-2.235-9.161-4.227
				c-1.516-1.134-1.892-3.795-2.782-5.768C186.487,223.55,186.355,223.842,186.355,223.842z"/>
			<path fill-rule="evenodd" clip-rule="evenodd" fill="#D9B27B" d="M161.148,235.06c2.401,3.608,5.201,6.941,4.811,7.371
				c-2.4,2.638-5.262,5.417-8.514,6.468c-1.526,0.494-4.268-2.759-6.457-4.314C153.885,241.87,156.78,239.154,161.148,235.06z"/>
			<path fill-rule="evenodd" clip-rule="evenodd" fill="#D9B27B" d="M220.779,281.823c5.102,4.209,9.095,7.505,13.09,10.801
				c-1.872,1.893-3.74,3.787-5.609,5.68c-3.166-3.624-6.461-7.147-9.36-10.975C218.431,286.709,219.73,284.75,220.779,281.823z"/>
			<path fill-rule="evenodd" clip-rule="evenodd" fill="#D9B27B" d="M149.84,265.518c2.711,2.834,4.808,5.025,6.906,7.217
				c-2.149,2.022-5.037,6.123-6.307,5.672c-3.635-1.294-6.611-4.433-9.851-6.845C143.219,269.845,145.849,268.127,149.84,265.518z"
				/>
			<path fill-rule="evenodd" clip-rule="evenodd" fill="#D9B27B" d="M222.742,265.462c-3.034,2.843-4.702,4.405-6.367,5.967
				c-3.096-4.617-6.255-9.194-9.148-13.933c-0.221-0.359,1.447-1.873,2.238-2.849C213.535,257.962,217.605,261.279,222.742,265.462z
				"/>
			<path fill-rule="evenodd" clip-rule="evenodd" fill="#D9B27B" d="M187.625,292.831c-4.969,3.967-8.113,6.749-11.627,8.923
				c-0.422,0.259-4.426-3.73-4.164-4.16c2.289-3.752,5.074-7.237,8.109-10.421C180.146,286.96,183.591,289.836,187.625,292.831z"/>
			<path fill-rule="evenodd" clip-rule="evenodd" fill="#D9B27B" d="M210.495,324.434c-4.776,3.815-8.534,7.796-13.146,9.863
				c-1.281,0.575-5.104-4.522-7.762-7.017c5.156-3.852,10.313-7.707,15.467-11.559C206.412,317.891,207.767,320.063,210.495,324.434
				z"/>
			<path fill-rule="evenodd" clip-rule="evenodd" fill="#D9B27B" d="M265.613,338.595c-5.275,2.92-8.119,4.494-10.965,6.069
				c-2.988-5.767-6.088-11.484-8.793-17.381c-0.254-0.553,2.857-3.316,2.928-3.258C253.868,328.218,258.804,332.591,265.613,338.595
				z"/>
			<path fill-rule="evenodd" clip-rule="evenodd" fill="#D9B27B" d="M210.898,354.011c-5.277,2.92-8.121,4.495-10.966,6.069
				c-2.989-5.768-6.089-11.483-8.793-17.381c-0.255-0.554,2.856-3.316,2.928-3.258C199.152,343.633,204.088,348.007,210.898,354.011
				z"/>
			<path fill-rule="evenodd" clip-rule="evenodd" fill="#D9B27B" d="M229.463,336.991c5.347-4.326,8.217-6.647,11.084-8.968
				c2.406,3.669,5.577,7.111,6.774,11.139c0.38,1.278-4.741,6.046-6.927,5.78C237.316,344.567,234.633,340.99,229.463,336.991z"/>
			<path fill-rule="evenodd" clip-rule="evenodd" fill="#D9B27B" d="M190.933,330.982c-4.634,4.23-7.228,8.082-10.685,9.16
				c-1.885,0.588-5.236-3.53-7.926-5.524c3.15-2.987,5.965-6.574,9.637-8.63C183.201,325.292,186.612,328.469,190.933,330.982z"/>
			<path fill-rule="evenodd" clip-rule="evenodd" fill="#D9B27B" d="M238.773,360.865c-0.216-3.128-1.795-7.672-0.345-9.068
				c2.489-2.398,6.813-3.158,10.506-3.814c0.769-0.137,3.47,4.035,3.012,4.734c-1.825,2.78-4.274,5.379-7.04,7.225
				c-1.574,1.052-4.209,0.518-6.367,0.7C238.541,360.642,238.773,360.865,238.773,360.865z"/>
			<path fill-rule="evenodd" clip-rule="evenodd" fill="#D9B27B" d="M218.396,334.667c-4.969,3.968-8.113,6.749-11.628,8.923
				c-0.421,0.26-4.425-3.729-4.162-4.159c2.29-3.752,5.073-7.237,8.108-10.421C210.92,328.796,214.362,331.673,218.396,334.667z"/>
			<path fill-rule="evenodd" clip-rule="evenodd" fill="#D9B27B" d="M166.695,235.45c-4.179-2.603-6.116-3.812-8.055-5.019
				c3.211-3.641,6.422-7.283,9.629-10.924c1.402,2.36,4.168,4.915,3.869,7.037C171.734,229.414,168.977,231.951,166.695,235.45z"/>
			<path fill-rule="evenodd" clip-rule="evenodd" fill="#D9B27B" d="M192.072,247.969c2.799-3.71,4.387-5.817,5.979-7.924
				c2.344,3.079,4.689,6.159,7.037,9.238c-2.234,1.376-4.416,3.687-6.715,3.815C196.705,253.191,194.879,250.389,192.072,247.969z"
				/>
			<path fill-rule="evenodd" clip-rule="evenodd" fill="#D9B27B" d="M397.805,340.889c4.844,3.72,8.627,6.628,12.412,9.535
				c-1.141,1.466-2.283,2.933-3.426,4.399c-3.417-3.214-6.899-6.364-10.157-9.732C396.262,344.707,397.154,343.101,397.805,340.889z
				"/>
			<path fill-rule="evenodd" clip-rule="evenodd" fill="#D9B27B" d="M296.806,395.094c4.845,3.72,8.627,6.627,12.412,9.535
				c-1.141,1.466-2.283,2.932-3.427,4.399c-3.416-3.215-6.898-6.365-10.158-9.732C295.264,398.912,296.155,397.306,296.806,395.094z
				"/>
			<path fill-rule="evenodd" clip-rule="evenodd" fill="#D9B27B" d="M182.044,222.121c1.282,4.623,3.309,8.344,2.876,11.753
				c-0.246,1.938-4.471,3.45-7.058,4.87c-0.228,0.124-2.472-2.601-2.334-2.759c2.812-3.269,6.769-6.102,2.875-11.103
				C179.137,224.327,179.871,223.771,182.044,222.121z"/>
			<path fill-rule="evenodd" clip-rule="evenodd" fill="#D9B27B" d="M244.174,284.521c2.787,2.464,4.135,3.656,5.483,4.849
				c-2.343,2.128-4.609,4.361-7.146,6.227c-0.253,0.186-3.269-2.303-3.079-2.772C240.459,290.288,242.094,287.994,244.174,284.521z"
				/>
			<path fill-rule="evenodd" clip-rule="evenodd" fill="#D9B27B" d="M277.587,309.813c-3.71,1.208-6.136,2.728-6.946,2.115
				c-2.021-1.529-3.502-3.921-4.752-6.213c-0.303-0.557,1.13-2.06,1.762-3.126C269.778,304.134,271.907,305.681,277.587,309.813z"/>
			<path fill-rule="evenodd" clip-rule="evenodd" fill="#D9B27B" d="M369.941,351.662c-1.301-0.843-2.419-1.568-3.536-2.292
				c1.467-0.549,2.929-1.487,4.405-1.513c1.008-0.018,2.033,1.243,3.053,1.934C372.643,350.373,371.42,350.956,369.941,351.662z"/>
			<path fill-rule="evenodd" clip-rule="evenodd" fill="#D9B27B" d="M427.918,374.379c-1.302-0.843-2.418-1.568-3.535-2.293
				c1.467-0.549,2.928-1.487,4.404-1.512c1.008-0.017,2.034,1.243,3.052,1.934C430.619,373.09,429.397,373.673,427.918,374.379z"/>
			<path fill-rule="evenodd" clip-rule="evenodd" fill="#D9B27B" d="M180.794,321.308c-3.147,2.171-6.334,5.737-7.811,5.132
				c-4.288-1.759-9.472-4.458-11.21-8.217c-1.193-2.574,2.791-7.541,4.463-11.438c2.244,1.81,4.664,3.443,6.693,5.471
				C175.408,314.738,177.559,317.547,180.794,321.308z"/>
			<path fill-rule="evenodd" clip-rule="evenodd" fill="#D9B27B" d="M273.325,359.203c-4.511-5.781-8.927-9.037-9.345-12.742
				c-0.323-2.913,4.286-6.379,6.705-9.6c3.095,2.614,8.336,4.936,8.74,7.913C279.918,348.413,276.352,352.6,273.325,359.203z"/>
			<path fill-rule="evenodd" clip-rule="evenodd" fill="#D9B27B" d="M251.268,387.326c-4.512-5.78-8.928-9.037-9.344-12.742
				c-0.326-2.913,4.285-6.38,6.703-9.601c3.095,2.613,8.336,4.936,8.739,7.914C257.859,376.535,254.294,380.722,251.268,387.326z"/>
			<path fill-rule="evenodd" clip-rule="evenodd" fill="#D9B27B" d="M231.072,381.215c-4.512-5.781-8.928-9.037-9.346-12.742
				c-0.324-2.913,4.285-6.38,6.705-9.601c3.094,2.613,8.336,4.937,8.739,7.914C237.663,370.424,234.098,374.611,231.072,381.215z"/>
			<path fill-rule="evenodd" clip-rule="evenodd" fill="#D9B27B" d="M264.809,372.477c-4.484-4.259-7.942-7.188-10.725-10.657
				c-0.318-0.399,3.688-5.791,4.713-5.493c5.637,1.638,10.969,4.323,16.406,6.651C272.26,365.667,269.318,368.357,264.809,372.477z"
				/>
			<path fill-rule="evenodd" clip-rule="evenodd" fill="#D9B27B" d="M262.999,303.124c-3.667,2.123-6.36,4.61-7.308,4.064
				c-3.812-2.2-7.086-5.335-10.559-8.126c2.146-2.092,5.607-6.311,6.225-5.93C255.137,295.467,258.273,298.846,262.999,303.124z"/>
			<path fill-rule="evenodd" clip-rule="evenodd" fill="#D9B27B" d="M267.527,319.584c-3.67,2.122-6.363,4.61-7.309,4.064
				c-3.813-2.2-7.087-5.335-10.562-8.126c2.147-2.092,5.608-6.311,6.227-5.929C259.663,311.927,262.799,315.307,267.527,319.584z"/>
			<path fill-rule="evenodd" clip-rule="evenodd" fill="#D9B27B" d="M424.68,367.227c-1.813,1.958-3.12,3.366-4.427,4.775
				c-2.231-2.37-5.284-4.419-6.382-7.23c-0.636-1.629,1.879-4.486,2.973-6.79C419.326,360.909,421.805,363.834,424.68,367.227z"/>
			<path fill-rule="evenodd" clip-rule="evenodd" fill="#D9B27B" d="M418.821,394.988c-1.813,1.958-3.118,3.367-4.425,4.776
				c-2.232-2.37-5.286-4.418-6.383-7.231c-0.636-1.629,1.881-4.485,2.973-6.79C413.469,388.67,415.946,391.596,418.821,394.988z"/>
			<path fill-rule="evenodd" clip-rule="evenodd" fill="#D9B27B" d="M225.406,300.214c-1.59,1.959-2.748,3.386-3.907,4.811
				c-1.175-1.638-3.261-3.274-3.264-4.917c-0.005-1.583,2.137-3.174,3.335-4.761C222.719,296.801,223.864,298.257,225.406,300.214z"
				/>
			<path fill-rule="evenodd" clip-rule="evenodd" fill="#D9B27B" d="M302.035,370.616c-7.377,4.249-12.754,9.667-15.984,8.599
				c-3.734-1.234-6.137-7.995-7.766-12.814c-0.332-0.98,5.98-6.221,8.132-5.614C291.061,362.099,294.988,365.934,302.035,370.616z"
				/>
			<path fill-rule="evenodd" clip-rule="evenodd" fill="#D9B27B" d="M234.623,353.112c-7.377,4.25-12.754,9.667-15.984,8.599
				c-3.734-1.235-6.137-7.995-7.764-12.814c-0.332-0.981,5.979-6.221,8.131-5.614C223.648,344.595,227.577,348.431,234.623,353.112z
				"/>
			<path fill-rule="evenodd" clip-rule="evenodd" fill="#D9B27B" d="M150.226,211.527c0.123-2.604,0.249-5.209,0.372-7.813
				c4.76,4.087,9.66,8.043,13.951,12.577c0.268,0.284-4.23,5.08-6.514,7.776c-3.152-3.552-6.306-7.104-9.459-10.656
				C149.129,212.782,149.674,212.155,150.226,211.527z"/>
			<path fill-rule="evenodd" clip-rule="evenodd" fill="#D9B27B" d="M127.28,206.917c2.864-4.429,4.159-6.435,5.458-8.442
				c4.122,5.312,8.373,10.541,12.051,16.145c0.217,0.333-4.157,3.68-6.391,5.625C134.736,215.854,131.074,211.464,127.28,206.917z"
				/>
			<path fill-rule="evenodd" clip-rule="evenodd" fill="#D9B27B" d="M151.791,257.838c-3.145,2.17-6.332,5.737-7.811,5.132
				c-4.287-1.759-9.47-4.458-11.207-8.217c-1.194-2.573,2.789-7.541,4.461-11.438c2.244,1.81,4.664,3.443,6.692,5.472
				C146.406,251.269,148.559,254.077,151.791,257.838z"/>
			<path fill-rule="evenodd" clip-rule="evenodd" fill="#D9B27B" d="M183.454,212.297c-3.667,2.122-6.36,4.61-7.305,4.064
				c-3.814-2.2-7.088-5.335-10.562-8.126c2.146-2.092,5.607-6.311,6.226-5.929C175.593,204.64,178.729,208.019,183.454,212.297z"/>
			<path fill-rule="evenodd" clip-rule="evenodd" fill="#D9B27B" d="M150.268,200.005c-1.589,1.959-2.748,3.386-3.906,4.812
				c-1.177-1.639-3.26-3.274-3.266-4.917c-0.004-1.583,2.137-3.174,3.336-4.762C147.58,196.593,148.727,198.048,150.268,200.005z"/>
			<path fill-rule="evenodd" clip-rule="evenodd" fill="#D9B27B" d="M129.771,190.326c-1.589,1.959-2.747,3.386-3.907,4.812
				c-1.174-1.639-3.26-3.274-3.265-4.917c-0.003-1.583,2.138-3.174,3.336-4.761C127.083,186.914,128.229,188.37,129.771,190.326z"/>
			<path fill-rule="evenodd" clip-rule="evenodd" fill="#D9B27B" d="M137.849,188.554c-2.499-0.362-4.317-0.628-6.134-0.895
				c0.805-1.848,1.146-4.477,2.555-5.321c1.357-0.813,3.82,0.212,5.795,0.432C139.404,184.5,138.739,186.228,137.849,188.554z"/>
			<path fill-rule="evenodd" clip-rule="evenodd" fill="#D9B27B" d="M357.924,370.616c-7.375,4.249-12.753,9.667-15.984,8.599
				c-3.733-1.234-6.135-7.995-7.765-12.814c-0.331-0.98,5.98-6.221,8.133-5.614C346.951,362.099,350.878,365.934,357.924,370.616z"
				/>
			<path fill-rule="evenodd" clip-rule="evenodd" fill="#D9B27B" d="M388.525,402.632c-7.379,4.25-12.754,9.668-15.984,8.6
				c-3.734-1.235-6.138-7.995-7.766-12.815c-0.334-0.981,5.98-6.222,8.131-5.614C377.549,394.115,381.477,397.951,388.525,402.632z"
				/>
			<path fill-rule="evenodd" clip-rule="evenodd" fill="#D9B27B" d="M319.576,384.974c-7.375,4.249-12.752,9.667-15.984,8.599
				c-3.732-1.235-6.136-7.995-7.764-12.814c-0.332-0.981,5.98-6.222,8.132-5.614C308.602,376.456,312.531,380.291,319.576,384.974z"
				/>
			<path fill-rule="evenodd" clip-rule="evenodd" fill="#D9B27B" d="M446.879,355.393c-7.375,4.25-12.752,9.667-15.982,8.6
				c-3.734-1.235-6.138-7.996-7.766-12.814c-0.332-0.981,5.979-6.222,8.131-5.615C435.904,346.877,439.834,350.712,446.879,355.393z
				"/>
		</g>
	</g>
</g>
<g id="merle_à_lunette">
</g>
<g id="moucherolle_gobemouche">
</g>
<g id="moqueur_corossol">
</g>
<g id="moqueur_grivotte">
</g>
<g id="trembleur_brun">
</g>
<g id="trembleur_gris">
</g>
<g id="paruline_cafeite">
</g>
<g id="saltator_gros_bec">
</g>
<g id="soporophile_rouge-gorge">
</g>
<g id="sucrier_à_ventre_jaune">
</g>
<g id="vachet_luisant">
</g>
<g id="vireo_a_moustaches">
</g>
<g id="merle_quiscale">
</g>
<g id="paruline_jaune">
</g>
<g id="tyran_gris">
</g>
<g id="sporophile_cici">
</g>
<g id="tourterelle_à_queue_carree">
</g>
<g id="colobri_huppé">
</g>
<g id="cécerelle_d_x27_amerique">
</g>
<g id="heron_vert">
</g>
<g id="pic_de_la_guadeloupe">
</g>
<g id="héron_garde-boeufs">
</g>
<g id="photos">
</g>
<g id="solitaire_siffleur">
</g>
<g id="tyran_janeau">
</g>
<g id="colibri_fallevert">
</g>
<g id="colombe_a_queue_noire">
</g>
</svg>
