<?xml version="1.0" encoding="utf-8"?>
<!-- Generator: Adobe Illustrator 16.0.0, SVG Export Plug-In . SVG Version: 6.00 Build 0)  -->
<!DOCTYPE svg PUBLIC "-//W3C//DTD SVG 1.1//EN" "http://www.w3.org/Graphics/SVG/1.1/DTD/svg11.dtd">
<svg version="1.1" xmlns="http://www.w3.org/2000/svg" xmlns:xlink="http://www.w3.org/1999/xlink" x="0px" y="0px" width="732px"
	 height="692px" viewBox="0 0 732 692" enable-background="new 0 0 732 692" xml:space="preserve">
<g id="Calque_1" display="none">
	<rect x="215" y="649" display="inline" fill="none" width="327" height="45.169"/>
	<text transform="matrix(1 0 0 1 215 673.8496)" display="inline" font-family="'MyriadPro-Regular'" font-size="35">Colombe rouviolette</text>
</g>
<g id="colombe_à_croissant">
</g>
<g id="colombe_rouviolette">
	<g>
		<g opacity="0.3">
			<g>
				<g enable-background="new    ">
					<defs>
						<polygon id="SVGID_7_" enable-background="new    " points="104.38,613.078 26.14,340.968 684.922,338.811 688.385,614.771 
													"/>
					</defs>
					<clipPath id="SVGID_2_">
						<use xlink:href="#SVGID_7_"  overflow="visible"/>
					</clipPath>
					<g clip-path="url(#SVGID_2_)">
						<path fill="#959595" d="M373.598,587.773c1.093,0.003,2.053-0.103,2.881-0.262s1.522-0.373,2.08-0.586
							c0.559-0.214,0.979-0.429,1.261-0.59s0.425-0.268,0.425-0.268s0.008-0.003,0.025-0.009c0.019-0.006,0.045-0.015,0.078-0.027
							c0.034-0.012,0.076-0.027,0.125-0.043c0.049-0.017,0.104-0.037,0.166-0.058c-1.242,1.197-2.569,2.055-3.908,2.681
							c-1.34,0.626-2.69,1.022-3.986,1.297s-2.534,0.427-3.646,0.567c-1.111,0.14-2.098,0.266-2.885,0.488
							c-0.201,0.056-0.455,0.104-0.755,0.148c-0.302,0.043-0.649,0.081-1.036,0.113c-0.389,0.032-0.814,0.06-1.275,0.083
							c-0.463,0.022-0.955,0.04-1.477,0.054l1.366-0.298c0,0,0.202-0.097,0.564-0.276c0.36-0.179,0.88-0.439,1.513-0.767
							c0.634-0.327,1.382-0.72,2.197-1.164c0.816-0.444,1.703-0.94,2.615-1.47c0.338,0.068,0.668,0.126,0.992,0.175
							c0.321,0.049,0.637,0.088,0.941,0.12c0.307,0.03,0.604,0.053,0.894,0.068C373.045,587.766,373.325,587.772,373.598,587.773
							 M387.994,576.454c-0.091-0.207-0.181-0.414-0.268-0.624c-0.086-0.21-0.17-0.421-0.25-0.635
							c-0.08-0.214-0.154-0.43-0.225-0.648c-0.068-0.219-0.131-0.439-0.186-0.664c-0.157-0.655-0.046-1.471,0.271-2.444
							s0.841-2.103,1.506-3.379c0.665-1.277,1.473-2.704,2.355-4.269c0.886-1.568,1.849-3.276,2.823-5.117
							c0.501-0.526,0.964-1.033,1.39-1.522c0.428-0.487,0.819-0.957,1.178-1.408c0.359-0.45,0.686-0.881,0.981-1.295
							c0.297-0.413,0.563-0.809,0.804-1.186c0.703,0.95,1.004,1.861,1.063,2.711c0.059,0.849-0.127,1.637-0.393,2.339
							s-0.615,1.319-0.887,1.83c-0.272,0.511-0.467,0.914-0.429,1.187c0.029,0.196-0.265,0.818-0.796,1.749
							c-0.533,0.93-1.304,2.166-2.228,3.589c-0.923,1.42-1.999,3.027-3.148,4.698C390.412,573.037,389.197,574.771,387.994,576.454
							 M122.493,340.653c-5.554,0.018-10.79,0.454-15.584,1.242c-4.792,0.787-9.141,1.925-12.923,3.349
							c-3.777,1.42-6.99,3.127-9.516,5.053c-2.523,1.921-4.361,4.062-5.396,6.354c-0.012,0.03-0.026,0.079-0.046,0.144
							c-0.018,0.064-0.039,0.146-0.063,0.242c-0.023,0.096-0.048,0.207-0.075,0.33c-0.026,0.123-0.054,0.259-0.082,0.407
							c-0.016,0.011-0.033,0.024-0.048,0.039c-0.016,0.013-0.031,0.03-0.045,0.046c-0.015,0.018-0.028,0.038-0.041,0.059
							c-0.013,0.022-0.024,0.046-0.035,0.072c-0.235,0.64-1.194,1.826-2.5,3.243c-1.304,1.416-2.953,3.063-4.571,4.626
							c-1.616,1.563-3.2,3.043-4.379,4.133c-1.18,1.087-1.955,1.786-1.955,1.786s-0.05,0.057-0.122,0.153
							c-0.073,0.095-0.168,0.23-0.26,0.386c-0.093,0.155-0.182,0.333-0.241,0.513c-0.059,0.18-0.088,0.362-0.062,0.531
							c-0.872,0.074-1.559,0.233-2.137,0.453c-0.578,0.219-1.045,0.497-1.477,0.807c-0.432,0.311-0.827,0.653-1.258,1
							c-0.433,0.347-0.901,0.7-1.482,1.029c-0.713,0.406-1.416,0.844-2.137,1.29c-0.72,0.445-1.457,0.896-2.239,1.326
							c-0.783,0.429-1.61,0.837-2.51,1.198c-0.899,0.36-1.872,0.671-2.944,0.908c-0.256,0.056-0.52,0.145-0.788,0.262
							c-0.268,0.116-0.542,0.262-0.816,0.431c-0.276,0.17-0.553,0.365-0.828,0.581s-0.549,0.454-0.818,0.708l-0.026,0.016
							c-0.582,0.528-1.302,1.319-1.988,2.248c-0.686,0.928-1.336,1.995-1.778,3.076c-0.442,1.08-0.676,2.174-0.53,3.16
							c0.146,0.984,0.67,1.862,1.746,2.507l0.057,0.031c0.035,0.022,0.071,0.043,0.108,0.065c0.037,0.02,0.074,0.041,0.112,0.062
							c0.039,0.02,0.077,0.04,0.116,0.06c0.041,0.021,0.081,0.04,0.123,0.058c0.086,0.038,0.173,0.068,0.265,0.094
							c0.092,0.026,0.186,0.047,0.282,0.064c0.097,0.016,0.197,0.028,0.299,0.035c0.103,0.008,0.208,0.012,0.316,0.012
							c0.253-0.001,0.522-0.022,0.804-0.059c0.283-0.037,0.579-0.09,0.888-0.153c0.31-0.064,0.632-0.137,0.966-0.216
							c0.333-0.079,0.679-0.164,1.035-0.248c0.359-0.084,0.728-0.168,1.107-0.248c0.379-0.079,0.769-0.153,1.167-0.217
							c0.398-0.064,0.806-0.117,1.221-0.156c0.415-0.037,0.838-0.059,1.267-0.06c0.032,0,0.064,0,0.096,0
							c0.033,0,0.065,0,0.097,0.001c0.033,0,0.064,0.001,0.097,0.001c0.032,0.001,0.065,0.002,0.097,0.003
							c1.165-0.056,2.329-0.317,3.419-0.679c1.091-0.362,2.11-0.824,2.983-1.28s1.601-0.904,2.111-1.24
							c0.509-0.335,0.801-0.556,0.801-0.556c0.444-0.289,0.849-0.566,1.206-0.819c0.357-0.253,0.667-0.481,0.922-0.674
							s0.454-0.349,0.589-0.458c0.136-0.108,0.207-0.169,0.207-0.169s0.751-0.381,2.129-0.954c1.378-0.572,3.386-1.337,5.899-2.104
							c2.515-0.768,5.539-1.537,8.945-2.116c3.408-0.581,7.199-0.971,11.247-0.98c0.104,0,0.208,0,0.313,0
							c0.104,0,0.21,0.001,0.314,0.002c0.105,0,0.21,0.002,0.315,0.003c0.105,0,0.211,0.002,0.317,0.004
							c0.014,0.001,0.026,0.004,0.041,0.006c0.013,0,0.027,0.002,0.04,0.002c0.015,0.002,0.027,0.002,0.042,0.003
							c0.013,0,0.028,0,0.041,0c0.029,0,0.059-0.001,0.088-0.003c0.031-0.002,0.06-0.005,0.09-0.009
							c0.03-0.004,0.059-0.01,0.089-0.016c0.029-0.006,0.059-0.013,0.088-0.021c2.517,0.309,4.905,0.676,7.098,1.052
							c2.192,0.377,4.188,0.763,5.92,1.11c1.733,0.349,3.203,0.657,4.342,0.879c1.14,0.222,1.95,0.357,2.364,0.358
							c6.543,2.33,11.984,5.85,16.478,9.88c4.479,4.015,8.011,8.532,10.758,12.881c2.737,4.333,4.696,8.498,6.043,11.842
							c1.342,3.335,2.077,5.857,2.367,6.918c0.009,0.038,0.008,0.078,0.003,0.115c-0.005,0.039-0.017,0.078-0.028,0.116
							s-0.022,0.077-0.028,0.116c-0.006,0.039-0.006,0.078,0.002,0.116c0.003,0.014,0.006,0.026,0.009,0.037
							c0.002,0.01,0.005,0.019,0.007,0.026c0.001,0.007,0.003,0.013,0.003,0.017c0.001,0.003,0.001,0.005,0.001,0.005l0.223,0.125
							c0.029,0.088,0.064,0.177,0.104,0.265c0.04,0.089,0.083,0.176,0.128,0.264c0.045,0.087,0.091,0.176,0.137,0.263
							c0.044,0.086,0.089,0.173,0.128,0.259c0.501,1.695,1.25,3.989,2.303,6.691c1.05,2.693,2.402,5.788,4.112,9.091
							c1.705,3.294,3.764,6.793,6.232,10.307c2.461,3.504,5.329,7.023,8.66,10.37c7.854,9.697,17.031,19.17,27.699,27.938
							c10.59,8.703,22.663,16.724,36.402,23.597c13.662,6.835,29.002,12.552,46.229,16.697c17.176,4.132,36.278,6.713,57.556,7.285
							c3.789,0.874,7.539,1.637,11.247,2.3c3.707,0.664,7.372,1.227,10.985,1.699c3.616,0.473,7.184,0.854,10.695,1.155
							c3.513,0.3,6.972,0.52,10.372,0.666c0.013,0.027,0.026,0.055,0.043,0.081c0.015,0.026,0.032,0.052,0.05,0.078
							c0.016,0.026,0.035,0.051,0.054,0.078c0.019,0.025,0.037,0.049,0.058,0.075c0.438,0.535,0.65,1.251,0.698,2.04
							c0.05,0.789-0.067,1.651-0.282,2.477c-0.217,0.827-0.535,1.619-0.894,2.269c-0.356,0.65-0.754,1.159-1.13,1.419
							c-0.377,0.26-1.098,1.573-1.99,3.423c-0.891,1.848-1.955,4.227-3.018,6.627c-1.062,2.394-2.123,4.807-3.02,6.734
							c-0.895,1.923-1.623,3.364-2.022,3.818c-0.4,0.452-0.619,0.819-0.735,1.147c-0.118,0.327-0.131,0.613-0.113,0.902
							c0.018,0.29,0.064,0.583,0.067,0.925c0.003,0.34-0.04,0.729-0.198,1.209c-0.16,0.479-0.902,0.888-1.926,1.229
							c-1.025,0.342-2.331,0.618-3.616,0.834c-1.284,0.215-2.548,0.373-3.492,0.474c-0.943,0.103-1.565,0.15-1.565,0.15
							s-0.733,0.043-1.918,0.107c-1.184,0.063-2.818,0.148-4.625,0.234c-1.805,0.085-3.779,0.169-5.643,0.232
							c-1.863,0.062-3.615,0.103-4.977,0.1c-0.17,0-0.334-0.001-0.492-0.003c-0.158-0.001-0.309-0.003-0.453-0.007
							c-0.144-0.004-0.28-0.007-0.409-0.012c-0.129-0.005-0.249-0.011-0.361-0.018c-0.821-0.047-1.651-0.138-2.507-0.247
							c-0.856-0.109-1.74-0.235-2.672-0.357c-0.93-0.121-1.908-0.236-2.953-0.322c-1.045-0.087-2.156-0.143-3.355-0.146
							c-0.268,0-0.539,0.002-0.816,0.007c-0.275,0.005-0.557,0.013-0.843,0.024c-0.286,0.012-0.576,0.026-0.872,0.044
							c-0.297,0.018-0.596,0.039-0.903,0.065c-1.694,0.333-2.679,0.704-3.202,1.071c-0.527,0.368-0.59,0.734-0.443,1.057
							c0.148,0.324,0.506,0.606,0.826,0.807c0.322,0.201,0.606,0.322,0.606,0.322s0.064,0.001,0.185,0.004
							c0.119,0.003,0.291,0.007,0.508,0.011c0.215,0.004,0.476,0.007,0.766,0.011c0.293,0.003,0.617,0.006,0.963,0.006
							c0.354,0,0.728,0,1.114-0.004c0.386-0.003,0.784-0.009,1.181-0.019c0.396-0.01,0.793-0.022,1.178-0.04
							c0.385-0.019,0.758-0.04,1.107-0.067c0.445-0.035,0.836-0.076,1.181-0.119c0.343-0.042,0.642-0.085,0.905-0.123
							c0.26-0.039,0.486-0.073,0.686-0.098c0.199-0.024,0.371-0.038,0.527-0.038c0.086,0,0.166,0.004,0.242,0.015
							c0.078,0.009,0.15,0.025,0.223,0.047s0.141,0.049,0.211,0.085c0.069,0.035,0.139,0.077,0.21,0.127
							c0.187,0.13,0.64,0.317,1.261,0.525c0.623,0.207,1.412,0.433,2.275,0.644c0.864,0.211,1.802,0.405,2.716,0.547
							c0.914,0.141,1.806,0.232,2.581,0.233c0.055,0,0.109,0,0.163-0.001c0.052,0,0.106-0.001,0.157-0.003
							c0.053-0.001,0.104-0.004,0.155-0.006c0.052-0.002,0.101-0.006,0.149-0.01c0.754-0.054,1.87-0.102,3.125-0.141
							c1.254-0.039,2.645-0.072,3.94-0.097c1.296-0.024,2.499-0.043,3.377-0.055c0.88-0.012,1.433-0.018,1.433-0.018
							s-0.317,0.111-0.836,0.293c-0.516,0.183-1.233,0.433-2.035,0.712c-0.8,0.279-1.684,0.585-2.533,0.877
							c-0.848,0.292-1.664,0.571-2.328,0.792c-0.484,0.163-0.901,0.354-1.258,0.56c-0.357,0.206-0.656,0.425-0.903,0.64
							c-0.248,0.216-0.445,0.429-0.601,0.624c-0.154,0.195-0.268,0.37-0.348,0.51c-0.228-0.004-0.449-0.007-0.664-0.01
							c-0.216-0.002-0.424-0.006-0.625-0.008c-0.201-0.002-0.394-0.003-0.578-0.005c-0.186-0.001-0.363-0.002-0.531-0.002
							c-0.246,0-0.477,0-0.684,0.001c-0.208,0.003-0.395,0.005-0.56,0.01c-0.164,0.004-0.306,0.011-0.423,0.018
							c-0.116,0.008-0.208,0.017-0.273,0.028c-0.415,0.075-1.281,0.225-2.4,0.411c-1.12,0.185-2.489,0.405-3.909,0.616
							c-1.419,0.209-2.888,0.41-4.204,0.558c-1.318,0.147-2.484,0.242-3.299,0.24c-0.816-0.002-1.816,0.125-2.879,0.323
							c-1.063,0.2-2.189,0.472-3.262,0.761c-1.073,0.291-2.09,0.597-2.936,0.867s-1.52,0.501-1.9,0.64
							c-0.28,0.101-0.378,0.293-0.318,0.527c0.059,0.233,0.277,0.505,0.627,0.766c0.351,0.26,0.834,0.509,1.428,0.692
							c0.592,0.183,1.295,0.302,2.081,0.303c0.285,0.002,0.581-0.013,0.887-0.045c0.308-0.033,0.622-0.083,0.948-0.153
							c0.324-0.071,0.659-0.161,1-0.274c0.344-0.114,0.693-0.25,1.049-0.412c1.343-0.606,2.802-1.016,4.374-1.292
							c1.572-0.277,3.259-0.423,5.054-0.501c1.797-0.079,3.703-0.092,5.718-0.105c2.015-0.013,4.138-0.025,6.366-0.103
							c0.585,0.195,1.232,0.358,1.928,0.493c0.691,0.134,1.43,0.24,2.199,0.322c0.768,0.082,1.567,0.138,2.381,0.176
							c0.813,0.038,1.641,0.055,2.468,0.058c1.482,0.003,2.962-0.043,4.346-0.115c1.386-0.071,2.676-0.168,3.78-0.266
							c1.106-0.097,2.025-0.196,2.67-0.269c0.643-0.074,1.01-0.124,1.01-0.124s-0.279,0.254-0.736,0.642
							c-0.458,0.388-1.093,0.911-1.807,1.45c-0.711,0.54-1.5,1.096-2.264,1.551s-1.503,0.809-2.119,0.946
							c-0.617,0.137-2.232,0.604-4.334,1.235s-4.688,1.425-7.25,2.22c-2.561,0.792-5.096,1.585-7.102,2.212
							c-2.003,0.627-3.477,1.091-3.916,1.227c-0.439,0.137-1.24,0.341-2.17,0.597c-0.933,0.256-1.99,0.561-2.94,0.902
							s-1.792,0.716-2.293,1.109s-0.657,0.804-0.237,1.218c0.104,0.1,0.26,0.187,0.461,0.259c0.202,0.073,0.451,0.133,0.738,0.181
							c0.289,0.047,0.616,0.082,0.98,0.106c0.362,0.023,0.76,0.035,1.186,0.036c1.32,0.004,2.912-0.096,4.597-0.272
							c1.685-0.177,3.464-0.431,5.155-0.737c1.693-0.305,3.3-0.665,4.643-1.05c1.342-0.385,2.417-0.798,3.046-1.212
							c1.556-0.215,3.009-0.517,4.36-0.867c1.351-0.349,2.6-0.747,3.74-1.152c1.145-0.407,2.18-0.822,3.107-1.209
							c0.927-0.385,1.744-0.741,2.451-1.028c0.096,0.015,0.193,0.027,0.289,0.038c0.098,0.01,0.192,0.019,0.287,0.026
							c0.097,0.007,0.19,0.012,0.285,0.016c0.094,0.003,0.188,0.005,0.281,0.005c0.822,0.002,1.601-0.118,2.305-0.301
							c0.705-0.181,1.337-0.424,1.866-0.667c0.528-0.244,0.956-0.488,1.249-0.671c0.295-0.183,0.457-0.306,0.457-0.306
							s0.301-0.199,0.791-0.524c0.488-0.326,1.164-0.777,1.912-1.282c0.747-0.504,1.568-1.06,2.346-1.593
							c0.778-0.534,1.514-1.045,2.09-1.46c0.398-0.289,0.76-0.524,1.096-0.718c0.336-0.192,0.646-0.341,0.941-0.454
							c0.294-0.113,0.576-0.189,0.854-0.237c0.278-0.048,0.554-0.069,0.838-0.068c0.125,0,0.254,0.005,0.384,0.013
							c0.13,0.007,0.263,0.018,0.4,0.033c0.137,0.013,0.277,0.03,0.423,0.049c0.145,0.018,0.294,0.038,0.449,0.061
							c0.614,0.196,1.386,1.039,2.295,2.266c0.907,1.225,1.949,2.832,3.108,4.557c1.157,1.723,2.426,3.564,3.792,5.263
							c1.363,1.696,2.82,3.251,4.353,4.406c0.562,0.322,1.089,0.593,1.581,0.818c0.49,0.226,0.949,0.404,1.372,0.544
							c0.425,0.139,0.815,0.24,1.178,0.303c0.36,0.065,0.69,0.096,0.992,0.097c0.73,0.001,1.294-0.168,1.714-0.435
							c0.422-0.266,0.701-0.626,0.865-1.006c0.165-0.381,0.215-0.779,0.176-1.12c-0.037-0.341-0.162-0.622-0.349-0.769
							c-0.263-0.206-0.604-0.468-0.992-0.787c-0.388-0.318-0.823-0.693-1.271-1.127c-0.447-0.435-0.91-0.928-1.348-1.481
							c-0.439-0.554-0.857-1.169-1.221-1.846c-0.109-0.746-0.529-1.713-1.131-2.769c-0.601-1.058-1.385-2.203-2.227-3.304
							c-0.84-1.102-1.739-2.158-2.564-3.034c-0.825-0.875-1.579-1.57-2.132-1.948c-0.523-0.358-0.771-0.743-0.81-1.12
							c-0.039-0.377,0.131-0.746,0.435-1.069c0.306-0.324,0.748-0.604,1.255-0.801c0.509-0.197,1.082-0.313,1.65-0.312
							c0.031,0,0.063,0,0.094,0c0.031,0.001,0.063,0.002,0.094,0.004c0.029,0.001,0.061,0.002,0.092,0.005
							c0.031,0.002,0.062,0.004,0.092,0.007c0.592,0.057,1.531,0.285,2.655,0.644c1.126,0.359,2.435,0.847,3.769,1.421
							c1.33,0.575,2.687,1.237,3.904,1.944c1.217,0.706,2.292,1.457,3.068,2.209c0.317,0.305,0.641,0.558,0.97,0.768
							c0.329,0.209,0.659,0.375,0.989,0.502c0.331,0.127,0.66,0.216,0.984,0.274c0.324,0.058,0.643,0.084,0.951,0.085
							c0.455,0.001,0.889-0.052,1.286-0.142c0.398-0.088,0.759-0.211,1.069-0.35c0.313-0.136,0.573-0.289,0.77-0.437
							c0.196-0.146,0.328-0.288,0.38-0.404c0.71-0.763,0.474-1.553-0.302-2.315c-0.776-0.762-2.095-1.498-3.554-2.15
							c-1.458-0.652-3.057-1.222-4.388-1.653c-1.332-0.431-2.397-0.724-2.79-0.823c-0.396-0.099-1.048-0.294-1.821-0.545
							s-1.668-0.558-2.546-0.881c-0.88-0.323-1.745-0.662-2.456-0.977c-0.71-0.313-1.27-0.603-1.537-0.828
							c-0.693-0.975-0.612-2.146-0.088-3.394c0.525-1.25,1.495-2.578,2.58-3.865c1.088-1.288,2.29-2.536,3.277-3.622
							c0.988-1.087,1.76-2.013,1.98-2.656c0.223-0.644,0.764-1.534,1.541-2.563s1.794-2.196,2.963-3.394
							c1.173-1.199,2.5-2.426,3.898-3.576c1.401-1.15,2.873-2.219,4.334-3.098c3.251-2.213,4.752-4.309,5.173-6.211
							c0.42-1.904-0.245-3.612-1.321-5.044c-1.079-1.434-2.57-2.591-3.799-3.394c-1.229-0.803-2.197-1.25-2.221-1.263
							c8.975-0.713,17.217-1.835,24.538-3.118c7.332-1.286,13.744-2.732,19.035-4.092c5.299-1.36,9.476-2.634,12.327-3.568
							c2.856-0.935,4.385-1.527,4.385-1.527c0.152-0.046,0.304-0.097,0.454-0.148c0.149-0.053,0.298-0.107,0.444-0.165
							s0.292-0.116,0.438-0.176c0.146-0.061,0.29-0.123,0.435-0.185c2.984,0.179,5.902,0.341,8.752,0.486
							c2.852,0.145,5.637,0.273,8.355,0.387c2.719,0.113,5.375,0.21,7.969,0.293c2.593,0.083,5.123,0.152,7.594,0.208
							c1.322,0.031,2.648,0.058,3.976,0.082c1.325,0.024,2.656,0.044,3.985,0.061c1.332,0.018,2.663,0.029,3.995,0.039
							c1.331,0.009,2.665,0.016,3.999,0.017c6.428,0.007,12.859-0.079,19.242-0.274c6.384-0.196,12.719-0.501,18.943-0.936
							c6.23-0.435,12.354-0.999,18.313-1.709c5.964-0.711,11.767-1.569,17.352-2.594c0.859-0.106,1.663-0.237,2.405-0.388
							c0.744-0.151,1.432-0.324,2.058-0.514c0.627-0.19,1.196-0.398,1.704-0.621c0.51-0.223,0.959-0.459,1.349-0.708
							c2.523,0.426,7.337,1.539,13.303,2.999c5.958,1.458,13.063,3.262,20.185,5.072c7.111,1.809,14.238,3.623,20.258,5.107
							c6.014,1.485,10.927,2.641,13.623,3.136c0.342,0.063,0.679,0.117,1.008,0.164c0.328,0.046,0.65,0.084,0.963,0.114
							c0.315,0.03,0.622,0.052,0.924,0.067c0.301,0.015,0.592,0.022,0.879,0.023c2.048,0.002,3.74-0.351,5.09-0.896
							c1.354-0.546,2.364-1.286,3.048-2.057c0.685-0.771,1.041-1.575,1.083-2.246c0.044-0.671-0.228-1.21-0.799-1.454
							c-0.652-0.276-1.487-0.607-2.45-0.961c-0.964-0.354-2.054-0.727-3.216-1.089s-2.395-0.713-3.643-1.017
							c-1.249-0.305-2.512-0.563-3.732-0.743c-1.22-0.179-3.051-0.708-5.275-1.46c-2.225-0.753-4.846-1.729-7.639-2.804
							c-2.793-1.075-5.762-2.249-8.68-3.393c-2.92-1.146-5.791-2.266-8.389-3.226c-0.859-0.656-1.918-1.294-3.129-1.913
							c-1.209-0.619-2.57-1.218-4.033-1.792c-1.467-0.576-3.031-1.128-4.652-1.655c-1.619-0.525-3.291-1.026-4.969-1.496
							c1.043-0.783,1.463-1.693,1.102-2.745c-0.363-1.052-1.508-2.247-3.592-3.596c-2.089-1.351-5.12-2.856-9.254-4.531
							c-4.141-1.677-9.385-3.522-15.898-5.551h-0.01c-3.766-2.641-8.365-4.903-13.202-6.813c-4.843-1.914-9.924-3.473-14.646-4.707
							c-4.728-1.235-9.092-2.147-12.5-2.762c-3.409-0.615-5.86-0.936-6.759-0.99c-0.995-0.062-2.647-0.202-4.63-0.419
							c-1.98-0.217-4.293-0.512-6.611-0.884c-2.32-0.372-4.645-0.821-6.652-1.348c-2.007-0.527-3.697-1.131-4.744-1.815
							c-9.193-6.043-23.723-11.628-40.416-16.618c-16.754-5.008-35.664-9.408-53.514-13.067
							c-17.896-3.668-34.705-6.585-47.194-8.619c-12.503-2.036-20.662-3.184-21.247-3.313c-0.582-0.127-1.721-0.407-3.29-0.788
							c-1.571-0.382-3.573-0.867-5.882-1.404c-2.309-0.536-4.924-1.125-7.723-1.716c-2.799-0.591-5.781-1.184-8.817-1.728
							c-2.532-0.456-6.136-1.272-10.253-2.281c-4.119-1.008-8.754-2.21-13.351-3.434c-4.601-1.224-9.161-2.47-13.122-3.566
							c-3.965-1.097-7.33-2.042-9.533-2.666l-0.051-0.015c-0.092-0.03-0.183-0.06-0.274-0.09c-0.091-0.029-0.183-0.058-0.275-0.088
							c-0.091-0.03-0.183-0.059-0.274-0.088c-0.091-0.029-0.182-0.06-0.271-0.089c-2.553-0.842-8.996-3.024-17.458-6.1
							c-8.481-3.082-19.005-7.066-29.685-11.505c-10.716-4.455-21.598-9.37-30.734-14.292c-9.172-4.94-16.587-9.889-20.3-14.378
							c-1.928-4.925-5.032-8.93-8.616-12.167c-3.594-3.246-7.664-5.718-11.509-7.571c-3.851-1.857-7.471-3.092-10.161-3.87
							c-2.689-0.777-4.444-1.096-4.564-1.118c-2.553-1.121-5.323-2.137-8.27-3.03c-2.949-0.893-6.073-1.663-9.331-2.29
							c-3.259-0.629-6.651-1.114-10.132-1.44C129.683,340.807,126.111,340.642,122.493,340.653"/>
					</g>
				</g>
			</g>
		</g>
		<path fill="#E56E88" d="M411.189,471.332c0,0,2.712,6.569-7.877,26.518c-5.175,15.764-9.857,27.093-9.607,32.759
			c0.244,5.665,1.723,10.59,1.23,15.269c-0.493,4.681-10.344,11.331-10.344,11.331s-4.189,5.912-11.082,2.956
			c-4.189,4.68-7.885,8.127-7.885,8.127l-6.648,2.955l-8.863-1.23l-2.219-0.492c0,0,0.98-3.941,3.939-5.912
			c2.954-1.969,8.621-5.91,8.621-5.91s-9.356,0.245-12.561,0.738c-3.201,0.492-8.863-2.957-9.607-4.189
			c-0.736-1.229-1.479-0.245-4.432,0.248c-2.959,0.492-7.391,0.247-7.391,0.247s-4.434-4.187,2.952-7.143
			c7.142-1.234,11.331,1.479,15.521,1.97c4.189,0.493,19.952-1.477,19.952-1.477s10.587-1.728,11.573-5.912
			c0.986-4.188-0.243-5.172,1.723-9.112c1.973-3.941,12.073-42.119,13.798-44.335c1.722-2.218,4.431-12.89,2.952-17.406
			c-1.48-4.514,3.695-13.136,8.62-9.934C408.481,464.599,411.012,466.713,411.189,471.332z"/>
		<path fill="#FF788F" d="M426.955,469.363c0,0,14.776,14.776,0,33.822c-6.566,7.556-13.791,21.674-15.104,27.257
			c-1.314,5.584-12.484,21.018-10.185,29.559c0.985,1.97,6.692,6.199,8.295,7.06c1.601,0.861,14.032,8.496,10.588,15.27
			c-0.487,1.724-4.921,6.035-7.759-0.615c-2.829-6.65-10.715-13.178-13.173-13.669c-2.466-0.494-5.669,3.941-3.575,7.265
			c2.095,3.326,6.777,17.858,6.777,24.506c1.108,6.037,3.324,9.853,4.309,11.701c0.986,1.847-0.74,13.422-8.248,3.572
			c-5.791-10.346-9.243-34.975-11.702-36.701c-2.095-0.615-3.202-0.738-5.912,2.957s-8.372,10.839-8.372,10.839
			s-3.817,5.418-7.763,4.185c-3.196,2.585-8.493,7.637-15.271,9.607c-3.938,4.925-21.182,9.852-22.66,6.158
			c-1.475-3.696,6.898-7.391,8.869-8.622c1.968-1.232,22.535-14.284,25.244-15.518c2.708-1.229,8.128-10.221,8.128-10.221
			s-15.392,4.311-21.917-0.491c-9.487,0.738-16.993-0.861-23.155,4.556c-6.156,5.418-9.602-1.848-7.88-3.079
			c1.724-1.231,8.66-5.788,12.113-5.788c3.445,0,13.131-3.451,14.938-4.106c1.805-0.655,21.674,1.313,25.454-0.82
			c3.772-2.134,11.163-0.329,17.567-14.123c6.404-13.791,20.197-47.945,20.197-50.408c0-2.465,4.682-9.851,1.479-18.474
			c-0.986-2.71-7.142-11.083-6.654-14.285c0.492-3.202,8.128-8.375,16.014-7.883C425.475,463.369,425.795,468.003,426.955,469.363z"
			/>
		<path fill="#FADB9B" d="M490.34,443.418c0,0-66.346,50.574-139.241,15.108c-87.358-4.599-132.677-76.847-155.011-153.695
			c-13.137-34.152-12.479-76.842-12.479-76.842s11.166-93.924,104.43-35.469c93.272,58.457,204.927,145.154,215.438,168.799
			C513.98,384.965,505.66,433.97,490.34,443.418z"/>
		<path fill="#A43C17" d="M224.335,114.365c0,22.851-21.445,41.378-47.904,41.378c-18.004,0-33.691-8.586-41.878-21.276
			c-3.835-5.953-6.021-12.806-6.021-20.102c0-2.592,1.051-7.616,1.781-10.633c0.307-1.26,0.558-2.171,0.64-2.408
			c6.329-16.463,24.294-28.338,45.477-28.338C202.89,72.986,224.335,91.512,224.335,114.365z"/>
		<path fill="#A43C17" d="M109.432,133.934c0,0,19.198-25.601,20.76-30.201c1.563-4.597,6.438,23.668,6.438,23.668
			s-18.328,10.718-27.198,10.718C106.959,137.951,109.432,133.934,109.432,133.934z"/>
		<path fill="#A43C17" d="M211.364,86.076c0,0,24.787,8.583,28.073,44.708c11.164,34.811,85.182,85.568,87.31,86.881
			c2.118,1.313-33.723,97.524-82.978,71.909c0,0-63.473-25.56-60.16-61.583c0,0,0.173-58.95-25.036-75.206
			C158.573,152.785,150.445,85.377,211.364,86.076z"/>
		<path fill="#A4635D" d="M284.783,230.628c2.12,1.313-44.3,77.269-58.042,83.612c0,0-38.254-13.743-43.236-82.462
			c0,0,0.159-60.249-24.931-78.994C203.503,122.451,282.658,229.314,284.783,230.628z"/>
		<path fill="#FADB9B" d="M122.53,145.231c0,0,12.145-10.509,18.063-13.137c5.911-2.625,9.396-4.557,16.09-1.723
			c8.947-3.818,20.182-6.107,26.92-5.829c7.878-1.642,16.096-3.344,29.565-1.018c7.553,1.345,11.818,9.884,1.64,12.183
			c-10.183,2.297-22.242,8.81-32.997,14.679c0,0-8.989,3.841-23.24,2.397C156.046,152.766,139.661,142.855,122.53,145.231z"/>
		<path fill="#E56E88" d="M142.233,121.995c-1.019,0.228-15.52,8.622-26.851,9.606c-5.905-0.984-6.647,2.957-9.85,5.912
			c-3.203,2.957-6.399,6.898-10.836,8.621c-4.434,1.725-13.542,19.946-8.866,24.504c1.723,1.603,5.912-2.337,10.102-2.09
			c6.155-1.232,13.546-10.839,13.546-10.839s14.034-11.808,30.292-11.199c2.708,0.856,11.822-20.08,11.822-20.08
			S151.098,120.027,142.233,121.995z"/>
		<path fill="#F7E2DA" d="M90.785,149.378c-3.084,4.189-9.889,17.045-5.336,21.687c1.792,1.668,6.151-2.432,10.511-2.175
			c4.804-0.404,10.531-7.209,10.531-7.209S93.72,145.389,90.785,149.378z"/>
		<path fill="#E56E88" d="M181.022,111.456c1.161,7.013-5.783,14.004-15.505,15.61c-9.729,1.609-18.55-2.775-19.709-9.792
			c-1.167-7.015,5.783-14.004,15.507-15.612C171.037,100.054,179.862,104.438,181.022,111.456z"/>
		<radialGradient id="SVGID_3_" cx="171.2969" cy="106.2334" r="22.6522" gradientUnits="userSpaceOnUse">
			<stop  offset="0.0099" style="stop-color:#FE8046"/>
			<stop  offset="0.3416" style="stop-color:#EC6037"/>
			<stop  offset="0.4703" style="stop-color:#DC4329"/>
			<stop  offset="0.604" style="stop-color:#D83C25"/>
			<stop  offset="0.8267" style="stop-color:#A62F19"/>
			<stop  offset="1" style="stop-color:#9D2D17"/>
		</radialGradient>
		<path fill="url(#SVGID_3_)" d="M175.322,112.397c0.955,5.769-3.606,11.327-10.185,12.414c-6.571,1.086-12.675-2.709-13.629-8.479
			c-0.954-5.772,3.607-11.327,10.179-12.415C168.264,102.832,174.368,106.627,175.322,112.397z"/>
		<radialGradient id="SVGID_4_" cx="163.3325" cy="112.0625" r="10.0818" gradientUnits="userSpaceOnUse">
			<stop  offset="0" style="stop-color:#FFFFFF"/>
			<stop  offset="0.2327" style="stop-color:#EEEEEE"/>
			<stop  offset="0.3168" style="stop-color:#191919"/>
			<stop  offset="1" style="stop-color:#191919"/>
		</radialGradient>
		<path fill="url(#SVGID_4_)" d="M168.43,115.181c0.545,3.284-1.89,6.418-5.425,7.006c-3.542,0.583-6.854-1.604-7.396-4.887
			c-0.545-3.285,1.889-6.422,5.429-7.005C164.575,109.708,167.885,111.897,168.43,115.181z"/>
		<path fill="#873D22" d="M625.475,396.127c0,0,28.074,9.854,36.452,23.154c10.345,7.882,25.073,20.915,29.998,22.394
			c4.927,1.478,10.505,5.582,13.138,7.882c2.625,2.299-1.152,17.405-12.479,13.137c-11.329-4.27-61.197-32.247-68.748-34.052
			c-7.559-1.806-22.988-13.301-16.59-23.81C613.65,394.323,620.133,394.04,625.475,396.127z"/>
		<path fill="#A43C17" d="M324.164,216.163c0,0,34.32,20.117,45.9,24.304c11.572,4.186,22.16,9.854,24.378,10.836
			c2.222,0.987,121.177,33.498,155.664,81.281c3.939,5.42,18.222,8.375,22.167,8.868c3.939,0.493,37.925,11.329,50.242,37.929
			c8.379,1.478,19.216,12.316,20.689,16.747c1.479,4.435,4.925,9.854-8.373,13.794c-13.297,3.941-21.674,0-21.674,0
			s24.627,14.286,6.896,20.691c-17.734,6.403-68.468,32.509-218.222-6.405c-4.926,5.912-22.661,16.256-65.024-9.852
			s-51.723-31.527-64.531-46.303c-12.805-14.778-48.763-93.595-13.298-119.21C294.445,223.227,313.616,210.099,324.164,216.163z"/>
	</g>
</g>
<g id="colibri_madere">
</g>
<g id="colibri_à_tête_bleue">
</g>
<g id="elenie_siffleuse">
</g>
<g id="grive_à_pieds_jaunes">
</g>
<g id="merle_à_lunette">
</g>
<g id="moucherolle_gobemouche">
</g>
<g id="moqueur_corossol">
</g>
<g id="moqueur_grivotte">
</g>
<g id="trembleur_brun">
</g>
<g id="trembleur_gris">
</g>
<g id="paruline_cafeite">
</g>
<g id="saltator_gros_bec">
</g>
<g id="soporophile_rouge-gorge">
</g>
<g id="sucrier_à_ventre_jaune">
</g>
<g id="vachet_luisant">
</g>
<g id="vireo_a_moustaches">
</g>
<g id="merle_quiscale">
</g>
<g id="paruline_jaune">
</g>
<g id="tyran_gris">
</g>
<g id="sporophile_cici">
</g>
<g id="tourterelle_à_queue_carree">
</g>
<g id="colobri_huppé">
</g>
<g id="cécerelle_d_x27_amerique">
</g>
<g id="heron_vert">
</g>
<g id="pic_de_la_guadeloupe">
</g>
<g id="héron_garde-boeufs">
</g>
<g id="photos">
</g>
<g id="solitaire_siffleur">
</g>
<g id="tyran_janeau">
</g>
<g id="colibri_fallevert">
</g>
<g id="colombe_a_queue_noire">
</g>
</svg>
