<?xml version="1.0" encoding="utf-8"?>
<!-- Generator: Adobe Illustrator 16.0.0, SVG Export Plug-In . SVG Version: 6.00 Build 0)  -->
<!DOCTYPE svg PUBLIC "-//W3C//DTD SVG 1.1//EN" "http://www.w3.org/Graphics/SVG/1.1/DTD/svg11.dtd">
<svg version="1.1" xmlns="http://www.w3.org/2000/svg" xmlns:xlink="http://www.w3.org/1999/xlink" x="0px" y="0px" width="732px"
	 height="692px" viewBox="0 0 732 692" enable-background="new 0 0 732 692" xml:space="preserve">
<g id="Calque_1" display="none">
	<rect x="152.41" y="-36.879" display="inline" fill="none" width="415.59" height="37.879"/>
	<text transform="matrix(1 0 0 1 152.4102 -12.0293)" display="inline" font-family="'MyriadPro-Regular'" font-size="35">Viréo à moustaches</text>
	<rect x="180.41" y="639.182" display="inline" fill="none" width="415.59" height="37.879"/>
	<text transform="matrix(1 0 0 1 180.4102 664.0313)" display="inline" font-family="'MyriadPro-Regular'" font-size="35">Colibri huppé</text>
</g>
<g id="colombe_à_croissant">
</g>
<g id="colombe_rouviolette">
</g>
<g id="colibri_madere">
</g>
<g id="colibri_à_tête_bleue">
</g>
<g id="elenie_siffleuse">
</g>
<g id="grive_à_pieds_jaunes">
</g>
<g id="merle_à_lunette">
</g>
<g id="moucherolle_gobemouche">
</g>
<g id="moqueur_corossol">
</g>
<g id="moqueur_grivotte">
</g>
<g id="trembleur_brun">
</g>
<g id="trembleur_gris">
</g>
<g id="paruline_cafeite">
</g>
<g id="saltator_gros_bec">
</g>
<g id="soporophile_rouge-gorge">
</g>
<g id="sucrier_à_ventre_jaune">
</g>
<g id="vachet_luisant">
</g>
<g id="vireo_a_moustaches">
</g>
<g id="merle_quiscale">
</g>
<g id="paruline_jaune">
</g>
<g id="tyran_gris">
</g>
<g id="sporophile_cici">
</g>
<g id="tourterelle_à_queue_carree">
</g>
<g id="colobri_huppé">
	<g>
		<g opacity="0.3">
			<g>
				<g enable-background="new    ">
					<defs>
						<polygon id="SVGID_59_" enable-background="new    " points="68.809,602.237 58.137,264.819 584.215,266.573 673.863,599.912 
													"/>
					</defs>
					<clipPath id="SVGID_2_">
						<use xlink:href="#SVGID_59_"  overflow="visible"/>
					</clipPath>
					<g clip-path="url(#SVGID_2_)">
						<path fill="#959595" d="M239.02,493.747c0.674-0.002,1.27-0.074,1.787-0.182c0.516-0.109,0.951-0.253,1.301-0.397
							c0.35-0.144,0.615-0.287,0.794-0.395s0.27-0.18,0.27-0.18s0.007-0.002,0.018-0.005c0.011-0.004,0.026-0.009,0.046-0.016
							c0.02-0.008,0.043-0.017,0.071-0.027s0.059-0.022,0.094-0.038c-0.798,0.795-1.638,1.367-2.481,1.787
							c-0.842,0.421-1.688,0.688-2.494,0.874c-0.807,0.187-1.577,0.292-2.267,0.388c-0.691,0.098-1.305,0.184-1.798,0.333
							c-0.127,0.038-0.285,0.073-0.47,0.104c-0.189,0.029-0.405,0.057-0.644,0.079c-0.242,0.022-0.507,0.042-0.792,0.058
							c-0.285,0.017-0.592,0.03-0.913,0.042l0.85-0.205c0,0,0.129-0.065,0.359-0.186s0.561-0.295,0.963-0.515
							s0.877-0.483,1.396-0.781c0.518-0.298,1.078-0.631,1.655-0.986c0.206,0.044,0.408,0.082,0.606,0.114
							c0.197,0.031,0.389,0.058,0.576,0.077c0.189,0.02,0.372,0.033,0.551,0.043C238.676,493.743,238.85,493.747,239.02,493.747
							 M248.166,486.252c-0.052-0.135-0.102-0.271-0.15-0.408c-0.047-0.138-0.096-0.276-0.139-0.415
							c-0.043-0.14-0.085-0.281-0.122-0.423c-0.036-0.143-0.071-0.286-0.1-0.432c-0.081-0.427,0.007-0.958,0.224-1.59
							c0.216-0.632,0.559-1.362,0.992-2.189c0.433-0.824,0.952-1.742,1.52-2.751c0.568-1.006,1.184-2.1,1.808-3.274
							c0.313-0.339,0.604-0.662,0.87-0.974c0.268-0.311,0.511-0.608,0.734-0.895c0.223-0.287,0.424-0.562,0.609-0.824
							c0.185-0.263,0.35-0.514,0.5-0.755c0.411,0.601,0.578,1.178,0.601,1.716c0.021,0.539-0.103,1.041-0.274,1.487
							c-0.172,0.448-0.394,0.844-0.565,1.17c-0.174,0.327-0.3,0.586-0.28,0.763c0.016,0.125-0.174,0.524-0.514,1.121
							c-0.339,0.598-0.83,1.393-1.418,2.311c-0.589,0.918-1.276,1.958-2.009,3.043C249.719,484.02,248.938,485.151,248.166,486.252
							 M213.499,265.338c-0.548-0.002-1.261,0.406-2.042,1.032c-0.782,0.628-1.635,1.474-2.459,2.346
							c-0.824,0.873-1.62,1.772-2.293,2.505c-0.672,0.733-1.22,1.299-1.541,1.502c0.128-0.715,0.202-1.312,0.23-1.807
							c0.028-0.493,0.011-0.885-0.044-1.188c-0.057-0.302-0.149-0.514-0.276-0.652c-0.123-0.138-0.28-0.199-0.461-0.199
							c-0.404-0.003-0.931,0.311-1.491,0.781c-0.562,0.47-1.157,1.099-1.705,1.727c-0.546,0.63-1.042,1.26-1.4,1.732
							c-0.361,0.473-0.583,0.788-0.583,0.788s-0.404,0.765-1.051,1.948c-0.646,1.185-1.533,2.791-2.498,4.472
							c-0.969,1.685-2.014,3.442-2.976,4.927c-0.961,1.486-1.835,2.696-2.455,3.278c-0.601-0.957-1.133-1.753-1.604-2.407
							c-0.473-0.654-0.883-1.169-1.242-1.564c-0.356-0.395-0.663-0.67-0.922-0.848c-0.259-0.177-0.473-0.255-0.646-0.256
							c-0.238,0-0.404,0.146-0.515,0.385c-0.113,0.238-0.17,0.571-0.189,0.944c-0.021,0.374-0.007,0.788,0.028,1.19
							c0.032,0.402,0.085,0.794,0.137,1.118c0.046,0.28,0.026,0.508-0.043,0.69c-0.07,0.184-0.189,0.323-0.342,0.428
							c-0.152,0.105-0.34,0.175-0.544,0.217c-0.204,0.044-0.429,0.062-0.654,0.061c-0.229,0-0.459-0.019-0.679-0.047
							c-0.217-0.027-0.424-0.063-0.603-0.1c-0.176-0.035-0.323-0.072-0.428-0.099c-0.104-0.027-0.165-0.046-0.165-0.046
							s-0.266-0.213-0.677-0.559c-0.413-0.347-0.972-0.826-1.562-1.36s-1.207-1.121-1.737-1.685c-0.531-0.562-0.973-1.1-1.212-1.534
							c-0.439-0.7-0.876-1.278-1.305-1.753c-0.428-0.473-0.848-0.842-1.257-1.124c-0.411-0.282-0.81-0.478-1.191-0.602
							c-0.386-0.125-0.755-0.179-1.107-0.18c-0.55-0.003-1.057,0.127-1.509,0.32c-0.453,0.194-0.849,0.453-1.177,0.714
							c-0.326,0.26-0.585,0.52-0.761,0.715c-0.179,0.195-0.272,0.325-0.272,0.325s-0.158,0.209-0.429,0.547
							c-0.27,0.339-0.647,0.81-1.089,1.331c-0.444,0.523-0.946,1.098-1.464,1.647c-0.518,0.549-1.051,1.073-1.544,1.494
							c-1.076,1.59-2.566,2.96-4.304,4.141c-1.74,1.182-3.728,2.172-5.795,3.002c-2.073,0.829-4.227,1.497-6.297,2.032
							c-2.07,0.536-4.055,0.938-5.791,1.237c-1.254-0.493-4.478-1.729-9.186-3.305c-4.701-1.574-10.887-3.487-18.074-5.338
							c-7.179-1.85-15.357-3.638-24.074-4.971c-8.709-1.332-17.96-2.21-27.299-2.238c-0.356-0.001-0.713-0.001-1.069,0
							c-0.356,0.003-0.714,0.005-1.067,0.009c-0.357,0.005-0.714,0.009-1.072,0.016c-0.357,0.006-0.714,0.015-1.07,0.023
							c0.227,0.257,1.925,1.125,4.941,2.431c3.02,1.307,7.361,3.056,12.869,5.072c5.516,2.021,12.205,4.313,19.907,6.703
							c7.718,2.395,16.456,4.89,26.051,7.308c2.303,1.058,4.21,1.979,5.815,2.79c1.603,0.81,2.9,1.508,3.978,2.114
							c1.076,0.608,1.931,1.125,2.653,1.574c0.719,0.449,1.307,0.829,1.844,1.164c2.942,1.314,5.486,2.761,7.681,4.313
							c2.199,1.554,4.052,3.213,5.606,4.954c1.56,1.744,2.823,3.567,3.843,5.447c1.022,1.884,1.801,3.822,2.388,5.79
							c1.255,2.026,2.362,5.072,3.273,8.681c0.913,3.618,1.631,7.811,2.107,12.11c0.479,4.317,0.715,8.745,0.66,12.813
							c-0.056,4.082-0.402,7.8-1.091,10.67c-0.845,3.355-0.796,8.054,0.438,13.623c1.244,5.597,3.688,12.081,7.645,18.974
							c3.978,6.934,9.486,14.281,16.83,21.551c7.388,7.313,16.632,14.54,28.038,21.169c2.297,1.41,4.644,2.783,7.003,4.089
							c2.359,1.307,4.734,2.548,7.087,3.692c2.354,1.146,4.687,2.194,6.962,3.119c2.278,0.925,4.499,1.724,6.628,2.368
							c0.361,0.109,0.735,0.224,1.12,0.343c0.385,0.121,0.783,0.246,1.191,0.377c0.409,0.13,0.831,0.265,1.264,0.404
							c0.436,0.138,0.881,0.281,1.338,0.429c-0.115,0.146-0.209,0.295-0.283,0.446c-0.072,0.151-0.122,0.303-0.146,0.451
							c-0.024,0.148-0.022,0.294,0.011,0.433c0.03,0.14,0.092,0.272,0.183,0.395c0.25,0.334,0.361,0.782,0.372,1.277
							c0.011,0.494-0.08,1.036-0.23,1.557c-0.15,0.522-0.361,1.022-0.592,1.434c-0.232,0.411-0.484,0.733-0.718,0.899
							c-0.23,0.165-0.696,0.998-1.28,2.176c-0.586,1.179-1.29,2.7-1.999,4.241c-0.711,1.544-1.425,3.105-2.024,4.355
							c-0.601,1.251-1.088,2.191-1.342,2.488c-0.259,0.296-0.404,0.536-0.487,0.749c-0.083,0.215-0.098,0.401-0.098,0.592
							c0.002,0.19,0.021,0.383,0.013,0.606c-0.009,0.225-0.045,0.479-0.156,0.795c-0.113,0.315-0.581,0.584-1.221,0.812
							c-0.639,0.227-1.45,0.411-2.246,0.556c-0.798,0.146-1.581,0.251-2.164,0.32c-0.584,0.069-0.97,0.103-0.97,0.103
							s-0.452,0.03-1.183,0.075c-0.733,0.046-1.742,0.105-2.857,0.166c-1.116,0.062-2.336,0.121-3.484,0.168
							c-1.15,0.045-2.23,0.076-3.068,0.077c-0.104,0-0.207,0-0.303-0.001c-0.096,0-0.188-0.003-0.275-0.004
							c-0.09-0.002-0.172-0.004-0.25-0.008c-0.081-0.002-0.154-0.006-0.223-0.01c-0.506-0.029-1.013-0.088-1.537-0.157
							s-1.065-0.152-1.633-0.229c-0.57-0.078-1.168-0.152-1.81-0.206c-0.64-0.055-1.322-0.09-2.062-0.089
							c-0.163,0-0.331,0.003-0.5,0.007c-0.172,0.003-0.344,0.009-0.52,0.018c-0.177,0.008-0.357,0.019-0.54,0.03
							c-0.183,0.013-0.367,0.027-0.557,0.045c-1.062,0.225-1.688,0.473-2.031,0.718c-0.341,0.244-0.4,0.486-0.326,0.701
							c0.074,0.214,0.28,0.399,0.47,0.532s0.359,0.212,0.359,0.212s0.041,0.002,0.115,0.004c0.073,0.001,0.182,0.003,0.317,0.005
							c0.137,0.003,0.298,0.005,0.48,0.006c0.185,0.002,0.387,0.002,0.603,0.002c0.217,0,0.447-0.002,0.685-0.005
							c0.235-0.004,0.479-0.008,0.722-0.016c0.244-0.008,0.485-0.018,0.723-0.029c0.236-0.013,0.465-0.028,0.681-0.048
							c0.278-0.024,0.521-0.053,0.737-0.082c0.215-0.028,0.402-0.058,0.565-0.083c0.165-0.026,0.307-0.049,0.431-0.065
							c0.123-0.018,0.232-0.027,0.328-0.027c0.052,0,0.102,0.003,0.15,0.01c0.047,0.007,0.091,0.017,0.135,0.03
							c0.043,0.015,0.084,0.033,0.128,0.056c0.041,0.022,0.083,0.051,0.124,0.084c0.108,0.087,0.379,0.21,0.752,0.346
							c0.375,0.135,0.851,0.283,1.375,0.421c0.521,0.137,1.092,0.263,1.65,0.354s1.104,0.148,1.586,0.148c0.032,0,0.066,0,0.1-0.001
							c0.035-0.001,0.067-0.002,0.1-0.003c0.033-0.001,0.065-0.002,0.096-0.005c0.033-0.002,0.063-0.004,0.094-0.006
							c0.465-0.038,1.157-0.072,1.932-0.102c0.773-0.029,1.635-0.053,2.436-0.074c0.8-0.02,1.544-0.034,2.088-0.044
							c0.543-0.011,0.885-0.016,0.885-0.016s-0.2,0.075-0.526,0.197c-0.326,0.121-0.778,0.29-1.283,0.477
							c-0.507,0.188-1.063,0.395-1.601,0.592s-1.053,0.384-1.473,0.535c-0.307,0.108-0.574,0.239-0.802,0.377
							c-0.23,0.139-0.425,0.286-0.585,0.431c-0.163,0.145-0.294,0.288-0.398,0.419s-0.181,0.248-0.236,0.342
							c-0.148-0.003-0.292-0.005-0.432-0.006c-0.139-0.002-0.273-0.003-0.404-0.004c-0.128-0.002-0.254-0.003-0.374-0.004
							c-0.117,0-0.232,0-0.339,0c-0.148,0-0.283,0.001-0.404,0.002c-0.124,0.003-0.235,0.005-0.331,0.009
							c-0.098,0.004-0.183,0.008-0.252,0.014c-0.069,0.005-0.124,0.012-0.165,0.02c-0.259,0.05-0.803,0.153-1.505,0.28
							c-0.703,0.127-1.562,0.278-2.453,0.423c-0.892,0.146-1.813,0.284-2.641,0.388c-0.824,0.102-1.555,0.168-2.06,0.169
							c-0.509,0.001-1.135,0.088-1.807,0.226c-0.672,0.137-1.39,0.321-2.072,0.52c-0.684,0.197-1.334,0.405-1.873,0.589
							s-0.97,0.341-1.213,0.436c-0.181,0.069-0.253,0.2-0.23,0.357c0.023,0.158,0.143,0.342,0.346,0.518
							c0.204,0.175,0.491,0.342,0.85,0.465c0.359,0.122,0.792,0.201,1.283,0.199c0.177,0,0.363-0.011,0.557-0.033
							c0.191-0.022,0.392-0.058,0.601-0.105c0.206-0.049,0.42-0.111,0.64-0.189c0.219-0.077,0.445-0.171,0.676-0.28
							c0.868-0.413,1.799-0.693,2.79-0.884c0.994-0.191,2.051-0.295,3.173-0.353c1.123-0.059,2.31-0.072,3.566-0.086
							c1.256-0.013,2.577-0.026,3.967-0.084c0.357,0.13,0.75,0.237,1.175,0.325c0.424,0.088,0.876,0.158,1.351,0.21
							c0.472,0.054,0.965,0.089,1.468,0.112c0.502,0.022,1.013,0.032,1.526,0.031c0.922-0.001,1.844-0.037,2.71-0.089
							c0.863-0.053,1.67-0.122,2.361-0.19c0.692-0.069,1.269-0.139,1.671-0.189c0.404-0.052,0.635-0.086,0.635-0.086
							s-0.183,0.171-0.479,0.434c-0.298,0.264-0.709,0.618-1.17,0.984s-0.971,0.745-1.464,1.055
							c-0.491,0.31-0.966,0.553-1.356,0.646c-0.39,0.094-1.416,0.415-2.752,0.85c-1.337,0.435-2.983,0.982-4.619,1.531
							c-1.635,0.548-3.257,1.097-4.54,1.533c-1.285,0.436-2.231,0.758-2.51,0.853c-0.282,0.095-0.798,0.238-1.394,0.415
							c-0.599,0.179-1.279,0.392-1.895,0.629s-1.166,0.498-1.5,0.769c-0.336,0.271-0.457,0.555-0.216,0.837
							c0.059,0.069,0.152,0.129,0.276,0.179s0.278,0.09,0.457,0.122c0.18,0.032,0.385,0.055,0.613,0.07
							c0.228,0.016,0.478,0.021,0.748,0.021c0.83-0.002,1.84-0.075,2.909-0.202c1.07-0.127,2.2-0.308,3.279-0.522
							c1.079-0.217,2.105-0.468,2.964-0.737c0.857-0.269,1.551-0.555,1.96-0.84c0.987-0.153,1.913-0.364,2.774-0.608
							s1.657-0.521,2.389-0.802c0.73-0.281,1.394-0.568,1.989-0.834c0.594-0.267,1.118-0.511,1.572-0.709
							c0.059,0.01,0.12,0.018,0.179,0.025c0.061,0.006,0.119,0.012,0.18,0.016c0.06,0.005,0.118,0.009,0.177,0.011
							s0.117,0.003,0.176,0.003c0.514-0.001,1.003-0.085,1.448-0.211c0.446-0.126,0.849-0.294,1.186-0.461
							c0.337-0.168,0.611-0.335,0.798-0.462c0.189-0.125,0.294-0.208,0.294-0.208s0.195-0.138,0.511-0.359s0.751-0.53,1.233-0.873
							c0.48-0.344,1.009-0.722,1.507-1.085c0.498-0.362,0.968-0.71,1.335-0.993c0.257-0.194,0.49-0.355,0.703-0.485
							c0.215-0.131,0.411-0.231,0.598-0.31c0.188-0.077,0.363-0.129,0.537-0.161c0.174-0.034,0.346-0.048,0.524-0.048
							c0.078,0,0.156,0.002,0.237,0.007c0.082,0.005,0.163,0.013,0.248,0.021c0.084,0.008,0.172,0.02,0.261,0.031
							c0.091,0.012,0.183,0.024,0.278,0.04c0.374,0.131,0.83,0.696,1.363,1.521c0.535,0.826,1.144,1.91,1.826,3.079
							c0.682,1.168,1.436,2.42,2.254,3.578c0.817,1.159,1.7,2.224,2.64,3.015c0.349,0.22,0.672,0.404,0.977,0.558
							c0.305,0.154,0.587,0.276,0.853,0.372c0.263,0.095,0.507,0.162,0.732,0.205c0.227,0.044,0.434,0.063,0.622,0.063
							c0.459-0.001,0.815-0.121,1.083-0.306c0.27-0.185,0.45-0.436,0.559-0.698c0.109-0.262,0.146-0.537,0.129-0.772
							c-0.02-0.233-0.094-0.427-0.207-0.527c-0.16-0.141-0.371-0.32-0.61-0.538c-0.237-0.217-0.505-0.473-0.776-0.77
							c-0.274-0.296-0.553-0.632-0.816-1.009c-0.263-0.379-0.513-0.797-0.724-1.259c-0.055-0.506-0.298-1.164-0.654-1.88
							c-0.354-0.716-0.822-1.49-1.325-2.233c-0.502-0.741-1.037-1.45-1.533-2.037c-0.493-0.588-0.947-1.051-1.282-1.302
							c-0.317-0.239-0.462-0.498-0.479-0.752c-0.016-0.252,0.096-0.5,0.291-0.717c0.196-0.219,0.477-0.407,0.794-0.541
							c0.319-0.134,0.676-0.212,1.026-0.213c0.02,0,0.039,0,0.059,0.001c0.02,0,0.037,0,0.057,0.001s0.039,0.002,0.057,0.005
							c0.02,0.001,0.039,0.003,0.059,0.004c0.363,0.037,0.938,0.188,1.627,0.425c0.687,0.237,1.489,0.562,2.303,0.943
							c0.815,0.383,1.642,0.823,2.386,1.294c0.742,0.471,1.398,0.973,1.868,1.477c0.191,0.204,0.39,0.374,0.589,0.515
							c0.2,0.14,0.402,0.251,0.605,0.336c0.204,0.084,0.406,0.145,0.608,0.182c0.2,0.039,0.396,0.055,0.589,0.055
							c0.281-0.001,0.551-0.038,0.799-0.099c0.246-0.061,0.472-0.145,0.665-0.238c0.196-0.094,0.359-0.196,0.48-0.297
							c0.124-0.099,0.207-0.194,0.239-0.272c0.448-0.516,0.313-1.046-0.158-1.557c-0.47-0.51-1.277-1-2.168-1.433
							c-0.893-0.434-1.871-0.811-2.687-1.095c-0.815-0.285-1.47-0.479-1.711-0.543c-0.244-0.064-0.642-0.191-1.116-0.356
							c-0.474-0.165-1.02-0.366-1.557-0.58c-0.537-0.212-1.063-0.436-1.496-0.643s-0.77-0.398-0.931-0.548
							c-0.407-0.646-0.333-1.422,0.013-2.248c0.346-0.827,0.963-1.704,1.652-2.554c0.688-0.848,1.442-1.668,2.063-2.38
							c0.619-0.712,1.104-1.318,1.252-1.737c0.144-0.418,0.485-0.996,0.975-1.665c0.487-0.667,1.12-1.424,1.846-2.199
							c0.727-0.773,1.547-1.566,2.408-2.306c0.858-0.74,1.762-1.428,2.652-1.992c0.574-0.413,1.06-0.818,1.467-1.217
							c0.406-0.397,0.732-0.787,0.986-1.167c0.257-0.379,0.444-0.75,0.57-1.109c0.128-0.36,0.193-0.709,0.211-1.048
							c3.549,0.859,7.2,1.665,10.954,2.413c3.758,0.748,7.62,1.438,11.589,2.066c3.971,0.628,8.049,1.193,12.234,1.691
							c4.187,0.497,8.481,0.928,12.888,1.285c1.172,0.84,2.396,1.686,3.69,2.507c1.294,0.82,2.657,1.615,4.107,2.351
							c1.451,0.734,2.988,1.409,4.631,1.988c1.642,0.581,3.386,1.067,5.252,1.425c1.365,0.908,9.088,6.731,21.947,15.317
							c12.941,8.643,31.143,20.12,53.354,32.23c22.412,12.22,48.92,25.092,78.133,36.291c29.44,11.288,61.541,20.845,94.692,26.249
							c1.498,0.29,3.456,0.596,5.708,0.891c2.256,0.294,4.811,0.578,7.503,0.824c2.694,0.246,5.528,0.455,8.345,0.599
							c2.816,0.146,5.613,0.227,8.233,0.215c4.388-0.016,8.278-0.286,10.925-0.937c2.645-0.649,4.045-1.677,3.459-3.206
							c-0.586-1.527-3.152-3.553-8.436-6.202c-5.276-2.643-13.256-5.902-24.662-9.898c-1.261-0.543-2.957-1.304-5.039-2.259
							c-2.08-0.955-4.545-2.104-7.344-3.428c-2.799-1.322-5.93-2.817-9.346-4.466c-3.412-1.646-7.107-3.444-11.039-5.373
							c6.324,1.985,13.881,4.011,21.881,5.934c8.01,1.924,16.461,3.745,24.562,5.316c8.107,1.574,15.858,2.896,22.454,3.823
							c6.598,0.928,12.037,1.458,15.516,1.446c0.395,0.009,0.781,0.017,1.164,0.023c0.381,0.006,0.757,0.012,1.125,0.016
							c0.369,0.004,0.732,0.007,1.089,0.008c0.356,0.002,0.706,0.002,1.05,0c9.206-0.031,14.132-0.957,16.25-2.355
							c2.113-1.396,1.422-3.265-0.603-5.185c-2.022-1.915-5.376-3.884-8.597-5.485c-3.219-1.6-6.307-2.837-7.812-3.296
							c-3.687-1.046-7.335-2.307-10.891-3.688c-3.552-1.378-7.007-2.877-10.308-4.396c-3.297-1.521-6.441-3.062-9.373-4.531
							c-2.93-1.468-5.648-2.863-8.102-4.093c1.49-0.479,1.414-1.498,0.315-2.805c-1.096-1.305-3.21-2.895-5.796-4.517
							c-2.583-1.62-5.641-3.272-8.629-4.706c-2.985-1.432-5.904-2.646-8.218-3.391c-2.31-0.744-5.458-2.212-8.882-3.993
							c-3.418-1.779-7.106-3.87-10.504-5.864c-3.391-1.992-6.488-3.889-8.74-5.287c-2.246-1.396-3.648-2.295-3.648-2.295
							s0.789-0.393,1.948-1.052c1.155-0.659,2.679-1.583,4.146-2.645c1.465-1.059,2.875-2.257,3.81-3.464
							c0.933-1.207,1.39-2.424,0.952-3.524c-1.27-0.914-5.482-3.125-11.201-5.983c-5.709-2.854-12.909-6.352-20.184-9.851
							c-7.255-3.49-14.582-6.982-20.574-9.846c-5.98-2.855-10.642-5.089-12.592-6.07c-2.465-0.98-6.402-2.932-10.92-5.306
							c-4.508-2.369-9.588-5.158-14.354-7.821c-4.759-2.657-9.204-5.189-12.459-7.059c-3.253-1.866-5.323-3.072-5.341-3.083
							c-1.604-1.427-3.932-3.238-6.518-5.15c-2.582-1.91-5.422-3.919-8.06-5.749c-2.632-1.827-5.063-3.476-6.835-4.666
							c-1.771-1.189-2.884-1.924-2.884-1.924s-3.542-3.032-9.841-7.995c-6.27-4.944-15.253-11.788-26.154-19.439
							c-10.837-7.604-23.557-15.996-37.4-24.117c-13.758-8.07-28.633-15.877-43.921-22.401c0,0-0.574-0.324-1.509-0.845
							c-0.936-0.521-2.231-1.238-3.674-2.023c-1.441-0.783-3.031-1.636-4.556-2.43c-1.522-0.793-2.979-1.526-4.16-2.074
							c0.03-0.02,0.063-0.039,0.096-0.057c0.032-0.019,0.065-0.038,0.098-0.057s0.065-0.038,0.096-0.057
							c0.032-0.019,0.065-0.038,0.099-0.057c0,0-0.274-0.377-0.696-1.025s-0.991-1.563-1.581-2.642
							c-0.592-1.075-1.203-2.313-1.709-3.601c-0.508-1.287-0.912-2.626-1.086-3.91c-0.174-1.282-0.896-3.948-2.766-7.331
							c-1.863-3.373-4.867-7.455-9.608-11.585c-4.726-4.115-11.173-8.28-19.948-11.848c-8.749-3.558-19.822-6.526-33.836-8.27
							c-0.512-0.08-1.037-0.159-1.579-0.239c-0.544-0.079-1.101-0.157-1.672-0.234c-0.572-0.077-1.157-0.154-1.76-0.229
							c-0.601-0.075-1.216-0.149-1.844-0.223c0.054-0.098,0.115-0.192,0.183-0.284c0.069-0.091,0.146-0.18,0.23-0.262
							c0.085-0.084,0.178-0.163,0.282-0.238c0.103-0.075,0.216-0.145,0.34-0.21c1.224-0.649,2.531-1.514,3.823-2.472
							c1.289-0.958,2.563-2.009,3.727-3.037c1.162-1.026,2.212-2.028,3.054-2.89c0.842-0.86,1.475-1.579,1.803-2.038
							c0.587-0.578,1.018-1.066,1.31-1.476c0.291-0.407,0.445-0.736,0.479-0.991c0.032-0.256-0.057-0.439-0.248-0.561
							c-0.191-0.119-0.487-0.176-0.87-0.177c-1.092-0.004-2.89,0.444-4.997,1.149c-2.112,0.706-4.532,1.671-6.863,2.701
							c-2.336,1.03-4.582,2.126-6.34,3.093c-1.759,0.968-3.025,1.807-3.396,2.319c-0.278,0.38-0.609,0.699-0.973,0.966
							c-0.363,0.268-0.756,0.48-1.156,0.646c-0.4,0.167-0.807,0.285-1.196,0.361c-0.388,0.077-0.757,0.112-1.083,0.111
							c-0.27,0-0.512-0.026-0.709-0.072c-0.198-0.047-0.35-0.115-0.445-0.2c-0.099-0.086-0.136-0.189-0.103-0.308
							c0.032-0.117,0.137-0.25,0.326-0.394c4.093-5.616,7.235-10.199,9.604-13.917c2.359-3.704,3.953-6.555,4.947-8.708
							c0.991-2.151,1.39-3.61,1.353-4.532c-0.035-0.923-0.502-1.309-1.239-1.312c-0.585-0.002-1.342,0.238-2.188,0.645
							c-0.846,0.407-1.783,0.98-2.729,1.646c-0.948,0.666-1.905,1.426-2.791,2.199c-0.887,0.775-1.7,1.568-2.363,2.3
							c-0.415,0.962-0.833,1.755-1.242,2.405c-0.41,0.65-0.811,1.157-1.191,1.544c-0.383,0.387-0.746,0.653-1.078,0.821
							c-0.336,0.17-0.642,0.242-0.909,0.241c-0.253-0.001-0.472-0.067-0.648-0.178c-0.179-0.111-0.313-0.268-0.396-0.449
							c-0.085-0.183-0.12-0.39-0.096-0.602c0.023-0.212,0.106-0.429,0.256-0.631c0.572-2.109,0.981-3.854,1.249-5.284
							c0.27-1.429,0.397-2.546,0.411-3.399c0.013-0.853-0.087-1.443-0.278-1.822C214.128,265.505,213.848,265.34,213.499,265.338"/>
					</g>
				</g>
			</g>
		</g>
		<g>
			<path id="patted_31_" fill="#232326" d="M257.204,434.729c0,0,1.542,3.736-4.479,15.079c-2.942,8.966-5.606,15.408-5.465,18.63
				c0.139,3.222,0.98,6.021,0.7,8.683c-0.28,2.662-5.881,6.443-5.881,6.443s-2.384,3.362-6.302,1.682
				c-2.382,2.659-4.484,4.621-4.484,4.621l-3.782,1.681l-5.038-0.7l-1.262-0.28c0,0,0.557-2.241,2.24-3.361
				c1.679-1.12,4.901-3.361,4.901-3.361s-5.321,0.14-7.142,0.42c-1.822,0.278-5.041-1.681-5.463-2.382
				c-0.42-0.699-0.842-0.141-2.521,0.141c-1.683,0.28-4.204,0.141-4.204,0.141s-2.52-2.381,1.68-4.063
				c4.063-0.7,6.443,0.841,8.824,1.121c2.384,0.279,11.348-0.84,11.348-0.84s6.02-0.981,6.581-3.362
				c0.561-2.382-0.14-2.94,0.979-5.182c1.122-2.241,6.865-23.951,7.847-25.21c0.979-1.263,2.52-7.331,1.679-9.899
				c-0.842-2.566,2.101-7.47,4.901-5.648C255.662,430.9,257.102,432.104,257.204,434.729z"/>
			<path id="patteg_32_" fill="#343338" d="M266.168,433.608c0,0,8.403,8.403,0,19.233c-3.733,4.297-7.842,12.326-8.59,15.5
				c-0.746,3.176-7.098,11.953-5.789,16.81c0.559,1.12,3.804,3.525,4.717,4.015c0.909,0.49,7.979,4.831,6.02,8.684
				c-0.275,0.98-2.797,3.432-4.412-0.351c-1.607-3.781-6.092-7.493-7.49-7.773c-1.402-0.279-3.225,2.241-2.033,4.132
				c1.192,1.891,3.854,10.155,3.854,13.936c0.629,3.433,1.891,5.604,2.451,6.653c0.562,1.051-0.422,7.633-4.69,2.031
				c-3.293-5.883-5.257-19.888-6.655-20.87c-1.191-0.35-1.822-0.419-3.361,1.682c-1.542,2.102-4.761,6.164-4.761,6.164
				s-2.17,3.081-4.415,2.38c-1.817,1.47-4.83,4.343-8.684,5.462c-2.239,2.801-12.045,5.603-12.885,3.503
				c-0.839-2.102,3.921-4.203,5.043-4.903c1.118-0.701,12.813-8.124,14.355-8.824c1.54-0.7,4.621-5.813,4.621-5.813
				s-8.753,2.451-12.463-0.279c-5.396,0.42-9.662-0.489-13.168,2.59c-3.499,3.082-5.461-1.05-4.479-1.75
				c0.98-0.7,4.923-3.291,6.887-3.291c1.96,0,7.468-1.962,8.495-2.335c1.025-0.372,12.326,0.748,14.475-0.467
				c2.145-1.212,6.348-0.186,9.99-8.03c3.643-7.842,11.484-27.264,11.484-28.664c0-1.402,2.662-5.603,0.842-10.505
				c-0.561-1.541-4.063-6.302-3.784-8.124c0.28-1.821,4.621-4.763,9.105-4.483C265.326,430.201,265.508,432.837,266.168,433.608z"/>
			<path id="corps_29_" fill="#536B1D" d="M174.007,237.19c0,0-5.504,42.188,0,65.114c1.833,8.256,11.463,42.189,19.718,61.448
				c8.253,19.261,32.101,53.652,49.983,64.657c11.922,7.336,36.226,27.052,94.003,33.472c60.07,3.44,125.069-38.517,125.356-56.114
				c-0.63-6.477-22.639-39.266-22.639-39.266s-47.806-96.523-106.845-151.319c0,0-9.35-11.733-13.758-16.05
				C313.866,196.381,217.568,163.82,174.007,237.19z"/>
			<path id="queue_31_" fill="#3A3633" d="M461.36,401.01c0,0,29.106,37.659,38.048,45.226c6.879,7.565,52.361,53.564,56.488,60.443
				c0.688,8.254-13.026,19.903-13.026,19.903s18.594,26.805,26.847,32.307c8.256,5.503,24.085,24.752,17.896,28.19
				c8.253,8.942,19.953,22.693,33.021,30.26c5.504,3.439,33.708,30.949-7.563,28.886c-16.508,0-76.003-24.075-89.073-39.895
				c-15.818-14.444-130.799-141.695-136.887-185.546c0-6.191,36.122-7.049,45.064-10.488
				C441.113,406.856,461.36,401.01,461.36,401.01z"/>
			<path id="tete_14_" fill="#536B1D" d="M320.744,199.131c0,0-3.668-12.838-3.668-23.844s-5.961-69.701-64.197-84.832
				c-12.381-4.128-33.476-7.338-63.281-5.961c-10.089-0.459-26.597,1.188-33.935-0.324c-2.751,6.285-4.125,26.919-4.125,26.919
				s23.384,20.177,23.843,80.248c5.502,12.839,39.897,52.733,76.121,44.479C287.729,227.563,302.859,219.308,320.744,199.131z"/>
			<path id="hupette" fill="#3A3633" d="M150.188,85.701c0,0,22.951-3.547,30.629-25.155c2.235-3.777,5.212-11.312,5.212-11.312
				s4.8-12.619,8.949,3.508c0.851,3.907,5.021,11.498,5.021,11.498s3.925,2.537,3.758-2.498c-0.165-5.034-0.048-17.091,5.102,3.192
				c2.847-5.236,10.963-33.024,10.963-33.024s8.964-23.883,6.226-2.723c2.382-3.036,16.535-41.163,7.884,8.252
				c-1.485,3.785,1.716,9.805,5.991-7.181c7.103-15.081,28.132-41.38-7.213,48.787c-1.903,2.828,3.32,3.685,5.747-2.509
				c2.429-6.196,33.471-33.73,22.832-13.682c-1.618,4.13-8.87,17.565-14.322,23.369c-5.45,5.804,5.208,28.245-17.587,27.648
				C180.992,120.031,150.188,85.701,150.188,85.701z"/>
			<path id="cou_2_" fill="#3A3633" d="M152.912,108.337c0,0,55.946-43.402,124.393,14.292
				c21.527,25.238,23.715,82.617,22.339,98.666c-1.374,16.048-34.108,69.465-34.108,69.465
				c-17.885,18.798,73.446,160.879,50.06,167.76c-128.106-20.788-151.218-164.812-144.454-207.113
				c3.666-23.846,2.866-76.12-1.721-93.545c-1.833-16.967-6.878-33.018-18.8-44.481
				C152.912,108.337,152.912,108.337,152.912,108.337z"/>
			<path id="aile_34_" fill="#2B2622" d="M292.543,269.979c0,0-17.195-10.317-39.895,7.565c-8.942,6.878-26.825,36.455-6.189,80.477
				c6.189,13.069,19.946,38.519,28.199,45.396c4.128,8.942,10.319,32.329,17.885,41.271c4.127,4.815,13.758,10.318,19.946,8.941
				c4.815,7.567,10.319,17.196,19.259,20.636c4.815,6.879,97.672,162.328,218.045,200.847c14.443,5.502,77.725,14.443,14.443-30.953
				c-20.635-18.57-174.709-178.147-177.461-226.297c1.376-6.189,6.878-14.444,1.376-23.385c-5.502-8.942-4.815-9.631-9.63-17.884
				c6.879-3.439,10.317-7.223,5.158-18.916C376.114,344.952,348.945,303.682,292.543,269.979z"/>
			<path id="bec_35_" fill="#4A4A4F" d="M185.702,108.568c-12.119-8.138-21.788-13.072-24.539-16.741s-3.912-7.396-3.912-7.396
				s-43.005-37.987-87.047-35.289c0.923,2.299,26.354,26.353,65.972,47.506c9.373,9.28,12.287,13.812,14.444,16.732
				C170.109,109.946,195.643,115.244,185.702,108.568z"/>
			<path id="contour_oeil_8_" fill="#4A4A4F" d="M225.819,127.135c0,0,20.177-21.552,36.685-1.834
				c1.666,6.423-12.092,36.517-32.558,16.051C227.234,137.523,226.883,136.119,225.819,127.135z"/>
			<radialGradient id="yeux_3_" cx="237.8604" cy="125.8779" r="20.9109" gradientUnits="userSpaceOnUse">
				<stop  offset="0" style="stop-color:#FFFFFF"/>
				<stop  offset="0.1386" style="stop-color:#D5D4D3"/>
				<stop  offset="0.2079" style="stop-color:#494340"/>
				<stop  offset="0.3663" style="stop-color:#28201D"/>
				<stop  offset="1" style="stop-color:#231B18"/>
			</radialGradient>
			<path id="yeux_2_" fill="url(#yeux_3_)" d="M254.391,137.676c-2.712,5.722-10.104,7.898-16.513,4.863s-9.408-10.135-6.696-15.856
				c2.712-5.723,10.104-7.898,16.511-4.863C254.104,124.855,257.1,131.954,254.391,137.676z"/>
			<path id="aile_36_" fill="#4A5B1A" d="M291.43,268.864c0,0-17.195-10.316-39.895,7.566c-8.942,6.878-26.825,36.455-6.189,80.477
				c4.61,9.925,2.268,6.597,8.638,16.788c52.644-0.541,74.912-11.676,97.106-57.61C339.588,303.407,319.988,285.192,291.43,268.864z
				"/>
		</g>
	</g>
</g>
<g id="cécerelle_d_x27_amerique">
</g>
<g id="heron_vert">
</g>
<g id="pic_de_la_guadeloupe">
</g>
<g id="héron_garde-boeufs">
</g>
</svg>
