<?xml version="1.0" encoding="utf-8"?>
<!-- Generator: Adobe Illustrator 16.0.0, SVG Export Plug-In . SVG Version: 6.00 Build 0)  -->
<!DOCTYPE svg PUBLIC "-//W3C//DTD SVG 1.1//EN" "http://www.w3.org/Graphics/SVG/1.1/DTD/svg11.dtd">
<svg version="1.1" xmlns="http://www.w3.org/2000/svg" xmlns:xlink="http://www.w3.org/1999/xlink" x="0px" y="0px" width="732px"
	 height="692px" viewBox="0 0 732 692" enable-background="new 0 0 732 692" xml:space="preserve">
<g id="Calque_1" display="none">
</g>
<g id="colombe_à_croissant">
</g>
<g id="colombe_rouviolette">
</g>
<g id="colibri_madere">
</g>
<g id="colibri_à_tête_bleue">
</g>
<g id="elenie_siffleuse">
</g>
<g id="grive_à_pieds_jaunes">
</g>
<g id="merle_à_lunette">
</g>
<g id="moucherolle_gobemouche">
</g>
<g id="moqueur_corossol">
</g>
<g id="moqueur_grivotte">
</g>
<g id="trembleur_brun">
</g>
<g id="trembleur_gris">
</g>
<g id="paruline_cafeite">
</g>
<g id="saltator_gros_bec">
</g>
<g id="soporophile_rouge-gorge">
</g>
<g id="sucrier_à_ventre_jaune">
</g>
<g id="vachet_luisant">
</g>
<g id="vireo_a_moustaches">
</g>
<g id="merle_quiscale">
</g>
<g id="paruline_jaune">
</g>
<g id="tyran_gris">
</g>
<g id="sporophile_cici">
</g>
<g id="tourterelle_à_queue_carree">
</g>
<g id="colobri_huppé">
</g>
<g id="cécerelle_d_x27_amerique">
</g>
<g id="heron_vert">
</g>
<g id="pic_de_la_guadeloupe">
</g>
<g id="héron_garde-boeufs">
</g>
<g id="photos">
</g>
<g id="solitaire_siffleur">
</g>
<g id="tyran_janeau">
</g>
<g id="colibri_fallevert">
	<g>
		<g opacity="0.3">
			<g>
				<g enable-background="new    ">
					<defs>
						<polygon id="SVGID_73_" enable-background="new    " points="12.276,593.942 13.387,251.531 617.663,253.779 719.724,590.854 
													"/>
					</defs>
					<clipPath id="SVGID_2_">
						<use xlink:href="#SVGID_73_"  overflow="visible"/>
					</clipPath>
					<g clip-path="url(#SVGID_2_)">
						<path fill="#959595" d="M245.68,472.77c0.73-0.001,1.376-0.08,1.934-0.196c0.558-0.117,1.028-0.272,1.407-0.428
							s0.667-0.31,0.86-0.426s0.291-0.194,0.291-0.194s0.006-0.002,0.017-0.006s0.027-0.01,0.047-0.018s0.046-0.018,0.076-0.028
							c0.03-0.012,0.063-0.024,0.102-0.039c-0.86,0.857-1.768,1.474-2.678,1.927s-1.824,0.741-2.696,0.942
							c-0.873,0.202-1.704,0.315-2.451,0.42c-0.747,0.104-1.409,0.198-1.943,0.36c-0.135,0.041-0.307,0.077-0.509,0.109
							c-0.203,0.033-0.437,0.062-0.697,0.086c-0.26,0.025-0.548,0.046-0.857,0.063s-0.642,0.032-0.991,0.044l0.926-0.218
							c0,0,0.139-0.071,0.387-0.202c0.248-0.13,0.604-0.319,1.039-0.558c0.435-0.237,0.948-0.522,1.508-0.845
							c0.561-0.321,1.168-0.68,1.792-1.063c0.224,0.049,0.442,0.09,0.655,0.123c0.213,0.034,0.421,0.062,0.625,0.083
							c0.204,0.021,0.401,0.037,0.594,0.047C245.31,472.766,245.498,472.77,245.68,472.77 M255.553,464.677
							c-0.055-0.145-0.109-0.291-0.161-0.438c-0.052-0.147-0.102-0.297-0.149-0.447s-0.09-0.303-0.13-0.456
							c-0.04-0.153-0.076-0.309-0.106-0.465c-0.088-0.459,0.005-1.032,0.237-1.714c0.232-0.68,0.603-1.469,1.068-2.359
							c0.465-0.889,1.025-1.879,1.638-2.965c0.611-1.083,1.274-2.261,1.946-3.526c0.338-0.364,0.65-0.714,0.937-1.049
							c0.287-0.335,0.549-0.656,0.79-0.965c0.24-0.308,0.459-0.603,0.658-0.886c0.199-0.281,0.379-0.552,0.543-0.811
							c0.439,0.646,0.619,1.268,0.643,1.848c0.024,0.581-0.108,1.12-0.293,1.603c-0.185,0.481-0.422,0.907-0.607,1.259
							c-0.186,0.351-0.32,0.629-0.299,0.816c0.015,0.135-0.188,0.564-0.554,1.207c-0.365,0.644-0.893,1.501-1.526,2.489
							c-0.634,0.989-1.375,2.11-2.166,3.281C257.229,462.27,256.387,463.49,255.553,464.677 M50.551,251.67
							c-3.47-0.014-6.889,0.054-10.224,0.214c-3.336,0.161-6.59,0.415-9.729,0.776c-3.14,0.361-6.167,0.829-9.047,1.418
							c-2.883,0.59-5.62,1.301-8.18,2.146c0.233,0.271,5.022,0.512,12.589,0.899c7.567,0.389,17.914,0.924,29.269,1.786
							c11.359,0.862,23.733,2.053,35.362,3.751c11.642,1.7,22.55,3.912,30.963,6.818c0.828,1.363,1.972,2.348,3.278,3.106
							c1.306,0.76,2.772,1.293,4.243,1.755c1.471,0.463,2.946,0.854,4.269,1.327s2.494,1.031,3.358,1.827
							c0.184-0.014,0.367-0.028,0.551-0.042s0.369-0.027,0.554-0.04c0.185-0.014,0.37-0.026,0.557-0.039
							c0.186-0.012,0.374-0.023,0.562-0.035c2.032,1.445,6.157,4.495,10.834,8.62c4.696,4.141,9.959,9.372,14.228,15.159
							c4.292,5.818,7.584,12.205,8.279,18.606c0.699,6.442-1.231,12.903-7.419,18.81c0,0-0.115,0.575-0.277,1.588
							c-0.163,1.014-0.375,2.469-0.568,4.227c-0.194,1.762-0.37,3.829-0.461,6.066c-0.091,2.241-0.097,4.654,0.05,7.1
							c0.061,5.092,1.194,9.771,2.866,13.931c1.678,4.177,3.897,7.823,6.113,10.833c2.222,3.018,4.438,5.391,6.101,7.01
							c1.665,1.622,2.771,2.486,2.771,2.486c0.025,0.009,0.05,0.018,0.076,0.025s0.051,0.016,0.076,0.023
							c0.025,0.008,0.05,0.016,0.076,0.023s0.051,0.016,0.076,0.025c0.845,1.142,1.707,2.283,2.577,3.41
							c0.871,1.127,1.75,2.24,2.63,3.322c0.881,1.084,1.762,2.137,2.635,3.146c0.874,1.01,1.74,1.975,2.59,2.88
							c2.421,2.578,5.939,5.672,10.168,8.959c4.242,3.297,9.201,6.79,14.487,10.152c5.302,3.373,10.931,6.614,16.491,9.393
							c5.573,2.784,11.07,5.102,16.086,6.615c0.382,0.116,0.777,0.237,1.184,0.363c0.407,0.127,0.826,0.259,1.257,0.396
							s0.876,0.278,1.333,0.425s0.927,0.297,1.41,0.452c-0.238,0.185-0.445,0.386-0.613,0.595c-0.168,0.209-0.297,0.428-0.379,0.645
							c-0.083,0.217-0.118,0.432-0.101,0.637c0.018,0.206,0.09,0.401,0.224,0.577c0.27,0.36,0.39,0.843,0.402,1.374
							c0.012,0.533-0.084,1.115-0.245,1.676s-0.388,1.098-0.637,1.54c-0.249,0.442-0.521,0.788-0.772,0.965
							c-0.25,0.179-0.751,1.076-1.381,2.344c-0.631,1.269-1.391,2.909-2.155,4.569c-0.766,1.662-1.536,3.345-2.184,4.693
							c-0.648,1.349-1.175,2.361-1.451,2.682c-0.276,0.318-0.434,0.578-0.521,0.81c-0.087,0.23-0.105,0.433-0.104,0.638
							s0.022,0.412,0.012,0.652c-0.01,0.242-0.051,0.517-0.174,0.857c-0.12,0.34-0.625,0.631-1.315,0.877
							c-0.691,0.245-1.567,0.444-2.428,0.601c-0.861,0.157-1.707,0.271-2.338,0.346c-0.631,0.075-1.047,0.11-1.047,0.11
							s-0.488,0.033-1.277,0.082c-0.789,0.048-1.879,0.113-3.083,0.178c-1.203,0.065-2.52,0.131-3.763,0.181
							c-1.242,0.05-2.411,0.083-3.317,0.084c-0.114,0-0.224,0-0.329-0.001s-0.206-0.002-0.302-0.004
							c-0.096-0.002-0.187-0.005-0.272-0.008c-0.086-0.004-0.167-0.008-0.241-0.012c-0.544-0.031-1.092-0.094-1.657-0.168
							c-0.564-0.075-1.146-0.164-1.759-0.248s-1.258-0.164-1.948-0.223s-1.427-0.096-2.224-0.095c-0.179,0-0.36,0.003-0.545,0.007
							s-0.373,0.011-0.564,0.02c-0.191,0.009-0.386,0.02-0.584,0.033s-0.4,0.029-0.605,0.049c-1.147,0.241-1.825,0.507-2.197,0.771
							s-0.437,0.524-0.359,0.755c0.079,0.23,0.3,0.432,0.503,0.574c0.202,0.143,0.385,0.229,0.385,0.229s0.045,0,0.128,0.002
							s0.204,0.005,0.354,0.007c0.151,0.003,0.331,0.005,0.534,0.007c0.203,0.002,0.428,0.002,0.667,0.002
							c0.232,0,0.479-0.002,0.731-0.006c0.253-0.003,0.513-0.008,0.771-0.016c0.259-0.008,0.518-0.018,0.769-0.031
							c0.251-0.013,0.495-0.029,0.724-0.049c0.3-0.026,0.563-0.057,0.795-0.088s0.435-0.063,0.612-0.091s0.33-0.053,0.464-0.071
							c0.135-0.018,0.251-0.028,0.355-0.028c0.057,0,0.111,0.003,0.162,0.01c0.051,0.007,0.1,0.019,0.146,0.033
							c0.047,0.016,0.092,0.035,0.137,0.06c0.044,0.025,0.088,0.055,0.133,0.091c0.119,0.094,0.413,0.227,0.818,0.373
							s0.923,0.307,1.49,0.455c0.567,0.149,1.185,0.286,1.789,0.385c0.605,0.1,1.197,0.161,1.715,0.161c0.036,0,0.072,0,0.107-0.002
							c0.035,0,0.07-0.001,0.104-0.002c0.034-0.002,0.068-0.004,0.102-0.006c0.034-0.002,0.067-0.004,0.1-0.007
							c0.502-0.041,1.249-0.078,2.088-0.109c0.838-0.032,1.768-0.059,2.635-0.08c0.867-0.022,1.671-0.038,2.258-0.05
							c0.587-0.011,0.958-0.017,0.958-0.017s-0.217,0.081-0.571,0.213s-0.845,0.313-1.392,0.517
							c-0.547,0.202-1.151,0.425-1.73,0.637c-0.58,0.213-1.136,0.415-1.587,0.576c-0.333,0.119-0.621,0.259-0.87,0.408
							c-0.249,0.149-0.458,0.309-0.634,0.465c-0.175,0.157-0.317,0.312-0.43,0.453c-0.112,0.141-0.196,0.268-0.256,0.37
							c-0.16-0.003-0.315-0.005-0.465-0.007c-0.15-0.001-0.295-0.003-0.435-0.004c-0.14-0.002-0.274-0.002-0.402-0.003
							c-0.128-0.001-0.251-0.001-0.367-0.001c-0.158,0-0.304,0.002-0.437,0.004c-0.133,0.002-0.253,0.004-0.358,0.008
							s-0.197,0.009-0.272,0.015s-0.136,0.013-0.179,0.021c-0.281,0.054-0.87,0.167-1.629,0.304c-0.76,0.139-1.69,0.302-2.654,0.459
							c-0.964,0.156-1.961,0.307-2.854,0.418c-0.894,0.11-1.682,0.183-2.229,0.184c-0.549,0.001-1.229,0.096-1.955,0.243
							c-0.727,0.147-1.501,0.349-2.241,0.562c-0.739,0.214-1.443,0.439-2.029,0.638s-1.054,0.368-1.32,0.47
							c-0.195,0.075-0.274,0.217-0.249,0.387c0.025,0.17,0.154,0.369,0.374,0.559c0.22,0.189,0.53,0.369,0.918,0.502
							c0.389,0.132,0.854,0.217,1.385,0.216c0.192,0,0.393-0.012,0.602-0.036s0.425-0.063,0.648-0.115s0.455-0.119,0.692-0.203
							c0.237-0.085,0.481-0.186,0.731-0.305c0.942-0.447,1.95-0.75,3.025-0.957c1.075-0.207,2.219-0.318,3.433-0.381
							c1.213-0.063,2.498-0.077,3.854-0.092c1.356-0.015,2.785-0.029,4.287-0.092c0.385,0.141,0.813,0.257,1.273,0.353
							c0.46,0.096,0.952,0.171,1.466,0.228c0.514,0.058,1.048,0.098,1.594,0.122s1.102,0.035,1.657,0.034
							c0.996-0.001,1.992-0.039,2.925-0.096s1.803-0.131,2.548-0.205s1.366-0.147,1.801-0.203c0.435-0.055,0.683-0.092,0.683-0.092
							s-0.196,0.185-0.518,0.469c-0.321,0.283-0.767,0.666-1.266,1.063c-0.499,0.396-1.051,0.805-1.583,1.141
							c-0.532,0.335-1.045,0.597-1.466,0.699c-0.421,0.102-1.529,0.449-2.974,0.918c-1.445,0.471-3.228,1.063-4.997,1.656
							c-1.77,0.594-3.526,1.188-4.917,1.659c-1.391,0.472-2.415,0.819-2.718,0.923c-0.306,0.102-0.863,0.256-1.51,0.448
							s-1.384,0.423-2.05,0.679c-0.666,0.257-1.261,0.539-1.623,0.834c-0.363,0.295-0.493,0.602-0.229,0.909
							c0.064,0.075,0.165,0.139,0.298,0.192s0.299,0.098,0.493,0.133c0.194,0.034,0.416,0.059,0.663,0.075
							c0.246,0.017,0.517,0.024,0.807,0.023c0.899-0.002,1.99-0.081,3.148-0.219s2.382-0.333,3.55-0.567
							c1.167-0.234,2.278-0.507,3.208-0.798c0.93-0.292,1.68-0.603,2.126-0.912c1.066-0.165,2.067-0.393,3-0.656
							s1.795-0.562,2.585-0.866s1.508-0.615,2.151-0.904c0.642-0.288,1.208-0.554,1.695-0.77c0.065,0.011,0.13,0.02,0.195,0.027
							c0.065,0.008,0.13,0.014,0.194,0.019c0.064,0.005,0.128,0.008,0.192,0.011c0.064,0.002,0.127,0.003,0.19,0.003
							c0.556-0.001,1.086-0.093,1.568-0.229s0.917-0.317,1.282-0.498s0.661-0.362,0.865-0.497c0.205-0.136,0.317-0.227,0.317-0.227
							s0.21-0.147,0.551-0.388c0.34-0.241,0.811-0.574,1.332-0.945c0.52-0.371,1.09-0.78,1.63-1.173
							c0.539-0.392,1.048-0.768,1.447-1.071c0.276-0.211,0.525-0.384,0.756-0.525s0.443-0.251,0.645-0.334
							c0.201-0.083,0.393-0.14,0.581-0.175c0.188-0.036,0.374-0.051,0.564-0.052c0.085,0,0.171,0.003,0.258,0.008
							c0.087,0.006,0.176,0.013,0.268,0.022s0.186,0.021,0.283,0.035c0.097,0.013,0.197,0.027,0.301,0.043
							c0.406,0.141,0.901,0.752,1.479,1.644c0.579,0.893,1.241,2.065,1.979,3.328c0.739,1.265,1.555,2.619,2.441,3.872
							c0.887,1.254,1.844,2.406,2.862,3.264c0.375,0.238,0.728,0.438,1.057,0.604c0.33,0.167,0.636,0.3,0.922,0.402
							s0.55,0.176,0.793,0.223c0.244,0.047,0.468,0.068,0.672,0.068c0.497-0.001,0.881-0.131,1.17-0.331s0.484-0.471,0.601-0.756
							c0.117-0.284,0.157-0.582,0.136-0.835c-0.021-0.254-0.101-0.463-0.224-0.571c-0.173-0.152-0.401-0.346-0.659-0.582
							c-0.258-0.235-0.547-0.513-0.843-0.834c-0.296-0.32-0.599-0.685-0.885-1.093c-0.286-0.408-0.556-0.86-0.786-1.358
							c-0.061-0.551-0.326-1.263-0.711-2.038c-0.385-0.774-0.892-1.612-1.435-2.415c-0.543-0.802-1.124-1.569-1.66-2.205
							c-0.535-0.635-1.024-1.137-1.387-1.41c-0.345-0.258-0.503-0.537-0.521-0.81c-0.019-0.272,0.101-0.54,0.312-0.774
							c0.21-0.235,0.512-0.438,0.856-0.582c0.344-0.145,0.73-0.229,1.11-0.23c0.021,0,0.042,0,0.063,0.001
							c0.021,0,0.042,0.001,0.063,0.002c0.021,0.001,0.042,0.003,0.063,0.004c0.021,0.001,0.042,0.003,0.063,0.005
							c0.394,0.041,1.017,0.204,1.762,0.461c0.745,0.256,1.611,0.605,2.492,1.018c0.881,0.413,1.777,0.889,2.581,1.397
							s1.514,1.052,2.024,1.597c0.208,0.221,0.421,0.404,0.638,0.557c0.217,0.151,0.437,0.271,0.657,0.362
							c0.22,0.092,0.439,0.156,0.656,0.197c0.216,0.041,0.43,0.06,0.637,0.059c0.305-0.001,0.596-0.041,0.863-0.106
							s0.511-0.156,0.721-0.258s0.386-0.213,0.52-0.32c0.133-0.108,0.222-0.212,0.258-0.297c0.482-0.558,0.332-1.131-0.18-1.683
							c-0.512-0.551-1.385-1.079-2.351-1.548c-0.965-0.467-2.023-0.873-2.905-1.181c-0.881-0.308-1.587-0.516-1.848-0.585
							c-0.263-0.07-0.696-0.21-1.208-0.389c-0.512-0.179-1.104-0.397-1.685-0.628c-0.58-0.229-1.149-0.472-1.616-0.695
							s-0.833-0.431-1.005-0.593c-0.44-0.695-0.363-1.533,0.01-2.425c0.373-0.892,1.041-1.838,1.782-2.753
							c0.741-0.915,1.557-1.799,2.226-2.568c0.668-0.768,1.191-1.421,1.347-1.874c0.154-0.451,0.522-1.075,1.048-1.796
							c0.525-0.721,1.207-1.537,1.989-2.372c0.782-0.835,1.664-1.688,2.59-2.485c0.925-0.797,1.895-1.537,2.853-2.145
							c0.767-0.549,1.386-1.086,1.876-1.609c0.49-0.522,0.853-1.031,1.109-1.524c0.255-0.493,0.404-0.97,0.465-1.428
							s0.037-0.897-0.054-1.315c3.018,0.722,6.266,1.447,9.766,2.165c3.501,0.717,7.255,1.425,11.28,2.11
							c4.027,0.686,8.326,1.349,12.918,1.975c4.594,0.627,9.479,1.217,14.678,1.756c1.429,1.041,2.919,2.131,4.5,3.21
							c1.583,1.079,3.257,2.147,5.054,3.144c1.798,0.996,3.719,1.921,5.793,2.711c2.075,0.791,4.303,1.447,6.713,1.908
							c1.495,0.989,9.981,7.35,24.12,16.739c14.252,9.465,34.32,22.056,58.832,35.366c24.781,13.457,54.122,27.66,86.455,40.04
							c32.645,12.5,68.218,23.096,104.856,29.087c1.659,0.321,3.821,0.66,6.312,0.986c2.491,0.326,5.31,0.641,8.282,0.913
							c2.973,0.272,6.098,0.503,9.201,0.663c3.103,0.158,6.183,0.247,9.063,0.234c4.828-0.021,9.097-0.324,11.983-1.049
							c2.884-0.724,4.385-1.866,3.682-3.565c-0.702-1.697-3.601-3.947-9.508-6.886c-5.894-2.931-14.778-6.544-27.447-10.97
							c-1.58-0.679-3.769-1.657-6.493-2.905c-2.721-1.248-5.974-2.763-9.681-4.513c-3.703-1.748-7.857-3.729-12.388-5.914
							c-4.522-2.18-9.418-4.56-14.61-7.108c6.687,2.241,15.013,4.564,23.993,6.787c8.995,2.228,18.646,4.354,27.958,6.201
							c9.324,1.848,18.307,3.413,25.948,4.514c7.646,1.101,13.945,1.734,17.896,1.719c0.426,0.01,0.845,0.019,1.257,0.025
							c0.412,0.008,0.818,0.013,1.217,0.018c0.399,0.004,0.791,0.006,1.177,0.008c0.386,0.001,0.765,0.001,1.137,0
							c9.988-0.038,15.299-1.053,17.543-2.584c2.24-1.528,1.419-3.57-0.85-5.667c-2.266-2.093-5.975-4.241-9.528-5.989
							c-3.548-1.746-6.941-3.095-8.59-3.595c-4.032-1.141-8.033-2.516-11.934-4.021c-3.896-1.503-7.693-3.135-11.322-4.792
							c-3.625-1.654-7.083-3.333-10.308-4.933c-3.222-1.598-6.212-3.117-8.908-4.454c1.595-0.521,1.478-1.63,0.247-3.051
							c-1.229-1.419-3.569-3.146-6.422-4.909c-2.849-1.761-6.208-3.555-9.486-5.111c-3.274-1.555-6.468-2.871-8.993-3.68
							c-2.521-0.809-5.973-2.401-9.728-4.334c-3.749-1.928-7.798-4.194-11.526-6.356c-3.722-2.157-7.125-4.212-9.595-5.725
							c-2.468-1.512-4.007-2.485-4.007-2.485s0.841-0.426,2.071-1.14c1.229-0.713,2.845-1.713,4.397-2.862
							c1.55-1.146,3.036-2.442,4.007-3.748c0.97-1.304,1.427-2.618,0.924-3.807c-1.397-0.989-6.007-3.377-12.258-6.465
							c-6.235-3.08-14.097-6.854-22.03-10.626c-7.91-3.761-15.891-7.522-22.417-10.604c-6.51-3.073-11.58-5.475-13.7-6.531
							c-2.667-1.05-6.933-3.138-11.828-5.677c-4.885-2.535-10.393-5.519-15.566-8.37c-5.161-2.845-9.99-5.559-13.543-7.57
							c-3.547-2.008-5.827-3.317-5.901-3.361c-1.751-1.528-4.287-3.468-7.103-5.515c-2.811-2.044-5.899-4.195-8.766-6.152
							c-2.861-1.955-5.501-3.717-7.426-4.99c-1.921-1.271-3.13-2.056-3.13-2.056s-3.857-3.239-10.698-8.538
							c-6.809-5.274-16.547-12.569-28.344-20.715c-11.711-8.087-25.433-17-40.338-25.616c-14.792-8.55-30.759-16.813-47.139-23.713
							c0,0-0.615-0.343-1.618-0.893c-1.002-0.55-2.39-1.308-3.936-2.137c-1.544-0.828-3.247-1.729-4.878-2.567
							c-1.63-0.838-3.19-1.613-4.455-2.191c0.036-0.02,0.071-0.039,0.106-0.059s0.07-0.04,0.104-0.06s0.069-0.04,0.104-0.06
							c0.035-0.021,0.07-0.041,0.106-0.061c0,0-0.295-0.399-0.749-1.082c-0.454-0.683-1.066-1.648-1.703-2.783
							c-0.636-1.135-1.296-2.438-1.845-3.794c-0.548-1.354-0.986-2.765-1.179-4.115c-0.193-1.349-0.977-4.155-2.987-7.714
							c-2.004-3.546-5.225-7.834-10.292-12.173c-5.047-4.321-11.927-8.691-21.274-12.437c-9.316-3.732-21.097-6.848-36.003-8.684
							c-2.669-0.418-5.722-0.817-9.157-1.184c-3.435-0.365-7.251-0.697-11.45-0.98c-4.198-0.282-8.779-0.515-13.74-0.682
							c-4.962-0.167-10.306-0.269-16.031-0.288c-1.097-0.004-2.208-0.005-3.332-0.002c-1.125,0.002-2.264,0.007-3.416,0.017
							c-1.153,0.008-2.32,0.02-3.5,0.035c-1.181,0.016-2.376,0.033-3.585,0.056c-0.335-0.008-0.677-0.015-1.026-0.021
							s-0.703-0.012-1.063-0.017c-0.36-0.004-0.727-0.008-1.098-0.01c-0.372-0.003-0.748-0.006-1.129-0.007
							c-0.784-0.003-1.588-0.002-2.407,0.001c-0.819,0.002-1.653,0.007-2.497,0.013c-0.844,0.007-1.698,0.015-2.559,0.022
							c-0.86,0.009-1.726,0.019-2.592,0.027c-0.866,0.01-1.733,0.019-2.597,0.027c-0.863,0.008-1.723,0.016-2.573,0.021
							c-0.851,0.006-1.693,0.011-2.521,0.014c-0.829,0.002-1.644,0.002-2.44,0c-0.781-0.004-1.544-0.009-2.285-0.018
							c-0.741-0.01-1.46-0.021-2.152-0.039c-0.693-0.017-1.359-0.038-1.994-0.064c-0.635-0.026-1.239-0.058-1.808-0.094
							c0,0-3.145-0.75-8.515-1.877c-5.366-1.125-12.951-2.625-21.841-4.129c-8.88-1.502-19.064-3.008-29.647-4.146
							C72.039,252.481,61.054,251.709,50.551,251.67"/>
					</g>
				</g>
			</g>
		</g>
		<g>
			<path id="patted_39_" fill="#232326" d="M267.349,414.283c0,0,1.668,4.039-4.842,16.305c-3.184,9.693-6.063,16.658-5.908,20.141
				c0.148,3.484,1.059,6.512,0.758,9.389c-0.305,2.877-6.359,6.967-6.359,6.967s-2.578,3.635-6.814,1.816
				c-2.574,2.877-4.848,4.996-4.848,4.996l-4.088,1.818l-5.449-0.758l-1.363-0.303c0,0,0.6-2.422,2.42-3.633
				c1.816-1.211,5.301-3.635,5.301-3.635s-5.752,0.15-7.721,0.453c-1.971,0.303-5.451-1.816-5.906-2.574
				c-0.455-0.756-0.912-0.152-2.727,0.152c-1.82,0.301-4.545,0.15-4.545,0.15s-2.725-2.574,1.816-4.391
				c4.391-0.758,6.967,0.908,9.541,1.211c2.576,0.303,12.268-0.908,12.268-0.908s6.51-1.061,7.115-3.635
				c0.607-2.574-0.148-3.18,1.059-5.602c1.213-2.424,7.424-25.896,8.482-27.258c1.061-1.365,2.727-7.926,1.818-10.703
				c-0.912-2.773,2.27-8.076,5.299-6.107C265.683,410.145,267.24,411.445,267.349,414.283z"/>
			<path id="patteg_43_" fill="#343338" d="M277.041,413.072c0,0,9.086,9.086,0,20.795c-4.037,4.646-8.477,13.326-9.285,16.76
				s-7.674,12.922-6.262,18.172c0.607,1.211,4.115,3.813,5.102,4.342c0.982,0.531,8.627,5.223,6.508,9.389
				c-0.299,1.061-3.023,3.711-4.77-0.379c-1.738-4.088-6.586-8.102-8.1-8.404c-1.516-0.303-3.486,2.424-2.197,4.467
				c1.287,2.045,4.168,10.979,4.168,15.068c0.68,3.711,2.043,6.057,2.648,7.191c0.605,1.137-0.455,8.252-5.072,2.197
				c-3.559-6.361-5.682-21.504-7.195-22.564c-1.285-0.377-1.969-0.453-3.633,1.818c-1.668,2.271-5.148,6.664-5.148,6.664
				s-2.346,3.332-4.773,2.572c-1.963,1.59-5.223,4.695-9.387,5.906c-2.422,3.027-13.023,6.057-13.932,3.787
				c-0.906-2.273,4.238-4.545,5.453-5.301c1.209-0.758,13.854-8.783,15.52-9.541c1.664-0.758,4.996-6.283,4.996-6.283
				s-9.463,2.648-13.473-0.303c-5.834,0.453-10.449-0.529-14.24,2.801c-3.783,3.332-5.902-1.137-4.842-1.895
				c1.059-0.756,5.322-3.557,7.445-3.557c2.121,0,8.074-2.121,9.184-2.525c1.109-0.402,13.328,0.809,15.65-0.504
				c2.32-1.311,6.863-0.201,10.803-8.682c3.938-8.48,12.416-29.479,12.416-30.992c0-1.516,2.879-6.057,0.91-11.357
				c-0.607-1.666-4.391-6.814-4.092-8.783c0.305-1.971,4.998-5.15,9.846-4.848C276.132,409.387,276.328,412.238,277.041,413.072z"/>
			<path id="corps_41_" fill="#201F24" d="M178.921,201.65c0,0-5.891,45.164,0,69.709c1.963,8.836,12.271,45.166,21.109,65.783
				c8.836,20.619,34.365,57.438,53.51,69.221c12.762,7.854,38.781,28.961,100.635,35.832
				c64.311,3.684,133.896-41.234,134.203-60.074c-0.676-6.932-24.236-42.035-24.236-42.035S412.96,236.752,349.759,178.088
				c0,0-10.01-12.561-14.729-17.182C328.65,157.961,225.556,123.104,178.921,201.65z"/>
			<path id="corps_44_" fill="#568736" d="M177.398,200.707c0,0-5.949,45.613,0,70.402c1.023,4.605,13.117-17.945,86.221,22.361
				c41.34,133.188,197.365,140.543,226.309,89.5c-0.682-7.002-24.477-42.453-24.477-42.453s-51.689-104.359-115.52-163.605
				c0,0-10.109-12.686-14.873-17.352C328.613,156.584,224.496,121.381,177.398,200.707z"/>
			<path id="queue_42_" fill="#2B4277" d="M488.082,377.828c0,0,31.471,40.717,41.137,48.896
				c7.438,8.18,56.613,57.914,61.074,65.352c0.744,8.924-14.084,21.52-14.084,21.52s20.104,28.98,29.027,34.93
				s26.041,26.76,19.348,30.479c8.924,9.668,21.572,24.535,35.703,32.717c5.949,3.719,36.443,33.461-8.178,31.23
				c-17.85,0-82.176-26.029-96.305-43.135c-17.105-15.617-141.42-153.197-148-200.609c0-6.693,39.053-7.621,48.721-11.34
				S488.082,377.828,488.082,377.828z"/>
			<path id="tete_23_" fill="#568736" d="M336.048,159.559c0,0-3.967-13.881-3.967-25.779c0-11.9-6.443-75.361-69.408-91.721
				c-13.387-4.463-36.191-7.934-68.418-6.445c-10.908-0.496-28.758,1.285-36.689-0.35c-2.975,6.795-4.461,29.105-4.461,29.105
				s54.459,80.412,24.293,136.338c5.947,13.883,44.623,7.439,83.787-1.484C300.351,190.297,316.712,181.373,336.048,159.559z"/>
			<path id="cou_3_" fill="#2B4277" d="M276.564,276.781c-1.488,17.352-5,17.352-5,17.352
				c-19.336,20.324-60.826,31.65-81.268,17.135c0,0-16.734-27.986-15.541-70.49C200.089,231.777,278.05,259.43,276.564,276.781z"/>
			<path id="bec_49_" fill="#343338" d="M190.042,61.643c-13.104-8.797-23.557-14.135-26.531-18.1
				c-2.975-3.967-4.23-7.998-4.23-7.998S65.599-12.475,21.716,19.248c0.998,2.486,79.58,3.229,114.779,29.506
				c3.225,12.395,12.148,10.908,15.617,18.092C173.185,63.133,200.791,68.861,190.042,61.643z"/>
			<path id="contour_oeil_6_" fill="#343338" d="M233.416,81.717c0,0,21.816-23.303,39.664-1.982
				c1.801,6.943-13.07,39.48-35.199,17.354C234.947,92.949,234.568,91.43,233.416,81.717z"/>
			<radialGradient id="yeux_4_" cx="246.4365" cy="80.3574" r="22.6088" gradientUnits="userSpaceOnUse">
				<stop  offset="0" style="stop-color:#FFFFFF"/>
				<stop  offset="0.1386" style="stop-color:#D5D4D3"/>
				<stop  offset="0.2079" style="stop-color:#494340"/>
				<stop  offset="0.3663" style="stop-color:#28201D"/>
				<stop  offset="1" style="stop-color:#231B18"/>
			</radialGradient>
			<path id="yeux_3_" fill="url(#yeux_4_)" d="M264.308,93.113c-2.932,6.188-10.924,8.541-17.854,5.258
				c-6.928-3.281-10.17-10.955-7.24-17.143c2.932-6.188,10.924-8.539,17.852-5.26C263.998,79.252,267.238,86.928,264.308,93.113z"/>
			<path id="aile_56_" fill="#201F24" d="M304.958,235.658c0,0-18.799-11.279-43.613,8.271c-9.777,7.52-29.328,39.854-6.768,87.98
				c6.768,14.287,21.805,42.109,30.83,49.629c4.514,9.777,11.281,35.344,19.551,45.119c4.514,5.264,15.041,11.279,21.809,9.775
				c5.264,8.271,11.279,18.799,21.053,22.559c5.264,7.52,106.781,177.463,238.375,219.574c15.791,6.016,84.973,15.791,15.791-33.84
				c-22.561-20.303-191-194.758-194.008-247.396c1.506-6.768,7.52-15.791,1.506-25.566c-6.018-9.775-5.266-10.527-10.531-19.551
				c7.521-3.76,11.281-7.896,5.643-20.678C396.322,317.621,366.621,272.504,304.958,235.658z"/>
			<path id="aile_54_" fill="#49722F" d="M304.929,234.902c0,0-19.053-11.432-44.205,8.385c-9.91,7.621-29.727,40.395-6.859,89.172
				c5.109,10.998,2.516,7.311,9.572,18.604c58.332-0.6,83.006-12.938,107.6-63.836C358.292,273.178,336.574,252.996,304.929,234.902
				z"/>
		</g>
	</g>
</g>
<g id="colombe_a_queue_noire">
</g>
</svg>
