<?xml version="1.0" encoding="utf-8"?>
<!-- Generator: Adobe Illustrator 16.0.0, SVG Export Plug-In . SVG Version: 6.00 Build 0)  -->
<!DOCTYPE svg PUBLIC "-//W3C//DTD SVG 1.1//EN" "http://www.w3.org/Graphics/SVG/1.1/DTD/svg11.dtd">
<svg version="1.1" xmlns="http://www.w3.org/2000/svg" xmlns:xlink="http://www.w3.org/1999/xlink" x="0px" y="0px" width="732px"
	 height="692px" viewBox="0 0 732 692" enable-background="new 0 0 732 692" xml:space="preserve">
<g id="Calque_1" display="none">
	<rect x="152.41" y="649.836" display="inline" fill="none" width="415.59" height="37.878"/>
	<text transform="matrix(1 0 0 1 152.4102 674.6855)" display="inline" font-family="'MyriadPro-Regular'" font-size="35">Moqueur grivotte</text>
</g>
<g id="colombe_à_croissant">
</g>
<g id="colombe_rouviolette">
</g>
<g id="colibri_madere">
</g>
<g id="colibri_à_tête_bleue">
</g>
<g id="elenie_siffleuse">
</g>
<g id="grive_à_pieds_jaunes">
</g>
<g id="merle_à_lunette">
</g>
<g id="moucherolle_gobemouche">
</g>
<g id="moqueur_corossol">
</g>
<g id="moqueur_grivotte">
	<g>
		<g opacity="0.3">
			<g>
				<g enable-background="new    ">
					<defs>
						<polygon id="SVGID_27_" enable-background="new    " points="11.356,566.309 9.658,317.938 650.623,319.549 722.342,564.323 
													"/>
					</defs>
					<clipPath id="SVGID_2_">
						<use xlink:href="#SVGID_27_"  overflow="visible"/>
					</clipPath>
					<g clip-path="url(#SVGID_2_)">
						<path fill="#959595" d="M26.369,317.979c-1.348-0.003-2.81,0.045-4.302,0.165c-1.49,0.121-3.011,0.313-4.474,0.598
							s-2.867,0.662-4.127,1.151c-1.26,0.49-2.375,1.092-3.258,1.828c-0.529,0.293-0.661,0.523-0.521,0.708
							c0.14,0.185,0.551,0.323,1.104,0.429c0.555,0.107,1.254,0.182,1.969,0.242c0.715,0.061,1.446,0.105,2.067,0.15
							c0.611,0.042,2.684,0.637,5.574,1.606c2.894,0.97,6.608,2.314,10.504,3.856c3.899,1.543,7.981,3.286,11.598,5.046
							c3.622,1.763,6.778,3.544,8.819,5.164c-0.277,2.243-0.038,4.436,0.518,6.555c0.559,2.122,1.436,4.167,2.437,6.11
							c1.001,1.946,2.125,3.789,3.173,5.503c1.049,1.715,2.021,3.299,2.719,4.726c0.553,1.134,1.021,2.41,1.416,3.73
							c0.396,1.323,0.717,2.693,0.979,4.012c0.262,1.319,0.463,2.588,0.613,3.707c0.151,1.121,0.254,2.092,0.32,2.816
							c-0.132,0.37-0.234,0.748-0.309,1.133c-0.074,0.386-0.118,0.778-0.133,1.181c-0.015,0.4,0.002,0.81,0.05,1.228
							c0.049,0.418,0.129,0.845,0.242,1.279c0,0-0.577,2.758,0.084,7.54c0.662,4.803,2.575,11.663,7.582,19.854
							c5.042,8.248,13.23,17.858,26.458,28.08c13.336,10.306,31.8,21.236,57.307,31.999c1.471,0.617,3.81,1.66,6.898,3.003
							c3.091,1.344,6.935,2.989,11.413,4.804c4.485,1.818,9.607,3.808,15.248,5.839c5.648,2.034,11.817,4.11,18.385,6.097
							c-2.832,2.831-6.042,6.009-9.366,9.238c-3.332,3.24-6.777,6.531-10.063,9.576c-3.296,3.053-6.431,5.855-9.128,8.105
							c-2.704,2.256-4.966,3.952-6.511,4.786c-2.31,1.247-4.541,2.418-6.824,3.475c-2.284,1.057-4.621,1.997-7.143,2.784
							c-2.522,0.786-5.23,1.605-8.254,2.043c-3.025,0.436-6.367,0.875-10.157,0.875c-0.118,0-0.235,0-0.354,0s-0.237,0-0.356,0
							c-0.118,0-0.238-0.193-0.358-0.193c-0.121-0.002-0.242-0.097-0.363-0.099c-1.494-0.02-2.905-0.084-4.238-0.097
							s-2.586-0.048-3.762-0.054c-1.176-0.008-2.274-0.023-3.298-0.025s-1.972-0.008-2.849-0.006
							c-1.486,0.002-2.763,0.007-3.843,0.017s-1.963,0.021-2.659,0.032c-0.698,0.011-1.209,0.023-1.546,0.032
							s-0.501,0.014-0.501,0.014s-0.523,0.151-1.177,0.388c-0.652,0.237-1.435,0.558-1.949,0.894s-0.763,0.686-0.345,0.982
							c0.415,0.297,1.496,0.539,3.638,0.658c0.702,0.039,1.415,0.071,2.13,0.098c0.717,0.026,1.435,0.047,2.149,0.063
							c0.717,0.015,1.429,0.025,2.132,0.032c0.703,0.006,1.396,0.008,2.072,0.007c1.385-0.004,2.703-0.02,3.902-0.043
							c1.197-0.024,2.277-0.056,3.182-0.086c0.905-0.029,1.639-0.06,2.146-0.082c0.506-0.022,0.785-0.037,0.785-0.037l-22.001,5.968
							l-10.402,1.51c0,0-0.384,0.193-0.861,0.483c-0.478,0.288-1.048,0.674-1.42,1.06c-0.372,0.384-0.546,0.77-0.229,1.058
							c0.317,0.288,1.124,0.479,2.715,0.475c0.159,0,0.328-0.002,0.503-0.008c0.176-0.004,0.359-0.01,0.553-0.018
							c0.193-0.009,0.394-0.02,0.604-0.033c0.209-0.013,0.428-0.027,0.655-0.046c2.495-0.191,6.813-0.854,11.884-1.738
							c5.064-0.884,10.879-1.989,16.375-3.069c5.49-1.081,10.664-2.135,14.463-2.919c3.797-0.783,6.224-1.298,6.224-1.298
							l-14.95,11.906c0,0-0.199,0.174-0.486,0.485c-0.287,0.311-0.665,0.759-1.021,1.31c-0.356,0.55-0.692,1.203-0.896,1.92
							c-0.205,0.717-0.28,1.5-0.112,2.313c0.103,0.505,0.124,1.008,0.115,1.48c-0.008,0.473-0.046,0.913-0.066,1.293
							c-0.02,0.378-0.021,0.693,0.046,0.913c0.068,0.221,0.204,0.347,0.457,0.346c0.157,0,0.358-0.048,0.617-0.152
							c0.258-0.104,0.571-0.265,0.954-0.487c0.382-0.222,0.834-0.507,1.363-0.863s1.138-0.782,1.838-1.286
							c1.832-1.32,4.129-2.844,6.604-4.415c2.472-1.57,5.123-3.188,7.674-4.704c2.547-1.512,4.995-2.922,7.063-4.077
							c2.065-1.154,3.755-2.055,4.788-2.552c1.031-0.497,2.067-0.916,3.359-1.285c1.291-0.37,2.838-0.689,4.889-0.986
							s4.605-0.572,7.913-0.854c3.308-0.279,7.366-0.565,12.426-0.886c5.056-0.317,8.848-0.555,11.69-0.734
							c2.842-0.179,4.736-0.297,5.998-0.377c1.262-0.079,1.893-0.119,2.21-0.139c0.315-0.02,0.315-0.02,0.315-0.02
							s0.951-0.248,2.049-0.641c1.098-0.392,2.339-0.928,2.921-1.504c0.581-0.577,0.502-1.194-1.041-1.748
							c-1.543-0.555-4.549-1.046-9.825-1.372c-0.162-0.003-0.328-0.004-0.492-0.007c-0.164-0.001-0.329,0.104-0.494,0.102
							c-0.166,0-0.331,0.104-0.498,0.104c-0.165,0-0.331,0-0.496,0c-3.779,0-7.666,0.071-11.375,0.32
							c-3.709,0.25-7.238,0.527-10.296,0.857c-3.061,0.33-5.647,0.631-7.471,0.877s-2.882,0.399-2.882,0.399s1.76-1.438,4.65-3.806
							c2.884-2.362,6.887-5.659,11.379-9.387c4.479-3.717,9.439-7.864,14.264-11.957c4.807-4.079,9.478-8.108,13.406-11.605
							c2.43,0.628,4.896,1.238,7.395,1.823c2.501,0.583,5.035,1.142,7.596,1.669c2.563,0.525,5.152,1.021,7.764,1.479
							c2.613,0.458,5.249,0.879,7.901,1.256c0.146,0.025,0.297,0.049,0.451,0.072c0.155,0.024,0.315,0.047,0.478,0.069
							c0.163,0.022,0.329,0.045,0.498,0.066c0.17,0.021,0.34,0.043,0.514,0.063c-1.105,3.101-2.263,6.275-3.412,9.319
							c-1.151,3.051-2.297,5.97-3.37,8.545c-1.077,2.582-2.083,4.816-2.958,6.494c-0.875,1.68-1.617,2.799-2.165,3.144
							c-0.085,0.734-0.329,1.584-0.894,2.446c-0.566,0.864-1.454,1.744-2.824,2.54c-1.373,0.797-3.229,1.672-5.729,2.203
							c-2.502,0.531-5.648,1.111-9.602,1.111c-0.106,0-0.215,0-0.324,0s-0.221,0-0.332,0c-0.112,0-0.226,0-0.34,0s-0.23,0-0.346,0
							c-2.654,0-5.898-0.146-9.301-0.121c-3.404,0.023-6.968-0.017-10.262,0.053c-3.294,0.068-6.317,0.126-8.641,0.265
							c-2.325,0.141-3.948,0.303-4.44,0.54c-0.514,0.249-1.228,0.58-1.892,0.96c-0.662,0.382-1.274,0.797-1.583,1.205
							c-0.31,0.409-0.315,0.806,0.232,1.137c0.549,0.333,1.652,0.599,3.563,0.75c1.114-0.041,2.454-0.1,3.932-0.162
							s3.094-0.132,4.769-0.195c1.674-0.063,3.405-0.123,5.111-0.168c1.705-0.043,3.387-0.072,4.959-0.075
							c0.926-0.002,1.813,0.004,2.647,0.021c0.834,0.019,1.614,0.047,2.323,0.089c0.71,0.042,1.35,0.096,1.9,0.166
							s1.016,0.155,1.376,0.259c0.079,0.216-2.046,0.8-5.39,1.565c-3.347,0.768-7.916,1.716-12.721,2.657
							c-4.809,0.943-9.854,1.881-14.143,2.622c-4.29,0.742-7.822,1.288-9.598,1.448c-1.774,0.161-3.6,0.439-5.36,0.817
							c-1.761,0.379-3.456,0.859-4.967,1.426c-1.513,0.565-2.841,1.217-3.867,1.939c-1.026,0.722-1.749,1.515-2.05,2.361
							c0.048,0.001,0.097,0.22,0.147,0.22c0.05,0.002,0.101,0.221,0.151,0.221s0.103,0,0.154,0c0.053,0,0.105,0,0.158,0
							c1.054,0,2.299-0.295,3.572-0.404c1.275-0.109,2.58-0.363,3.753-0.509s2.214-0.345,2.961-0.453
							c0.748-0.108,1.202-0.206,1.202-0.206s1.679-0.316,4.287-0.775c2.605-0.459,6.136-1.079,9.842-1.706
							c3.705-0.626,7.586-1.268,10.894-1.773c3.306-0.506,6.04-0.879,7.46-0.977c1.419-0.097,4.251-0.541,7.699-1.15
							c3.445-0.608,7.504-1.384,11.383-2.146c3.876-0.762,7.572-1.511,10.299-2.069c2.725-0.559,4.48-0.927,4.48-0.927
							s0.18,0.015,0.42,0.075c0.238,0.062,0.537,0.17,0.778,0.354c0.24,0.185,0.421,0.448,0.425,0.82
							c0.002,0.371-0.173,0.853-0.646,1.476c-0.471,0.622-1.352,1.611-2.402,2.8c-1.05,1.188-2.268,2.579-3.411,4.002
							c-1.145,1.425-2.213,2.882-2.96,4.203c-0.748,1.323-1.174,2.509-1.031,3.389c0.143,0.879,0.306,1.665,0.471,2.351
							c0.166,0.684,0.332,1.267,0.48,1.738c0.148,0.474,0.279,0.836,0.373,1.081c0.094,0.244,0.15,0.37,0.15,0.37
							s0.061,0.133,0.186,0.334c0.125,0.199,0.315,0.468,0.577,0.734c0.261,0.267,0.595,0.535,1.005,0.734
							c0.41,0.2,0.897,0.332,1.468,0.331c0.338-0.001,0.705-0.049,1.103-0.159c0.397-0.109,0.824-0.279,1.282-0.525
							c0.459-0.245,0.947-0.565,1.47-0.975c0.521-0.41,1.075-0.908,1.662-1.51c0.918-1.609,1.564-2.916,2.02-3.973
							c0.456-1.057,0.72-1.861,0.869-2.466c0.148-0.604,0.184-1.008,0.182-1.261c-0.003-0.253-0.041-0.354-0.041-0.354
							s0.357-0.597,0.942-1.519c0.585-0.923,1.396-2.172,2.306-3.477c0.908-1.304,1.914-2.664,2.887-3.816
							c0.971-1.15,1.912-2.092,2.692-2.559c0.782-0.467,1.212-1.058,1.813-1.756s1.375-1.504,2.849-2.404
							c1.472-0.899,3.642-1.893,7.034-2.965c3.389-1.07,7.995-2.22,14.344-3.433c2.188-0.467,4.223-0.972,6.043-1.465
							c1.82-0.494,3.428-0.977,4.76-1.401c1.334-0.425,2.393-0.792,3.119-1.051c0.727-0.261,1.119-0.415,1.119-0.415
							s0.113-0.235,0.191-0.588c0.077-0.353,0.119-0.823-0.02-1.293c-0.141-0.47-0.463-0.938-1.114-1.288
							c-0.651-0.352-1.632-0.585-3.089-0.581c-0.365,0.001-0.76,0.016-1.187,0.047c-0.427,0.032-0.885,0.081-1.378,0.148
							c-0.494,0.066-1.021,0.152-1.586,0.258c-0.564,0.106-1.166,0.231-1.807,0.38c-2.052,0.555-4.295,1.133-6.506,1.688
							c-2.212,0.556-4.392,1.088-6.316,1.552c-1.926,0.463-3.594,0.857-4.781,1.136c-1.188,0.278-1.895,0.441-1.895,0.441
							s-0.141,0.053-0.378,0.134s-0.57,0.188-0.955,0.296c-0.386,0.107-0.823,0.216-1.269,0.297
							c-0.443,0.081-0.896,0.135-1.311,0.137c-0.351,0.001-0.674-0.037-0.943-0.129c-0.271-0.092-0.487-0.238-0.623-0.455
							c-0.137-0.216-0.193-0.503-0.143-0.876c0.049-0.374,0.207-0.833,0.498-1.396c0.331-0.641,0.885-2.001,1.6-3.88
							c0.714-1.877,1.586-4.269,2.55-6.976c0.963-2.701,2.019-5.714,3.104-8.841c1.081-3.118,2.192-6.35,3.268-9.498
							c0.352,0.005,0.706,0.011,1.065,0.014c0.358,0.005,0.721,0.03,1.086,0.032c0.364,0.004,0.732,0.027,1.104,0.027
							s0.745,0,1.122,0c6.077,0,12.912-0.236,19.977-0.654c7.059-0.418,14.345-1.056,21.331-1.909
							c6.978-0.854,13.653-1.938,19.502-3.254c5.839-1.314,10.853-2.869,14.514-4.672c0.097-0.15,0.211-0.28,0.344-0.388
							c0.135-0.107,0.285-0.193,0.454-0.263c0.169-0.068,0.354-0.119,0.556-0.151c0.203-0.032,0.421-0.048,0.654-0.048
							c0.516-0.002,1.105,0.072,1.761,0.203c0.655,0.129,1.375,0.315,2.149,0.538c0.773,0.224,1.604,0.483,2.476,0.764
							c0.873,0.279,1.79,0.578,2.741,0.876c3.224,1.575,10.614,3.166,20.874,4.692c10.268,1.526,23.405,2.986,38.105,4.297
							c14.707,1.312,30.974,2.473,47.488,3.4c16.516,0.929,33.274,1.623,48.962,2.003c4.978,1.403,17.851,5.023,34.994,9.778
							c17.2,4.769,38.725,10.686,60.9,16.655c22.264,5.993,45.184,12.038,64.99,17.01c19.87,4.988,36.577,8.889,46.284,10.563
							c0.166-0.19,0.399-0.361,0.642-0.525c0.244-0.164,0.496-0.32,0.699-0.483c0.201-0.163,0.355-0.333,0.4-0.522
							c0.045-0.188-0.018-0.398-0.247-0.64c-0.155-0.159-0.384-0.333-0.702-0.525c-0.318-0.191-0.729-0.402-1.244-0.635
							c-0.518-0.232-1.143-0.487-1.89-0.769c-0.75-0.281-1.622-0.589-2.636-0.926c-9.615-3.926-25.416-9.479-44.391-15.805
							c-18.891-6.297-40.908-13.354-63.098-20.335c-22.082-6.946-44.338-13.817-63.893-19.801
							c-19.472-5.958-36.29-11.044-47.636-14.461c2.85,0.559,5.789,1.133,8.65,1.696s5.646,1.117,8.185,1.634
							c2.539,0.517,4.832,0.996,6.711,1.412c1.88,0.417,3.346,0.77,4.229,1.031c0.316,0.029,0.685,0.072,1.074,0.118
							c0.392,0.047,0.807,0.099,1.217,0.146c0.41,0.048,0.816,0.092,1.191,0.123c0.375,0.033,0.719,0.053,1.001,0.053
							c0.422,0,0.714-0.046,0.784-0.163c0.072-0.117-0.075-0.306-0.533-0.595c-0.458-0.288-1.225-0.676-2.391-1.189
							c-1.166-0.513-2.729-1.152-4.779-1.944c-2.988-1.217-6.869-2.701-11.1-4.287c-4.225-1.583-8.798-3.268-13.179-4.888
							c-4.374-1.617-8.558-3.172-12.011-4.497c-3.45-1.325-6.174-2.423-7.635-3.13c-0.566-0.391-3.459-2.514-7.609-5.517
							c-4.143-2.997-9.53-6.866-15.108-10.763c-5.56-3.884-11.309-7.796-16.208-10.904c-4.887-3.102-8.936-5.407-11.122-6.099
							c-2.429-0.896-8.765-3.307-17.124-6.474c-8.341-3.16-18.685-7.067-29.172-10.972c-10.457-3.895-21.055-7.785-29.962-10.936
							c-8.888-3.142-16.104-5.55-19.838-6.493c-3.732-0.94-7.174-1.998-10.352-3.107c-3.177-1.108-6.091-2.268-8.771-3.413
							c-2.679-1.146-5.124-2.277-7.367-3.33c-2.242-1.054-4.28-2.028-6.148-2.86c-1.832-0.816-6.034-2.503-11.734-4.64
							c-5.69-2.133-12.868-4.712-20.667-7.318c-7.784-2.603-16.186-5.23-24.353-7.474c-8.151-2.238-16.073-4.094-22.919-5.153
							c-1.566-0.466-3.954-1.181-6.797-2.056c-2.84-0.875-6.136-1.907-9.523-3.008c-3.385-1.1-6.863-2.268-10.07-3.41
							c-3.205-1.144-6.143-2.263-8.451-3.267c-1.478-0.605-3.316-1.367-5.345-2.287c-2.027-0.919-4.241-1.998-6.47-3.239
							c-2.227-1.24-4.465-2.642-6.543-4.207c-2.075-1.563-3.989-3.291-5.57-5.185c-1.044-1.264-2.799-2.542-4.934-3.771
							c-2.134-1.227-4.647-2.407-7.215-3.477c-2.564-1.069-5.183-2.031-7.529-2.823c-2.343-0.792-4.416-1.416-5.889-1.811
							c-1.721-0.417-3.691-0.885-5.936-1.354c-2.242-0.469-4.759-0.938-7.574-1.355c-2.813-0.417-5.925-0.785-9.358-1.05
							c-3.435-0.265-7.194-0.429-11.302-0.439c-2.125-0.005-4.344,0.031-6.66,0.115c-2.315,0.083-4.731,0.215-7.246,0.402
							c-2.517,0.188-5.135,0.429-7.859,0.734s-5.556,0.672-8.497,1.109c-0.428,0.123-0.901,0.241-1.41,0.354
							c-0.511,0.113-1.055,0.222-1.624,0.326c-0.569,0.104-1.162,0.203-1.771,0.297c-0.608,0.095-1.23,0.184-1.855,0.269
							c-0.792-0.243-1.577-0.476-2.353-0.697c-0.774-0.221-1.538-0.429-2.29-0.624c-0.75-0.194-1.486-0.374-2.206-0.537
							c-0.719-0.163-1.419-0.308-2.099-0.435c-3.2-0.595-5.954-1.095-8.37-1.515c-2.414-0.42-4.488-0.761-6.329-1.039
							c-1.841-0.277-3.447-0.491-4.926-0.657c-1.479-0.167-2.829-0.285-4.155-0.372c-0.219-0.015-0.445-0.028-0.678-0.039
							s-0.473-0.021-0.717-0.029c-0.244-0.008-0.495-0.015-0.751-0.019C26.895,317.983,26.635,317.98,26.369,317.979"/>
					</g>
				</g>
			</g>
		</g>
		<g>
			<path id="patted_7_" fill="#101110" d="M220.902,428.18c0,0-38.089,70.31-47.6,79.821c-9.513,9.513-17.583,16.585-32.982,16.131
				c-15.4-0.452-21.699-0.065-21.699-0.065s-8.135,4.464,0.018,5.37c8.154,0.905,17.677-0.021,17.677-0.021l-21.283,10.859
				l-9.964,2.712c0,0-7.245,6.793,2.268,5.433c9.512-1.359,47.106-16.307,47.106-16.307l-14.946,21.686
				c0,0-3.171,5.035-2.717,10.925c0.452,5.889-2.266,11.776,4.981,2.264c7.248-9.511,21.742-24.911,25.817-28.534
				c4.076-3.624,8.154-4.983,27.629-7.247c19.479-2.266,19.479-2.266,19.479-2.266s14.945-7.247-5.209-9.737
				c-14.948-0.454-32.838,4.755-32.838,4.755s54.352-79.925,56.616-88.981c2.265-9.061,2.265-8.361,2.265-8.361h-14.946
				L220.902,428.18z"/>
			<path id="patteg_8_" fill="#1F221F" d="M262.246,427.48c0,0-19.326,86.815-23.554,91.646
				c-0.604,5.436-3.852,14.192-19.025,14.646c-9.739,0-30.574-0.038-32.611,1.772c-2.04,1.813-7.248,6.323,0,7.456
				c6.794-0.454,22.192-2.047,25.817-0.009c0.225,1.585-33.744,13.81-40.538,14.941c-6.795,1.132-14.495,5.66-15.854,11.774
				c3.851,0.227,11.55-2.04,11.55-2.04s25.818-8.605,31.254-9.285c5.434-0.679,32.838-11.325,32.838-11.325s2.718,0.454,0.68,4.983
				s-10.871,19.703-10.646,26.045c0.228,6.341,0.908,9.964,0.908,9.964s1.812,9.738,8.379-1.812
				c4.076-11.55,3.624-14.494,3.624-14.494s6.341-17.212,9.513-20.609c3.169-3.397,1.131-10.418,26.041-19.249
				c8.608-3.397,14.949-7.928,14.949-7.928s3.396-10.87-9.285-5.435c-8.154,4.077-19.282,8.832-19.282,8.832
				s-7.669,5.359-4.725-3.699s22.874-96.175,22.874-96.175H262.246z"/>
			<path id="tete_5_" fill="#404143" d="M234.146,198.016c0,0-25.81-15.855-36.871-26.179c-5.898-5.162-17.606-15.671-23.597-32.078
				c-3.965-10.97-19.751-22.378-25.81-25.81c-10.738-5.497-30.972-15.117-67.105-3.687c-5.53,3.318-18.066,5.162-18.066,5.162
				s-2.58,19.91,0,29.865c2.949,0.738,15.855-9.586,30.972-1.843c8.433,3.456,33.083,40.928,48.3,54.569
				c5.088,4.118,18.805,13.747,25.811,15.486c8.156,3.363,50.513,12.536,50.513,12.536L234.146,198.016z"/>
			<path id="corps_10_" fill="#737475" d="M434.355,405.045L225.85,293.326l-34.289-73.004c0,0-28.207-18.804-35.949-22.123
				c-1.636-1.091-3.803-2.028-6.363-2.796c-1.588-0.952-3.251-1.722-4.975-2.182c-8.296-2.212-29.865-34.014-38.438-49.331
				c-8.572-15.317-38.161-6.805-43.45,0c-1.97,20.079,5.565,38.27,8.331,50.713c2.134,9.603,2.787,23.97,2.974,30.034
				c-0.578,3.092-0.711,6.438-0.301,10.063c0,0-10.692,91.809,87.016,175.688c8.428,7.164,46.457,44.245,90.702,56.781
				c15.485,5.162,73.004,0.737,93.652-17.698c1.475-3.687,5.53-0.366,10.692,2.952c12.904,13.272,104.898,27.284,167.947,28.39
				C522.292,469.2,434.355,405.045,434.355,405.045z"/>
			<path id="bout_queue_1_" fill="#7F7E79" d="M503.304,478.97c0,0,152.37,88.951,190.716,102.225
				c2.119-3.409,10.046-3.224-26.936-22.718C635.248,541.012,495.93,457.584,495.93,457.584L503.304,478.97z"/>
			<path id="queue_10_" fill="#404143" d="M478.969,430.3c0,0,191.729,119.095,217.108,146.959
				c-32.446-18.437-172.127-96.815-183.925-103.452s-58.993-36.867-65.63-43.507C439.886,423.663,478.969,430.3,478.969,430.3z"/>
			<path id="aile_13_" fill="#353C3A" d="M190.454,194.051c0,0-54.753,1.936-39.821,55.03c5.531,18.804,9.402,48.669,49.223,74.664
				c9.956,6.637,28.76,18.804,37.056,21.57c5.53,1.659,68.027,60.283,115.037,67.474c7.19,0.553,10.509,2.488,0-8.85
				c-3.318-2.765-5.807-7.742-12.997-13.826c2.213,0.829,87.385,36.226,105.636,42.31c10.231,2.765,24.335,7.466,29.313,8.849
				c3.871,0.83,8.849-0.276,1.382-9.679c4.425,2.766,38.438,15.209,44.246,18.805c3.041,0.553,10.784,3.595-1.66-6.637
				c-10.784-9.402-34.843-27.101-40.097-32.631c-1.936-3.042-35.396-60.284-43.692-65.814c-9.125-7.19-76.875-63.05-91.531-70.792
				c-14.656-7.743-24.335-19.357-31.525-26.271c-7.189-6.914-52.817-43.969-80.471-51.988
				C214.789,192.942,200.501,193.549,190.454,194.051z"/>
			<path id="bec_11_" fill="#1F221F" d="M99.199,133.491c0,0-21.386-20.279-34.659-25.441c-13.273-5.162-19.173-7.006-24.703-7.743
				s-15.485,0.369-19.91,8.112c-2.212,2.581,2.211,2.95,4.793,3.318c2.581,0.369,30.234,20.648,37.978,34.659
				c2.58-0.369,16.961-3.319,32.078,0C99.937,147.133,105.836,145.289,99.199,133.491z"/>
			<ellipse id="oeil_6_" fill="#ED9E77" cx="130.723" cy="128.79" rx="8.849" ry="7.743"/>
			<radialGradient id="oeil_5_" cx="129.4316" cy="126.6694" r="7.5662" gradientUnits="userSpaceOnUse">
				<stop  offset="0" style="stop-color:#FFFFFF"/>
				<stop  offset="0.1386" style="stop-color:#D5D4D3"/>
				<stop  offset="0.2079" style="stop-color:#494340"/>
				<stop  offset="0.3663" style="stop-color:#28201D"/>
				<stop  offset="1" style="stop-color:#231B18"/>
			</radialGradient>
			<circle id="oeil_4_" fill="url(#oeil_5_)" cx="130.446" cy="128.236" r="4.425"/>
		</g>
	</g>
</g>
<g id="trembleur_brun">
</g>
<g id="trembleur_gris">
</g>
<g id="paruline_cafeite">
</g>
<g id="saltator_gros_bec">
</g>
<g id="soporophile_rouge-gorge">
</g>
<g id="sucrier_à_ventre_jaune">
</g>
<g id="vachet_luisant">
</g>
<g id="vireo_a_moustaches">
</g>
<g id="merle_quiscale">
</g>
<g id="paruline_jaune">
</g>
<g id="tyran_gris">
</g>
<g id="sporophile_cici">
</g>
<g id="tourterelle_à_queue_carree">
</g>
<g id="colobri_huppé">
</g>
<g id="cécerelle_d_x27_amerique">
</g>
<g id="heron_vert">
</g>
<g id="pic_de_la_guadeloupe">
</g>
<g id="héron_garde-boeufs">
</g>
</svg>
