<?xml version="1.0" encoding="utf-8"?>
<!-- Generator: Adobe Illustrator 16.0.0, SVG Export Plug-In . SVG Version: 6.00 Build 0)  -->
<!DOCTYPE svg PUBLIC "-//W3C//DTD SVG 1.1//EN" "http://www.w3.org/Graphics/SVG/1.1/DTD/svg11.dtd">
<svg version="1.1" xmlns="http://www.w3.org/2000/svg" xmlns:xlink="http://www.w3.org/1999/xlink" x="0px" y="0px" width="732px"
	 height="692px" viewBox="0 0 732 692" enable-background="new 0 0 732 692" xml:space="preserve">
<g id="Calque_1" display="none">
	<rect x="184.41" y="639.182" display="inline" fill="none" width="415.59" height="37.879"/>
	<text transform="matrix(1 0 0 1 184.4102 664.0313)" display="inline" font-family="'MyriadPro-Regular'" font-size="35">Merle quiscale</text>
</g>
<g id="colombe_à_croissant">
</g>
<g id="colombe_rouviolette">
</g>
<g id="colibri_madere">
</g>
<g id="colibri_à_tête_bleue">
</g>
<g id="elenie_siffleuse">
</g>
<g id="grive_à_pieds_jaunes">
</g>
<g id="merle_à_lunette">
</g>
<g id="moucherolle_gobemouche">
</g>
<g id="moqueur_corossol">
</g>
<g id="moqueur_grivotte">
</g>
<g id="trembleur_brun">
</g>
<g id="trembleur_gris">
</g>
<g id="paruline_cafeite">
</g>
<g id="saltator_gros_bec">
</g>
<g id="soporophile_rouge-gorge">
</g>
<g id="sucrier_à_ventre_jaune">
</g>
<g id="vachet_luisant">
</g>
<g id="vireo_a_moustaches">
</g>
<g id="merle_quiscale">
	<g>
		<g opacity="0.3">
			<g>
				<g enable-background="new    ">
					<defs>
						<polygon id="SVGID_47_" enable-background="new    " points="14.021,596.938 10.117,325.379 644.98,327.043 721.492,594.869 
													"/>
					</defs>
					<clipPath id="SVGID_2_">
						<use xlink:href="#SVGID_47_"  overflow="visible"/>
					</clipPath>
					<g clip-path="url(#SVGID_2_)">
						<path fill="#959595" d="M140.153,325.721c-7.663-0.021-14.781,0.503-21.316,1.393c-6.542,0.891-12.502,2.146-17.835,3.592
							c-5.342,1.445-10.057,3.079-14.098,4.721c-4.046,1.643-7.417,3.294-10.06,4.769c-0.176-0.02-0.358-0.039-0.547-0.058
							s-0.383-0.036-0.584-0.052c-0.201-0.016-0.408-0.03-0.622-0.044c-0.214-0.014-0.433-0.026-0.659-0.037
							c-0.752-0.038-1.841-0.117-3.21-0.213s-3.018-0.212-4.891-0.322c-1.873-0.111-3.969-0.217-6.233-0.299
							c-2.265-0.08-4.696-0.136-7.24-0.142c-3.448-0.008-7.101,0.074-10.821,0.299c-3.721,0.226-7.509,0.596-11.227,1.167
							c-3.721,0.571-7.37,1.344-10.812,2.373c-3.445,1.03-6.682,2.318-9.574,3.921c0.648,0.225,4.444,0.577,10.042,1.078
							c5.6,0.502,13.003,1.153,20.866,1.975c7.866,0.821,16.193,1.813,23.64,2.994c7.45,1.183,14.021,2.557,18.366,4.144
							c0,0,2.341,1.063,5.896,3.037c3.561,1.978,8.345,4.873,13.225,8.54c4.895,3.678,9.892,8.136,13.854,13.23
							c3.979,5.114,6.918,10.874,7.665,17.134c0.314,2.213,1.464,5.452,3.437,9.294c1.979,3.854,4.788,8.317,8.417,12.961
							c3.642,4.659,8.109,9.501,13.389,14.084c5.297,4.599,11.409,8.935,18.314,12.559c6.926,3.633,16.055,8.005,27.286,12.545
							c11.267,4.555,24.65,9.279,40.03,13.591c15.423,4.324,32.843,8.229,52.11,11.124c19.298,2.899,40.416,4.779,63.169,5.046
							c0.43,0.005,0.857,0.008,1.282,0.012c0.425,0.005,0.848,0.008,1.269,0.011c0.421,0.005,0.839,0.009,1.256,0.012
							c0.417,0.005,0.833,0.008,1.247,0.012c-1.646,1.789-4.992,5.412-9.249,9.938c-4.275,4.544-9.474,10.003-14.797,15.431
							c-5.348,5.452-10.819,10.873-15.588,15.29c-4.788,4.431-8.861,7.844-11.377,9.248c-2.712,1.514-5.333,2.935-8.026,4.215
							c-2.697,1.281-5.465,2.422-8.469,3.373c-3.005,0.952-6.246,1.347-9.883,1.874c-3.64,0.529-7.677,0.462-12.274,0.462
							c-0.143,0-0.286,0-0.43,0c-0.143,0-0.287,0.368-0.432,0.366c-0.144,0-0.29,0.183-0.435,0.182
							c-0.146-0.001-0.292,0.089-0.439,0.087c-1.864-0.023-3.622,0.002-5.278-0.014c-1.656-0.017-3.211-0.006-4.666-0.015
							s-2.811-0.003-4.071-0.005c-1.261-0.002-2.425,0.004-3.496,0.006c-1.739,0.004-3.233,0.016-4.497,0.026
							c-1.264,0.011-2.297,0.025-3.113,0.039s-1.414,0.027-1.808,0.036c-0.394,0.01-0.585,0.017-0.585,0.017
							s-0.626,0.186-1.404,0.472c-0.778,0.287-1.707,0.676-2.31,1.082c-0.604,0.407-0.883,0.832-0.359,1.192
							c0.523,0.359,1.849,0.653,4.455,0.798c0.851,0.047,1.713,0.086,2.579,0.118c0.865,0.032,1.734,0.058,2.599,0.075
							c0.865,0.02,1.726,0.032,2.575,0.039c0.85,0.008,1.687,0.01,2.505,0.009c1.683-0.004,3.286-0.025,4.743-0.055
							c1.457-0.028,2.768-0.065,3.869-0.104c1.101-0.036,1.992-0.074,2.607-0.101c0.615-0.027,0.955-0.047,0.955-0.047
							l-26.301,7.265l-12.531,1.834c0,0-0.455,0.235-1.016,0.587c-0.562,0.353-1.231,0.822-1.658,1.292
							c-0.428,0.469-0.614,0.938-0.209,1.288s1.399,0.584,3.333,0.579c0.194-0.001,0.397-0.003,0.609-0.009
							c0.213-0.006,0.436-0.014,0.668-0.023c0.232-0.011,0.476-0.024,0.729-0.039c0.253-0.016,0.517-0.035,0.792-0.057
							c3.013-0.233,8.21-1.04,14.305-2.117c6.089-1.076,13.071-2.422,19.669-3.736c6.589-1.314,12.796-2.597,17.352-3.551
							c4.552-0.952,7.46-1.577,7.46-1.577l-17.354,14.485c0,0-0.229,0.211-0.558,0.591c-0.329,0.379-0.757,0.925-1.152,1.596
							c-0.396,0.671-0.761,1.466-0.964,2.34c-0.202,0.875-0.241,1.831,0.013,2.823c0.157,0.612,0.217,1.226,0.239,1.802
							c0.021,0.575,0.003,1.112,0.004,1.574c0.001,0.461,0.021,0.846,0.118,1.115c0.097,0.269,0.27,0.422,0.578,0.422
							c0.191-0.001,0.432-0.061,0.739-0.187c0.307-0.128,0.678-0.322,1.128-0.594s0.978-0.62,1.599-1.055
							c0.62-0.435,1.332-0.953,2.149-1.567c2.139-1.609,4.826-3.466,7.728-5.381c2.897-1.913,6.007-3.884,9.001-5.729
							c2.989-1.843,5.862-3.559,8.292-4.964c2.427-1.405,4.413-2.502,5.633-3.106c1.216-0.604,2.443-1.115,3.984-1.565
							c1.541-0.448,3.394-0.837,5.86-1.198c2.465-0.362,5.544-0.697,9.535-1.037c3.99-0.341,8.892-0.687,15.004-1.073
							c6.108-0.387,10.688-0.677,14.121-0.895c3.432-0.218,5.72-0.363,7.244-0.459c1.525-0.097,2.287-0.146,2.668-0.169
							c0.38-0.025,0.38-0.025,0.38-0.025s1.136-0.301,2.437-0.777c1.301-0.478,2.767-1.129,3.429-1.83
							c0.663-0.7,0.523-1.45-1.387-2.124c-1.908-0.673-5.584-1.271-11.996-1.667c-0.197-0.003-0.394-0.005-0.592-0.007
							c-0.198-0.001-0.395-0.64-0.594-0.642c-0.198,0-0.396-0.638-0.595-0.638c-0.199,0-0.397,0-0.597,0
							c-4.579,0-9.281,0.851-13.76,1.153c-4.481,0.304-8.739,1.024-12.427,1.425c-3.688,0.4-6.805,0.959-9,1.259
							c-2.196,0.3-3.469,0.578-3.469,0.578s3.863-3.251,9.669-8.261c5.783-4.99,13.477-11.653,21.19-18.481
							c7.67-6.789,15.356-13.71,21.228-19.287c5.843-5.551,9.902-9.767,10.375-11.194c0.101-0.297,0.196-0.575,0.285-0.84
							s0.173-0.51,0.253-0.743c0.08-0.233,0.155-0.45,0.226-0.653c0.071-0.204,0.139-0.393,0.203-0.569
							c3.617,0.051,7.028,0.104,10.229,0.154c3.201,0.051,6.192,0.099,8.969,0.141c2.777,0.043,5.341,0.081,7.687,0.108
							c2.346,0.028,4.475,0.048,6.383,0.055c-0.721,2.668-1.984,7.295-3.542,12.794c-1.564,5.523-3.429,11.936-5.34,18.123
							c-1.92,6.219-3.888,12.21-5.64,16.829c-1.758,4.637-3.296,7.882-4.344,8.575c-0.048,0.893-0.281,1.923-0.902,2.972
							c-0.622,1.05-1.633,2.117-3.235,3.086c-1.604,0.969-3.8,1.904-6.792,2.551c-2.994,0.646-6.783,1.227-11.57,1.227
							c-0.139,0-0.279,0-0.421,0c-0.143,0-0.286,0-0.432,0c-0.145,0-0.292,0-0.441,0s-0.299,0-0.451,0
							c-3.225,0-7.153-0.049-11.267-0.02c-4.115,0.027-8.417,0.044-12.388,0.127c-3.972,0.083-7.613,0.185-10.405,0.354
							c-2.793,0.169-4.738,0.382-5.314,0.672c-0.607,0.301-1.45,0.71-2.228,1.174c-0.778,0.463-1.491,0.974-1.838,1.472
							c-0.347,0.5-0.327,0.979,0.362,1.385c0.688,0.404,2.045,0.729,4.373,0.911c1.349-0.05,2.965-0.12,4.75-0.196
							c1.785-0.076,3.738-0.161,5.762-0.237c2.022-0.079,4.114-0.149,6.177-0.203c2.063-0.053,4.097-0.088,6.002-0.093
							c1.125-0.002,2.205,0.006,3.221,0.027s1.966,0.057,2.832,0.107s1.646,0.117,2.322,0.203c0.676,0.084,1.247,0.188,1.691,0.313
							c0.112,0.263-2.422,0.975-6.423,1.906c-4.004,0.934-9.479,2.088-15.241,3.235c-5.768,1.149-11.823,2.29-16.975,3.194
							c-5.156,0.903-9.404,1.569-11.548,1.766c-2.144,0.194-4.342,0.532-6.453,0.993c-2.112,0.461-4.136,1.047-5.932,1.736
							c-1.796,0.69-3.364,1.484-4.561,2.365c-1.198,0.881-2.023,1.847-2.335,2.88c0.058,0.001,0.116-0.537,0.175-0.535
							c0.059,0,0.119-0.537,0.179-0.537s0.121,0,0.183,0s0.123,0,0.186,0c1.276,0,2.783,0.446,4.326,0.311
							c1.542-0.133,3.119-0.041,4.537-0.217c1.417-0.178,2.675-0.221,3.578-0.354c0.903-0.131,1.452-0.151,1.452-0.151
							s2.018-0.335,5.151-0.894c3.131-0.559,7.376-1.291,11.832-2.054c4.453-0.764,9.118-1.531,13.096-2.148
							c3.977-0.615,7.27-1.065,8.986-1.185c1.716-0.117,5.121-0.654,9.26-1.397c4.136-0.742,9.004-1.685,13.655-2.614
							c4.646-0.927,9.074-1.839,12.338-2.52c3.263-0.68,5.366-1.128,5.366-1.128s0.218,0.019,0.513,0.093
							c0.295,0.075,0.666,0.206,0.97,0.433c0.305,0.226,0.543,0.546,0.574,0.999s-0.147,1.04-0.677,1.798
							c-0.527,0.756-1.525,1.96-2.71,3.407c-1.187,1.448-2.564,3.142-3.847,4.876c-1.284,1.736-2.475,3.513-3.286,5.124
							c-0.813,1.613-1.244,3.061-1.01,4.133c0.237,1.073,0.493,2.031,0.743,2.866c0.25,0.835,0.495,1.545,0.709,2.122
							c0.215,0.576,0.4,1.019,0.532,1.317c0.131,0.297,0.209,0.452,0.209,0.452s0.082,0.163,0.249,0.407
							c0.166,0.244,0.417,0.57,0.755,0.896c0.337,0.326,0.761,0.651,1.274,0.895c0.512,0.245,1.114,0.406,1.805,0.404
							c0.411-0.001,0.853-0.06,1.327-0.193c0.475-0.134,0.98-0.342,1.519-0.642s1.109-0.69,1.713-1.19
							c0.603-0.499,1.239-1.107,1.907-1.841c0.998-1.965,1.688-3.562,2.164-4.85s0.736-2.27,0.873-3.006
							c0.136-0.737,0.149-1.229,0.127-1.537c-0.022-0.308-0.078-0.431-0.078-0.431s0.39-0.728,1.034-1.853
							c0.643-1.124,1.537-2.646,2.544-4.235c1.006-1.59,2.126-3.249,3.223-4.651c1.095-1.401,2.167-2.549,3.08-3.119
							c0.911-0.567,1.384-1.286,2.061-2.137c0.676-0.849,1.555-1.831,3.274-2.926c1.718-1.095,4.275-2.303,8.308-3.606
							c4.027-1.302,9.526-2.699,17.128-4.175c2.612-0.565,5.036-1.177,7.203-1.776c2.166-0.6,4.074-1.186,5.656-1.702
							c1.581-0.515,2.836-0.96,3.696-1.275c0.86-0.317,1.324-0.504,1.324-0.504s0.118-0.286,0.185-0.715
							c0.067-0.429,0.083-0.999-0.123-1.569s-0.631-1.141-1.447-1.565c-0.815-0.427-2.021-0.708-3.787-0.706
							c-0.441,0.001-0.917,0.021-1.431,0.06c-0.514,0.038-1.065,0.097-1.657,0.179c-0.592,0.081-1.224,0.184-1.899,0.312
							c-0.675,0.129-1.394,0.28-2.158,0.461c-2.443,0.673-5.115,1.375-7.75,2.049c-2.638,0.675-5.237,1.322-7.532,1.886
							c-2.297,0.563-4.287,1.042-5.704,1.381c-1.418,0.338-2.261,0.536-2.261,0.536s-0.167,0.064-0.448,0.162
							c-0.281,0.098-0.677,0.229-1.136,0.359c-0.459,0.131-0.981,0.262-1.514,0.36c-0.533,0.099-1.077,0.164-1.58,0.165
							c-0.425,0.001-0.82-0.044-1.155-0.156c-0.335-0.11-0.609-0.288-0.792-0.552c-0.183-0.263-0.272-0.61-0.24-1.064
							c0.033-0.453,0.188-1.012,0.499-1.694c0.63-1.383,1.943-5.515,3.583-11.026c1.634-5.488,3.587-12.333,5.513-19.191
							c1.915-6.819,3.802-13.653,5.325-19.197c1.515-5.521,2.671-9.776,3.138-11.492c0.596-0.052,1.25-0.098,1.959-0.14
							c0.709-0.041,1.473-0.077,2.289-0.106c0.816-0.029,1.683-0.053,2.599-0.069c0.916-0.016,1.879-0.024,2.888-0.025
							c2.928-0.001,6.234,0.064,9.841,0.218c3.607,0.155,7.513,0.398,11.641,0.751c4.128,0.354,8.477,0.816,12.968,1.41
							c4.493,0.594,9.127,1.319,13.827,2.196c1.451,0.361,3.084,0.749,4.875,1.16c1.792,0.41,3.74,0.844,5.821,1.296
							c2.082,0.451,4.295,0.921,6.615,1.404c2.321,0.485,4.748,0.983,7.256,1.492c2.864,1.604,8.154,4.567,14.649,8.213
							c6.512,3.656,14.242,8.001,21.953,12.349c7.735,4.36,15.451,8.725,21.887,12.39c6.454,3.677,11.614,6.648,14.207,8.206
							c2.937,1.764,6.956,4.181,11.427,6.844c4.479,2.668,9.414,5.583,14.165,8.33c4.761,2.753,9.337,5.337,13.083,7.334
							c3.751,1.999,6.666,3.408,8.095,3.804c1.074,0.499,2.023,0.88,3.073,1.184c1.049,0.303,2.198,0.528,3.669,0.715
							c1.472,0.187,3.266,0.334,5.606,0.483c2.34,0.15,5.227,0.301,8.883,0.493c0.912,0.048,1.968,0.087,3.149,0.12
							c1.181,0.031,2.485,0.057,3.892,0.076c1.406,0.018,2.915,0.03,4.503,0.037c1.588,0.006,3.257,0.007,4.984,0.002
							c4.591-0.011,9.594-0.056,14.604-0.12c5.009-0.063,10.025-0.145,14.641-0.229c4.615-0.085,8.83-0.173,12.241-0.247
							c3.411-0.075,6.016-0.136,7.413-0.17c0.157,0.063,0.303,0.12,0.436,0.172s0.255,0.099,0.364,0.139
							c0.109,0.041,0.205,0.076,0.288,0.105c0.083,0.029,0.152,0.052,0.208,0.069c0.917-0.104,1.29-0.455,1.333-0.924
							c0.043-0.471-0.243-1.058-0.644-1.633c-0.4-0.574-0.915-1.135-1.329-1.553c-0.414-0.417-0.728-0.69-0.728-0.69
							s-2.475-1.392-6.29-3.525c-3.81-2.131-8.953-5-14.3-7.961c-5.336-2.956-10.876-6.003-15.506-8.504
							c-4.622-2.496-8.339-4.452-10.049-5.232c-1.712-0.78-6.615-3.34-13.306-6.945c-6.675-3.597-15.119-8.228-23.944-13.169
							c-8.793-4.925-17.96-10.153-26.14-14.976c-8.151-4.806-15.326-9.21-20.188-12.516c-4.011-2.726-9.909-6.408-16.73-10.528
							c-6.8-4.106-14.513-8.646-22.188-13.106c-7.65-4.445-15.263-8.812-21.907-12.598c-6.625-3.776-12.292-6.979-16.079-9.113
							c1.851-0.12,3.7-0.231,5.555-0.328c1.855-0.099,3.716-0.185,5.591-0.256c1.874-0.07,3.762-0.125,5.669-0.164
							c1.909-0.037,3.838-0.058,5.796-0.058c1.362,0,2.738,0.011,4.13,0.032c1.393,0.02,2.801,0.052,4.229,0.096
							c1.428,0.044,2.875,0.1,4.344,0.167c1.469,0.068,2.959,0.148,4.474,0.243c2.458,0.152,5.528,0.285,9.067,0.398
							s7.547,0.207,11.881,0.281c4.333,0.076,8.993,0.132,13.835,0.169c4.841,0.037,9.865,0.057,14.929,0.058
							c7.059,0.001,14.193-0.034,21.02-0.102c6.823-0.069,13.337-0.172,19.157-0.308c5.817-0.136,10.94-0.305,14.984-0.506
							c4.042-0.201,7.007-0.435,8.509-0.697c1.574-0.183,3.708-0.455,5.52-0.829c1.811-0.375,3.3-0.85,3.585-1.439
							c0.285-0.588-0.632-1.29-3.632-2.117c-2.998-0.825-8.075-1.775-16.111-2.862c-8.034-1.087-15.33-2.126-22.479-3.092
							c-7.146-0.966-14.145-1.857-21.586-2.647c-7.439-0.791-15.322-1.479-24.238-2.039c-8.916-0.561-18.868-0.992-30.448-1.268
							c-4.745-0.272-10.292-0.903-16.171-1.77c-5.877-0.866-12.085-1.968-18.156-3.181c-6.067-1.211-11.996-2.533-17.321-3.842
							c-5.321-1.309-10.04-2.604-13.694-3.763c-3.651-1.159-9.664-2.696-16.807-4.417c-7.134-1.718-15.394-3.616-23.552-5.503
							c-8.148-1.883-16.195-3.754-22.92-5.417c-6.718-1.662-12.119-3.117-14.989-4.174c-2.71-0.999-8.572-2.766-16.6-4.955
							c-8.017-2.186-18.19-4.792-29.545-7.474c-11.334-2.677-23.845-5.429-36.569-7.916c-12.705-2.483-25.628-4.703-37.822-6.323
							c-3.826-1.088-7.871-2.254-11.826-3.42c-3.953-1.166-7.815-2.332-11.283-3.424c-3.466-1.09-6.537-2.104-8.909-2.966
							c-2.371-0.863-4.044-1.574-4.715-2.058c-1.834-0.963-5.099-2.563-9.227-4.523c-4.122-1.957-9.103-4.27-14.38-6.658
							c-5.269-2.384-10.833-4.844-16.137-7.1c-5.295-2.253-10.333-4.306-14.563-5.884c-4.96-1.512-9.792-2.787-14.494-3.851
							c-4.697-1.063-9.265-1.915-13.698-2.58c-4.432-0.664-8.731-1.141-12.893-1.454
							C148.063,325.881,144.037,325.73,140.153,325.721"/>
					</g>
				</g>
			</g>
		</g>
		<g>
			<path id="queue_derriere_2_" fill="#474747" d="M506.342,432.273c0,0,54.749,67.842,64.61,81.094
				c9.858,13.253,34.151,46.069,39.307,49.014c3.681,3.683,5.889,3.894,19.879,5.364c13.99,1.473,64.79-0.737,64.79-0.737
				L574.185,432.273H506.342z"/>
			<path id="queue_24_" fill="#333333" d="M514.548,324.999c0,0,55.217,69.942,71.416,95.711
				c16.198,25.769,64.788,85.401,70.678,91.294c5.893,5.89,38.286,47.119,38.286,47.119s3.683,8.098,0,8.835
				c-5.89-3.683-169.332-164.918-176.697-170.071c-7.364-5.155-72.895-63.648-72.895-63.648L514.548,324.999z"/>
			<path id="patted_23_" fill="#3C3D3F" d="M362.55,415.479c0,0-46.434,85.627-58.029,97.223
				c-11.597,11.598-21.435,20.175-40.208,19.623c-18.775-0.552-26.455-0.103-26.455-0.103s-9.917,5.432,0.022,6.535
				c9.94,1.105,21.549-0.031,21.549-0.031l-25.946,13.237l-12.147,3.305c0,0-8.832,8.278,2.764,6.622
				c11.596-1.657,57.427-19.881,57.427-19.881l-18.22,26.437c0,0-3.866,6.14-3.314,13.319c0.552,7.177-2.761,14.356,6.075,2.761
				c8.835-11.597,26.505-30.371,31.474-34.788c4.969-4.417,9.939-6.074,33.682-8.835c23.745-2.761,23.745-2.761,23.745-2.761
				s18.22-8.835-6.351-11.872c-18.222-0.553-40.032,5.798-40.032,5.798s66.261-97.263,69.021-108.306
				c2.762-11.044,2.762-10.02,2.762-10.02h-18.221L362.55,415.479z"/>
			<path id="patteg_24_" fill="#4C4E51" d="M412.951,414.454c0,0-23.56,105.835-28.713,111.726
				c-0.738,6.626-4.696,17.301-23.194,17.854c-11.874,0-37.273-0.048-39.757,2.161c-2.486,2.209-8.835,7.708,0,9.089
				c8.282-0.553,27.056-2.496,31.473-0.012c0.276,1.934-41.136,16.835-49.42,18.217c-8.283,1.38-17.67,6.899-19.326,14.354
				c4.694,0.276,14.08-2.486,14.08-2.486s31.476-10.491,38.102-11.319c6.625-0.828,40.033-13.808,40.033-13.808
				s3.313,0.554,0.828,6.076c-2.483,5.521-13.253,24.019-12.977,31.749c0.276,7.731,1.106,12.148,1.106,12.148
				s2.208,11.872,10.215-2.209c4.97-14.08,4.418-17.67,4.418-17.67s7.73-20.983,11.596-25.124
				c3.865-4.142,1.379-12.699,31.748-23.467c10.494-4.142,18.224-9.664,18.224-9.664s4.142-13.252-11.32-6.625
				c-9.939,4.97-23.507,10.767-23.507,10.767s-9.349,6.534-5.759-4.511c3.59-11.043,27.886-117.245,27.886-117.245H412.951z"/>
			<path id="corps_21_" fill="#333333" d="M99.679,145.728c0,0,37.916,36.442,39.388,88.718
				c0.734,18.405,13.988,70.744,40.493,99.793c26.503,29.049,86.876,81.321,176.696,83.529c43.44,0.737,66.999,2.944,67.736,0
				c0.735-2.944,30.187-5.153,61.107,6.627c24.296,12.516,103.702,41.229,103.702,41.229L487.309,364.759
				c0,0-133.995-106.752-167.863-115.586c-33.87-8.836-111.909-64.79-111.909-64.79l-99.391-47.119
				C108.146,137.264,96.308,138.616,99.679,145.728"/>
			<path id="tête_3_" fill="#333333" d="M87.622,117.476c8.56-14.449,58.072-68.011,128.198-22.181
				c17.119,13.805,46.937,44.175,54.114,52.457c4.417,7.18,56.877,37.365,56.877,37.365s-58.624,48.686-116.051,23.284
				c-57.426-25.4-62.765-29.819-68.286-33.134C127.185,165.278,93.053,132.659,87.622,117.476z"/>
			<path id="aile_27_" fill="#1E1E1E" d="M206.063,212.361c15.003,34.506,25.768,76.57,137.676,112.645
				c85.405,13.253,129.577,12.574,151.665,9.232c22.087-3.343,40.493-7.025,64.051-4.08c23.562,2.946,104.548,2.21,115.592-1.472
				c6.625-1.471,22.823-5.889-8.834-14.724c-31.661-8.836-51.538-16.198-98.658-18.406c-19.142-2.209-50.064-16.197-64.052-25.769
				c-13.988-9.571-65.526-31.657-76.569-40.491c-11.044-8.836-77.764-46.481-128.797-58.312
				C248.397,159.624,200.083,188.338,206.063,212.361z"/>
			<path id="bec_27_" fill="#4C4E51" d="M130.602,140.941l-40.863-20.982l9.574-6.626c0,0-0.739-3.682-8.101-4.417
				c-7.36-0.736-45.647-9.203-66.63,15.092c2.668,1.935,57.426,8.099,75.097,21.72c2.943-2.946,4.417-7.73,4.417-7.73
				L130.602,140.941z"/>
			<ellipse id="oeil_20_" fill="#C9CCB7" cx="152.043" cy="120.695" rx="12.424" ry="10.217"/>
			<radialGradient id="oeil_32_" cx="154.7446" cy="118.7305" r="10.3282" gradientUnits="userSpaceOnUse">
				<stop  offset="0" style="stop-color:#FFFFFF"/>
				<stop  offset="0.1386" style="stop-color:#D5D4D3"/>
				<stop  offset="0.2079" style="stop-color:#494340"/>
				<stop  offset="0.3663" style="stop-color:#28201D"/>
				<stop  offset="1" style="stop-color:#231B18"/>
			</radialGradient>
			<ellipse id="oeil_21_" fill="url(#oeil_32_)" cx="152.043" cy="120.695" rx="6.631" ry="5.453"/>
		</g>
	</g>
</g>
<g id="paruline_jaune">
</g>
<g id="tyran_gris">
</g>
<g id="sporophile_cici">
</g>
<g id="tourterelle_à_queue_carree">
</g>
<g id="colobri_huppé">
</g>
<g id="cécerelle_d_x27_amerique">
</g>
<g id="heron_vert">
</g>
<g id="pic_de_la_guadeloupe">
</g>
<g id="héron_garde-boeufs">
</g>
<g id="photos">
</g>
<g id="solitaire_siffleur">
</g>
<g id="tyran_janeau">
</g>
<g id="colibri_fallevert">
</g>
<g id="colombe_a_queue_noire">
</g>
</svg>
