<?xml version="1.0" encoding="utf-8"?>
<!-- Generator: Adobe Illustrator 16.0.0, SVG Export Plug-In . SVG Version: 6.00 Build 0)  -->
<!DOCTYPE svg PUBLIC "-//W3C//DTD SVG 1.1//EN" "http://www.w3.org/Graphics/SVG/1.1/DTD/svg11.dtd">
<svg version="1.1" xmlns="http://www.w3.org/2000/svg" xmlns:xlink="http://www.w3.org/1999/xlink" x="0px" y="0px"
	 width="507.414px" height="509.586px" viewBox="0 0 507.414 509.586" enable-background="new 0 0 507.414 509.586"
	 xml:space="preserve">
<g id="basse_x5F_terre">
</g>
<g id="haute_x5F_terre">
	<g>
		<path fill-rule="evenodd" clip-rule="evenodd" fill="#B3B3B3" d="M368.096,384.931c2.405-1.357,4.686-3.066,7.249-3.977
			c2.538-0.9,5.361-0.998,8.713-1.557c6.111,3.17,13.061,6.727,19.961,10.371c3.477,1.838,7.011,3.637,10.221,5.879
			c1.13,0.791,2,2.893,1.906,4.326c-0.373,5.74,3.894,8.609,7.14,11.969c2.673,2.768,5.976,4.92,8.966,7.385
			c8.934,7.361,10.901,18.73,6.715,30.793c-2.094,6.029-5.665,9.547-11.401,12.488c-5.23,2.684-9.052,8.004-13.78,11.803
			c-4.997,4.016-10.647,6.783-17.305,6.793c-0.989,0-2.172-0.133-2.936,0.334c-6.427,3.926-12.643,2.9-19.198,0.055
			c-6.318-2.742-12.975-4.703-19.448-7.1c-0.87-0.322-1.703-1.066-2.274-1.824c-4.105-5.455-8.873-10.072-8.772-18.197
			c0.094-7.629-2.754-15.273-4.039-22.955c-0.248-1.484,0.252-3.676,1.263-4.684c3.413-3.402,8.483-5.775,10.505-9.766
			c2.012-3.975,1.111-9.424,1.498-14.354c9.283-2.207,10.586-11.381,15.082-17.854L368.096,384.931z"/>
		<path fill-rule="evenodd" clip-rule="evenodd" fill="#B3B3B3" d="M133.751,484.905c-0.065,1.27-0.138,2.676-0.196,3.797
			c1.752,2.387,7.09,0.201,5.832,5.18c-0.181,0.715-2.409,0.914-4.741,1.711c-6.639,11.857-6.794,10.721-20.598,2.938
			c1.841-4.346,0.974-9.965,6.934-12.434c1.488-0.617,2.203-3.1,3.203-4.617C127.355,482.614,130.409,483.708,133.751,484.905z"/>
		<path fill-rule="evenodd" clip-rule="evenodd" fill="#B3B3B3" d="M144.777,490.854c3.991-1.477,5.242-6.002,10.322-5.299
			c2.847,0.393,6.226-0.619,5.593-5.51c-0.273-2.115,1.588-4.506,2.996-8.084c1.467,2.787,2.088,3.969,3.076,5.846
			c0.942-2.547,1.599-4.322,2.412-6.521c4.919,1.646,4.51,4.658,3.098,8.514c0.729-0.619,1.457-1.236,2.193-1.859
			c0.079,3.592-0.221,4.322-4.077,5.77c-3.347,1.256-5.293,2.736-3.343,6.605c0.137,0.271-1.837,2.326-2.546,2.18
			c-2.957-0.609-5.531-1.564-7.984,1.572c-0.675,0.863-3.669,0.277-5.456-0.191C149.228,493.394,147.572,492.241,144.777,490.854z"
			/>
		<path fill-rule="evenodd" clip-rule="evenodd" fill="#B3B3B3" d="M486.695,254.593c3.649,0,5.914,0.111,8.163-0.033
			c2.094-0.135,4.981,1.52,5.206-3.023c0.057-1.146,4.523-2.074,7.35-3.266c-1.563,8.027-4.047,10.734-10.812,11.234
			C493.256,259.753,489.495,259.61,486.695,254.593z"/>
		<path fill-rule="evenodd" clip-rule="evenodd" fill="#B3B3B3" d="M152.778,127.727c1.114-2.258,1.922-5.101,3.715-7.025
			c0.911-0.978,3.755-0.779,5.43-0.223c1.361,0.451,2.284,2.227,3.401,3.416c-1.506,0.913-2.908,2.2-4.542,2.651
			C158.31,127.229,155.676,127.333,152.778,127.727z"/>
		<path fill-rule="evenodd" clip-rule="evenodd" fill="#B3B3B3" d="M151.094,506.571c1.771-1.385,3.543-2.771,5.338-4.178
			c0.292,0.031,0.722-0.061,0.903,0.113c1.997,1.895,6.497,3.475,3.89,6.492c-1.274,1.475-6.266-0.262-9.575-0.545
			C151.465,507.827,151.279,507.2,151.094,506.571z"/>
		<path fill-rule="evenodd" clip-rule="evenodd" fill="#B3B3B3" d="M155.116,481.487c-2.609-1.973-4.354-3.291-6.1-4.609
			c0.128-0.584,0.256-1.168,0.385-1.75c2.524,0.246,5.048,0.492,7.573,0.738C156.424,477.526,155.875,479.188,155.116,481.487z"/>
	</g>
	<path fill="none" d="M43.106,116.897c-0.015,0.011-0.031,0.026-0.046,0.038c-0.001,0.002-0.002,0.004-0.004,0.006L43.106,116.897z"
		/>
	<path fill="none" d="M51.145,383.874c0.013,0.015,0.026,0.03,0.039,0.045c0,0.001,0.001,0.002,0.002,0.002L51.145,383.874z"/>
	<path fill="#9FB454" d="M159.052,182.507c-1.574,1.04-3.323,1.618-5.069,1.5c-0.959-0.064-2.542-1.916-2.543-2.944
		c-0.003-2.577,0.736-5.154,1.178-7.732c-0.475-0.131-0.949-0.263-1.424-0.395c-2.657,4.138-3.744,10.006-10.825,10.471
		c0.941-2.897,1.655-5.095,2.71-8.343c-3.147,0.769-5.145,1.441-7.194,1.682c-1.138,0.134-2.451-0.276-3.496-0.813
		c-0.355-0.182-0.422-2.029-0.119-2.194c1.029-0.561,2.479-1.255,3.415-0.918c3.635,1.309,5.565-0.403,6.361-3.504
		c0.934-3.637,1.837-6.986,5.858-8.515c0.711-0.271,1.442-2.04,1.204-2.826c-0.251-0.829-1.615-1.765-2.559-1.843
		c-1.601-0.132-3.331,0.142-4.871,0.653c-5.09,1.694-9.94,1.531-14.632-1.236c-2.447-1.443-4.95-2.792-7.73-4.354
		c0.434-1.048,0.969-2.341,1.551-3.748c-0.945-0.722-1.667-1.726-2.507-1.837c-3.287-0.433-6.649-0.349-9.912-0.891
		c-5.902-0.98-11.939-1.858-15.554-7.818c-0.963,1.334-1.593,2.206-1.69,2.341c-4.524-2.313-8.326-4.714-12.451-6.245
		c-4.672-1.734-11.463,0.386-12.391-7.518c-0.042-0.36-0.787-0.594-1.097-0.974c-3.582-4.385-7.703-7.497-13.391-9.348
		c-3.984-1.297-6.485-2.1-8.816,1.776c0.015-0.012,0.032-0.026,0.046-0.038l-0.05,0.044c0.001-0.002,0.002-0.004,0.004-0.006
		c-0.763,0.591-1.744,1.773-2.222,1.596c-5.657-2.099-9.893,1.695-14.526,3.488c-1.7,0.658-2.972,2.533-4.315,3.969
		c-1.471,1.573-2.962,3.172-4.143,4.959c-1.223,1.85-3.225,4.167-2.884,5.879c0.9,4.514-0.699,6.976-4.543,8.707
		c-6.704,3.018-6.816,4.08-0.528,9.169c-6.848,2.16-5.572,7.697-5.757,12.752c-0.175,4.767,0.849,10.03-4.556,12.734
		c0.873,3.019,2.037,5.666,2.355,8.411c0.939,8.113,3.224,15.267,9.905,20.815c6.276,5.212,7.883,15.005,5.054,22.6
		c-0.864,2.319-1.033,5.079-0.815,7.575c0.277,3.172,1.551,6.253,1.868,9.427c0.262,2.619-0.662,5.471,3.567,5.58
		c0.505,0.014,1.34,2.113,1.37,3.264c0.185,7.293,2.978,14.848-2.548,21.471c2.066,1.27,4.066,1.879,4.976,3.225
		c1.019,1.508,1.969,4.072,1.362,5.508c-3.948,9.328-2.577,19.242-0.144,27.891c1.722,6.121,1.776,11.506,1.596,17.398
		c-0.092,3.016-0.1,6.377,1.105,9.008c1.616,3.529,4.61,6.4,6.707,9.744c2.419,3.859,5.396,7.689,6.539,11.957
		c1.915,7.146,1.732,14.986,8.7,19.857c-0.013-0.015-0.026-0.03-0.039-0.045l0.041,0.047c0,0-0.001-0.001-0.002-0.002
		c3.305,3.673,6.027,8.283,10.057,10.791c8.108,5.045,11.014,11.736,10.225,20.904c-0.341,3.963,0.782,8.779,5.737,8.381
		c6.527-0.527,12.937-2.646,19.351-4.262c0.726-0.184,1.206-1.512,1.715-2.357c3.22-5.355,5.08-5.91,9.159-3.5
		c3.325-1.805,6.032-4.152,9.051-4.666c2.992-0.51,6.448,1.672,9.43,1.145c3.894-0.688,7.525-2.871,11.254-4.449
		c0.253-0.107,0.453-0.51,0.539-0.813c0.954-3.398,1.716-6.859,2.893-10.176c0.502-1.416,1.716-2.68,2.858-3.742
		c1.18-1.096,3.241-1.563,3.907-2.832c0.94-1.794,2.161-2.686,3.572-3.133c0.412-0.711,1.005-1.312,1.774-1.717
		c-0.195-0.019-0.388-0.036-0.6-0.055c6.107-5.295,11.351-9.729,16.448-14.324c1.775-1.602,3.618-3.387,4.677-5.471
		c2.188-4.305,3.428-9.133,5.888-13.248c2.416-4.041,5.181-7.465,0.728-11.781c-0.585-0.566-0.63-1.891-0.606-2.855
		c0.146-5.76,0.916-11.561,0.437-17.258c-0.424-5.049-0.88-10.975-3.695-14.736c-4.162-5.559-5.142-8.568,0.011-13.244
		c4.16-3.775,3.792-5.457-1.595-7.289c-5.527-1.881-6.714-4.002-6.397-9.445c0.094-1.619-1.093-3.76-2.368-4.922
		c-3.178-2.896-4.288-9.779-1.724-13.32c1.775-2.451,1.653-4.201-1.215-6.064c-5.197-3.373-5.925-9.734-2.248-14.7
		c0.828-1.118,1.786-2.635,1.661-3.863c-0.265-2.58-1.082-5.132-1.9-7.62c-1.992-6.057,1.544-10.614,3.555-15.926L159.052,182.507
		L159.052,182.507z"/>
	<path fill="#47774F" d="M167.4,208.662c4.333-2.957,7.881,4.563,12.202,0.845c0.104-0.09,1.461,0.835,1.762,1.5
		c0.715,1.578,0.881,3.45,1.775,4.89c0.758,1.219,2.167,2.664,3.395,2.77c1.083,0.094,2.758-1.289,3.376-2.445
		c0.95-1.778,1.22-3.92,1.686-5.577c-1.727-1.41-4.242-2.451-4.766-4.118c-0.908-2.888-0.583-6.163-0.821-10.009
		c5.734,5.926,10.362,12.216,12.154,19.98c0.831,3.598,1.854,6.555,5.431,7.336c2.646,0.578,5.562-0.207,8.336-0.04
		c1.348,0.081,3.781,0.921,3.796,1.472c0.16,5.682,4.5,5.195,8.116,5.952c5.803,1.214,11.868,1.83,17.301,4.001
		c7.996,3.194,14.584-0.878,21.675-2.649c0.399-0.1,0.792-0.633,0.991-1.057c2.164-4.606,6.345-3.269,10.033-3.505
		c2.255-0.144,4.51-0.452,6.737-0.845c4.641-0.817,9.428-1.287,12.572-5.621c0.446-0.614,1.831-0.508,2.75-0.825
		c4.359-1.509,8.334-4.052,13.482-3.09c1.353,0.253,3.261-2.981,5.057-4.438c1.604-1.3,3.351-3.259,5.129-3.366
		c9.73-0.591,18.268-7.288,28.431-5.406c1.841,0.342,3.998,1.068,5.563,0.463c8.348-3.228,17.507-2.163,25.982-6.093
		c5.451-2.527,12.566-1.853,18.225-5.378c0.547-0.342,1.604,0.119,2.421,0.228c11.274,1.494,22.514,3.626,33.837,4.267
		c7.676,0.434,14.986,0.773,22.057,6.819c0.661-3.423,1.067-5.524,1.404-7.268c-2.006-0.212-4.713,0.181-6.634-0.866
		c-2.679-1.459-4.873-2.653-8.188-3.175c-2.978-0.469-5.702,1.213-8.13,0.111c-7.913-3.586-15.771-7.331-23.403-11.473
		c-2.177-1.182-3.759-3.76-5.175-5.977c-2.75-4.306-5.171-8.821-7.765-13.228c-1.829-3.108-2.18-7.062-7.114-8.221
		c-1.256-0.295-3.269-4.222-6.244-5.54c-5.184-2.296-10.07-5.25-15.135-7.823c-1.934-0.982-4.016-1.673-6.029-2.496
		c-3.35-1.06-6.422-1.796-9.512-2.449c-1.445-0.306-2.918-0.537-4.39-0.65c-4.7-0.362-9.407-0.653-14.95-1.028
		c-1.013-3.049-4.513-0.095-6.677-0.884c-7.249-2.643-15.979-2.522-20.929-10.189c-3.135-4.854-6.852-9.329-10.189-14.057
		c-6.86-9.717-8.638-20.003-4.005-31.338c1.499-3.666,2.87-8.115,2.167-11.8c-1.652-8.672-4.593-17.099-7.002-25.627
		c-0.703-2.487-0.576-5.857-2.19-7.323c-6.526-5.927-13.637-11.206-20.391-16.891c-1.063-0.895-1.84-2.644-1.868-4.016
		c-0.001-0.057,0.028-0.116,0.067-0.176c-0.023-0.033-0.043-0.068-0.064-0.103c-1.159-0.129-2.061-0.619-2.738-1.298
		c-1.616-0.014-2.822-0.658-3.62-1.615c-0.004-0.001-0.008-0.002-0.011-0.003c-0.761,0.589-1.754,0.977-2.985,0.977
		c-1.29,0-2.318-0.022-3.092-1.022h-1.587c-0.868-3-1.612-6.434-2.327-9.274c-6.41,0.866-9.271,5.742-12.024,11.204
		c-1.155,2.292-3.965,3.858-6.24,5.447c-4.557,3.183-11.135,3.858-12.581,10.868c-0.245,1.189-2.322,2.512-3.77,2.853
		c-6.915,1.63-9.463,8.734-15.186,11.81c-0.59,0.317-0.82,1.418-1.087,2.2c-1.334,3.906-2.626,7.826-3.961,11.827
		c0.72,0.805,2,1.61,2.328,2.702c2.152,7.167,4.709,14.295,5.925,21.637c1.029,6.216,3.646,9.974,9.676,11.65
		c3.25,0.904,6.737,1.778,9.445,3.642c5.539,3.811,5.812,9.117,1.154,16.022c5.755,1.85,0.271,5.511,1.848,8.279
		c-2.83,0.703-5.226,1.299-7.738,1.923c0.517,1.558,0.941,2.834,1.681,5.062c-4.226-0.382-7.706-0.697-11.667-1.056
		c-0.151,0.228-0.55,1.223-1.271,1.843c-4.761,4.103-8.254,8.674-6.92,15.536c0.266,1.365,0.053,3-0.461,4.303
		c-1.129,2.86-2.158,7.602-4,7.999c-5.853,1.263-4.57,4.357-3.201,7.96c-1.472,1.272-2.644,3.021-4.207,3.506
		c-5.767,1.786-11.099,5.641-17.735,3.968c-0.641-0.161-2.428,1.787-2.69,2.976c-0.748,3.39-2.939,6.557-5.65,8.347l0,0l4.71,24.864
		C165.359,207.971,166.865,209.027,167.4,208.662z"/>
</g>
</svg>
